<?xml version="1.0" encoding="UTF-8"?>
<svg xmlns="http://www.w3.org/2000/svg" width="1540.0" height="1057.5"
     viewBox="0 0 1540.0 1057.5">
<rect width="100%" height="100%" fill="white"/>
<text x="770.0" y="30" text-anchor="middle" font-size="14" font-family="sans-serif" font-weight="bold" fill="#333">Mono B Upright — Key glyphs close-up</text><text x="187.5" y="48" text-anchor="middle" font-size="10" font-family="sans-serif" fill="#999">H</text><text x="362.5" y="48" text-anchor="middle" font-size="10" font-family="sans-serif" fill="#999">I</text><text x="537.5" y="48" text-anchor="middle" font-size="10" font-family="sans-serif" fill="#999">J</text><text x="712.5" y="48" text-anchor="middle" font-size="10" font-family="sans-serif" fill="#999">K</text><text x="887.5" y="48" text-anchor="middle" font-size="10" font-family="sans-serif" fill="#999">L</text><text x="1062.5" y="48" text-anchor="middle" font-size="10" font-family="sans-serif" fill="#999">M</text><text x="1237.5" y="48" text-anchor="middle" font-size="10" font-family="sans-serif" fill="#999">R</text><text x="1412.5" y="48" text-anchor="middle" font-size="10" font-family="sans-serif" fill="#999">S</text><text x="20" y="221.25" font-size="11" font-family="sans-serif" font-weight="bold" fill="#555">Linear</text><path d="M117.5 55.00000000000003C117.5 67.60000000000002 117.5 79.85000000000002 117.5 92.45000000000002C117.5 160.35000000000002 117.5 228.25 117.5 296.15C117.5 298.6 118.66665499999999 300.0 120.708345 300.0C135.291655 300.0 148.125 300.0 162.708345 300.0C162.708345 219.85000000000002 162.708345 139.0 162.708345 58.85000000000002C162.708345 56.400000000000006 161.541655 55.00000000000003 159.5 55.00000000000003C144.916655 55.00000000000003 132.083345 55.00000000000003 117.5 55.00000000000003ZM136.75 154.4V197.8C136.75 200.25 137.916655 201.65 139.958345 201.65H233.58334499999998L223.958345 151.25L213.166655 154.4C206.75 154.4 200.333345 154.4 193.916655 154.4ZM257.5 300.0C257.5 288.8 257.5 275.5 257.5 261.5C257.5 193.95 257.5 126.4 257.5 58.85000000000002C257.5 56.400000000000006 256.333345 55.00000000000003 254.291655 55.00000000000003C239.70834499999998 55.00000000000003 226.875 55.00000000000003 212.291655 55.00000000000003C212.291655 135.15 212.291655 216.0 212.291655 296.15C212.291655 298.6 213.458345 300.0 215.5 300.0C230.08334499999998 300.0 242.916655 300.0 257.5 300.0Z" fill="#1a1a1a"/><path d="M385.25 270.25C385.25 223.0 385.25 174.35000000000002 385.25 126.75C385.25 119.05000000000001 385.25 108.55000000000001 385.25 100.85000000000002L386.416655 84.75H339.75C339.75 132.35000000000002 339.75 181.0 339.75 228.25C339.75 235.60000000000002 339.75 246.8 339.75 254.15L338.583345 270.25ZM429.583345 300.0C429.583345 284.6 429.583345 272.0 429.583345 256.6C429.583345 254.15 428.416655 252.75 426.375 252.75H295.416655C295.416655 268.15 295.416655 280.75 295.416655 296.15C295.416655 298.6 296.583345 300.0 298.625 300.0ZM295.416655 55.00000000000003C295.416655 70.4 295.416655 83.0 295.416655 98.4C295.416655 100.85000000000002 296.583345 102.25 298.625 102.25H429.583345C429.583345 86.85000000000002 429.583345 74.33549618322002 429.583345 58.85000000000002C429.583345 56.400000000000006 428.416655 55.00000000000003 426.375 55.00000000000003Z" fill="#1a1a1a"/><path d="M521.75 257.65C506.875 257.65 493.458345 254.5 479.166655 247.15H473.333345C473.333345 262.9 473.333345 276.2 473.333345 290.55C473.333345 293.0 473.625 294.4 474.791655 295.8C479.166655 301.05 499.583345 307.0 524.666655 307.0C574.25 307.0 598.75 267.45 598.75 214.25C598.75 161.69750000000002 598.75 107.55250000000001 598.75 55.00000000000003C598.75 52.20000000000002 594.083345 50.80000000000001 582.416655 50.80000000000001C577.75 50.80000000000001 573.083345 50.80000000000001 568.41669 50.80000000000001C556.75 50.80000000000001 552.083345 52.20000000000002 552.083345 55.00000000000003C552.083345 55.00000000000003 552.083345 55.00000000000003 552.083345 55.00000000000003C552.083345 55.00000000000003 552.083345 55.00000000000003 552.083345 55.00000000000003C552.083345 109.05400000000003 552.083345 164.746 552.083345 218.8C552.083345 233.5 549.75 243.3 544.791655 249.25C539.833345 255.2 532.25 257.65 521.75 257.65Z" fill="#1a1a1a"/><path d="M722.708345 152.65 694.125 218.45H710.75C713.958345 235.25 717.166655 244.0 730.583345 270.6C744.583345 297.55 753.916655 300.0 775.791655 300.0C782.208345 300.0 786.0 300.0 788.041655 300.0C790.083345 300.0 791.25 298.6 791.25 296.15C791.25 293.35 791.25 268.85 791.25 252.75H789.791655C786.875 252.75 785.708345 252.75 782.791655 252.75C775.208345 252.75 773.458345 251.0 769.083345 242.25C753.916655 212.85000000000002 737.875 182.05 722.708345 152.65ZM793.291655 55.00000000000003H743.708345C734.083345 74.25000000000003 719.791655 103.30000000000001 710.458345 122.55000000000001C702.291655 139.0 697.333345 151.95000000000002 693.541655 169.45000000000002H681.875V258.35C724.458345 185.55 772.875 101.55000000000001 788.916655 72.85000000000002C795.916655 60.60000000000002 795.916655 59.55000000000001 795.916655 57.80000000000001C795.916655 56.400000000000006 794.75 55.00000000000003 793.291655 55.00000000000003ZM642.5 55.00000000000003C642.5 67.60000000000002 642.5 79.85000000000002 642.5 92.45000000000002C642.5 160.35000000000002 642.5 228.25 642.5 296.15C642.5 298.6 643.666655 300.0 645.708345 300.0C660.291655 300.0 673.125 300.0 687.708345 300.0C687.708345 219.85000000000002 687.708345 139.0 687.708345 58.85000000000002C687.708345 56.400000000000006 686.541655 55.00000000000003 684.5 55.00000000000003C669.916655 55.00000000000003 657.083345 55.00000000000003 642.5 55.00000000000003Z" fill="#1a1a1a"/><path d="M823.625 300.0H957.5C952.833345 265.0 945.25 252.75 922.208345 252.75H867.083345C867.083345 189.05 867.083345 122.55000000000001 867.083345 58.85000000000002C867.083345 56.400000000000006 865.916655 55.00000000000003 863.875 55.00000000000003C849.291655 55.00000000000003 835.0 55.00000000000003 820.416655 55.00000000000003C820.416655 64.45000000000002 820.416655 73.55000000000001 820.416655 83.0C820.416655 154.05 820.416655 225.10000000000002 820.416655 296.15C820.416655 298.6 821.583345 300.0 823.625 300.0Z" fill="#1a1a1a"/><path d="M1033.333345 300.0C1033.333345 284.6 1033.333345 268.85 1033.333345 253.45C1033.333345 235.25 1031.875 211.45 1019.916655 133.4L1014.666655 143.9H1035.666655L1023.708345 134.10000000000002C1035.083345 174.0 1045.875 213.55 1057.541655 253.45C1058.125 255.9 1059.291655 256.25 1061.041655 256.25C1062.208345 256.25 1063.083345 256.25 1064.25 256.25C1076.791655 215.65 1089.041655 174.7 1101.583345 134.10000000000002L1089.333345 143.9H1110.625L1105.083345 133.4C1093.416655 212.15 1091.666655 235.95 1091.666655 253.45C1091.666655 267.8 1091.666655 281.8 1091.666655 296.15C1091.666655 298.6 1092.833345 300.0 1094.875 300.0C1108.291655 300.0 1122.0 300.0 1135.416655 300.0C1135.416655 288.45 1135.416655 276.9 1135.416655 265.35C1135.416655 196.4 1135.416655 127.45000000000002 1135.416655 58.85000000000002C1135.416655 56.400000000000006 1134.25 55.00000000000003 1132.208345 55.00000000000003C1118.791655 55.00000000000003 1105.666655 55.00000000000003 1092.25 55.00000000000003C1074.166655 106.80000000000001 1069.791655 120.80000000000001 1063.666655 179.25L1073.291655 164.20000000000002H1052.0L1061.625 179.25C1055.5 120.80000000000001 1050.25 106.45000000000002 1037.125 67.25000000000003C1033.625 56.400000000000006 1032.166655 55.00000000000003 1030.125 55.00000000000003C1016.708345 55.00000000000003 1003.0 55.00000000000003 989.583345 55.00000000000003C989.583345 66.55000000000001 989.583345 78.45000000000002 989.583345 90.0C989.583345 158.60000000000002 989.583345 227.55 989.583345 296.15C989.583345 298.6 990.75 300.0 992.791655 300.0C1006.208345 300.0 1019.916655 300.0 1033.333345 300.0Z" fill="#1a1a1a"/><path d="M1268.416655 188.7 1230.208345 208.65C1240.125 231.4 1249.458345 254.5 1259.375 277.25C1267.541655 296.5 1276.875 300.0 1297.875 300.0C1301.666655 300.0 1307.5 300.0 1310.125 300.0C1312.166655 300.0 1313.333345 298.6 1313.333345 296.15C1313.333345 280.4 1313.333345 268.5 1313.333345 252.75H1307.5C1306.041655 252.75 1305.166655 252.75 1303.708345 252.75C1299.625 252.75 1297.583345 251.0 1294.666655 244.7C1285.333345 224.4 1278.041655 209.35000000000002 1268.416655 188.7ZM1171.875 55.00000000000003C1171.875 70.4 1171.875 83.0 1171.875 98.4C1171.875 100.85000000000002 1171.875 102.25 1171.875 102.25C1187.916655 102.25 1214.458345 102.25 1240.416655 102.25C1247.708345 102.25 1252.958345 104.35000000000002 1256.166655 108.20000000000002C1259.375 112.05000000000001 1260.833345 117.65 1260.833345 125.35000000000002V149.85000000000002C1260.833345 165.60000000000002 1254.416655 172.95 1240.416655 172.95C1230.208345 172.95 1220.0 172.95 1209.791655 172.95V220.2L1213.0 218.45C1223.791655 218.45 1235.166655 218.45 1245.958345 218.45C1283.291655 218.45 1306.041655 192.55 1306.041655 149.15V128.5C1306.041655 83.70000000000002 1287.666655 55.00000000000003 1238.666655 55.00000000000003C1212.125 55.00000000000003 1185.291655 55.00000000000003 1171.875 55.00000000000003ZM1217.083345 300.0C1217.083345 290.2 1217.083345 278.3 1217.083345 265.7C1217.083345 217.05 1217.083345 178.2 1217.083345 133.75C1217.083345 121.5 1217.083345 108.55000000000001 1217.083345 94.9L1220.583345 84.4H1171.875C1171.875 158.60000000000002 1171.875 221.95 1171.875 296.15C1171.875 298.6 1173.041655 300.0 1175.083345 300.0C1189.666655 300.0 1202.5 300.0 1217.083345 300.0Z" fill="#1a1a1a"/><path d="M1418.916655 48.00000000000003C1373.125 48.00000000000003 1344.541655 76.35000000000002 1344.541655 114.5V132.35000000000002C1344.541655 157.55 1353.0 180.3 1392.083345 194.65L1419.5 204.8C1439.625 212.15 1441.375 217.4 1441.375 226.85000000000002V239.8C1441.375 249.6 1432.625 259.4 1409.583345 259.4C1383.333345 259.4 1365.833345 252.75 1348.333345 239.1H1342.5C1342.5 255.55 1342.5 268.85 1342.5 281.8C1342.5 286.35 1343.083345 287.4 1344.25 288.8C1353.875 300.35 1378.083345 307.0 1406.375 307.0C1455.375 307.0 1484.25 282.15 1484.25 240.5V223.7C1484.25 191.15 1474.041655 173.65 1437.583345 160.35000000000002L1409.875 150.20000000000002C1390.625 143.20000000000002 1387.416655 138.3 1387.416655 125.70000000000002V118.35000000000002C1387.416655 101.55000000000001 1397.916655 95.25 1416.291655 95.25C1425.041655 95.25 1434.666655 97.0 1443.708345 100.15L1440.35006 98.50314500000002C1440.2395999999999 98.11632499999999 1440.09197 99.82947000000001 1439.889775 101.26261500000001C1439.61723 100.59579500000001 1439.72706 99.50894000000002 1440.09099 97.86212000000003C1444.54999 96.21526499999999 1449.13128 94.56841 1453.365055 92.92159000000001C1452.46797 84.97473500000001 1451.45983 75.48788000000002 1450.346795 68.38105999999999C1449.13786 65.614205 1447.72792 63.26738499999999 1445.78101 60.920530000000014C1440.74619 54.93367500000002 1431.35751 49.646855000000016 1418.916655 48.00000000000003Z" fill="#1a1a1a"/><line x1="20" y1="382.5" x2="1520.0" y2="382.5" stroke="#eee" stroke-width="0.5"/><text x="20" y="553.75" font-size="11" font-family="sans-serif" font-weight="bold" fill="#555">SemiCasual</text><path d="M117.7916725 387.5C119.1041725 399.57500000000005 119.6875 412.175 119.6875 425.475C119.6875 486.9 119.6875 548.15 119.6875 609.575C119.6875 628.3 124.79165499999999 633.9 135.145845 633.9C145.9375 633.9 154.5416725 633.375 165.0416725 632.5C165.0416725 557.075 165.0416725 481.125 165.0416725 405.70000000000005C165.0416725 393.8 160.375 386.1 148.5625 386.1C137.625 386.1 128.4375 386.625 117.7916725 387.5ZM122.0208275 489.70000000000005C122.0208275 489.70000000000005 122.0208275 515.775 122.0208275 515.775C122.0208275 530.125 123.91665499999999 537.825 132.375 537.825C132.375 537.825 226.4375 537.825 226.4375 537.825C226.4375 537.825 221.625 490.75 221.625 490.75C221.625 490.75 211.125 494.95000000000005 211.125 494.95000000000005C204.2708275 491.275 196.1041725 489.70000000000005 186.625 489.70000000000005C186.625 489.70000000000005 122.0208275 489.70000000000005 122.0208275 489.70000000000005ZM258.8125 632.5C257.5 620.6 256.9166725 607.475 256.9166725 593.475C256.9166725 528.9 256.9166725 463.975 256.9166725 406.4C256.9166725 390.475 251.66667249999998 386.1 241.604155 386.1C230.95834499999998 386.1 221.7708275 386.625 211.5625 387.5C211.5625 462.9692629815775 211.5625 536.95 211.5625 611.15C211.5625 626.2 217.833345 633.9 228.0416725 633.9C238.97917249999998 633.9 248.166655 633.375 258.8125 632.5Z" fill="#1a1a1a"/><path d="M385.5416725 596.275C385.5416725 553.575 385.5416725 510.35 385.5416725 467.475C385.5416725 455.75 383.5 444.20000000000005 380.0 437.725C380.0 437.725 382.041655 423.725 382.041655 423.725C382.041655 423.725 339.4583275 423.725 339.4583275 423.725C339.4583275 466.6 339.4583275 509.825 339.4583275 552.525C339.4583275 564.075 341.5 575.975 345.0 582.275C345.0 582.275 342.958345 596.275 342.958345 596.275C342.958345 596.275 385.5416725 596.275 385.5416725 596.275ZM432.208345 632.5C432.7916725 622.35 433.2291725 613.425 433.2291725 602.925C433.2291725 591.55 428.125 582.625 409.3125 582.625C409.3125 582.625 292.791655 582.625 292.791655 582.625C292.2083275 592.95 291.7708275 603.45 291.7708275 615.175C291.7708275 626.025 294.833345 632.5 302.4166725 632.5C302.4166725 632.5 432.208345 632.5 432.208345 632.5ZM292.5 387.5C292.0625 396.775 291.7708275 406.225 291.7708275 416.55C291.7708275 431.25 299.5 437.375 315.8333275 437.375C315.8333275 437.375 432.0625 437.375 432.0625 437.375C432.7916725 426.175 433.2291725 416.41774809160995 433.2291725 405.525C433.2291725 395.375 431.479155 387.5 422.5833275 387.5C422.5833275 387.5 292.5 387.5 292.5 387.5Z" fill="#1a1a1a"/><path d="M526.416655 588.575C509.645845 588.575 495.0625 584.025 479.604155 573.7H475.8125C475.229155 584.375 474.791655 594.7 474.791655 607.475C474.791655 616.75 476.541655 622.175 480.333345 626.725C486.3125 633.9 504.25 639.5 525.979155 639.5C574.833345 639.5 599.479155 596.975 599.479155 552.875C599.479155 498.30125 599.479155 442.07375 599.479155 387.5C599.479155 384.70000000000005 594.82706 383.3 583.196875 383.3C578.54478 383.3 573.8927199999999 383.3 569.240625 383.3C557.6104399999999 383.3 552.958345 384.70000000000005 552.958345 387.5C552.958345 387.5 552.958345 387.5 552.958345 387.5C552.958345 387.5 552.958345 387.5 552.958345 387.5C552.958345 441.66949999999997 552.958345 497.4805 552.958345 551.65C552.958345 564.95 551.645845 574.575 548.4375 581.925C542.895845 586.475 535.895845 588.575 526.416655 588.575Z" fill="#1a1a1a"/><path d="M726.5 493.025C726.5 493.025 695.5833275 547.975 695.5833275 547.975C695.5833275 547.975 709.7291725 547.975 709.7291725 547.975C716.7291725 573.875 719.9375 582.625 731.1666725 605.9C743.270845 630.575 753.479155 636.0 771.7083275 636.0C778.708345 636.0 783.5208275 634.95 786.5833275 632.5C789.9375 629.7 791.8333275 623.75 791.8333275 616.225C791.8333275 608.7 791.5416725 593.125 790.8125 581.05C790.8125 581.05 789.2083275 581.05 789.2083275 581.05C786.2916725 582.275 784.1041725 582.8 780.0208275 582.8C772.583345 582.8 768.5 579.3 763.395845 568.275C751.291655 543.425 738.6041725 517.875 726.5 493.025ZM771.416655 385.75C771.416655 385.75 743.8541725 385.75 743.8541725 385.75C737.583345 410.775 726.6458275 438.6 717.6041725 457.85C708.7083275 476.75 701.125 490.925 693.8333275 505.625C693.8333275 505.625 683.625 505.625 683.625 505.625C683.625 505.625 683.625 573.7 683.625 573.7C721.1041725 531.0 768.0625 467.65 783.666655 431.775C791.3958275 414.275 792.2708275 407.275 792.2708275 399.4C792.2708275 391.875 784.8333275 385.75 771.416655 385.75ZM642.7916725 387.5C644.1041725 399.57500000000005 644.6875 412.175 644.6875 425.475C644.6875 486.9 644.6875 548.15 644.6875 609.575C644.6875 628.3 649.791655 633.9 660.145845 633.9C670.9375 633.9 679.5416725 633.375 690.0416725 632.5C690.0416725 557.075 690.0416725 481.125 690.0416725 405.70000000000005C690.0416725 393.8 685.375 386.1 673.5625 386.1C662.625 386.1 653.4375 386.625 642.7916725 387.5Z" fill="#1a1a1a"/><path d="M835.5833275 632.5C835.5833275 632.5 952.1041725 632.5 952.1041725 632.5C951.375 597.15 944.375 582.625 924.25 582.625C924.25 582.625 866.3541725 582.625 866.3541725 582.625C866.3541725 522.775 866.3541725 459.775 866.3541725 403.425C866.3541725 389.425 862.2708275 385.75 850.8958275 385.75C839.229155 385.75 828.4375 386.45000000000005 817.791655 387.5C819.104155 398.175 819.6875 409.025 819.6875 420.75C819.6875 481.475 819.6875 542.025 819.6875 602.75C819.6875 616.4 824.645845 632.5 835.5833275 632.5Z" fill="#1a1a1a"/><path d="M1032.6041725 632.5C1032.6041725 616.00625 1032.6041725 599.425 1032.6041725 582.975C1032.6041725 561.625 1031.4375 537.475 1021.375 463.1C1021.375 463.1 1015.25 473.6 1015.25 473.6C1015.25 473.6 1034.9375 473.6 1034.9375 473.6C1034.9375 473.6 1023.270845 463.975 1023.270845 463.975C1036.1041725 506.325 1047.1875 539.925 1057.6875 565.475C1058.5625 567.4 1059.729155 567.75 1061.3333275 567.75C1062.3541725 567.75 1063.2291725 567.75 1064.25 567.75C1077.0833275 540.8 1089.3333275 506.15 1102.020845 464.15C1102.020845 464.15 1090.3541725 473.6 1090.3541725 473.6C1090.3541725 473.6 1110.1875 473.6 1110.1875 473.6C1110.1875 473.6 1104.0625 463.1 1104.0625 463.1C1093.5625 538.175 1092.3958275 563.725 1092.3958275 582.975C1092.3958275 594.35 1092.3958275 605.6666666666725 1092.3958275 617.1C1092.3958275 629.525 1100.5625 633.9 1108.2916725 633.9C1118.6458275 633.9 1127.25 633.375 1136.291655 632.5C1135.125 621.475 1134.6875 609.575 1134.6875 597.325C1134.6875 532.75 1134.6875 467.82500000000005 1134.6875 403.425C1134.6875 390.65 1129.875 386.1 1118.208345 386.1C1108.5833275 386.1 1099.25 386.625 1089.9166725 387.5C1078.8333275 437.725 1072.416655 461.875 1061.625 504.4C1061.625 504.4 1073.0 492.675 1073.0 492.675C1073.0 492.675 1053.1666725 492.675 1053.1666725 492.675C1053.1666725 492.675 1064.1041725 504.575 1064.1041725 504.575C1053.75 461.525 1048.5 441.05 1039.0208275 405.525C1035.5208275 390.3 1030.125 386.1 1019.0416725 386.1C1009.125 386.1 998.9166725 386.45000000000005 988.5625 387.5C989.583345 398.525 990.3125 410.425 990.3125 422.5C990.3125 487.25 990.3125 552.35 990.3125 617.1C990.3125 629.525 997.08773 633.9 1004.8958275 633.9C1014.4832025000001 633.9 1024.291655 633.55 1032.6041725 632.5Z" fill="#1a1a1a"/><path d="M1271.479155 525.75C1271.479155 525.75 1237.0625 547.275 1237.0625 547.275C1243.0416725 568.8 1249.895845 588.925 1258.9375 610.275C1267.3958275 630.225 1278.1875 636.0 1296.4166725 636.0C1301.5208275 636.0 1306.7708275 635.125 1310.2708275 632.5C1313.479155 629.875 1315.375 623.75 1315.375 613.6C1315.375 601.875 1315.083345 592.6 1314.3541725 581.05C1314.3541725 581.05 1310.5625 581.05 1310.5625 581.05C1308.0833275 582.275 1306.7708275 582.625 1303.5625 582.625C1297.2916725 582.625 1293.0625 579.3 1288.6875 569.5C1281.833345 554.45 1276.875 541.675 1271.479155 525.75ZM1170.916455 387.5C1171.0747425 398.35 1171.2242449999999 407.625 1171.4177075 419.175C1171.9629375 431.25 1172.2355525 437.375 1172.2355525 437.375C1181.0625 437.375 1207.1666725 433.875 1236.3333275 433.875C1245.6666725 433.875 1252.2291725 435.625 1257.7708275 439.3C1260.1041725 444.375 1261.125 449.975 1261.125 457.15C1261.125 457.15 1261.125 472.025 1261.125 472.025C1261.125 500.375 1251.2083275 513.675 1234.0 513.675C1223.208345 513.675 1216.6458275 513.325 1209.354155 512.45C1209.354155 512.45 1209.354155 555.675 1209.354155 555.675C1209.354155 555.675 1216.6458275 554.8 1216.6458275 554.8C1224.0833275 557.425 1233.125 558.475 1242.458345 558.475C1277.8958275 558.475 1306.7708275 525.1853773584975 1306.7708275 469.925C1306.7708275 469.925 1306.7708275 457.675 1306.7708275 457.675C1306.7708275 418.38611111111754 1286.9375 384.0 1234.875 384.0C1209.3541725 384.0 1182.375 385.225 1170.916455 387.5ZM1219.4166725 632.5C1218.1041725 622.175 1217.8125 610.275 1217.8125 598.55C1217.8125 552.175 1217.8125 511.05 1217.8125 466.775C1217.8125 453.03948863637 1216.2200175 441.40830416863497 1212.270845 431.775C1212.270845 431.775 1215.4791725 421.275 1215.4791725 421.275C1215.4791725 421.275 1171.875 421.275 1171.875 421.275C1171.875 486.9 1171.875 546.925 1171.875 612.55C1171.875 627.25 1177.7083275 633.55 1190.6875 633.55C1201.1875 633.55 1209.5 633.2 1219.4166725 632.5Z" fill="#1a1a1a"/><path d="M1418.916655 380.5C1373.125 380.5 1344.541655 408.85 1344.541655 447.0V464.85C1344.541655 490.05 1353.0 512.8 1392.083345 527.15L1419.5 537.3C1439.625 544.65 1441.375 549.9 1441.375 559.35V572.3C1441.375 582.1 1432.625 591.9 1409.583345 591.9C1383.333345 591.9 1365.833345 585.25 1348.333345 571.6H1342.5C1342.5 588.05 1342.5 601.35 1342.5 614.3C1342.5 618.85 1343.083345 619.9 1344.25 621.3C1353.875 632.85 1378.083345 639.5 1406.375 639.5C1455.375 639.5 1484.25 614.65 1484.25 573.0V556.2C1484.25 523.65 1474.041655 506.15 1437.583345 492.85L1409.875 482.70000000000005C1390.625 475.70000000000005 1387.416655 470.8 1387.416655 458.20000000000005V450.85C1387.416655 434.05 1397.916655 427.75 1416.291655 427.75C1425.041655 427.75 1434.666655 429.5 1443.708345 432.65L1444.20083 432.23182C1444.30583 431.038145 1444.048265 429.16015000000004 1443.45428 426.689115C1442.551385 423.71628499999997 1441.36898 420.332905 1439.93888 416.63015C1438.295455 412.699335 1436.475875 408.63163499999996 1434.520425 404.518365C1432.472505 400.450665 1430.378595 396.51985 1428.28822 392.817095C1426.253705 389.433715 1424.330105 386.460885 1422.57468 383.98985000000005C1421.04665 382.11185500000005 1419.80674 380.91818 1418.916655 380.5Z" fill="#1a1a1a"/><line x1="20" y1="715.0" x2="1520.0" y2="715.0" stroke="#eee" stroke-width="0.5"/><text x="20" y="886.25" font-size="11" font-family="sans-serif" font-weight="bold" fill="#555">Casual</text><path d="M118.083345 720.0C120.708345 731.55 121.875 744.5 121.875 758.5C121.875 813.45 121.875 868.05 121.875 923.0C121.875 958.0 130.916655 967.8 149.583345 967.8C156.583345 967.8 160.958345 966.75 167.375 965.0C167.375 894.3 167.375 823.25 167.375 752.55C167.375 731.2 159.208345 717.2 137.625 717.2C130.333345 717.2 124.79165499999999 718.25 118.083345 720.0ZM107.291655 825.0V833.75C107.291655 860.0 109.916655 874.0 124.79165499999999 874.0H219.291655V830.25L209.083345 835.5C201.791655 828.15 191.875 825.0 179.333345 825.0ZM260.125 965.0C257.5 952.4 256.333345 939.45 256.333345 925.45C256.333345 863.85 256.333345 801.55 256.333345 753.95C256.333345 724.55 247.0 717.2 228.916655 717.2C222.208345 717.2 216.666655 718.25 210.833345 720.0C210.833345 790.788525963155 210.833345 857.9 210.833345 926.15C210.833345 953.8 222.208345 967.8 240.58334499999998 967.8C247.875 967.8 253.416655 966.75 260.125 965.0Z" fill="#1a1a1a"/><path d="M385.833345 922.3C385.833345 884.15 385.833345 846.35 385.833345 808.2C385.833345 792.45 381.75 779.85 374.75 774.6L377.666655 762.7H339.166655C339.166655 800.85 339.166655 838.65 339.166655 876.8C339.166655 892.55 343.25 905.15 350.25 910.4L347.333345 922.3ZM434.833345 965.0C436.0 960.1 436.875 954.85 436.875 949.25C436.875 928.95 427.833345 912.5 392.25 912.5H290.166655C289.0 917.75 288.125 926.15 288.125 934.2C288.125 953.45 293.083345 965.0 306.208345 965.0ZM289.583345 720.0C288.708345 723.15 288.125 729.45 288.125 734.7C288.125 761.65 302.416655 772.5 333.041655 772.5H434.541655C436.0 765.5 436.875 758.5 436.875 752.2C436.875 734.35 434.541655 720.0 418.791655 720.0Z" fill="#1a1a1a"/><path d="M531.083345 919.5C512.416655 919.5 496.666655 913.55 480.041655 900.25H478.291655C477.125 905.85 476.25 913.2 476.25 924.4C476.25 940.5 479.458345 949.95 485.875 957.65C493.458345 966.75 508.916655 972.0 527.291655 972.0C575.416655 972.0 600.208345 926.5 600.208345 891.5C600.208345 834.905 600.208345 776.595 600.208345 720.0C600.208345 717.2 595.570845 715.8 583.977095 715.8C579.339595 715.8 574.702095 715.8 570.0645949999999 715.8C558.470845 715.8 553.833345 717.2 553.833345 720.0C553.833345 720.0 553.833345 720.0 553.833345 720.0C553.833345 720.0 553.833345 720.0 553.833345 720.0C553.833345 774.2850000000001 553.833345 830.215 553.833345 884.5C553.833345 896.4 553.541655 905.85 552.083345 914.6C545.958345 917.75 539.541655 919.5 531.083345 919.5Z" fill="#1a1a1a"/><path d="M730.291655 833.4 697.041655 877.5H708.708345C719.5 912.5 722.708345 921.25 731.75 941.2C741.958345 963.6 753.041655 972.0 767.625 972.0C775.208345 972.0 781.041655 969.9 785.125 965.0C789.791655 959.4 792.416655 948.9 792.416655 936.3C792.416655 924.05 791.833345 917.4 790.375 909.35H788.625C785.708345 911.8 782.5 912.85 777.25 912.85C769.958345 912.85 763.541655 907.6 757.708345 894.3C748.666655 874.0 739.333345 853.7 730.291655 833.4ZM749.541655 716.5H744.0C741.083345 747.3 733.5 773.9 724.75 793.15C715.125 814.5 704.916655 829.9 694.125 841.8H685.375V889.05C717.75 876.45 763.25 833.75 778.416655 790.7C786.875 767.95 788.625 755.0 788.625 741.0C788.625 727.35 774.916655 716.5 749.541655 716.5ZM643.083345 720.0C645.708345 731.55 646.875 744.5 646.875 758.5C646.875 813.45 646.875 868.05 646.875 923.0C646.875 958.0 655.916655 967.8 674.583345 967.8C681.583345 967.8 685.958345 966.75 692.375 965.0C692.375 894.3 692.375 823.25 692.375 752.55C692.375 731.2 684.208345 717.2 662.625 717.2C655.333345 717.2 649.791655 718.25 643.083345 720.0Z" fill="#1a1a1a"/><path d="M847.541655 965.0H946.708345C949.916655 929.3 943.5 912.5 926.291655 912.5H865.625C865.625 856.5 865.625 797.0 865.625 748.0C865.625 722.45 858.625 716.5 837.916655 716.5C829.166655 716.5 821.875 717.9 815.166655 720.0C817.791655 731.9 818.958345 744.5 818.958345 758.5C818.958345 808.9 818.958345 858.95 818.958345 909.35C818.958345 934.2 827.708345 965.0 847.541655 965.0Z" fill="#1a1a1a"/><path d="M1031.875 965.0C1031.875 947.4125 1031.875 930.0 1031.875 912.5C1031.875 888.0 1031.0 863.5 1022.833345 792.8L1015.833345 803.3H1034.208345L1022.833345 793.85C1037.125 838.65 1048.5 866.3 1057.833345 877.5C1059.0 878.9 1060.166655 879.25 1061.625 879.25C1062.5 879.25 1063.375 879.25 1064.25 879.25C1077.375 865.95 1089.625 837.6 1102.458345 794.2L1091.375 803.3H1109.75L1103.041655 792.8C1093.708345 864.2 1093.125 891.5 1093.125 912.5C1093.125 920.9 1093.125 929.533333333345 1093.125 938.05C1093.125 960.45 1108.291655 967.8 1121.708345 967.8C1129.0 967.8 1132.5 966.75 1137.166655 965.0C1134.833345 954.5 1133.958345 942.25 1133.958345 929.3C1133.958345 869.1 1133.958345 808.2 1133.958345 748.0C1133.958345 724.9 1125.5 717.2 1104.208345 717.2C1098.375 717.2 1092.833345 718.25 1087.583345 720.0C1083.5 768.65 1075.041655 802.95 1059.583345 829.55L1072.708345 821.15H1054.333345L1066.583345 829.9C1052.0 802.25 1046.75 775.65 1040.916655 743.8C1037.416655 724.2 1028.083345 717.2 1007.958345 717.2C1001.541655 717.2 994.833345 717.9 987.541655 720.0C989.583345 730.5 991.041655 742.4 991.041655 755.0C991.041655 815.9 991.041655 877.15 991.041655 938.05C991.041655 960.45 1003.42546 967.8 1017.0 967.8C1022.75806 967.8 1028.666655 967.1 1031.875 965.0Z" fill="#1a1a1a"/><path d="M1274.541655 862.8 1243.916655 885.9C1245.958345 906.2 1250.333345 923.35 1258.5 943.3C1267.25 963.95 1279.5 972.0 1294.958345 972.0C1301.375 972.0 1306.041655 970.25 1310.416655 965.0C1314.791655 959.75 1317.416655 948.9 1317.416655 931.05C1317.416655 923.35 1316.833345 916.7 1315.375 909.35H1313.625C1310.125 911.8 1308.375 912.5 1303.416655 912.5C1294.958345 912.5 1288.541655 907.6 1282.708345 894.3C1278.333345 884.5 1275.708345 874.0 1274.541655 862.8ZM1169.95791 720.0C1170.274485 726.3 1170.57349 732.25 1170.960415 739.95C1172.050875 761.65 1172.596105 772.5 1172.596105 772.5C1174.208345 772.5 1199.875 765.5 1232.25 765.5C1243.625 765.5 1251.5 766.9 1259.375 770.4C1260.833345 776.7 1261.416655 782.3 1261.416655 788.95V794.2C1261.416655 835.15 1248.0 854.4 1227.583345 854.4C1216.208345 854.4 1213.291655 853.7 1208.916655 851.95V891.15H1220.291655C1224.375 896.4 1231.083345 898.5 1238.958345 898.5C1272.5 898.5 1307.5 857.820754716995 1307.5 790.7V786.85C1307.5 753.072222222235 1286.208345 713.0 1231.083345 713.0C1206.583345 713.0 1179.458345 715.45 1169.95791 720.0ZM1221.75 965.0C1219.125 954.15 1218.541655 942.25 1218.541655 931.4C1218.541655 887.3 1218.541655 843.9 1218.541655 799.8C1218.541655 784.5789772727401 1215.35669 774.26660833727 1207.458345 768.65L1210.375 758.15H1171.875C1171.875 815.2 1171.875 871.9 1171.875 928.95C1171.875 955.9 1182.375 967.1 1206.291655 967.1C1212.708345 967.1 1216.5 966.4 1221.75 965.0Z" fill="#1a1a1a"/><path d="M1432.333345 713.0C1387.416655 713.0 1346.875 761.65 1346.875 808.55V813.1C1346.875 833.4 1355.041655 851.6 1399.958345 871.55L1426.791655 883.45C1439.333345 889.05 1447.5 898.15 1447.5 909.7V911.45C1439.041655 916.7 1427.083345 919.5 1413.958345 919.5C1383.333345 919.5 1361.458345 908.65 1344.833345 888.7H1343.083345C1341.916655 893.95 1341.041655 901.3 1341.041655 910.4C1341.041655 930.35 1345.708345 945.05 1351.833345 952.4C1361.166655 963.6 1386.25 972.0 1413.958345 972.0C1464.416655 972.0 1486.875 947.15 1486.875 908.3V902.7C1486.875 885.55 1479.291655 862.45 1441.083345 846.0L1413.666655 834.1C1396.75 826.75 1391.208345 821.5 1390.625 810.65V809.25C1390.625 787.9 1416.0 765.5 1434.375 765.5C1439.916655 765.5 1442.833345 766.55 1447.791655 770.05C1448.2 755.35 1448.9 740.65 1449.91346 726.104735C1444.82341 719.543145 1439.46281 714.80159 1432.333345 713.0Z" fill="#1a1a1a"/>
</svg>