<?xml version="1.0" encoding="UTF-8"?>
<svg xmlns="http://www.w3.org/2000/svg" width="1890.0" height="1057.5"
     viewBox="0 0 1890.0 1057.5">
<rect width="100%" height="100%" fill="white"/>
<text x="945.0" y="30" text-anchor="middle" font-size="14" font-family="sans-serif" font-weight="bold" fill="#333">Mono A Upright — Key glyphs + features</text><text x="187.5" y="48" text-anchor="middle" font-size="10" font-family="sans-serif" fill="#999">J</text><text x="362.5" y="48" text-anchor="middle" font-size="10" font-family="sans-serif" fill="#999">S</text><text x="537.5" y="48" text-anchor="middle" font-size="10" font-family="sans-serif" fill="#999">L</text><text x="712.5" y="48" text-anchor="middle" font-size="10" font-family="sans-serif" fill="#999">Z</text><text x="887.5" y="48" text-anchor="middle" font-size="10" font-family="sans-serif" fill="#999">f</text><text x="1062.5" y="48" text-anchor="middle" font-size="10" font-family="sans-serif" fill="#999">i</text><text x="1237.5" y="48" text-anchor="middle" font-size="10" font-family="sans-serif" fill="#999">l</text><text x="1412.5" y="48" text-anchor="middle" font-size="10" font-family="sans-serif" fill="#999">r</text><text x="1587.5" y="48" text-anchor="middle" font-size="10" font-family="sans-serif" fill="#999">@</text><text x="1762.5" y="48" text-anchor="middle" font-size="10" font-family="sans-serif" fill="#999">fi</text><text x="20" y="221.25" font-size="11" font-family="sans-serif" font-weight="bold" fill="#555">Linear</text><path d="M175.833345 290.55C160.958345 290.55 149.583345 286.0 135.583345 274.1H132.083345C132.083345 278.65 132.083345 283.2 132.083345 287.75C132.083345 289.5 132.375 290.2 133.25 291.25C139.958345 299.3 157.458345 307.0 175.833345 307.0C222.791655 307.0 242.625 273.05 242.916655 224.75C242.916655 168.73250000000002 242.916655 111.01749999999998 242.916655 55.00000000000003C242.916655 52.20000000000002 241.39999999999998 50.80000000000001 237.60831 50.80000000000001C236.091655 50.80000000000001 234.575 50.80000000000001 233.058345 50.80000000000001C229.266655 50.80000000000001 227.75 52.20000000000002 227.75 55.00000000000003C227.75 55.00000000000003 227.75 55.00000000000003 227.75 55.00000000000003C227.75 55.00000000000003 227.75 55.00000000000003 227.75 55.00000000000003C227.75 110.67099999999999 227.75 168.029 227.75 223.7C227.75 246.45 223.375 263.6 213.75 275.15C205.291655 285.3 192.458345 290.55 175.833345 290.55Z" fill="#1a1a1a"/><path d="M367.458345 49.400000000000006C329.25 49.400000000000006 301.25 74.03508771930501 301.25 111.35000000000002V121.85000000000002C301.25 153.35000000000002 313.53045 169.735814246305 348.208345 182.05L376.791655 192.2C405.05954499999996 202.23797702978 413.541655 211.45 413.541655 233.85000000000002V240.85C413.541655 272.0 393.24036 289.15 362.208345 289.15C335.375 289.15 318.166655 283.2 300.958345 265.0H297.458345C297.458345 269.55 297.458345 273.989024390255 297.458345 278.65C297.458345 280.75 297.75 282.15 299.208345 283.9C309.88478 296.71172119584 333.598225 305.6 362.208345 305.6C404.208345 305.6 428.416655 279.889759036145 428.416655 241.9V230.7C428.416655 199.2918032787 414.43289500000003 186.58036384055504 379.125 174.35000000000002L350.833345 164.55C323.41536 155.052634494855 315.833345 141.8 315.833345 119.75V113.10000000000002C315.833345 84.4 336.71536 65.85000000000002 367.458345 65.85000000000002C392.25 65.85000000000002 409.458345 72.50000000000003 419.083345 85.10000000000002L411.208345 66.9C411.208345 82.30000000000001 411.208345 98.05000000000001 411.208345 113.45000000000002C411.208345 115.9 412.375 117.30000000000001 414.416655 117.30000000000001C418.208345 117.30000000000001 422.0 117.30000000000001 425.791655 117.30000000000001C425.791655 102.96435000000002 425.791655 88.60000000000002 425.791655 74.25000000000003C425.791655 71.80000000000001 425.208345 70.75000000000003 423.458345 68.65C413.541655 56.75000000000003 392.833345 49.400000000000006 367.458345 49.400000000000006Z" fill="#1a1a1a"/><path d="M485.291655 300.0H604.583345C604.583345 296.85 604.583345 291.6 604.583345 287.4C604.583345 284.6 603.708345 283.55 601.375 283.55H496.666655C496.666655 208.65 496.666655 133.75 496.666655 58.85000000000002C496.666655 56.75000000000003 495.5 55.00000000000003 493.458345 55.00000000000003C489.666655 55.00000000000003 485.875 55.00000000000003 482.083345 55.00000000000003C482.083345 66.55000000000001 482.083345 78.45000000000002 482.083345 90.0C482.083345 123.60000000000002 482.083345 217.05 482.083345 296.15C482.083345 298.6 483.25 300.0 485.291655 300.0Z" fill="#1a1a1a"/><path d="M782.5 300.0C782.5 295.8 782.5 291.6 782.5 287.4C782.5 284.95 781.333345 283.55 779.291655 283.55H700.833345C681.875 283.55 671.375 283.55 659.416655 283.55V279.7C669.041655 263.95 678.958345 247.15 689.166655 230.35000000000002C724.75 170.5 762.083345 109.25 782.5 74.95000000000002V58.85000000000002C782.5 56.400000000000006 781.333345 55.00000000000003 779.291655 55.00000000000003H642.5C642.5 60.60000000000002 642.5 63.400000000000006 642.5 67.25000000000003C642.5 70.4 643.375 71.45000000000002 645.708345 71.45000000000002H712.208345C736.125 71.45000000000002 750.125 71.45000000000002 766.458345 71.45000000000002V75.30000000000001C755.375 93.5 744.583345 111.0 734.375 127.80000000000001C704.625 176.8 676.916655 223.0 642.5 280.05V296.15C642.5 298.6 643.666655 300.0 645.708345 300.0Z" fill="#1a1a1a"/><path d="M918.416655 34.0C885.458345 34.0 871.166655 53.60000000000002 871.166655 105.4C871.166655 169.1 871.166655 232.8 871.166655 296.5H879.916655L878.75 292.65C878.75 288.45 878.75 284.6 878.75 280.4C878.75 221.25 878.75 162.10000000000002 878.75 103.30000000000001C878.75 83.35000000000002 881.666655 69.70000000000002 888.958345 60.95000000000002C895.083345 53.95000000000002 904.125 50.45000000000002 917.25 50.45000000000002C931.541655 50.45000000000002 946.416655 53.25000000000003 956.916655 59.20000000000002H960.416655C960.416655 55.00000000000003 960.416655 50.45000000000002 960.416655 46.25000000000003C960.416655 44.85000000000002 960.125 44.150000000000006 959.541655 43.44999999999999C956.333345 39.60000000000002 936.791655 34.0 918.416655 34.0ZM850.75 115.9C850.75 120.45000000000002 850.75 123.60000000000002 850.75 128.15C850.75 130.60000000000002 851.45 132.0 852.675 132.0H945.833345C945.833345 127.45000000000002 945.833345 124.30000000000001 945.833345 119.75C945.833345 117.30000000000001 944.666655 115.9 942.625 115.9ZM870.0 300.0C870.0 300.0 870.0 300.0 870.0 300.0C870.0 300.0 870.0 300.0 870.0 300.0C870.0 300.0 870.0 300.0 870.0 300.0C870.0 300.0 870.0 300.0 870.0 300.0Z" fill="#1a1a1a"/><path d="M998.333345 115.9C998.333345 120.10000000000002 998.333345 124.30000000000001 998.333345 128.5C998.333345 130.95000000000002 999.5 132.35000000000002 1001.541655 132.35000000000002C1018.75 132.35000000000002 1035.958345 132.35000000000002 1053.166655 132.35000000000002H1056.666655C1056.666655 173.3 1056.666655 214.60000000000002 1056.666655 255.55C1056.666655 285.3 1066.875 300.0 1094.875 300.0C1104.5 300.0 1121.416655 300.0 1123.458345 300.0C1125.5 300.0 1126.666655 298.6 1126.666655 296.15C1126.666655 291.95 1126.666655 287.75 1126.666655 283.55H1123.166655C1113.833345 283.55 1105.083345 283.55 1095.75 283.55C1086.416655 283.55 1080.0 281.8 1076.208345 277.25C1072.416655 272.7 1071.25 265.7 1071.25 254.15C1071.25 209.35000000000002 1071.25 164.55 1071.25 119.75C1071.25 117.30000000000001 1070.083345 115.9 1068.041655 115.9C1044.708345 115.9 1021.666655 115.9 998.333345 115.9ZM1045.758345 49.400000000000006C1045.758345 59.45186000000001 1053.906485 67.60000000000002 1063.958345 67.60000000000002C1074.010205 67.60000000000002 1082.158345 59.45186000000001 1082.158345 49.400000000000006C1082.158345 39.34814 1074.010205 31.200000000000045 1063.958345 31.200000000000045C1053.906485 31.200000000000045 1045.758345 39.34814 1045.758345 49.400000000000006Z" fill="#1a1a1a"/><path d="M1173.333345 37.5C1173.333345 41.69999999999999 1173.333345 45.900000000000006 1173.333345 50.10000000000002C1173.333345 52.55000000000001 1174.5 53.95000000000002 1176.541655 53.95000000000002C1193.75 53.95000000000002 1211.25 53.95000000000002 1228.458345 53.95000000000002H1231.666655C1231.666655 94.9 1231.666655 214.60000000000002 1231.666655 255.55C1231.666655 285.3 1241.875 300.0 1269.875 300.0C1279.5 300.0 1296.416655 300.0 1298.458345 300.0C1300.5 300.0 1301.666655 298.6 1301.666655 296.15C1301.666655 291.95 1301.666655 287.75 1301.666655 283.55H1298.166655C1288.833345 283.55 1280.083345 283.55 1270.75 283.55C1261.416655 283.55 1255.0 281.8 1251.208345 277.25C1247.416655 272.7 1246.25 265.7 1246.25 254.15C1246.25 209.35000000000002 1246.25 86.15 1246.25 41.35000000000002C1246.25 38.900000000000034 1245.083345 37.5 1243.041655 37.5C1219.708345 37.5 1196.666655 37.5 1173.333345 37.5Z" fill="#1a1a1a"/><path d="M1345.416655 115.9C1345.416655 120.10000000000002 1345.416655 124.65 1345.416655 128.85000000000002C1345.416655 131.3 1346.583345 132.70000000000002 1348.625 132.70000000000002C1358.25 132.70000000000002 1368.166655 132.70000000000002 1377.791655 132.70000000000002H1381.875C1381.875 187.3 1381.875 241.55 1381.875 296.15C1381.875 298.6 1383.041655 300.0 1385.083345 300.0C1388.875 300.0 1392.666655 300.0 1396.458345 300.0C1396.458345 288.1 1396.458345 276.2 1396.458345 264.65C1396.458345 226.5 1396.458345 189.05 1396.458345 150.55C1396.458345 150.20000000000002 1393.541655 115.9 1393.25 115.9C1377.5 115.9 1361.166655 115.9 1345.416655 115.9ZM1451.583345 114.15C1432.041655 114.15 1414.541655 123.25 1399.958345 147.75H1392.375V173.65C1416.875 137.95000000000002 1434.375 130.95000000000002 1451.583345 130.95000000000002C1456.833345 130.95000000000002 1460.916655 131.65 1465.0 133.05C1465.0 146.70000000000002 1465.0 156.85000000000002 1465.0 169.1V173.3C1468.791655 173.3 1472.583345 173.3 1476.375 173.3C1478.416655 173.3 1479.583345 171.9 1479.583345 169.45000000000002V125.70000000000002C1479.583345 124.65 1479.291655 123.25 1478.416655 122.20000000000002C1475.208345 118.35000000000002 1465.291655 114.15 1451.583345 114.15Z" fill="#1a1a1a"/><path d="M1523.916655 125.70000000000002V281.8C1523.916655 331.15 1548.708345 362.65 1587.5 362.65C1617.25 362.65 1631.833345 352.15 1634.166655 349.35C1635.625 347.6 1635.916655 346.9 1635.916655 344.45C1635.916655 340.95 1635.916655 337.45 1635.916655 333.95H1632.416655C1619.0 342.35 1606.166655 346.2 1587.5 346.2C1572.625 346.2 1560.958345 340.6 1552.791655 330.8C1542.875 318.9 1538.5 303.15 1538.5 281.45V126.05000000000001C1538.5 85.80000000000001 1556.0 61.30000000000001 1587.5 61.30000000000001C1602.375 61.30000000000001 1613.458345 66.20000000000002 1622.208345 76.70000000000002C1631.833345 88.25 1636.5 103.65 1636.5 125.35000000000002C1636.5 168.4 1636.5 239.1 1636.5 282.15C1636.5 284.25 1637.958345 286.0 1639.708345 286.0H1651.083345C1651.083345 283.55 1651.083345 280.75 1651.083345 278.3C1651.083345 236.65 1651.083345 167.35 1651.083345 125.70000000000002C1651.083345 76.35000000000002 1626.291655 44.85000000000002 1587.5 44.85000000000002C1548.708345 44.85000000000002 1523.916655 76.35000000000002 1523.916655 125.70000000000002ZM1644.083345 225.8C1629.208345 267.45 1618.125 272.7 1603.541655 272.7C1586.916655 272.7 1580.208345 261.15 1580.208345 239.8V206.9C1580.208345 190.45 1584.583345 179.25 1589.25 173.65C1594.5 167.35 1603.25 162.45000000000002 1618.125 162.45000000000002C1625.125 162.45000000000002 1639.125 162.45000000000002 1643.5 162.45000000000002V146.0H1638.833345C1634.166655 146.0 1623.375 146.0 1618.125 146.0C1582.833345 146.0 1565.625 168.05 1565.625 206.55V240.15C1565.625 271.65 1578.458345 289.5 1604.125 289.5C1619.583345 289.5 1626.875 283.2 1633.0 270.95H1644.083345Z" fill="#1a1a1a"/><path d="M1689.583345 349.7C1689.583345 353.9 1689.583345 358.1 1689.583345 362.3C1689.583345 364.75 1690.75 366.15 1692.791655 366.15C1694.833345 366.15 1711.75 366.15 1721.375 366.15C1749.375 366.15 1759.583345 351.45 1759.583345 321.7C1759.583345 263.6 1759.583345 162.45000000000002 1759.583345 103.30000000000001C1759.583345 83.70000000000002 1762.5 70.05000000000001 1769.208345 61.650000000000006C1775.333345 53.95000000000002 1784.958345 50.45000000000002 1798.083345 50.45000000000002C1808.0 50.45000000000002 1818.5 52.20000000000002 1827.25 55.00000000000003C1827.25 64.45000000000002 1827.25 73.20000000000002 1827.25 82.65V86.85000000000002C1831.041655 86.85000000000002 1834.25 86.85000000000002 1838.041655 86.85000000000002C1840.083345 86.85000000000002 1841.25 85.45000000000002 1841.25 83.0V46.95000000000002C1841.25 45.55000000000001 1840.958345 44.85000000000002 1840.375 44.150000000000006C1837.166655 40.30000000000001 1817.625 34.0 1799.25 34.0C1766.291655 34.0 1745.0 53.60000000000002 1745.0 105.4C1745.0 175.75 1745.0 249.95 1745.0 320.3C1745.0 331.85 1743.833345 338.85 1740.041655 343.4C1736.25 347.95 1729.833345 349.7 1720.5 349.7C1711.166655 349.7 1702.416655 349.7 1693.083345 349.7ZM1701.25 169.8C1701.25 174.35000000000002 1701.25 177.5 1701.25 182.05C1701.25 184.5 1702.416655 185.9 1704.458345 185.9H1820.833345C1820.833345 181.35000000000002 1820.833345 178.2 1820.833345 173.65C1820.833345 171.20000000000002 1819.666655 169.8 1817.625 169.8ZM1873.333345 115.9C1873.333345 120.10000000000002 1873.333345 124.30000000000001 1873.333345 128.5C1873.333345 130.95000000000002 1874.5 132.35000000000002 1876.541655 132.35000000000002C1893.75 132.35000000000002 1910.958345 132.35000000000002 1928.166655 132.35000000000002H1931.666655C1931.666655 173.3 1931.666655 214.60000000000002 1931.666655 255.55C1931.666655 285.3 1941.875 300.0 1969.875 300.0C1979.5 300.0 1996.416655 300.0 1998.458345 300.0C2000.5 300.0 2001.666655 298.6 2001.666655 296.15C2001.666655 291.95 2001.666655 287.75 2001.666655 283.55H1998.166655C1988.833345 283.55 1980.083345 283.55 1970.75 283.55C1961.416655 283.55 1955.0 281.8 1951.208345 277.25C1947.416655 272.7 1946.25 265.7 1946.25 254.15C1946.25 209.35000000000002 1946.25 164.55 1946.25 119.75C1946.25 117.30000000000001 1945.083345 115.9 1943.041655 115.9C1919.708345 115.9 1896.666655 115.9 1873.333345 115.9ZM1920.758345 49.400000000000006C1920.758345 59.45186000000001 1928.906485 67.60000000000002 1938.958345 67.60000000000002C1949.010205 67.60000000000002 1957.158345 59.45186000000001 1957.158345 49.400000000000006C1957.158345 39.34814 1949.010205 31.200000000000045 1938.958345 31.200000000000045C1928.906485 31.200000000000045 1920.758345 39.34814 1920.758345 49.400000000000006Z" fill="#1a1a1a"/><line x1="20" y1="382.5" x2="1870.0" y2="382.5" stroke="#eee" stroke-width="0.5"/><text x="20" y="553.75" font-size="11" font-family="sans-serif" font-weight="bold" fill="#555">SemiCasual</text><path d="M176.125 622.525C156.875 622.525 145.9375 618.15 131.208345 604.5H128.583345C128.145845 608.175 128.0 612.025 128.0 615.875C128.0 619.375 128.875 621.65 130.479155 623.575C138.5 633.2 156.875 639.5 174.958345 639.5C220.75 639.5 240.58334499999998 607.65 241.02084499999998 555.325C241.02084499999998 499.94275 241.02084499999998 442.88225 241.02084499999998 387.5C241.02084499999998 384.70000000000005 239.533345 383.3 235.814595 383.3C234.32709499999999 383.3 232.839595 383.3 231.352095 383.3C227.633345 383.3 226.145845 384.70000000000005 226.145845 387.5C226.145845 387.5 226.145845 387.5 226.145845 387.5C226.145845 387.5 226.145845 387.5 226.145845 387.5C226.145845 442.47800000000007 226.145845 499.122 226.145845 554.1C226.145845 579.65 222.645845 595.05 214.479155 607.475C204.854155 617.975 191.729155 622.525 176.125 622.525Z" fill="#1a1a1a"/><path d="M376.354155 381.20000000000005C336.6875 381.20000000000005 301.25 420.99255 301.25 461.525V468.525C301.25 496.175 314.244415 511.542905 351.125 526.45L377.958345 537.125C403.61310000000003 547.219 412.958345 557.075 414.270845 575.45V579.475C411.791655 605.9 392.453525 620.425 362.354155 620.425C334.0625 620.425 315.979155 612.025 300.958345 592.25H298.333345C297.75 596.45 297.458345 600.594525 297.458345 605.55C297.458345 609.4 298.1875 612.025 300.8125 615.175C312.12989 628.755875 334.63244 637.4 362.354155 637.4C402.75 637.4 428.125 614.219885 428.125 579.125V572.65C428.125 546.270885 413.54977499999995 532.2151650000001 380.729155 519.45L354.1875 509.125C322.24937 496.501305 315.833345 484.275 315.833345 467.125V462.57500000000005C315.833345 430.025 344.94102499999997 398.175 376.354155 398.175C392.395845 398.175 405.375 402.025 412.958345 411.65L405.666655 397.65C409.020845 411.3 408.729155 420.57500000000005 408.729155 452.775C408.729155 458.9 411.0625 462.4 415.583345 462.4C418.354155 462.4 420.833345 462.225 423.3125 461.875C423.3125 446.30717500000003 423.3125 430.9 423.3125 415.32500000000005C423.3125 408.5 422.145845 401.675 417.770845 396.425C410.041655 387.15 395.895845 381.20000000000005 376.354155 381.20000000000005Z" fill="#1a1a1a"/><path d="M490.3958275 632.5C490.3958275 632.5 604.583345 632.5 604.583345 632.5C604.583345 629.875 604.583345 626.2 604.583345 623.225C604.583345 618.15 602.833345 615.525 599.625 615.525C599.625 615.525 498.125 615.525 498.125 615.525C498.125 543.075 498.125 470.625 498.125 398.175C498.125 392.75 497.25 385.75 490.9791725 385.75C487.916655 385.75 485.2916725 385.925 482.520845 386.275C483.395845 398.175 483.5416725 407.625 483.5416725 421.8C483.5416725 471.15 483.5416725 551.475 483.5416725 621.3C483.5416725 627.6 486.1666725 632.5 490.3958275 632.5Z" fill="#1a1a1a"/><path d="M782.5 632.5C782.5 629.525 782.5 626.375 782.5 623.4C782.5 618.15 781.1875 615.525 777.541655 615.525C777.541655 615.525 706.520845 615.525 706.520845 615.525C689.3125 615.525 676.3333275 615.875 661.8958275 616.225C661.8958275 616.225 661.604155 613.075 661.604155 613.075C674.5833275 597.15 686.833345 580.525 698.2083275 564.075C743.4166725 498.625 772.2916725 433.70000000000005 782.5 406.225C782.5 406.225 782.5 397.125 782.5 397.125C782.5 390.475 779.7291725 387.5 776.375 387.5C776.375 387.5 644.25 387.5 644.25 387.5C644.1041725 390.82500000000005 643.9583275 393.1 643.9583275 396.07500000000005C643.9583275 400.975 644.9791725 404.475 648.770845 404.475C648.770845 404.475 712.3541725 404.475 712.3541725 404.475C733.3541725 404.475 748.5208275 404.475 766.895845 403.95000000000005C766.895845 403.95000000000005 767.4791725 406.75 767.4791725 406.75C760.1875 425.3 751.875 443.675 742.6875 461.35C716.4375 513.15 682.75 562.675 642.5 613.775C642.5 613.775 642.5 623.575 642.5 623.575C642.5 628.825 643.8125 632.5 647.458345 632.5C647.458345 632.5 782.5 632.5 782.5 632.5Z" fill="#1a1a1a"/><path d="M919.0 366.5C881.6666725 366.5 864.75 387.5 861.25 443.15C861.25 503.525 861.25 563.725 864.75 624.1C864.75 624.1 875.8333275 624.1 875.8333275 624.1C875.8333275 624.1 875.3375 619.375 875.3375 619.375C875.25 615.7 875.8333275 611.15 875.8333275 605.375C875.8333275 551.3 875.8333275 497.05 875.8333275 443.15C875.8333275 420.05 878.4583275 403.95000000000005 884.583345 394.5C892.3125 386.975 902.375 383.475 918.4166725 383.475C931.979155 383.475 946.416655 386.975 957.354155 393.975C957.354155 393.975 959.979155 393.975 959.979155 393.975C960.2708275 391.0 960.416655 387.15 960.416655 383.82500000000005C960.416655 380.15 959.8333275 378.4 958.5208275 376.82500000000005C954.583345 372.1 937.5208275 366.5 919.0 366.5ZM849.4375 448.4C849.4375 451.20000000000005 849.4375 453.475 849.4375 456.275C849.4375 461.35 850.225 465.20000000000005 852.4125 465.20000000000005C852.4125 465.20000000000005 945.833345 465.20000000000005 945.833345 465.20000000000005C945.833345 462.4 945.833345 460.125 945.833345 457.32500000000005C945.833345 452.25 944.5208275 448.4 940.875 448.4C940.875 448.4 849.4375 448.4 849.4375 448.4ZM870.0 632.5C870.0 632.5 870.0 632.5 870.0 632.5C870.0 632.5 870.0 632.5 870.0 632.5C870.0 632.5 870.0 632.5 870.0 632.5C870.0 632.5 870.0 632.5 870.0 632.5C870.0 632.5 870.0 632.5 870.0 632.5C870.0 632.5 870.0 632.5 870.0 632.5Z" fill="#1a1a1a"/><path d="M995.8541725 451.9C995.5625 454.875 995.4166725 458.025 995.4166725 461.35C995.4166725 465.9 997.1666725 468.875 1000.375 468.875C1012.625 468.875 1029.395845 464.85 1053.3125 462.225C1053.3125 462.225 1055.6458275 462.75 1055.6458275 462.75C1055.6458275 503.70000000000005 1055.6458275 544.825 1055.6458275 585.775C1055.6458275 619.375 1068.3333275 636.0 1095.1666725 636.0C1106.25 636.0 1120.3958275 634.075 1124.333345 630.575C1126.9583275 628.65 1128.2708275 625.325 1128.2708275 621.125C1128.2708275 617.625 1128.125 614.125 1127.979155 611.15C1127.979155 611.15 1125.354155 611.15 1125.354155 611.15C1116.75 616.4 1107.125 619.025 1096.0416725 619.025C1086.5625 619.025 1079.4166725 617.1 1074.6041725 611.675C1071.25 605.375 1070.2291725 597.5 1070.2291725 582.975C1070.2291725 539.575 1070.2291725 496.0 1070.2291725 452.6C1070.2291725 448.225 1066.7291725 446.65 1061.7708275 446.65C1042.6666725 446.65 1021.0833275 448.05 995.8541725 451.9ZM1042.153345 382.95000000000005C1042.153345 382.95000000000005 1042.153345 382.95000000000005 1042.153345 382.95000000000005C1042.153345 394.50964250000004 1051.5237025 403.88 1063.083345 403.88C1074.6429875000001 403.88 1084.013345 394.50964250000004 1084.013345 382.95000000000005C1084.013345 382.95000000000005 1084.013345 382.95000000000005 1084.013345 382.95000000000005C1084.013345 371.3903575 1074.6429875000001 362.02000000000004 1063.083345 362.02000000000004C1051.5237025 362.02000000000004 1042.153345 371.3903575 1042.153345 382.95000000000005Z" fill="#1a1a1a"/><path d="M1169.395845 373.5C1169.1041725 376.475 1168.958345 379.625 1168.958345 382.95000000000005C1168.958345 387.5 1170.7083275 390.475 1173.916655 390.475C1186.1666725 390.475 1203.0833275 386.45000000000005 1227.0 383.82500000000005C1227.0 383.82500000000005 1229.1875 384.525 1229.1875 384.525C1229.1875 438.425 1229.1875 531.875 1229.1875 585.775C1229.1875 619.375 1242.4583275 636.0 1270.1666725 636.0C1281.25 636.0 1295.3958275 634.075 1299.333345 630.575C1301.9583275 628.65 1303.2708275 625.325 1303.2708275 621.125C1303.2708275 617.625 1303.125 614.125 1302.979155 611.15C1302.979155 611.15 1300.354155 611.15 1300.354155 611.15C1291.75 616.4 1282.125 619.025 1271.0416725 619.025C1260.979155 619.025 1253.1041725 617.275 1248.145845 611.675C1244.791655 605.375 1243.7708275 597.5 1243.7708275 582.975C1243.7708275 526.625 1243.7708275 430.55 1243.7708275 374.2C1243.7708275 369.825 1240.270845 368.25 1235.3125 368.25C1216.208345 368.25 1194.625 369.65000000000003 1169.395845 373.5Z" fill="#1a1a1a"/><path d="M1343.666655 451.9C1343.375 454.875 1343.229155 458.20000000000005 1343.229155 461.525C1343.229155 466.25 1345.125 469.05 1348.1875 469.05C1356.2083275 469.05 1363.791655 464.5 1380.7083275 461.875C1380.7083275 461.875 1383.3333275 462.57500000000005 1383.3333275 462.57500000000005C1383.3333275 514.9 1383.3333275 567.05 1383.3333275 619.375C1383.3333275 630.925 1386.541655 633.55 1391.0625 633.55C1394.125 633.55 1397.041655 633.375 1399.8125 632.85C1398.3541725 620.95 1397.9166725 611.15 1397.9166725 596.625C1397.9166725 563.025 1397.9166725 532.75 1397.9166725 497.05C1397.9166725 466.25 1395.4375 446.65 1390.9166725 446.65C1375.4583275 446.65 1360.0 448.05 1343.666655 451.9ZM1454.0625 445.07500000000005C1432.479155 445.07500000000005 1413.666655 462.4 1400.6875 494.425C1400.6875 494.425 1393.9791725 494.425 1393.9791725 494.425C1393.9791725 494.425 1395.1458275 530.65 1395.1458275 530.65C1413.6666725 483.4 1433.7916725 462.57500000000005 1453.770845 462.57500000000005C1459.020845 462.57500000000005 1462.9583275 463.275 1466.4583275 464.85C1467.0416725 476.925 1466.4583275 490.225 1465.2916725 502.3C1465.2916725 502.3 1465.2916725 505.45 1465.2916725 505.45C1467.625 505.8 1469.958345 505.8 1472.2916725 505.8C1477.541655 505.8 1480.75 499.15 1480.75 487.6C1480.75 487.6 1480.75 463.45000000000005 1480.75 463.45000000000005C1480.75 460.475 1479.5833275 456.8 1476.9583275 453.65C1473.1666725 449.1 1465.1458275 445.07500000000005 1454.0625 445.07500000000005Z" fill="#1a1a1a"/><path d="M1521.0 506.15C1521.0 506.15 1521.0 585.25 1521.0 585.25C1521.0 654.9 1544.625 695.325 1594.3541725 695.325C1616.8125 695.325 1631.1041725 688.15 1634.604155 683.95C1636.7916725 681.325 1637.666655 678.175 1637.666655 673.975C1637.666655 671.7 1637.666655 669.6 1637.666655 667.325C1637.666655 667.325 1635.041655 667.325 1635.041655 667.325C1622.2083275 675.375 1610.104155 678.35 1594.6458275 678.35C1576.7083275 678.35 1564.458345 673.625 1554.25 664.875C1541.2708275 646.85 1535.5833275 619.9 1535.5833275 586.125C1535.5833275 586.125 1535.5833275 506.85 1535.5833275 506.85C1535.5833275 439.65 1558.625 394.15 1594.2083275 394.15C1607.0416725 394.15 1616.2291725 397.3 1624.25 403.775C1633.2916725 417.6 1637.8125 434.925 1637.8125 462.75C1637.8125 502.125 1637.8125 570.2 1637.8125 609.575C1637.8125 616.575 1641.895845 619.725 1647.4375 619.725C1647.4375 619.725 1654.0 619.725 1654.0 619.725C1652.5416725 613.25 1652.395845 610.1 1652.395845 600.65C1652.395845 563.375 1652.395845 497.57500000000005 1652.395845 460.3C1652.395845 405.70000000000005 1631.6875 377.175 1594.2083275 377.175C1549.583345 377.175 1521.0 433.0 1521.0 506.15ZM1644.2291725 567.225C1630.6666725 599.075 1619.4375 605.55 1606.166655 605.55C1590.125 605.55 1582.25 590.15 1582.25 565.125C1582.25 565.125 1582.25 547.975 1582.25 547.975C1582.25 528.025 1585.895845 512.45 1592.8958275 500.375C1598.2916725 495.475 1606.4583275 492.15 1617.1041725 492.15C1625.7083275 492.15 1636.9375 493.20000000000005 1643.0625 496.875C1643.0625 496.875 1643.0625 478.5 1643.0625 478.5C1643.0625 478.5 1638.1041725 478.5 1638.1041725 478.5C1632.854155 476.57500000000005 1624.25 475.70000000000005 1616.8125 475.70000000000005C1586.9166725 475.70000000000005 1567.5208275 500.9 1567.5208275 549.2C1567.5208275 549.2 1567.5208275 566.875 1567.5208275 566.875C1567.5208275 600.475 1581.375 622.7 1606.3125 622.7C1619.2916725 622.7 1628.625 616.225 1635.1875 603.1C1635.1875 603.1 1644.2291725 603.1 1644.2291725 603.1C1644.2291725 603.1 1644.2291725 567.225 1644.2291725 567.225Z" fill="#1a1a1a"/><path d="M1682.875 674.5C1682.7291725 677.475 1682.583345 680.975 1682.583345 684.475C1682.583345 688.675 1683.8958275 692.0 1686.5208275 693.925C1690.458345 697.425 1704.6041725 699.35 1715.6875 699.35C1743.8333275 699.35 1756.6666725 683.075 1756.6666725 649.125C1756.6666725 588.925 1756.6666725 504.05 1756.6666725 443.15C1756.6666725 418.475 1760.0208275 403.25 1767.3125 394.32500000000005C1774.12875 385.925 1782.4791725 383.125 1795.458345 383.125C1806.8333275 383.125 1816.18328 386.3119607356475 1824.0416725 391.35C1824.7708275 402.9 1824.1875 414.975 1822.7291725 426.175C1822.7291725 426.175 1822.7291725 429.32500000000005 1822.7291725 429.32500000000005C1825.354155 429.5 1827.5416725 429.675 1830.0208275 429.675C1834.6875 429.675 1837.8958275 422.32500000000005 1837.8958275 412.70000000000005C1837.8958275 412.70000000000005 1837.8958275 392.4 1837.8958275 392.4C1837.8958275 387.32500000000005 1836.2916725 382.6 1833.0833275 378.75C1828.046635 372.9432909384025 1812.9583275 367.02500000000003 1796.0416725 367.02500000000003C1761.916655 367.02500000000003 1742.0833275 388.57243589743507 1742.0833275 443.15C1742.0833275 510.0 1742.0833275 579.65 1742.0833275 646.325C1742.0833275 660.85 1741.0625 668.725 1737.7083275 675.025C1732.75 680.625 1724.875 682.375 1714.8125 682.375C1703.729155 682.375 1694.104155 679.75 1685.5 674.5C1685.5 674.5 1682.875 674.5 1682.875 674.5ZM1697.6041725 508.95C1697.6041725 511.75 1697.6041725 514.025 1697.6041725 516.825C1697.6041725 521.9 1698.916655 525.75 1702.5625 525.75C1702.5625 525.75 1820.833345 525.75 1820.833345 525.75C1820.833345 522.95 1820.833345 520.675 1820.833345 517.875C1820.833345 512.8 1819.5208275 508.95 1815.875 508.95C1815.875 508.95 1697.6041725 508.95 1697.6041725 508.95ZM1870.8541725 451.9C1870.5625 454.875 1870.4166725 458.025 1870.4166725 461.35C1870.4166725 465.9 1872.1666725 468.875 1875.375 468.875C1887.625 468.875 1904.395845 464.85 1928.3125 462.225C1928.3125 462.225 1930.6458275 462.75 1930.6458275 462.75C1930.6458275 503.70000000000005 1930.6458275 544.825 1930.6458275 585.775C1930.6458275 619.375 1943.3333275 636.0 1970.1666725 636.0C1981.25 636.0 1995.3958275 634.075 1999.333345 630.575C2001.9583275 628.65 2003.2708275 625.325 2003.2708275 621.125C2003.2708275 617.625 2003.125 614.125 2002.979155 611.15C2002.979155 611.15 2000.354155 611.15 2000.354155 611.15C1991.75 616.4 1982.125 619.025 1971.0416725 619.025C1961.5625 619.025 1954.4166725 617.1 1949.6041725 611.675C1946.25 605.375 1945.2291725 597.5 1945.2291725 582.975C1945.2291725 539.575 1945.2291725 496.0 1945.2291725 452.6C1945.2291725 448.225 1941.7291725 446.65 1936.7708275 446.65C1917.6666725 446.65 1896.0833275 448.05 1870.8541725 451.9ZM1917.153345 382.95000000000005C1917.153345 382.95000000000005 1917.153345 382.95000000000005 1917.153345 382.95000000000005C1917.153345 394.50964250000004 1926.5237025 403.88 1938.083345 403.88C1949.6429875000001 403.88 1959.013345 394.50964250000004 1959.013345 382.95000000000005C1959.013345 382.95000000000005 1959.013345 382.95000000000005 1959.013345 382.95000000000005C1959.013345 371.3903575 1949.6429875000001 362.02000000000004 1938.083345 362.02000000000004C1926.5237025 362.02000000000004 1917.153345 371.3903575 1917.153345 382.95000000000005Z" fill="#1a1a1a"/><line x1="20" y1="715.0" x2="1870.0" y2="715.0" stroke="#eee" stroke-width="0.5"/><text x="20" y="886.25" font-size="11" font-family="sans-serif" font-weight="bold" fill="#555">Casual</text><path d="M176.416655 954.5C152.791655 954.5 142.291655 950.3 126.83334500000001 934.9H125.08334500000001C124.20834500000001 937.7 123.91665499999999 940.85 123.91665499999999 944.0C123.91665499999999 949.25 125.375 953.1 127.70834500000001 955.9C137.041655 967.1 156.291655 972.0 174.083345 972.0C218.708345 972.0 238.541655 942.25 239.125 885.9C239.125 831.153 239.125 774.747 239.125 720.0C239.125 717.2 237.666655 715.8 234.02084499999998 715.8C232.5625 715.8 231.104155 715.8 229.64581 715.8C226.0 715.8 224.541655 717.2 224.541655 720.0C224.541655 720.0 224.541655 720.0 224.541655 720.0C224.541655 720.0 224.541655 720.0 224.541655 720.0C224.541655 774.2850000000001 224.541655 830.215 224.541655 884.5C224.541655 912.85 221.916655 926.5 215.208345 939.8C204.416655 950.65 191.0 954.5 176.416655 954.5Z" fill="#1a1a1a"/><path d="M385.25 713.0C344.125 713.0 301.25 767.95 301.25 811.7V815.2C301.25 839.0 314.958345 853.35 354.041655 870.85L379.125 882.05C402.166655 892.2 412.375 902.7 415.0 917.05V918.1C410.041655 939.8 391.666655 951.7 362.5 951.7C332.75 951.7 313.791655 940.85 300.958345 919.5H299.208345C298.041655 923.35 297.458345 927.2 297.458345 932.45C297.458345 938.05 298.625 941.9 302.416655 946.45C314.375 960.8 335.666655 969.2 362.5 969.2C401.291655 969.2 427.833345 948.55 427.833345 916.35V914.6C427.833345 893.25 412.666655 877.85 382.333345 864.55L357.541655 853.7C321.083345 837.95 315.833345 826.75 315.833345 814.5V812.05C315.833345 775.65 353.166655 730.5 385.25 730.5C392.541655 730.5 401.291655 731.55 406.833345 738.2L400.125 728.4C406.833345 740.3 406.25 743.1 406.25 792.1C406.25 801.9 409.75 807.5 416.75 807.5C418.5 807.5 419.666655 807.15 420.833345 806.45C420.833345 789.65 420.833345 773.2 420.833345 756.4C420.833345 745.2 419.083345 732.6 412.083345 724.2C406.541655 717.55 398.958345 713.0 385.25 713.0Z" fill="#1a1a1a"/><path d="M495.5 965.0H604.583345C604.583345 962.9 604.583345 960.8 604.583345 959.05C604.583345 951.7 601.958345 947.5 597.875 947.5H499.583345C499.583345 877.5 499.583345 807.5 499.583345 737.5C499.583345 728.75 499.0 716.5 488.5 716.5C486.166655 716.5 484.708345 716.85 482.958345 717.55C484.708345 729.8 485.0 736.8 485.0 753.6C485.0 818.7 485.0 885.9 485.0 946.45C485.0 956.6 489.083345 965.0 495.5 965.0Z" fill="#1a1a1a"/><path d="M782.5 965.0C782.5 963.25 782.5 961.15 782.5 959.4C782.5 951.35 781.041655 947.5 775.791655 947.5H712.208345C696.75 947.5 681.291655 948.2 664.375 948.9L663.791655 946.45C680.125 930.35 694.708345 913.9 707.25 897.8C762.083345 826.75 782.5 758.15 782.5 737.5V735.4C782.5 724.55 778.125 720.0 773.458345 720.0H646.0C645.708345 721.05 645.416655 722.8 645.416655 724.9C645.416655 731.55 646.583345 737.5 651.833345 737.5H712.5C730.583345 737.5 746.916655 737.5 767.333345 736.45L768.5 738.2C765.0 757.1 759.166655 776.35 751.0 794.9C728.25 849.5 688.583345 902.35 642.5 947.5V951.0C642.5 959.05 643.958345 965.0 649.208345 965.0Z" fill="#1a1a1a"/><path d="M919.583345 699.0C877.875 699.0 865.1 721.4 865.1 780.9C865.1 837.95 865.1 894.65 865.1 951.7H871.75L871.925 946.1C871.75 942.95 872.916655 937.7 872.916655 930.35C872.916655 881.35 872.916655 832.0 872.916655 783.0C872.916655 756.75 875.25 738.2 880.208345 728.05C889.541655 720.0 900.625 716.5 919.583345 716.5C932.416655 716.5 946.416655 720.7 957.791655 728.75H959.541655C960.125 727.0 960.416655 723.85 960.416655 721.4C960.416655 715.45 959.541655 712.65 957.5 710.2C952.833345 704.6 938.25 699.0 919.583345 699.0ZM848.125 780.9C848.125 781.95 848.125 783.35 848.125 784.4C848.125 792.1 849.0 798.4 852.15 798.4H945.833345C945.833345 797.35 945.833345 795.95 945.833345 794.9C945.833345 787.2 944.375 780.9 939.125 780.9ZM870.0 965.0C870.0 965.0 870.0 965.0 870.0 965.0C870.0 965.0 870.0 965.0 870.0 965.0C870.0 965.0 870.0 965.0 870.0 965.0C870.0 965.0 870.0 965.0 870.0 965.0Z" fill="#1a1a1a"/><path d="M993.375 787.9C992.791655 789.65 992.5 791.75 992.5 794.2C992.5 800.85 994.833345 805.4 999.208345 805.4C1006.5 805.4 1022.833345 797.35 1053.458345 792.1L1054.625 793.15C1054.625 834.1 1054.625 875.05 1054.625 916.0C1054.625 953.45 1069.791655 972.0 1095.458345 972.0C1108.0 972.0 1119.375 968.15 1125.208345 961.15C1128.416655 957.3 1129.875 952.05 1129.875 946.1C1129.875 943.3 1129.583345 940.5 1129.291655 938.75H1127.541655C1119.666655 949.25 1109.166655 954.5 1096.333345 954.5C1086.708345 954.5 1078.833345 952.4 1073.0 946.1C1070.083345 938.05 1069.208345 929.3 1069.208345 911.8C1069.208345 869.8 1069.208345 827.45 1069.208345 785.45C1069.208345 779.15 1063.375 777.4 1055.5 777.4C1040.625 777.4 1020.5 780.2 993.375 787.9ZM1038.548345 716.5C1038.548345 729.567425 1049.14092 740.1600000000001 1062.208345 740.1600000000001C1075.27577 740.1600000000001 1085.868345 729.567425 1085.868345 716.5C1085.868345 703.432575 1075.27577 692.84 1062.208345 692.84C1049.14092 692.84 1038.548345 703.432575 1038.548345 716.5Z" fill="#1a1a1a"/><path d="M1165.458345 709.5C1164.875 711.25 1164.583345 713.35 1164.583345 715.8C1164.583345 722.45 1166.916655 727.0 1171.291655 727.0C1178.583345 727.0 1194.916655 718.95 1225.541655 713.7L1226.708345 715.1C1226.708345 781.95 1226.708345 849.15 1226.708345 916.0C1226.708345 953.45 1243.041655 972.0 1270.458345 972.0C1283.0 972.0 1294.375 968.15 1300.208345 961.15C1303.416655 957.3 1304.875 952.05 1304.875 946.1C1304.875 943.3 1304.583345 940.5 1304.291655 938.75H1302.541655C1294.666655 949.25 1284.166655 954.5 1271.333345 954.5C1260.541655 954.5 1251.208345 952.75 1245.083345 946.1C1242.166655 938.05 1241.291655 929.3 1241.291655 911.8C1241.291655 843.9 1241.291655 774.95 1241.291655 707.05C1241.291655 700.75 1235.458345 699.0 1227.583345 699.0C1212.708345 699.0 1192.583345 701.8 1165.458345 709.5Z" fill="#1a1a1a"/><path d="M1341.916655 787.9C1341.333345 789.65 1341.041655 791.75 1341.041655 794.2C1341.041655 801.2 1343.666655 805.4 1347.75 805.4C1354.166655 805.4 1359.416655 796.3 1383.625 791.05L1384.791655 792.45C1384.791655 842.5 1384.791655 892.55 1384.791655 942.6C1384.791655 963.25 1390.041655 967.1 1397.041655 967.1C1399.375 967.1 1401.416655 966.75 1403.166655 965.7C1400.25 953.8 1399.375 946.1 1399.375 928.6C1399.375 899.55 1399.375 876.45 1399.375 843.55C1399.375 782.3 1397.333345 777.4 1388.583345 777.4C1373.416655 777.4 1358.833345 780.2 1341.916655 787.9ZM1456.541655 776.0C1432.916655 776.0 1412.791655 801.55 1401.416655 841.1H1395.583345L1397.916655 887.65C1410.458345 828.85 1433.208345 794.2 1455.958345 794.2C1461.208345 794.2 1465.0 794.9 1467.916655 796.65C1469.083345 807.15 1467.916655 823.6 1465.583345 835.5V837.6C1466.458345 838.3 1467.333345 838.3 1468.208345 838.3C1476.666655 838.3 1481.916655 826.4 1481.916655 805.75V801.2C1481.916655 796.3 1479.875 790.35 1475.5 785.1C1471.125 779.85 1465.0 776.0 1456.541655 776.0Z" fill="#1a1a1a"/><path d="M1518.083345 886.6V888.7C1518.083345 978.65 1540.541655 1028.0 1601.208345 1028.0C1616.375 1028.0 1630.375 1024.15 1635.041655 1018.55C1637.958345 1015.05 1639.416655 1009.45 1639.416655 1003.5C1639.416655 1002.45 1639.416655 1001.75 1639.416655 1000.7H1637.666655C1625.416655 1008.4 1614.041655 1010.5 1601.791655 1010.5C1580.791655 1010.5 1567.958345 1006.65 1555.708345 998.95C1539.666655 974.8 1532.666655 936.65 1532.666655 890.8V887.65C1532.666655 793.5 1561.25 727.0 1600.916655 727.0C1611.708345 727.0 1619.0 728.4 1626.291655 730.85C1634.75 746.95 1639.125 766.2 1639.125 800.15C1639.125 835.85 1639.125 901.3 1639.125 937.0C1639.125 948.9 1645.833345 953.45 1655.166655 953.45H1656.916655C1654.0 942.95 1653.708345 939.45 1653.708345 923.0C1653.708345 890.1 1653.708345 827.8 1653.708345 794.9C1653.708345 735.05 1637.083345 709.5 1600.916655 709.5C1550.458345 709.5 1518.083345 789.65 1518.083345 886.6ZM1644.375 908.65C1632.125 930.7 1620.75 938.4 1608.791655 938.4C1593.333345 938.4 1584.291655 919.15 1584.291655 890.45V889.05C1584.291655 865.6 1587.208345 845.65 1596.541655 827.1C1602.083345 823.6 1609.666655 821.85 1616.083345 821.85C1626.291655 821.85 1634.75 823.95 1642.625 831.3V811.0H1637.375C1631.541655 807.15 1625.125 805.4 1615.5 805.4C1591.0 805.4 1569.416655 833.75 1569.416655 891.85V893.6C1569.416655 929.3 1584.291655 955.9 1608.5 955.9C1619.0 955.9 1630.375 949.25 1637.375 935.25H1644.375Z" fill="#1a1a1a"/><path d="M1676.166655 999.3C1675.875 1001.05 1675.583345 1003.85 1675.583345 1006.65C1675.583345 1012.6 1677.041655 1017.85 1680.25 1021.7C1686.083345 1028.7 1697.458345 1032.55 1710.0 1032.55C1738.291655 1032.55 1753.75 1014.7 1753.75 976.55C1753.75 914.25 1753.75 845.65 1753.75 783.0C1753.75 753.25 1757.541655 736.45 1765.416655 727.0C1772.924155 717.9 1780.0 715.8 1792.833345 715.8C1805.666655 715.8 1813.86656 720.423921471295 1820.833345 727.7C1822.291655 741.35 1821.125 756.75 1818.208345 769.7V771.8C1819.666655 772.15 1820.833345 772.5 1822.0 772.5C1829.291655 772.5 1834.541655 759.2 1834.541655 742.4V737.85C1834.541655 729.1 1831.625 720.35 1825.791655 713.35C1818.926615 705.586581876805 1808.291655 700.05 1792.833345 700.05C1757.541655 700.05 1739.166655 723.54487179487 1739.166655 780.9C1739.166655 844.25 1739.166655 909.35 1739.166655 972.35C1739.166655 989.85 1738.291655 998.6 1735.375 1006.65C1729.25 1013.3 1719.916655 1015.05 1709.125 1015.05C1696.291655 1015.05 1685.791655 1009.8 1677.916655 999.3ZM1693.958345 848.1C1693.958345 849.15 1693.958345 850.55 1693.958345 851.6C1693.958345 859.3 1695.416655 865.6 1700.666655 865.6H1820.833345C1820.833345 864.55 1820.833345 863.15 1820.833345 862.1C1820.833345 854.4 1819.375 848.1 1814.125 848.1ZM1868.375 787.9C1867.791655 789.65 1867.5 791.75 1867.5 794.2C1867.5 800.85 1869.833345 805.4 1874.208345 805.4C1881.5 805.4 1897.833345 797.35 1928.458345 792.1L1929.625 793.15C1929.625 834.1 1929.625 875.05 1929.625 916.0C1929.625 953.45 1944.791655 972.0 1970.458345 972.0C1983.0 972.0 1994.375 968.15 2000.208345 961.15C2003.416655 957.3 2004.875 952.05 2004.875 946.1C2004.875 943.3 2004.583345 940.5 2004.291655 938.75H2002.541655C1994.666655 949.25 1984.166655 954.5 1971.333345 954.5C1961.708345 954.5 1953.833345 952.4 1948.0 946.1C1945.083345 938.05 1944.208345 929.3 1944.208345 911.8C1944.208345 869.8 1944.208345 827.45 1944.208345 785.45C1944.208345 779.15 1938.375 777.4 1930.5 777.4C1915.625 777.4 1895.5 780.2 1868.375 787.9ZM1913.548345 716.5C1913.548345 729.567425 1924.14092 740.1600000000001 1937.208345 740.1600000000001C1950.27577 740.1600000000001 1960.868345 729.567425 1960.868345 716.5C1960.868345 703.432575 1950.27577 692.84 1937.208345 692.84C1924.14092 692.84 1913.548345 703.432575 1913.548345 716.5Z" fill="#1a1a1a"/>
</svg>