<?xml version="1.0" encoding="UTF-8"?>
<svg xmlns="http://www.w3.org/2000/svg" width="1890.0" height="1057.5"
     viewBox="0 0 1890.0 1057.5">
<rect width="100%" height="100%" fill="white"/>
<text x="945.0" y="30" text-anchor="middle" font-size="14" font-family="sans-serif" font-weight="bold" fill="#333">Sans C Upright — Key glyphs + features</text><text x="187.5" y="48" text-anchor="middle" font-size="10" font-family="sans-serif" fill="#999">J</text><text x="362.5" y="48" text-anchor="middle" font-size="10" font-family="sans-serif" fill="#999">S</text><text x="537.5" y="48" text-anchor="middle" font-size="10" font-family="sans-serif" fill="#999">L</text><text x="712.5" y="48" text-anchor="middle" font-size="10" font-family="sans-serif" fill="#999">Z</text><text x="887.5" y="48" text-anchor="middle" font-size="10" font-family="sans-serif" fill="#999">f</text><text x="1062.5" y="48" text-anchor="middle" font-size="10" font-family="sans-serif" fill="#999">i</text><text x="1237.5" y="48" text-anchor="middle" font-size="10" font-family="sans-serif" fill="#999">l</text><text x="1412.5" y="48" text-anchor="middle" font-size="10" font-family="sans-serif" fill="#999">r</text><text x="1587.5" y="48" text-anchor="middle" font-size="10" font-family="sans-serif" fill="#999">@</text><text x="1762.5" y="48" text-anchor="middle" font-size="10" font-family="sans-serif" fill="#999">fi</text><text x="20" y="221.25" font-size="11" font-family="sans-serif" font-weight="bold" fill="#555">Linear</text><path d="M146.375 231.75C132.958345 231.75 124.79165499999999 229.3 113.125 221.60000000000002H107.291655C107.291655 245.05 107.291655 268.85 107.291655 292.3C107.291655 293.35 107.583345 294.4 108.166655 295.1C111.375 298.95 129.458345 307.0 152.791655 307.0C210.25 307.0 238.25 276.55 238.25 214.25C238.25 161.69750000000002 238.25 107.55250000000001 238.25 55.00000000000003C238.25 52.20000000000002 231.454155 50.80000000000001 214.46459499999997 50.80000000000001C207.66875 50.80000000000001 200.872905 50.80000000000001 194.07706000000002 50.80000000000001C177.08749999999998 50.80000000000001 170.291655 52.20000000000002 170.291655 55.00000000000003C170.291655 55.00000000000003 170.291655 55.00000000000003 170.291655 55.00000000000003C170.291655 55.00000000000003 170.291655 55.00000000000003 170.291655 55.00000000000003C170.291655 103.97200000000001 170.291655 154.428 170.291655 203.4C170.291655 213.2 168.541655 220.2 164.75 224.75C160.666655 229.65 154.833345 231.75 146.375 231.75Z" fill="#1a1a1a"/><path d="M370.083345 48.00000000000003C317.583345 48.00000000000003 285.208345 77.05000000000001 285.208345 120.45000000000002V136.20000000000002C285.208345 167.70000000000002 290.75 190.10000000000002 340.916655 202.7L367.458345 209.7C377.375 212.15 380.0 217.05 380.0 221.60000000000002V225.45C380.0 231.75 376.5 237.0 357.25 237.0C330.125 237.0 309.416655 230.0 289.583345 217.05H283.75C283.75 239.8 283.75 262.55 283.75 285.3C283.75 286.35 284.041655 287.4 284.625 288.1C291.333345 296.15 321.666655 307.0 355.5 307.0C408.0 307.0 441.25 283.55 441.25 235.25V217.05C441.25 177.85000000000002 430.75 161.05 388.75 150.9L359.0 143.55C348.208345 141.10000000000002 346.458345 136.9 346.458345 130.25V126.75C346.458345 115.55000000000001 358.416655 114.5 371.833345 114.5C378.25 114.5 382.916655 115.20000000000002 389.916655 118.35000000000002L381.458345 105.05000000000001C381.458345 112.15955 381.458345 121.15 381.458345 126.4C381.458345 128.5 382.041655 130.25 384.375 130.25C402.458345 130.25 420.25 130.25 438.333345 130.25C438.333345 109.95000000000002 438.333345 90.70000000000002 438.333345 70.4C438.333345 67.25000000000003 438.041655 66.20000000000002 436.583345 64.45000000000002C431.625 58.50000000000003 407.125 48.00000000000003 370.083345 48.00000000000003Z" fill="#1a1a1a"/><path d="M463.416655 300.0H601.666655C601.666655 269.55 601.666655 260.45 601.666655 231.75C601.666655 227.9 600.5 226.5 597.875 226.5H525.833345C525.833345 171.9 525.833345 113.45000000000002 525.833345 58.85000000000002C525.833345 56.400000000000006 524.666655 55.00000000000003 522.625 55.00000000000003C500.75 55.00000000000003 482.083345 55.00000000000003 460.208345 55.00000000000003C460.208345 66.55000000000001 460.208345 78.10000000000002 460.208345 89.65C460.208345 158.25 460.208345 227.55 460.208345 296.15C460.208345 298.25 461.666655 300.0 463.416655 300.0Z" fill="#1a1a1a"/><path d="M791.25 300.0C791.25 276.9 791.25 253.45 791.25 230.35000000000002C791.25 227.9 790.083345 226.5 788.041655 226.5H762.375C741.958345 226.5 727.083345 226.5 702.291655 226.5V219.5C715.708345 216.35000000000002 723.875 212.85000000000002 750.416655 181.0C762.666655 166.3 775.5 150.55 789.791655 132.0V58.85000000000002C789.791655 56.400000000000006 788.625 55.00000000000003 786.583345 55.00000000000003H633.75C633.75 79.5 633.75 97.35000000000002 633.75 119.4C633.75 123.60000000000002 634.916655 125.0 638.125 125.0H695.291655C713.958345 125.0 705.208345 125.0 730.583345 125.0V132.0C713.083345 140.4 704.916655 148.8 690.333345 164.20000000000002C672.541655 183.10000000000002 653.291655 204.45 633.75 226.85000000000002V296.15C633.75 298.6 634.916655 300.0 636.958345 300.0Z" fill="#1a1a1a"/><path d="M885.75 30.5C860.725 30.5 820.416655 58.85000000000002 820.416655 115.55000000000001C820.416655 161.75 820.416655 214.95 820.416655 262.2H890.125L887.5 245.75C887.5 237.35 887.5 233.15 887.5 220.9C887.5 185.2 887.5 150.20000000000002 887.5 114.5C887.5 109.95000000000002 888.375 106.45000000000002 890.125 104.0C892.014405 101.73269964769 895.083345 100.5 898.875 100.5C901.791655 100.5 905.5395599999999 101.332216806085 907.916655 102.60000000000002H913.75C913.75 81.719230769245 913.75 61.18076923075503 913.75 40.30000000000001C913.75 39.25 913.458345 38.19999999999999 912.875 37.5C909.375 33.650000000000034 897.125 30.5 885.75 30.5ZM838.5 127.10000000000002C838.5 146.70000000000002 838.5 168.05 838.5 187.65C838.5 190.10000000000002 839.2 191.5 840.425 191.5H910.833345C910.833345 171.9 910.833345 150.55 910.833345 130.95000000000002C910.833345 128.5 909.666655 127.10000000000002 907.625 127.10000000000002ZM805.833345 226.5C805.833345 243.3 805.833345 279.35 805.833345 296.15C805.833345 298.6 807.0 300.0 809.041655 300.0H910.833345C910.833345 283.2 910.833345 247.15 910.833345 230.35000000000002C910.833345 227.9 909.666655 226.5 907.625 226.5Z" fill="#1a1a1a"/><path d="M977.916655 107.5C977.916655 130.60000000000002 977.916655 154.05 977.916655 177.15C977.916655 179.60000000000002 979.083345 181.0 981.125 181.0C982.583345 181.0 985.791655 181.0 987.25 181.0H992.5C992.5 197.8 992.5 228.25 992.5 242.6C992.5 281.1 1008.25 300.0 1040.333345 300.0C1057.25 300.0 1068.625 300.0 1070.958345 300.0C1073.0 300.0 1074.166655 298.6 1074.166655 296.15C1074.166655 273.05 1074.166655 249.6 1074.166655 226.5H1068.625C1066.583345 226.5 1063.083345 226.5 1061.041655 226.5C1060.166655 226.5 1059.291655 226.15 1059.0 225.8C1058.416655 225.10000000000002 1058.125 224.05 1058.125 222.65C1058.125 185.55 1058.125 148.45000000000002 1058.125 111.35000000000002C1058.125 108.9 1056.958345 107.5 1054.916655 107.5C1029.833345 107.5 1003.0 107.5 977.916655 107.5ZM976.615845 52.37500000000003C976.615845 78.38416500000002 997.6991800000001 99.4675 1023.708345 99.4675C1049.71751 99.4675 1070.800845 78.38416500000002 1070.800845 52.37500000000003C1070.800845 26.365835000000004 1049.71751 5.282500000000027 1023.708345 5.282500000000027C997.6991800000001 5.282500000000027 976.615845 26.365835000000004 976.615845 52.37500000000003Z" fill="#1a1a1a"/><path d="M1150.291655 37.5C1150.291655 60.60000000000002 1150.291655 84.05000000000001 1150.291655 107.15C1150.291655 109.60000000000002 1151.458345 111.0 1153.5 111.0C1155.833345 111.0 1157.583345 111.0 1159.041655 111.0H1160.5C1160.5 151.25 1160.5 191.15 1160.5 250.3C1160.5 281.45 1177.125 300.0 1205.416655 300.0C1212.708345 300.0 1228.458345 300.0 1233.125 300.0C1234.875 300.0 1236.333345 298.6 1236.333345 296.15C1236.333345 273.05 1236.333345 249.6 1236.333345 226.5H1234.291655C1232.541655 226.5 1230.5 226.5 1229.041655 226.5C1228.166655 226.5 1227.291655 226.15 1227.0 225.8C1226.416655 225.10000000000002 1226.125 224.05 1226.125 222.65C1226.125 162.45000000000002 1226.125 101.55000000000001 1226.125 41.35000000000002C1226.125 38.900000000000034 1224.666655 37.5 1222.916655 37.5C1186.166655 37.5 1163.125 37.5 1150.291655 37.5Z" fill="#1a1a1a"/><path d="M1328.208345 107.5C1328.208345 129.55 1328.208345 151.60000000000002 1328.208345 173.65C1328.208345 176.10000000000002 1329.375 177.5 1331.125 177.5C1332.0 177.5 1333.458345 177.5 1334.625 177.5H1335.5C1335.5 217.05 1335.5 256.6 1335.5 296.15C1335.5 298.6 1336.666655 300.0 1338.708345 300.0C1359.416655 300.0 1380.416655 300.0 1401.125 300.0C1401.125 288.8 1401.125 277.25 1401.125 266.05C1401.125 236.3 1400.833345 206.55 1401.125 171.20000000000002C1400.833345 170.5 1381.875 107.5 1381.875 107.5C1367.875 107.5 1347.75 107.5 1328.208345 107.5ZM1432.625 104.0C1414.25 104.0 1403.166655 115.55000000000001 1399.375 147.75H1389.166655L1394.416655 191.15C1402.583345 185.2 1408.416655 183.8 1412.791655 183.8C1415.125 183.8 1416.583345 184.15 1418.333345 185.2C1418.333345 186.95 1418.333345 189.05 1418.333345 192.2V195.0C1428.833345 195.0 1439.041655 195.0 1449.541655 195.0C1451.583345 195.0 1452.75 193.60000000000002 1452.75 191.15L1452.166655 114.5C1452.166655 112.75 1451.875 112.05000000000001 1450.708345 110.65C1447.5 106.80000000000001 1440.5 104.0 1432.625 104.0Z" fill="#1a1a1a"/><path d="M1520.125 154.05V255.2C1520.125 343.4 1557.166655 387.5 1665.958345 387.5C1705.041655 387.5 1745.291655 381.9 1757.833345 377.7C1758.708345 377.35 1759.0 375.95 1759.0 374.9C1759.0 366.85 1759.0 324.85 1759.0 316.8H1750.541655C1733.041655 322.05 1713.5 325.55 1678.791655 325.55C1640.291655 325.55 1618.125 322.05 1602.958345 310.85C1588.375 300.0 1581.083345 280.05 1581.083345 230.0V175.4C1581.083345 122.20000000000002 1601.208345 95.60000000000002 1655.75 95.60000000000002C1685.208345 95.60000000000002 1703.0 99.45000000000002 1711.75 108.55000000000001C1719.916655 116.95000000000002 1723.416655 126.75 1723.416655 157.55C1723.416655 187.3 1723.416655 210.75 1723.416655 263.95C1723.416655 265.0 1756.666655 300.35 1760.166655 300.35H1786.125C1786.125 284.95 1786.125 269.55 1786.125 254.15C1786.125 207.95 1786.125 169.1 1786.125 148.45000000000002C1786.125 79.5 1758.708345 34.0 1654.583345 34.0C1550.458345 34.0 1520.125 86.5 1520.125 154.05ZM1744.416655 228.60000000000002C1734.791655 241.55 1720.5 247.85 1708.833345 247.85C1698.041655 247.85 1692.208345 241.2 1692.208345 226.85000000000002V202.7C1692.208345 193.60000000000002 1693.375 189.75 1696.0 186.60000000000002C1698.333345 183.8 1702.416655 182.05 1708.833345 182.05C1718.166655 182.05 1731.291655 183.8 1743.833345 187.3V143.20000000000002H1719.041655C1708.25 135.5 1698.333345 130.95000000000002 1681.416655 130.95000000000002C1647.291655 130.95000000000002 1629.5 154.4 1629.5 193.60000000000002V249.25C1629.5 286.35 1646.708345 303.85 1675.0 303.85C1699.791655 303.85 1714.958345 300.7 1731.291655 281.1H1744.416655Z" fill="#1a1a1a"/><path d="M1677.916655 296.5C1677.916655 319.6 1677.916655 343.05 1677.916655 366.15C1677.916655 368.6 1679.375 370.0 1681.125 370.0C1688.573735 370.0 1697.88461 370.0 1705.333345 370.0C1743.833345 370.0 1762.5 347.25 1762.5 301.4C1762.5 245.4 1762.5 167.70000000000002 1762.5 111.70000000000002C1762.5 107.15 1763.375 103.65 1765.416655 101.20000000000002C1767.166655 99.10000000000002 1770.083345 97.70000000000002 1774.166655 97.70000000000002C1775.333345 97.70000000000002 1776.5 97.70000000000002 1777.666655 97.70000000000002C1777.666655 100.85000000000002 1777.666655 103.30000000000001 1777.666655 106.80000000000001V111.0C1786.204065 111.0 1794.50428 111.0 1803.041655 111.0C1805.083345 111.0 1806.25 109.60000000000002 1806.25 107.15V42.400000000000034C1806.25 41.35000000000002 1805.958345 40.30000000000001 1805.375 39.60000000000002C1801.404495 35.10417614531002 1790.208345 30.5 1769.208345 30.5C1721.083345 30.5 1695.416655 56.05000000000001 1695.416655 115.55000000000001C1695.416655 172.25 1695.416655 235.60000000000002 1695.416655 292.65C1695.416655 294.05 1695.125 295.1 1694.541655 295.8C1694.25 296.15 1693.375 296.5 1692.5 296.5C1689.77777 296.5 1686.47223 296.5 1683.75 296.5ZM1677.916655 153.0C1677.916655 172.60000000000002 1677.916655 199.55 1677.916655 219.15C1677.916655 221.60000000000002 1679.083345 223.0 1681.125 223.0H1788.75C1788.75 203.4 1788.75 176.45 1788.75 156.85000000000002C1788.75 154.4 1787.583345 153.0 1785.541655 153.0ZM1794.58331 107.5C1794.58331 130.60000000000002 1794.58331 154.05 1794.58331 177.15C1794.58331 179.60000000000002 1795.75 181.0 1797.791655 181.0C1799.25 181.0 1802.45831 181.0 1803.916655 181.0H1809.166655C1809.166655 197.8 1809.166655 228.25 1809.166655 242.6C1809.166655 281.1 1824.916655 300.0 1857.0 300.0C1873.916655 300.0 1885.291655 300.0 1887.625 300.0C1889.666655 300.0 1890.83331 298.6 1890.83331 296.15C1890.83331 273.05 1890.83331 249.6 1890.83331 226.5H1885.291655C1883.25 226.5 1879.75 226.5 1877.70831 226.5C1876.83331 226.5 1875.95831 226.15 1875.666655 225.8C1875.08331 225.10000000000002 1874.791655 224.05 1874.791655 222.65C1874.791655 185.55 1874.791655 148.45000000000002 1874.791655 111.35000000000002C1874.791655 108.9 1873.625 107.5 1871.58331 107.5C1846.5 107.5 1819.666655 107.5 1794.58331 107.5ZM1793.2825 52.37500000000003C1793.2825 78.38416500000002 1814.365835 99.4675 1840.375 99.4675C1866.384165 99.4675 1887.4675 78.38416500000002 1887.4675 52.37500000000003C1887.4675 26.365835000000004 1866.384165 5.282500000000027 1840.375 5.282500000000027C1814.365835 5.282500000000027 1793.2825 26.365835000000004 1793.2825 52.37500000000003Z" fill="#1a1a1a"/><line x1="20" y1="382.5" x2="1870.0" y2="382.5" stroke="#eee" stroke-width="0.5"/><text x="20" y="553.75" font-size="11" font-family="sans-serif" font-weight="bold" fill="#555">SemiCasual</text><path d="M153.8125 564.25C135.583345 564.25 126.6875 561.275 111.375 552.35H107.583345C106.854155 568.8 106.270845 585.6 106.270845 603.625C106.270845 613.6 108.020845 620.95 112.104155 625.85C117.9375 633.2 134.125 639.5 156.4375 639.5C208.645845 639.5 236.791655 608.0 236.791655 549.375C236.791655 495.95625 236.791655 440.91875000000005 236.791655 387.5C236.791655 384.70000000000005 229.99581 383.3 213.00625 383.3C206.21040499999998 383.3 199.414595 383.3 192.61874999999998 383.3C175.62919 383.3 168.833345 384.70000000000005 168.833345 387.5C168.833345 387.5 168.833345 387.5 168.833345 387.5C168.833345 387.5 168.833345 387.5 168.833345 387.5C168.833345 438.55100000000004 168.833345 491.149 168.833345 542.2C168.833345 549.9 167.958345 556.025 165.916655 560.575C163.0 563.2 159.0625 564.25 153.8125 564.25Z" fill="#1a1a1a"/><path d="M372.854155 380.5C320.645845 380.5 285.5 414.8 285.5 461.0V471.15C285.5 502.125 295.27081 522.6 340.770845 536.25L367.75 544.65C376.791655 547.45 381.020845 552.0 382.770845 557.25V559.525C380.4375 564.075 374.604155 567.05 359.4375 567.05C331.583345 567.05 309.5625 558.475 288.125 544.475H284.333345C283.604155 559.35 283.166655 575.8 283.166655 592.95C283.166655 605.025 285.208345 613.25 289.583345 618.85C298.916655 630.75 324.875 639.5 359.0 639.5C408.583345 639.5 441.833345 616.925 441.833345 569.5V558.825C441.833345 529.775 431.333345 506.675 388.75 494.07500000000005L359.875 485.5C348.354155 482.175 346.604155 478.32500000000005 346.604155 471.675V469.4C346.604155 458.375 358.125 450.675 373.4375 450.675C379.125 450.675 383.0625 451.20000000000005 389.479155 453.3L381.604155 440.875C380.875 449.15477500000003 380.583345 458.725 380.583345 465.375C380.583345 474.125 385.833345 479.9 400.270845 479.9C414.416655 479.9 427.25 479.20000000000005 439.645845 477.975C439.645845 463.1 439.645845 445.07500000000005 439.645845 430.375C439.645845 417.25 435.416655 407.1 428.125 398.35C420.104155 388.725 401.291655 380.5 372.854155 380.5Z" fill="#1a1a1a"/><path d="M479.3125 632.5C479.3125 632.5 603.5625 632.5 603.5625 632.5C604.0 614.475 604.1458275 606.775 604.1458275 588.925C604.1458275 573.7 600.2083275 557.25 591.0208275 557.25C591.0208275 557.25 525.833345 557.25 525.833345 557.25C525.833345 508.075 525.833345 457.15 525.833345 407.975C525.833345 389.775 521.604155 385.75 503.8125 385.75C487.7708275 385.75 473.770845 386.275 458.458345 387.5C459.625 400.1 460.208345 413.75 460.208345 429.32500000000005C460.208345 486.025 460.208345 543.25 460.208345 603.45C460.208345 622.175 467.354155 632.5 479.3125 632.5Z" fill="#1a1a1a"/><path d="M791.9791725 632.5C792.5625 616.925 793.0 598.9 793.0 582.1C793.0 565.3 788.0416725 556.9 778.2708275 556.9C778.2708275 556.9 764.8541725 556.9 764.8541725 556.9C747.7916725 556.9 734.375 557.425 710.166655 560.575C710.166655 560.575 710.166655 556.025 710.166655 556.025C725.333345 548.5 737.7291725 539.225 757.7083275 515.425C772.4375 497.925 784.8333275 479.55 791.979155 462.75C791.979155 462.75 791.979155 424.6 791.979155 424.6C791.979155 402.725 785.5625 387.5 776.2291725 387.5C776.2291725 387.5 634.7708275 387.5 634.7708275 387.5C634.0416725 404.3 633.6041725 417.6 633.6041725 432.65C633.6041725 447.70000000000005 638.7083275 458.025 651.6875 458.025C651.6875 458.025 695.291655 458.025 695.291655 458.025C713.083345 458.025 711.333345 458.025 729.5625 458.025C729.5625 458.025 729.5625 462.57500000000005 729.5625 462.57500000000005C717.458345 475.525 709.4375 487.07500000000005 697.0416725 501.425C679.6875 522.075 658.3958275 541.85 632.0 563.2C632.0 563.2 632.0 599.425 632.0 599.425C632.0 622.175 635.9375 632.5 644.5416725 632.5C644.5416725 632.5 791.9791725 632.5 791.9791725 632.5Z" fill="#1a1a1a"/><path d="M885.6041725 363.0C858.275 363.0 819.979155 397.3 819.979155 440.875C819.979155 489.70000000000005 819.979155 542.025 819.979155 591.375C819.979155 591.375 890.5625 591.375 890.5625 591.375C890.5625 591.375 883.4166725 567.575 883.4166725 567.575C884.7291725 559.7 885.4583275 552.7 885.4583275 541.675C885.4583275 513.5 885.4583275 483.75 885.4583275 453.475C883.7083275 447.0 883.125 440.875 883.7083275 435.45000000000005C885.8197025 433.966349823845 889.25 433.0 892.6041725 433.0C899.166655 433.0 903.6656075 434.29110840304253 908.2083275 437.725C908.2083275 437.725 912.0 437.725 912.0 437.725C912.875 421.8596153846225 913.0208275 408.0903846153775 913.0208275 391.875C913.0208275 382.07500000000005 911.5625 375.25 908.6458275 371.05C904.7083275 365.975 895.375 363.0 885.6041725 363.0ZM836.8375 459.425C836.8375 470.275 836.8375 482.0 836.8375 497.05C836.8375 519.975 839.080685 524.0 847.6 524.0C847.6 524.0 908.0625 524.0 908.0625 524.0C908.7916725 510.7 909.083345 495.475 909.083345 480.95000000000005C909.083345 462.75 906.0208275 459.425 896.8333275 459.425C896.8333275 459.425 836.8375 459.425 836.8375 459.425ZM803.9375 559.0C803.208345 572.125 802.770845 594.525 802.770845 607.65C802.770845 626.375 806.7083275 632.5 818.5208275 632.5C818.5208275 632.5 909.958345 632.5 909.958345 632.5C910.6875 620.775 911.4166725 598.375 911.4166725 584.725C911.4166725 567.05 908.5 559.0 902.0833275 559.0C902.0833275 559.0 803.9375 559.0 803.9375 559.0Z" fill="#1a1a1a"/><path d="M977.479155 440.0C976.4583275 456.45000000000005 975.875 474.3641089108975 975.875 492.32500000000005C975.875 506.43 978.0625 512.45 982.7291725 512.45C984.4791725 512.45 987.25 512.1 989.0 511.225C989.0 511.225 992.3541725 511.4 992.3541725 511.4C992.3541725 529.6 992.3541725 559.35 992.3541725 582.1C992.3541725 615.0 1011.6041725 634.425 1041.7916725 634.425C1056.0833275 634.425 1065.4166725 633.375 1069.5 629.875C1073.875 625.85 1075.916655 619.375 1075.916655 608.525C1075.916655 590.85 1075.625 574.925 1074.75 558.475C1074.75 558.475 1071.1041725 558.475 1071.1041725 558.475C1068.770845 559.35 1065.5625 560.05 1062.791655 560.05C1061.041655 560.05 1059.5833275 559.7 1058.4166725 558.825C1058.125 556.9 1057.9791725 554.625 1057.9791725 551.825C1057.9791725 520.675 1057.9791725 488.475 1057.9791725 457.32500000000005C1057.9791725 445.07500000000005 1049.6666725 438.07500000000005 1032.3125 438.07500000000005C1014.958345 438.07500000000005 995.2708275 438.6 977.479155 440.0ZM979.97 385.4C979.97 385.4 979.97 385.4 979.97 385.4C979.97 411.40916500000003 1001.0533350000001 432.4925 1027.0625 432.4925C1053.071665 432.4925 1074.155 411.40916500000003 1074.155 385.4C1074.155 385.4 1074.155 385.4 1074.155 385.4C1074.155 359.390835 1053.071665 338.30750000000006 1027.0625 338.30750000000006C1001.0533350000001 338.30750000000006 979.97 359.390835 979.97 385.4Z" fill="#1a1a1a"/><path d="M1145.7708275 373.5C1144.75 389.95000000000005 1144.166655 407.975 1144.166655 426.0C1144.166655 444.20000000000005 1147.520845 451.375 1152.1875 451.375C1155.5416725 451.375 1158.1666725 450.15 1160.791655 446.475C1160.791655 446.475 1162.3958275 446.65 1162.3958275 446.65C1162.3958275 489.175 1162.3958275 526.8 1162.3958275 578.6C1162.3958275 613.075 1184.4166725 634.425 1209.0625 634.425C1218.5416725 634.425 1229.333345 634.075 1234.5833275 630.575C1238.375 627.075 1240.708345 617.275 1240.708345 605.2C1240.708345 589.275 1240.4166725 573.35 1239.5416725 556.9C1239.5416725 556.9 1237.6458275 556.9 1237.6458275 556.9C1234.291655 558.3 1231.6666725 558.825 1230.0625 558.825C1229.479155 558.825 1228.75 558.65 1228.4583275 558.475C1228.166655 556.025 1228.0208275 553.75 1228.0208275 550.95C1228.0208275 496.525 1228.0208275 441.925 1228.0208275 389.07500000000005C1228.0208275 373.85 1223.6458275 368.25 1208.479155 368.25C1178.729155 368.25 1159.7708275 369.825 1145.7708275 373.5Z" fill="#1a1a1a"/><path d="M1327.625 440.0C1326.458345 455.05 1325.7291725 473.07500000000005 1325.7291725 492.32500000000005C1325.7291725 511.05 1327.7708275 514.375 1331.7083275 514.375C1333.3125 514.375 1334.9166725 513.85 1336.0833275 512.975C1336.0833275 512.975 1337.3958275 513.5 1337.3958275 513.5C1337.3958275 546.75 1337.3958275 582.975 1337.3958275 616.225C1337.3958275 628.125 1342.791655 634.25 1357.375 634.25C1372.979155 634.25 1388.291655 633.9 1403.4583275 633.375C1402.2916725 620.425 1401.7083275 606.6 1401.7083275 591.025C1401.7083275 562.5640077821075 1401.5625 534.325 1401.7083275 503.0C1401.5625 488.475 1380.8541725 438.25 1366.8541725 438.25C1355.1875 438.25 1341.3333275 438.775 1327.625 440.0ZM1432.3333275 435.625C1415.8541725 435.625 1404.7708275 445.95000000000005 1400.25 481.3C1400.25 481.3 1390.3333275 481.3 1390.3333275 481.3C1390.3333275 481.3 1393.541655 529.075 1393.541655 529.075C1402.2916725 516.3 1409.291655 514.2 1414.3958275 514.2C1416.1458275 514.2 1417.6041725 514.55 1419.0625 515.25C1419.208345 519.45 1418.9166725 523.65 1418.4791725 527.325C1418.4791725 527.325 1418.4791725 529.775 1418.4791725 529.775C1425.4791725 530.475 1432.7708275 530.825 1440.354155 530.825C1449.25 530.825 1454.7916725 524.35 1454.7916725 505.625C1454.7916725 505.625 1454.5 465.025 1454.5 465.025C1454.5 453.475 1452.6041725 447.0 1448.958345 442.625C1445.1666725 438.07500000000005 1439.0416725 435.625 1432.3333275 435.625Z" fill="#1a1a1a"/><path d="M1522.4583275 519.975C1522.4583275 519.975 1522.4583275 573.525 1522.4583275 573.525C1522.4583275 664.0 1564.0208275 711.25 1666.25 711.25C1700.9583275 711.25 1733.041655 707.05 1745.2916725 700.925C1750.1041725 697.775 1751.2708275 689.375 1751.2708275 683.6C1751.2708275 676.775 1751.125 652.275 1750.5416725 645.8C1750.5416725 645.8 1745.1458275 645.8 1745.1458275 645.8C1728.5208275 652.625 1705.0416725 657.35 1674.125 657.35C1639.416655 657.35 1621.0416725 654.9 1601.9375 646.15C1585.4583275 630.05 1577.875 605.9 1577.875 560.225C1577.875 560.225 1577.875 531.0 1577.875 531.0C1577.875 455.75 1609.083345 420.225 1670.9166725 420.225C1690.895845 420.225 1704.8958275 422.675 1713.2083275 427.75C1718.604155 434.225 1720.791655 442.1 1720.791655 464.15C1720.791655 499.85 1720.791655 535.375 1720.791655 585.95C1720.791655 599.25 1749.9583275 630.575 1770.375 630.575C1770.375 630.575 1787.4375 630.575 1787.4375 630.575C1786.7083275 615.525 1786.2708275 603.45 1786.2708275 587.875C1786.2708275 541.85 1786.2708275 499.675 1786.2708275 466.425C1786.2708275 403.425 1757.1041725 366.5 1670.0416725 366.5C1570.7291725 366.5 1522.4583275 433.525 1522.4583275 519.975ZM1739.8958275 552.0C1728.9583275 569.15 1714.9583275 576.5 1704.3125 576.5C1693.8125 576.5 1687.9791725 570.375 1687.9791725 550.075C1687.9791725 550.075 1687.9791725 536.6 1687.9791725 536.6C1687.9791725 520.675 1688.7083275 514.375 1690.75 506.5C1694.25 504.575 1698.3333275 503.525 1704.75 503.525C1713.354155 503.525 1723.2708275 505.275 1732.3125 510.7C1732.3125 510.7 1732.3125 464.85 1732.3125 464.85C1732.3125 464.85 1717.5833275 464.85 1717.5833275 464.85C1707.9583275 456.1 1699.5 451.375 1683.4583275 451.375C1654.875 451.375 1623.6666725 480.775 1623.6666725 533.8C1623.6666725 533.8 1623.6666725 564.25 1623.6666725 564.25C1623.6666725 612.725 1646.5625 633.2 1675.7291725 633.2C1698.916655 633.2 1712.9166725 627.425 1727.6458275 607.475C1727.6458275 607.475 1740.479155 607.475 1740.479155 607.475C1740.479155 607.475 1739.8958275 552.0 1739.8958275 552.0Z" fill="#1a1a1a"/><path d="M1676.0208275 627.25C1675.1458275 643.7 1674.854155 659.625 1674.854155 675.55C1674.854155 686.75 1677.4791725 694.275 1682.0 698.825C1687.9622675 701.609948675355 1697.2339775 702.675 1705.0416725 702.675C1743.25 702.675 1761.7708275 677.3 1761.7708275 635.475C1761.7708275 587.525 1761.7708275 514.2 1761.7708275 469.75C1761.7708275 457.15 1758.4166725 444.725 1753.604155 435.1C1756.226705 433.4907862668275 1759.475545 432.3 1763.229155 432.3C1765.33066 432.3 1767.3095775 432.5619152655875 1769.2083275 432.82500000000005C1769.5 436.5 1769.0625 439.3 1768.479155 443.15C1768.479155 443.15 1768.479155 446.3 1768.479155 446.3C1774.39615 446.8817494090975 1779.8815775 447.175 1785.8333275 447.175C1794.600075 447.175 1800.5625 439.60357142858004 1800.5625 427.05C1800.5625 427.05 1800.5625 392.4 1800.5625 392.4C1800.5625 385.4 1797.7916725 378.05 1794.7291725 374.375C1789.744945 368.378386604885 1780.29638 363.0 1761.4791725 363.0C1721.375 363.0 1695.416655 389.95000000000005 1695.416655 441.57500000000005C1695.416655 497.57500000000005 1695.416655 562.85 1695.416655 619.025C1695.416655 622.525 1695.2708275 625.15 1694.979155 628.3C1694.1041725 628.65 1692.3541725 629.0 1690.6041725 629.0C1686.8013175 629.0 1683.23683 628.73551313204 1679.8125 627.25C1679.8125 627.25 1676.0208275 627.25 1676.0208275 627.25ZM1677.479155 487.775C1676.8958275 500.725 1676.604155 517.525 1676.604155 531.175C1676.604155 550.425 1681.270845 557.775 1695.125 557.775C1695.125 557.775 1788.0208275 557.775 1788.0208275 557.775C1788.75 544.475 1789.0416725 526.45 1789.0416725 511.925C1789.0416725 493.725 1784.2291725 487.775 1769.5 487.775C1769.5 487.775 1677.479155 487.775 1677.479155 487.775ZM1794.14581 440.0C1793.1249825 456.45000000000005 1792.541655 474.3641089108975 1792.541655 492.32500000000005C1792.541655 506.43 1794.729155 512.45 1799.3958275 512.45C1801.1458275 512.45 1803.916655 512.1 1805.666655 511.225C1805.666655 511.225 1809.0208275 511.4 1809.0208275 511.4C1809.0208275 529.6 1809.0208275 559.35 1809.0208275 582.1C1809.0208275 615.0 1828.2708275 634.425 1858.4583275 634.425C1872.7499825 634.425 1882.0833275 633.375 1886.166655 629.875C1890.541655 625.85 1892.58331 619.375 1892.58331 608.525C1892.58331 590.85 1892.291655 574.925 1891.416655 558.475C1891.416655 558.475 1887.7708275 558.475 1887.7708275 558.475C1885.4375 559.35 1882.229155 560.05 1879.45831 560.05C1877.70831 560.05 1876.2499825 559.7 1875.0833275 558.825C1874.791655 556.9 1874.6458275 554.625 1874.6458275 551.825C1874.6458275 520.675 1874.6458275 488.475 1874.6458275 457.32500000000005C1874.6458275 445.07500000000005 1866.3333275 438.07500000000005 1848.979155 438.07500000000005C1831.625 438.07500000000005 1811.9374825 438.6 1794.14581 440.0ZM1796.636655 385.4C1796.636655 385.4 1796.636655 385.4 1796.636655 385.4C1796.636655 411.40916500000003 1817.71999 432.4925 1843.729155 432.4925C1869.73832 432.4925 1890.821655 411.40916500000003 1890.821655 385.4C1890.821655 385.4 1890.821655 385.4 1890.821655 385.4C1890.821655 359.390835 1869.73832 338.30750000000006 1843.729155 338.30750000000006C1817.71999 338.30750000000006 1796.636655 359.390835 1796.636655 385.4Z" fill="#1a1a1a"/><line x1="20" y1="715.0" x2="1870.0" y2="715.0" stroke="#eee" stroke-width="0.5"/><text x="20" y="886.25" font-size="11" font-family="sans-serif" font-weight="bold" fill="#555">Casual</text><path d="M161.25 896.75C138.208345 896.75 128.583345 893.25 109.625 883.1H107.875C106.416655 892.55 105.25 902.35 105.25 914.95C105.25 933.85 108.458345 947.5 116.04165499999999 956.6C124.5 967.45 138.791655 972.0 160.083345 972.0C207.041655 972.0 235.33334499999998 939.45 235.33334499999998 884.5C235.33334499999998 830.215 235.33334499999998 774.2850000000001 235.33334499999998 720.0C235.33334499999998 717.2 228.5375 715.8 211.54793999999998 715.8C204.752095 715.8 197.95625 715.8 191.160405 715.8C174.17084499999999 715.8 167.375 717.2 167.375 720.0C167.375 720.0 167.375 720.0 167.375 720.0C167.375 720.0 167.375 720.0 167.375 720.0C167.375 773.13 167.375 827.87 167.375 881.0C167.375 886.6 167.375 891.85 167.083345 896.4C165.333345 896.75 163.291655 896.75 161.25 896.75Z" fill="#1a1a1a"/><path d="M375.625 713.0C323.708345 713.0 285.791655 752.55 285.791655 801.55V806.1C285.791655 836.55 299.791655 855.1 340.625 869.8L368.041655 879.6C376.208345 882.75 382.041655 886.95 385.541655 892.9V893.6C380.875 896.4 372.708345 897.1 361.625 897.1C333.041655 897.1 309.708345 886.95 286.666655 871.9H284.916655C283.458345 878.9 282.583345 889.05 282.583345 900.6C282.583345 923.7 286.375 939.1 294.541655 949.6C306.5 965.35 328.083345 972.0 362.5 972.0C409.166655 972.0 442.416655 950.3 442.416655 903.75V900.6C442.416655 881.7 431.916655 852.3 388.75 837.25L360.75 827.45C348.5 823.25 346.75 819.75 346.75 813.1V812.05C346.75 801.2 357.833345 786.85 375.041655 786.85C380.0 786.85 383.208345 787.2 389.041655 788.25L381.75 776.7C380.291655 786.15 379.708345 796.3 379.708345 804.35C379.708345 819.75 389.625 829.55 416.166655 829.55C426.375 829.55 434.25 828.15 440.958345 825.7C440.958345 816.25 440.958345 799.45 440.958345 790.35C440.958345 767.25 432.791655 748.0 419.666655 732.25C408.583345 718.95 395.458345 713.0 375.625 713.0Z" fill="#1a1a1a"/><path d="M495.208345 965.0H605.458345C606.333345 959.4 606.625 953.1 606.625 946.1C606.625 919.5 599.916655 888.0 584.166655 888.0H525.833345C525.833345 844.25 525.833345 800.85 525.833345 757.1C525.833345 723.15 518.541655 716.5 485.0 716.5C474.791655 716.5 465.458345 717.55 456.708345 720.0C459.041655 733.65 460.208345 749.4 460.208345 769.0C460.208345 813.8 460.208345 858.95 460.208345 910.75C460.208345 946.1 473.041655 965.0 495.208345 965.0Z" fill="#1a1a1a"/><path d="M792.708345 965.0C793.875 956.95 794.75 944.35 794.75 933.85C794.75 902.7 786.0 887.3 768.5 887.3H767.333345C753.625 887.3 741.666655 888.35 718.041655 894.65V892.55C734.958345 880.65 751.583345 865.6 765.0 849.85C782.208345 829.55 794.166655 808.55 794.166655 793.5V790.35C794.166655 749.05 782.5 720.0 765.875 720.0H635.791655C634.333345 729.1 633.458345 737.85 633.458345 745.9C633.458345 771.8 642.5 791.05 665.25 791.05H695.291655C712.208345 791.05 717.458345 791.05 728.541655 791.05V793.15C721.833345 810.65 713.958345 825.35 703.75 838.65C686.833345 861.05 663.5 879.25 630.25 899.55V902.7C630.25 945.75 636.958345 965.0 652.125 965.0Z" fill="#1a1a1a"/><path d="M885.458345 695.5C855.825 695.5 819.541655 735.75 819.541655 766.2C819.541655 817.65 819.541655 869.1 819.541655 920.55H891.0L879.333345 889.4C881.958345 882.05 883.416655 872.25 883.416655 862.45C883.416655 841.8 883.416655 817.3 883.416655 792.45C879.916655 784.05 877.875 775.3 877.291655 766.9C879.625 766.2 883.416655 765.5 886.333345 765.5C896.541655 765.5 901.791655 767.25 908.5 772.85H910.25C912.0 762.0 912.291655 755.0 912.291655 743.45C912.291655 724.9 909.666655 712.3 904.416655 704.6C900.041655 698.3 893.625 695.5 885.458345 695.5ZM835.175 791.75C835.175 793.85 835.175 795.95 835.175 806.45C835.175 849.85 838.96137 856.5 854.775 856.5H905.291655C906.75 849.5 907.333345 840.4 907.333345 830.95C907.333345 797.0 902.375 791.75 886.041655 791.75ZM802.041655 891.5C800.583345 900.95 799.708345 909.7 799.708345 919.15C799.708345 954.15 806.416655 965.0 828.0 965.0H909.083345C910.541655 958.35 912.0 949.6 912.0 939.1C912.0 906.2 907.333345 891.5 896.541655 891.5Z" fill="#1a1a1a"/><path d="M977.041655 772.5C975.0 782.3 973.833345 794.678217821795 973.833345 807.5C973.833345 833.26 977.041655 843.9 984.333345 843.9C986.375 843.9 988.708345 843.2 990.75 841.45L992.208345 841.8C992.208345 861.4 992.208345 890.45 992.208345 921.6C992.208345 948.9 1014.958345 968.85 1043.25 968.85C1054.916655 968.85 1062.208345 966.75 1068.041655 959.75C1074.75 951.7 1077.666655 940.15 1077.666655 920.9C1077.666655 908.65 1077.083345 900.25 1075.333345 890.45H1073.583345C1070.958345 892.2 1068.041655 893.6 1064.541655 893.6C1061.916655 893.6 1059.875 893.25 1057.833345 891.85C1057.833345 888.7 1057.833345 885.2 1057.833345 881.0C1057.833345 855.8 1057.833345 828.5 1057.833345 803.3C1057.833345 781.25 1042.375 768.65 1009.708345 768.65C1000.083345 768.65 987.541655 769.7 977.041655 772.5ZM983.324155 718.425C983.324155 744.434165 1004.40749 765.5174999999999 1030.416655 765.5174999999999C1056.42582 765.5174999999999 1077.509155 744.434165 1077.509155 718.425C1077.509155 692.415835 1056.42582 671.3325 1030.416655 671.3325C1004.40749 671.3325 983.324155 692.415835 983.324155 718.425Z" fill="#1a1a1a"/><path d="M1141.25 709.5C1139.208345 719.3 1138.041655 731.9 1138.041655 744.85C1138.041655 778.8 1143.583345 791.75 1150.875 791.75C1155.25 791.75 1158.75 789.3 1162.541655 781.95L1164.291655 782.3C1164.291655 827.1 1164.291655 862.45 1164.291655 906.9C1164.291655 944.7 1191.708345 968.85 1212.708345 968.85C1224.375 968.85 1230.208345 968.15 1236.041655 961.15C1241.875 954.15 1245.083345 935.95 1245.083345 914.25C1245.083345 905.5 1244.5 897.1 1242.75 887.3H1241.0C1236.041655 890.1 1232.833345 891.15 1231.083345 891.15C1230.791655 891.15 1230.208345 891.15 1229.916655 891.15C1229.916655 886.95 1229.916655 883.45 1229.916655 879.25C1229.916655 830.6 1229.916655 782.3 1229.916655 736.8C1229.916655 708.8 1222.625 699.0 1194.041655 699.0C1171.291655 699.0 1156.416655 702.1500000000001 1141.25 709.5Z" fill="#1a1a1a"/><path d="M1327.041655 772.5C1324.708345 780.55 1323.25 794.55 1323.25 811.0C1323.25 846.0 1326.166655 851.25 1332.291655 851.25C1334.625 851.25 1336.375 850.2 1337.541655 848.45L1339.291655 849.5C1339.291655 876.45 1339.291655 909.35 1339.291655 936.3C1339.291655 957.65 1348.916655 968.5 1376.041655 968.5C1386.541655 968.5 1396.166655 967.8 1405.791655 966.75C1403.458345 952.05 1402.291655 935.95 1402.291655 916.0C1402.291655 888.828015564215 1402.291655 862.1 1402.291655 834.8C1402.291655 806.45 1379.833345 769.0 1351.833345 769.0C1342.5 769.0 1334.916655 770.05 1327.041655 772.5ZM1432.041655 767.25C1417.458345 767.25 1406.375 776.35 1401.125 814.85H1391.5L1392.666655 867.0C1402.0 847.4 1410.166655 844.6 1416.0 844.6C1417.166655 844.6 1418.625 844.95 1419.791655 845.3C1420.083345 851.95 1419.5 858.25 1418.625 862.45V864.55C1422.125 865.95 1426.5 866.65 1431.166655 866.65C1446.916655 866.65 1456.833345 855.1 1456.833345 820.1V815.55C1456.833345 794.2 1453.333345 781.95 1447.208345 774.6C1442.833345 769.35 1437.583345 767.25 1432.041655 767.25Z" fill="#1a1a1a"/><path d="M1524.791655 885.9V891.85C1524.791655 984.6 1570.875 1035.0 1666.541655 1035.0C1696.875 1035.0 1720.791655 1032.2 1732.75 1024.15C1741.5 1018.2 1743.541655 1002.8 1743.541655 992.3C1743.541655 986.7 1743.25 979.7 1742.083345 974.8H1739.75C1724.0 983.2 1696.583345 989.15 1669.458345 989.15C1638.541655 989.15 1623.958345 987.75 1600.916655 981.45C1582.541655 960.1 1574.666655 931.75 1574.666655 890.45V886.6C1574.666655 789.3 1616.958345 744.85 1686.083345 744.85C1696.583345 744.85 1706.791655 745.9 1714.666655 746.95C1717.291655 751.5 1718.166655 757.45 1718.166655 770.75C1718.166655 812.4 1718.166655 860.0 1718.166655 907.95C1718.166655 933.5 1743.25 960.8 1780.583345 960.8H1788.75C1787.291655 946.1 1786.416655 937.35 1786.416655 921.6C1786.416655 875.75 1786.416655 830.25 1786.416655 784.4C1786.416655 727.35 1755.5 699.0 1685.5 699.0C1591.0 699.0 1524.791655 780.55 1524.791655 885.9ZM1735.375 875.4C1723.125 896.75 1709.416655 905.15 1699.791655 905.15C1689.583345 905.15 1683.75 899.55 1683.75 873.3V870.5C1683.75 847.75 1684.041655 839.0 1685.5 826.4C1690.166655 825.35 1694.25 825.0 1700.666655 825.0C1708.541655 825.0 1715.25 826.75 1720.791655 834.1V786.5H1716.125C1707.666655 776.7 1700.666655 771.8 1685.5 771.8C1662.458345 771.8 1617.833345 807.15 1617.833345 874.0V879.25C1617.833345 939.1 1646.416655 962.55 1676.458345 962.55C1698.041655 962.55 1710.875 954.15 1724.0 933.85H1736.541655Z" fill="#1a1a1a"/><path d="M1674.125 958.0C1672.375 967.8 1671.791655 976.2 1671.791655 984.95C1671.791655 1004.9 1675.583345 1018.55 1682.875 1027.65C1687.3508 1033.21989735071 1696.583345 1035.35 1704.75 1035.35C1742.666655 1035.35 1761.041655 1007.35 1761.041655 969.55C1761.041655 929.65 1761.041655 860.7 1761.041655 827.8C1761.041655 807.15 1753.458345 785.8 1741.791655 769.0C1745.286755 767.881572533655 1748.867745 766.9 1752.291655 766.9C1755.327975 766.9 1758.119155 767.423830531175 1760.75 767.95C1761.333345 772.15 1760.458345 775.3 1759.291655 779.5V781.6C1762.588235 782.763498818195 1765.258875 783.35 1768.625 783.35C1784.1168049999999 783.35 1794.875 769.6071428571599 1794.875 746.95V742.4C1794.875 729.45 1789.625 715.8 1784.083345 709.15C1778.085395 701.65259706446 1770.384415 695.5 1753.75 695.5C1721.666655 695.5 1695.416655 723.85 1695.416655 767.6C1695.416655 822.9 1695.416655 890.1 1695.416655 945.4C1695.416655 951.0 1695.416655 955.2 1695.416655 960.8C1693.958345 961.15 1691.333345 961.5 1688.708345 961.5C1683.824865 961.5 1680.00143 960.97102626408 1675.875 958.0ZM1677.041655 822.55C1675.875 828.85 1675.291655 835.5 1675.291655 843.2C1675.291655 879.25 1683.458345 892.55 1709.125 892.55H1787.291655C1788.75 885.55 1789.333345 876.45 1789.333345 867.0C1789.333345 833.05 1780.875 822.55 1753.458345 822.55ZM1793.70831 772.5C1791.666655 782.3 1790.5 794.678217821795 1790.5 807.5C1790.5 833.26 1793.70831 843.9 1801.0 843.9C1803.041655 843.9 1805.375 843.2 1807.416655 841.45L1808.875 841.8C1808.875 861.4 1808.875 890.45 1808.875 921.6C1808.875 948.9 1831.625 968.85 1859.916655 968.85C1871.58331 968.85 1878.875 966.75 1884.70831 959.75C1891.416655 951.7 1894.33331 940.15 1894.33331 920.9C1894.33331 908.65 1893.75 900.25 1892.0 890.45H1890.25C1887.625 892.2 1884.70831 893.6 1881.20831 893.6C1878.58331 893.6 1876.541655 893.25 1874.5 891.85C1874.5 888.7 1874.5 885.2 1874.5 881.0C1874.5 855.8 1874.5 828.5 1874.5 803.3C1874.5 781.25 1859.041655 768.65 1826.375 768.65C1816.75 768.65 1804.20831 769.7 1793.70831 772.5ZM1799.99081 718.425C1799.99081 744.434165 1821.074145 765.5174999999999 1847.08331 765.5174999999999C1873.092475 765.5174999999999 1894.17581 744.434165 1894.17581 718.425C1894.17581 692.415835 1873.092475 671.3325 1847.08331 671.3325C1821.074145 671.3325 1799.99081 692.415835 1799.99081 718.425Z" fill="#1a1a1a"/>
</svg>