<?xml version="1.0" encoding="UTF-8"?>
<svg xmlns="http://www.w3.org/2000/svg" width="1540.0" height="1057.5"
     viewBox="0 0 1540.0 1057.5">
<rect width="100%" height="100%" fill="white"/>
<text x="770.0" y="30" text-anchor="middle" font-size="14" font-family="sans-serif" font-weight="bold" fill="#333">Sans A Upright — Key glyphs close-up</text><text x="187.5" y="48" text-anchor="middle" font-size="10" font-family="sans-serif" fill="#999">H</text><text x="362.5" y="48" text-anchor="middle" font-size="10" font-family="sans-serif" fill="#999">I</text><text x="537.5" y="48" text-anchor="middle" font-size="10" font-family="sans-serif" fill="#999">J</text><text x="712.5" y="48" text-anchor="middle" font-size="10" font-family="sans-serif" fill="#999">K</text><text x="887.5" y="48" text-anchor="middle" font-size="10" font-family="sans-serif" fill="#999">L</text><text x="1062.5" y="48" text-anchor="middle" font-size="10" font-family="sans-serif" fill="#999">M</text><text x="1237.5" y="48" text-anchor="middle" font-size="10" font-family="sans-serif" fill="#999">R</text><text x="1412.5" y="48" text-anchor="middle" font-size="10" font-family="sans-serif" fill="#999">S</text><text x="20" y="221.25" font-size="11" font-family="sans-serif" font-weight="bold" fill="#555">Linear</text><path d="M126.25 55.00000000000003C126.25 66.55000000000001 126.25 78.10000000000002 126.25 89.65C126.25 158.25 126.25 227.55 126.25 296.15C126.25 298.25 127.70834500000001 300.0 129.458345 300.0C133.25 300.0 137.041655 300.0 140.833345 300.0C140.833345 219.85000000000002 140.833345 139.0 140.833345 58.85000000000002C140.833345 56.75000000000003 139.375 55.00000000000003 137.625 55.00000000000003C133.833345 55.00000000000003 130.041655 55.00000000000003 126.25 55.00000000000003ZM136.75 167.0V179.60000000000002C136.75 181.7 137.916655 183.45 139.958345 183.45H256.041655V163.5L249.625 167.0C246.70834499999998 167.0 243.5 167.0 240.58334499999998 167.0ZM263.333345 300.0C263.333345 288.45 263.333345 276.55 263.333345 265.0C263.333345 196.4 263.333345 127.45000000000002 263.333345 58.85000000000002C263.333345 56.75000000000003 261.875 55.00000000000003 260.125 55.00000000000003C256.333345 55.00000000000003 252.541655 55.00000000000003 248.75 55.00000000000003C248.75 135.15 248.75 216.0 248.75 296.15C248.75 298.25 250.20834499999998 300.0 251.95834499999998 300.0C255.75 300.0 259.541655 300.0 263.333345 300.0Z" fill="#1a1a1a"/><path d="M355.208345 293.0C355.208345 225.10000000000002 355.208345 157.20000000000002 355.208345 89.30000000000001C355.208345 81.60000000000002 355.208345 73.55000000000001 355.208345 65.85000000000002L356.958345 62.00000000000003H340.625C340.625 128.15 340.625 194.3 340.625 260.1C340.625 269.9 340.625 279.7 340.625 289.15L339.75 293.0ZM397.5 300.0C397.5 295.45 397.5 291.6 397.5 287.4C397.5 285.3 396.041655 283.55 394.291655 283.55H298.333345C298.333345 288.1 298.333345 291.6 298.333345 296.15C298.333345 298.25 299.5 300.0 301.541655 300.0ZM298.333345 55.00000000000003C298.333345 59.55000000000001 298.333345 63.05000000000001 298.333345 67.60000000000002C298.333345 69.70000000000002 299.5 71.45000000000002 301.541655 71.45000000000002H397.5C397.5 66.9 397.5 63.400000000000006 397.5 58.85000000000002C397.5 56.75000000000003 396.041655 55.00000000000003 394.291655 55.00000000000003Z" fill="#1a1a1a"/><path d="M510.958345 290.55C496.083345 290.55 482.375 284.6 471.0 274.8H467.5C467.5 279.35 467.5 283.2 467.5 287.75C467.5 289.5 467.791655 290.2 468.666655 291.25C475.375 299.3 492.291655 307.0 510.083345 307.0C551.5 307.0 575.416655 274.45 575.416655 216.35000000000002C575.416655 163.1045 575.416655 108.24550000000002 575.416655 55.00000000000003C575.416655 52.20000000000002 573.95831 50.80000000000001 570.3125 50.80000000000001C568.854155 50.80000000000001 567.395845 50.80000000000001 565.9375 50.80000000000001C562.29169 50.80000000000001 560.833345 52.20000000000002 560.833345 55.00000000000003C560.833345 55.00000000000003 560.833345 55.00000000000003 560.833345 55.00000000000003C560.833345 55.00000000000003 560.833345 55.00000000000003 560.833345 55.00000000000003C560.833345 107.899 560.833345 162.401 560.833345 215.3C560.833345 245.4 554.416655 263.6 544.791655 275.15C536.333345 285.3 524.375 290.55 510.958345 290.55Z" fill="#1a1a1a"/><path d="M702.291655 165.95000000000002 693.541655 186.25H701.708345C713.083345 215.65 727.958345 241.9 749.25 279.35C758.0 294.4 764.416655 300.0 778.416655 300.0C780.75 300.0 782.791655 300.0 785.125 300.0C787.166655 300.0 788.333345 298.6 788.333345 296.15C788.333345 293.7 788.333345 287.05 788.333345 282.5H785.416655C783.958345 282.5 782.208345 282.5 779.583345 282.5C771.708345 282.5 767.625 280.05 762.083345 270.6C742.25 235.60000000000002 722.125 200.95 702.291655 165.95000000000002ZM777.25 55.00000000000003H764.416655C747.791655 80.9 731.458345 106.80000000000001 714.833345 132.70000000000002C697.333345 160.70000000000002 679.541655 188.35000000000002 669.333345 212.5H661.166655V242.95C699.958345 183.10000000000002 740.5 120.45000000000002 766.166655 80.55000000000001C779.0 60.95000000000002 779.583345 59.55000000000001 779.583345 57.10000000000002C779.583345 56.05000000000001 778.708345 55.00000000000003 777.25 55.00000000000003ZM651.25 55.00000000000003C651.25 66.55000000000001 651.25 78.10000000000002 651.25 89.65C651.25 158.25 651.25 227.55 651.25 296.15C651.25 298.6 652.416655 300.0 654.458345 300.0C658.25 300.0 662.041655 300.0 665.833345 300.0C665.833345 219.85000000000002 665.833345 139.0 665.833345 58.85000000000002C665.833345 56.400000000000006 664.666655 55.00000000000003 662.625 55.00000000000003C658.833345 55.00000000000003 655.041655 55.00000000000003 651.25 55.00000000000003Z" fill="#1a1a1a"/><path d="M829.458345 300.0H942.916655C942.916655 293.7 939.125 283.55 933.875 283.55H840.833345C840.833345 208.65 840.833345 133.75 840.833345 58.85000000000002C840.833345 56.75000000000003 839.666655 55.00000000000003 837.625 55.00000000000003C833.833345 55.00000000000003 830.041655 55.00000000000003 826.25 55.00000000000003C826.25 66.55000000000001 826.25 78.45000000000002 826.25 90.0C826.25 123.60000000000002 826.25 217.05 826.25 296.15C826.25 298.6 827.416655 300.0 829.458345 300.0Z" fill="#1a1a1a"/><path d="M1015.541655 300.0C1015.541655 281.1 1015.541655 262.2 1015.541655 243.3C1015.541655 189.05 1015.541655 135.5 1013.208345 65.50000000000003L1009.125 76.0H1026.333345L1015.833345 65.85000000000002C1039.458345 130.95000000000002 1073.291655 228.25 1083.208345 254.85C1084.375 257.65 1085.541655 258.0 1086.708345 258.0C1090.208345 258.0 1094.0 258.0 1097.5 258.0C1116.458345 207.95 1145.625 125.70000000000002 1168.083345 63.75000000000003L1157.583345 76.0H1175.666655L1169.833345 66.9C1168.083345 135.85000000000002 1167.5 189.4 1167.5 243.3C1167.5 260.8 1167.5 278.65 1167.5 296.15C1167.5 298.25 1168.666655 300.0 1170.708345 300.0C1172.75 300.0 1176.541655 300.0 1182.083345 300.0C1182.083345 288.1 1182.083345 276.2 1182.083345 264.3C1182.083345 196.05 1182.083345 66.20000000000002 1182.083345 58.85000000000002C1182.083345 56.400000000000006 1180.625 55.00000000000003 1178.875 55.00000000000003C1174.5 55.00000000000003 1160.791655 55.00000000000003 1156.416655 55.00000000000003C1138.041655 104.70000000000002 1111.208345 184.5 1086.125 251.0L1100.708345 229.3H1082.041655L1096.333345 251.0C1072.416655 185.55 1049.958345 116.60000000000002 1028.375 59.55000000000001C1027.208345 56.05000000000001 1026.041655 55.00000000000003 1023.708345 55.00000000000003C1019.041655 55.00000000000003 1005.916655 55.00000000000003 1001.25 55.00000000000003C1001.25 66.55000000000001 1001.25 78.10000000000002 1001.25 89.65C1001.25 158.25 1001.25 227.55 1001.25 296.15C1001.25 298.25 1002.416655 300.0 1004.458345 300.0C1008.25 300.0 1011.75 300.0 1015.541655 300.0Z" fill="#1a1a1a"/><path d="M1250.041655 183.8 1237.208345 192.2C1248.875 219.5 1260.833345 246.8 1272.5 274.1C1280.375 291.95 1289.125 300.0 1301.666655 300.0C1304.583345 300.0 1307.208345 300.0 1310.125 300.0C1312.166655 300.0 1313.333345 298.6 1313.333345 296.15C1313.333345 291.6 1313.333345 288.1 1313.333345 283.55H1310.416655C1308.958345 283.55 1307.208345 283.55 1304.583345 283.55C1296.708345 283.55 1292.041655 280.05 1286.791655 268.15C1274.541655 240.15 1262.291655 211.8 1250.041655 183.8ZM1179.166655 55.00000000000003C1179.166655 59.20000000000002 1179.166655 63.400000000000006 1179.166655 67.60000000000002C1179.166655 70.05000000000001 1179.166655 71.45000000000002 1179.166655 71.45000000000002C1188.696245 71.45000000000002 1215.041655 71.45000000000002 1241.875 71.45000000000002C1257.5018 71.45000000000002 1267.72369 76.21843166754502 1274.833345 84.75C1281.8187149999999 92.76800583755502 1285.041655 105.4 1285.041655 120.45000000000002V132.0C1285.041655 163.85000000000002 1270.75 181.0 1241.875 181.0C1224.083345 181.0 1206.291655 181.0 1188.5 181.0V200.60000000000002L1191.708345 197.45C1208.625 197.45 1225.833345 197.45 1242.75 197.45C1278.916655 197.45 1300.208345 172.95 1300.208345 133.4V119.05000000000001C1300.208345 78.80000000000001 1279.5 55.00000000000003 1242.75 55.00000000000003C1214.75 55.00000000000003 1186.75 55.00000000000003 1179.166655 55.00000000000003ZM1193.75 300.0C1193.75 288.8 1193.75 277.25 1193.75 265.0C1193.75 225.45 1193.75 186.25 1193.75 146.70000000000002C1193.75 119.75 1193.75 92.80000000000001 1193.75 65.85000000000002L1197.25 62.00000000000003H1179.166655C1179.166655 140.05 1179.166655 218.10000000000002 1179.166655 296.15C1179.166655 298.6 1180.333345 300.0 1182.375 300.0C1186.166655 300.0 1189.958345 300.0 1193.75 300.0Z" fill="#1a1a1a"/><path d="M1417.458345 49.400000000000006C1379.25 49.400000000000006 1351.25 74.03508771930501 1351.25 111.35000000000002V121.85000000000002C1351.25 153.35000000000002 1363.53045 169.735814246305 1398.208345 182.05L1426.791655 192.2C1455.059545 202.23797702978 1463.541655 211.45 1463.541655 233.85000000000002V240.85C1463.541655 272.0 1443.24036 289.15 1412.208345 289.15C1385.375 289.15 1368.166655 283.2 1350.958345 265.0H1347.458345C1347.458345 269.55 1347.458345 273.989024390255 1347.458345 278.65C1347.458345 280.75 1347.75 282.15 1349.208345 283.9C1359.88478 296.71172119584 1383.598225 305.6 1412.208345 305.6C1454.208345 305.6 1478.416655 279.889759036145 1478.416655 241.9V230.7C1478.416655 199.2918032787 1464.432895 186.58036384055504 1429.125 174.35000000000002L1400.833345 164.55C1373.41536 155.052634494855 1365.833345 141.8 1365.833345 119.75V113.10000000000002C1365.833345 84.4 1386.71536 65.85000000000002 1417.458345 65.85000000000002C1442.25 65.85000000000002 1459.458345 72.50000000000003 1469.083345 85.10000000000002L1464.994365 83.97261500000002C1464.036555 81.72526500000001 1463.04154 86.89788000000001 1461.991995 91.93053C1460.872065 91.78314500000002 1460.1345099999999 91.21579500000001 1459.65109 90.08841000000001C1459.762705 88.96106000000003 1459.7633 87.83367500000003 1459.64969 86.70632500000002C1457.9052550000001 79.84467999999998 1456.049765 72.97159000000002 1454.089345 66.10420500000004C1452.033025 63.99685500000001 1449.65908 62.44947000000005 1446.74813 60.48212000000001C1440.515925 54.594735000000014 1429.929895 50.52738500000001 1417.458345 49.400000000000006Z" fill="#1a1a1a"/><line x1="20" y1="382.5" x2="1520.0" y2="382.5" stroke="#eee" stroke-width="0.5"/><text x="20" y="553.75" font-size="11" font-family="sans-serif" font-weight="bold" fill="#555">SemiCasual</text><path d="M128.1458275 386.275C129.0208275 398.175 129.1666725 410.07500000000005 129.1666725 422.32500000000005C129.1666725 490.75 129.1666725 559.875 129.1666725 628.3C129.1666725 632.5 132.520845 634.25 136.6041725 634.25C138.9375 634.25 141.416655 634.25 143.75 634.25C143.75 555.675 143.75 476.75 143.75 398.175C143.75 390.65 141.4166725 385.75 136.3125 385.75C133.5416725 385.75 130.916655 385.925 128.1458275 386.275ZM125.6666725 513.5C125.6666725 513.5 125.6666725 521.55 125.6666725 521.55C125.6666725 526.45 127.41665499999999 530.475 130.625 530.475C130.625 530.475 254.5833275 530.475 254.5833275 530.475C254.5833275 530.475 254.5833275 511.575 254.5833275 511.575C254.5833275 511.575 247.1458275 515.95 247.1458275 515.95C243.64584499999998 514.2 239.2708275 513.5 234.3125 513.5C234.3125 513.5 125.6666725 513.5 125.6666725 513.5ZM262.895845 633.725C262.020845 621.825 261.875 609.75 261.875 597.5C261.875 529.075 261.875 460.125 261.875 391.70000000000005C261.875 387.5 258.5208275 385.75 254.4375 385.75C252.10417249999998 385.75 249.625 385.75 247.29167249999998 385.75C247.29167249999998 464.32500000000005 247.29167249999998 543.25 247.29167249999998 621.825C247.29167249999998 630.4 250.0625 634.25 254.72917249999998 634.25C257.5 634.25 260.125 634.075 262.895845 633.725Z" fill="#1a1a1a"/><path d="M355.208345 624.625C355.208345 557.075 355.208345 489.35 355.208345 424.07500000000005C355.208345 416.025 354.625 408.675 353.1666725 402.375C353.1666725 402.375 356.2291725 395.375 356.2291725 395.375C356.2291725 395.375 340.625 395.375 340.625 395.375C340.625 462.05 340.625 528.9 340.625 593.125C340.625 602.225 341.2083275 610.45 342.6666725 617.625C342.6666725 617.625 340.0416725 624.625 340.0416725 624.625C340.0416725 624.625 355.208345 624.625 355.208345 624.625ZM398.9583275 632.5C398.9583275 629.7 398.9583275 627.075 398.9583275 624.45C398.9583275 618.675 397.0625 615.525 394.0 615.525C394.0 615.525 297.3125 615.525 297.3125 615.525C297.020845 618.5 296.875 621.3 296.875 624.625C296.875 629.0 298.7708275 632.5 302.125 632.5C302.125 632.5 398.9583275 632.5 398.9583275 632.5ZM297.3125 387.5C297.020845 390.475 296.875 393.275 296.875 396.6C296.875 400.975 298.7708275 404.475 302.125 404.475C302.125 404.475 398.6666725 404.475 398.6666725 404.475C398.8125 401.5 398.9583275 398.70000000000005 398.9583275 395.725C398.9583275 390.475 397.0625 387.5 394.0 387.5C394.0 387.5 297.3125 387.5 297.3125 387.5Z" fill="#1a1a1a"/><path d="M510.375 622.525C492.145845 622.525 481.0625 617.45 468.666655 607.825H466.041655C466.041655 610.8 466.041655 613.25 466.041655 616.225C466.041655 620.425 466.479155 623.575 467.9375 625.5C474.0625 633.375 488.0625 639.5 509.645845 639.5C551.9375 639.5 573.229155 605.2 573.229155 556.375C573.229155 500.64625 573.229155 443.22875 573.229155 387.5C573.229155 384.70000000000005 571.77081 383.3 568.125 383.3C566.666655 383.3 565.208345 383.3 563.75 383.3C560.10419 383.3 558.645845 384.70000000000005 558.645845 387.5C558.645845 387.5 558.645845 387.5 558.645845 387.5C558.645845 387.5 558.645845 387.5 558.645845 387.5C558.645845 441.55400000000003 558.645845 497.246 558.645845 551.3C558.645845 580.525 552.520845 598.55 542.604155 610.8C533.854155 619.025 523.5 622.525 510.375 622.525Z" fill="#1a1a1a"/><path d="M702.1458275 502.65C702.1458275 502.65 693.104155 521.375 693.104155 521.375C693.104155 521.375 699.375 521.375 699.375 521.375C707.833345 543.425 727.520845 579.65 747.7916725 613.425C757.7083275 629.7 765.1458275 636.0 777.6875 636.0C781.7708275 636.0 784.6875 635.125 787.0208275 633.725C789.0625 632.5 790.083345 630.225 790.083345 627.075C790.083345 624.1 789.9375 618.85 789.645845 615.0C789.645845 615.0 787.604155 615.0 787.604155 615.0C785.270845 617.45 782.208345 618.5 778.125 618.5C771.4166725 618.5 766.6041725 615.175 760.625 604.85C741.2291725 570.725 721.5416725 536.775 702.1458275 502.65ZM773.6041725 385.75C773.6041725 385.75 765.729155 385.75 765.729155 385.75C750.125 423.025 732.9166725 452.07500000000005 713.6666725 476.925C697.9166725 498.45000000000005 681.729155 519.1 668.458345 536.075C668.458345 536.075 660.291655 536.075 660.291655 536.075C660.291655 536.075 660.291655 560.925 660.291655 560.925C704.4791725 518.4 743.2708275 467.125 766.8958275 420.75C778.8541725 398.0 779.875 393.8 779.875 390.475C779.875 388.725 778.708345 385.75 773.6041725 385.75ZM650.2291725 386.275C651.1041725 398.175 651.25 410.07500000000005 651.25 422.32500000000005C651.25 490.75 651.25 559.875 651.25 628.3C651.25 632.675 654.4583275 634.25 658.6875 634.25C661.0208275 634.25 663.5 634.25 665.833345 634.25C665.833345 555.675 665.833345 476.75 665.833345 398.175C665.833345 391.525 664.666655 385.75 658.3958275 385.75C655.625 385.75 653.0 385.925 650.2291725 386.275Z" fill="#1a1a1a"/><path d="M834.5625 632.5C834.5625 632.5 941.4583275 632.5 941.4583275 632.5C941.4583275 624.1 938.6875 615.525 933.5833275 615.525C933.5833275 615.525 842.2916725 615.525 842.2916725 615.525C842.2916725 543.075 842.2916725 470.625 842.2916725 398.175C842.2916725 392.75 841.416655 385.75 835.1458275 385.75C832.083345 385.75 829.4583275 385.925 826.6875 386.275C827.5625 398.175 827.7083275 407.625 827.7083275 421.8C827.7083275 471.15 827.7083275 551.475 827.7083275 621.3C827.7083275 627.6 830.3333275 632.5 834.5625 632.5Z" fill="#1a1a1a"/><path d="M1014.229155 634.25C1014.229155 619.725 1014.229155 606.6 1014.229155 587.875C1014.229155 522.95 1017.5833275 464.15 1018.6041725 401.85C1018.6041725 401.85 1014.8125 411.65 1014.8125 411.65C1014.8125 411.65 1027.645845 411.65 1027.645845 411.65C1027.645845 411.65 1019.770845 401.675 1019.770845 401.675C1038.145845 479.025 1068.3333275 559.525 1084.2291725 588.75C1085.6875 591.375 1087.291655 591.9 1089.4791725 591.9C1091.958345 591.9 1094.5833275 591.9 1097.0625 591.9C1116.020845 551.825 1147.2291725 467.65 1161.375 398.70000000000005C1161.375 398.70000000000005 1154.2291725 413.05 1154.2291725 413.05C1154.2291725 413.05 1166.7708275 413.05 1166.7708275 413.05C1166.7708275 413.05 1161.520845 402.20000000000005 1161.520845 402.20000000000005C1164.875 469.57500000000005 1167.5 539.575 1167.5 592.075C1167.5 603.8 1167.5 613.6 1167.5 624.275C1167.5 631.1 1170.125 634.25 1175.2291725 634.25C1177.125 634.25 1180.041655 634.075 1183.6875 633.725C1182.6666725 621.65 1182.083345 610.45 1181.9375 597.15C1181.3541725 527.85 1179.020845 432.125 1175.6666725 400.1C1174.3541725 387.675 1173.0416725 385.75 1165.75 385.75C1161.8125 385.75 1153.6458275 385.925 1150.291655 386.1C1136.0 447.525 1111.9375 525.225 1086.4166725 582.625C1086.4166725 582.625 1099.833345 566.35 1099.833345 566.35C1099.833345 566.35 1082.916655 566.35 1082.916655 566.35C1082.916655 566.35 1096.4791725 583.15 1096.4791725 583.15C1072.854155 529.6 1047.625 456.1 1032.4583275 394.85C1031.2916725 388.55 1028.5208275 385.75 1019.770845 385.75C1016.2708275 385.75 1008.6875 385.925 1005.625 386.1C1005.9166725 393.975 1006.2083275 405.70000000000005 1005.0416725 420.925C1002.7083275 474.125 999.7916725 542.375 999.7916725 628.125C999.7916725 632.325 1003.0 634.25 1007.2291725 634.25C1009.5625 634.25 1011.8958275 634.25 1014.229155 634.25Z" fill="#1a1a1a"/><path d="M1243.041655 531.35C1243.041655 531.35 1230.208345 539.75 1230.208345 539.75C1242.75 563.375 1255.4375 587.175 1267.9791725 610.8C1277.75 628.475 1286.7916725 636.0 1298.604155 636.0C1303.270845 636.0 1306.333345 635.125 1308.9583275 633.725C1311.1458275 632.325 1312.3125 629.875 1312.3125 626.725C1312.3125 622.525 1312.020845 619.375 1311.583345 615.35C1311.583345 615.35 1309.25 615.35 1309.25 615.35C1307.3541725 617.8 1304.2916725 619.025 1300.645845 619.025C1293.3541725 619.025 1287.666655 615.0 1281.3958275 603.625C1268.2708275 579.125 1256.166655 555.85 1243.041655 531.35ZM1179.166655 387.5C1179.166655 390.125 1179.166655 392.925 1179.166655 395.55C1179.166655 401.15 1179.166655 404.475 1179.166655 404.475C1184.514795 404.475 1208.1875 400.975 1236.4791725 400.975C1255.3759 400.975 1266.9035175 405.1092158337725 1277.1666725 415.32500000000005C1283.57603 424.05900291877754 1286.791655 436.675 1286.791655 453.82500000000005C1286.791655 453.82500000000005 1286.791655 462.05 1286.791655 462.05C1286.791655 503.525 1262.2916725 529.425 1224.9583275 529.425C1212.125 529.425 1201.041655 529.075 1189.375 527.85C1189.375 527.85 1189.375 546.05 1189.375 546.05C1189.375 546.05 1193.6041725 543.25 1193.6041725 543.25C1203.9583275 545.175 1214.6041725 546.225 1227.2916725 546.225C1268.7083275 546.225 1301.6666725 512.975 1301.6666725 463.625C1301.6666725 463.625 1301.6666725 452.25 1301.6666725 452.25C1301.6666725 409.025 1278.625 384.0 1237.2083275 384.0C1213.875 384.0 1189.8125 384.70000000000005 1179.166655 387.5ZM1195.3541725 633.025C1193.8958275 623.05 1193.75 615.525 1193.75 601.0C1193.75 550.775 1193.75 499.32500000000005 1193.75 451.375C1193.75 433.175 1193.1666725 416.9 1191.7083275 400.975C1191.7083275 400.975 1195.6458275 393.975 1195.6458275 393.975C1195.6458275 393.975 1179.166655 393.975 1179.166655 393.975C1179.166655 470.45000000000005 1179.166655 547.1 1179.166655 623.575C1179.166655 630.225 1182.083345 633.725 1186.4583275 633.725C1189.5208275 633.725 1192.2916725 633.55 1195.3541725 633.025Z" fill="#1a1a1a"/><path d="M1417.458345 381.9C1379.25 381.9 1351.25 406.535087719305 1351.25 443.85V454.35C1351.25 485.85 1363.53045 502.23581424630504 1398.208345 514.55L1426.791655 524.7C1455.059545 534.73797702978 1463.541655 543.95 1463.541655 566.35V573.35C1463.541655 604.5 1443.24036 621.65 1412.208345 621.65C1385.375 621.65 1368.166655 615.7 1350.958345 597.5H1347.458345C1347.458345 602.05 1347.458345 606.489024390255 1347.458345 611.15C1347.458345 613.25 1347.75 614.65 1349.208345 616.4C1359.88478 629.21172119584 1383.598225 638.1 1412.208345 638.1C1454.208345 638.1 1478.416655 612.389759036145 1478.416655 574.4V563.2C1478.416655 531.7918032787 1464.432895 519.080363840555 1429.125 506.85L1400.833345 497.05C1373.41536 487.552634494855 1365.833345 474.3 1365.833345 452.25V445.6C1365.833345 416.9 1386.71536 398.35 1417.458345 398.35C1442.25 398.35 1459.458345 405.0 1469.083345 417.6L1469.360685 417.313735C1468.851435 416.49658999999997 1467.627625 415.21097000000003 1465.762195 413.51941999999997C1463.329625 411.48431000000005 1460.406355 409.16814999999997 1457.07103 406.633415C1453.405025 403.94251 1449.492445 401.15791 1445.420545 398.34209C1441.27966 395.55749000000003 1437.16317 392.866585 1433.167535 390.33185000000003C1429.392155 388.01569 1425.938915 385.98058000000003 1422.912045 384.28903C1420.417735 383.00341000000003 1418.56361 382.18626500000005 1417.458345 381.9Z" fill="#1a1a1a"/><line x1="20" y1="715.0" x2="1520.0" y2="715.0" stroke="#eee" stroke-width="0.5"/><text x="20" y="886.25" font-size="11" font-family="sans-serif" font-weight="bold" fill="#555">Casual</text><path d="M130.041655 717.55C131.791655 729.8 132.083345 742.05 132.083345 755.0C132.083345 823.25 132.083345 892.2 132.083345 960.45C132.083345 966.75 137.333345 968.5 143.75 968.5C144.625 968.5 145.791655 968.5 146.666655 968.5C146.666655 891.5 146.666655 814.5 146.666655 737.5C146.666655 724.55 143.458345 716.5 135.0 716.5C133.25 716.5 131.791655 716.85 130.041655 717.55ZM114.583345 860.0V863.5C114.583345 871.2 116.91665499999999 877.5 121.29165499999999 877.5H253.125V859.65L244.666655 864.9C240.58334499999998 861.4 235.041655 860.0 228.041655 860.0ZM262.458345 967.45C260.708345 955.2 260.416655 942.95 260.416655 930.0C260.416655 861.75 260.416655 792.8 260.416655 724.55C260.416655 718.25 255.166655 716.5 248.75 716.5C247.875 716.5 246.70834499999998 716.5 245.83334499999998 716.5C245.83334499999998 793.5 245.83334499999998 870.5 245.83334499999998 947.5C245.83334499999998 962.55 249.916655 968.5 257.5 968.5C259.25 968.5 260.708345 968.15 262.458345 967.45Z" fill="#1a1a1a"/><path d="M355.208345 956.25C355.208345 889.05 355.208345 821.5 355.208345 758.85C355.208345 750.45 354.041655 743.8 351.125 738.9L355.5 728.75H340.625C340.625 795.95 340.625 863.5 340.625 926.15C340.625 934.55 341.791655 941.2 344.708345 946.1L340.333345 956.25ZM400.416655 965.0C400.416655 963.95 400.416655 962.55 400.416655 961.5C400.416655 952.05 398.083345 947.5 393.708345 947.5H296.291655C295.708345 948.9 295.416655 951.0 295.416655 953.1C295.416655 959.75 298.041655 965.0 302.708345 965.0ZM296.291655 720.0C295.708345 721.4 295.416655 723.5 295.416655 725.6C295.416655 732.25 298.041655 737.5 302.708345 737.5H399.833345C400.125 736.1 400.416655 734.0 400.416655 732.6C400.416655 724.2 398.083345 720.0 393.708345 720.0Z" fill="#1a1a1a"/><path d="M509.791655 954.5C488.208345 954.5 479.75 950.3 466.333345 940.85H464.583345C464.583345 942.25 464.583345 943.3 464.583345 944.7C464.583345 951.35 465.166655 956.95 467.208345 959.75C472.75 967.45 483.833345 972.0 509.208345 972.0C552.375 972.0 571.041655 935.95 571.041655 896.4C571.041655 838.188 571.041655 778.212 571.041655 720.0C571.041655 717.2 569.58331 715.8 565.9375 715.8C564.479155 715.8 563.020845 715.8 561.5625 715.8C557.91669 715.8 556.458345 717.2 556.458345 720.0C556.458345 720.0 556.458345 720.0 556.458345 720.0C556.458345 720.0 556.458345 720.0 556.458345 720.0C556.458345 775.2090000000001 556.458345 832.091 556.458345 887.3C556.458345 915.65 550.625 933.5 540.416655 946.45C531.375 952.75 522.625 954.5 509.791655 954.5Z" fill="#1a1a1a"/><path d="M702.0 839.35 692.666655 856.5H697.041655C702.583345 871.2 727.083345 917.4 746.333345 947.5C757.416655 965.0 765.875 972.0 776.958345 972.0C782.791655 972.0 786.583345 970.25 788.916655 967.45C790.958345 965.0 791.833345 961.85 791.833345 958.0C791.833345 954.5 791.541655 950.65 790.958345 947.5H789.791655C786.583345 952.4 782.208345 954.5 776.666655 954.5C771.125 954.5 765.583345 950.3 759.166655 939.1C740.208345 905.85 720.958345 872.6 702.0 839.35ZM769.958345 716.5H767.041655C752.458345 765.15 734.375 797.35 712.5 821.15C698.5 836.2 683.916655 849.85 667.583345 859.65H659.416655V878.9C709.0 853.7 746.041655 813.8 767.625 760.95C778.708345 735.05 780.166655 728.05 780.166655 723.85C780.166655 721.4 778.708345 716.5 769.958345 716.5ZM649.208345 717.55C650.958345 729.8 651.25 742.05 651.25 755.0C651.25 823.25 651.25 892.2 651.25 960.45C651.25 966.75 656.5 968.5 662.916655 968.5C663.791655 968.5 664.958345 968.5 665.833345 968.5C665.833345 891.5 665.833345 814.5 665.833345 737.5C665.833345 726.65 664.666655 716.5 654.166655 716.5C652.416655 716.5 650.958345 716.85 649.208345 717.55Z" fill="#1a1a1a"/><path d="M839.666655 965.0H940.0C940.0 954.5 938.25 947.5 933.291655 947.5H843.75C843.75 877.5 843.75 807.5 843.75 737.5C843.75 728.75 843.166655 716.5 832.666655 716.5C830.333345 716.5 828.875 716.85 827.125 717.55C828.875 729.8 829.166655 736.8 829.166655 753.6C829.166655 818.7 829.166655 885.9 829.166655 946.45C829.166655 956.6 833.25 965.0 839.666655 965.0Z" fill="#1a1a1a"/><path d="M1012.916655 968.5C1012.916655 958.35 1012.916655 951.0 1012.916655 932.45C1012.916655 856.85 1019.625 792.8 1024.0 738.2L1020.5 747.3H1028.958345L1023.708345 737.5C1036.833345 827.1 1063.375 890.8 1085.25 922.65C1087.0 925.1 1089.041655 925.8 1092.25 925.8C1093.708345 925.8 1095.166655 925.8 1096.625 925.8C1115.583345 895.7 1148.833345 809.6 1154.666655 733.65L1150.875 750.1H1157.875L1153.208345 737.5C1161.666655 803.3 1167.5 889.75 1167.5 940.85C1167.5 946.8 1167.5 948.55 1167.5 952.4C1167.5 963.95 1171.583345 968.5 1179.75 968.5C1181.5 968.5 1183.541655 968.15 1185.291655 967.45C1183.25 955.2 1182.083345 944.7 1181.791655 930.0C1180.625 859.65 1175.958345 798.05 1169.25 741.35C1166.625 718.95 1165.458345 716.5 1152.625 716.5C1149.125 716.5 1146.5 716.85 1144.166655 717.2C1133.958345 790.35 1112.666655 865.95 1086.708345 914.25L1098.958345 903.4H1083.791655L1096.625 915.3C1073.291655 873.65 1045.291655 795.6 1036.541655 730.15C1035.375 721.05 1031.0 716.5 1015.833345 716.5C1013.5 716.5 1011.458345 716.85 1010.0 717.2C1010.583345 721.4 1011.166655 733.3 1008.833345 752.2C1004.166655 790.0 998.333345 857.2 998.333345 960.1C998.333345 966.4 1003.583345 968.5 1010.0 968.5C1010.875 968.5 1012.041655 968.5 1012.916655 968.5Z" fill="#1a1a1a"/><path d="M1236.041655 878.9 1223.208345 887.3C1236.625 907.25 1250.041655 927.55 1263.458345 947.5C1275.125 965.0 1284.458345 972.0 1295.541655 972.0C1301.958345 972.0 1305.458345 970.25 1307.791655 967.45C1310.125 964.65 1311.291655 961.15 1311.291655 957.3C1311.291655 953.45 1310.708345 950.65 1309.833345 947.15H1308.083345C1305.75 952.05 1301.375 954.5 1296.708345 954.5C1290.0 954.5 1283.291655 949.95 1276.0 939.1C1262.0 918.1 1250.041655 899.9 1236.041655 878.9ZM1179.166655 720.0C1179.166655 721.05 1179.166655 722.45 1179.166655 723.5C1179.166655 732.25 1179.166655 737.5 1179.166655 737.5C1180.333345 737.5 1201.333345 730.5 1231.083345 730.5C1253.25 730.5 1266.083345 734.0 1279.5 745.9C1285.333345 755.35 1288.541655 767.95 1288.541655 787.2V792.1C1288.541655 843.2 1253.833345 877.85 1208.041655 877.85C1200.166655 877.85 1195.791655 877.15 1190.25 874.7V891.5L1195.5 889.05C1199.291655 892.9 1203.375 895.0 1211.833345 895.0C1258.5 895.0 1303.125 853.0 1303.125 793.85V785.45C1303.125 739.25 1277.75 713.0 1231.666655 713.0C1213.0 713.0 1192.875 714.4 1179.166655 720.0ZM1196.958345 966.05C1194.041655 957.3 1193.75 953.8 1193.75 937.0C1193.75 876.1 1193.75 812.4 1193.75 756.05C1193.75 746.6 1192.583345 741.0 1189.666655 736.1L1194.041655 725.95H1179.166655C1179.166655 800.85 1179.166655 876.1 1179.166655 951.0C1179.166655 961.85 1183.833345 967.45 1190.541655 967.45C1192.875 967.45 1194.625 967.1 1196.958345 966.05Z" fill="#1a1a1a"/><path d="M1435.25 713.0C1394.125 713.0 1351.25 767.95 1351.25 811.7V815.2C1351.25 839.0 1364.958345 853.35 1404.041655 870.85L1429.125 882.05C1452.166655 892.2 1462.375 902.7 1465.0 917.05V918.1C1460.041655 939.8 1441.666655 951.7 1412.5 951.7C1382.75 951.7 1363.791655 940.85 1350.958345 919.5H1349.208345C1348.041655 923.35 1347.458345 927.2 1347.458345 932.45C1347.458345 938.05 1348.625 941.9 1352.416655 946.45C1364.375 960.8 1385.666655 969.2 1412.5 969.2C1451.291655 969.2 1477.833345 948.55 1477.833345 916.35V914.6C1477.833345 893.25 1462.666655 877.85 1432.333345 864.55L1407.541655 853.7C1371.083345 837.95 1365.833345 826.75 1365.833345 814.5V812.05C1365.833345 775.65 1403.166655 730.5 1435.25 730.5C1442.541655 730.5 1451.291655 731.55 1456.833345 738.2C1456.95 737.15 1456.95 736.1 1457.088915 735.1347350000001C1455.98127 729.8589400000001 1454.089345 724.023145 1450.02707 719.867385C1446.493575 716.41159 1442.10622 713.795795 1435.25 713.0Z" fill="#1a1a1a"/>
</svg>