<?xml version="1.0" encoding="UTF-8"?>
<svg xmlns="http://www.w3.org/2000/svg" width="1890.0" height="725.0"
     viewBox="0 0 1890.0 725.0">
<rect width="100%" height="100%" fill="white"/>
<text x="945.0" y="30" text-anchor="middle" font-size="14" font-family="sans-serif" font-weight="bold" fill="#333">Sans B Slanted — Key glyphs + features</text><text x="187.5" y="48" text-anchor="middle" font-size="10" font-family="sans-serif" fill="#999">J</text><text x="362.5" y="48" text-anchor="middle" font-size="10" font-family="sans-serif" fill="#999">S</text><text x="537.5" y="48" text-anchor="middle" font-size="10" font-family="sans-serif" fill="#999">L</text><text x="712.5" y="48" text-anchor="middle" font-size="10" font-family="sans-serif" fill="#999">Z</text><text x="887.5" y="48" text-anchor="middle" font-size="10" font-family="sans-serif" fill="#999">f</text><text x="1062.5" y="48" text-anchor="middle" font-size="10" font-family="sans-serif" fill="#999">i</text><text x="1237.5" y="48" text-anchor="middle" font-size="10" font-family="sans-serif" fill="#999">l</text><text x="1412.5" y="48" text-anchor="middle" font-size="10" font-family="sans-serif" fill="#999">r</text><text x="1587.5" y="48" text-anchor="middle" font-size="10" font-family="sans-serif" fill="#999">@</text><text x="1762.5" y="48" text-anchor="middle" font-size="10" font-family="sans-serif" fill="#999">fi</text><text x="20" y="221.25" font-size="11" font-family="sans-serif" font-weight="bold" fill="#555">Linear</text><path d="M144.333345 258.0C128.583345 258.0 121.0 255.55 109.333345 245.4H103.5C100.291655 259.75 97.666655 272.7 94.75 287.05C94.75 288.1 94.75 289.15 95.041655 289.85C99.708345 297.2 118.083345 307.0 140.25 307.0C184.875 307.0 208.791655 282.85 220.166655 228.60000000000002C231.541655 174.0 244.375 113.45000000000002 255.75 58.85000000000002C256.333345 56.75000000000003 255.166655 55.00000000000003 253.416655 55.00000000000003C216.666655 55.00000000000003 194.791655 55.00000000000003 158.041655 55.00000000000003C154.541655 70.4 151.916655 83.70000000000002 148.708345 99.10000000000002C148.125 101.55000000000001 149.583345 102.95000000000002 151.041655 102.95000000000002C172.041655 102.95000000000002 181.375 102.95000000000002 211.125 102.95000000000002L197.416655 94.20000000000002L209.375 110.65L205.0 93.85000000000002C194.791655 142.5 186.916655 180.65 178.75 219.15C175.833345 232.8 172.333345 241.9 167.083345 248.2C160.958345 255.55 153.666655 258.0 144.333345 258.0Z" fill="#1a1a1a"/><path d="M394.583345 48.00000000000003C354.625 48.00000000000003 323.97697 67.27551337610501 314.958345 108.9L311.166655 126.4C306.791655 148.8 310.583345 179.95 345.291655 193.60000000000002L370.083345 203.75C386.125 210.05 389.333345 215.65 387.0 226.85000000000002L384.375 239.1C382.333345 248.9 371.541655 258.0 348.5 258.0C322.25 258.0 306.791655 248.9 292.208345 235.25H286.375C284.333345 245.05 280.833345 260.1 277.041655 278.65C276.75 280.05 276.458345 281.1 277.333345 282.5C284.625 294.05 311.166655 307.0 344.708345 307.0C388.166655 307.0 416.166655 289.5 425.208345 246.45L428.708345 229.65C434.833345 200.60000000000002 426.083345 175.75 393.708345 162.8L369.208345 153.0C351.708345 146.35000000000002 351.125 139.35000000000002 354.041655 125.70000000000002L355.791655 117.65C359.411425 100.9990628909 370.666655 94.55000000000001 392.25 94.55000000000001C404.5 94.55000000000001 408.583345 96.30000000000001 417.916655 101.20000000000002L409.75 92.10000000000002C406.833345 106.10000000000002 405.083345 114.15 403.625 121.85000000000002C403.041655 124.30000000000001 403.916655 125.70000000000002 405.958345 125.70000000000002C418.5 125.70000000000002 431.625 125.70000000000002 444.166655 125.70000000000002C447.375 109.95000000000002 451.458345 90.35000000000002 454.375 76.70000000000002C454.958345 73.9 454.666655 72.15 453.208345 70.4C445.333345 60.95000000000002 427.833345 48.00000000000003 394.583345 48.00000000000003Z" fill="#1a1a1a"/><path d="M447.958345 300.0H578.625C581.833345 285.65 584.458345 273.05 587.666655 256.95C588.25 254.15 587.375 252.75 585.041655 252.75H501.333345C514.75 189.05 528.458345 122.55000000000001 541.875 58.85000000000002C542.458345 56.400000000000006 541.583345 55.00000000000003 539.541655 55.00000000000003C524.958345 55.00000000000003 510.666655 55.00000000000003 496.083345 55.00000000000003C494.041655 64.45000000000002 492.0 73.55000000000001 490.25 83.0C475.375 154.05 460.5 225.10000000000002 445.625 296.15C445.041655 298.6 445.916655 300.0 447.958345 300.0Z" fill="#1a1a1a"/><path d="M767.041655 300.0C770.25 284.6 773.458345 269.55 776.666655 254.15C777.25 251.7 776.375 250.3 774.333345 250.3H723.0C700.541655 250.3 688.875 250.3 674.291655 250.3L675.75 243.3C689.458345 235.95 697.625 230.0 713.375 212.85000000000002C743.708345 178.9 774.333345 145.3 804.958345 111.35000000000002L816.041655 58.85000000000002C816.625 56.400000000000006 815.75 55.00000000000003 813.708345 55.00000000000003H671.083345C668.75 65.15 664.666655 85.45000000000002 661.75 99.80000000000001C660.875 103.30000000000001 661.75 104.70000000000002 664.666655 104.70000000000002H709.291655C723.0 104.70000000000002 731.458345 104.70000000000002 762.375 104.70000000000002L760.916655 111.70000000000002C743.416655 120.80000000000001 738.458345 125.35000000000002 723.291655 142.15C692.666655 176.10000000000002 662.333345 210.05 631.708345 243.65L620.625 296.15C620.041655 298.6 620.916655 300.0 622.958345 300.0Z" fill="#1a1a1a"/><path d="M925.125 30.5C877.291655 30.5 863.0 64.45000000000002 855.416655 101.20000000000002C842.875 161.4 830.041655 221.95 817.208345 282.5H863.583345V272.7C866.208345 259.75 867.666655 252.4 870.291655 239.45C879.625 194.65 888.666655 150.20000000000002 898.0 105.4C900.333345 93.15 903.25 85.80000000000001 907.333345 81.25C910.833345 77.75 915.5 76.35000000000002 921.625 76.35000000000002C929.791655 76.35000000000002 936.5 77.75 942.333345 80.55000000000001H948.166655C950.791655 67.25000000000003 953.125 57.45000000000002 956.041655 43.10000000000002C956.333345 41.69999999999999 956.333345 41.0 955.75 40.30000000000001C953.416655 37.5 942.625 30.5 925.125 30.5ZM829.166655 121.5C826.25 135.85000000000002 823.625 147.75 820.708345 162.10000000000002C820.125 163.85000000000002 821.0 165.95000000000002 823.041655 165.95000000000002H916.083345C919.291655 151.25 921.625 139.70000000000002 924.541655 125.35000000000002C925.125 123.25 923.958345 121.5 922.208345 121.5ZM801.166655 255.55C798.25 269.9 795.625 281.8 792.708345 296.15C792.125 297.9 793.0 300.0 795.041655 300.0H888.083345C891.291655 285.65 893.625 273.75 896.541655 259.4C897.125 257.3 895.958345 255.55 894.208345 255.55Z" fill="#1a1a1a"/><path d="M1003.291655 111.0C1000.375 124.65 997.458345 139.0 994.541655 152.65C993.958345 155.45000000000002 995.125 156.5 997.166655 156.5C1000.50758 156.5 1003.99568 156.5 1007.375 156.5H1014.375C1008.541655 184.85000000000002 1002.416655 213.2 996.583345 241.55C989.875 274.1 998.625 300.0 1037.125 300.0C1040.017365 300.0 1043.833345 300.0 1045.291655 300.0C1047.916655 300.0 1048.5 299.65 1049.083345 297.2C1052.0 283.55 1055.208345 268.15 1058.125 254.5H1052.291655C1050.395845 254.5 1048.40277 254.5 1046.458345 254.5C1043.25 254.5 1041.208345 253.8 1040.041655 252.4C1038.875 251.0 1038.875 248.2 1039.75 244.0C1048.791655 200.95 1057.541655 157.9 1066.583345 114.85000000000002C1067.166655 112.05000000000001 1066.0 111.0 1064.25 111.0C1043.99424 111.0 1023.52239 111.0 1003.291655 111.0ZM1019.2225 46.25000000000003C1019.2225 67.73583500000001 1036.639165 85.1525 1058.125 85.1525C1079.610835 85.1525 1097.0275 67.73583500000001 1097.0275 46.25000000000003C1097.0275 24.76416499999999 1079.610835 7.347500000000025 1058.125 7.347500000000025C1036.639165 7.347500000000025 1019.2225 24.76416499999999 1019.2225 46.25000000000003Z" fill="#1a1a1a"/><path d="M1186.458345 37.5C1183.541655 51.150000000000006 1180.625 65.50000000000003 1177.708345 79.15C1177.125 81.95000000000002 1178.291655 83.0 1180.333345 83.0C1182.666655 83.0 1195.5 83.0 1199.0 83.0H1201.041655C1189.958345 135.5 1179.166655 188.35000000000002 1166.333345 249.6C1159.916655 281.1 1170.416655 300.0 1198.416655 300.0C1203.083345 300.0 1216.5 300.0 1218.25 300.0C1220.583345 300.0 1221.75 298.6 1222.333345 296.15C1225.25 282.5 1229.041655 263.95 1231.958345 250.3H1229.041655C1227.875 250.3 1220.875 250.3 1218.833345 250.3C1215.625 250.3 1213.583345 249.6 1212.416655 248.2C1210.958345 246.45 1211.25 244.0 1212.125 239.8C1226.416655 172.25 1238.958345 108.9 1253.25 41.35000000000002C1253.833345 38.55000000000001 1252.666655 37.5 1250.916655 37.5C1241.291655 37.5 1194.625 37.5 1186.458345 37.5Z" fill="#1a1a1a"/><path d="M1351.833345 111.0C1348.916655 125.0 1346.291655 138.65 1343.375 152.65C1342.791655 154.75 1343.958345 156.5 1345.708345 156.5C1348.37195 156.5 1350.803925 156.5 1353.583345 156.5H1356.791655C1348.625 194.65 1335.5 258.0 1327.625 296.15C1327.041655 298.6 1327.916655 300.0 1329.958345 300.0C1343.375 300.0 1357.083345 300.0 1370.5 300.0C1372.541655 289.85 1375.166655 278.3 1377.791655 265.7C1385.083345 229.65 1394.125 187.3 1399.958345 158.60000000000002C1400.25 158.25 1390.916655 111.0 1390.625 111.0C1390.625 111.0 1351.833345 111.0 1351.833345 111.0ZM1450.708345 107.5C1428.25 107.5 1414.25 118.70000000000002 1402.291655 142.85000000000002H1387.125L1382.75 198.15C1398.5 168.75 1411.916655 161.4 1419.5 161.4C1423.291655 161.4 1424.75 162.10000000000002 1425.916655 163.15C1425.216655 166.51000000000002 1424.374275 170.36363499556 1423.583345 174.35000000000002L1422.125 181.35000000000002C1432.041655 181.35000000000002 1442.541655 181.35000000000002 1452.458345 181.35000000000002C1454.5 181.35000000000002 1455.958345 179.95 1456.541655 177.5L1468.791655 118.0C1469.083345 116.60000000000002 1469.375 114.85000000000002 1467.916655 113.10000000000002C1465.291655 109.95000000000002 1458.583345 107.5 1450.708345 107.5Z" fill="#1a1a1a"/><path d="M1539.666655 164.9 1523.041655 244.0C1506.416655 322.75 1528.875 377.35 1618.416655 377.35C1656.333345 377.35 1689.0 372.45 1705.916655 367.2C1707.083345 366.85 1707.375 365.45 1707.375 364.4C1709.416655 355.3 1714.958345 329.05 1716.708345 319.95H1710.0C1685.791655 325.9 1662.458345 329.05 1632.416655 329.05C1599.458345 329.05 1581.666655 322.4 1572.041655 311.55C1562.416655 300.7 1557.166655 280.4 1566.5 235.95L1579.916655 171.9C1591.875 115.20000000000002 1623.375 80.9 1684.333345 80.9C1717.291655 80.9 1731.875 86.15 1741.5 95.25C1751.125 104.35000000000002 1751.416655 119.05000000000001 1746.75 141.8C1740.333345 172.25 1732.75 209.35000000000002 1721.958345 261.15C1721.666655 262.55 1738.291655 293.0 1741.5 293.0H1756.375C1760.166655 275.85 1763.666655 258.7 1767.166655 241.55C1776.208345 198.15 1785.25 154.4 1788.166655 140.05C1801.291655 77.05000000000001 1775.916655 34.0 1689.291655 34.0C1598.291655 34.0 1555.416655 88.95000000000002 1539.666655 164.9ZM1743.25 233.15C1721.083345 245.4 1706.791655 249.25 1696.291655 249.25C1680.25 249.25 1675.0 241.55 1679.375 220.55L1683.458345 200.60000000000002C1686.375 186.25 1689.291655 179.25 1693.083345 175.05C1697.166655 170.5 1702.125 167.70000000000002 1714.958345 167.70000000000002C1727.5 167.70000000000002 1738.583345 170.5 1752.0 175.05L1760.75 134.10000000000002H1744.416655C1733.916655 127.80000000000001 1725.166655 125.0 1708.833345 125.0C1671.5 125.0 1652.833345 148.10000000000002 1643.5 193.25L1636.208345 228.25C1627.458345 270.6 1639.416655 296.5 1667.416655 296.5C1687.541655 296.5 1706.208345 290.2 1722.833345 271.3H1735.375Z" fill="#1a1a1a"/><path d="M1658.083345 323.45C1654.875 337.8 1651.958345 351.45 1649.041655 365.8C1648.75 367.9 1649.625 369.65 1651.375 369.65C1652.48863 369.65 1657.89774 369.65 1668.875 369.65C1698.916655 369.65 1717.875 353.9 1724.583345 321.35C1743.386745 230.01915442553502 1752.583345 186.95 1771.25 97.0C1773.583345 86.15 1775.625 80.20000000000002 1778.541655 76.70000000000002C1781.166655 73.55000000000001 1782.916655 72.50000000000003 1785.833345 72.50000000000003C1788.75 72.50000000000003 1791.666655 72.85000000000002 1793.708345 73.9C1791.666655 83.0 1789.916655 91.4 1787.875 100.85000000000002L1787.291655 104.0C1799.541655 104.0 1808.583345 104.0 1820.833345 104.0C1823.166655 104.0 1824.041655 102.60000000000002 1824.625 100.15L1835.708345 47.30000000000001C1836.0 45.900000000000006 1836.0 44.150000000000006 1835.125 43.10000000000002C1832.658585 40.14031977551997 1816.49478 30.5 1794.291655 30.5C1750.527795 30.5 1734.484425 59.97480228084001 1727.208345 94.9C1710.291655 174.35000000000002 1697.458345 236.65 1680.541655 317.15C1679.958345 319.25 1679.375 320.65 1678.791655 321.35C1677.333345 323.1 1675.291655 323.45 1672.375 323.45C1668.73472 323.45 1666.486285 323.45 1663.916655 323.45ZM1693.083345 160.0C1690.166655 174.35000000000002 1687.833345 186.25 1684.625 200.60000000000002C1684.333345 202.35000000000002 1684.916655 204.45 1686.958345 204.45H1782.916655C1786.125 190.10000000000002 1788.458345 178.2 1791.375 163.85000000000002C1791.958345 161.75 1790.791655 160.0 1789.041655 160.0ZM1819.95831 111.0C1817.041655 124.65 1814.125 139.0 1811.20831 152.65C1810.625 155.45000000000002 1811.791655 156.5 1813.83331 156.5C1817.174235 156.5 1820.662335 156.5 1824.041655 156.5H1831.041655C1825.20831 184.85000000000002 1819.08331 213.2 1813.25 241.55C1806.541655 274.1 1815.291655 300.0 1853.791655 300.0C1856.68402 300.0 1860.5 300.0 1861.95831 300.0C1864.58331 300.0 1865.166655 299.65 1865.75 297.2C1868.666655 283.55 1871.875 268.15 1874.791655 254.5H1868.95831C1867.0625 254.5 1865.069425 254.5 1863.125 254.5C1859.916655 254.5 1857.875 253.8 1856.70831 252.4C1855.541655 251.0 1855.541655 248.2 1856.416655 244.0C1865.45831 200.95 1874.20831 157.9 1883.25 114.85000000000002C1883.83331 112.05000000000001 1882.666655 111.0 1880.916655 111.0C1860.660895 111.0 1840.189045 111.0 1819.95831 111.0ZM1835.889155 46.25000000000003C1835.889155 67.73583500000001 1853.30582 85.1525 1874.791655 85.1525C1896.27749 85.1525 1913.694155 67.73583500000001 1913.694155 46.25000000000003C1913.694155 24.76416499999999 1896.27749 7.347500000000025 1874.791655 7.347500000000025C1853.30582 7.347500000000025 1835.889155 24.76416499999999 1835.889155 46.25000000000003Z" fill="#1a1a1a"/><line x1="20" y1="382.5" x2="1870.0" y2="382.5" stroke="#eee" stroke-width="0.5"/><text x="20" y="553.75" font-size="11" font-family="sans-serif" font-weight="bold" fill="#555">Casual</text><path d="M148.125 589.1C135.291655 589.1 123.04165499999999 584.2 110.5 569.85H108.75C105.833345 575.45 103.208345 580.7 100.875 591.9C97.375 608.0 100.0 618.5 105.833345 625.5C113.708345 634.95 126.25 639.5 148.416655 639.5C190.125 639.5 212.291655 616.75 227.166655 567.75C242.041655 518.75 239.70834499999998 473.95000000000005 258.958345 417.6C266.541655 395.20000000000005 253.70834499999998 384.0 227.75 384.0C206.166655 384.0 178.458345 385.4 154.541655 387.5C152.208345 392.75 149.583345 401.15 148.125 410.6C144.916655 431.95000000000005 149.875 443.5 165.625 443.5C181.375 443.5 198.0 438.6 217.541655 426.70000000000005L201.791655 427.05L216.666655 436.85L214.041655 421.8C196.541655 477.1 195.083345 518.05 185.166655 555.5C182.25 567.4 179.041655 576.15 174.375 583.85C166.5 587.7 159.5 589.1 148.125 589.1Z" fill="#1a1a1a"/><path d="M404.5 380.5C366.291655 380.5 321.083345 418.3 311.458345 464.85L310.291655 470.45000000000005C305.916655 491.1 307.083345 519.1 347.916655 539.05L372.125 550.95C383.791655 556.9 389.916655 564.95 387.875 577.2L387.291655 580.7C378.25 585.95 366.583345 588.75 355.208345 588.75C321.375 588.75 302.416655 577.9 290.166655 557.95H288.416655C285.5 563.2 282.583345 570.55 281.125 579.3C277.625 597.15 280.25 610.8 286.666655 618.5C295.416655 629.0 313.5 639.5 348.5 639.5C391.666655 639.5 416.75 626.55 424.916655 587.7L426.083345 582.1C429.583345 564.95 429.583345 534.15 394.291655 517.35L369.208345 505.45C353.75 497.75 349.375 488.3 351.708345 476.75L352.291655 473.95000000000005C356.958345 451.55 382.333345 429.85 401.0 429.85C409.458345 429.85 413.25 431.6 417.625 437.20000000000005L426.083345 417.25C412.666655 428.8 402.458345 444.55 399.25 458.55C395.458345 474.65 402.458345 485.5 423.166655 485.5C429.0 485.5 435.125 484.1 440.666655 481.3C440.666655 467.65 442.125 457.5 446.791655 437.9C450.0 423.9 448.541655 408.5 438.916655 396.95000000000005C430.458345 386.8 421.416655 380.5 404.5 380.5Z" fill="#1a1a1a"/><path d="M506.291655 632.5H578.916655C581.25 626.9 583.291655 620.95 585.041655 613.6C589.416655 591.55 582.708345 581.75 569.0 581.75H503.375C508.333345 535.55 533.125 487.6 540.125 434.05C543.625 406.4 538.666655 384.0 519.708345 384.0C510.958345 384.0 503.375 385.4 496.083345 387.5C498.125 399.05 499.0 413.05 496.666655 427.05C488.208345 478.15 471.291655 517.7 461.666655 567.4C455.541655 599.25 476.833345 632.5 506.291655 632.5Z" fill="#1a1a1a"/><path d="M764.708345 632.5C765.875 629.7 767.041655 626.2 767.916655 621.65C772.875 597.5 763.833345 580.0 743.416655 580.0H732.916655C718.916655 580.0 699.958345 581.05 684.5 582.8L684.791655 580.7C699.958345 568.45 708.125 561.45 723.583345 546.4C764.125 507.9 800.291655 465.20000000000005 804.666655 445.25L805.541655 442.1C813.708345 413.05 801.458345 387.5 786.583345 387.5H679.833345C678.083345 392.4 675.75 399.75 674.291655 406.75C669.916655 427.75 675.75 438.25 695.875 438.25H704.333345C723.291655 438.25 743.125 436.85 760.333345 434.05L760.041655 436.15C750.416655 451.55 742.541655 462.75 730.0 479.20000000000005C700.833345 518.05 670.5 549.2 629.958345 583.5L629.083345 588.75C623.25 616.05 631.125 632.5 657.083345 632.5Z" fill="#1a1a1a"/><path d="M929.791655 363.0C891.583345 363.0 860.666655 394.15 849.0 443.85C835.583345 501.6 838.5 528.9 817.791655 590.5H861.541655L859.208345 580.35C865.333345 573.7 868.833345 566.35 871.75 554.45C877.875 529.25 879.041655 504.4 889.25 454.0C893.041655 434.75 895.958345 424.95000000000005 900.625 415.15C902.958345 413.4 907.916655 412.35 913.75 412.35C922.791655 412.35 931.541655 414.1 940.291655 418.3H942.041655C945.541655 412.35 948.166655 407.8 949.916655 400.1C952.541655 384.70000000000005 952.25 374.90000000000003 948.166655 369.3C944.666655 364.75 938.833345 363.0 929.791655 363.0ZM828.291655 454.0C827.708345 456.1 827.416655 458.20000000000005 826.833345 460.65C820.56152 488.360044924975 827.351205 503.0 860.666655 503.0H912.583345C914.916655 497.4 917.25 490.05 918.708345 482.70000000000005C922.208345 464.5 916.083345 454.0 898.0 454.0ZM801.166655 581.75C800.875 583.85 800.583345 585.95 800.0 588.4C793.583345 617.1 802.333345 632.5 821.875 632.5H885.458345C888.083345 627.6 889.541655 623.05 890.708345 617.45C894.986465 596.914970544535 886.137835 581.75 863.875 581.75Z" fill="#1a1a1a"/><path d="M1005.333345 443.5C1001.833345 451.20000000000005 1000.083345 457.15 998.625 463.8C993.666655 489.0 998.041655 499.15 1004.75 499.15C1009.708345 499.15 1012.916655 498.1 1016.125 494.6L1017.583345 495.65C1011.75 524.0 999.208345 550.25 996.0 583.15C992.208345 619.55 1011.458345 636.0 1028.375 636.0C1039.166655 636.0 1046.458345 633.9 1051.708345 627.6C1056.083345 622.35 1059.0 615.7 1060.458345 606.95C1062.5 595.4 1062.791655 585.25 1061.625 577.2H1059.875C1055.208345 582.1 1052.291655 583.5 1046.75 583.5C1044.125 583.5 1041.208345 582.8 1039.166655 581.4C1039.166655 576.85 1039.458345 572.3 1041.791655 561.8C1047.916655 534.5 1058.708345 515.6 1063.666655 481.65C1066.875 460.65 1052.0 440.0 1036.833345 440.0C1026.916655 440.0 1014.958345 441.4 1005.333345 443.5ZM1020.0975 390.82500000000005C1020.0975 412.310835 1037.51413 429.72749999999996 1059.0 429.72749999999996C1080.485835 429.72749999999996 1097.9025 412.310835 1097.9025 390.82500000000005C1097.9025 369.33916500000004 1080.485835 351.9225 1059.0 351.9225C1037.51413 351.9225 1020.0975 369.33916500000004 1020.0975 390.82500000000005Z" fill="#1a1a1a"/><path d="M1183.833345 370.0C1180.333345 377.70000000000005 1178.583345 383.65 1177.125 390.3C1171.875 416.20000000000005 1176.25 425.65 1187.916655 425.65C1193.458345 425.65 1199.583345 423.55 1203.666655 419.70000000000005L1205.125 420.75C1194.041655 467.65 1168.958345 510.35 1161.958345 569.15C1157.0 605.55 1175.083345 636.0 1201.041655 636.0C1213.583345 636.0 1222.916655 632.15 1228.166655 625.85C1232.833345 620.25 1235.75 614.65 1237.791655 604.85C1240.416655 591.2 1240.416655 579.65 1239.833345 572.3H1238.083345C1229.041655 582.45 1221.166655 587.0 1211.541655 587.0C1208.916655 587.0 1206.291655 586.65 1203.666655 585.6C1203.958345 580.35 1204.833345 574.75 1206.0 568.8C1217.375 510.7 1243.333345 471.85 1252.083345 413.05C1255.583345 388.9 1237.791655 366.15000000000003 1215.625 366.15000000000003C1205.125 366.15000000000003 1194.333345 367.90000000000003 1183.833345 370.0Z" fill="#1a1a1a"/><path d="M1348.041655 443.5C1344.25 452.6 1342.5 458.55 1341.041655 465.20000000000005C1335.791655 490.4 1340.166655 501.25 1346.0 501.25C1350.666655 501.25 1354.166655 499.5 1357.083345 496.70000000000005L1358.833345 497.4C1353.583345 529.6 1341.625 557.25 1336.375 582.45C1329.666655 614.65 1342.791655 635.3 1366.125 635.3C1372.25 635.3 1378.083345 634.25 1382.75 632.5C1380.125 623.4 1379.833345 612.55 1381.583345 598.2C1386.541655 556.55 1395.0 540.45 1405.208345 497.75C1411.041655 473.6 1402.0 440.0 1373.416655 440.0C1365.25 440.0 1355.333345 441.05 1348.041655 443.5ZM1448.666655 436.5C1436.504785 436.5 1420.94382 450.18971764244003 1408.416655 484.45000000000005L1401.708345 481.3L1382.458345 569.5C1399.70407 517.762762459445 1414.9742899999999 499.15 1425.333345 499.15C1426.5 499.15 1427.083345 499.5 1427.666655 500.20000000000005C1427.083345 503.70000000000005 1426.5 506.15 1424.458345 510.7V512.45C1425.916655 513.15 1427.666655 513.5 1432.333345 513.5C1448.674845 513.5 1460.06234 501.850828715865 1464.125 482.35L1465.0 478.15C1468.51953 461.25633789986 1467.299045 448.70884077098003 1461.5 441.75C1458.583345 438.25 1454.791655 436.5 1448.666655 436.5Z" fill="#1a1a1a"/><path d="M1531.791655 528.2 1530.916655 532.75C1513.125 624.8 1538.208345 678.0 1647.583345 678.0C1678.208345 678.0 1700.375 673.8 1712.333345 664.35C1721.083345 657.35 1724.875 648.95 1726.916655 636.0C1728.083345 628.3 1728.083345 623.75 1728.083345 618.85H1726.333345C1693.375 628.65 1670.916655 632.5 1640.0 632.5C1608.208345 632.5 1587.5 630.4 1571.166655 623.4C1563.875 599.6 1564.458345 574.75 1569.416655 544.65L1570.0 541.15C1581.958345 469.05 1633.0 415.5 1695.708345 415.5C1710.583345 415.5 1723.416655 417.6 1734.791655 422.15C1737.416655 443.15 1736.25 461.35 1732.75 483.75C1727.791655 514.55 1719.333345 541.85 1716.125 574.75C1713.5 601.7 1724.0 610.1 1756.958345 610.1H1761.333345C1760.75 597.15 1760.458345 585.6 1763.083345 570.9C1768.916655 539.05 1778.25 512.45 1782.916655 482.0C1793.708345 411.65 1763.375 363.0 1698.041655 363.0C1617.833345 363.0 1551.041655 427.75 1531.791655 528.2ZM1739.458345 511.75C1710.0 540.1 1689.0 548.5 1673.25 548.5C1656.625 548.5 1654.0 538.7 1656.041655 524.35L1656.625 520.5C1658.083345 511.05 1660.416655 504.75 1664.5 496.0C1673.833345 493.20000000000005 1682.583345 491.1 1698.625 491.1C1712.916655 491.1 1722.833345 493.55 1733.333345 496.70000000000005L1747.625 461.70000000000005H1732.166655C1724.875 452.6 1713.5 447.70000000000005 1698.625 447.70000000000005C1651.375 447.70000000000005 1613.166655 486.55 1605.875 525.75L1605.291655 528.9C1595.666655 581.4 1618.125 604.5 1643.5 604.5C1666.833345 604.5 1694.541655 593.65 1714.958345 562.85H1734.5Z" fill="#1a1a1a"/><path d="M1642.916655 644.05C1640.583345 648.95 1638.833345 653.5 1637.375 660.85C1633.996275 678.419300658805 1635.25484 689.45579146803 1642.041655 697.6C1645.966275 702.30951415053 1653.601385 705.65 1665.958345 705.65C1690.474025 705.65 1714.730145 686.90291199665 1728.083345 645.45C1749.051705 580.53918424854 1745.898975 526.57430366319 1763.958345 447.35C1767.75 431.25 1771.833345 420.75 1777.666655 413.75C1782.729335 407.674794013955 1788.166655 406.4 1795.75 406.4C1797.791655 406.4 1799.541655 406.75 1800.416655 407.1C1798.53768 420.879243433305 1794.60907 429.829114142525 1787.291655 444.55V446.65C1789.916655 447.70000000000005 1793.125 448.4 1796.041655 448.4C1814.00719 448.4 1830.37137 436.91745264403505 1834.25 418.3L1834.833345 415.5C1837.66866 401.89036120823 1836.762755 388.765326928705 1827.25 377.35C1818.600835 366.97101381054 1810.12604 363.0 1794.875 363.0C1763.441045 363.0 1733.994285 385.67284071955 1720.5 439.65C1700.954145 517.12261007262 1708.90149 562.726233540645 1686.958345 630.75C1684.333345 639.15 1681.416655 647.55 1678.5 654.9C1676.75 655.25 1674.416655 655.6 1671.208345 655.6C1660.416655 655.6 1651.958345 653.15 1644.666655 644.05ZM1690.166655 498.8C1689.291655 500.9 1688.708345 503.0 1688.125 505.45C1682.708295 529.05540169953 1692.213455 549.55 1715.541655 549.55H1783.791655C1785.833345 545.0 1787.291655 540.45 1788.166655 534.85C1791.666655 512.1 1785.833345 498.8 1752.875 498.8ZM1822.0 443.5C1818.5 451.20000000000005 1816.75 457.15 1815.291655 463.8C1810.33331 489.0 1814.70831 499.15 1821.416655 499.15C1826.375 499.15 1829.58331 498.1 1832.791655 494.6L1834.25 495.65C1828.416655 524.0 1815.875 550.25 1812.666655 583.15C1808.875 619.55 1828.125 636.0 1845.041655 636.0C1855.83331 636.0 1863.125 633.9 1868.375 627.6C1872.75 622.35 1875.666655 615.7 1877.125 606.95C1879.166655 595.4 1879.45831 585.25 1878.291655 577.2H1876.541655C1871.875 582.1 1868.95831 583.5 1863.416655 583.5C1860.791655 583.5 1857.875 582.8 1855.83331 581.4C1855.83331 576.85 1856.125 572.3 1858.45831 561.8C1864.58331 534.5 1875.375 515.6 1880.33331 481.65C1883.541655 460.65 1868.666655 440.0 1853.5 440.0C1843.58331 440.0 1831.625 441.4 1822.0 443.5ZM1836.764155 390.82500000000005C1836.764155 412.310835 1854.180785 429.72749999999996 1875.666655 429.72749999999996C1897.15249 429.72749999999996 1914.569155 412.310835 1914.569155 390.82500000000005C1914.569155 369.33916500000004 1897.15249 351.9225 1875.666655 351.9225C1854.180785 351.9225 1836.764155 369.33916500000004 1836.764155 390.82500000000005Z" fill="#1a1a1a"/>
</svg>