<?xml version="1.0" encoding="UTF-8"?>
<svg xmlns="http://www.w3.org/2000/svg" width="1890.0" height="725.0"
     viewBox="0 0 1890.0 725.0">
<rect width="100%" height="100%" fill="white"/>
<text x="945.0" y="30" text-anchor="middle" font-size="14" font-family="sans-serif" font-weight="bold" fill="#333">Mono A Slanted — Key glyphs + features</text><text x="187.5" y="48" text-anchor="middle" font-size="10" font-family="sans-serif" fill="#999">J</text><text x="362.5" y="48" text-anchor="middle" font-size="10" font-family="sans-serif" fill="#999">S</text><text x="537.5" y="48" text-anchor="middle" font-size="10" font-family="sans-serif" fill="#999">L</text><text x="712.5" y="48" text-anchor="middle" font-size="10" font-family="sans-serif" fill="#999">Z</text><text x="887.5" y="48" text-anchor="middle" font-size="10" font-family="sans-serif" fill="#999">f</text><text x="1062.5" y="48" text-anchor="middle" font-size="10" font-family="sans-serif" fill="#999">i</text><text x="1237.5" y="48" text-anchor="middle" font-size="10" font-family="sans-serif" fill="#999">l</text><text x="1412.5" y="48" text-anchor="middle" font-size="10" font-family="sans-serif" fill="#999">r</text><text x="1587.5" y="48" text-anchor="middle" font-size="10" font-family="sans-serif" fill="#999">@</text><text x="1762.5" y="48" text-anchor="middle" font-size="10" font-family="sans-serif" fill="#999">fi</text><text x="20" y="221.25" font-size="11" font-family="sans-serif" font-weight="bold" fill="#555">Linear</text><path d="M161.833345 290.55C144.041655 290.55 133.25 286.0 121.583345 274.8H118.083345C117.208345 278.65 116.625 282.15 115.75 286.0C115.16665499999999 288.8 115.16665499999999 289.85 116.04165499999999 291.25C121.0 298.95 137.041655 307.0 160.375 307.0C202.958345 307.0 226.583345 286.0 238.25 227.9C249.916655 171.55 261.875 115.20000000000002 273.541655 58.85000000000002C274.125 56.400000000000006 273.541655 55.00000000000003 271.208345 55.00000000000003C238.25 55.00000000000003 205.291655 55.00000000000003 172.333345 55.00000000000003C171.458345 59.20000000000002 170.875 62.70000000000002 170.0 66.9C169.416655 68.65 170.0 70.75000000000003 172.333345 70.75000000000003C200.333345 70.75000000000003 228.041655 70.75000000000003 264.791655 70.75000000000003L254.291655 67.25000000000003L258.958345 72.50000000000003L258.083345 60.60000000000002C246.416655 116.60000000000002 234.45834499999998 172.95 222.791655 228.95C219.0 247.85 212.875 261.85 204.416655 272.0C194.208345 284.6 180.208345 290.55 161.833345 290.55Z" fill="#1a1a1a"/><path d="M395.75 49.400000000000006C357.541655 49.400000000000006 331.875 67.25000000000003 324.583345 102.95000000000002L321.958345 116.25C316.125 143.9 324.291655 165.60000000000002 357.541655 178.2L384.083345 188.35000000000002C408.583345 197.8 414.125 209.7 408.583345 236.65L406.25 248.2C400.125 278.65 377.666655 289.85 349.666655 289.85C320.791655 289.85 304.458345 282.85 290.166655 262.2H286.666655C285.791655 265.35 285.208345 268.15 283.75 273.75C283.458345 275.15 283.458345 276.9 284.333345 278.3C293.375 292.65 313.791655 306.3 347.625 305.6C388.75 304.9 412.375 288.1 419.375 254.15L422.875 237.35C429.0 207.95 422.291655 186.60000000000002 391.666655 174.35000000000002L364.541655 164.20000000000002C335.958345 153.70000000000002 330.416655 140.05 335.375 117.30000000000001L338.291655 103.65C343.833345 77.75 364.541655 65.15 394.583345 65.15C419.375 65.15 437.75 72.15 444.75 85.10000000000002L440.666655 67.60000000000002C437.458345 83.0 434.25 98.05000000000001 431.041655 113.45000000000002C430.458345 116.25 431.333345 117.30000000000001 433.375 117.30000000000001C436.875 117.30000000000001 440.958345 117.30000000000001 444.458345 117.30000000000001C447.375 102.95000000000002 450.291655 88.95000000000002 453.208345 74.60000000000002C453.5 73.20000000000002 453.208345 72.15 451.75 70.05000000000001C444.458345 58.85000000000002 424.041655 49.400000000000006 395.75 49.400000000000006Z" fill="#1a1a1a"/><path d="M463.708345 300.0H577.458345C577.75 296.85 578.041655 294.05 578.333345 290.2C578.625 286.35 577.458345 284.95 574.833345 284.95H478.291655C494.041655 210.05 509.5 133.75 525.25 58.85000000000002C525.833345 57.10000000000002 525.25 55.00000000000003 522.916655 55.00000000000003C519.125 55.00000000000003 515.333345 55.00000000000003 511.541655 55.00000000000003C509.208345 66.55000000000001 506.583345 78.10000000000002 504.25 89.65C489.666655 158.25 475.666655 227.55 461.375 296.15C460.791655 298.6 461.666655 300.0 463.708345 300.0Z" fill="#1a1a1a"/><path d="M763.25 300.0C764.125 295.8 764.708345 293.0 765.875 288.1C766.458345 286.0 765.583345 284.25 763.25 284.25H688.875C673.125 284.25 659.125 284.25 643.958345 284.25V280.05C661.166655 261.85 679.833345 240.15 695.583345 219.85000000000002C751.0 149.15 796.208345 92.10000000000002 809.916655 74.25000000000003L813.416655 58.85000000000002C814.0 56.400000000000006 812.833345 55.00000000000003 811.083345 55.00000000000003H680.125C679.541655 58.50000000000003 678.666655 62.35000000000002 677.791655 66.20000000000002C676.916655 69.70000000000002 677.5 70.75000000000003 679.833345 70.75000000000003H739.625C763.25 70.75000000000003 774.041655 70.75000000000003 793.875 70.75000000000003V73.9C778.708345 90.70000000000002 767.333345 104.70000000000002 743.416655 135.15C685.666655 208.65 655.333345 245.4 627.041655 281.45L624.125 296.15C623.833345 298.25 624.708345 300.0 626.458345 300.0Z" fill="#1a1a1a"/><path d="M952.25 34.0C917.25 34.0 896.833345 53.25000000000003 886.333345 102.95000000000002C872.916655 167.35 859.208345 232.10000000000002 845.791655 296.5H862.416655L861.541655 292.65C862.416655 288.1 863.291655 283.9 864.166655 279.35C876.416655 220.9 888.666655 161.75 900.916655 103.30000000000001C904.708345 85.45000000000002 909.666655 72.50000000000003 916.958345 63.75000000000003C924.833345 54.30000000000001 935.333345 49.75000000000003 949.625 49.75000000000003C965.958345 49.75000000000003 978.5 54.30000000000001 986.958345 61.650000000000006H990.458345C991.333345 57.45000000000002 991.916655 55.00000000000003 992.791655 50.80000000000001C993.083345 49.400000000000006 993.083345 48.35000000000002 992.208345 47.30000000000001C989.875 44.150000000000006 974.708345 34.0 952.25 34.0ZM845.791655 115.9C844.625 120.10000000000002 844.041655 123.25 843.166655 127.45000000000002C842.583345 130.25 844.041655 131.3 845.791655 131.3H962.166655C963.041655 127.10000000000002 963.625 123.95000000000002 964.5 119.75C965.083345 116.95000000000002 963.916655 115.9 962.166655 115.9ZM810.5 284.25C809.625 288.45 808.75 291.95 807.875 295.8C807.291655 298.6 808.458345 300.0 810.791655 300.0H918.416655C919.291655 295.8 920.166655 292.3 921.041655 288.1C921.625 286.0 920.458345 284.25 918.708345 284.25Z" fill="#1a1a1a"/><path d="M1017.583345 115.9C1016.708345 119.75 1015.833345 123.95000000000002 1014.958345 127.80000000000001C1014.375 130.25 1015.541655 131.65 1017.291655 131.65C1034.208345 131.65 1051.416655 131.65 1068.625 131.65H1072.708345C1063.666655 173.65 1055.791655 212.5 1046.75 256.95C1042.083345 279.7 1047.041655 300.0 1077.375 300.0C1085.833345 300.0 1102.458345 300.0 1104.208345 300.0C1105.666655 300.0 1107.708345 299.65 1108.291655 296.15C1109.166655 291.6 1109.75 288.45 1110.625 284.25H1107.125C1097.791655 284.25 1088.75 284.25 1079.416655 284.25C1069.791655 284.25 1065.416655 282.85 1062.5 279.35C1058.708345 274.8 1058.416655 269.55 1061.041655 257.3C1070.958345 209.7 1080.0 165.60000000000002 1089.625 119.75C1090.208345 116.95000000000002 1089.041655 115.9 1087.291655 115.9C1063.958345 115.9 1040.916655 115.9 1017.583345 115.9ZM1077.84169 49.400000000000006C1077.84169 59.45186000000001 1085.98983 67.60000000000002 1096.04169 67.60000000000002C1106.09355 67.60000000000002 1114.24169 59.45186000000001 1114.24169 49.400000000000006C1114.24169 39.34814 1106.09355 31.200000000000045 1096.04169 31.200000000000045C1085.98983 31.200000000000045 1077.84169 39.34814 1077.84169 49.400000000000006Z" fill="#1a1a1a"/><path d="M1209.5 37.5C1208.625 41.35000000000002 1207.75 45.55000000000001 1206.875 49.400000000000006C1206.291655 51.85000000000002 1207.458345 53.25000000000003 1209.208345 53.25000000000003C1226.125 53.25000000000003 1243.625 53.25000000000003 1260.541655 53.25000000000003H1264.625C1250.041655 121.5 1236.333345 184.5 1221.75 256.95C1217.083345 279.7 1222.041655 300.0 1252.375 300.0C1260.833345 300.0 1277.458345 300.0 1279.208345 300.0C1280.666655 300.0 1282.708345 299.65 1283.291655 296.15C1284.166655 291.6 1284.75 288.45 1285.625 284.25H1282.125C1272.791655 284.25 1263.75 284.25 1254.416655 284.25C1244.791655 284.25 1240.416655 282.85 1237.5 279.35C1233.708345 274.8 1233.416655 269.55 1236.041655 257.3C1251.5 182.4 1266.375 113.45000000000002 1281.541655 41.35000000000002C1282.125 38.55000000000001 1280.958345 37.5 1279.208345 37.5C1255.875 37.5 1232.833345 37.5 1209.5 37.5Z" fill="#1a1a1a"/><path d="M1364.375 115.9C1363.5 120.10000000000002 1362.625 123.95000000000002 1361.75 128.15C1361.458345 130.60000000000002 1362.333345 132.0 1364.375 132.0C1374.0 132.0 1383.625 132.0 1393.25 132.0H1397.625C1386.25 186.60000000000002 1374.583345 241.55 1363.208345 296.15C1362.625 298.6 1363.5 300.0 1365.541655 300.0C1369.333345 300.0 1373.125 300.0 1376.916655 300.0C1379.541655 288.1 1381.875 276.2 1384.5 264.65C1392.375 226.5 1400.25 189.05 1408.125 150.55C1408.416655 150.20000000000002 1412.5 115.9 1412.208345 115.9C1396.458345 115.9 1380.125 115.9 1364.375 115.9ZM1470.833345 114.15C1451.291655 114.15 1432.041655 123.25 1412.208345 147.75H1404.916655L1399.375 173.65C1431.166655 137.95000000000002 1450.416655 130.25 1467.625 130.25C1472.875 130.25 1476.666655 130.95000000000002 1480.458345 132.35000000000002C1477.833345 146.0 1475.5 156.85000000000002 1472.875 169.1L1472.0 173.3C1475.791655 173.3 1479.583345 173.3 1483.375 173.3C1485.416655 173.3 1486.875 171.9 1487.458345 169.45000000000002L1496.5 125.70000000000002C1496.791655 124.30000000000001 1496.791655 122.9 1495.625 121.5C1493.291655 118.70000000000002 1484.541655 114.15 1470.833345 114.15Z" fill="#1a1a1a"/><path d="M1540.541655 125.70000000000002 1507.875 281.8C1497.666655 331.15 1517.791655 362.65 1557.458345 362.65C1584.291655 362.65 1601.208345 352.15 1604.125 349.35C1605.875 347.6 1606.458345 346.9 1606.75 344.45C1607.625 340.95 1608.208345 337.45 1609.083345 333.95H1605.583345C1590.416655 342.35 1576.708345 346.2 1560.083345 346.2C1543.166655 346.2 1531.5 342.0 1525.375 332.2C1518.083345 320.3 1518.083345 303.15 1522.458345 281.45L1554.833345 126.05000000000001C1563.291655 85.80000000000001 1582.541655 61.30000000000001 1614.333345 61.30000000000001C1632.416655 61.30000000000001 1643.791655 66.20000000000002 1650.5 76.70000000000002C1657.791655 88.25 1657.791655 103.65 1653.125 125.35000000000002C1644.083345 168.4 1629.5 239.1 1620.458345 282.15C1619.875 284.25 1621.041655 286.0 1622.791655 286.0H1634.166655C1634.75 283.55 1635.333345 280.75 1635.916655 278.3C1644.375 236.65 1658.958345 167.35 1667.708345 125.70000000000002C1677.916655 76.35000000000002 1659.833345 44.85000000000002 1617.25 44.85000000000002C1575.25 44.85000000000002 1550.75 76.35000000000002 1540.541655 125.70000000000002ZM1639.708345 224.4C1616.083345 266.05 1602.083345 272.7 1587.791655 272.7C1572.916655 272.7 1568.541655 261.15 1572.916655 239.8L1579.916655 206.9C1583.416655 190.45 1590.125 179.25 1595.958345 173.65C1602.375 167.35 1612.291655 162.45000000000002 1627.166655 162.45000000000002C1634.166655 162.45000000000002 1648.166655 162.45000000000002 1652.541655 162.45000000000002L1655.75 146.0H1651.083345C1646.416655 146.0 1635.625 146.0 1630.375 146.0C1595.083345 146.0 1573.5 168.05 1565.333345 206.55L1558.333345 240.15C1551.625 271.65 1560.958345 289.5 1584.875 289.5C1598.291655 289.5 1609.083345 283.2 1619.291655 270.95H1630.375Z" fill="#1a1a1a"/><path d="M1659.833345 349.7C1658.958345 353.9 1658.083345 358.1 1657.208345 362.3C1656.625 364.75 1657.5 366.15 1659.541655 366.15C1661.583345 366.15 1678.5 366.15 1690.166655 366.15C1717.583345 366.15 1729.541655 352.15 1735.375 323.45C1750.25 251.0 1768.333345 165.95000000000002 1781.458345 103.30000000000001C1784.958345 86.15 1789.916655 73.20000000000002 1797.5 64.10000000000002C1805.375 54.650000000000006 1816.75 49.400000000000006 1831.625 49.400000000000006C1842.125 49.400000000000006 1850.875 51.150000000000006 1859.041655 54.650000000000006C1857.0 64.45000000000002 1855.833345 70.75000000000003 1852.625 85.45000000000002L1852.041655 88.25C1855.833345 88.25 1859.333345 88.25 1863.125 88.25C1864.583345 88.25 1865.75 87.20000000000002 1866.041655 85.45000000000002L1873.916655 48.35000000000002C1874.208345 46.95000000000002 1874.208345 46.25000000000003 1873.625 45.55000000000001C1870.416655 41.69999999999999 1853.5 34.0 1834.25 34.0C1798.666655 34.0 1777.083345 53.95000000000002 1766.291655 105.4C1753.458345 167.0 1735.958345 249.95 1721.375 320.3C1719.041655 331.85 1716.125 338.85 1711.458345 343.4C1706.5 347.95 1699.791655 349.7 1690.458345 349.7C1681.125 349.7 1672.666655 349.7 1663.333345 349.7ZM1709.125 169.8C1708.25 174.0 1707.375 176.8 1706.791655 181.0C1706.208345 183.10000000000002 1707.375 184.85000000000002 1709.125 184.85000000000002H1825.5C1826.375 180.65 1826.958345 177.85000000000002 1827.833345 173.65C1828.416655 171.20000000000002 1827.25 169.8 1825.5 169.8ZM1892.583345 115.9C1891.708345 119.75 1890.833345 123.95000000000002 1889.958345 127.80000000000001C1889.375 130.25 1890.541655 131.65 1892.291655 131.65C1909.208345 131.65 1926.416655 131.65 1943.625 131.65H1947.708345C1938.666655 173.65 1930.791655 212.5 1921.75 256.95C1917.083345 279.7 1922.041655 300.0 1952.375 300.0C1960.833345 300.0 1977.458345 300.0 1979.208345 300.0C1980.666655 300.0 1982.708345 299.65 1983.291655 296.15C1984.166655 291.6 1984.75 288.45 1985.625 284.25H1982.125C1972.791655 284.25 1963.75 284.25 1954.416655 284.25C1944.791655 284.25 1940.416655 282.85 1937.5 279.35C1933.708345 274.8 1933.416655 269.55 1936.041655 257.3C1945.958345 209.7 1955.0 165.60000000000002 1964.625 119.75C1965.208345 116.95000000000002 1964.041655 115.9 1962.291655 115.9C1938.958345 115.9 1915.916655 115.9 1892.583345 115.9ZM1952.84169 49.400000000000006C1952.84169 59.45186000000001 1960.98983 67.60000000000002 1971.04169 67.60000000000002C1981.09355 67.60000000000002 1989.24169 59.45186000000001 1989.24169 49.400000000000006C1989.24169 39.34814 1981.09355 31.200000000000045 1971.04169 31.200000000000045C1960.98983 31.200000000000045 1952.84169 39.34814 1952.84169 49.400000000000006Z" fill="#1a1a1a"/><line x1="20" y1="382.5" x2="1870.0" y2="382.5" stroke="#eee" stroke-width="0.5"/><text x="20" y="553.75" font-size="11" font-family="sans-serif" font-weight="bold" fill="#555">Casual</text><path d="M164.458345 622.7C142.0 622.7 130.916655 618.5 118.375 604.5H117.208345C116.04165499999999 606.25 115.16665499999999 608.0 114.583345 610.45C113.416655 615.7 114.875 621.3 117.79165499999999 624.8C125.375 633.9 141.708345 639.5 163.875 639.5C204.708345 639.5 220.75 623.4 238.541655 567.4C255.45834499999998 514.55 256.041655 455.4 274.708345 394.85C276.458345 388.9 272.375 384.0 264.208345 384.0C233.58334499999998 384.0 214.041655 384.70000000000005 176.416655 387.5C175.541655 389.25 174.958345 391.35 174.666655 393.8C174.083345 399.75 175.833345 405.35 181.666655 405.35C199.75 405.35 214.333345 400.1 268.0 399.4L256.041655 395.20000000000005L261.583345 405.70000000000005L261.0 393.8C240.291655 463.8 240.291655 510.0 223.958345 563.9C216.083345 589.8 212.875 597.15 202.083345 613.6C190.416655 619.9 178.166655 622.7 164.458345 622.7Z" fill="#1a1a1a"/><path d="M415.583345 380.5C373.291655 380.5 324.875 423.55 315.25 469.75L314.083345 475.35C308.833345 501.25 319.333345 519.8 354.625 536.95L377.375 548.15C397.5 558.3 406.25 569.5 403.916655 585.25L403.625 586.65C396.625 607.3 375.041655 620.25 348.208345 620.25C315.833345 620.25 300.958345 611.15 290.166655 590.5H289.0C286.666655 593.65 285.5 596.45 284.625 601.0C283.75 606.25 284.625 611.15 288.125 615.7C297.166655 627.25 314.375 636.7 347.625 636.7C381.166655 636.7 409.166655 620.95 415.583345 589.45L416.166655 587.0C420.833345 565.65 410.041655 547.45 382.625 534.15L360.166655 523.3C328.083345 507.9 325.166655 492.15 327.791655 478.85L328.666655 474.3C336.25 435.1 382.041655 397.3 413.833345 397.3C424.041655 397.3 429.291655 399.05 438.041655 406.05L432.791655 399.05C437.75 419.35 427.833345 433.0 422.291655 457.5C419.666655 469.05 422.291655 477.8 429.583345 477.8C431.333345 477.8 432.5 477.45000000000005 433.666655 476.75C435.708345 457.85 440.375 448.75 445.625 427.05C448.833345 413.4 447.375 399.4 440.083345 390.65C434.833345 384.35 426.958345 380.5 415.583345 380.5Z" fill="#1a1a1a"/><path d="M480.041655 632.5H578.625C579.791655 630.4 580.375 628.3 580.666655 626.55C581.833345 619.2 579.5 615.7 575.416655 615.7H478.875C480.625 551.3 511.541655 484.1 522.041655 421.1C526.708345 393.1 525.541655 384.0 517.375 384.0C515.041655 384.0 513.583345 384.35 511.541655 385.05C511.541655 398.70000000000005 511.541655 404.65 507.75 425.3C496.666655 484.1 473.625 532.4 466.625 591.2C463.416655 617.45 466.333345 632.5 480.041655 632.5Z" fill="#1a1a1a"/><path d="M765.0 632.5C765.583345 630.75 766.166655 628.65 766.458345 626.9C767.625 621.3 765.583345 615.7 757.708345 615.7H695.583345C680.125 615.7 665.833345 616.4 648.916655 617.1V614.65C668.458345 599.6 689.458345 581.4 706.958345 563.2C781.82373 484.743777778455 809.333345 421.45000000000005 813.125 403.95000000000005L813.416655 402.55C814.875 395.20000000000005 807.291655 387.5 795.916655 387.5H680.125C679.541655 388.55 678.958345 390.3 678.375 392.4C676.916655 399.05 676.916655 404.3 682.166655 404.3H740.5C758.583345 404.3 774.916655 404.65 795.625 403.6L796.5 405.35C788.916655 424.25 778.416655 445.25 766.458345 463.8C732.333345 518.4 682.458345 569.85 627.041655 615.0L626.166655 618.5C624.416655 625.5 626.75 632.5 636.375 632.5Z" fill="#1a1a1a"/><path d="M951.958345 366.5C908.791655 366.5 892.458345 384.70000000000005 879.625 440.35C862.416655 515.95 865.916655 536.6 839.958345 619.9H855.416655L853.375 613.6C856.583345 610.1 859.208345 605.2 860.958345 598.55C876.708345 540.1 877.875 511.05 891.583345 450.5C898.0 421.8 902.666655 405.70000000000005 910.833345 394.85C921.916655 386.8 933.583345 383.3 949.916655 383.3C965.375 383.3 977.625 388.55 988.708345 395.55H990.458345C991.333345 393.8 991.916655 391.70000000000005 992.208345 389.95000000000005C993.375 382.95000000000005 993.083345 380.5 990.458345 377.35C986.958345 373.15000000000003 971.5 366.5 951.958345 366.5ZM841.125 448.4C840.833345 449.45000000000005 840.541655 450.85 840.25 452.25C838.5 459.95000000000005 840.541655 465.20000000000005 844.916655 465.20000000000005H961.291655C961.583345 463.8 961.875 462.4 962.166655 461.0C963.625 453.65 962.166655 448.4 956.916655 448.4ZM802.625 615.7C801.75 617.1 801.166655 618.85 800.583345 621.3C799.125 627.25 801.166655 632.5 806.708345 632.5H923.666655C923.958345 631.8 924.25 630.4 924.25 629.7C925.708345 622.0 897.708345 615.7 863.0 615.7Z" fill="#1a1a1a"/><path d="M1011.166655 459.25C1010.0 461.35 1009.416655 462.75 1008.833345 465.55C1007.666655 471.85 1009.416655 476.75 1013.791655 476.75C1025.458345 476.75 1046.458345 462.75 1072.416655 458.9L1074.166655 460.65C1067.53426 502.52064822857 1046.458345 530.3 1038.583345 578.6C1032.166655 618.15 1050.541655 638.1 1074.458345 638.1C1093.708345 638.1 1108.291655 631.45 1117.333345 620.6C1122.0 615.0 1124.916655 609.05 1126.083345 601.7C1126.68804 598.07185149994 1126.692835 593.504067865715 1126.083345 588.75H1124.333345C1110.041655 612.55 1094.875 622.35 1075.625 622.35C1064.69317 622.35 1058.26297 617.907324093765 1052.875 609.4C1051.156185 598.743410608405 1051.166195 589.874591809355 1053.166655 576.5C1059.03409 540.2394305129 1084.058985 497.973160825475 1088.166655 460.3C1089.041655 451.9 1082.916655 444.9 1076.208345 444.9C1058.125 444.9 1035.666655 449.1 1011.166655 459.25ZM1074.925 384.0C1074.925 394.05186000000003 1083.07314 402.20000000000005 1093.125 402.20000000000005C1103.17686 402.20000000000005 1111.325 394.05186000000003 1111.325 384.0C1111.325 373.94814 1103.17686 365.8 1093.125 365.8C1083.07314 365.8 1074.925 373.94814 1074.925 384.0Z" fill="#1a1a1a"/><path d="M1194.041655 380.85C1192.583345 382.95000000000005 1192.0 384.35 1191.416655 387.15C1190.25 393.45000000000005 1192.0 398.35 1196.375 398.35C1208.205735 398.35 1223.216325 384.56427930867005 1265.208345 378.75L1266.666655 379.8C1259.095175 447.244383504855 1217.375 504.05 1206.0 571.25C1198.416655 616.05 1217.958345 638.1 1247.708345 638.1C1267.25 638.1 1281.25 631.1 1290.583345 619.9C1295.25 614.3 1298.166655 608.35 1299.333345 601.0C1299.916655 597.5 1299.916655 593.3 1299.333345 588.75H1297.583345C1283.291655 612.55 1268.125 622.35 1248.875 622.35C1234.875 622.35 1225.541655 618.15 1219.708345 608.7C1217.666655 595.4 1217.375 585.6 1220.583345 568.45C1230.5 514.9 1275.421065 439.94893249575 1280.083345 385.75C1280.958345 373.5 1275.125 366.5 1266.083345 366.5C1239.910905 366.5 1214.721895 372.360228182515 1194.041655 380.85Z" fill="#1a1a1a"/><path d="M1352.708345 455.4C1351.541655 457.15 1350.666655 459.25 1350.083345 461.70000000000005C1348.625 468.70000000000005 1350.666655 472.20000000000005 1354.75 472.20000000000005C1361.75 472.20000000000005 1368.75 464.5 1391.791655 458.20000000000005L1393.25 459.95000000000005C1386.25 514.55 1368.458345 559.7 1362.333345 608.35C1360.0 628.65 1364.375 634.6 1371.958345 634.6C1374.0 634.6 1375.75 634.25 1377.5 633.2C1376.333345 622.35 1376.041655 613.95 1378.375 596.1C1382.166655 568.1 1391.791655 540.1 1397.333345 512.1C1408.708345 453.3 1409.291655 444.9 1399.666655 444.9C1384.208345 444.9 1371.958345 448.05 1352.708345 455.4ZM1466.75 443.5C1447.208345 443.5 1419.5 473.6 1399.666655 511.05L1392.375 507.55L1381.875 564.95C1411.333345 499.5 1446.625 461.70000000000005 1465.291655 461.70000000000005C1472.0 461.70000000000005 1477.25 464.5 1481.041655 471.5C1479.0 487.6 1475.208345 498.8 1467.041655 512.45V514.55C1469.083345 515.25 1470.833345 515.6 1472.583345 515.6C1481.625 515.6 1487.75 506.5 1491.541655 490.05L1492.708345 485.15C1495.041655 474.65 1492.416655 460.65 1485.125 451.9C1480.75 446.65 1475.208345 443.5 1466.75 443.5Z" fill="#1a1a1a"/><path d="M1518.083345 536.25 1517.5 539.4C1500.583345 630.4 1515.458345 695.5 1575.833345 695.5C1588.666655 695.5 1604.125 692.0 1610.541655 687.45C1616.083345 683.6 1617.833345 676.6 1617.833345 670.65C1617.833345 669.95 1617.833345 668.9 1617.833345 668.2H1616.083345C1601.5 675.2 1587.208345 678.0 1574.958345 678.0C1565.333345 678.0 1558.625 677.65 1548.416655 674.15C1528.291655 657.7 1519.541655 605.9 1531.791655 541.85L1532.666655 537.3C1549.0 451.9 1592.458345 394.5 1632.416655 394.5C1640.291655 394.5 1646.708345 395.20000000000005 1652.25 398.35C1659.25 410.6 1660.125 427.05 1655.166655 463.1C1649.625 504.05 1633.291655 564.95 1630.375 600.65C1629.208345 614.65 1632.708345 620.6 1644.083345 620.6H1645.833345C1644.375 612.2 1644.375 606.95 1645.833345 590.15C1648.75 557.95 1664.5 495.65 1669.75 462.4C1679.083345 402.55 1666.25 377.0 1631.541655 377.0C1584.291655 377.0 1534.416655 447.70000000000005 1518.083345 536.25ZM1640.583345 571.25C1622.5 597.15 1609.375 605.55 1596.541655 605.55C1580.791655 605.55 1575.25 579.65 1582.833345 542.9L1583.125 541.5C1588.083345 517.7 1594.5 502.3 1605.875 488.65C1610.833345 486.55 1616.083345 485.85 1623.375 485.85C1634.166655 485.85 1644.666655 492.5 1650.791655 502.3L1655.458345 482.0H1649.916655C1644.375 475.0 1635.041655 469.4 1624.833345 469.4C1600.625 469.4 1577.875 493.55 1568.541655 538.35L1567.666655 542.55C1558.041655 588.4 1567.958345 623.05 1592.166655 623.05C1607.916655 623.05 1617.541655 617.45 1628.041655 602.4H1635.041655Z" fill="#1a1a1a"/><path d="M1653.125 665.05C1650.791655 668.2 1649.625 670.3 1648.75 674.5C1647.875 678.7 1649.333345 685.0 1653.416655 689.9C1658.666655 696.2 1666.833345 700.05 1679.083345 700.05C1710.291655 700.05 1730.708345 678.7 1739.75 639.15C1752.291655 583.85 1753.458345 517.0 1768.041655 450.85C1773.875 424.25 1782.041655 407.8 1790.5 397.65C1799.25 387.15 1809.75 383.3 1823.166655 383.3C1835.708345 383.3 1845.625 388.20000000000005 1852.041655 396.95000000000005C1849.125 420.75 1840.958345 435.1 1827.541655 443.85V445.95000000000005C1829.583345 447.70000000000005 1831.625 448.4 1833.666655 448.4C1845.041655 448.4 1856.416655 437.55 1861.083345 419.0L1862.25 414.45000000000005C1865.458345 402.20000000000005 1864.291655 389.6 1856.416655 380.15C1849.416655 371.75 1836.583345 366.5 1823.75 366.5C1788.75 366.5 1767.458345 389.95000000000005 1755.208345 442.1C1738.291655 514.2 1738.875 575.8 1726.041655 629.35C1721.083345 650.35 1717.291655 660.85 1711.166655 671.7C1701.833345 681.15 1690.458345 683.25 1679.958345 683.25C1664.791655 683.25 1658.666655 678.0 1654.875 665.05ZM1697.166655 515.6C1696.875 516.65 1696.583345 518.05 1696.291655 519.45C1694.541655 527.15 1698.625 532.4 1706.208345 532.4H1829.0C1829.291655 531.0 1829.583345 529.6 1829.875 528.2C1831.333345 520.85 1827.25 515.6 1819.666655 515.6ZM1886.166655 459.25C1885.0 461.35 1884.416655 462.75 1883.833345 465.55C1882.666655 471.85 1884.416655 476.75 1888.791655 476.75C1900.458345 476.75 1921.458345 462.75 1947.416655 458.9L1949.166655 460.65C1942.53426 502.52064822857 1921.458345 530.3 1913.583345 578.6C1907.166655 618.15 1925.541655 638.1 1949.458345 638.1C1968.708345 638.1 1983.291655 631.45 1992.333345 620.6C1997.0 615.0 1999.916655 609.05 2001.083345 601.7C2001.68804 598.07185149994 2001.692835 593.504067865715 2001.083345 588.75H1999.333345C1985.041655 612.55 1969.875 622.35 1950.625 622.35C1939.69317 622.35 1933.26297 617.907324093765 1927.875 609.4C1926.156185 598.743410608405 1926.166195 589.874591809355 1928.166655 576.5C1934.03409 540.2394305129 1959.058985 497.973160825475 1963.166655 460.3C1964.041655 451.9 1957.916655 444.9 1951.208345 444.9C1933.125 444.9 1910.666655 449.1 1886.166655 459.25ZM1949.925 384.0C1949.925 394.05186000000003 1958.07314 402.20000000000005 1968.125 402.20000000000005C1978.17686 402.20000000000005 1986.325 394.05186000000003 1986.325 384.0C1986.325 373.94814 1978.17686 365.8 1968.125 365.8C1958.07314 365.8 1949.925 373.94814 1949.925 384.0Z" fill="#1a1a1a"/>
</svg>