<?xml version="1.0" encoding="UTF-8"?>
<svg xmlns="http://www.w3.org/2000/svg" width="1540.0" height="1057.5"
     viewBox="0 0 1540.0 1057.5">
<rect width="100%" height="100%" fill="white"/>
<text x="770.0" y="30" text-anchor="middle" font-size="14" font-family="sans-serif" font-weight="bold" fill="#333">Sans A Slanted — Key glyphs close-up</text><text x="187.5" y="48" text-anchor="middle" font-size="10" font-family="sans-serif" fill="#999">H</text><text x="362.5" y="48" text-anchor="middle" font-size="10" font-family="sans-serif" fill="#999">I</text><text x="537.5" y="48" text-anchor="middle" font-size="10" font-family="sans-serif" fill="#999">J</text><text x="712.5" y="48" text-anchor="middle" font-size="10" font-family="sans-serif" fill="#999">K</text><text x="887.5" y="48" text-anchor="middle" font-size="10" font-family="sans-serif" fill="#999">L</text><text x="1062.5" y="48" text-anchor="middle" font-size="10" font-family="sans-serif" fill="#999">M</text><text x="1237.5" y="48" text-anchor="middle" font-size="10" font-family="sans-serif" fill="#999">R</text><text x="1412.5" y="48" text-anchor="middle" font-size="10" font-family="sans-serif" fill="#999">S</text><text x="20" y="221.25" font-size="11" font-family="sans-serif" font-weight="bold" fill="#555">Linear</text><path d="M158.041655 55.00000000000003C155.708345 66.55000000000001 153.375 78.10000000000002 150.75 89.65C136.458345 158.25 122.16665499999999 227.55 107.875 296.15C107.291655 298.25 108.458345 300.0 110.208345 300.0C114.0 300.0 117.79165499999999 300.0 121.583345 300.0C138.208345 219.85000000000002 155.125 139.0 171.75 58.85000000000002C172.333345 57.10000000000002 171.458345 55.00000000000003 169.416655 55.00000000000003C165.625 55.00000000000003 161.833345 55.00000000000003 158.041655 55.00000000000003ZM144.916655 167.0 142.583345 178.9C142.0 180.65 142.583345 182.75 144.916655 182.75H258.666655L262.166655 165.25L258.083345 167.0C255.75 167.0 253.70834499999998 167.0 251.375 167.0ZM244.08334499999998 300.0C246.416655 288.45 249.041655 276.55 251.375 265.0C265.666655 196.4 279.958345 127.45000000000002 294.25 58.85000000000002C294.833345 56.75000000000003 293.666655 55.00000000000003 291.916655 55.00000000000003C288.125 55.00000000000003 284.333345 55.00000000000003 280.541655 55.00000000000003C263.916655 135.15 247.0 216.0 230.375 296.15C229.791655 297.9 230.666655 300.0 232.70834499999998 300.0C236.5 300.0 240.291655 300.0 244.08334499999998 300.0Z" fill="#1a1a1a"/><path d="M337.416655 293.0C352.291655 221.95 367.166655 150.20000000000002 382.041655 79.15C382.916655 74.60000000000002 383.791655 70.4 384.666655 65.85000000000002L386.708345 62.00000000000003H370.958345C356.666655 130.60000000000002 342.375 199.9 328.083345 268.5C326.625 275.5 325.166655 282.15 323.708345 289.15L321.666655 293.0ZM378.25 300.0C379.125 295.8 380.0 291.95 380.875 288.1C381.166655 286.0 380.0 284.25 378.25 284.25H282.291655C281.416655 288.45 280.833345 291.95 279.958345 296.15C279.375 297.9 279.958345 300.0 282.291655 300.0ZM330.125 55.00000000000003C329.25 59.20000000000002 328.666655 62.70000000000002 327.791655 66.9C327.208345 68.65 327.791655 70.75000000000003 330.125 70.75000000000003H426.083345C426.958345 66.55000000000001 427.541655 63.05000000000001 428.416655 58.85000000000002C429.0 56.75000000000003 427.833345 55.00000000000003 426.083345 55.00000000000003Z" fill="#1a1a1a"/><path d="M497.25 290.55C479.458345 290.55 468.666655 286.0 457.0 274.8H453.5C452.625 278.65 452.041655 281.1 451.166655 284.95C450.583345 287.75 450.583345 288.8 451.458345 290.2C456.416655 297.9 472.458345 307.0 495.791655 307.0C534.291655 307.0 560.25 280.75 571.041655 227.9C582.953135 170.84300000000002 595.225605 112.05700000000002 607.137085 55.00000000000003C607.137085 52.20000000000002 605.6282699999999 50.80000000000001 601.85625 50.80000000000001C600.347435 50.80000000000001 598.83862 50.80000000000001 597.329805 50.80000000000001C593.5577499999999 50.80000000000001 592.048935 52.20000000000002 592.048935 55.00000000000003C592.048935 55.00000000000003 592.048935 55.00000000000003 592.048935 55.00000000000003C592.048935 55.00000000000003 592.048935 55.00000000000003 592.048935 55.00000000000003C580.015305 112.40350000000001 567.616975 171.5465 555.583345 228.95C551.791655 247.85 545.375 261.15 536.916655 271.3C526.708345 283.9 513.583345 290.55 497.25 290.55Z" fill="#1a1a1a"/><path d="M708.125 165.95000000000002 697.625 188.0H704.625C711.041655 217.4 723.0 248.55 734.375 279.7C740.5 296.15 746.916655 300.0 760.041655 300.0C762.083345 300.0 763.833345 300.0 765.875 300.0C767.916655 300.0 769.083345 299.65 769.666655 297.2C770.25 294.4 771.708345 288.1 772.583345 283.9H769.666655C768.208345 283.9 766.166655 283.9 761.208345 283.9C753.041655 283.9 749.541655 280.4 746.041655 270.6C733.5 235.60000000000002 720.666655 200.95 708.125 165.95000000000002ZM809.625 55.00000000000003H796.208345C777.541655 77.05000000000001 758.875 99.45000000000002 719.791655 145.3C704.625 163.5 686.25 185.2 669.041655 209.7H657.958345L653.875 242.95C705.5 183.10000000000002 759.166655 120.45000000000002 793.291655 80.55000000000001C810.208345 60.95000000000002 811.666655 59.55000000000001 811.666655 57.10000000000002C811.666655 55.70000000000002 811.083345 55.00000000000003 809.625 55.00000000000003ZM683.041655 55.00000000000003C680.708345 66.55000000000001 678.375 78.10000000000002 675.75 89.65C661.458345 158.25 647.166655 227.55 632.875 296.15C632.291655 298.25 633.458345 300.0 635.208345 300.0C639.0 300.0 642.791655 300.0 646.583345 300.0C663.208345 219.85000000000002 680.125 139.0 696.75 58.85000000000002C697.333345 55.35000000000002 696.166655 55.00000000000003 694.416655 55.00000000000003C690.625 55.00000000000003 686.833345 55.00000000000003 683.041655 55.00000000000003Z" fill="#1a1a1a"/><path d="M810.208345 300.0H923.083345C924.541655 293.7 922.5 284.25 917.25 284.25H824.791655C840.541655 209.35000000000002 856.0 133.75 871.75 58.85000000000002C872.333345 57.10000000000002 871.75 55.00000000000003 869.416655 55.00000000000003C865.625 55.00000000000003 861.833345 55.00000000000003 858.041655 55.00000000000003C855.708345 66.55000000000001 853.375 78.10000000000002 850.75 89.65C836.458345 158.25 822.166655 227.55 807.875 296.15C807.291655 298.6 808.166655 300.0 810.208345 300.0Z" fill="#1a1a1a"/><path d="M996.875 300.0C1002.125 274.45 1007.083345 248.9 1012.625 223.0C1025.166655 164.20000000000002 1031.875 130.60000000000002 1039.75 80.9L1033.041655 87.55000000000001H1046.458345L1043.541655 80.55000000000001C1053.166655 141.10000000000002 1065.125 217.4 1071.25 253.1C1072.125 257.65 1073.0 258.0 1075.625 258.0C1079.125 258.0 1085.541655 258.0 1089.041655 258.0C1118.5 207.95 1155.541655 142.5 1188.791655 83.70000000000002L1180.333345 87.55000000000001H1197.25L1193.75 82.30000000000001C1182.375 134.10000000000002 1177.125 157.55 1164.583345 219.5C1159.333345 244.7 1154.083345 270.25 1148.833345 295.45C1148.25 298.25 1148.541655 300.0 1150.875 300.0C1154.666655 300.0 1158.75 300.0 1162.541655 300.0C1165.166655 288.1 1167.5 276.2 1170.125 264.3C1184.416655 196.05 1211.541655 64.45000000000002 1212.708345 58.85000000000002C1213.291655 56.400000000000006 1212.708345 55.00000000000003 1210.375 55.00000000000003C1205.125 55.00000000000003 1194.041655 55.00000000000003 1188.791655 55.00000000000003C1159.625 105.75 1113.25 185.2 1081.458345 243.65L1091.375 232.8H1078.833345L1083.5 244.7C1073.583345 185.2 1062.791655 108.9 1055.208345 59.55000000000001C1054.916655 55.70000000000002 1054.041655 55.00000000000003 1051.708345 55.00000000000003C1047.041655 55.00000000000003 1037.708345 55.00000000000003 1033.041655 55.00000000000003C1030.708345 66.55000000000001 1028.083345 78.45000000000002 1025.75 90.0C1011.458345 158.60000000000002 997.166655 227.55 982.875 296.15C982.291655 297.9 982.875 300.0 985.208345 300.0C989.0 300.0 991.916655 300.0 996.875 300.0Z" fill="#1a1a1a"/><path d="M1255.0 190.10000000000002 1240.416655 192.2C1246.541655 219.5 1252.666655 246.8 1258.791655 274.1C1262.88921 292.012135967915 1270.75 300.0 1284.166655 300.0C1286.791655 300.0 1288.360635 300.0 1290.875 300.0C1292.916655 300.0 1294.375 298.6 1294.958345 296.15C1295.833345 291.6 1296.708345 288.1 1297.583345 283.55H1294.666655C1293.208345 283.55 1290.0 283.55 1287.375 283.55C1279.5 283.55 1275.416655 280.05 1272.791655 268.15C1266.958345 242.25 1260.833345 216.0 1255.0 190.10000000000002ZM1210.932585 55.00000000000003C1210.073055 59.20000000000002 1209.356745 62.70000000000002 1208.49718 66.9C1208.139025 68.65 1207.70926 70.75000000000003 1207.70926 70.75000000000003C1216.791655 70.75000000000003 1242.75 70.75000000000003 1269.0 70.75000000000003C1283.0 70.75000000000003 1292.625 74.25000000000003 1298.458345 81.25C1306.041655 90.0 1307.208345 104.0 1303.125 122.55000000000001L1299.916655 137.95000000000002C1293.208345 170.15 1276.291655 181.7 1247.416655 181.7C1229.625 181.7 1211.833345 181.7 1194.041655 181.7L1189.958345 199.2L1193.75 197.45C1210.666655 197.45 1227.875 197.45 1247.708345 197.45C1281.833345 197.45 1306.041655 179.95 1314.791655 139.35000000000002L1318.0 124.30000000000001C1329.083345 71.80000000000001 1298.458345 55.00000000000003 1272.791655 55.00000000000003C1245.375 55.00000000000003 1217.958345 55.00000000000003 1210.932585 55.00000000000003ZM1174.5 300.0C1176.833345 288.8 1179.166655 277.25 1181.791655 265.0C1191.125 220.2 1200.458345 175.05 1209.791655 130.25C1214.166655 108.9 1218.833345 87.20000000000002 1223.208345 65.85000000000002L1225.833345 62.00000000000003H1209.5C1193.166655 140.05 1177.125 218.10000000000002 1160.791655 296.15C1160.26942 298.030097885785 1160.791655 300.0 1163.125 300.0C1166.916655 300.0 1170.708345 300.0 1174.5 300.0Z" fill="#1a1a1a"/><path d="M1445.75 49.400000000000006C1407.541655 49.400000000000006 1381.875 67.25000000000003 1374.583345 102.95000000000002L1371.958345 116.25C1366.125 143.9 1374.291655 165.60000000000002 1407.541655 178.2L1434.083345 188.35000000000002C1458.583345 197.8 1464.125 209.7 1458.583345 236.65L1456.25 248.2C1450.125 278.65 1427.666655 289.85 1399.666655 289.85C1370.791655 289.85 1354.458345 282.85 1340.166655 262.2H1336.666655C1335.791655 265.35 1335.208345 268.15 1333.75 273.75C1333.458345 275.15 1333.458345 276.9 1334.333345 278.3C1343.375 292.65 1363.791655 306.3 1397.625 305.6C1438.75 304.9 1462.375 288.1 1469.375 254.15L1472.875 237.35C1479.0 207.95 1472.291655 186.60000000000002 1441.666655 174.35000000000002L1414.541655 164.20000000000002C1385.958345 153.70000000000002 1380.416655 140.05 1385.375 117.30000000000001L1388.291655 103.65C1393.833345 77.75 1414.541655 65.15 1444.583345 65.15C1469.375 65.15 1487.75 72.15 1494.75 85.10000000000002L1492.26059 83.97261500000002C1490.1023500000001 82.00526500000004 1487.90687 86.89788000000001 1485.656895 91.93053C1484.386535 91.923145 1483.61524 91.21579500000001 1483.214665 90.08841000000001C1483.29254 88.96106000000003 1483.49267 87.83367500000003 1483.34532 86.70632500000002C1482.85042 79.83894000000001 1482.2445 73.11159 1481.53365 66.24420500000002C1479.6769 64.55685500000001 1477.50249 63.00946999999999 1474.791075 61.04212000000001C1469.69182 55.434735000000046 1459.305325 50.52738500000001 1445.75 49.400000000000006Z" fill="#1a1a1a"/><line x1="20" y1="382.5" x2="1520.0" y2="382.5" stroke="#eee" stroke-width="0.5"/><text x="20" y="553.75" font-size="11" font-family="sans-serif" font-weight="bold" fill="#555">SemiCasual</text><path d="M159.791655 386.45000000000005C158.770845 398.35 156.7291725 411.475 154.1041725 424.07500000000005C141.5625 487.6 122.8958275 546.05 112.25 610.275C109.916655 627.25 110.7916725 634.075 116.4791725 634.075C119.3958275 634.075 122.16665499999999 633.725 124.9375 633.2C133.5416725 550.95 157.8958275 480.6 171.8958275 406.925C174.6666725 391.525 173.3541725 385.4 168.541655 385.4C165.4791725 385.4 162.708345 385.75 159.791655 386.45000000000005ZM129.604155 513.5C129.604155 513.5 128.0 521.55 128.0 521.55C126.9791725 526.1 128.4375 530.125 132.666655 530.125C132.666655 530.125 252.979155 530.125 252.979155 530.125C252.979155 530.125 254.729155 514.375 254.729155 514.375C254.729155 514.375 250.5 515.95 250.5 515.95C247.4375 514.025 244.8125 513.5 240.29167249999998 513.5C240.29167249999998 513.5 129.604155 513.5 129.604155 513.5ZM244.95834499999998 633.2C245.541655 621.3 247.0 608.175 249.04167249999998 595.575C259.8333275 532.225 277.1875 476.225 290.4583275 410.775C293.958345 393.275 292.2083275 385.75 287.25 385.75C284.1875 385.75 281.270845 386.1 278.5 386.625C270.1875 458.20000000000005 242.625 538.175 230.9583275 614.3C229.5 627.95 231.541655 634.25 236.35417249999998 634.25C239.41667249999998 634.25 242.1875 633.9 244.95834499999998 633.2Z" fill="#1a1a1a"/><path d="M338.875 623.225C348.5 553.225 368.3333275 490.57500000000005 382.1875 422.675C384.375 411.82500000000005 384.5208275 407.625 383.791655 402.55C383.791655 402.55 387.4375 395.025 387.4375 395.025C387.4375 395.025 372.708345 396.775 372.708345 396.775C360.8958275 465.375 340.3333275 528.025 328.958345 594.175C327.0625 606.075 326.916655 610.975 327.5 617.275C327.5 617.275 324.291655 624.8 324.291655 624.8C324.291655 624.8 338.875 623.225 338.875 623.225ZM379.125 632.5C380.0 629.7 380.875 626.725 381.6041725 623.575C382.479155 619.55 380.875 615.875 376.9375 615.875C376.9375 615.875 281.416655 615.875 281.416655 615.875C280.6875 618.675 279.958345 621.65 279.375 624.625C278.3541725 629.175 279.375 632.5 284.1875 632.5C284.1875 632.5 379.125 632.5 379.125 632.5ZM329.25 387.5C328.375 390.3 327.6458275 393.1 326.916655 396.425C325.895845 400.275 327.2083275 404.125 331.4375 404.125C331.4375 404.125 427.1041725 404.125 427.1041725 404.125C427.833345 401.32500000000005 428.5625 398.35 429.1458275 395.375C430.1666725 390.65 428.8541725 387.5 424.333345 387.5C424.333345 387.5 329.25 387.5 329.25 387.5Z" fill="#1a1a1a"/><path d="M495.791655 622.525C475.958345 622.525 466.1875 617.45 454.520845 606.425H452.1875C451.16669 609.225 450.4375 611.325 449.708345 614.475C448.833345 618.5 449.270845 621.65 451.75 624.45C458.458345 632.675 473.041655 639.5 493.75 639.5C529.770845 639.5 554.854155 618.15 566.229155 571.425C579.1346 510.72974999999997 592.4311 448.19525 605.336545 387.5C605.336545 384.70000000000005 603.84845 383.3 600.128195 383.3C598.6401 383.3 597.152005 383.3 595.66391 383.3C591.943655 383.3 590.45556 384.70000000000005 590.45556 387.5C590.45556 387.5 590.45556 387.5 590.45556 387.5C590.45556 387.5 590.45556 387.5 590.45556 387.5C578.22586 445.30775 565.625545 504.86725 553.395845 562.675C548.583345 583.85 542.604155 595.225 534.145845 606.775C523.5 617.275 511.541655 622.525 495.791655 622.525Z" fill="#1a1a1a"/><path d="M710.6041725 503.70000000000005C710.6041725 503.70000000000005 697.7708275 520.5 697.7708275 520.5C697.7708275 520.5 703.8958275 522.6 703.8958275 522.6C709.291655 555.5 719.9375 589.1 733.3541725 617.975C739.1875 631.1 746.041655 636.0 757.854155 636.0C761.9375 636.0 764.5625 634.95 766.8958275 633.375C769.0833275 631.975 770.25 630.4 770.979155 627.25C771.7083275 623.925 772.4375 619.025 772.7291725 615.35C772.7291725 615.35 770.6875 615.35 770.6875 615.35C767.9166725 617.975 765.1458275 618.85 759.6041725 618.85C752.604155 618.85 748.5208275 615.35 744.5833275 606.6C731.4583275 577.025 720.8125 545.0 710.6041725 503.70000000000005ZM803.9375 385.75C803.9375 385.75 795.1875 385.75 795.1875 385.75C779.0 415.675 757.7083275 443.85 727.0833275 477.8C708.125 498.45000000000005 689.75 515.775 669.479155 534.325C669.479155 534.325 661.458345 532.05 661.458345 532.05C661.458345 532.05 656.6458275 559.875 656.6458275 559.875C711.1875 519.275 761.0625 466.425 791.8333275 422.5C807.0 400.975 809.1875 395.9 809.7708275 392.925C810.354155 390.475 811.2291725 385.75 803.9375 385.75ZM684.0625 387.32500000000005C683.0416725 399.225 681.0 411.475 678.375 424.07500000000005C665.833345 487.6 647.166655 546.05 636.5208275 610.275C634.1875 627.25 635.0625 633.375 640.75 633.375C643.6666725 633.375 646.4375 633.025 649.208345 632.5C657.8125 550.25 682.1666725 480.6 696.1666725 406.925C698.9375 390.65 697.479155 386.275 692.8125 386.275C689.75 386.275 686.9791725 386.625 684.0625 387.32500000000005Z" fill="#1a1a1a"/><path d="M818.6666725 632.5C818.6666725 632.5 921.625 632.5 921.625 632.5C924.25 625.5 922.7916725 615.875 917.25 615.875C917.25 615.875 825.5208275 615.875 825.5208275 615.875C834.416655 545.875 857.3125 476.05 870.5833275 406.225C873.3541725 391.525 872.3333275 386.275 867.229155 386.275C864.1666725 386.275 861.395845 386.625 858.479155 387.32500000000005C857.3125 399.225 855.4166725 411.3 852.9375 423.725C840.25 487.425 821.5833275 546.225 810.9375 610.1C809.1875 624.275 810.9375 632.5 818.6666725 632.5Z" fill="#1a1a1a"/><path d="M997.1666725 633.375C999.9375 609.4 1004.3125 586.825 1010.1458275 559.7C1021.5208275 507.025 1038.0 461.175 1047.625 407.275C1047.625 407.275 1041.791655 417.07500000000005 1041.791655 417.07500000000005C1041.791655 417.07500000000005 1052.583345 416.55 1052.583345 416.55C1052.583345 416.55 1049.375 406.925 1049.375 406.925C1051.854155 477.45000000000005 1062.6458275 546.575 1073.0 584.9C1074.6041725 590.325 1075.625 591.725 1080.1458275 591.725C1082.3333275 591.725 1085.979155 591.725 1088.166655 591.725C1115.7291725 553.05 1160.0625 473.07500000000005 1187.1875 408.85C1187.1875 408.85 1178.2916725 416.55 1178.2916725 416.55C1178.2916725 416.55 1192.4375 417.07500000000005 1192.4375 417.07500000000005C1192.4375 417.07500000000005 1188.7916725 411.3 1188.7916725 411.3C1181.3541725 460.475 1175.6666725 491.45000000000005 1165.3125 543.075C1159.4791725 572.125 1154.6666725 596.625 1151.3125 618.15C1150.2916725 628.475 1151.4583275 634.25 1156.8541725 634.25C1159.625 634.25 1162.8333275 633.725 1165.75 633.375C1166.479155 621.3 1168.0833275 607.65 1170.2708275 595.575C1180.7708275 536.25 1202.2083275 440.175 1204.9791725 403.425C1206.1458275 389.6 1204.6875 385.75 1198.125 385.75C1193.4583275 385.75 1186.3125 386.275 1182.0833275 386.975C1160.0625 440.875 1113.3958275 526.45 1080.583345 577.9C1080.583345 577.9 1091.375 568.975 1091.375 568.975C1091.375 568.975 1079.4166725 568.1 1079.4166725 568.1C1079.4166725 568.1 1085.25 579.3 1085.25 579.3C1072.125 524.525 1064.541655 451.20000000000005 1062.0625 399.925C1062.354155 389.95000000000005 1061.041655 385.75 1052.583345 385.75C1047.625 385.75 1041.3541725 386.275 1037.2708275 386.975C1035.958345 398.875 1033.4791725 411.125 1030.4166725 423.9C1015.5416725 487.775 996.4375 547.8 985.2083275 609.75C982.4375 627.6 983.3125 634.25 988.4166725 634.25C991.4791725 634.25 993.8125 633.9 997.1666725 633.375Z" fill="#1a1a1a"/><path d="M1249.6041725 535.725C1249.6041725 535.725 1235.3125 538.875 1235.3125 538.875C1240.416655 564.25 1245.9583275 587.175 1253.541655 609.925C1259.5279325 626.7560679839575 1267.25 634.25 1280.0833275 634.25C1284.3125 634.25 1286.84699 633.375 1289.4166725 631.8C1291.4583275 630.575 1292.7708275 628.475 1293.5 625.15C1294.2291725 621.3 1294.8125 617.8 1295.1041725 613.95C1295.1041725 613.95 1293.0625 613.95 1293.0625 613.95C1290.4375 616.05 1286.0625 617.45 1282.4166725 617.45C1275.125 617.45 1270.4583275 613.25 1266.8125 602.575C1259.520845 580.7 1254.4166725 560.4 1249.6041725 535.725ZM1201.17462 387.5C1200.307355 390.475 1199.657545 392.925 1198.93609 396.6C1198.173685 400.625 1198.8338025 403.775 1201.0213025 403.775C1208.3333275 403.775 1235.1666725 400.275 1263.75 400.275C1281.9791725 400.275 1292.9166725 404.65 1301.520845 413.57500000000005C1307.354155 424.6 1307.9375 438.6 1304.0 457.5C1304.0 457.5 1301.8125 468.175 1301.8125 468.175C1292.9166725 512.275 1263.3125 529.6 1229.916655 529.6C1214.3125 529.6 1202.5 528.9 1191.2708275 527.325C1191.2708275 527.325 1187.1875 542.375 1187.1875 542.375C1187.1875 542.375 1191.7083275 540.975 1191.7083275 540.975C1202.6458275 544.125 1214.3125 545.875 1229.625 545.875C1272.5 545.875 1305.8958275 519.8 1316.104155 471.15C1316.104155 471.15 1318.7291725 458.725 1318.7291725 458.725C1327.9166725 415.15 1310.4166725 384.0 1267.25 384.0C1244.9375 384.0 1220.583345 384.525 1201.17462 387.5ZM1177.7083275 632.5C1178.145845 622.875 1179.166655 610.975 1180.916655 598.55C1188.2083275 547.45 1204.833345 497.925 1214.8958275 447.70000000000005C1218.6875 428.8 1221.020845 413.05 1221.895845 400.1C1221.895845 400.1 1225.6875 392.75 1225.6875 392.75C1225.6875 392.75 1210.8125 394.5 1210.8125 394.5C1198.125 471.32500000000005 1173.1875 545.525 1163.125 616.225C1162.4263825 627.3150489428925 1163.2708275 633.55 1169.25 633.55C1172.166655 633.55 1175.083345 633.2 1177.7083275 632.5Z" fill="#1a1a1a"/><path d="M1445.75 381.9C1407.541655 381.9 1381.875 399.75 1374.583345 435.45000000000005L1371.958345 448.75C1366.125 476.4 1374.291655 498.1 1407.541655 510.7L1434.083345 520.85C1458.583345 530.3 1464.125 542.2 1458.583345 569.15L1456.25 580.7C1450.125 611.15 1427.666655 622.35 1399.666655 622.35C1370.791655 622.35 1354.458345 615.35 1340.166655 594.7H1336.666655C1335.791655 597.85 1335.208345 600.65 1333.75 606.25C1333.458345 607.65 1333.458345 609.4 1334.333345 610.8C1343.375 625.15 1363.791655 638.8 1397.625 638.1C1438.75 637.4 1462.375 620.6 1469.375 586.65L1472.875 569.85C1479.0 540.45 1472.291655 519.1 1441.666655 506.85L1414.541655 496.70000000000005C1385.958345 486.20000000000005 1380.416655 472.55 1385.375 449.8L1388.291655 436.15C1393.833345 410.25 1414.541655 397.65 1444.583345 397.65C1469.375 397.65 1487.75 404.65 1494.75 417.6L1495.048375 417.313735C1494.59922 416.49658999999997 1493.469945 415.21097000000003 1491.72887 413.51941999999997C1489.44596 411.48431000000005 1486.693 409.16814999999997 1483.54405 406.633415C1480.0759 403.94251 1476.36807 401.15791 1472.50323 398.34209C1468.56706 395.55749000000003 1464.6484249999999 392.866585 1460.8392 390.33185000000003C1457.23413 388.01569 1453.930515 385.98058000000003 1451.028035 384.28903C1448.62826 383.00341000000003 1446.834195 382.18626500000005 1445.75 381.9Z" fill="#1a1a1a"/><line x1="20" y1="715.0" x2="1520.0" y2="715.0" stroke="#eee" stroke-width="0.5"/><text x="20" y="886.25" font-size="11" font-family="sans-serif" font-weight="bold" fill="#555">Casual</text><path d="M161.541655 717.9C161.833345 730.15 160.083345 744.85 157.458345 758.5C146.666655 816.95 123.625 864.55 116.625 924.4C112.541655 956.25 113.125 968.15 122.75 968.15C124.79165499999999 968.15 126.54165499999999 967.45 128.291655 966.4C128.875 882.05 160.666655 822.2 172.041655 755.0C177.0 725.95 175.25 715.8 167.666655 715.8C165.333345 715.8 163.583345 716.5 161.541655 717.9ZM114.29165499999999 860.0 113.416655 864.2C111.958345 871.55 114.29165499999999 877.5 120.41665499999999 877.5H247.291655V863.5L242.916655 864.9C239.125 861.05 235.916655 860.0 229.20834499999998 860.0ZM245.83334499999998 966.4C244.666655 954.15 244.95834499999998 939.8 246.70834499999998 926.15C254.0 868.05 274.416655 825.0 286.666655 762.7C293.083345 729.8 290.75 716.5 282.583345 716.5C280.25 716.5 278.208345 717.2 276.458345 718.25C276.458345 781.25 238.25 860.35 231.541655 932.45C229.20834499999998 958.0 232.416655 968.5 240.0 968.5C242.33334499999998 968.5 244.08334499999998 967.8 245.83334499999998 966.4Z" fill="#1a1a1a"/><path d="M340.333345 953.45C344.708345 884.5 369.5 830.95 382.333345 766.2C385.833345 749.05 385.25 744.85 382.916655 739.25L388.166655 728.05L374.458345 731.55C365.125 800.15 338.291655 856.15 329.833345 919.85C327.5 936.65 328.666655 939.8 331.291655 945.4L326.916655 956.6ZM380.0 965.0C380.875 963.6 381.75 961.5 382.333345 959.05C383.791655 953.1 381.75 947.5 375.625 947.5H280.541655C279.958345 948.9 279.083345 951.35 278.791655 953.1C277.333345 960.45 278.791655 965.0 286.083345 965.0ZM328.375 720.0C327.5 721.4 326.625 723.5 326.041655 725.95C324.583345 731.9 326.625 737.5 332.75 737.5H428.125C428.708345 736.1 429.583345 733.65 429.875 731.9C431.333345 724.55 429.875 720.0 422.583345 720.0Z" fill="#1a1a1a"/><path d="M494.333345 954.5C472.458345 954.5 463.708345 948.9 452.041655 938.05H450.875C449.708345 939.8 448.833345 941.55 448.25 944.0C447.083345 949.25 447.958345 954.5 452.041655 958.7C460.5 967.45 473.625 972.0 491.708345 972.0C525.25 972.0 549.458345 955.55 561.416655 914.95C575.319565 850.6165 589.6438049999999 784.3335 603.546715 720.0C603.546715 717.2 602.078255 715.8 598.40707 715.8C596.9386099999999 715.8 595.47015 715.8 594.001655 715.8C590.33047 715.8 588.86201 717.2 588.86201 720.0C588.86201 720.0 588.86201 720.0 588.86201 720.0C588.86201 720.0 588.86201 720.0 588.86201 720.0C576.43631 778.212 563.634045 838.188 551.208345 896.4C545.375 919.85 539.833345 929.3 531.375 942.25C520.291655 950.65 509.5 954.5 494.333345 954.5Z" fill="#1a1a1a"/><path d="M713.083345 841.45 697.916655 853.0 703.166655 857.2C707.541655 893.6 716.875 929.65 732.333345 956.25C737.875 966.05 745.166655 972.0 755.666655 972.0C761.791655 972.0 765.291655 969.9 767.916655 966.75C770.25 963.95 771.416655 961.15 772.291655 957.3C773.166655 953.45 773.166655 949.95 772.875 946.8H771.708345C767.625 952.05 764.125 953.8 758.0 953.8C752.166655 953.8 747.5 950.3 743.125 942.6C729.416655 918.45 720.958345 889.05 713.083345 841.45ZM798.25 716.5H794.166655C780.458345 754.3 756.541655 788.25 734.375 810.3C711.625 833.4 693.25 846.35 669.916655 858.95L664.958345 854.4L659.416655 876.8C716.875 855.45 762.958345 812.4 790.375 764.45C803.791655 741.0 806.708345 732.25 807.875 728.75C809.041655 725.25 811.375 716.5 798.25 716.5ZM685.083345 719.65C685.375 731.9 683.625 744.85 681.0 758.5C670.208345 816.95 647.166655 864.55 640.166655 924.4C636.083345 956.25 636.666655 966.75 646.291655 966.75C648.333345 966.75 650.083345 966.05 651.833345 965.0C652.416655 880.65 684.208345 822.2 695.583345 755.0C700.541655 725.95 698.791655 717.55 691.208345 717.55C688.875 717.55 687.125 718.25 685.083345 719.65Z" fill="#1a1a1a"/><path d="M827.125 965.0H920.166655C923.958345 957.3 923.083345 947.5 917.25 947.5H826.25C828.291655 882.4 858.625 818.35 869.416655 753.6C874.375 725.95 872.916655 717.55 865.041655 717.55C862.708345 717.55 860.958345 718.25 858.916655 719.65C858.916655 731.9 857.458345 744.5 855.125 757.8C844.041655 816.6 821.0 864.9 814.0 924.05C811.083345 949.95 813.708345 965.0 827.125 965.0Z" fill="#1a1a1a"/><path d="M997.458345 966.75C997.75 944.35 1001.541655 924.75 1007.666655 896.4C1017.875 849.85 1044.125 791.75 1055.5 733.65L1050.541655 746.6L1058.708345 745.55L1055.208345 733.3C1050.541655 813.8 1060.166655 875.75 1074.75 916.7C1077.083345 923.0 1078.25 925.45 1084.666655 925.45C1085.541655 925.45 1086.416655 925.45 1087.291655 925.45C1112.958345 898.15 1164.583345 803.65 1185.583345 734.0L1176.25 745.55L1187.625 746.6L1183.833345 740.3C1180.333345 786.85 1174.208345 825.35 1166.041655 866.65C1159.625 899.55 1155.25 923.0 1153.791655 940.85C1152.333345 958.7 1154.375 968.5 1162.833345 968.5C1164.583345 968.5 1166.916655 967.45 1168.958345 966.75C1167.791655 954.5 1168.666655 939.1 1170.416655 926.85C1177.125 876.45 1192.875 815.9 1197.25 748.0C1199.0 722.8 1196.666655 716.5 1185.875 716.5C1181.791655 716.5 1178.583345 717.55 1175.375 718.95C1160.5 776.0 1113.541655 867.7 1079.708345 912.15L1091.375 905.15L1080.0 903.4L1087.0 913.9C1070.666655 863.85 1066.291655 793.5 1068.916655 740.3C1069.791655 724.2 1068.041655 716.5 1053.458345 716.5C1048.208345 716.5 1045.0 717.55 1041.5 718.95C1041.208345 731.2 1038.875 743.8 1035.083345 757.8C1019.625 816.95 995.708345 868.05 987.541655 923.35C982.583345 957.3 983.75 968.5 991.625 968.5C993.958345 968.5 995.708345 967.8 997.458345 966.75Z" fill="#1a1a1a"/><path d="M1244.208345 881.35 1230.208345 885.55C1234.291655 909.0 1239.25 927.55 1248.291655 945.75C1256.166655 961.5 1263.75 968.5 1276.0 968.5C1281.833345 968.5 1285.333345 966.75 1287.958345 963.6C1290.0 961.15 1291.166655 958.35 1292.041655 954.15C1292.625 951.0 1292.916655 947.5 1292.625 944.35H1291.458345C1287.666655 948.55 1282.125 951.35 1277.458345 951.35C1270.75 951.35 1265.5 946.45 1260.833345 937.0C1252.083345 919.15 1248.0 904.8 1244.208345 881.35ZM1191.416655 720.0C1190.541655 721.75 1189.958345 723.15 1189.375 726.3C1188.208345 732.6 1189.958345 736.8 1194.333345 736.8C1199.875 736.8 1227.583345 729.8 1258.5 729.8C1280.958345 729.8 1293.208345 735.05 1304.583345 745.9C1308.666655 759.2 1308.666655 773.2 1304.875 792.45L1303.708345 798.4C1292.625 854.4 1250.333345 877.5 1212.416655 877.5C1199.0 877.5 1193.166655 876.1 1188.5 872.95L1184.416655 885.55L1189.666655 884.5C1194.625 890.8 1200.75 894.3 1211.541655 894.3C1263.166655 894.3 1305.75 859.65 1317.416655 802.95L1319.458345 793.15C1326.75 758.5 1322.375 713.0 1261.708345 713.0C1244.5 713.0 1223.208345 714.05 1191.416655 720.0ZM1180.916655 965.0C1179.458345 956.95 1179.166655 944.7 1180.041655 932.1C1185.291655 874.7 1209.208345 820.8 1220.0 765.15C1223.208345 748.7 1223.208345 738.9 1220.583345 734.35L1225.541655 723.5L1212.125 727.0C1203.083345 802.6 1169.25 872.95 1165.458345 936.3C1164.583345 956.6 1165.75 967.1 1175.375 967.1C1177.416655 967.1 1179.458345 966.4 1180.916655 965.0Z" fill="#1a1a1a"/><path d="M1465.583345 713.0C1423.291655 713.0 1374.875 756.05 1365.25 802.25L1364.083345 807.85C1358.833345 833.75 1369.333345 852.3 1404.625 869.45L1427.375 880.65C1447.5 890.8 1456.25 902.0 1453.916655 917.75L1453.625 919.15C1446.625 939.8 1425.041655 952.75 1398.208345 952.75C1365.833345 952.75 1350.958345 943.65 1340.166655 923.0H1339.0C1336.666655 926.15 1335.5 928.95 1334.625 933.5C1333.75 938.75 1334.625 943.65 1338.125 948.2C1347.166655 959.75 1364.375 969.2 1397.625 969.2C1431.166655 969.2 1459.166655 953.45 1465.583345 921.95L1466.166655 919.5C1470.833345 898.15 1460.041655 879.95 1432.625 866.65L1410.166655 855.8C1378.083345 840.4 1375.166655 824.65 1377.791655 811.35L1378.666655 806.8C1386.25 767.6 1432.041655 729.8 1463.833345 729.8C1474.041655 729.8 1479.291655 731.55 1488.041655 738.55C1486.7 737.5 1486.0 736.8 1485.371365 736.4610600000001C1485.51945 730.194205 1483.71653 723.7873850000001 1479.50995 719.48053C1476.065495 716.153675 1471.533835 713.806855 1465.583345 713.0Z" fill="#1a1a1a"/>
</svg>