<?xml version="1.0" encoding="UTF-8"?>
<svg xmlns="http://www.w3.org/2000/svg" width="1540.0" height="1057.5"
     viewBox="0 0 1540.0 1057.5">
<rect width="100%" height="100%" fill="white"/>
<text x="770.0" y="30" text-anchor="middle" font-size="14" font-family="sans-serif" font-weight="bold" fill="#333">Sans C Slanted — Key glyphs close-up</text><text x="187.5" y="48" text-anchor="middle" font-size="10" font-family="sans-serif" fill="#999">H</text><text x="362.5" y="48" text-anchor="middle" font-size="10" font-family="sans-serif" fill="#999">I</text><text x="537.5" y="48" text-anchor="middle" font-size="10" font-family="sans-serif" fill="#999">J</text><text x="712.5" y="48" text-anchor="middle" font-size="10" font-family="sans-serif" fill="#999">K</text><text x="887.5" y="48" text-anchor="middle" font-size="10" font-family="sans-serif" fill="#999">L</text><text x="1062.5" y="48" text-anchor="middle" font-size="10" font-family="sans-serif" fill="#999">M</text><text x="1237.5" y="48" text-anchor="middle" font-size="10" font-family="sans-serif" fill="#999">R</text><text x="1412.5" y="48" text-anchor="middle" font-size="10" font-family="sans-serif" fill="#999">S</text><text x="20" y="221.25" font-size="11" font-family="sans-serif" font-weight="bold" fill="#555">Linear</text><path d="M141.125 55.00000000000003C138.5 67.60000000000002 135.875 79.85000000000002 133.25 92.45000000000002C119.25 160.35000000000002 104.958345 228.25 90.958345 296.15C90.375 298.25 91.541655 300.0 93.291655 300.0C114.29165499999999 300.0 135.0 300.0 156.0 300.0C172.625 219.85000000000002 189.541655 139.0 206.166655 58.85000000000002C206.75 57.10000000000002 206.166655 55.00000000000003 203.833345 55.00000000000003C182.833345 55.00000000000003 162.125 55.00000000000003 141.125 55.00000000000003ZM151.333345 139.0 142.291655 208.65C142.291655 210.4 142.291655 212.5 144.625 212.5H247.875L254.58334499999998 139.0H245.25C237.666655 139.0 230.08334499999998 139.0 222.5 139.0ZM259.25 300.0C261.583345 288.8 264.5 275.5 267.416655 261.5C281.416655 193.95 295.416655 126.4 309.416655 58.85000000000002C310.0 56.75000000000003 308.833345 55.00000000000003 307.083345 55.00000000000003C286.083345 55.00000000000003 265.375 55.00000000000003 244.666655 55.00000000000003C228.041655 135.15 211.125 216.0 194.5 296.15C193.916655 297.9 194.791655 300.0 196.833345 300.0C217.541655 300.0 238.25 300.0 259.25 300.0Z" fill="#1a1a1a"/><path d="M364.541655 282.5C374.166655 235.60000000000002 384.083345 189.05 393.708345 142.15C398.375 120.10000000000002 402.75 98.4 407.416655 76.35000000000002L412.958345 72.50000000000003H342.958345C333.625 117.30000000000001 324.291655 162.45000000000002 314.666655 207.25C309.708345 231.05 304.75 254.85 299.791655 278.65L296.875 282.5ZM392.25 300.0C397.208345 275.85 401.875 254.5 406.833345 230.35000000000002C407.125 228.25 405.958345 226.5 404.208345 226.5H279.083345C274.125 250.65 269.75 272.0 264.791655 296.15C264.26942 298.030097885785 264.791655 300.0 267.125 300.0ZM314.958345 55.00000000000003C311.75 70.4 303.875 109.25 300.666655 124.65C300.14442 126.53009788578501 300.666655 128.5 303.0 128.5H428.125C431.333345 113.10000000000002 439.208345 74.25000000000003 442.416655 58.85000000000002C443.0 56.75000000000003 441.833345 55.00000000000003 440.083345 55.00000000000003Z" fill="#1a1a1a"/><path d="M492.0 231.75C478.0 231.75 467.5 228.25 455.541655 219.15H449.708345C445.041655 241.2 441.25 259.4 436.583345 281.45C436.583345 282.5 436.583345 283.55 436.875 284.25C443.0 294.05 460.208345 307.0 493.75 307.0C542.458345 307.0 573.666655 283.9 586.208345 220.55C597.6391699999999 165.91850000000002 609.41639 109.63150000000002 620.847215 55.00000000000003C620.847215 52.20000000000002 614.001075 50.80000000000001 596.88576 50.80000000000001C590.039655 50.80000000000001 583.1935149999999 50.80000000000001 576.34741 50.80000000000001C559.232095 50.80000000000001 552.385955 52.20000000000002 552.385955 55.00000000000003C552.385955 55.00000000000003 552.385955 55.00000000000003 552.385955 55.00000000000003C552.385955 55.00000000000003 552.385955 55.00000000000003 552.385955 55.00000000000003C542.94985 100.507 533.22776 147.39300000000003 523.791655 192.9C520.875 206.55 517.375 217.4 512.416655 223.35000000000002C506.291655 230.35000000000002 501.333345 231.75 492.0 231.75Z" fill="#1a1a1a"/><path d="M730.875 131.3 692.375 228.60000000000002H704.916655C703.458345 257.3 702.875 253.45 709.0 272.0C716.875 294.4 723.291655 300.0 743.708345 300.0C752.166655 300.0 766.166655 300.0 768.5 300.0C770.541655 300.0 772.0 298.6 772.583345 296.15C773.166655 293.35 781.625 252.75 786.291655 229.65H784.833345C779.583345 229.65 777.25 229.65 772.0 229.65C762.375 229.65 760.333345 228.25 757.708345 219.5C748.666655 190.10000000000002 739.916655 160.70000000000002 730.875 131.3ZM826.833345 55.00000000000003H753.916655C744.291655 73.20000000000002 736.708345 88.25 730.875 100.85000000000002C718.916655 126.05000000000001 720.083345 123.60000000000002 710.166655 154.75H693.833345L669.333345 258.7C741.375 185.55 736.708345 190.8 806.708345 91.75C828.0 60.95000000000002 828.583345 59.55000000000001 828.875 57.80000000000001C829.166655 56.400000000000006 828.291655 55.00000000000003 826.833345 55.00000000000003ZM660.583345 55.00000000000003C657.958345 67.60000000000002 655.333345 79.85000000000002 652.708345 92.45000000000002C638.708345 160.35000000000002 624.416655 228.25 610.416655 296.15C609.833345 298.25 611.0 300.0 612.75 300.0C633.166655 300.0 653.291655 300.0 674.0 300.0C690.625 219.85000000000002 707.541655 139.0 724.166655 58.85000000000002C724.75 57.10000000000002 724.166655 55.00000000000003 721.833345 55.00000000000003C701.125 55.00000000000003 681.0 55.00000000000003 660.583345 55.00000000000003Z" fill="#1a1a1a"/><path d="M790.958345 300.0H937.375C945.25 263.25 926.583345 226.5 899.75 226.5H871.75C883.125 171.9 894.791655 113.45000000000002 906.166655 58.85000000000002C906.75 57.10000000000002 905.875 55.00000000000003 903.833345 55.00000000000003C881.958345 55.00000000000003 860.375 55.00000000000003 838.5 55.00000000000003C836.166655 66.55000000000001 833.541655 78.45000000000002 831.208345 90.0C816.916655 158.60000000000002 802.625 227.55 788.333345 296.15C787.75 298.25 788.916655 300.0 790.958345 300.0Z" fill="#1a1a1a"/><path d="M1029.25 300.0C1033.041655 282.15 1035.375 270.95 1038.875 254.85C1043.541655 232.45 1045.875 206.9 1045.291655 141.8L1042.666655 148.45000000000002H1058.416655L1051.125 142.85000000000002C1055.5 185.55 1060.166655 226.85000000000002 1064.541655 269.2C1064.541655 270.6 1066.291655 271.65 1067.75 271.65C1075.333345 271.65 1082.625 271.65 1090.208345 271.65C1112.958345 227.9 1136.0 184.5 1159.041655 141.10000000000002L1151.166655 148.45000000000002H1164.0L1165.166655 139.70000000000002C1137.166655 206.9 1128.125 232.45 1123.458345 254.5C1120.25 269.9 1118.208345 279.35 1114.708345 296.15C1114.125 298.6 1115.0 300.0 1117.041655 300.0C1137.458345 300.0 1157.583345 300.0 1178.0 300.0C1180.625 288.45 1182.958345 277.25 1185.291655 265.7C1199.583345 196.75 1214.166655 127.80000000000001 1228.458345 58.85000000000002C1229.041655 56.400000000000006 1228.166655 55.00000000000003 1226.125 55.00000000000003C1199.875 55.00000000000003 1173.625 55.00000000000003 1147.375 55.00000000000003C1113.25 123.95000000000002 1111.791655 127.10000000000002 1100.708345 167.0L1109.75 147.05H1097.5L1098.375 167.0C1103.333345 127.10000000000002 1102.75 123.95000000000002 1097.208345 59.20000000000002C1096.916655 56.05000000000001 1095.75 55.00000000000003 1093.416655 55.00000000000003C1067.75 55.00000000000003 1042.083345 55.00000000000003 1016.416655 55.00000000000003C1013.791655 66.55000000000001 1011.458345 77.75 1009.125 89.30000000000001C994.833345 158.25 979.958345 227.2 965.666655 296.15C965.083345 298.6 965.958345 300.0 968.0 300.0C988.416655 300.0 1012.333345 300.0 1029.25 300.0Z" fill="#1a1a1a"/><path d="M1278.041655 161.4 1222.041655 212.15C1227.583345 233.85000000000002 1232.833345 255.55 1238.375 277.25C1243.041655 296.85 1252.666655 303.5 1275.708345 303.5C1279.5 303.5 1286.5 303.5 1293.208345 303.5C1295.25 303.5 1296.708345 302.1 1297.291655 299.65C1301.958345 276.9 1307.208345 253.1 1311.875 230.35000000000002H1310.416655C1308.666655 230.35000000000002 1307.5 230.35000000000002 1305.75 230.35000000000002C1296.416655 230.35000000000002 1295.25 229.3 1292.625 218.45C1287.666655 199.55 1283.0 180.3 1278.041655 161.4ZM1192.937685 55.00000000000003C1188.234945 78.10000000000002 1184.102215 98.4 1179.39944 121.5C1179.043175 123.25 1168.958345 125.35000000000002 1171.0 125.35000000000002C1195.791655 125.35000000000002 1220.875 125.35000000000002 1245.666655 125.35000000000002C1254.708345 125.35000000000002 1258.5 126.05000000000001 1261.125 129.20000000000002C1263.458345 132.0 1263.75 137.25 1262.0 146.35000000000002L1261.125 150.55C1258.5 163.5 1254.416655 167.70000000000002 1245.666655 167.70000000000002C1234.291655 167.70000000000002 1222.916655 167.70000000000002 1211.541655 167.70000000000002L1198.416655 231.75L1201.916655 230.35000000000002C1218.541655 230.35000000000002 1235.166655 230.35000000000002 1251.791655 230.35000000000002C1292.625 230.35000000000002 1315.666655 207.95 1327.041655 156.85000000000002L1332.0 134.45000000000002C1343.375 83.0 1324.125 55.00000000000003 1278.041655 55.00000000000003C1246.25 55.00000000000003 1214.458345 55.00000000000003 1192.937685 55.00000000000003ZM1208.041655 300.0C1210.375 288.45 1213.0 276.55 1215.333345 265.0C1223.5 226.5 1231.375 188.0 1239.541655 149.5C1244.5 125.0 1249.75 100.85000000000002 1254.708345 76.35000000000002L1257.333345 72.50000000000003H1189.375C1173.916655 147.05 1158.166655 221.60000000000002 1142.708345 296.15C1142.186075 298.030097885785 1143.059885 300.0 1145.041655 300.0C1166.041655 300.0 1187.041655 300.0 1208.041655 300.0Z" fill="#1a1a1a"/><path d="M1450.708345 48.00000000000003C1399.375 48.00000000000003 1364.375 66.9 1355.333345 108.9L1351.541655 126.4C1346.583345 151.60000000000002 1347.458345 184.5 1395.291655 202.0L1413.083345 208.65C1421.541655 211.8 1429.416655 214.95 1427.083345 225.8L1426.5 228.60000000000002C1424.75 237.0 1416.875 239.45 1400.833345 239.45C1371.375 239.45 1351.833345 230.35000000000002 1336.958345 216.7H1331.125C1327.041655 237.35 1322.666655 258.0 1318.875 278.65C1318.583345 280.05 1318.291655 281.45 1319.458345 282.85C1329.666655 295.1 1357.083345 307.0 1394.708345 307.0C1442.833345 307.0 1473.458345 287.75 1483.375 240.85L1486.291655 226.15C1493.291655 193.25 1485.708345 169.8 1445.166655 153.70000000000002L1419.5 143.55C1413.666655 141.10000000000002 1411.041655 136.9 1412.5 130.25L1413.375 126.05000000000001C1415.416655 116.25 1420.666655 113.80000000000001 1436.708345 113.80000000000001C1444.875 113.80000000000001 1453.333345 115.9 1458.0 119.05000000000001L1455.894365 110.786325C1455.519865 112.18261500000003 1455.108195 113.57893999999999 1454.641995 115.115265C1454.68872 113.99159000000003 1455.117855 112.16788000000003 1456.151055 109.924205C1462.679395 107.68053 1470.3799549999999 105.43685500000004 1477.26638 103.19314500000002C1478.671945 92.68947000000003 1479.96642 82.045795 1481.156035 71.54212000000001C1480.849715 67.47841000000003 1480.225735 65.09473500000001 1478.83144 62.15106000000003C1475.165925 56.54738500000002 1464.579895 50.243674999999996 1450.708345 48.00000000000003Z" fill="#1a1a1a"/><line x1="20" y1="382.5" x2="1520.0" y2="382.5" stroke="#eee" stroke-width="0.5"/><text x="20" y="553.75" font-size="11" font-family="sans-serif" font-weight="bold" fill="#555">SemiCasual</text><path d="M140.5416725 387.5C139.9583275 399.925 138.7916725 412.35 136.4583275 425.475C124.9375 489.70000000000005 107.0 547.975 97.520845 603.8C94.6041725 626.375 99.7083275 634.25 117.5 634.25C132.375 634.25 146.0833275 633.725 158.7708275 632.675C167.0833275 560.4 191.1458275 484.45000000000005 204.125 412.525C207.0416725 394.15 202.229155 385.75 186.770845 385.75C171.458345 385.75 155.8541725 386.45000000000005 140.5416725 387.5ZM132.375 477.625C132.375 477.625 126.97915499999999 516.825 126.97915499999999 516.825C123.625 534.325 125.66665499999999 550.95 131.7916725 550.95C131.7916725 550.95 240.1458275 550.95 240.1458275 550.95C240.1458275 550.95 251.375 477.625 251.375 477.625C251.375 477.625 235.7708275 481.82500000000005 235.7708275 481.82500000000005C230.0833275 479.025 222.645845 477.625 212.7291725 477.625C212.7291725 477.625 132.375 477.625 132.375 477.625ZM261.2916725 632.5C261.875 621.65 263.4791725 608.0 266.3958275 592.075C277.7708275 530.3 295.854155 467.125 305.479155 414.975C308.5416725 393.275 302.270845 385.75 284.770845 385.75C269.458345 385.75 256.625 386.1 243.0625 387.5C237.0833275 463.275 209.8125 538.875 198.2916725 610.625C196.3958275 628.3 200.916655 634.25 218.4166725 634.25C233.875 634.25 247.1458275 633.55 261.2916725 632.5Z" fill="#1a1a1a"/><path d="M368.916655 589.275C374.3125 553.75 385.6875 515.775 392.25 484.275C396.1875 465.9 398.0833275 451.025 397.791655 435.8C397.791655 435.8 402.75 430.725 402.75 430.725C402.75 430.725 338.4375 430.725 338.4375 430.725C332.75 465.375 323.5625 497.225 316.125 529.775C311.1666725 550.95 308.8333275 567.4 309.416655 584.2C309.416655 584.2 305.7708275 589.275 305.7708275 589.275C305.7708275 589.275 368.916655 589.275 368.916655 589.275ZM391.2291725 632.5C395.895845 615.35 399.1041725 601.875 402.895845 583.5C405.6666725 568.275 401.2916725 559.0 390.0625 559.0C390.0625 559.0 279.2291725 559.0 279.2291725 559.0C275.4375 573.875 271.9375 587.7 268.0 605.55C263.3638825 623.2900489428926 268.1458275 632.5 282.7291725 632.5C282.7291725 632.5 391.2291725 632.5 391.2291725 632.5ZM315.833345 387.5C312.3333275 399.4 306.9375 424.425 303.729155 439.125C300.69721 453.8900489428925 307.229155 461.0 323.4166725 461.0C323.4166725 461.0 427.1041725 461.0 427.1041725 461.0C430.1666725 449.625 435.4166725 426.175 438.1875 412.525C441.5416725 396.25 436.7291725 387.5 424.4791725 387.5C424.4791725 387.5 315.833345 387.5 315.833345 387.5Z" fill="#1a1a1a"/><path d="M491.416655 564.25C479.166655 564.25 468.083345 560.225 455.104155 548.325H451.3125C447.666655 561.8 444.458345 574.4 440.8125 591.55C437.604155 606.6 437.604155 613.25 441.6875 620.075C448.25 630.4 464.4375 639.5 491.854155 639.5C539.833345 639.5 570.166655 616.4 583.875 561.45C595.58201 504.04650000000004 607.643745 444.9035 619.3507549999999 387.5C619.3507549999999 384.70000000000005 612.60587 383.3 595.7436749999999 383.3C588.998825 383.3 582.2539400000001 383.3 575.50909 383.3C558.646895 383.3 551.90201 384.70000000000005 551.90201 387.5C551.90201 387.5 551.90201 387.5 551.90201 387.5C551.90201 387.5 551.90201 387.5 551.90201 387.5C541.95186 436.5875 531.700185 487.1625 521.75 536.25C519.854155 544.825 517.666655 552.0 514.604155 556.725C508.041655 562.5 502.208345 564.25 491.416655 564.25Z" fill="#1a1a1a"/><path d="M742.8333275 472.725C742.8333275 472.725 693.6875 557.075 693.6875 557.075C693.6875 557.075 705.354155 562.15 705.354155 562.15C704.770845 586.125 705.5 591.9 710.4583275 607.125C717.3125 628.125 725.7708275 636.0 742.9791725 636.0C752.4583275 636.0 763.25 634.6 767.9166725 630.4C771.854155 626.9 774.4791725 622.0 776.375 613.775C778.2708275 604.85 782.9375 578.075 784.979155 560.575C784.979155 560.575 783.375 560.575 783.375 560.575C779.7291725 561.8 777.3958275 562.325 772.875 562.325C764.7083275 562.325 761.7916725 560.225 759.6041725 552.525C752.75 528.375 747.354155 501.775 742.8333275 472.725ZM796.208345 385.75C796.208345 385.75 754.791655 385.75 754.791655 385.75C747.2083275 410.775 738.6041725 432.3 730.0 447.175C720.0833275 465.725 716.7291725 469.4 708.416655 488.3C708.416655 488.3 696.6041725 485.675 696.6041725 485.675C696.6041725 485.675 671.6666725 584.025 671.6666725 584.025C726.6458275 543.95 754.9375 511.575 804.083345 437.025C818.375 415.15 821.2916725 408.5 822.4583275 403.25C824.791655 391.35 816.916655 385.75 796.208345 385.75ZM659.5625 387.32500000000005C658.833345 401.15 657.375 413.57500000000005 655.0416725 425.65C643.6666725 488.3 625.875 544.825 615.666655 607.125C613.333345 625.675 619.3125 634.25 634.4791725 634.25C649.354155 634.25 662.479155 633.55 675.1666725 632.675C683.0416725 554.275 707.3958275 488.65 721.25 409.9C723.7291725 393.8 718.625 385.75 704.0416725 385.75C689.0208275 385.75 673.5625 386.1 659.5625 387.32500000000005Z" fill="#1a1a1a"/><path d="M819.1041725 632.5C819.1041725 632.5 930.2291725 632.5 930.2291725 632.5C941.3125 601.175 932.4166725 557.25 904.125 557.25C904.125 557.25 871.6041725 557.25 871.6041725 557.25C878.6041725 510.525 895.229155 462.925 904.125 412.0C906.3125 397.3 904.2708275 385.75 885.3125 385.75C869.708345 385.75 853.6666725 386.625 837.9166725 387.85C837.625 399.225 836.604155 411.82500000000005 834.270845 424.775C823.479155 483.05 805.5416725 536.425 795.0416725 595.925C792.5625 613.425 805.25 632.5 819.1041725 632.5Z" fill="#1a1a1a"/><path d="M1029.25 632.5C1031.291655 614.475 1032.8958275 599.425 1036.3958275 581.4C1041.791655 554.1 1045.7291725 531.0 1050.25 481.475C1050.25 481.475 1045.729155 489.0 1045.729155 489.0C1045.729155 489.0 1059.5833275 489.0 1059.5833275 489.0C1059.5833275 489.0 1053.0208275 482.0 1053.0208275 482.0C1054.3333275 535.9 1060.4583275 568.1 1065.416655 592.6C1067.8958275 596.275 1069.791655 597.325 1074.4583275 597.325C1080.4375 597.325 1086.4166725 597.15 1092.6875 596.45C1111.3541725 567.4 1132.6458275 533.1 1157.4375 480.775C1157.4375 480.775 1148.104155 489.0 1148.104155 489.0C1148.104155 489.0 1163.2708275 489.0 1163.2708275 489.0C1163.2708275 489.0 1160.354155 479.9 1160.354155 479.9C1142.854155 532.4 1136.0 554.1 1130.458345 575.975C1127.25 589.975 1123.458345 602.925 1120.833345 619.375C1119.6666725 630.4 1122.4375 634.25 1135.416655 634.25C1151.458345 634.25 1165.1666725 633.9 1180.9166725 632.5C1182.5208275 620.95 1183.395845 608.7 1188.0625 584.375C1200.020845 523.65 1211.25 465.20000000000005 1219.270845 408.32500000000005C1220.1458275 389.07500000000005 1215.3333275 385.75 1202.6458275 385.75C1183.9791725 385.75 1165.3125 386.45000000000005 1147.6666725 387.32500000000005C1124.625 443.15 1115.729155 467.3 1097.7916725 508.425C1097.7916725 508.425 1110.9166725 493.025 1110.9166725 493.025C1110.9166725 493.025 1093.4166725 493.025 1093.4166725 493.025C1093.4166725 493.025 1099.25 508.425 1099.25 508.425C1097.9375 468.525 1097.3541725 454.875 1094.145845 405.525C1093.7083275 394.675 1090.6458275 385.75 1074.166655 385.75C1052.0 385.75 1033.625 386.625 1017.0 387.5C1015.6875 399.4 1014.083345 410.6 1011.6041725 423.375C999.645845 484.975 978.9375 553.575 968.5833275 608.175C965.520845 626.9 972.6666725 634.25 984.0416725 634.25C999.354155 634.25 1015.833345 633.725 1029.25 632.5Z" fill="#1a1a1a"/><path d="M1277.75 499.5C1277.75 499.5 1229.479155 550.95 1229.479155 550.95C1231.958345 569.85 1235.6041725 589.45 1239.9791725 608.0C1244.5 628.125 1255.0 637.75 1274.6875 637.75C1280.375 637.75 1287.5208275 636.0 1293.9375 632.325C1298.1666725 628.475 1301.375 622.175 1303.2708275 613.25C1307.208345 594.175 1310.125 578.425 1312.4583275 560.925C1312.4583275 560.925 1311.1458275 560.925 1311.1458275 560.925C1308.5208275 562.15 1306.625 562.675 1303.8541725 562.675C1295.8333275 562.675 1293.2083275 560.225 1289.8541725 548.325C1285.479155 532.925 1281.3958275 516.3 1277.75 499.5ZM1194.89688 387.5C1191.9655425 403.25 1188.908415 420.57500000000005 1185.6145825 438.95000000000005C1183.479075 454.0 1171.583345 461.175 1177.8541725 461.175C1193.3125 461.175 1216.7916725 457.675 1247.416655 457.675C1255.145845 457.675 1259.5208275 458.375 1263.1666725 460.65C1264.770845 464.32500000000005 1264.9166725 469.925 1263.6041725 477.275C1263.6041725 477.275 1263.0208275 480.25 1263.0208275 480.25C1260.25 495.3 1254.125 502.125 1244.791655 502.125C1234.875 502.125 1226.125 500.9 1217.5208275 498.975C1217.5208275 498.975 1203.9583275 567.4 1203.9583275 567.4C1203.9583275 567.4 1211.541655 563.2 1211.541655 563.2C1222.041655 564.6 1235.604155 565.3 1246.3958275 565.3C1285.0416725 565.3 1317.854155 534.15 1328.354155 485.32500000000005C1328.354155 485.32500000000005 1331.2708275 472.025 1331.2708275 472.025C1342.6458275 418.82500000000005 1319.3125 384.0 1265.354155 384.0C1236.0416725 384.0 1208.9166725 385.57500000000005 1194.89688 387.5ZM1211.6875 632.5C1212.125 621.125 1213.2916725 608.35 1215.0416725 594.525C1220.4375 556.375 1231.5208275 525.05 1239.6875 489.35C1244.3541725 468.175 1246.8333275 449.975 1246.833345 434.05C1246.833345 434.05 1249.6041725 429.675 1249.6041725 429.675C1249.6041725 429.675 1188.5 429.675 1188.5 429.675C1177.2708275 495.82500000000005 1159.625 547.625 1148.395845 611.15C1146.38471 626.0900489428925 1152.80077 634.25 1167.2083275 634.25C1182.375 634.25 1197.541655 633.375 1211.6875 632.5Z" fill="#1a1a1a"/><path d="M1453.770845 380.5C1402.875 380.5 1361.895845 409.55 1352.416655 454.525L1350.229155 464.675C1344.395845 493.20000000000005 1351.25 519.8 1396.604155 536.775L1411.479155 542.375C1420.958345 546.05 1427.666655 550.425 1426.5 560.225L1426.208345 562.15C1421.541655 567.225 1412.354155 568.8 1398.5 568.8C1371.666655 568.8 1353.4375 559.0 1338.854155 543.075H1335.0625C1330.104155 557.775 1325.14581 578.775 1322.375 594.7C1320.625 605.2 1321.645845 613.6 1326.75 619.025C1336.95831 630.4 1360.145845 639.5 1394.708345 639.5C1444.583345 639.5 1473.895845 620.6 1482.9375 577.375L1484.979155 567.225C1491.541655 535.9 1481.041655 511.575 1443.416655 496.70000000000005L1420.229155 487.6C1411.625 484.1 1408.270845 479.025 1409.875 471.85L1410.458345 469.05C1412.645845 458.375 1424.458345 452.25 1442.395845 452.25C1447.645845 452.25 1453.916655 453.475 1458.0 455.225L1456.574415 447.055265C1455.888275 448.12553 1455.34 449.47579500000006 1455.26216 450.12606000000005C1454.88059 452.456325 1457.214775 452.19659 1462.719715 449.83682C1467.944725 447.47712 1473.467025 444.83738500000004 1478.2335 441.91761499999996C1478.977425 432.767915 1479.9602949999999 422.848145 1481.071615 413.13844500000005C1481.44531 406.01867500000003 1479.984725 400.43894 1477.17048 395.209205C1473.018325 388.57947 1464.454 382.859735 1453.770845 380.5Z" fill="#1a1a1a"/><line x1="20" y1="715.0" x2="1520.0" y2="715.0" stroke="#eee" stroke-width="0.5"/><text x="20" y="886.25" font-size="11" font-family="sans-serif" font-weight="bold" fill="#555">Casual</text><path d="M139.958345 720.0C141.416655 732.25 141.708345 744.85 139.666655 758.5C130.625 819.05 109.041655 867.7 104.083345 911.45C98.833345 954.5 107.875 968.5 141.708345 968.5C150.458345 968.5 157.166655 967.45 161.541655 965.35C161.541655 900.95 192.75 829.9 202.083345 766.2C207.333345 731.2 198.291655 716.5 169.708345 716.5C160.083345 716.5 149.583345 717.9 139.958345 720.0ZM113.416655 816.25 111.666655 825.0C104.958345 858.25 109.041655 889.4 118.958345 889.4H232.416655L248.166655 816.25L226.291655 824.65C222.5 819.05 215.208345 816.25 202.958345 816.25ZM263.333345 965.0C262.166655 954.5 262.458345 940.5 265.375 922.65C274.125 866.65 296.291655 807.85 301.541655 771.1C307.083345 729.8 295.708345 716.5 262.458345 716.5C252.83334499999998 716.5 247.875 717.2 241.45834499999998 720.0C246.125 791.4 208.5 861.75 202.083345 925.1C198.875 958.7 207.041655 968.5 240.0 968.5C250.20834499999998 968.5 256.041655 967.1 263.333345 965.0Z" fill="#1a1a1a"/><path d="M373.291655 896.05C374.458345 871.9 387.291655 842.5 390.791655 826.4C394.0 811.7 393.416655 803.65 388.166655 795.25L392.541655 788.95H333.916655C331.875 813.45 322.833345 832.0 317.583345 852.3C312.625 870.85 312.916655 879.95 319.041655 889.75L314.666655 896.05ZM390.208345 965.0C394.583345 954.85 396.333345 949.25 398.958345 936.65C404.208345 908.3 396.625 891.5 375.916655 891.5H279.375C276.75 897.1 274.125 903.4 271.208345 914.95C262.458345 948.55 271.5 965.0 298.333345 965.0ZM316.708345 720.0C312.916655 728.4 310.0 739.6 306.791655 753.6C301.25 781.25 313.791655 793.5 343.833345 793.5H426.083345C429.0 786.15 431.625 778.1 433.958345 766.2C440.083345 735.75 431.625 720.0 408.875 720.0Z" fill="#1a1a1a"/><path d="M490.833345 896.75C480.333345 896.75 468.666655 892.2 454.666655 877.5H452.916655C450.291655 882.4 447.666655 889.4 445.041655 901.65C438.625 930.7 438.625 942.95 446.5 955.9C453.5 966.75 468.666655 972.0 489.958345 972.0C537.208345 972.0 566.666655 948.9 581.541655 902.35C593.4386099999999 842.1745 605.696065 780.1755 617.592985 720.0C617.592985 717.2 610.9878199999999 715.8 594.47482 715.8C587.869655 715.8 581.264455 715.8 574.659255 715.8C558.14629 715.8 551.541125 717.2 551.541125 720.0C551.541125 720.0 551.541125 720.0 551.541125 720.0C551.541125 720.0 551.541125 720.0 551.541125 720.0C541.036295 772.668 530.213175 826.932 519.708345 879.6C518.833345 883.1 517.958345 886.6 516.791655 890.1C509.791655 894.65 503.083345 896.75 490.833345 896.75Z" fill="#1a1a1a"/><path d="M754.791655 814.15 695.0 885.55 705.791655 895.7C706.083345 914.95 708.125 930.35 711.916655 942.25C717.75 961.85 728.25 972.0 742.25 972.0C752.75 972.0 760.333345 969.2 767.333345 960.8C773.166655 953.8 776.958345 945.4 780.166655 931.4C783.375 916.35 784.25 903.4 783.666655 891.5H781.916655C779.875 893.95 777.541655 895.0 773.75 895.0C767.041655 895.0 763.25 892.2 761.5 885.55C756.833345 866.65 754.791655 842.85 754.791655 814.15ZM765.583345 716.5H755.666655C750.125 748.35 740.5 776.35 729.125 793.5C721.25 805.4 713.375 815.2 706.666655 821.85L699.375 816.6L674.0 909.35C711.916655 902.35 773.166655 832.35 801.458345 782.3C808.75 769.35 814.0 757.45 816.041655 748.7C820.416655 726.3 805.541655 716.5 765.583345 716.5ZM658.541655 719.65C659.708345 734.7 659.416655 747.3 657.375 758.85C648.625 816.25 627.333345 861.4 620.916655 918.1C616.833345 953.1 627.625 968.5 656.208345 968.5C665.541655 968.5 671.666655 967.1 676.333345 965.35C675.458345 888.7 707.25 838.3 718.333345 760.95C722.708345 730.5 713.083345 716.5 686.25 716.5C676.916655 716.5 666.125 717.2 658.541655 719.65Z" fill="#1a1a1a"/><path d="M847.25 965.0H923.083345C937.375 939.1 938.25 888.0 908.5 888.0H871.458345C874.083345 849.15 895.666655 812.4 902.083345 765.15C905.875 737.5 902.666655 716.5 866.791655 716.5C857.458345 716.5 846.958345 718.25 837.333345 720.7C839.083345 731.9 839.666655 745.2 837.333345 759.55C830.041655 807.5 808.458345 845.3 801.75 895.7C797.375 928.6 821.583345 965.0 847.25 965.0Z" fill="#1a1a1a"/><path d="M1029.25 965.0C1029.541655 946.8 1030.416655 927.9 1033.916655 907.95C1040.041655 875.75 1045.583345 855.1 1055.208345 821.15L1048.791655 829.55H1060.75L1054.916655 821.15C1053.166655 886.25 1060.75 909.35 1066.291655 916.0C1071.25 921.95 1073.291655 923.0 1081.166655 923.0C1085.541655 923.0 1090.208345 922.65 1095.166655 921.25C1109.75 906.9 1129.291655 881.7 1155.833345 820.45L1145.041655 829.55H1162.541655L1155.541655 820.1C1148.541655 857.9 1143.875 875.75 1137.458345 897.45C1134.25 910.05 1128.708345 926.5 1126.958345 942.6C1125.208345 962.2 1129.875 968.5 1153.791655 968.5C1165.458345 968.5 1172.75 967.8 1183.833345 965.0C1184.416655 953.45 1183.833345 940.15 1190.833345 903.05C1200.458345 850.55 1208.333345 802.6 1210.083345 757.8C1211.25 721.75 1202.5 716.5 1179.166655 716.5C1168.083345 716.5 1157.0 717.9 1147.958345 719.65C1136.0 762.35 1119.666655 807.5 1094.875 849.85L1112.083345 839.0H1089.333345L1100.125 849.85C1092.541655 809.95 1091.958345 785.8 1091.083345 751.85C1090.5 733.3 1085.541655 716.5 1054.916655 716.5C1036.25 716.5 1025.166655 718.25 1017.583345 720.0C1017.583345 732.25 1016.708345 743.45 1014.083345 757.45C1004.458345 811.7 977.916655 879.95 971.5 920.2C965.958345 955.2 979.375 968.5 1000.083345 968.5C1010.291655 968.5 1019.333345 967.45 1029.25 965.0Z" fill="#1a1a1a"/><path d="M1277.458345 837.6 1236.916655 889.75C1236.333345 905.85 1238.375 923.35 1241.583345 938.75C1245.958345 959.4 1257.333345 972.0 1273.666655 972.0C1281.25 972.0 1288.541655 968.5 1294.666655 961.15C1301.083345 953.45 1306.041655 942.25 1309.25 926.85C1312.458345 911.45 1313.041655 903.75 1313.041655 891.5H1311.875C1308.375 893.95 1305.75 895.0 1301.958345 895.0C1295.25 895.0 1291.166655 891.15 1287.083345 878.2C1283.291655 866.3 1279.791655 852.3 1277.458345 837.6ZM1196.856075 720.0C1195.69614 728.4 1193.714615 742.75 1191.829725 756.4C1187.914975 784.75 1174.208345 797.0 1184.708345 797.0C1190.833345 797.0 1212.708345 790.0 1249.166655 790.0C1255.583345 790.0 1260.541655 790.7 1265.208345 792.1C1266.083345 796.65 1266.083345 802.6 1265.208345 808.2L1264.916655 809.95C1262.0 827.1 1253.833345 836.55 1243.916655 836.55C1235.458345 836.55 1229.333345 834.1 1223.5 830.25L1209.5 903.05L1221.166655 896.05C1225.541655 898.85 1236.041655 900.25 1241.0 900.25C1277.458345 900.25 1320.041655 860.35 1329.666655 813.8L1330.541655 809.6C1341.916655 754.65 1314.5 713.0 1252.666655 713.0C1225.833345 713.0 1203.375 716.15 1196.856075 720.0ZM1215.333345 965.0C1213.875 953.8 1213.583345 940.15 1214.75 924.05C1217.375 886.25 1231.666655 862.1 1239.833345 829.2C1244.208345 811.35 1243.916655 799.1 1238.958345 791.75L1241.875 786.85H1187.625C1180.625 844.6 1161.083345 873.65 1154.083345 926.15C1150.583345 954.15 1162.541655 968.5 1189.375 968.5C1198.708345 968.5 1208.041655 966.75 1215.333345 965.0Z" fill="#1a1a1a"/><path d="M1456.833345 713.0C1406.375 713.0 1359.416655 752.2 1349.5 800.15L1348.916655 802.95C1342.208345 834.8 1355.041655 855.1 1397.916655 871.55L1409.875 876.1C1420.375 880.3 1425.916655 885.9 1425.916655 894.65V895.7C1418.333345 897.45 1407.833345 898.15 1396.166655 898.15C1371.958345 898.15 1355.041655 887.65 1340.75 869.45H1339.0C1333.166655 878.2 1327.625 899.55 1325.875 910.75C1322.666655 930.35 1325.0 945.75 1334.041655 955.2C1344.25 965.7 1363.208345 972.0 1394.708345 972.0C1446.333345 972.0 1474.333345 953.45 1482.5 913.9L1483.666655 908.3C1489.791655 878.55 1476.375 853.35 1441.666655 839.7L1420.958345 831.65C1409.583345 827.1 1405.5 821.15 1407.25 813.45L1407.541655 812.05C1409.875 800.5 1428.25 790.7 1448.083345 790.7C1450.416655 790.7 1454.5 791.05 1458.0 791.4L1457.254465 783.324205C1456.25672 784.06841 1455.571805 785.372615 1455.882325 785.136855C1455.072495 790.92106 1459.3116949999999 792.225265 1469.28834 789.74947C1473.21009 787.273675 1476.554095 784.23788 1479.200585 780.64212C1479.28287 772.846325 1479.954135 763.65053 1480.98716 754.734735C1482.040905 744.55894 1479.743715 735.783145 1475.50952 728.267385C1470.87076 720.61159 1464.32814 715.4757950000001 1456.833345 713.0Z" fill="#1a1a1a"/>
</svg>