<?xml version="1.0" encoding="UTF-8"?>
<svg xmlns="http://www.w3.org/2000/svg" width="1890.0" height="1057.5"
     viewBox="0 0 1890.0 1057.5">
<rect width="100%" height="100%" fill="white"/>
<text x="945.0" y="30" text-anchor="middle" font-size="14" font-family="sans-serif" font-weight="bold" fill="#333">Sans A Upright — Key glyphs + features</text><text x="187.5" y="48" text-anchor="middle" font-size="10" font-family="sans-serif" fill="#999">J</text><text x="362.5" y="48" text-anchor="middle" font-size="10" font-family="sans-serif" fill="#999">S</text><text x="537.5" y="48" text-anchor="middle" font-size="10" font-family="sans-serif" fill="#999">L</text><text x="712.5" y="48" text-anchor="middle" font-size="10" font-family="sans-serif" fill="#999">Z</text><text x="887.5" y="48" text-anchor="middle" font-size="10" font-family="sans-serif" fill="#999">f</text><text x="1062.5" y="48" text-anchor="middle" font-size="10" font-family="sans-serif" fill="#999">i</text><text x="1237.5" y="48" text-anchor="middle" font-size="10" font-family="sans-serif" fill="#999">l</text><text x="1412.5" y="48" text-anchor="middle" font-size="10" font-family="sans-serif" fill="#999">r</text><text x="1587.5" y="48" text-anchor="middle" font-size="10" font-family="sans-serif" fill="#999">@</text><text x="1762.5" y="48" text-anchor="middle" font-size="10" font-family="sans-serif" fill="#999">fi</text><text x="20" y="221.25" font-size="11" font-family="sans-serif" font-weight="bold" fill="#555">Linear</text><path d="M160.958345 290.55C146.083345 290.55 132.375 284.6 121.0 274.8H117.5C117.5 279.35 117.5 283.2 117.5 287.75C117.5 289.5 117.79165499999999 290.2 118.66665499999999 291.25C125.375 299.3 142.291655 307.0 160.083345 307.0C201.5 307.0 225.416655 274.45 225.416655 216.35000000000002C225.416655 163.1045 225.416655 108.24550000000002 225.416655 55.00000000000003C225.416655 52.20000000000002 223.95830999999998 50.80000000000001 220.3125 50.80000000000001C218.854155 50.80000000000001 217.395845 50.80000000000001 215.9375 50.80000000000001C212.29169 50.80000000000001 210.833345 52.20000000000002 210.833345 55.00000000000003C210.833345 55.00000000000003 210.833345 55.00000000000003 210.833345 55.00000000000003C210.833345 55.00000000000003 210.833345 55.00000000000003 210.833345 55.00000000000003C210.833345 107.899 210.833345 162.401 210.833345 215.3C210.833345 245.4 204.416655 263.6 194.791655 275.15C186.333345 285.3 174.375 290.55 160.958345 290.55Z" fill="#1a1a1a"/><path d="M367.458345 49.400000000000006C329.25 49.400000000000006 301.25 74.03508771930501 301.25 111.35000000000002V121.85000000000002C301.25 153.35000000000002 313.53045 169.735814246305 348.208345 182.05L376.791655 192.2C405.05954499999996 202.23797702978 413.541655 211.45 413.541655 233.85000000000002V240.85C413.541655 272.0 393.24036 289.15 362.208345 289.15C335.375 289.15 318.166655 283.2 300.958345 265.0H297.458345C297.458345 269.55 297.458345 273.989024390255 297.458345 278.65C297.458345 280.75 297.75 282.15 299.208345 283.9C309.88478 296.71172119584 333.598225 305.6 362.208345 305.6C404.208345 305.6 428.416655 279.889759036145 428.416655 241.9V230.7C428.416655 199.2918032787 414.43289500000003 186.58036384055504 379.125 174.35000000000002L350.833345 164.55C323.41536 155.052634494855 315.833345 141.8 315.833345 119.75V113.10000000000002C315.833345 84.4 336.71536 65.85000000000002 367.458345 65.85000000000002C392.25 65.85000000000002 409.458345 72.50000000000003 419.083345 85.10000000000002L414.994365 83.97261500000002C414.036555 81.72526500000001 413.04154 86.89788000000001 411.991995 91.93053C410.872065 91.78314500000002 410.13451 91.21579500000001 409.65108999999995 90.08841000000001C409.762705 88.96106000000003 409.76329999999996 87.83367500000003 409.64968999999996 86.70632500000002C407.905255 79.84467999999998 406.049765 72.97159000000002 404.089345 66.10420500000004C402.033025 63.99685500000001 399.65908 62.44947000000005 396.74813 60.48212000000001C390.515925 54.594735000000014 379.929895 50.52738500000001 367.458345 49.400000000000006Z" fill="#1a1a1a"/><path d="M479.458345 300.0H592.916655C592.916655 296.85 592.916655 291.6 592.916655 287.4C592.916655 284.6 592.041655 283.55 589.708345 283.55H490.833345C490.833345 208.65 490.833345 133.75 490.833345 58.85000000000002C490.833345 56.75000000000003 489.666655 55.00000000000003 487.625 55.00000000000003C483.833345 55.00000000000003 480.041655 55.00000000000003 476.25 55.00000000000003C476.25 66.55000000000001 476.25 78.45000000000002 476.25 90.0C476.25 123.60000000000002 476.25 217.05 476.25 296.15C476.25 298.6 477.416655 300.0 479.458345 300.0Z" fill="#1a1a1a"/><path d="M782.5 300.0C782.5 295.8 782.5 291.6 782.5 287.4C782.5 284.95 781.333345 283.55 779.291655 283.55H700.833345C681.875 283.55 671.375 283.55 659.416655 283.55V279.7C669.041655 263.95 678.958345 247.15 689.166655 230.35000000000002C724.75 170.5 762.083345 109.25 782.5 74.95000000000002V58.85000000000002C782.5 56.400000000000006 781.333345 55.00000000000003 779.291655 55.00000000000003H642.5C642.5 60.60000000000002 642.5 63.400000000000006 642.5 67.25000000000003C642.5 70.4 643.375 71.45000000000002 645.708345 71.45000000000002H712.208345C736.125 71.45000000000002 750.125 71.45000000000002 766.458345 71.45000000000002V75.30000000000001C755.375 93.5 744.583345 111.0 734.375 127.80000000000001C704.625 176.8 676.916655 223.0 642.5 280.05V296.15C642.5 298.6 643.666655 300.0 645.708345 300.0Z" fill="#1a1a1a"/><path d="M788.333345 349.7C788.333345 353.9 788.333345 358.1 788.333345 362.3C788.333345 364.75 789.5 366.15 791.541655 366.15C792.95835 366.15 804.69644 366.15 811.375 366.15C839.375 366.15 849.583345 351.45 849.583345 321.7C849.583345 263.6 849.583345 162.45000000000002 849.583345 103.30000000000001C849.583345 83.70000000000002 852.5 70.05000000000001 859.208345 61.650000000000006C865.21662 54.09672582578503 874.321975 50.45000000000002 886.916655 50.45000000000002C895.185405 50.45000000000002 903.953815 52.61188989978501 911.416655 55.00000000000003C911.416655 64.45000000000002 911.416655 73.20000000000002 911.416655 82.65V86.85000000000002C915.208345 86.85000000000002 918.416655 86.85000000000002 922.208345 86.85000000000002C924.25 86.85000000000002 925.416655 85.45000000000002 925.416655 83.0V46.95000000000002C925.416655 45.55000000000001 925.125 44.85000000000002 924.541655 44.150000000000006C921.502395 40.50286584251501 904.354005 34.0 888.083345 34.0C855.833785 34.0 835.0 53.60000000000002 835.0 105.4C835.0 175.75 835.0 249.95 835.0 320.3C835.0 331.85 833.833345 338.85 830.041655 343.4C826.25 347.95 819.833345 349.7 810.5 349.7C804.1454 349.7 798.187945 349.7 791.833345 349.7ZM811.666655 169.8C811.666655 174.35000000000002 811.666655 177.5 811.666655 182.05C811.666655 184.5 812.833345 185.9 814.875 185.9H899.166655C899.166655 181.35000000000002 899.166655 178.2 899.166655 173.65C899.166655 171.20000000000002 898.0 169.8 895.958345 169.8Z" fill="#1a1a1a"/><path d="M983.75 115.9C983.75 120.10000000000002 983.75 124.30000000000001 983.75 128.5C983.75 130.95000000000002 984.916655 132.35000000000002 986.958345 132.35000000000002C998.333345 132.35000000000002 1003.875 132.35000000000002 1015.25 132.35000000000002H1018.75C1018.75 173.65 1018.75 217.75 1018.75 257.65C1018.75 286.0 1027.5 300.0 1052.291655 300.0C1058.125 300.0 1062.791655 300.0 1065.125 300.0C1067.166655 300.0 1068.333345 298.6 1068.333345 296.15C1068.333345 291.95 1068.333345 287.75 1068.333345 283.55H1064.833345C1058.708345 283.55 1056.958345 283.55 1051.708345 283.55C1045.0 283.55 1040.916655 282.5 1037.708345 278.65C1034.208345 274.45 1033.333345 268.15 1033.333345 258.0C1033.333345 216.0 1033.333345 165.25 1033.333345 119.75C1033.333345 117.30000000000001 1032.166655 115.9 1030.125 115.9C1012.625 115.9 1001.25 115.9 983.75 115.9ZM1007.841655 49.400000000000006C1007.841655 59.45186000000001 1015.989795 67.60000000000002 1026.041655 67.60000000000002C1036.093515 67.60000000000002 1044.241655 59.45186000000001 1044.241655 49.400000000000006C1044.241655 39.34814 1036.093515 31.200000000000045 1026.041655 31.200000000000045C1015.989795 31.200000000000045 1007.841655 39.34814 1007.841655 49.400000000000006Z" fill="#1a1a1a"/><path d="M1167.5 37.5C1167.5 41.69999999999999 1167.5 45.900000000000006 1167.5 50.10000000000002C1167.5 52.55000000000001 1168.666655 53.95000000000002 1170.708345 53.95000000000002C1173.333345 53.95000000000002 1182.083345 53.95000000000002 1184.708345 53.95000000000002H1187.916655C1187.916655 94.9 1187.916655 214.60000000000002 1187.916655 262.2C1187.916655 288.45 1198.125 300.0 1219.708345 300.0C1225.25 300.0 1228.75 300.0 1230.791655 300.0C1232.833345 300.0 1234.0 298.6 1234.0 296.15C1234.0 291.95 1234.0 287.75 1234.0 283.55H1230.5C1229.333345 283.55 1227.0 283.55 1224.666655 283.55C1217.666655 283.55 1210.666655 283.2 1206.875 278.65C1203.083345 274.1 1202.5 268.5 1202.5 256.95C1202.5 212.15 1202.5 86.15 1202.5 41.35000000000002C1202.5 38.900000000000034 1201.333345 37.5 1199.291655 37.5C1195.791655 37.5 1176.25 37.5 1167.5 37.5Z" fill="#1a1a1a"/><path d="M1333.75 115.9C1333.75 120.10000000000002 1333.75 124.65 1333.75 128.85000000000002C1333.75 131.3 1334.916655 132.70000000000002 1336.958345 132.70000000000002C1341.770845 132.70000000000002 1346.729155 132.70000000000002 1351.541655 132.70000000000002H1355.625C1355.625 187.3 1355.625 241.55 1355.625 296.15C1355.625 298.6 1356.791655 300.0 1358.833345 300.0C1362.625 300.0 1366.416655 300.0 1370.208345 300.0C1370.208345 288.1 1370.208345 276.2 1370.208345 264.65C1370.208345 226.5 1370.208345 189.05 1370.208345 150.55C1370.208345 150.20000000000002 1367.291655 115.9 1367.0 115.9C1356.051825 115.9 1344.698175 115.9 1333.75 115.9ZM1416.583345 114.15C1398.5 114.15 1385.083345 125.0 1373.708345 147.75H1366.125V185.55C1384.70167 143.055900071335 1397.041655 130.95000000000002 1413.666655 130.95000000000002C1418.916655 130.95000000000002 1423.0 131.65 1427.083345 133.05C1427.083345 146.70000000000002 1427.083345 156.85000000000002 1427.083345 169.1V173.3C1430.875 173.3 1434.666655 173.3 1438.458345 173.3C1440.5 173.3 1441.666655 171.9 1441.666655 169.45000000000002V125.70000000000002C1441.666655 124.65 1441.375 123.25 1440.5 122.20000000000002C1437.291655 118.35000000000002 1427.375 114.15 1416.583345 114.15Z" fill="#1a1a1a"/><path d="M1539.375 174.7V232.45C1539.375 320.3 1573.208345 360.9 1659.541655 360.9C1701.833345 360.9 1730.708345 351.8 1741.208345 343.05C1742.958345 341.65 1742.958345 340.6 1742.958345 338.15C1742.958345 334.65 1742.958345 329.75 1742.958345 326.25H1739.458345C1719.041655 337.45 1696.291655 344.45 1658.375 344.45C1619.291655 344.45 1594.5 335.35 1577.875 317.85C1561.833345 300.7 1553.958345 280.4 1553.958345 232.10000000000002V175.05C1553.958345 112.75 1589.25 61.30000000000001 1656.041655 61.30000000000001C1690.458345 61.30000000000001 1712.041655 69.70000000000002 1729.25 88.95000000000002C1746.166655 109.25 1752.291655 132.0 1752.291655 167.70000000000002C1752.291655 196.75 1752.291655 246.8 1752.291655 275.85C1752.291655 277.95 1753.75 279.7 1755.5 279.7H1766.875C1766.875 277.25 1766.875 274.45 1766.875 272.0C1766.875 244.35 1766.875 195.7 1766.875 168.05C1766.875 94.20000000000002 1734.5 44.50000000000003 1656.041655 44.50000000000003C1582.25 44.50000000000003 1539.375 102.95000000000002 1539.375 174.7ZM1758.125 219.5C1736.541655 257.3 1716.125 266.4 1687.25 266.4C1657.208345 266.4 1643.208345 252.05 1643.208345 221.95V212.5C1643.208345 197.8 1645.833345 187.3 1653.125 178.55C1660.416655 169.8 1670.916655 165.60000000000002 1695.708345 165.60000000000002C1721.083345 165.60000000000002 1735.958345 165.60000000000002 1760.166655 165.60000000000002V149.15H1755.791655C1733.625 149.15 1715.541655 149.15 1693.375 149.15C1647.875 149.15 1628.625 172.25 1628.625 212.15V222.3C1628.625 263.95 1650.208345 283.2 1686.083345 283.2C1713.5 283.2 1732.166655 276.55 1749.375 254.85H1758.125Z" fill="#1a1a1a"/><path d="M1663.333345 349.7C1663.333345 353.9 1663.333345 358.1 1663.333345 362.3C1663.333345 364.75 1664.5 366.15 1666.541655 366.15C1667.95835 366.15 1679.69644 366.15 1686.375 366.15C1714.375 366.15 1724.583345 351.45 1724.583345 321.7C1724.583345 263.6 1724.583345 162.45000000000002 1724.583345 103.30000000000001C1724.583345 83.70000000000002 1727.5 70.05000000000001 1734.208345 61.650000000000006C1740.21662 54.09672582578503 1749.321975 50.45000000000002 1761.916655 50.45000000000002C1770.185405 50.45000000000002 1778.953815 52.61188989978501 1786.416655 55.00000000000003C1786.416655 64.45000000000002 1786.416655 73.20000000000002 1786.416655 82.65V86.85000000000002C1790.208345 86.85000000000002 1793.416655 86.85000000000002 1797.208345 86.85000000000002C1799.25 86.85000000000002 1800.416655 85.45000000000002 1800.416655 83.0V46.95000000000002C1800.416655 45.55000000000001 1800.125 44.85000000000002 1799.541655 44.150000000000006C1796.502395 40.50286584251501 1779.354005 34.0 1763.083345 34.0C1730.833785 34.0 1710.0 53.60000000000002 1710.0 105.4C1710.0 175.75 1710.0 249.95 1710.0 320.3C1710.0 331.85 1708.833345 338.85 1705.041655 343.4C1701.25 347.95 1694.833345 349.7 1685.5 349.7C1679.1454 349.7 1673.187945 349.7 1666.833345 349.7ZM1686.666655 169.8C1686.666655 174.35000000000002 1686.666655 177.5 1686.666655 182.05C1686.666655 184.5 1687.833345 185.9 1689.875 185.9H1774.166655C1774.166655 181.35000000000002 1774.166655 178.2 1774.166655 173.65C1774.166655 171.20000000000002 1773.0 169.8 1770.958345 169.8ZM1800.416655 115.9C1800.416655 120.10000000000002 1800.416655 124.30000000000001 1800.416655 128.5C1800.416655 130.95000000000002 1801.58331 132.35000000000002 1803.625 132.35000000000002C1815.0 132.35000000000002 1820.541655 132.35000000000002 1831.916655 132.35000000000002H1835.416655C1835.416655 173.65 1835.416655 217.75 1835.416655 257.65C1835.416655 286.0 1844.166655 300.0 1868.95831 300.0C1874.791655 300.0 1879.45831 300.0 1881.791655 300.0C1883.83331 300.0 1885.0 298.6 1885.0 296.15C1885.0 291.95 1885.0 287.75 1885.0 283.55H1881.5C1875.375 283.55 1873.625 283.55 1868.375 283.55C1861.666655 283.55 1857.58331 282.5 1854.375 278.65C1850.875 274.45 1850.0 268.15 1850.0 258.0C1850.0 216.0 1850.0 165.25 1850.0 119.75C1850.0 117.30000000000001 1848.83331 115.9 1846.791655 115.9C1829.291655 115.9 1817.916655 115.9 1800.416655 115.9ZM1824.50831 49.400000000000006C1824.50831 59.45186000000001 1832.65645 67.60000000000002 1842.70831 67.60000000000002C1852.76017 67.60000000000002 1860.90831 59.45186000000001 1860.90831 49.400000000000006C1860.90831 39.34814 1852.76017 31.200000000000045 1842.70831 31.200000000000045C1832.65645 31.200000000000045 1824.50831 39.34814 1824.50831 49.400000000000006Z" fill="#1a1a1a"/><line x1="20" y1="382.5" x2="1870.0" y2="382.5" stroke="#eee" stroke-width="0.5"/><text x="20" y="553.75" font-size="11" font-family="sans-serif" font-weight="bold" fill="#555">SemiCasual</text><path d="M160.375 622.525C142.145845 622.525 131.0625 617.45 118.66665499999999 607.825H116.04165499999999C116.04165499999999 610.8 116.04165499999999 613.25 116.04165499999999 616.225C116.04165499999999 620.425 116.47915499999999 623.575 117.9375 625.5C124.0625 633.375 138.0625 639.5 159.645845 639.5C201.9375 639.5 223.229155 605.2 223.229155 556.375C223.229155 500.64625 223.229155 443.22875 223.229155 387.5C223.229155 384.70000000000005 221.77080999999998 383.3 218.125 383.3C216.666655 383.3 215.208345 383.3 213.75 383.3C210.10419 383.3 208.645845 384.70000000000005 208.645845 387.5C208.645845 387.5 208.645845 387.5 208.645845 387.5C208.645845 387.5 208.645845 387.5 208.645845 387.5C208.645845 441.55400000000003 208.645845 497.246 208.645845 551.3C208.645845 580.525 202.520845 598.55 192.604155 610.8C183.854155 619.025 173.5 622.525 160.375 622.525Z" fill="#1a1a1a"/><path d="M367.458345 381.9C329.25 381.9 301.25 406.535087719305 301.25 443.85V454.35C301.25 485.85 313.53045 502.23581424630504 348.208345 514.55L376.791655 524.7C405.05954499999996 534.73797702978 413.541655 543.95 413.541655 566.35V573.35C413.541655 604.5 393.24036 621.65 362.208345 621.65C335.375 621.65 318.166655 615.7 300.958345 597.5H297.458345C297.458345 602.05 297.458345 606.489024390255 297.458345 611.15C297.458345 613.25 297.75 614.65 299.208345 616.4C309.88478 629.21172119584 333.598225 638.1 362.208345 638.1C404.208345 638.1 428.416655 612.389759036145 428.416655 574.4V563.2C428.416655 531.7918032787 414.43289500000003 519.080363840555 379.125 506.85L350.833345 497.05C323.41536 487.552634494855 315.833345 474.3 315.833345 452.25V445.6C315.833345 416.9 336.71536 398.35 367.458345 398.35C392.25 398.35 409.458345 405.0 419.083345 417.6L419.360685 417.313735C418.851435 416.49658999999997 417.62762499999997 415.21097000000003 415.762195 413.51941999999997C413.32962499999996 411.48431000000005 410.40635499999996 409.16814999999997 407.07102999999995 406.633415C403.405025 403.94251 399.492445 401.15791 395.420545 398.34209C391.27966 395.55749000000003 387.16317 392.866585 383.167535 390.33185000000003C379.392155 388.01569 375.938915 385.98058000000003 372.912045 384.28903C370.417735 383.00341000000003 368.56361 382.18626500000005 367.458345 381.9Z" fill="#1a1a1a"/><path d="M484.5625 632.5C484.5625 632.5 595.8333275 632.5 595.8333275 632.5C595.8333275 629.875 595.8333275 626.2 595.8333275 623.225C595.8333275 618.15 594.0833275 615.525 590.875 615.525C590.875 615.525 492.2916725 615.525 492.2916725 615.525C492.2916725 543.075 492.2916725 470.625 492.2916725 398.175C492.2916725 392.75 491.416655 385.75 485.1458275 385.75C482.083345 385.75 479.4583275 385.925 476.6875 386.275C477.5625 398.175 477.7083275 407.625 477.7083275 421.8C477.7083275 471.15 477.7083275 551.475 477.7083275 621.3C477.7083275 627.6 480.3333275 632.5 484.5625 632.5Z" fill="#1a1a1a"/><path d="M782.5 632.5C782.5 629.525 782.5 626.375 782.5 623.4C782.5 618.15 781.1875 615.525 777.541655 615.525C777.541655 615.525 706.520845 615.525 706.520845 615.525C689.3125 615.525 676.3333275 615.875 661.8958275 616.225C661.8958275 616.225 661.604155 613.075 661.604155 613.075C674.5833275 597.15 686.833345 580.525 698.2083275 564.075C743.4166725 498.625 772.2916725 433.70000000000005 782.5 406.225C782.5 406.225 782.5 397.125 782.5 397.125C782.5 390.475 779.7291725 387.5 776.375 387.5C776.375 387.5 644.25 387.5 644.25 387.5C644.1041725 390.82500000000005 643.9583275 393.1 643.9583275 396.07500000000005C643.9583275 400.975 644.9791725 404.475 648.770845 404.475C648.770845 404.475 712.3541725 404.475 712.3541725 404.475C733.3541725 404.475 748.5208275 404.475 766.895845 403.95000000000005C766.895845 403.95000000000005 767.4791725 406.75 767.4791725 406.75C760.1875 425.3 751.875 443.675 742.6875 461.35C716.4375 513.15 682.75 562.675 642.5 613.775C642.5 613.775 642.5 623.575 642.5 623.575C642.5 628.825 643.8125 632.5 647.458345 632.5C647.458345 632.5 782.5 632.5 782.5 632.5Z" fill="#1a1a1a"/><path d="M787.895845 676.425C787.75 679.4 787.6041725 682.9 787.6041725 686.4C787.6041725 690.6 788.9166725 693.925 791.541655 695.85C794.729175 698.825 803.9523925 699.35 811.5208275 699.35C837.7805575 699.35 849.583345 683.075 849.583345 649.125C849.583345 588.925 849.583345 504.05 849.583345 443.15C849.583345 418.475 852.9375 403.25 860.2291725 394.32500000000005C867.0249825 385.9983629128925 875.07766 383.125 886.7708275 383.125C896.009375 383.125 903.747735 385.7809449498925 909.9583275 389.425C910.6875 400.975 910.104155 413.05 908.6458275 424.25C908.6458275 424.25 908.6458275 427.4 908.6458275 427.4C911.270845 427.57500000000005 913.4583275 427.75 915.9375 427.75C920.6041725 427.75 923.8125 420.4 923.8125 410.775C923.8125 410.775 923.8125 390.475 923.8125 390.475C923.8125 385.77500000000754 922.2739 381.4536872714075 919.291655 377.875C914.8251475 372.8874098371475 902.4895025 367.02500000000003 887.645845 367.02500000000003C854.6043925 367.02500000000003 835.0 388.55 835.0 443.15C835.0 510.0 835.0 579.65 835.0 646.325C835.0 660.85 833.9791725 668.725 830.625 675.025C826.0196475 680.241761329325 819.5092625 682.375 810.6458275 682.375C803.0935275 682.375 797.0523 680.975 790.520845 676.425C790.520845 676.425 787.895845 676.425 787.895845 676.425ZM811.666655 508.95C811.666655 511.75 811.666655 514.025 811.666655 516.825C811.666655 521.9 813.270845 525.75 818.0833275 525.75C818.0833275 525.75 905.0 525.75 905.0 525.75C905.0 522.95 905.0 520.675 905.0 517.875C905.0 512.8 903.6875 508.95 900.0416725 508.95C900.0416725 508.95 811.666655 508.95 811.666655 508.95Z" fill="#1a1a1a"/><path d="M984.1875 448.57500000000005C983.8958275 451.55 983.75 454.70000000000005 983.75 458.025C983.75 462.57500000000005 985.5 465.55 988.708345 465.55C996.145845 465.55 1002.4166725 463.625 1015.3958275 462.4C1015.3958275 462.4 1017.7291725 462.925 1017.7291725 462.925C1017.7291725 503.525 1017.7291725 545.35 1017.7291725 585.25C1017.7291725 618.15 1027.5 634.425 1049.0833275 634.425C1055.7916725 634.425 1061.479155 633.025 1064.5416725 630.75C1067.166655 628.825 1068.4791725 625.5 1068.4791725 621.3C1068.4791725 617.8 1068.333345 614.3 1068.1875 611.325C1068.1875 611.325 1065.5625 611.325 1065.5625 611.325C1059.7291725 615.0 1055.9375 617.45 1049.2291725 617.45C1043.5416725 617.45 1039.75 616.575 1036.395845 612.55C1033.0416725 606.075 1032.3125 598.025 1032.3125 583.325C1032.3125 541.85 1032.3125 496.0 1032.3125 452.775C1032.3125 448.4 1028.8125 446.82500000000005 1023.8541725 446.82500000000005C1011.1666725 446.82500000000005 1000.375 447.35 984.1875 448.57500000000005ZM1004.236655 382.95000000000005C1004.236655 382.95000000000005 1004.236655 382.95000000000005 1004.236655 382.95000000000005C1004.236655 394.50964250000004 1013.6070125 403.88 1025.166655 403.88C1036.7262975 403.88 1046.096655 394.50964250000004 1046.096655 382.95000000000005C1046.096655 382.95000000000005 1046.096655 382.95000000000005 1046.096655 382.95000000000005C1046.096655 371.3903575 1036.7262975 362.02000000000004 1025.166655 362.02000000000004C1013.6070125 362.02000000000004 1004.236655 371.3903575 1004.236655 382.95000000000005Z" fill="#1a1a1a"/><path d="M1163.8541725 370.0C1163.5625 372.975 1163.4166725 376.82500000000005 1163.4166725 380.5C1163.4166725 384.70000000000005 1165.166655 386.975 1168.375 386.975C1172.75 386.975 1181.208345 385.4 1185.0 383.82500000000005C1185.0 383.82500000000005 1187.1875 384.525 1187.1875 384.525C1187.1875 438.425 1187.1875 531.875 1187.1875 589.275C1187.1875 619.9 1197.9791725 634.25 1218.1041725 634.25C1224.375 634.25 1229.625 633.025 1232.541655 630.4C1235.020845 628.475 1236.4791725 624.975 1236.4791725 621.125C1236.4791725 617.625 1236.3333275 614.3 1236.0416725 611.15C1236.0416725 611.15 1233.4166725 611.15 1233.4166725 611.15C1230.0625 615.175 1225.8333275 617.275 1220.5833275 617.275C1214.604155 617.275 1209.5 616.75 1205.8541725 612.375C1202.5 606.075 1201.7708275 598.9 1201.7708275 584.375C1201.7708275 528.025 1201.7708275 430.55 1201.7708275 374.2C1201.7708275 369.825 1198.270845 368.25 1194.3333275 368.25C1188.354155 368.25 1172.1666725 369.125 1163.8541725 370.0Z" fill="#1a1a1a"/><path d="M1333.8958275 448.4C1333.6041725 451.375 1333.4583275 454.70000000000005 1333.4583275 458.025C1333.4583275 462.75 1335.354155 465.55 1338.4166725 465.55C1342.1271275 465.55 1347.822905 464.5 1353.0 461.875C1353.0 461.875 1355.625 462.57500000000005 1355.625 462.57500000000005C1355.625 514.9 1355.625 567.05 1355.625 619.375C1355.625 630.925 1358.8333275 633.55 1363.3541725 633.55C1366.4166725 633.55 1369.3333275 633.375 1372.1041725 632.85C1370.645845 620.95 1370.208345 611.15 1370.208345 596.625C1370.208345 563.025 1370.208345 532.75 1370.208345 497.05C1370.208345 466.25 1367.729155 446.65 1363.2083275 446.65C1353.6108025 446.65 1343.5990875 447.175 1333.8958275 448.4ZM1417.6041725 445.07500000000005C1398.6458275 445.07500000000005 1383.4791725 462.75 1372.9791725 493.20000000000005C1372.9791725 493.20000000000005 1366.2708275 493.20000000000005 1366.2708275 493.20000000000005C1366.2708275 493.20000000000005 1367.4375 536.6 1367.4375 536.6C1382.9426925 486.206004202995 1397.88148 462.57500000000005 1415.854155 462.57500000000005C1421.104155 462.57500000000005 1425.0416725 463.275 1428.5416725 464.85C1429.125 476.925 1428.5416725 490.225 1427.375 502.3C1427.375 502.3 1427.375 505.45 1427.375 505.45C1429.7083275 505.8 1432.041655 505.8 1434.375 505.8C1439.625 505.8 1442.8333275 499.15 1442.8333275 487.6C1442.8333275 487.6 1442.8333275 463.45000000000005 1442.8333275 463.45000000000005C1442.8333275 460.475 1441.6666725 456.8 1439.0416725 453.65C1435.25 449.1 1427.2291725 445.07500000000005 1417.6041725 445.07500000000005Z" fill="#1a1a1a"/><path d="M1533.25 531.0C1533.25 531.0 1533.25 561.1 1533.25 561.1C1533.25 652.1 1574.958345 694.45 1659.25 694.45C1697.75 694.45 1729.9791725 684.125 1738.875 676.95C1741.3541725 675.025 1742.2291725 670.3 1742.2291725 666.1C1742.2291725 663.825 1742.2291725 661.025 1742.2291725 658.75C1742.2291725 658.75 1739.6041725 658.75 1739.6041725 658.75C1717.0 671.35 1691.1875 677.475 1655.3125 677.475C1620.604155 677.475 1595.0833275 668.375 1575.9791725 652.625C1558.770845 634.25 1547.833345 606.425 1547.833345 561.975C1547.833345 561.975 1547.833345 531.875 1547.833345 531.875C1547.833345 450.675 1595.6666725 394.15 1664.0625 394.15C1691.4791725 394.15 1710.4375 400.275 1727.2083275 413.75C1743.25 433.175 1749.666655 453.125 1749.666655 483.925C1749.666655 516.3 1749.666655 574.05 1749.666655 606.425C1749.666655 613.425 1753.75 616.575 1759.2916725 616.575C1759.2916725 616.575 1765.8541725 616.575 1765.8541725 616.575C1764.3958275 610.1 1764.25 606.95 1764.25 597.5C1764.25 567.225 1764.25 511.75 1764.25 487.425C1764.25 422.32500000000005 1736.8333275 377.0 1664.9375 377.0C1585.8958275 377.0 1533.25 443.85 1533.25 531.0ZM1755.2083275 547.625C1736.541655 584.375 1713.2083275 602.4 1682.2916725 602.4C1652.833345 602.4 1638.395845 584.9 1638.395845 553.05C1638.395845 553.05 1638.395845 547.625 1638.395845 547.625C1638.395845 529.95 1641.3125 516.825 1649.3333275 504.925C1657.791655 496.875 1669.166655 492.15 1691.625 492.15C1716.708345 492.15 1734.3541725 497.57500000000005 1755.354155 505.975C1755.354155 505.975 1755.354155 486.55 1755.354155 486.55C1755.354155 486.55 1750.541655 486.55 1750.541655 486.55C1732.6041725 481.475 1714.375 475.175 1689.2916725 475.175C1645.1041725 475.175 1623.5208275 503.70000000000005 1623.5208275 548.325C1623.5208275 548.325 1623.5208275 554.275 1623.5208275 554.275C1623.5208275 595.575 1645.25 619.55 1680.5416725 619.55C1710.2916725 619.55 1731.729155 606.25 1747.3333275 584.025C1747.3333275 584.025 1755.2083275 584.025 1755.2083275 584.025C1755.2083275 584.025 1755.2083275 547.625 1755.2083275 547.625Z" fill="#1a1a1a"/><path d="M1662.895845 676.425C1662.75 679.4 1662.6041725 682.9 1662.6041725 686.4C1662.6041725 690.6 1663.9166725 693.925 1666.541655 695.85C1669.729175 698.825 1678.9523925 699.35 1686.5208275 699.35C1712.7805575 699.35 1724.583345 683.075 1724.583345 649.125C1724.583345 588.925 1724.583345 504.05 1724.583345 443.15C1724.583345 418.475 1727.9375 403.25 1735.2291725 394.32500000000005C1742.0249825 385.9983629128925 1750.07766 383.125 1761.7708275 383.125C1771.009375 383.125 1778.747735 385.7809449498925 1784.9583275 389.425C1785.6875 400.975 1785.104155 413.05 1783.6458275 424.25C1783.6458275 424.25 1783.6458275 427.4 1783.6458275 427.4C1786.270845 427.57500000000005 1788.4583275 427.75 1790.9375 427.75C1795.6041725 427.75 1798.8125 420.4 1798.8125 410.775C1798.8125 410.775 1798.8125 390.475 1798.8125 390.475C1798.8125 385.77500000000754 1797.2739 381.4536872714075 1794.291655 377.875C1789.8251475 372.8874098371475 1777.4895025 367.02500000000003 1762.645845 367.02500000000003C1729.6043925 367.02500000000003 1710.0 388.55 1710.0 443.15C1710.0 510.0 1710.0 579.65 1710.0 646.325C1710.0 660.85 1708.9791725 668.725 1705.625 675.025C1701.0196475 680.241761329325 1694.5092625 682.375 1685.6458275 682.375C1678.0935275 682.375 1672.0523 680.975 1665.520845 676.425C1665.520845 676.425 1662.895845 676.425 1662.895845 676.425ZM1686.666655 508.95C1686.666655 511.75 1686.666655 514.025 1686.666655 516.825C1686.666655 521.9 1688.270845 525.75 1693.0833275 525.75C1693.0833275 525.75 1780.0 525.75 1780.0 525.75C1780.0 522.95 1780.0 520.675 1780.0 517.875C1780.0 512.8 1778.6875 508.95 1775.0416725 508.95C1775.0416725 508.95 1686.666655 508.95 1686.666655 508.95ZM1800.854155 448.57500000000005C1800.5624825 451.55 1800.416655 454.70000000000005 1800.416655 458.025C1800.416655 462.57500000000005 1802.166655 465.55 1805.375 465.55C1812.8125 465.55 1819.0833275 463.625 1832.0624825 462.4C1832.0624825 462.4 1834.3958275 462.925 1834.3958275 462.925C1834.3958275 503.525 1834.3958275 545.35 1834.3958275 585.25C1834.3958275 618.15 1844.166655 634.425 1865.7499825 634.425C1872.4583275 634.425 1878.14581 633.025 1881.2083275 630.75C1883.83331 628.825 1885.1458275 625.5 1885.1458275 621.3C1885.1458275 617.8 1885.0 614.3 1884.854155 611.325C1884.854155 611.325 1882.229155 611.325 1882.229155 611.325C1876.3958275 615.0 1872.604155 617.45 1865.8958275 617.45C1860.2083275 617.45 1856.416655 616.575 1853.0625 612.55C1849.7083275 606.075 1848.979155 598.025 1848.979155 583.325C1848.979155 541.85 1848.979155 496.0 1848.979155 452.775C1848.979155 448.4 1845.479155 446.82500000000005 1840.5208275 446.82500000000005C1827.8333275 446.82500000000005 1817.041655 447.35 1800.854155 448.57500000000005ZM1820.90331 382.95000000000005C1820.90331 382.95000000000005 1820.90331 382.95000000000005 1820.90331 382.95000000000005C1820.90331 394.50964250000004 1830.2736674999999 403.88 1841.83331 403.88C1853.3929525 403.88 1862.76331 394.50964250000004 1862.76331 382.95000000000005C1862.76331 382.95000000000005 1862.76331 382.95000000000005 1862.76331 382.95000000000005C1862.76331 371.3903575 1853.3929525 362.02000000000004 1841.83331 362.02000000000004C1830.2736674999999 362.02000000000004 1820.90331 371.3903575 1820.90331 382.95000000000005Z" fill="#1a1a1a"/><line x1="20" y1="715.0" x2="1870.0" y2="715.0" stroke="#eee" stroke-width="0.5"/><text x="20" y="886.25" font-size="11" font-family="sans-serif" font-weight="bold" fill="#555">Casual</text><path d="M159.791655 954.5C138.208345 954.5 129.75 950.3 116.333345 940.85H114.583345C114.583345 942.25 114.583345 943.3 114.583345 944.7C114.583345 951.35 115.16665499999999 956.95 117.208345 959.75C122.75 967.45 133.833345 972.0 159.208345 972.0C202.375 972.0 221.041655 935.95 221.041655 896.4C221.041655 838.188 221.041655 778.212 221.041655 720.0C221.041655 717.2 219.58330999999998 715.8 215.9375 715.8C214.479155 715.8 213.020845 715.8 211.5625 715.8C207.91669 715.8 206.458345 717.2 206.458345 720.0C206.458345 720.0 206.458345 720.0 206.458345 720.0C206.458345 720.0 206.458345 720.0 206.458345 720.0C206.458345 775.2090000000001 206.458345 832.091 206.458345 887.3C206.458345 915.65 200.625 933.5 190.416655 946.45C181.375 952.75 172.625 954.5 159.791655 954.5Z" fill="#1a1a1a"/><path d="M385.25 713.0C344.125 713.0 301.25 767.95 301.25 811.7V815.2C301.25 839.0 314.958345 853.35 354.041655 870.85L379.125 882.05C402.166655 892.2 412.375 902.7 415.0 917.05V918.1C410.041655 939.8 391.666655 951.7 362.5 951.7C332.75 951.7 313.791655 940.85 300.958345 919.5H299.208345C298.041655 923.35 297.458345 927.2 297.458345 932.45C297.458345 938.05 298.625 941.9 302.416655 946.45C314.375 960.8 335.666655 969.2 362.5 969.2C401.291655 969.2 427.833345 948.55 427.833345 916.35V914.6C427.833345 893.25 412.666655 877.85 382.333345 864.55L357.541655 853.7C321.083345 837.95 315.833345 826.75 315.833345 814.5V812.05C315.833345 775.65 353.166655 730.5 385.25 730.5C392.541655 730.5 401.291655 731.55 406.833345 738.2C406.95 737.15 406.95 736.1 407.088915 735.1347350000001C405.98127 729.8589400000001 404.089345 724.023145 400.02707 719.867385C396.49357499999996 716.41159 392.10622 713.795795 385.25 713.0Z" fill="#1a1a1a"/><path d="M489.666655 965.0H598.75C598.75 962.9 598.75 960.8 598.75 959.05C598.75 951.7 596.125 947.5 592.041655 947.5H493.75C493.75 877.5 493.75 807.5 493.75 737.5C493.75 728.75 493.166655 716.5 482.666655 716.5C480.333345 716.5 478.875 716.85 477.125 717.55C478.875 729.8 479.166655 736.8 479.166655 753.6C479.166655 818.7 479.166655 885.9 479.166655 946.45C479.166655 956.6 483.25 965.0 489.666655 965.0Z" fill="#1a1a1a"/><path d="M782.5 965.0C782.5 963.25 782.5 961.15 782.5 959.4C782.5 951.35 781.041655 947.5 775.791655 947.5H712.208345C696.75 947.5 681.291655 948.2 664.375 948.9L663.791655 946.45C680.125 930.35 694.708345 913.9 707.25 897.8C762.083345 826.75 782.5 758.15 782.5 737.5V735.4C782.5 724.55 778.125 720.0 773.458345 720.0H646.0C645.708345 721.05 645.416655 722.8 645.416655 724.9C645.416655 731.55 646.583345 737.5 651.833345 737.5H712.5C730.583345 737.5 746.916655 737.5 767.333345 736.45L768.5 738.2C765.0 757.1 759.166655 776.35 751.0 794.9C728.25 849.5 688.583345 902.35 642.5 947.5V951.0C642.5 959.05 643.958345 965.0 649.208345 965.0Z" fill="#1a1a1a"/><path d="M787.458345 1003.15C787.166655 1004.9 786.875 1007.7 786.875 1010.5C786.875 1016.45 788.333345 1021.7 791.541655 1025.55C796.5 1031.5 803.208345 1032.55 811.666655 1032.55C836.186115 1032.55 849.583345 1014.7 849.583345 976.55C849.583345 914.25 849.583345 845.65 849.583345 783.0C849.583345 753.25 853.375 736.45 861.25 727.0C868.833345 717.9 875.833345 715.8 886.625 715.8C896.833345 715.8 903.541655 718.95 908.5 723.85C909.958345 737.5 908.791655 752.9 905.875 765.85V767.95C907.333345 768.3 908.5 768.65 909.666655 768.65C916.958345 768.65 922.208345 755.35 922.208345 738.55V734.0C922.208345 726.000000000015 919.4228 718.0573745428151 914.041655 711.6C908.1479 705.27195383178 900.625 700.05 887.208345 700.05C853.375 700.05 835.0 723.5 835.0 780.9C835.0 844.25 835.0 909.35 835.0 972.35C835.0 989.85 834.125 998.6 831.208345 1006.65C825.789295 1012.53352265865 819.18518 1015.05 810.791655 1015.05C802.041655 1015.05 795.916655 1012.25 789.208345 1003.15ZM811.666655 848.1C811.666655 849.15 811.666655 850.55 811.666655 851.6C811.666655 859.3 813.708345 865.6 821.291655 865.6H910.833345C910.833345 864.55 910.833345 863.15 910.833345 862.1C910.833345 854.4 909.375 848.1 904.125 848.1Z" fill="#1a1a1a"/><path d="M984.625 781.25C984.041655 783.0 983.75 785.1 983.75 787.55C983.75 794.2 986.083345 798.75 990.458345 798.75C993.958345 798.75 1000.958345 794.9 1015.541655 792.45L1016.708345 793.5C1016.708345 833.4 1016.708345 872.95 1016.708345 912.85C1016.708345 950.3 1027.5 968.85 1045.875 968.85C1053.458345 968.85 1060.166655 966.05 1063.958345 961.5C1067.166655 957.65 1068.625 952.4 1068.625 946.45C1068.625 943.65 1068.333345 940.85 1068.041655 939.1H1066.291655C1060.75 946.45 1054.916655 951.35 1046.75 951.35C1042.083345 951.35 1038.583345 950.65 1035.083345 946.45C1031.875 937.7 1031.291655 927.9 1031.291655 908.65C1031.291655 867.7 1031.291655 826.75 1031.291655 785.8C1031.291655 779.5 1025.458345 777.75 1017.583345 777.75C1009.708345 777.75 999.5 778.8 984.625 781.25ZM1000.631655 716.5C1000.631655 729.567425 1011.22423 740.1600000000001 1024.291655 740.1600000000001C1037.35908 740.1600000000001 1047.951655 729.567425 1047.951655 716.5C1047.951655 703.432575 1037.35908 692.84 1024.291655 692.84C1011.22423 692.84 1000.631655 703.432575 1000.631655 716.5Z" fill="#1a1a1a"/><path d="M1160.208345 702.5C1159.625 704.25 1159.333345 707.75 1159.333345 710.9C1159.333345 716.85 1161.666655 720.0 1166.041655 720.0C1172.166655 720.0 1180.333345 716.85 1185.291655 713.7L1186.458345 715.1C1186.458345 781.95 1186.458345 849.15 1186.458345 916.35C1186.458345 951.35 1197.833345 968.5 1216.5 968.5C1223.5 968.5 1230.5 966.05 1234.291655 960.8C1237.208345 956.95 1238.958345 951.35 1238.958345 946.1C1238.958345 943.3 1238.666655 940.85 1238.083345 938.75H1236.333345C1230.791655 946.8 1224.666655 951.0 1216.5 951.0C1211.541655 951.0 1208.333345 950.3 1204.833345 946.1C1201.916655 938.05 1201.041655 929.3 1201.041655 911.8C1201.041655 843.9 1201.041655 774.95 1201.041655 707.05C1201.041655 700.75 1195.208345 699.0 1189.375 699.0C1180.916655 699.0 1168.083345 700.75 1160.208345 702.5Z" fill="#1a1a1a"/><path d="M1334.041655 780.9C1333.458345 782.65 1333.166655 784.75 1333.166655 787.2C1333.166655 794.2 1335.791655 798.4 1339.875 798.4C1342.48341 798.4 1348.916655 796.3 1354.458345 791.05L1355.625 792.45C1355.625 842.5 1355.625 892.55 1355.625 942.6C1355.625 963.25 1360.875 967.1 1367.875 967.1C1370.208345 967.1 1372.25 966.75 1374.0 965.7C1371.083345 953.8 1370.208345 946.1 1370.208345 928.6C1370.208345 899.55 1370.208345 876.45 1370.208345 843.55C1370.208345 782.3 1368.166655 777.4 1359.416655 777.4C1351.16978 777.4 1342.5 778.45 1334.041655 780.9ZM1418.625 776.0C1398.791655 776.0 1381.875 800.5 1372.25 838.65H1366.416655L1368.75 887.65C1381.183715 829.356108334655 1398.721305 794.2 1418.041655 794.2C1423.291655 794.2 1427.083345 794.9 1430.0 796.65C1431.166655 807.15 1430.0 823.6 1427.666655 835.5V837.6C1428.541655 838.3 1429.416655 838.3 1430.291655 838.3C1438.75 838.3 1444.0 826.4 1444.0 805.75V801.2C1444.0 796.3 1441.958345 790.35 1437.583345 785.1C1433.208345 779.85 1427.083345 776.0 1418.625 776.0Z" fill="#1a1a1a"/><path d="M1527.125 887.3V889.75C1527.125 983.9 1576.708345 1028.0 1658.958345 1028.0C1693.666655 1028.0 1729.25 1016.45 1736.541655 1010.85C1739.75 1008.4 1741.5 1000.0 1741.5 994.05C1741.5 993.0 1741.5 992.3 1741.5 991.25H1739.75C1714.958345 1005.25 1686.083345 1010.5 1652.25 1010.5C1621.916655 1010.5 1595.666655 1001.4 1574.083345 987.4C1555.708345 967.8 1541.708345 932.45 1541.708345 891.85V888.7C1541.708345 788.6 1602.083345 727.0 1672.083345 727.0C1692.5 727.0 1708.833345 730.85 1725.166655 738.55C1740.333345 757.1 1747.041655 774.25 1747.041655 800.15C1747.041655 835.85 1747.041655 901.3 1747.041655 937.0C1747.041655 948.9 1753.75 953.45 1763.083345 953.45H1764.833345C1761.916655 942.95 1761.625 939.45 1761.625 923.0C1761.625 890.1 1761.625 827.8 1761.625 806.8C1761.625 750.45 1739.166655 709.5 1673.833345 709.5C1589.541655 709.5 1527.125 784.75 1527.125 887.3ZM1752.291655 875.75C1736.541655 911.45 1710.291655 938.4 1677.333345 938.4C1648.458345 938.4 1633.583345 917.75 1633.583345 884.15V882.75C1633.583345 862.1 1636.791655 846.35 1645.541655 831.3C1655.166655 823.95 1667.416655 818.7 1687.541655 818.7C1712.333345 818.7 1732.75 829.55 1750.541655 846.35V823.95H1745.291655C1731.583345 813.8 1713.208345 801.2 1685.208345 801.2C1642.333345 801.2 1618.416655 835.15 1618.416655 884.5V886.25C1618.416655 927.2 1640.291655 955.9 1675.0 955.9C1707.083345 955.9 1731.291655 935.95 1745.291655 913.2H1752.291655Z" fill="#1a1a1a"/><path d="M1662.458345 1003.15C1662.166655 1004.9 1661.875 1007.7 1661.875 1010.5C1661.875 1016.45 1663.333345 1021.7 1666.541655 1025.55C1671.5 1031.5 1678.208345 1032.55 1686.666655 1032.55C1711.186115 1032.55 1724.583345 1014.7 1724.583345 976.55C1724.583345 914.25 1724.583345 845.65 1724.583345 783.0C1724.583345 753.25 1728.375 736.45 1736.25 727.0C1743.833345 717.9 1750.833345 715.8 1761.625 715.8C1771.833345 715.8 1778.541655 718.95 1783.5 723.85C1784.958345 737.5 1783.791655 752.9 1780.875 765.85V767.95C1782.333345 768.3 1783.5 768.65 1784.666655 768.65C1791.958345 768.65 1797.208345 755.35 1797.208345 738.55V734.0C1797.208345 726.000000000015 1794.4228 718.0573745428151 1789.041655 711.6C1783.1479 705.27195383178 1775.625 700.05 1762.208345 700.05C1728.375 700.05 1710.0 723.5 1710.0 780.9C1710.0 844.25 1710.0 909.35 1710.0 972.35C1710.0 989.85 1709.125 998.6 1706.208345 1006.65C1700.789295 1012.53352265865 1694.18518 1015.05 1685.791655 1015.05C1677.041655 1015.05 1670.916655 1012.25 1664.208345 1003.15ZM1686.666655 848.1C1686.666655 849.15 1686.666655 850.55 1686.666655 851.6C1686.666655 859.3 1688.708345 865.6 1696.291655 865.6H1785.833345C1785.833345 864.55 1785.833345 863.15 1785.833345 862.1C1785.833345 854.4 1784.375 848.1 1779.125 848.1ZM1801.291655 781.25C1800.70831 783.0 1800.416655 785.1 1800.416655 787.55C1800.416655 794.2 1802.75 798.75 1807.125 798.75C1810.625 798.75 1817.625 794.9 1832.20831 792.45L1833.375 793.5C1833.375 833.4 1833.375 872.95 1833.375 912.85C1833.375 950.3 1844.166655 968.85 1862.541655 968.85C1870.125 968.85 1876.83331 966.05 1880.625 961.5C1883.83331 957.65 1885.291655 952.4 1885.291655 946.45C1885.291655 943.65 1885.0 940.85 1884.70831 939.1H1882.95831C1877.416655 946.45 1871.58331 951.35 1863.416655 951.35C1858.75 951.35 1855.25 950.65 1851.75 946.45C1848.541655 937.7 1847.95831 927.9 1847.95831 908.65C1847.95831 867.7 1847.95831 826.75 1847.95831 785.8C1847.95831 779.5 1842.125 777.75 1834.25 777.75C1826.375 777.75 1816.166655 778.8 1801.291655 781.25ZM1817.29831 716.5C1817.29831 729.567425 1827.890885 740.1600000000001 1840.95831 740.1600000000001C1854.025735 740.1600000000001 1864.61831 729.567425 1864.61831 716.5C1864.61831 703.432575 1854.025735 692.84 1840.95831 692.84C1827.890885 692.84 1817.29831 703.432575 1817.29831 716.5Z" fill="#1a1a1a"/>
</svg>