<?xml version="1.0" encoding="UTF-8"?>
<svg xmlns="http://www.w3.org/2000/svg" width="1540.0" height="1057.5"
     viewBox="0 0 1540.0 1057.5">
<rect width="100%" height="100%" fill="white"/>
<text x="770.0" y="30" text-anchor="middle" font-size="14" font-family="sans-serif" font-weight="bold" fill="#333">Mono B Slanted — Key glyphs close-up</text><text x="187.5" y="48" text-anchor="middle" font-size="10" font-family="sans-serif" fill="#999">H</text><text x="362.5" y="48" text-anchor="middle" font-size="10" font-family="sans-serif" fill="#999">I</text><text x="537.5" y="48" text-anchor="middle" font-size="10" font-family="sans-serif" fill="#999">J</text><text x="712.5" y="48" text-anchor="middle" font-size="10" font-family="sans-serif" fill="#999">K</text><text x="887.5" y="48" text-anchor="middle" font-size="10" font-family="sans-serif" fill="#999">L</text><text x="1062.5" y="48" text-anchor="middle" font-size="10" font-family="sans-serif" fill="#999">M</text><text x="1237.5" y="48" text-anchor="middle" font-size="10" font-family="sans-serif" fill="#999">R</text><text x="1412.5" y="48" text-anchor="middle" font-size="10" font-family="sans-serif" fill="#999">S</text><text x="20" y="221.25" font-size="11" font-family="sans-serif" font-weight="bold" fill="#555">Linear</text><path d="M148.708345 55.00000000000003C146.083345 67.60000000000002 143.458345 79.85000000000002 140.833345 92.45000000000002C126.83334500000001 160.35000000000002 112.541655 228.25 98.541655 296.15C97.958345 298.25 99.125 300.0 100.875 300.0C115.458345 300.0 128.583345 300.0 143.166655 300.0C159.791655 219.85000000000002 176.708345 139.0 193.333345 58.85000000000002C193.916655 57.10000000000002 193.041655 55.00000000000003 191.0 55.00000000000003C176.416655 55.00000000000003 163.291655 55.00000000000003 148.708345 55.00000000000003ZM150.166655 154.75 141.125 195.35000000000002C140.833345 197.10000000000002 141.416655 199.2 143.458345 199.2H233.291655V153.70000000000002L223.083345 154.75C216.958345 154.75 210.833345 154.75 204.708345 154.75ZM237.666655 300.0C240.0 288.8 242.916655 275.5 245.83334499999998 261.5C259.833345 193.95 273.833345 126.4 287.833345 58.85000000000002C288.416655 56.75000000000003 287.25 55.00000000000003 285.5 55.00000000000003C270.916655 55.00000000000003 257.791655 55.00000000000003 243.20834499999998 55.00000000000003C226.583345 135.15 209.666655 216.0 193.041655 296.15C192.458345 297.9 193.333345 300.0 195.375 300.0C209.958345 300.0 223.083345 300.0 237.666655 300.0Z" fill="#1a1a1a"/><path d="M372.416655 270.25C382.041655 223.0 392.25 174.35000000000002 402.166655 126.75C403.916655 119.05000000000001 406.541655 106.45000000000002 408.0 98.75L412.083345 84.75H364.25C354.333345 132.35000000000002 344.125 181.0 334.5 228.25C332.75 235.60000000000002 330.125 248.9 328.666655 256.25L324.583345 270.25ZM409.458345 300.0C412.666655 284.6 415.0 273.05 418.208345 257.65C418.791655 255.9 417.916655 253.8 415.875 253.8H284.916655C281.708345 269.2 279.375 280.75 276.166655 296.15C275.875 298.25 277.041655 300.0 278.791655 300.0ZM326.625 55.00000000000003C323.416655 70.4 321.083345 81.95000000000002 317.875 97.35000000000002C317.352765 99.230097885785 318.22654 101.20000000000002 320.208345 101.20000000000002H451.166655C454.375 85.80000000000001 456.708345 74.25000000000003 459.916655 58.85000000000002C460.5 56.75000000000003 459.333345 55.00000000000003 457.583345 55.00000000000003Z" fill="#1a1a1a"/><path d="M514.75 258.0C496.083345 258.0 483.833345 254.5 471.0 245.4H465.166655C461.958345 259.75 459.333345 272.7 456.416655 287.05C456.416655 288.1 456.416655 289.15 456.708345 289.85C461.375 297.2 480.333345 307.0 510.666655 307.0C555.291655 307.0 582.416655 282.85 593.791655 228.60000000000002C605.80047 171.312 618.173215 112.28799999999998 630.1820299999999 55.00000000000003C630.1820299999999 52.20000000000002 625.5194 50.80000000000001 613.86279 50.80000000000001C609.20016 50.80000000000001 604.537495 50.80000000000001 599.874865 50.80000000000001C588.218255 50.80000000000001 583.555625 52.20000000000002 583.555625 55.00000000000003C583.555625 55.00000000000003 583.555625 55.00000000000003 583.555625 55.00000000000003C583.555625 55.00000000000003 583.555625 55.00000000000003 583.555625 55.00000000000003C572.20726 109.1695 560.51502 164.9805 549.166655 219.15C546.25 232.8 542.75 241.9 537.5 248.2C531.375 255.55 524.083345 258.0 514.75 258.0Z" fill="#1a1a1a"/><path d="M731.75 152.65 690.041655 218.45H711.041655C711.916655 240.5 712.208345 243.65 720.666655 269.9C729.708345 296.85 737.0 301.75 756.833345 301.75C763.541655 301.75 765.875 301.75 767.916655 301.75C769.666655 301.75 771.416655 300.7 772.0 297.9C772.583345 295.45 777.833345 270.6 781.041655 254.5H775.208345C773.99304 254.5 773.5069599999999 254.5 772.291655 254.5C762.666655 254.5 760.625 253.1 758.0 244.35C749.25 213.9 740.5 183.10000000000002 731.75 152.65ZM819.833345 55.00000000000003H770.25C756.25 75.65 739.333345 101.55000000000001 725.333345 122.20000000000002C711.916655 142.15 707.541655 151.60000000000002 701.416655 169.45000000000002H687.125L670.208345 266.4C725.625 190.45 773.458345 125.0 806.708345 79.5C820.708345 60.60000000000002 821.583345 59.55000000000001 821.875 57.80000000000001C822.166655 56.400000000000006 821.291655 55.00000000000003 819.833345 55.00000000000003ZM673.708345 55.00000000000003C671.083345 67.60000000000002 668.458345 79.85000000000002 665.833345 92.45000000000002C651.833345 160.35000000000002 637.541655 228.25 623.541655 296.15C622.958345 298.25 624.125 300.0 625.875 300.0C640.458345 300.0 653.583345 300.0 668.166655 300.0C684.791655 219.85000000000002 701.708345 139.0 718.333345 58.85000000000002C718.916655 56.75000000000003 718.041655 55.00000000000003 716.0 55.00000000000003C701.416655 55.00000000000003 688.291655 55.00000000000003 673.708345 55.00000000000003Z" fill="#1a1a1a"/><path d="M803.791655 300.0H934.75C937.083345 275.15 929.791655 252.05 912.291655 252.05H857.166655C870.583345 187.65 884.0 123.25 897.416655 58.85000000000002C898.0 56.75000000000003 897.125 55.00000000000003 895.083345 55.00000000000003C880.5 55.00000000000003 866.208345 55.00000000000003 851.625 55.00000000000003C849.291655 66.55000000000001 846.666655 78.45000000000002 844.333345 90.0C830.041655 158.60000000000002 815.75 227.55 801.458345 296.15C800.875 298.25 802.041655 300.0 803.791655 300.0Z" fill="#1a1a1a"/><path d="M1013.5 300.0C1017.583345 281.1 1021.375 261.85 1025.458345 242.95C1030.708345 217.75 1032.166655 202.7 1034.5 133.4L1027.208345 143.9H1048.208345L1038.291655 134.10000000000002C1041.5 173.65 1045.0 213.2 1048.208345 252.75C1048.5 255.2 1049.958345 255.55 1051.125 255.55C1052.291655 255.55 1053.166655 255.55 1054.333345 255.55C1075.041655 214.95 1094.583345 175.05 1115.291655 134.10000000000002L1101.875 143.9H1123.166655L1119.958345 133.4C1094.291655 202.35000000000002 1088.458345 219.15 1083.5 242.95C1079.708345 260.8 1076.208345 278.3 1072.416655 296.15C1072.125 298.25 1073.0 300.0 1074.75 300.0C1088.458345 300.0 1102.166655 300.0 1115.291655 300.0C1117.916655 288.45 1120.25 276.9 1122.583345 265.35C1136.875 196.4 1151.458345 127.45000000000002 1165.75 58.85000000000002C1166.041655 56.75000000000003 1165.166655 55.00000000000003 1163.416655 55.00000000000003C1147.958345 55.00000000000003 1132.5 55.00000000000003 1117.041655 55.00000000000003C1099.541655 97.70000000000002 1082.916655 140.05 1065.416655 182.75L1079.708345 167.70000000000002H1058.416655L1066.875 182.75C1066.583345 141.10000000000002 1065.416655 100.15 1065.416655 67.25000000000003C1065.416655 56.400000000000006 1064.25 55.00000000000003 1062.208345 55.00000000000003C1048.5 55.00000000000003 1034.791655 55.00000000000003 1021.083345 55.00000000000003C1018.458345 66.55000000000001 1016.125 78.45000000000002 1013.791655 90.0C999.5 158.60000000000002 984.916655 227.55 970.625 296.15C970.333345 298.25 971.208345 300.0 972.958345 300.0C986.375 300.0 1000.083345 300.0 1013.5 300.0Z" fill="#1a1a1a"/><path d="M1275.416655 198.15 1234.875 208.3C1240.125 230.7 1245.375 253.45 1250.625 275.85C1255.306775 295.678719578465 1262.7968799999999 301.75 1283.875 301.75C1285.916655 301.75 1288.833345 301.75 1290.0 301.75C1292.041655 301.75 1293.5 300.35 1294.083345 297.9C1297.0605150000001 282.9599964908 1300.04556 267.58287261904 1303.416655 252.75H1297.583345C1296.125 252.75 1295.25 252.75 1293.791655 252.75C1289.86539 252.75 1288.311005 251.73889238909499 1286.5 244.35C1282.708345 228.95 1279.208345 213.55 1275.416655 198.15ZM1202.92427 55.00000000000003C1199.94129 69.70000000000002 1196.958345 84.4 1193.9754 99.10000000000002C1193.478225 101.55000000000001 1193.19413 102.95000000000002 1193.19413 102.95000000000002C1209.208345 102.95000000000002 1235.458345 102.95000000000002 1261.416655 102.95000000000002C1267.833345 102.95000000000002 1271.333345 104.35000000000002 1274.25 107.85000000000002C1276.875 111.0 1278.333345 117.30000000000001 1276.291655 127.10000000000002L1271.333345 149.5C1267.833345 165.95000000000002 1259.958345 174.0 1245.958345 174.0C1236.041655 174.0 1226.125 174.0 1216.208345 174.0L1206.583345 220.2L1210.083345 218.45C1220.875 218.45 1232.25 218.45 1243.041655 218.45C1285.916655 218.45 1308.083345 197.45 1317.125 153.0L1321.5 132.35000000000002C1330.833345 86.5 1315.666655 55.00000000000003 1265.791655 55.00000000000003C1240.416655 55.00000000000003 1215.333345 55.00000000000003 1202.92427 55.00000000000003ZM1197.25 300.0C1199.291655 290.2 1201.625 278.3 1204.25 265.7C1214.458345 217.05 1222.625 178.2 1231.958345 133.75C1234.291655 121.5 1237.208345 108.55000000000001 1239.833345 94.9L1245.666655 84.4H1196.958345C1181.5 158.60000000000002 1168.083345 221.95 1152.625 296.15C1152.333345 298.6 1153.208345 300.0 1155.25 300.0C1169.833345 300.0 1182.666655 300.0 1197.25 300.0Z" fill="#1a1a1a"/><path d="M1444.583345 48.00000000000003C1404.625 48.00000000000003 1373.97697 67.27551337610501 1364.958345 108.9L1361.166655 126.4C1356.791655 148.8 1360.583345 179.95 1395.291655 193.60000000000002L1420.083345 203.75C1436.125 210.05 1439.333345 215.65 1437.0 226.85000000000002L1434.375 239.1C1432.333345 248.9 1421.541655 258.0 1398.5 258.0C1372.25 258.0 1356.791655 248.9 1342.208345 235.25H1336.375C1334.333345 245.05 1330.833345 260.1 1327.041655 278.65C1326.75 280.05 1326.458345 281.1 1327.333345 282.5C1334.625 294.05 1361.166655 307.0 1394.708345 307.0C1438.166655 307.0 1466.166655 289.5 1475.208345 246.45L1478.708345 229.65C1484.833345 200.60000000000002 1476.083345 175.75 1443.708345 162.8L1419.208345 153.0C1401.708345 146.35000000000002 1401.125 139.35000000000002 1404.041655 125.70000000000002L1405.791655 117.65C1409.411425 100.9990628909 1420.666655 94.55000000000001 1442.25 94.55000000000001C1454.5 94.55000000000001 1458.583345 96.30000000000001 1467.916655 101.20000000000002L1464.604465 95.88C1463.3733750000001 99.80000000000001 1462.57177 101.34 1461.832325 102.74000000000001C1461.372495 102.03999999999999 1461.411695 100.92000000000002 1461.821685 99.24000000000001C1466.326745 97.56000000000003 1470.95406 95.88 1475.233895 94.20000000000002C1475.666215 86.22000000000003 1476.33748 76.70000000000002 1476.43716 69.56000000000003C1475.507595 66.76000000000002 1474.143715 64.38 1472.242865 62.00000000000003C1467.72076 56.54000000000002 1459.311485 49.68000000000001 1444.583345 48.00000000000003Z" fill="#1a1a1a"/><line x1="20" y1="382.5" x2="1520.0" y2="382.5" stroke="#eee" stroke-width="0.5"/><text x="20" y="553.75" font-size="11" font-family="sans-serif" font-weight="bold" fill="#555">SemiCasual</text><path d="M149.2916725 387.5C148.5625 399.75 147.1041725 412.175 144.770845 425.3C133.1041725 490.75 114.4375 548.85 104.5208275 607.475C102.1875 626.025 108.6041725 633.9 118.5208275 633.9C128.583345 633.9 137.9166725 633.375 147.3958275 632.5C155.125 554.45 178.895845 489.175 192.3125 412.70000000000005C194.9375 395.375 191.5833275 386.1 179.625 386.1C169.2708275 386.1 160.0833275 386.45000000000005 149.2916725 387.5ZM133.6875 490.75C133.6875 490.75 128.1458275 515.425 128.1458275 515.425C125.6666725 527.5 126.8333275 538.35 134.5625 538.35C134.5625 538.35 224.25 538.35 224.25 538.35C224.25 538.35 228.3333275 496.0 228.3333275 496.0C228.3333275 496.0 218.4166725 497.75 218.4166725 497.75C213.1666725 493.55 206.1666725 490.75 196.833345 490.75C196.833345 490.75 133.6875 490.75 133.6875 490.75ZM239.416655 632.5C239.2708275 620.775 240.875 608.35 243.5 593.825C255.16667249999998 529.6 273.1041725 471.15 283.1666725 413.4C284.916655 401.15 284.9166725 386.1 269.75 386.1C259.25 386.1 250.6458275 386.45000000000005 239.5625 387.32500000000005C232.8541725 463.1 206.0208275 538.0 194.5 610.975C192.75 626.725 199.6041725 633.9 208.2083275 633.9C219.2916725 633.9 229.64584499999998 633.375 239.416655 632.5Z" fill="#1a1a1a"/><path d="M372.416655 596.975C378.541655 549.025 392.3958275 511.925 400.854155 467.475C403.1875 455.4 402.604155 442.625 399.1041725 435.625C399.1041725 435.625 403.625 423.025 403.625 423.025C403.625 423.025 363.8125 423.025 363.8125 423.025C357.6875 469.225 343.6875 508.25 335.375 552.525C333.0416725 564.6 333.7708275 577.55 337.125 584.375C337.125 584.375 332.6041725 596.975 332.6041725 596.975C332.6041725 596.975 372.416655 596.975 372.416655 596.975ZM412.375 632.5C415.1458275 622.7 417.1875 614.825 419.520845 603.625C422.0 592.95 418.0625 584.025 403.1875 584.025C403.1875 584.025 283.3125 584.025 283.3125 584.025C280.395845 594.525 277.9166725 604.15 275.4375 616.05C273.5416725 625.5 276.4583275 632.5 283.8958275 632.5C283.8958275 632.5 412.375 632.5 412.375 632.5ZM323.8541725 387.5C321.0833275 397.3 319.0416725 405.175 316.7083275 416.375C314.25971 427.1150489428925 318.1965975 435.975 333.0416725 435.975C333.0416725 435.975 452.916655 435.975 452.916655 435.975C455.8333275 425.475 458.3125 415.85 460.791655 403.95000000000005C462.8333275 394.5 459.9166725 387.5 452.4791725 387.5C452.4791725 387.5 323.8541725 387.5 323.8541725 387.5Z" fill="#1a1a1a"/><path d="M517.520845 589.8C498.854155 589.8 485.875 585.075 472.895845 573.875H469.104155C466.041655 583.85 463.416655 592.95 460.791655 605.725C459.041655 614.3 460.354155 620.075 463.416655 623.925C469.6875 632.325 484.125 639.5 511.6875 639.5C554.854155 639.5 582.5625 608.525 593.645845 564.425C605.942535 506.03975 618.6118349999999 445.88525000000004 630.90849 387.5C630.90849 384.70000000000005 626.37333 383.3 615.035395 383.3C610.500235 383.3 605.965075 383.3 601.4299149999999 383.3C590.09198 383.3 585.55682 384.70000000000005 585.55682 387.5C585.55682 387.5 585.55682 387.5 585.55682 387.5C585.55682 387.5 585.55682 387.5 585.55682 387.5C574.07745 442.30475 562.250215 498.77025000000003 550.770845 553.575C547.854155 566.35 544.5 575.275 539.541655 582.275C533.416655 587.7 526.416655 589.8 517.520845 589.8Z" fill="#1a1a1a"/><path d="M738.8958275 492.32500000000005C738.8958275 492.32500000000005 697.625 545.525 697.625 545.525C697.625 545.525 711.625 547.625 711.625 547.625C711.7708275 569.675 712.645845 581.225 719.791655 604.325C727.520845 629.0 735.6875 636.875 752.895845 636.875C760.1875 636.875 764.125 635.65 767.479155 632.85C770.6875 630.05 773.3125 624.975 774.7708275 618.15C776.375 611.15 779.145845 594.875 780.604155 583.15C780.604155 583.15 776.8125 583.15 776.8125 583.15C774.7465199999999 584.375 773.4826525 584.725 770.3958275 584.725C761.354155 584.725 758.0 580.7 755.0833275 569.675C748.2291725 544.3 743.125 521.025 738.8958275 492.32500000000005ZM802.0416725 385.75C802.0416725 385.75 773.75 385.75 773.75 385.75C762.8125 409.9 748.8125 434.925 735.25 455.4C721.8333275 475.525 712.2083275 488.65 701.2708275 504.575C701.2708275 504.575 689.0208275 499.32500000000005 689.0208275 499.32500000000005C689.0208275 499.32500000000005 672.833345 578.95 672.833345 578.95C717.3125 537.3 772.4375 481.3 802.1875 435.1C815.75 414.275 818.375 407.275 820.125 398.875C822.0208275 389.6 813.854155 385.75 802.0416725 385.75ZM674.2916725 387.5C673.5625 399.75 672.1041725 412.175 669.770845 425.3C658.1041725 490.75 639.4375 548.85 629.5208275 607.475C627.1875 626.025 633.6041725 633.9 643.5208275 633.9C653.583345 633.9 662.9166725 633.375 672.3958275 632.5C680.125 554.45 703.895845 489.175 717.3125 412.70000000000005C719.9375 395.20000000000005 716.5833275 386.1 704.625 386.1C694.2708275 386.1 685.0833275 386.45000000000005 674.2916725 387.5Z" fill="#1a1a1a"/><path d="M831.5 632.5C831.5 632.5 931.8333275 632.5 931.8333275 632.5C937.375 607.475 933.5833275 583.15 914.479155 583.15C914.479155 583.15 856.875 583.15 856.875 583.15C865.9166725 528.025 884.7573825 472.5166812922875 895.229155 412.525C897.4558375 397.72162462648254 895.24942 386.1 882.1041725 386.1C871.7135475 386.1 861.46854 386.3100690484025 850.4583275 387.5C850.166655 398.875 849.1458275 411.82500000000005 846.8125 424.775C835.9058175 483.8063052392175 820.125 538.875 808.020845 598.2C804.6666725 614.825 816.1875 632.5 831.5 632.5Z" fill="#1a1a1a"/><path d="M1017.4375 632.5C1018.895845 612.2 1022.25 590.5 1026.625 568.975C1032.6041725 538.875 1035.8125 518.4 1037.5625 462.05C1037.5625 462.05 1029.1041725 474.475 1029.1041725 474.475C1029.1041725 474.475 1048.7916725 472.55 1048.7916725 472.55C1048.7916725 472.55 1039.75 462.225 1039.75 462.225C1043.1041725 506.325 1047.625 539.925 1052.7291725 565.125C1053.3125 567.05 1054.625 567.75 1056.0833275 567.75C1057.104155 567.75 1057.979155 567.575 1058.8541725 567.4C1077.0833275 540.625 1095.75 506.5 1116.75 463.1C1116.75 463.1 1103.1875 472.025 1103.1875 472.025C1103.1875 472.025 1122.875 474.65 1122.875 474.65C1122.875 474.65 1118.9375 462.57500000000005 1118.9375 462.57500000000005C1100.81072 521.046966216335 1091.54846 542.9866265628025 1085.9791725 564.775C1081.1666725 583.15 1077.958345 598.2 1075.479155 614.65C1074.4754075 628.05422452593 1080.69027 633.9 1090.0625 633.9C1099.9791725 633.9 1109.75 633.375 1118.2083275 632.5C1118.5 621.475 1119.6666725 608.175 1121.8541725 595.75C1133.5208275 531.0 1151.458345 473.07500000000005 1161.9583275 413.75C1163.7083275 400.8 1163.7083275 386.1 1149.125 386.1C1138.9166725 386.1 1127.9791725 386.45000000000005 1116.0208275 387.5C1104.2070325 432.83509592262 1084.898215 472.261988450055 1065.7083275 507.375C1065.7083275 507.375 1080.0 496.0 1080.0 496.0C1080.0 496.0 1060.0208275 494.425 1060.0208275 494.425C1060.0208275 494.425 1069.7916725 508.25 1069.7916725 508.25C1067.1666725 471.32500000000005 1066.291655 439.82500000000005 1067.75 409.025C1068.916655 392.225 1065.7083275 386.1 1050.9791725 386.1C1041.5 386.1 1031.291655 386.45000000000005 1019.9166725 387.5C1019.4791725 398.70000000000005 1018.1666725 411.65 1015.979155 424.25C1004.4583275 489.875 985.5 548.675 975.5833275 607.475C973.395845 626.025 980.6875 633.9 989.145845 633.9C998.9166725 633.9 1008.395845 633.375 1017.4375 632.5Z" fill="#1a1a1a"/><path d="M1273.229155 530.65C1273.229155 530.65 1236.7708275 546.925 1236.7708275 546.925C1238.8125 569.5 1241.5833275 589.45 1246.6875 610.275C1251.361715 629.2893597892325 1260.5026125 636.875 1278.7708275 636.875C1283.291655 636.875 1287.8125 635.475 1290.7291725 632.675C1294.229155 629.7 1297.0 624.45 1298.6041725 616.75C1300.9677575 605.4299982454 1302.89778 594.41643630952 1304.5833275 583.325C1304.5833275 583.325 1300.7916725 583.325 1300.7916725 583.325C1298.3125 584.55 1296.125 585.075 1292.916655 585.075C1286.7243675 585.075 1283.322175 582.1194461945474 1280.8125 571.775C1277.458345 558.125 1275.270845 544.3 1273.229155 530.65ZM1195.8579625 387.5C1193.1998175 398.0 1190.6875 408.32500000000005 1188.4668725 419.525C1186.030785 430.9 1186.7637375 436.85 1191.284565 436.85C1202.8431925 436.85 1229.4791725 433.35 1256.0208275 433.35C1265.662995 433.35 1271.770845 434.75 1276.5833275 438.07500000000005C1278.4791725 443.15 1279.244255 450.7951087210225 1277.3125 461.525C1277.3125 461.525 1274.395845 475.525 1274.395845 475.525C1269.7964075 501.9863940076325 1254.623995 513.15 1237.3541725 513.15C1226.854155 513.15 1220.5833275 512.625 1211.9791725 510.35C1211.9791725 510.35 1201.770845 557.775 1201.770845 557.775C1201.770845 557.775 1212.5625 553.75 1212.5625 553.75C1220.5833275 556.9 1231.2291725 557.95 1239.979155 557.95C1278.466345 557.95 1309.6875 531.175 1318.7291725 476.57500000000005C1318.7291725 476.57500000000005 1321.2083275 464.15 1321.2083275 464.15C1328.4444375 422.72505841141003 1314.1259025 384.0 1261.416655 384.0C1236.479155 384.0 1214.1666725 385.225 1195.8579625 387.5ZM1200.3125 632.5C1200.604155 622.175 1201.9166725 610.275 1203.9583275 598.55C1212.270845 551.825 1226.2708275 510.7 1233.125 466.6C1235.0131975 453.5483163585525 1235.3125 441.4 1233.708345 430.9C1233.708345 430.9 1239.25 419.35 1239.25 419.35C1239.25 419.35 1198.125 422.5 1198.125 422.5C1186.6041725 493.55 1167.7916725 545.175 1156.4166725 610.45C1154.6666725 623.925 1157.7291725 633.9 1170.7083275 633.9C1180.9166725 633.9 1190.3958275 633.55 1200.3125 632.5Z" fill="#1a1a1a"/><path d="M1444.583345 380.5C1404.625 380.5 1373.97697 399.775513376105 1364.958345 441.4L1361.166655 458.9C1356.791655 481.3 1360.583345 512.45 1395.291655 526.1L1420.083345 536.25C1436.125 542.55 1439.333345 548.15 1437.0 559.35L1434.375 571.6C1432.333345 581.4 1421.541655 590.5 1398.5 590.5C1372.25 590.5 1356.791655 581.4 1342.208345 567.75H1336.375C1334.333345 577.55 1330.833345 592.6 1327.041655 611.15C1326.75 612.55 1326.458345 613.6 1327.333345 615.0C1334.625 626.55 1361.166655 639.5 1394.708345 639.5C1438.166655 639.5 1466.166655 622.0 1475.208345 578.95L1478.708345 562.15C1484.833345 533.1 1476.083345 508.25 1443.708345 495.3L1419.208345 485.5C1401.708345 478.85 1401.125 471.85 1404.041655 458.20000000000005L1405.791655 450.15C1409.411425 433.4990628909 1420.666655 427.05 1442.25 427.05C1454.5 427.05 1458.583345 428.8 1467.916655 433.70000000000005L1468.420865 433.27342C1468.559185 432.05566500000003 1468.35419 430.139905 1467.829295 427.6191C1467.009525 424.58642 1465.92176 421.13489500000003 1464.59519 417.357625C1463.061665 413.34764 1461.3558699999999 409.198075 1459.515465 405.001925C1457.581295 400.85236 1455.597285 396.842375 1453.61044 393.065105C1451.670565 389.61358000000007 1449.83009 386.58090000000004 1448.14379 384.06009500000005C1446.66826 382.144335 1445.46174 380.92658 1444.583345 380.5Z" fill="#1a1a1a"/><line x1="20" y1="715.0" x2="1520.0" y2="715.0" stroke="#eee" stroke-width="0.5"/><text x="20" y="886.25" font-size="11" font-family="sans-serif" font-weight="bold" fill="#555">Casual</text><path d="M149.875 720.0C151.041655 731.9 150.75 744.5 148.708345 758.15C139.375 821.15 116.333345 869.45 110.5 918.8C106.416655 953.8 118.083345 967.8 136.166655 967.8C141.708345 967.8 147.25 966.75 151.625 965.0C150.458345 889.05 181.083345 839.35 191.291655 766.55C195.958345 733.65 190.125 717.2 168.25 717.2C162.125 717.2 156.875 717.9 149.875 720.0ZM117.208345 826.75 115.16665499999999 835.5C110.5 857.9 112.25 877.5 125.66665499999999 877.5H215.208345L223.375 838.3L213.75 840.75C209.375 832.35 201.5 826.75 188.958345 826.75ZM241.166655 965.0C238.541655 952.75 238.83334499999998 941.2 241.166655 926.15C250.5 865.25 272.375 815.9 278.5 767.95C281.416655 745.55 282.583345 717.2 254.0 717.2C247.58334499999998 717.2 243.5 717.9 235.916655 719.65C239.125 791.05 202.375 860.0 195.958345 925.8C193.041655 955.55 205.875 967.8 221.041655 967.8C228.625 967.8 236.20834499999998 966.75 241.166655 965.0Z" fill="#1a1a1a"/><path d="M372.416655 923.7C375.041655 875.05 392.541655 849.5 399.541655 808.2C402.458345 791.75 398.666655 778.8 390.208345 772.5L395.166655 761.3H363.375C361.041655 806.1 343.25 835.5 336.25 876.8C333.333345 893.6 337.416655 906.2 345.583345 912.5L340.625 923.7ZM415.291655 965.0C417.625 960.8 419.375 956.6 420.833345 949.6C425.208345 930.0 418.208345 914.25 390.5 914.25H281.708345C279.083345 919.85 276.458345 927.55 274.708345 935.95C271.208345 952.75 275.875 965.0 289.0 965.0ZM321.083345 720.0C318.75 724.2 317.0 728.4 315.541655 735.4C311.166655 755.0 318.166655 770.75 345.875 770.75H454.666655C457.291655 765.15 459.916655 757.45 461.666655 749.05C465.166655 732.25 460.5 720.0 447.375 720.0Z" fill="#1a1a1a"/><path d="M520.291655 921.6C501.625 921.6 487.916655 915.65 474.791655 902.35H473.041655C470.125 907.95 467.5 913.2 465.166655 924.4C461.666655 940.5 464.291655 951.0 470.125 958.0C478.0 967.45 487.916655 972.0 512.708345 972.0C554.416655 972.0 582.708345 934.2 593.5 900.25C606.0944 840.7675 619.0704049999999 779.4825000000001 631.664805 720.0C631.664805 717.2 627.25414 715.8 616.227495 715.8C611.816865 715.8 607.4062 715.8 602.995535 715.8C591.96889 715.8 587.55826 717.2 587.55826 720.0C587.55826 720.0 587.55826 720.0 587.55826 720.0C587.55826 720.0 587.55826 720.0 587.55826 720.0C575.94778 775.44 563.98548 832.56 552.375 888.0C549.458345 899.9 546.25 908.65 541.583345 916.35C535.458345 919.85 528.75 921.6 520.291655 921.6Z" fill="#1a1a1a"/><path d="M746.041655 832.0 705.208345 872.6 712.208345 876.8C711.625 898.85 713.083345 918.8 718.916655 938.75C725.333345 961.15 734.375 972.0 748.958345 972.0C756.833345 972.0 762.375 969.55 767.041655 963.95C771.708345 958.35 775.208345 949.25 777.541655 938.4C780.166655 926.85 780.458345 919.15 780.166655 911.8H778.416655C775.5 914.25 773.458345 914.95 768.5 914.95C760.041655 914.95 755.375 908.3 752.166655 895.0C747.208345 874.7 745.75 858.95 746.041655 832.0ZM784.25 716.5H777.25C769.375 744.15 758.291655 768.3 745.166655 788.6C731.75 808.9 716.875 825.7 701.125 839.7L690.916655 829.2L675.458345 891.5C709.0 884.15 771.416655 837.6 797.666655 790.7C810.791655 767.95 815.166655 755.0 818.375 739.95C821.875 722.8 806.416655 716.5 784.25 716.5ZM674.875 720.0C676.041655 731.9 675.75 744.5 673.708345 758.15C664.375 821.15 641.333345 869.45 635.5 918.8C631.416655 953.8 643.083345 967.8 661.166655 967.8C666.708345 967.8 672.25 966.75 676.625 965.0C675.458345 889.05 706.083345 839.35 716.291655 766.55C720.958345 733.65 715.125 717.2 693.25 717.2C687.125 717.2 681.875 717.9 674.875 720.0Z" fill="#1a1a1a"/><path d="M859.208345 965.0H928.916655C937.666655 939.8 937.375 914.25 916.666655 914.25H856.583345C861.25 868.4 885.514765 821.783362584575 893.041655 766.2C896.911675 738.693249252965 893.37384 717.2 869.125 717.2C862.927095 717.2 856.728735 717.620138096805 849.291655 720.0C851.041655 731.2 851.625 745.2 849.291655 759.55C841.76998 809.012610478435 824.5 850.2 814.583345 900.25C808.458345 931.4 830.333345 965.0 859.208345 965.0Z" fill="#1a1a1a"/><path d="M1021.375 965.0C1020.208345 943.3 1023.125 919.15 1027.791655 895.0C1034.5 860.0 1039.458345 834.1 1040.625 790.7L1031.0 805.05L1049.375 801.2L1041.208345 790.35C1044.708345 839.0 1050.25 866.65 1057.25 877.5C1058.125 878.9 1059.291655 879.95 1061.041655 879.95C1061.916655 879.95 1062.791655 879.6 1063.375 879.25C1079.125 866.3 1096.916655 837.95 1118.208345 792.1L1104.5 800.15L1122.583345 805.4L1117.916655 791.75C1107.329785 839.74393243267 1094.638575 866.823253125605 1088.458345 886.6C1082.625 905.5 1079.708345 918.1 1078.541655 933.15C1076.825815 957.85844905186 1088.3805399999999 967.8 1105.375 967.8C1111.5 967.8 1117.333345 966.75 1121.125 965.0C1119.083345 954.5 1119.083345 939.45 1121.125 926.15C1130.166655 865.6 1151.458345 818.7 1158.166655 768.65C1161.375 744.85 1162.25 717.2 1134.833345 717.2C1129.875 717.2 1123.458345 717.9 1115.0 720.0C1108.87241 767.97019184524 1086.8797749999999 804.4739769001101 1066.0 832.0L1080.291655 824.3L1061.625 821.15L1072.708345 833.75C1067.75 801.55 1067.166655 779.5 1070.083345 750.8C1072.416655 728.05 1067.166655 717.2 1039.75 717.2C1034.5 717.2 1027.791655 717.9 1018.75 720.0C1020.5 730.85 1020.208345 744.85 1018.166655 758.5C1009.416655 821.15 986.083345 869.8 980.541655 918.8C976.458345 953.8 990.166655 967.8 1005.333345 967.8C1011.458345 967.8 1016.708345 966.75 1021.375 965.0Z" fill="#1a1a1a"/><path d="M1271.041655 863.15 1238.666655 885.55C1237.5 908.3 1237.791655 925.45 1242.75 944.7C1247.416655 962.9 1258.208345 972.0 1273.666655 972.0C1280.666655 972.0 1286.791655 969.2 1291.458345 963.6C1296.416655 957.65 1300.5 948.55 1303.125 935.6C1304.875 927.9 1305.75 921.25 1305.75 913.9H1304.0C1300.5 916.35 1297.0 917.4 1292.041655 917.4C1283.583345 917.4 1278.333345 912.5 1275.125 899.2C1272.208345 887.3 1271.333345 875.05 1271.041655 863.15ZM1188.791655 720.0C1186.458345 726.3 1184.416655 732.25 1182.958345 739.95C1178.583345 760.25 1180.333345 770.75 1189.375 770.75C1196.47804 770.75 1223.5 763.75 1250.625 763.75C1263.492645 763.75 1272.208345 765.15 1278.916655 768.3C1280.083345 775.3 1280.155165 784.290217442045 1278.333345 795.95L1277.458345 801.55C1271.75947 838.022788015265 1249.289645 852.3 1228.75 852.3C1217.666655 852.3 1215.041655 851.25 1207.75 846.7L1196.958345 895.35L1215.041655 889.05C1220.291655 895.35 1230.208345 897.45 1236.916655 897.45C1271.016035 897.45 1311.291655 864.9 1320.333345 800.15L1320.916655 795.95C1326.05553 758.9501168228201 1312.5851499999999 713.0 1257.041655 713.0C1232.541655 713.0 1213.0 715.45 1188.791655 720.0ZM1203.375 965.0C1201.916655 954.15 1202.208345 942.25 1203.666655 931.4C1210.083345 886.6 1229.916655 843.2 1234.291655 799.45C1235.73474 785.596632717105 1233.416655 774.25 1227.583345 766.9L1232.833345 754.3L1199.291655 760.6C1191.708345 828.5 1167.5 868.4 1160.208345 924.75C1157.0 949.25 1162.25 967.8 1186.166655 967.8C1192.0 967.8 1198.125 967.1 1203.375 965.0Z" fill="#1a1a1a"/><path d="M1454.5 713.0C1416.291655 713.0 1371.083345 750.8 1361.458345 797.35L1360.291655 802.95C1355.916655 823.6 1357.083345 851.6 1397.916655 871.55L1422.125 883.45C1433.791655 889.4 1439.916655 897.45 1437.875 909.7L1437.291655 913.2C1428.25 918.45 1416.583345 921.25 1405.208345 921.25C1371.375 921.25 1352.416655 910.4 1340.166655 890.45H1338.416655C1335.5 895.7 1332.583345 903.05 1331.125 911.8C1327.625 929.65 1330.25 943.3 1336.666655 951.0C1345.416655 961.5 1363.5 972.0 1398.5 972.0C1441.666655 972.0 1466.75 959.05 1474.916655 920.2L1476.083345 914.6C1479.583345 897.45 1479.583345 866.65 1444.291655 849.85L1419.208345 837.95C1403.75 830.25 1399.375 820.8 1401.708345 809.25L1402.291655 806.45C1406.958345 784.05 1432.333345 762.35 1451.0 762.35C1459.458345 762.35 1463.25 764.1 1467.625 769.7C1470.95 762.0 1474.45 754.3 1478.002955 746.7031450000001C1478.481195 739.1578450000001 1476.9371 732.0615250000001 1471.509055 724.95159C1467.076025 719.10106 1462.372445 714.79053 1454.5 713.0Z" fill="#1a1a1a"/>
</svg>