<?xml version="1.0" encoding="UTF-8"?>
<svg xmlns="http://www.w3.org/2000/svg" width="1540.0" height="1057.5"
     viewBox="0 0 1540.0 1057.5">
<rect width="100%" height="100%" fill="white"/>
<text x="770.0" y="30" text-anchor="middle" font-size="14" font-family="sans-serif" font-weight="bold" fill="#333">Mono A Slanted — Key glyphs close-up</text><text x="187.5" y="48" text-anchor="middle" font-size="10" font-family="sans-serif" fill="#999">H</text><text x="362.5" y="48" text-anchor="middle" font-size="10" font-family="sans-serif" fill="#999">I</text><text x="537.5" y="48" text-anchor="middle" font-size="10" font-family="sans-serif" fill="#999">J</text><text x="712.5" y="48" text-anchor="middle" font-size="10" font-family="sans-serif" fill="#999">K</text><text x="887.5" y="48" text-anchor="middle" font-size="10" font-family="sans-serif" fill="#999">L</text><text x="1062.5" y="48" text-anchor="middle" font-size="10" font-family="sans-serif" fill="#999">M</text><text x="1237.5" y="48" text-anchor="middle" font-size="10" font-family="sans-serif" fill="#999">R</text><text x="1412.5" y="48" text-anchor="middle" font-size="10" font-family="sans-serif" fill="#999">S</text><text x="20" y="221.25" font-size="11" font-family="sans-serif" font-weight="bold" fill="#555">Linear</text><path d="M155.708345 55.00000000000003C153.375 66.55000000000001 151.041655 78.10000000000002 148.416655 89.65C134.125 158.25 119.833345 227.55 105.541655 296.15C104.958345 298.25 106.125 300.0 107.875 300.0C111.666655 300.0 115.458345 300.0 119.25 300.0C135.875 219.85000000000002 152.791655 139.0 169.416655 58.85000000000002C169.93892499999998 56.96990211421502 169.065115 55.00000000000003 167.083345 55.00000000000003C163.291655 55.00000000000003 159.5 55.00000000000003 155.708345 55.00000000000003ZM142.583345 167.0 140.25 178.9C139.666655 180.65 140.25 182.75 142.583345 182.75H246.416655L249.916655 165.25L245.83334499999998 167.0C243.5 167.0 241.45834499999998 167.0 239.125 167.0ZM231.83334499999998 300.0C234.166655 288.45 236.791655 276.55 239.125 265.0C253.416655 196.4 267.708345 127.45000000000002 282.0 58.85000000000002C282.583345 56.75000000000003 281.416655 55.00000000000003 279.666655 55.00000000000003C275.875 55.00000000000003 272.083345 55.00000000000003 268.291655 55.00000000000003C251.666655 135.15 234.75 216.0 218.125 296.15C217.541655 297.9 218.47654 300.0 220.458345 300.0C224.25 300.0 228.041655 300.0 231.83334499999998 300.0Z" fill="#1a1a1a"/><path d="M352.0 293.0C366.875 221.95 381.75 150.20000000000002 396.625 79.15C397.5 74.60000000000002 398.375 70.4 399.25 65.85000000000002L401.291655 62.00000000000003H385.541655C371.25 130.60000000000002 356.958345 199.9 342.666655 268.5C341.208345 275.5 339.75 282.15 338.291655 289.15L336.25 293.0ZM404.5 300.0C405.375 295.8 406.25 291.95 407.125 288.1C407.416655 286.0 406.25 284.25 404.5 284.25H285.208345C284.333345 288.45 283.75 291.95 282.875 296.15C282.352765 298.030097885785 282.875 300.0 285.208345 300.0ZM333.041655 55.00000000000003C332.166655 59.20000000000002 331.583345 62.70000000000002 330.708345 66.9C330.186075 68.78009788578501 330.708345 70.75000000000003 333.041655 70.75000000000003H452.333345C453.208345 66.55000000000001 453.791655 63.05000000000001 454.666655 58.85000000000002C455.25 56.75000000000003 454.083345 55.00000000000003 452.333345 55.00000000000003Z" fill="#1a1a1a"/><path d="M511.833345 290.55C494.041655 290.55 483.25 286.0 471.583345 274.8H468.083345C467.208345 278.65 466.625 282.15 465.75 286.0C465.166655 288.8 465.166655 289.85 466.041655 291.25C471.0 298.95 487.041655 307.0 510.375 307.0C552.958345 307.0 576.583345 286.0 588.25 227.9C600.16148 170.84300000000002 612.433915 112.05700000000002 624.345395 55.00000000000003C624.345395 52.20000000000002 622.83658 50.80000000000001 619.06456 50.80000000000001C617.555745 50.80000000000001 616.04693 50.80000000000001 614.5381150000001 50.80000000000001C610.766095 50.80000000000001 609.25728 52.20000000000002 609.25728 55.00000000000003C609.25728 55.00000000000003 609.25728 55.00000000000003 609.25728 55.00000000000003C609.25728 55.00000000000003 609.25728 55.00000000000003 609.25728 55.00000000000003C597.223615 112.40350000000001 584.8253199999999 171.5465 572.791655 228.95C569.0 247.85 562.875 261.85 554.416655 272.0C544.208345 284.6 530.208345 290.55 511.833345 290.55Z" fill="#1a1a1a"/><path d="M708.125 165.95000000000002 697.625 188.0H704.625C711.041655 217.4 723.0 248.55 734.375 279.7C740.5 296.15 746.916655 300.0 760.041655 300.0C762.083345 300.0 763.833345 300.0 765.875 300.0C767.916655 300.0 769.083345 299.65 769.666655 297.2C770.25 294.4 771.708345 288.1 772.583345 283.9H769.666655C768.208345 283.9 766.166655 283.9 761.208345 283.9C753.041655 283.9 749.541655 280.4 746.041655 270.6C733.5 235.60000000000002 720.666655 200.95 708.125 165.95000000000002ZM809.625 55.00000000000003H796.208345C777.541655 77.05000000000001 758.875 99.45000000000002 719.791655 145.3C704.625 163.5 686.25 185.2 669.041655 209.7H657.958345L653.875 242.95C705.5 183.10000000000002 759.166655 120.45000000000002 793.291655 80.55000000000001C810.208345 60.95000000000002 811.666655 59.55000000000001 811.666655 57.10000000000002C811.666655 55.70000000000002 811.083345 55.00000000000003 809.625 55.00000000000003ZM683.041655 55.00000000000003C680.708345 66.55000000000001 678.375 78.10000000000002 675.75 89.65C661.458345 158.25 647.166655 227.55 632.875 296.15C632.291655 298.25 633.458345 300.0 635.208345 300.0C639.0 300.0 642.791655 300.0 646.583345 300.0C663.208345 219.85000000000002 680.125 139.0 696.75 58.85000000000002C697.333345 55.35000000000002 696.166655 55.00000000000003 694.416655 55.00000000000003C690.625 55.00000000000003 686.833345 55.00000000000003 683.041655 55.00000000000003Z" fill="#1a1a1a"/><path d="M810.791655 300.0H933.291655C934.75 293.7 932.708345 284.25 927.458345 284.25H825.375C841.125 209.35000000000002 856.583345 133.75 872.333345 58.85000000000002C872.916655 57.10000000000002 872.333345 55.00000000000003 870.0 55.00000000000003C866.208345 55.00000000000003 862.416655 55.00000000000003 858.625 55.00000000000003C856.291655 66.55000000000001 853.666655 78.10000000000002 851.333345 89.65C836.75 158.25 822.75 227.55 808.458345 296.15C807.875 298.6 808.75 300.0 810.791655 300.0Z" fill="#1a1a1a"/><path d="M992.208345 300.0C997.458345 274.45 1002.708345 248.9 1007.958345 223.0C1021.375 156.15 1025.75 137.95000000000002 1033.625 80.9L1026.041655 87.55000000000001H1039.458345L1035.666655 80.55000000000001C1041.208345 141.45000000000002 1046.166655 189.4 1050.25 225.10000000000002C1050.833345 229.65 1052.0 230.0 1054.625 230.0C1058.125 230.0 1061.916655 230.0 1065.416655 230.0C1092.25 179.60000000000002 1110.041655 142.85000000000002 1139.791655 83.70000000000002L1130.458345 87.55000000000001H1147.375L1143.291655 82.30000000000001C1128.708345 134.45000000000002 1123.458345 157.55 1110.916655 219.5C1105.666655 244.7 1100.416655 270.25 1095.166655 295.45C1094.583345 298.25 1094.875 300.0 1097.208345 300.0C1101.0 300.0 1105.083345 300.0 1108.875 300.0C1111.5 288.1 1113.833345 276.2 1116.458345 264.3C1130.75 196.05 1157.875 64.45000000000002 1159.041655 58.85000000000002C1159.625 56.400000000000006 1159.041655 55.00000000000003 1156.708345 55.00000000000003C1151.458345 55.00000000000003 1144.166655 55.00000000000003 1138.916655 55.00000000000003C1114.125 104.70000000000002 1087.875 157.20000000000002 1058.708345 215.65L1068.625 204.8H1056.083345L1061.625 216.7C1055.791655 157.20000000000002 1051.708345 108.9 1047.916655 62.70000000000002C1047.333345 55.70000000000002 1046.166655 55.00000000000003 1043.833345 55.00000000000003C1039.166655 55.00000000000003 1033.041655 55.00000000000003 1028.375 55.00000000000003C1026.041655 66.55000000000001 1023.416655 78.45000000000002 1021.083345 90.0C1006.791655 158.60000000000002 992.5 227.55 978.208345 296.15C977.686075 298.030097885785 978.208345 300.0 980.541655 300.0C984.333345 300.0 987.25 300.0 992.208345 300.0Z" fill="#1a1a1a"/><path d="M1255.0 190.10000000000002 1240.416655 192.2C1246.541655 219.5 1252.666655 246.8 1258.791655 274.1C1262.88921 292.012135967915 1270.75 300.0 1284.166655 300.0C1286.791655 300.0 1288.360635 300.0 1290.875 300.0C1292.916655 300.0 1294.375 298.6 1294.958345 296.15C1295.833345 291.6 1296.708345 288.1 1297.583345 283.55H1294.666655C1293.208345 283.55 1290.0 283.55 1287.375 283.55C1279.5 283.55 1275.416655 280.05 1272.791655 268.15C1266.958345 242.25 1260.833345 216.0 1255.0 190.10000000000002ZM1210.932585 55.00000000000003C1210.073055 59.20000000000002 1209.356745 62.70000000000002 1208.49718 66.9C1208.139025 68.65 1207.70926 70.75000000000003 1207.70926 70.75000000000003C1216.791655 70.75000000000003 1242.75 70.75000000000003 1269.0 70.75000000000003C1283.0 70.75000000000003 1292.625 74.25000000000003 1298.458345 81.25C1306.041655 90.0 1307.208345 104.0 1303.125 122.55000000000001L1299.916655 137.95000000000002C1293.208345 170.15 1276.291655 181.7 1247.416655 181.7C1229.625 181.7 1211.833345 181.7 1194.041655 181.7L1189.958345 199.2L1193.75 197.45C1210.666655 197.45 1227.875 197.45 1247.708345 197.45C1281.833345 197.45 1306.041655 179.95 1314.791655 139.35000000000002L1318.0 124.30000000000001C1329.083345 71.80000000000001 1298.458345 55.00000000000003 1272.791655 55.00000000000003C1245.375 55.00000000000003 1217.958345 55.00000000000003 1210.932585 55.00000000000003ZM1174.5 300.0C1176.833345 288.8 1179.166655 277.25 1181.791655 265.0C1191.125 220.2 1200.458345 175.05 1209.791655 130.25C1214.166655 108.9 1218.833345 87.20000000000002 1223.208345 65.85000000000002L1225.833345 62.00000000000003H1209.5C1193.166655 140.05 1177.125 218.10000000000002 1160.791655 296.15C1160.26942 298.030097885785 1160.791655 300.0 1163.125 300.0C1166.916655 300.0 1170.708345 300.0 1174.5 300.0Z" fill="#1a1a1a"/><path d="M1445.75 49.400000000000006C1407.541655 49.400000000000006 1381.875 67.25000000000003 1374.583345 102.95000000000002L1371.958345 116.25C1366.125 143.9 1374.291655 165.60000000000002 1407.541655 178.2L1434.083345 188.35000000000002C1458.583345 197.8 1464.125 209.7 1458.583345 236.65L1456.25 248.2C1450.125 278.65 1427.666655 289.85 1399.666655 289.85C1370.791655 289.85 1354.458345 282.85 1340.166655 262.2H1336.666655C1335.791655 265.35 1335.208345 268.15 1333.75 273.75C1333.458345 275.15 1333.458345 276.9 1334.333345 278.3C1343.375 292.65 1363.791655 306.3 1397.625 305.6C1438.75 304.9 1462.375 288.1 1469.375 254.15L1472.875 237.35C1479.0 207.95 1472.291655 186.60000000000002 1441.666655 174.35000000000002L1414.541655 164.20000000000002C1385.958345 153.70000000000002 1380.416655 140.05 1385.375 117.30000000000001L1388.291655 103.65C1393.833345 77.75 1414.541655 65.15 1444.583345 65.15C1469.375 65.15 1487.75 72.15 1494.75 85.10000000000002L1492.26059 83.97261500000002C1490.1023500000001 82.00526500000004 1487.90687 86.89788000000001 1485.656895 91.93053C1484.386535 91.923145 1483.61524 91.21579500000001 1483.214665 90.08841000000001C1483.29254 88.96106000000003 1483.49267 87.83367500000003 1483.34532 86.70632500000002C1482.85042 79.83894000000001 1482.2445 73.11159 1481.53365 66.24420500000002C1479.6769 64.55685500000001 1477.50249 63.00946999999999 1474.791075 61.04212000000001C1469.69182 55.434735000000046 1459.305325 50.52738500000001 1445.75 49.400000000000006Z" fill="#1a1a1a"/><line x1="20" y1="382.5" x2="1520.0" y2="382.5" stroke="#eee" stroke-width="0.5"/><text x="20" y="553.75" font-size="11" font-family="sans-serif" font-weight="bold" fill="#555">SemiCasual</text><path d="M158.625 387.32500000000005C157.6041725 399.225 155.5625 411.475 152.9375 424.07500000000005C140.3958275 487.6 121.7291725 546.05 111.0833275 610.275C108.75 627.25 109.625 633.375 115.3125 633.375C118.22915499999999 633.375 121.0 633.025 123.7708275 632.5C132.375 550.25 156.729155 480.6 170.729155 406.925C173.46946250000002 391.45995105710756 172.1575575 386.275 167.375 386.275C164.3125 386.275 161.5416725 386.625 158.625 387.32500000000005ZM128.4375 513.5C128.4375 513.5 126.8333275 521.55 126.8333275 521.55C125.8125 526.1 127.2708275 529.775 131.5 529.775C131.5 529.775 242.479155 529.775 242.479155 529.775C242.479155 529.775 244.229155 514.725 244.229155 514.725C244.229155 514.725 240.29167249999998 516.125 240.29167249999998 516.125C237.22917249999998 514.2 234.3125 513.5 229.7916725 513.5C229.7916725 513.5 128.4375 513.5 128.4375 513.5ZM234.45834499999998 632.5C235.041655 620.6 236.5 608.175 238.54167249999998 595.575C249.3339225 532.220245672975 266.68512 476.2371215127075 279.9583275 410.775C283.458345 393.275 281.7083275 386.625 276.75 386.625C273.6875 386.625 270.770845 386.975 268.0 387.5C259.6875 459.07500000000005 232.125 538.175 220.4583275 614.3C219.0 627.95 221.0715975 633.55 225.8541725 633.55C228.9166725 633.55 231.6875 633.2 234.45834499999998 632.5Z" fill="#1a1a1a"/><path d="M353.1666725 623.225C362.7916725 553.225 382.625 490.57500000000005 396.4791725 422.675C398.6666725 411.82500000000005 398.8125 407.275 398.0833275 402.20000000000005C398.0833275 402.20000000000005 401.729155 395.025 401.729155 395.025C401.729155 395.025 387.0 396.775 387.0 396.775C375.1875 465.375 354.625 528.025 343.25 594.175C341.3541725 606.075 341.2083275 611.325 341.791655 617.625C341.791655 617.625 338.5833275 624.8 338.5833275 624.8C338.5833275 624.8 353.1666725 623.225 353.1666725 623.225ZM406.8333275 632.5C407.7083275 629.7 408.5833275 626.725 409.3125 623.575C410.1875 619.55 408.5833275 616.225 404.6458275 616.225C404.6458275 616.225 282.7291725 616.225 282.7291725 616.225C282.0 619.025 281.2708275 621.65 280.6875 624.625C279.69721 629.2400489428925 280.6875 632.5 285.5 632.5C285.5 632.5 406.8333275 632.5 406.8333275 632.5ZM330.7083275 387.5C329.8333275 390.3 329.1041725 393.1 328.375 396.425C327.38471 400.3400489428925 328.6666725 403.775 332.8958275 403.775C332.8958275 403.775 454.8125 403.775 454.8125 403.775C455.5416725 400.975 456.2708275 398.35 456.854155 395.375C457.875 390.65 456.5625 387.5 452.0416725 387.5C452.0416725 387.5 330.7083275 387.5 330.7083275 387.5Z" fill="#1a1a1a"/><path d="M513.145845 622.875C493.020845 622.875 482.083345 618.5 469.979155 605.9H467.645845C466.625 608.7 465.895845 611.325 465.166655 614.475C464.291655 618.5 465.020845 621.825 466.916655 624.275C473.1875 632.675 489.375 639.5 512.125 639.5C553.833345 639.5 573.666655 620.95 588.395845 563.9C600.573045 505.688 613.11925 445.712 625.29645 387.5C625.29645 384.70000000000005 623.848115 383.3 620.2273299999999 383.3C618.7790299999999 383.3 617.330695 383.3 615.882395 383.3C612.26161 383.3 610.813275 384.70000000000005 610.813275 387.5C610.813275 387.5 610.813275 387.5 610.813275 387.5C610.813275 387.5 610.813275 387.5 610.813275 387.5C598.45866 445.30775 585.72965 504.86725 573.375 562.675C567.541655 585.075 562.875 595.75 553.25 609.05C542.3125 618.5 529.1875 622.875 513.145845 622.875Z" fill="#1a1a1a"/><path d="M710.6041725 503.70000000000005C710.6041725 503.70000000000005 697.7708275 520.5 697.7708275 520.5C697.7708275 520.5 703.8958275 522.6 703.8958275 522.6C709.291655 555.5 719.9375 589.1 733.3541725 617.975C739.1875 631.1 746.041655 636.0 757.854155 636.0C761.9375 636.0 764.5625 634.95 766.8958275 633.375C769.0833275 631.975 770.25 630.4 770.979155 627.25C771.7083275 623.925 772.4375 619.025 772.7291725 615.35C772.7291725 615.35 770.6875 615.35 770.6875 615.35C767.9166725 617.975 765.1458275 618.85 759.6041725 618.85C752.604155 618.85 748.5208275 615.35 744.5833275 606.6C731.4583275 577.025 720.8125 545.0 710.6041725 503.70000000000005ZM803.9375 385.75C803.9375 385.75 795.1875 385.75 795.1875 385.75C779.0 415.675 757.7083275 443.85 727.0833275 477.8C708.125 498.45000000000005 689.75 515.775 669.479155 534.325C669.479155 534.325 661.458345 532.05 661.458345 532.05C661.458345 532.05 656.6458275 559.875 656.6458275 559.875C711.1875 519.275 761.0625 466.425 791.8333275 422.5C807.0 400.975 809.1875 395.9 809.7708275 392.925C810.354155 390.475 811.2291725 385.75 803.9375 385.75ZM684.0625 387.32500000000005C683.0416725 399.225 681.0 411.475 678.375 424.07500000000005C665.833345 487.6 647.166655 546.05 636.5208275 610.275C634.1875 627.25 635.0625 633.375 640.75 633.375C643.6666725 633.375 646.4375 633.025 649.208345 632.5C657.8125 550.25 682.1666725 480.6 696.1666725 406.925C698.9375 390.65 697.479155 386.275 692.8125 386.275C689.75 386.275 686.9791725 386.625 684.0625 387.32500000000005Z" fill="#1a1a1a"/><path d="M820.2708275 632.5C820.2708275 632.5 931.104155 632.5 931.104155 632.5C933.72541 625.5658317107525 932.270845 616.225 926.7291725 616.225C926.7291725 616.225 827.125 616.225 827.125 616.225C836.0208275 546.225 858.9166725 476.05 872.1875 406.225C874.9583275 391.525 873.9375 386.275 868.8333275 386.275C865.770845 386.275 863.0 386.625 860.0833275 387.32500000000005C858.916655 399.225 856.875 411.3 854.5416725 423.725C841.7083275 487.425 823.1875 546.225 812.5416725 610.1C810.7916725 624.275 812.5416725 632.5 820.2708275 632.5Z" fill="#1a1a1a"/><path d="M995.125 632.5C997.6041725 605.55 1001.25 584.375 1006.208345 559.7C1017.5833275 502.82500000000005 1031.0 465.375 1038.875 407.8C1038.875 407.8 1032.604155 417.6 1032.604155 417.6C1032.604155 417.6 1043.395845 417.07500000000005 1043.395845 417.07500000000005C1043.395845 417.07500000000005 1040.7708275 407.45000000000005 1040.7708275 407.45000000000005C1038.0 479.725 1043.104155 532.4 1051.5625 560.05C1052.4375 563.2 1053.75 563.725 1056.0833275 563.725C1058.2708275 563.725 1060.604155 563.725 1062.791655 563.725C1088.8958275 526.1 1116.8958275 473.775 1142.2708275 409.375C1142.2708275 409.375 1133.2291725 417.07500000000005 1133.2291725 417.07500000000005C1133.2291725 417.07500000000005 1147.375 417.6 1147.375 417.6C1147.375 417.6 1143.4375 411.82500000000005 1143.4375 411.82500000000005C1132.3541725 462.225 1121.5625 495.475 1110.625 544.825C1104.9375 569.675 1100.2708275 593.125 1096.916655 614.3C1095.6041725 628.475 1096.4791725 633.375 1101.875 633.375C1104.6458275 633.375 1107.8541725 632.85 1110.7708275 632.5C1111.5 620.425 1112.8125 607.65 1115.0 595.575C1126.0833275 533.975 1148.9791725 445.95000000000005 1156.416655 410.95000000000005C1160.2083275 392.925 1159.1875 386.275 1150.145845 386.275C1146.0625 386.275 1140.666655 386.975 1136.0 387.5C1118.7916725 438.07500000000005 1087.0 501.425 1056.6666725 549.9C1056.6666725 549.9 1067.4583275 540.975 1067.4583275 540.975C1067.4583275 540.975 1055.5 540.1 1055.5 540.1C1055.5 540.1 1062.2083275 551.3 1062.2083275 551.3C1052.5833275 502.3 1051.5625 453.475 1053.166655 402.025C1053.895845 390.475 1051.7083275 386.275 1043.25 386.275C1038.291655 386.275 1033.625 386.8 1029.5416725 387.5C1028.229155 399.4 1026.3333275 411.65 1023.8541725 424.425C1010.875 487.775 993.5208275 543.425 982.0 609.75C979.25971 627.6650489428926 981.270845 633.375 986.375 633.375C989.4375 633.375 991.7708275 633.025 995.125 632.5Z" fill="#1a1a1a"/><path d="M1249.6041725 535.725C1249.6041725 535.725 1235.3125 538.875 1235.3125 538.875C1240.416655 564.25 1245.9583275 587.175 1253.541655 609.925C1259.5279325 626.7560679839575 1267.25 634.25 1280.0833275 634.25C1284.3125 634.25 1286.84699 633.375 1289.4166725 631.8C1291.4583275 630.575 1292.7708275 628.475 1293.5 625.15C1294.2291725 621.3 1294.8125 617.8 1295.1041725 613.95C1295.1041725 613.95 1293.0625 613.95 1293.0625 613.95C1290.4375 616.05 1286.0625 617.45 1282.4166725 617.45C1275.125 617.45 1270.4583275 613.25 1266.8125 602.575C1259.520845 580.7 1254.4166725 560.4 1249.6041725 535.725ZM1201.17462 387.5C1200.307355 390.475 1199.657545 392.925 1198.93609 396.6C1198.173685 400.625 1198.8338025 403.775 1201.0213025 403.775C1208.3333275 403.775 1235.1666725 400.275 1263.75 400.275C1281.9791725 400.275 1292.9166725 404.65 1301.520845 413.57500000000005C1307.354155 424.6 1307.9375 438.6 1304.0 457.5C1304.0 457.5 1301.8125 468.175 1301.8125 468.175C1292.9166725 512.275 1263.3125 529.6 1229.916655 529.6C1214.3125 529.6 1202.5 528.9 1191.2708275 527.325C1191.2708275 527.325 1187.1875 542.375 1187.1875 542.375C1187.1875 542.375 1191.7083275 540.975 1191.7083275 540.975C1202.6458275 544.125 1214.3125 545.875 1229.625 545.875C1272.5 545.875 1305.8958275 519.8 1316.104155 471.15C1316.104155 471.15 1318.7291725 458.725 1318.7291725 458.725C1327.9166725 415.15 1310.4166725 384.0 1267.25 384.0C1244.9375 384.0 1220.583345 384.525 1201.17462 387.5ZM1177.7083275 632.5C1178.145845 622.875 1179.166655 610.975 1180.916655 598.55C1188.2083275 547.45 1204.833345 497.925 1214.8958275 447.70000000000005C1218.6875 428.8 1221.020845 413.05 1221.895845 400.1C1221.895845 400.1 1225.6875 392.75 1225.6875 392.75C1225.6875 392.75 1210.8125 394.5 1210.8125 394.5C1198.125 471.32500000000005 1173.1875 545.525 1163.125 616.225C1162.4263825 627.3150489428925 1163.2708275 633.55 1169.25 633.55C1172.166655 633.55 1175.083345 633.2 1177.7083275 632.5Z" fill="#1a1a1a"/><path d="M1445.75 381.9C1407.541655 381.9 1381.875 399.75 1374.583345 435.45000000000005L1371.958345 448.75C1366.125 476.4 1374.291655 498.1 1407.541655 510.7L1434.083345 520.85C1458.583345 530.3 1464.125 542.2 1458.583345 569.15L1456.25 580.7C1450.125 611.15 1427.666655 622.35 1399.666655 622.35C1370.791655 622.35 1354.458345 615.35 1340.166655 594.7H1336.666655C1335.791655 597.85 1335.208345 600.65 1333.75 606.25C1333.458345 607.65 1333.458345 609.4 1334.333345 610.8C1343.375 625.15 1363.791655 638.8 1397.625 638.1C1438.75 637.4 1462.375 620.6 1469.375 586.65L1472.875 569.85C1479.0 540.45 1472.291655 519.1 1441.666655 506.85L1414.541655 496.70000000000005C1385.958345 486.20000000000005 1380.416655 472.55 1385.375 449.8L1388.291655 436.15C1393.833345 410.25 1414.541655 397.65 1444.583345 397.65C1469.375 397.65 1487.75 404.65 1494.75 417.6L1495.048375 417.313735C1494.59922 416.49658999999997 1493.469945 415.21097000000003 1491.72887 413.51941999999997C1489.44596 411.48431000000005 1486.693 409.16814999999997 1483.54405 406.633415C1480.0759 403.94251 1476.36807 401.15791 1472.50323 398.34209C1468.56706 395.55749000000003 1464.6484249999999 392.866585 1460.8392 390.33185000000003C1457.23413 388.01569 1453.930515 385.98058000000003 1451.028035 384.28903C1448.62826 383.00341000000003 1446.834195 382.18626500000005 1445.75 381.9Z" fill="#1a1a1a"/><line x1="20" y1="715.0" x2="1520.0" y2="715.0" stroke="#eee" stroke-width="0.5"/><text x="20" y="886.25" font-size="11" font-family="sans-serif" font-weight="bold" fill="#555">Casual</text><path d="M161.541655 719.65C161.833345 731.9 160.083345 744.85 157.458345 758.5C146.666655 816.95 123.625 864.55 116.625 924.4C112.541655 956.25 113.125 966.75 122.75 966.75C124.79165499999999 966.75 126.54165499999999 966.05 128.291655 965.0C128.875 880.65 160.666655 822.2 172.041655 755.0C177.0 725.95 175.25 717.55 167.666655 717.55C165.333345 717.55 163.583345 718.25 161.541655 719.65ZM114.29165499999999 860.0 113.416655 864.2C111.958345 871.55 114.29165499999999 876.8 120.41665499999999 876.8H238.541655V864.2L234.75 865.25C230.95834499999998 861.4 227.166655 860.0 220.458345 860.0ZM237.08334499999998 965.0C235.916655 952.75 236.20834499999998 939.8 237.95834499999998 926.15C245.25118999999998 868.04049134595 265.66189499999996 825.024243025415 277.916655 762.7C284.333345 729.8 282.0 718.25 273.833345 718.25C271.5 718.25 269.458345 718.95 267.708345 720.0C267.708345 783.0 229.5 860.35 222.791655 932.45C220.458345 958.0 223.666655 967.1 231.25 967.1C233.58334499999998 967.1 235.33334499999998 966.4 237.08334499999998 965.0Z" fill="#1a1a1a"/><path d="M354.333345 953.45C358.708345 884.5 383.5 830.95 396.333345 766.2C399.833345 749.05 399.25 744.15 396.916655 738.55L402.166655 728.05L388.458345 731.55C379.125 800.15 352.291655 856.15 343.833345 919.85C341.5 936.65 342.666655 940.5 345.291655 946.1L340.916655 956.6ZM409.166655 965.0C410.041655 963.6 410.916655 961.5 411.5 959.05C412.958345 953.1 410.916655 948.2 404.791655 948.2H280.25C279.666655 949.6 278.791655 951.35 278.5 953.1C277.041655 960.45 278.5 965.0 285.791655 965.0ZM328.375 720.0C327.5 721.4 326.625 723.5 326.041655 725.95C324.583345 731.9 326.625 736.8 332.75 736.8H457.291655C457.875 735.4 458.75 733.65 459.041655 731.9C460.5 724.55 459.041655 720.0 451.75 720.0Z" fill="#1a1a1a"/><path d="M514.458345 955.2C492.0 955.2 480.916655 951.0 468.375 937.0H467.208345C466.041655 938.75 465.166655 940.5 464.583345 942.95C463.416655 948.2 464.875 953.8 467.791655 957.3C475.375 966.4 491.708345 972.0 513.875 972.0C554.708345 972.0 570.75 955.9 588.541655 899.9C600.985065 840.533 613.80553 779.367 626.248905 720.0C626.248905 717.2 624.861225 715.8 621.391955 715.8C620.004275 715.8 618.6165599999999 715.8 617.22888 715.8C613.75961 715.8 612.37193 717.2 612.37193 720.0C612.37193 720.0 612.37193 720.0 612.37193 720.0C612.37193 720.0 612.37193 720.0 612.37193 720.0C599.69542 778.212 586.63482 838.188 573.958345 896.4C566.083345 922.3 562.875 929.65 552.083345 946.1C540.416655 952.4 528.166655 955.2 514.458345 955.2Z" fill="#1a1a1a"/><path d="M713.083345 841.45 697.916655 853.0 703.166655 857.2C707.541655 893.6 716.875 929.65 732.333345 956.25C737.875 966.05 745.166655 972.0 755.666655 972.0C761.791655 972.0 765.291655 969.9 767.916655 966.75C770.25 963.95 771.416655 961.15 772.291655 957.3C773.166655 953.45 773.166655 949.95 772.875 946.8H771.708345C767.625 952.05 764.125 953.8 758.0 953.8C752.166655 953.8 747.5 950.3 743.125 942.6C729.416655 918.45 720.958345 889.05 713.083345 841.45ZM798.25 716.5H794.166655C780.458345 754.3 756.541655 788.25 734.375 810.3C711.625 833.4 693.25 846.35 669.916655 858.95L664.958345 854.4L659.416655 876.8C716.875 855.45 762.958345 812.4 790.375 764.45C803.791655 741.0 806.708345 732.25 807.875 728.75C809.041655 725.25 811.375 716.5 798.25 716.5ZM685.083345 719.65C685.375 731.9 683.625 744.85 681.0 758.5C670.208345 816.95 647.166655 864.55 640.166655 924.4C636.083345 956.25 636.666655 966.75 646.291655 966.75C648.333345 966.75 650.083345 966.05 651.833345 965.0C652.416655 880.65 684.208345 822.2 695.583345 755.0C700.541655 725.95 698.791655 717.55 691.208345 717.55C688.875 717.55 687.125 718.25 685.083345 719.65Z" fill="#1a1a1a"/><path d="M829.75 965.0H928.916655C932.70082 957.431663421505 931.833345 948.2 926.0 948.2H828.875C830.916655 883.1 861.25 818.35 872.041655 753.6C877.0 725.95 875.541655 717.55 867.666655 717.55C865.333345 717.55 863.583345 718.25 861.541655 719.65C861.541655 731.9 860.083345 744.5 857.75 757.8C846.666655 816.6 823.625 864.9 816.625 924.05C813.708345 949.95 816.333345 965.0 829.75 965.0Z" fill="#1a1a1a"/><path d="M998.041655 965.0C997.75 936.65 999.791655 919.85 1004.458345 896.4C1013.791655 849.5 1036.25 792.8 1044.125 734.7L1039.166655 747.65L1047.333345 746.6L1045.875 734.35C1034.791655 818.0 1040.041655 875.4 1052.875 895.0C1054.041655 896.75 1055.5 897.45 1057.541655 897.45C1058.416655 897.45 1059.291655 897.45 1060.166655 897.45C1085.541655 872.6 1123.75 804.7 1144.75 735.05L1136.0 746.6L1147.375 747.65L1143.583345 741.35C1136.0 790.0 1119.666655 833.4 1110.333345 870.15C1104.208345 894.65 1100.125 916.0 1098.666655 933.15C1096.625 958.7 1098.083345 966.75 1106.541655 966.75C1108.291655 966.75 1110.625 965.7 1112.666655 965.0C1111.5 952.75 1111.791655 939.1 1113.541655 926.85C1121.416655 871.9 1140.083345 827.45 1153.791655 763.05C1160.791655 729.45 1159.333345 717.55 1143.583345 717.55C1140.666655 717.55 1137.166655 718.95 1133.083345 720.0C1123.458345 771.45 1086.125 845.65 1054.625 884.15L1066.291655 877.15L1054.916655 875.4L1062.791655 885.9C1049.375 847.4 1051.416655 798.05 1058.416655 741.35C1060.458345 725.25 1057.25 717.55 1042.666655 717.55C1037.416655 717.55 1034.208345 718.6 1030.708345 720.0C1030.416655 732.25 1029.25 744.85 1026.625 758.85C1014.958345 816.95 994.541655 859.3 985.791655 923.35C980.833345 957.3 984.333345 966.75 992.208345 966.75C994.541655 966.75 996.291655 966.05 998.041655 965.0Z" fill="#1a1a1a"/><path d="M1244.208345 881.35 1230.208345 885.55C1234.291655 909.0 1239.25 927.55 1248.291655 945.75C1256.166655 961.5 1263.75 968.5 1276.0 968.5C1281.833345 968.5 1285.333345 966.75 1287.958345 963.6C1290.0 961.15 1291.166655 958.35 1292.041655 954.15C1292.625 951.0 1292.916655 947.5 1292.625 944.35H1291.458345C1287.666655 948.55 1282.125 951.35 1277.458345 951.35C1270.75 951.35 1265.5 946.45 1260.833345 937.0C1252.083345 919.15 1248.0 904.8 1244.208345 881.35ZM1191.416655 720.0C1190.541655 721.75 1189.958345 723.15 1189.375 726.3C1188.208345 732.6 1189.958345 736.8 1194.333345 736.8C1199.875 736.8 1227.583345 729.8 1258.5 729.8C1280.958345 729.8 1293.208345 735.05 1304.583345 745.9C1308.666655 759.2 1308.666655 773.2 1304.875 792.45L1303.708345 798.4C1292.625 854.4 1250.333345 877.5 1212.416655 877.5C1199.0 877.5 1193.166655 876.1 1188.5 872.95L1184.416655 885.55L1189.666655 884.5C1194.625 890.8 1200.75 894.3 1211.541655 894.3C1263.166655 894.3 1305.75 859.65 1317.416655 802.95L1319.458345 793.15C1326.75 758.5 1322.375 713.0 1261.708345 713.0C1244.5 713.0 1223.208345 714.05 1191.416655 720.0ZM1180.916655 965.0C1179.458345 956.95 1179.166655 944.7 1180.041655 932.1C1185.291655 874.7 1209.208345 820.8 1220.0 765.15C1223.208345 748.7 1223.208345 738.9 1220.583345 734.35L1225.541655 723.5L1212.125 727.0C1203.083345 802.6 1169.25 872.95 1165.458345 936.3C1164.583345 956.6 1165.75 967.1 1175.375 967.1C1177.416655 967.1 1179.458345 966.4 1180.916655 965.0Z" fill="#1a1a1a"/><path d="M1465.583345 713.0C1423.291655 713.0 1374.875 756.05 1365.25 802.25L1364.083345 807.85C1358.833345 833.75 1369.333345 852.3 1404.625 869.45L1427.375 880.65C1447.5 890.8 1456.25 902.0 1453.916655 917.75L1453.625 919.15C1446.625 939.8 1425.041655 952.75 1398.208345 952.75C1365.833345 952.75 1350.958345 943.65 1340.166655 923.0H1339.0C1336.666655 926.15 1335.5 928.95 1334.625 933.5C1333.75 938.75 1334.625 943.65 1338.125 948.2C1347.166655 959.75 1364.375 969.2 1397.625 969.2C1431.166655 969.2 1459.166655 953.45 1465.583345 921.95L1466.166655 919.5C1470.833345 898.15 1460.041655 879.95 1432.625 866.65L1410.166655 855.8C1378.083345 840.4 1375.166655 824.65 1377.791655 811.35L1378.666655 806.8C1386.25 767.6 1432.041655 729.8 1463.833345 729.8C1474.041655 729.8 1479.291655 731.55 1488.041655 738.55C1486.7 737.5 1486.0 736.8 1485.371365 736.4610600000001C1485.51945 730.194205 1483.71653 723.7873850000001 1479.50995 719.48053C1476.065495 716.153675 1471.533835 713.806855 1465.583345 713.0Z" fill="#1a1a1a"/>
</svg>