<?xml version="1.0" encoding="UTF-8"?>
<svg xmlns="http://www.w3.org/2000/svg" width="1890.0" height="725.0"
     viewBox="0 0 1890.0 725.0">
<rect width="100%" height="100%" fill="white"/>
<text x="945.0" y="30" text-anchor="middle" font-size="14" font-family="sans-serif" font-weight="bold" fill="#333">Mono A Upright — Key glyphs + features</text><text x="187.5" y="48" text-anchor="middle" font-size="10" font-family="sans-serif" fill="#999">J</text><text x="362.5" y="48" text-anchor="middle" font-size="10" font-family="sans-serif" fill="#999">S</text><text x="537.5" y="48" text-anchor="middle" font-size="10" font-family="sans-serif" fill="#999">L</text><text x="712.5" y="48" text-anchor="middle" font-size="10" font-family="sans-serif" fill="#999">Z</text><text x="887.5" y="48" text-anchor="middle" font-size="10" font-family="sans-serif" fill="#999">f</text><text x="1062.5" y="48" text-anchor="middle" font-size="10" font-family="sans-serif" fill="#999">i</text><text x="1237.5" y="48" text-anchor="middle" font-size="10" font-family="sans-serif" fill="#999">l</text><text x="1412.5" y="48" text-anchor="middle" font-size="10" font-family="sans-serif" fill="#999">r</text><text x="1587.5" y="48" text-anchor="middle" font-size="10" font-family="sans-serif" fill="#999">@</text><text x="1762.5" y="48" text-anchor="middle" font-size="10" font-family="sans-serif" fill="#999">fi</text><text x="20" y="221.25" font-size="11" font-family="sans-serif" font-weight="bold" fill="#555">Linear</text><path d="M175.833345 290.55C160.958345 290.55 149.583345 286.0 135.583345 274.1H132.083345C132.083345 278.65 132.083345 283.2 132.083345 287.75C132.083345 289.5 132.375 290.2 133.25 291.25C139.958345 299.3 157.458345 307.0 175.833345 307.0C222.791655 307.0 242.625 273.05 242.916655 224.75C242.916655 168.75 242.916655 114.85000000000002 242.916655 58.85000000000002C242.916655 56.400000000000006 241.75 55.00000000000003 239.70834499999998 55.00000000000003C206.75 55.00000000000003 173.791655 55.00000000000003 140.833345 55.00000000000003C140.833345 59.20000000000002 140.833345 63.400000000000006 140.833345 67.60000000000002C140.833345 70.05000000000001 142.0 71.45000000000002 144.041655 71.45000000000002C174.958345 71.45000000000002 205.583345 71.45000000000002 236.5 71.45000000000002L225.125 67.60000000000002L230.666655 73.20000000000002L227.75 60.95000000000002C227.75 116.25 227.75 168.4 227.75 223.7C227.75 246.45 223.375 263.6 213.75 275.15C205.291655 285.3 192.458345 290.55 175.833345 290.55Z" fill="#1a1a1a"/><path d="M367.458345 49.400000000000006C329.25 49.400000000000006 301.25 74.03508771930501 301.25 111.35000000000002V121.85000000000002C301.25 153.35000000000002 313.53045 169.735814246305 348.208345 182.05L376.791655 192.2C405.05954499999996 202.23797702978 413.541655 211.45 413.541655 233.85000000000002V240.85C413.541655 272.0 393.24036 289.15 362.208345 289.15C335.375 289.15 318.166655 283.2 300.958345 265.0H297.458345C297.458345 269.55 297.458345 273.989024390255 297.458345 278.65C297.458345 280.75 297.75 282.15 299.208345 283.9C309.88478 296.71172119584 333.598225 305.6 362.208345 305.6C404.208345 305.6 428.416655 279.889759036145 428.416655 241.9V230.7C428.416655 199.2918032787 414.43289500000003 186.58036384055504 379.125 174.35000000000002L350.833345 164.55C323.41536 155.052634494855 315.833345 141.8 315.833345 119.75V113.10000000000002C315.833345 84.4 336.71536 65.85000000000002 367.458345 65.85000000000002C392.25 65.85000000000002 409.458345 72.50000000000003 419.083345 85.10000000000002L411.208345 66.9C411.208345 82.30000000000001 411.208345 98.05000000000001 411.208345 113.45000000000002C411.208345 115.9 412.375 117.30000000000001 414.416655 117.30000000000001C418.208345 117.30000000000001 422.0 117.30000000000001 425.791655 117.30000000000001C425.791655 102.96435000000002 425.791655 88.60000000000002 425.791655 74.25000000000003C425.791655 71.80000000000001 425.208345 70.75000000000003 423.458345 68.65C413.541655 56.75000000000003 392.833345 49.400000000000006 367.458345 49.400000000000006Z" fill="#1a1a1a"/><path d="M485.291655 300.0H604.583345C604.583345 296.85 604.583345 291.6 604.583345 287.4C604.583345 284.6 603.708345 283.55 601.375 283.55H496.666655C496.666655 208.65 496.666655 133.75 496.666655 58.85000000000002C496.666655 56.75000000000003 495.5 55.00000000000003 493.458345 55.00000000000003C489.666655 55.00000000000003 485.875 55.00000000000003 482.083345 55.00000000000003C482.083345 66.55000000000001 482.083345 78.45000000000002 482.083345 90.0C482.083345 123.60000000000002 482.083345 217.05 482.083345 296.15C482.083345 298.6 483.25 300.0 485.291655 300.0Z" fill="#1a1a1a"/><path d="M782.5 300.0C782.5 295.8 782.5 291.6 782.5 287.4C782.5 284.95 781.333345 283.55 779.291655 283.55H700.833345C681.875 283.55 671.375 283.55 659.416655 283.55V279.7C669.041655 263.95 678.958345 247.15 689.166655 230.35000000000002C724.75 170.5 762.083345 109.25 782.5 74.95000000000002V58.85000000000002C782.5 56.400000000000006 781.333345 55.00000000000003 779.291655 55.00000000000003H642.5C642.5 60.60000000000002 642.5 63.400000000000006 642.5 67.25000000000003C642.5 70.4 643.375 71.45000000000002 645.708345 71.45000000000002H712.208345C736.125 71.45000000000002 750.125 71.45000000000002 766.458345 71.45000000000002V75.30000000000001C755.375 93.5 744.583345 111.0 734.375 127.80000000000001C704.625 176.8 676.916655 223.0 642.5 280.05V296.15C642.5 298.6 643.666655 300.0 645.708345 300.0Z" fill="#1a1a1a"/><path d="M918.416655 34.0C885.458345 34.0 864.166655 53.60000000000002 864.166655 105.4C864.166655 169.1 864.166655 232.8 864.166655 296.5H879.916655L878.75 292.65C878.75 288.45 878.75 284.6 878.75 280.4C878.75 221.25 878.75 162.10000000000002 878.75 103.30000000000001C878.75 83.35000000000002 881.666655 69.70000000000002 888.958345 60.95000000000002C895.083345 53.95000000000002 904.125 50.45000000000002 917.25 50.45000000000002C931.541655 50.45000000000002 946.416655 53.25000000000003 956.916655 59.20000000000002H960.416655C960.416655 55.00000000000003 960.416655 50.45000000000002 960.416655 46.25000000000003C960.416655 44.85000000000002 960.125 44.150000000000006 959.541655 43.44999999999999C956.333345 39.60000000000002 936.791655 34.0 918.416655 34.0ZM826.25 115.9C826.25 120.45000000000002 826.25 123.60000000000002 826.25 128.15C826.25 130.60000000000002 827.416655 132.0 829.458345 132.0H945.833345C945.833345 127.45000000000002 945.833345 124.30000000000001 945.833345 119.75C945.833345 117.30000000000001 944.666655 115.9 942.625 115.9ZM826.25 283.9C826.25 288.45 826.25 291.6 826.25 296.15C826.25 298.6 827.416655 300.0 829.458345 300.0H937.083345C937.083345 295.45 937.083345 292.3 937.083345 287.75C937.083345 285.3 935.916655 283.9 933.875 283.9Z" fill="#1a1a1a"/><path d="M998.333345 115.9C998.333345 120.10000000000002 998.333345 124.30000000000001 998.333345 128.5C998.333345 130.95000000000002 999.5 132.35000000000002 1001.541655 132.35000000000002C1018.75 132.35000000000002 1035.958345 132.35000000000002 1053.166655 132.35000000000002H1056.666655C1056.666655 173.3 1056.666655 214.60000000000002 1056.666655 255.55C1056.666655 285.3 1066.875 300.0 1094.875 300.0C1104.5 300.0 1121.416655 300.0 1123.458345 300.0C1125.5 300.0 1126.666655 298.6 1126.666655 296.15C1126.666655 291.95 1126.666655 287.75 1126.666655 283.55H1123.166655C1113.833345 283.55 1105.083345 283.55 1095.75 283.55C1086.416655 283.55 1080.0 281.8 1076.208345 277.25C1072.416655 272.7 1071.25 265.7 1071.25 254.15C1071.25 209.35000000000002 1071.25 164.55 1071.25 119.75C1071.25 117.30000000000001 1070.083345 115.9 1068.041655 115.9C1044.708345 115.9 1021.666655 115.9 998.333345 115.9ZM1045.758345 49.400000000000006C1045.758345 59.45186000000001 1053.906485 67.60000000000002 1063.958345 67.60000000000002C1074.010205 67.60000000000002 1082.158345 59.45186000000001 1082.158345 49.400000000000006C1082.158345 39.34814 1074.010205 31.200000000000045 1063.958345 31.200000000000045C1053.906485 31.200000000000045 1045.758345 39.34814 1045.758345 49.400000000000006Z" fill="#1a1a1a"/><path d="M1173.333345 37.5C1173.333345 41.69999999999999 1173.333345 45.900000000000006 1173.333345 50.10000000000002C1173.333345 52.55000000000001 1174.5 53.95000000000002 1176.541655 53.95000000000002C1193.75 53.95000000000002 1211.25 53.95000000000002 1228.458345 53.95000000000002H1231.666655C1231.666655 94.9 1231.666655 214.60000000000002 1231.666655 255.55C1231.666655 285.3 1241.875 300.0 1269.875 300.0C1279.5 300.0 1296.416655 300.0 1298.458345 300.0C1300.5 300.0 1301.666655 298.6 1301.666655 296.15C1301.666655 291.95 1301.666655 287.75 1301.666655 283.55H1298.166655C1288.833345 283.55 1280.083345 283.55 1270.75 283.55C1261.416655 283.55 1255.0 281.8 1251.208345 277.25C1247.416655 272.7 1246.25 265.7 1246.25 254.15C1246.25 209.35000000000002 1246.25 86.15 1246.25 41.35000000000002C1246.25 38.900000000000034 1245.083345 37.5 1243.041655 37.5C1219.708345 37.5 1196.666655 37.5 1173.333345 37.5Z" fill="#1a1a1a"/><path d="M1345.416655 115.9C1345.416655 120.10000000000002 1345.416655 124.65 1345.416655 128.85000000000002C1345.416655 131.3 1346.583345 132.70000000000002 1348.625 132.70000000000002C1358.25 132.70000000000002 1368.166655 132.70000000000002 1377.791655 132.70000000000002H1381.875C1381.875 187.3 1381.875 241.55 1381.875 296.15C1381.875 298.6 1383.041655 300.0 1385.083345 300.0C1388.875 300.0 1392.666655 300.0 1396.458345 300.0C1396.458345 288.1 1396.458345 276.2 1396.458345 264.65C1396.458345 226.5 1396.458345 189.05 1396.458345 150.55C1396.458345 150.20000000000002 1393.541655 115.9 1393.25 115.9C1377.5 115.9 1361.166655 115.9 1345.416655 115.9ZM1451.583345 114.15C1432.041655 114.15 1414.541655 123.25 1399.958345 147.75H1392.375V173.65C1416.875 137.95000000000002 1434.375 130.95000000000002 1451.583345 130.95000000000002C1456.833345 130.95000000000002 1460.916655 131.65 1465.0 133.05C1465.0 146.70000000000002 1465.0 156.85000000000002 1465.0 169.1V173.3C1468.791655 173.3 1472.583345 173.3 1476.375 173.3C1478.416655 173.3 1479.583345 171.9 1479.583345 169.45000000000002V125.70000000000002C1479.583345 124.65 1479.291655 123.25 1478.416655 122.20000000000002C1475.208345 118.35000000000002 1465.291655 114.15 1451.583345 114.15Z" fill="#1a1a1a"/><path d="M1523.916655 125.70000000000002V281.8C1523.916655 331.15 1548.708345 362.65 1587.5 362.65C1617.25 362.65 1631.833345 352.15 1634.166655 349.35C1635.625 347.6 1635.916655 346.9 1635.916655 344.45C1635.916655 340.95 1635.916655 337.45 1635.916655 333.95H1632.416655C1619.0 342.35 1606.166655 346.2 1587.5 346.2C1572.625 346.2 1560.958345 340.6 1552.791655 330.8C1542.875 318.9 1538.5 303.15 1538.5 281.45V126.05000000000001C1538.5 85.80000000000001 1556.0 61.30000000000001 1587.5 61.30000000000001C1602.375 61.30000000000001 1613.458345 66.20000000000002 1622.208345 76.70000000000002C1631.833345 88.25 1636.5 103.65 1636.5 125.35000000000002C1636.5 168.4 1636.5 239.1 1636.5 282.15C1636.5 284.25 1637.958345 286.0 1639.708345 286.0H1651.083345C1651.083345 283.55 1651.083345 280.75 1651.083345 278.3C1651.083345 236.65 1651.083345 167.35 1651.083345 125.70000000000002C1651.083345 76.35000000000002 1626.291655 44.85000000000002 1587.5 44.85000000000002C1548.708345 44.85000000000002 1523.916655 76.35000000000002 1523.916655 125.70000000000002ZM1644.083345 225.8C1629.208345 267.45 1618.125 272.7 1603.541655 272.7C1586.916655 272.7 1580.208345 261.15 1580.208345 239.8V206.9C1580.208345 190.45 1584.583345 179.25 1589.25 173.65C1594.5 167.35 1603.25 162.45000000000002 1618.125 162.45000000000002C1625.125 162.45000000000002 1639.125 162.45000000000002 1643.5 162.45000000000002V146.0H1638.833345C1634.166655 146.0 1623.375 146.0 1618.125 146.0C1582.833345 146.0 1565.625 168.05 1565.625 206.55V240.15C1565.625 271.65 1578.458345 289.5 1604.125 289.5C1619.583345 289.5 1626.875 283.2 1633.0 270.95H1644.083345Z" fill="#1a1a1a"/><path d="M1689.583345 349.7C1689.583345 353.9 1689.583345 358.1 1689.583345 362.3C1689.583345 364.75 1690.75 366.15 1692.791655 366.15C1694.833345 366.15 1711.75 366.15 1721.375 366.15C1749.375 366.15 1759.583345 351.45 1759.583345 321.7C1759.583345 263.6 1759.583345 162.45000000000002 1759.583345 103.30000000000001C1759.583345 83.70000000000002 1762.5 70.05000000000001 1769.208345 61.650000000000006C1775.333345 53.95000000000002 1784.958345 50.45000000000002 1798.083345 50.45000000000002C1808.0 50.45000000000002 1818.5 52.20000000000002 1827.25 55.00000000000003C1827.25 64.45000000000002 1827.25 73.20000000000002 1827.25 82.65V86.85000000000002C1831.041655 86.85000000000002 1834.25 86.85000000000002 1838.041655 86.85000000000002C1840.083345 86.85000000000002 1841.25 85.45000000000002 1841.25 83.0V46.95000000000002C1841.25 45.55000000000001 1840.958345 44.85000000000002 1840.375 44.150000000000006C1837.166655 40.30000000000001 1817.625 34.0 1799.25 34.0C1766.291655 34.0 1745.0 53.60000000000002 1745.0 105.4C1745.0 175.75 1745.0 249.95 1745.0 320.3C1745.0 331.85 1743.833345 338.85 1740.041655 343.4C1736.25 347.95 1729.833345 349.7 1720.5 349.7C1711.166655 349.7 1702.416655 349.7 1693.083345 349.7ZM1701.25 169.8C1701.25 174.35000000000002 1701.25 177.5 1701.25 182.05C1701.25 184.5 1702.416655 185.9 1704.458345 185.9H1820.833345C1820.833345 181.35000000000002 1820.833345 178.2 1820.833345 173.65C1820.833345 171.20000000000002 1819.666655 169.8 1817.625 169.8ZM1873.333345 115.9C1873.333345 120.10000000000002 1873.333345 124.30000000000001 1873.333345 128.5C1873.333345 130.95000000000002 1874.5 132.35000000000002 1876.541655 132.35000000000002C1893.75 132.35000000000002 1910.958345 132.35000000000002 1928.166655 132.35000000000002H1931.666655C1931.666655 173.3 1931.666655 214.60000000000002 1931.666655 255.55C1931.666655 285.3 1941.875 300.0 1969.875 300.0C1979.5 300.0 1996.416655 300.0 1998.458345 300.0C2000.5 300.0 2001.666655 298.6 2001.666655 296.15C2001.666655 291.95 2001.666655 287.75 2001.666655 283.55H1998.166655C1988.833345 283.55 1980.083345 283.55 1970.75 283.55C1961.416655 283.55 1955.0 281.8 1951.208345 277.25C1947.416655 272.7 1946.25 265.7 1946.25 254.15C1946.25 209.35000000000002 1946.25 164.55 1946.25 119.75C1946.25 117.30000000000001 1945.083345 115.9 1943.041655 115.9C1919.708345 115.9 1896.666655 115.9 1873.333345 115.9ZM1920.758345 49.400000000000006C1920.758345 59.45186000000001 1928.906485 67.60000000000002 1938.958345 67.60000000000002C1949.010205 67.60000000000002 1957.158345 59.45186000000001 1957.158345 49.400000000000006C1957.158345 39.34814 1949.010205 31.200000000000045 1938.958345 31.200000000000045C1928.906485 31.200000000000045 1920.758345 39.34814 1920.758345 49.400000000000006Z" fill="#1a1a1a"/><line x1="20" y1="382.5" x2="1870.0" y2="382.5" stroke="#eee" stroke-width="0.5"/><text x="20" y="553.75" font-size="11" font-family="sans-serif" font-weight="bold" fill="#555">Casual</text><path d="M176.416655 622.0C152.791655 622.0 142.291655 617.8 126.83334500000001 602.4H125.08334500000001C124.20834500000001 605.2 123.91665499999999 608.35 123.91665499999999 611.5C123.91665499999999 616.75 125.375 620.6 127.70834500000001 623.4C137.041655 634.6 156.291655 639.5 174.083345 639.5C218.708345 639.5 238.541655 609.75 239.125 553.4C239.125 500.9 239.125 448.05 239.125 395.55C239.125 390.3 235.33334499999998 387.5 227.458345 387.5C197.708345 387.5 168.25 387.5 139.375 387.5C138.791655 388.9 138.5 391.0 138.5 393.1C138.5 399.75 141.416655 405.0 149.583345 405.0C174.958345 405.0 203.833345 405.0 233.291655 405.0L221.625 400.1L228.625 408.5L224.541655 394.5C224.541655 447.0 224.541655 499.5 224.541655 552.0C224.541655 580.35 221.916655 594.0 215.208345 607.3C204.416655 618.15 191.0 622.0 176.416655 622.0Z" fill="#1a1a1a"/><path d="M385.25 380.5C344.125 380.5 301.25 435.45000000000005 301.25 479.20000000000005V482.70000000000005C301.25 506.5 314.958345 520.85 354.041655 538.35L379.125 549.55C402.166655 559.7 412.375 570.2 415.0 584.55V585.6C410.041655 607.3 391.666655 619.2 362.5 619.2C332.75 619.2 313.791655 608.35 300.958345 587.0H299.208345C298.041655 590.85 297.458345 594.7 297.458345 599.95C297.458345 605.55 298.625 609.4 302.416655 613.95C314.375 628.3 335.666655 636.7 362.5 636.7C401.291655 636.7 427.833345 616.05 427.833345 583.85V582.1C427.833345 560.75 412.666655 545.35 382.333345 532.05L357.541655 521.2C321.083345 505.45 315.833345 494.25 315.833345 482.0V479.55C315.833345 443.15 353.166655 398.0 385.25 398.0C392.541655 398.0 401.291655 399.05 406.833345 405.70000000000005L400.125 395.9C406.833345 407.8 406.25 410.6 406.25 459.6C406.25 469.4 409.75 475.0 416.75 475.0C418.5 475.0 419.666655 474.65 420.833345 473.95000000000005C420.833345 457.15 420.833345 440.70000000000005 420.833345 423.9C420.833345 412.70000000000005 419.083345 400.1 412.083345 391.70000000000005C406.541655 385.05 398.958345 380.5 385.25 380.5Z" fill="#1a1a1a"/><path d="M495.5 632.5H604.583345C604.583345 630.4 604.583345 628.3 604.583345 626.55C604.583345 619.2 601.958345 615.0 597.875 615.0H499.583345C499.583345 545.0 499.583345 475.0 499.583345 405.0C499.583345 396.25 499.0 384.0 488.5 384.0C486.166655 384.0 484.708345 384.35 482.958345 385.05C484.708345 397.3 485.0 404.3 485.0 421.1C485.0 486.20000000000005 485.0 553.4 485.0 613.95C485.0 624.1 489.083345 632.5 495.5 632.5Z" fill="#1a1a1a"/><path d="M782.5 632.5C782.5 630.75 782.5 628.65 782.5 626.9C782.5 618.85 781.041655 615.0 775.791655 615.0H712.208345C696.75 615.0 681.291655 615.7 664.375 616.4L663.791655 613.95C680.125 597.85 694.708345 581.4 707.25 565.3C762.083345 494.25 782.5 425.65 782.5 405.0V402.9C782.5 392.05 778.125 387.5 773.458345 387.5H646.0C645.708345 388.55 645.416655 390.3 645.416655 392.4C645.416655 399.05 646.583345 405.0 651.833345 405.0H712.5C730.583345 405.0 746.916655 405.0 767.333345 403.95000000000005L768.5 405.70000000000005C765.0 424.6 759.166655 443.85 751.0 462.4C728.25 517.0 688.583345 569.85 642.5 615.0V618.5C642.5 626.55 643.958345 632.5 649.208345 632.5Z" fill="#1a1a1a"/><path d="M919.583345 366.5C877.875 366.5 858.333345 388.9 858.333345 448.4C858.333345 505.45 858.333345 562.15 858.333345 619.2H871.75L869.708345 613.6C871.75 610.45 872.916655 605.2 872.916655 597.85C872.916655 548.85 872.916655 499.5 872.916655 450.5C872.916655 424.25 875.25 405.70000000000005 880.208345 395.55C889.541655 387.5 900.625 384.0 919.583345 384.0C932.416655 384.0 946.416655 388.20000000000005 957.791655 396.25H959.541655C960.125 394.5 960.416655 391.35 960.416655 388.9C960.416655 382.95000000000005 959.541655 380.15 957.5 377.70000000000005C952.833345 372.1 938.25 366.5 919.583345 366.5ZM821.875 448.4C821.875 449.45000000000005 821.875 450.85 821.875 451.9C821.875 459.6 823.333345 465.9 828.583345 465.9H945.833345C945.833345 464.85 945.833345 463.45000000000005 945.833345 462.4C945.833345 454.70000000000005 944.375 448.4 939.125 448.4ZM818.375 615.0C817.791655 616.4 817.5 618.15 817.5 620.6C817.5 627.25 818.958345 632.5 825.958345 632.5H942.333345C942.625 631.8 942.916655 630.75 942.916655 629.7C942.916655 621.65 913.458345 615.0 878.75 615.0Z" fill="#1a1a1a"/><path d="M993.375 455.4C992.791655 457.15 992.5 459.25 992.5 461.70000000000005C992.5 468.35 994.833345 472.9 999.208345 472.9C1006.5 472.9 1022.833345 464.85 1053.458345 459.6L1054.625 460.65C1054.625 501.6 1054.625 542.55 1054.625 583.5C1054.625 620.95 1069.791655 639.5 1095.458345 639.5C1108.0 639.5 1119.375 635.65 1125.208345 628.65C1128.416655 624.8 1129.875 619.55 1129.875 613.6C1129.875 610.8 1129.583345 608.0 1129.291655 606.25H1127.541655C1119.666655 616.75 1109.166655 622.0 1096.333345 622.0C1086.708345 622.0 1078.833345 619.9 1073.0 613.6C1070.083345 605.55 1069.208345 596.8 1069.208345 579.3C1069.208345 537.3 1069.208345 494.95000000000005 1069.208345 452.95000000000005C1069.208345 446.65 1063.375 444.9 1055.5 444.9C1040.625 444.9 1020.5 447.70000000000005 993.375 455.4ZM1038.548345 384.0C1038.548345 397.067425 1049.14092 407.66 1062.208345 407.66C1075.27577 407.66 1085.868345 397.067425 1085.868345 384.0C1085.868345 370.932575 1075.27577 360.34000000000003 1062.208345 360.34000000000003C1049.14092 360.34000000000003 1038.548345 370.932575 1038.548345 384.0Z" fill="#1a1a1a"/><path d="M1165.458345 377.0C1164.875 378.75 1164.583345 380.85 1164.583345 383.3C1164.583345 389.95000000000005 1166.916655 394.5 1171.291655 394.5C1178.583345 394.5 1194.916655 386.45000000000005 1225.541655 381.20000000000005L1226.708345 382.6C1226.708345 449.45000000000005 1226.708345 516.65 1226.708345 583.5C1226.708345 620.95 1243.041655 639.5 1270.458345 639.5C1283.0 639.5 1294.375 635.65 1300.208345 628.65C1303.416655 624.8 1304.875 619.55 1304.875 613.6C1304.875 610.8 1304.583345 608.0 1304.291655 606.25H1302.541655C1294.666655 616.75 1284.166655 622.0 1271.333345 622.0C1260.541655 622.0 1251.208345 620.25 1245.083345 613.6C1242.166655 605.55 1241.291655 596.8 1241.291655 579.3C1241.291655 511.4 1241.291655 442.45000000000005 1241.291655 374.55C1241.291655 368.25 1235.458345 366.5 1227.583345 366.5C1212.708345 366.5 1192.583345 369.3 1165.458345 377.0Z" fill="#1a1a1a"/><path d="M1341.916655 455.4C1341.333345 457.15 1341.041655 459.25 1341.041655 461.70000000000005C1341.041655 468.70000000000005 1343.666655 472.9 1347.75 472.9C1354.166655 472.9 1359.416655 463.8 1383.625 458.55L1384.791655 459.95000000000005C1384.791655 510.0 1384.791655 560.05 1384.791655 610.1C1384.791655 630.75 1390.041655 634.6 1397.041655 634.6C1399.375 634.6 1401.416655 634.25 1403.166655 633.2C1400.25 621.3 1399.375 613.6 1399.375 596.1C1399.375 567.05 1399.375 543.95 1399.375 511.05C1399.375 449.8 1397.333345 444.9 1388.583345 444.9C1373.416655 444.9 1358.833345 447.70000000000005 1341.916655 455.4ZM1456.541655 443.5C1432.916655 443.5 1412.791655 469.05 1401.416655 508.6H1395.583345L1397.916655 555.15C1410.458345 496.35 1433.208345 461.70000000000005 1455.958345 461.70000000000005C1461.208345 461.70000000000005 1465.0 462.4 1467.916655 464.15C1469.083345 474.65 1467.916655 491.1 1465.583345 503.0V505.1C1466.458345 505.8 1467.333345 505.8 1468.208345 505.8C1476.666655 505.8 1481.916655 493.9 1481.916655 473.25V468.70000000000005C1481.916655 463.8 1479.875 457.85 1475.5 452.6C1471.125 447.35 1465.0 443.5 1456.541655 443.5Z" fill="#1a1a1a"/><path d="M1518.083345 554.1V556.2C1518.083345 646.15 1540.541655 695.5 1601.208345 695.5C1616.375 695.5 1630.375 691.65 1635.041655 686.05C1637.958345 682.55 1639.416655 676.95 1639.416655 671.0C1639.416655 669.95 1639.416655 669.25 1639.416655 668.2H1637.666655C1625.416655 675.9 1614.041655 678.0 1601.791655 678.0C1580.791655 678.0 1567.958345 674.15 1555.708345 666.45C1539.666655 642.3 1532.666655 604.15 1532.666655 558.3V555.15C1532.666655 461.0 1561.25 394.5 1600.916655 394.5C1611.708345 394.5 1619.0 395.9 1626.291655 398.35C1634.75 414.45000000000005 1639.125 433.70000000000005 1639.125 467.65C1639.125 503.35 1639.125 568.8 1639.125 604.5C1639.125 616.4 1645.833345 620.95 1655.166655 620.95H1656.916655C1654.0 610.45 1653.708345 606.95 1653.708345 590.5C1653.708345 557.6 1653.708345 495.3 1653.708345 462.4C1653.708345 402.55 1637.083345 377.0 1600.916655 377.0C1550.458345 377.0 1518.083345 457.15 1518.083345 554.1ZM1644.375 576.15C1632.125 598.2 1620.75 605.9 1608.791655 605.9C1593.333345 605.9 1584.291655 586.65 1584.291655 557.95V556.55C1584.291655 533.1 1587.208345 513.15 1596.541655 494.6C1602.083345 491.1 1609.666655 489.35 1616.083345 489.35C1626.291655 489.35 1634.75 491.45000000000005 1642.625 498.8V478.5H1637.375C1631.541655 474.65 1625.125 472.9 1615.5 472.9C1591.0 472.9 1569.416655 501.25 1569.416655 559.35V561.1C1569.416655 596.8 1584.291655 623.4 1608.5 623.4C1619.0 623.4 1630.375 616.75 1637.375 602.75H1644.375Z" fill="#1a1a1a"/><path d="M1676.166655 666.8C1675.875 668.55 1675.583345 671.35 1675.583345 674.15C1675.583345 680.1 1677.041655 685.35 1680.25 689.2C1686.083345 696.2 1697.458345 700.05 1710.0 700.05C1738.291655 700.05 1753.75 682.2 1753.75 644.05C1753.75 581.75 1753.75 513.15 1753.75 450.5C1753.75 420.75 1757.541655 403.95000000000005 1765.416655 394.5C1772.924155 385.4 1780.0 383.3 1792.833345 383.3C1805.666655 383.3 1813.86656 387.92392147129505 1820.833345 395.20000000000005C1822.291655 408.85 1821.125 424.25 1818.208345 437.20000000000005V439.3C1819.666655 439.65 1820.833345 440.0 1822.0 440.0C1829.291655 440.0 1834.541655 426.70000000000005 1834.541655 409.9V405.35C1834.541655 396.6 1831.625 387.85 1825.791655 380.85C1818.926615 373.08658187680504 1808.291655 367.55 1792.833345 367.55C1757.541655 367.55 1739.166655 391.04487179487 1739.166655 448.4C1739.166655 511.75 1739.166655 576.85 1739.166655 639.85C1739.166655 657.35 1738.291655 666.1 1735.375 674.15C1729.25 680.8 1719.916655 682.55 1709.125 682.55C1696.291655 682.55 1685.791655 677.3 1677.916655 666.8ZM1693.958345 515.6C1693.958345 516.65 1693.958345 518.05 1693.958345 519.1C1693.958345 526.8 1695.416655 533.1 1700.666655 533.1H1820.833345C1820.833345 532.05 1820.833345 530.65 1820.833345 529.6C1820.833345 521.9 1819.375 515.6 1814.125 515.6ZM1868.375 455.4C1867.791655 457.15 1867.5 459.25 1867.5 461.70000000000005C1867.5 468.35 1869.833345 472.9 1874.208345 472.9C1881.5 472.9 1897.833345 464.85 1928.458345 459.6L1929.625 460.65C1929.625 501.6 1929.625 542.55 1929.625 583.5C1929.625 620.95 1944.791655 639.5 1970.458345 639.5C1983.0 639.5 1994.375 635.65 2000.208345 628.65C2003.416655 624.8 2004.875 619.55 2004.875 613.6C2004.875 610.8 2004.583345 608.0 2004.291655 606.25H2002.541655C1994.666655 616.75 1984.166655 622.0 1971.333345 622.0C1961.708345 622.0 1953.833345 619.9 1948.0 613.6C1945.083345 605.55 1944.208345 596.8 1944.208345 579.3C1944.208345 537.3 1944.208345 494.95000000000005 1944.208345 452.95000000000005C1944.208345 446.65 1938.375 444.9 1930.5 444.9C1915.625 444.9 1895.5 447.70000000000005 1868.375 455.4ZM1913.548345 384.0C1913.548345 397.067425 1924.14092 407.66 1937.208345 407.66C1950.27577 407.66 1960.868345 397.067425 1960.868345 384.0C1960.868345 370.932575 1950.27577 360.34000000000003 1937.208345 360.34000000000003C1924.14092 360.34000000000003 1913.548345 370.932575 1913.548345 384.0Z" fill="#1a1a1a"/>
</svg>