<?xml version="1.0" encoding="UTF-8"?>
<svg xmlns="http://www.w3.org/2000/svg" width="1890.0" height="1057.5"
     viewBox="0 0 1890.0 1057.5">
<rect width="100%" height="100%" fill="white"/>
<text x="945.0" y="30" text-anchor="middle" font-size="14" font-family="sans-serif" font-weight="bold" fill="#333">Sans A Slanted — Key glyphs + features</text><text x="187.5" y="48" text-anchor="middle" font-size="10" font-family="sans-serif" fill="#999">J</text><text x="362.5" y="48" text-anchor="middle" font-size="10" font-family="sans-serif" fill="#999">S</text><text x="537.5" y="48" text-anchor="middle" font-size="10" font-family="sans-serif" fill="#999">L</text><text x="712.5" y="48" text-anchor="middle" font-size="10" font-family="sans-serif" fill="#999">Z</text><text x="887.5" y="48" text-anchor="middle" font-size="10" font-family="sans-serif" fill="#999">f</text><text x="1062.5" y="48" text-anchor="middle" font-size="10" font-family="sans-serif" fill="#999">i</text><text x="1237.5" y="48" text-anchor="middle" font-size="10" font-family="sans-serif" fill="#999">l</text><text x="1412.5" y="48" text-anchor="middle" font-size="10" font-family="sans-serif" fill="#999">r</text><text x="1587.5" y="48" text-anchor="middle" font-size="10" font-family="sans-serif" fill="#999">@</text><text x="1762.5" y="48" text-anchor="middle" font-size="10" font-family="sans-serif" fill="#999">fi</text><text x="20" y="221.25" font-size="11" font-family="sans-serif" font-weight="bold" fill="#555">Linear</text><path d="M147.25 290.55C129.458345 290.55 118.66665499999999 286.0 107.0 274.8H103.5C102.625 278.65 102.041655 281.1 101.166655 284.95C100.583345 287.75 100.583345 288.8 101.458345 290.2C106.416655 297.9 122.45834500000001 307.0 145.791655 307.0C184.291655 307.0 210.25 280.75 221.041655 227.9C232.70834499999998 171.55 244.666655 115.20000000000002 256.333345 58.85000000000002C256.916655 56.400000000000006 256.333345 55.00000000000003 254.0 55.00000000000003C221.041655 55.00000000000003 190.708345 55.00000000000003 157.75 55.00000000000003C156.875 59.20000000000002 156.291655 62.70000000000002 155.416655 66.9C154.833345 68.65 155.416655 70.75000000000003 157.75 70.75000000000003C185.75 70.75000000000003 210.833345 70.75000000000003 247.58334499999998 70.75000000000003L237.08334499999998 67.25000000000003L241.75 72.50000000000003L240.875 60.60000000000002C229.20834499999998 116.60000000000002 217.25 172.95 205.583345 228.95C201.791655 247.85 195.375 261.15 186.916655 271.3C176.708345 283.9 163.583345 290.55 147.25 290.55Z" fill="#1a1a1a"/><path d="M395.75 49.400000000000006C357.541655 49.400000000000006 331.875 67.25000000000003 324.583345 102.95000000000002L321.958345 116.25C316.125 143.9 324.291655 165.60000000000002 357.541655 178.2L384.083345 188.35000000000002C408.583345 197.8 414.125 209.7 408.583345 236.65L406.25 248.2C400.125 278.65 377.666655 289.85 349.666655 289.85C320.791655 289.85 304.458345 282.85 290.166655 262.2H286.666655C285.791655 265.35 285.208345 268.15 283.75 273.75C283.458345 275.15 283.458345 276.9 284.333345 278.3C293.375 292.65 313.791655 306.3 347.625 305.6C388.75 304.9 412.375 288.1 419.375 254.15L422.875 237.35C429.0 207.95 422.291655 186.60000000000002 391.666655 174.35000000000002L364.541655 164.20000000000002C335.958345 153.70000000000002 330.416655 140.05 335.375 117.30000000000001L338.291655 103.65C343.833345 77.75 364.541655 65.15 394.583345 65.15C419.375 65.15 437.75 72.15 444.75 85.10000000000002L440.666655 67.60000000000002C437.458345 83.0 434.25 98.05000000000001 431.041655 113.45000000000002C430.458345 116.25 431.333345 117.30000000000001 433.375 117.30000000000001C436.875 117.30000000000001 440.958345 117.30000000000001 444.458345 117.30000000000001C447.375 102.95000000000002 450.291655 88.95000000000002 453.208345 74.60000000000002C453.5 73.20000000000002 453.208345 72.15 451.75 70.05000000000001C444.458345 58.85000000000002 424.041655 49.400000000000006 395.75 49.400000000000006Z" fill="#1a1a1a"/><path d="M460.5 300.0H570.75C571.041655 296.85 571.333345 294.05 571.625 290.2C571.916655 286.35 570.75 284.95 568.125 284.95H475.083345C490.833345 210.05 506.291655 133.75 522.041655 58.85000000000002C522.625 57.10000000000002 522.041655 55.00000000000003 519.708345 55.00000000000003C515.916655 55.00000000000003 512.125 55.00000000000003 508.333345 55.00000000000003C506.0 66.55000000000001 503.375 78.10000000000002 501.041655 89.65C486.458345 158.25 472.458345 227.55 458.166655 296.15C457.583345 298.6 458.458345 300.0 460.5 300.0Z" fill="#1a1a1a"/><path d="M763.25 300.0C764.125 295.8 764.708345 293.0 765.875 288.1C766.458345 286.0 765.583345 284.25 763.25 284.25H688.875C673.125 284.25 659.125 284.25 643.958345 284.25V280.05C661.166655 261.85 679.833345 240.15 695.583345 219.85000000000002C751.0 149.15 796.208345 92.10000000000002 809.916655 74.25000000000003L813.416655 58.85000000000002C814.0 56.400000000000006 812.833345 55.00000000000003 811.083345 55.00000000000003H680.125C679.541655 58.50000000000003 678.666655 62.35000000000002 677.791655 66.20000000000002C676.916655 69.70000000000002 677.5 70.75000000000003 679.833345 70.75000000000003H739.625C763.25 70.75000000000003 774.041655 70.75000000000003 793.875 70.75000000000003V73.9C778.708345 90.70000000000002 767.333345 104.70000000000002 743.416655 135.15C685.666655 208.65 655.333345 245.4 627.041655 281.45L624.125 296.15C623.833345 298.25 624.708345 300.0 626.458345 300.0Z" fill="#1a1a1a"/><path d="M928.916655 34.0C899.458345 34.0 881.958345 55.35000000000002 871.75 102.95000000000002C858.333345 167.35 844.625 232.10000000000002 831.208345 296.5H847.833345L846.958345 292.65C847.833345 288.1 848.708345 283.9 849.583345 279.35C861.833345 220.9 874.083345 161.75 886.333345 103.30000000000001C890.125 85.45000000000002 895.083345 72.15 901.791655 63.05000000000001C908.5 54.30000000000001 916.666655 49.75000000000003 926.291655 49.75000000000003C935.041655 49.75000000000003 944.958345 52.55000000000001 949.041655 56.05000000000001H952.541655C953.416655 51.85000000000002 954.0 49.400000000000006 954.875 45.20000000000002C955.166655 43.80000000000001 955.166655 42.75 954.291655 41.69999999999999C951.666655 37.85000000000002 938.541655 34.0 928.916655 34.0ZM834.125 115.9C832.958345 120.10000000000002 832.375 123.25 831.5 127.45000000000002C830.916655 130.25 832.375 131.3 834.125 131.3H921.333345C922.208345 127.10000000000002 922.791655 123.95000000000002 923.666655 119.75C924.25 116.95000000000002 923.083345 115.9 921.333345 115.9ZM798.833345 284.25C797.958345 288.45 797.083345 291.95 796.208345 295.8C795.625 298.6 796.791655 300.0 799.125 300.0H883.416655C884.291655 295.8 885.166655 292.3 886.041655 288.1C886.625 286.0 885.458345 284.25 883.708345 284.25Z" fill="#1a1a1a"/><path d="M1003.0 115.9C1002.125 119.75 1001.25 123.95000000000002 1000.375 127.80000000000001C999.791655 130.25 1000.958345 131.65 1002.708345 131.65C1013.791655 131.65 1019.625 131.65 1030.708345 131.65H1034.791655C1025.75 173.65 1017.291655 214.95 1008.25 259.4C1003.583345 281.8 1010.0 300.0 1034.5 300.0C1040.041655 300.0 1044.416655 300.0 1045.875 300.0C1047.333345 300.0 1049.375 299.65 1049.958345 296.15C1050.833345 291.6 1051.416655 288.45 1052.291655 284.25H1048.791655C1045.0 284.25 1039.75 284.25 1035.666655 284.25C1029.541655 284.25 1025.75 283.2 1023.416655 280.4C1020.208345 276.55 1020.208345 269.9 1022.833345 258.35C1032.75 210.75 1042.083345 165.60000000000002 1051.708345 119.75C1052.291655 116.95000000000002 1051.125 115.9 1049.375 115.9C1031.583345 115.9 1020.791655 115.9 1003.0 115.9ZM1039.633345 49.400000000000006C1039.633345 59.45186000000001 1047.781485 67.60000000000002 1057.833345 67.60000000000002C1067.885205 67.60000000000002 1076.033345 59.45186000000001 1076.033345 49.400000000000006C1076.033345 39.34814 1067.885205 31.200000000000045 1057.833345 31.200000000000045C1047.781485 31.200000000000045 1039.633345 39.34814 1039.633345 49.400000000000006Z" fill="#1a1a1a"/><path d="M1202.5 37.5C1201.625 41.35000000000002 1200.75 45.55000000000001 1199.875 49.400000000000006C1199.291655 51.85000000000002 1200.458345 53.25000000000003 1202.208345 53.25000000000003C1207.75 53.25000000000003 1218.541655 53.25000000000003 1220.583345 53.25000000000003H1222.625C1208.041655 121.5 1194.333345 184.5 1179.75 256.95C1175.083345 279.7 1181.5 300.0 1207.458345 300.0C1210.083345 300.0 1216.208345 300.0 1217.958345 300.0C1220.291655 300.0 1221.458345 299.65 1222.041655 296.15C1222.916655 291.6 1223.5 288.45 1224.375 284.25H1220.875C1215.916655 284.25 1211.833345 284.25 1208.625 284.25C1202.791655 284.25 1197.833345 283.55 1194.916655 280.05C1191.125 275.5 1191.416655 269.55 1194.041655 257.3C1209.5 182.4 1224.375 113.45000000000002 1239.541655 41.35000000000002C1240.125 38.55000000000001 1238.958345 37.5 1237.208345 37.5C1233.416655 37.5 1208.041655 37.5 1202.5 37.5Z" fill="#1a1a1a"/><path d="M1353.0 115.9C1352.125 120.10000000000002 1351.25 123.95000000000002 1350.375 128.15C1350.083345 130.60000000000002 1350.958345 132.0 1353.0 132.0C1357.375 132.0 1362.333345 132.0 1367.0 132.0H1371.375C1360.0 186.60000000000002 1348.333345 241.55 1336.958345 296.15C1336.375 298.6 1337.25 300.0 1339.291655 300.0C1343.083345 300.0 1346.875 300.0 1350.666655 300.0C1353.291655 288.1 1355.625 276.2 1358.25 264.65C1366.125 226.5 1374.0 189.05 1381.875 150.55C1382.166655 150.20000000000002 1386.25 115.9 1385.958345 115.9C1375.10621 115.9 1363.852135 115.9 1353.0 115.9ZM1432.041655 114.15C1415.416655 114.15 1401.125 123.25 1385.958345 147.75H1378.666655L1369.041655 193.60000000000002C1400.541655 140.75 1413.083345 130.25 1429.708345 130.25C1434.958345 130.25 1438.75 130.95000000000002 1442.541655 132.35000000000002C1439.916655 146.0 1437.583345 156.85000000000002 1434.958345 169.1L1434.083345 173.3C1437.875 173.3 1441.666655 173.3 1445.458345 173.3C1447.5 173.3 1448.958345 171.9 1449.541655 169.45000000000002L1458.583345 125.70000000000002C1458.875 124.30000000000001 1458.875 122.9 1457.708345 121.5C1455.375 118.70000000000002 1446.625 114.15 1432.041655 114.15Z" fill="#1a1a1a"/><path d="M1542.875 150.20000000000002 1526.833345 231.05C1511.958345 306.65 1530.916655 360.55 1627.75 359.5C1663.625 359.15 1705.041655 352.5 1721.083345 346.2C1723.416655 345.15 1723.416655 343.75 1724.0 341.3C1724.583345 337.8 1726.041655 332.2 1726.625 328.7H1723.125C1690.75 339.55 1660.125 343.05 1633.0 343.05C1581.666655 343.05 1559.5 332.55 1546.958345 315.05C1534.416655 297.55 1533.25 271.65 1541.416655 230.7L1557.458345 150.55C1568.25 96.30000000000001 1600.625 61.30000000000001 1674.416655 61.30000000000001C1729.25 61.30000000000001 1756.666655 76.35000000000002 1766.291655 92.10000000000002C1775.916655 107.85000000000002 1776.791655 127.10000000000002 1770.375 156.85000000000002C1764.833345 182.4 1753.458345 239.45 1744.416655 282.5C1744.125 284.6 1745.0 286.35 1746.75 286.35H1757.833345C1758.416655 283.9 1759.0 281.1 1759.583345 278.65C1768.333345 237.0 1779.708345 181.35000000000002 1784.958345 157.20000000000002C1798.375 94.20000000000002 1776.208345 44.85000000000002 1679.083345 44.85000000000002C1591.875 44.85000000000002 1555.416655 86.5 1542.875 150.20000000000002ZM1763.666655 226.15C1733.916655 259.75 1700.375 273.05 1670.041655 273.05C1637.375 273.05 1635.041655 254.5 1639.125 232.8L1643.208345 210.4C1646.125 193.95 1651.083345 185.9 1659.25 178.55C1667.708345 170.85 1682.583345 165.95000000000002 1704.166655 165.95000000000002C1736.25 165.95000000000002 1755.208345 165.95000000000002 1775.333345 165.95000000000002L1778.833345 149.5H1774.166655C1755.791655 149.5 1738.0 149.5 1707.666655 149.5C1655.166655 149.5 1635.625 171.55 1628.916655 210.05L1624.833345 233.15C1619.0 266.05 1629.5 289.85 1667.125 289.85C1697.458345 289.85 1724.291655 280.05 1744.708345 261.5H1755.791655Z" fill="#1a1a1a"/><path d="M1648.166655 349.7C1647.291655 353.9 1646.416655 358.1 1645.541655 362.3C1644.958345 364.75 1645.833345 366.15 1647.875 366.15C1648.94446 366.15 1657.80555 366.15 1663.916655 366.15C1691.333345 366.15 1703.291655 352.15 1709.125 323.45C1724.0 251.0 1742.083345 165.95000000000002 1755.208345 103.30000000000001C1758.708345 86.15 1763.666655 73.20000000000002 1771.25 64.10000000000002C1778.48331 55.42003173320501 1787.209405 49.400000000000006 1799.541655 49.400000000000006C1807.61374 49.400000000000006 1811.9895099999999 50.21346359797499 1818.208345 52.900000000000006C1816.166655 62.70000000000002 1815.0 69.00000000000003 1811.791655 83.70000000000002L1811.208345 86.5C1815.0 86.5 1818.5 86.5 1822.291655 86.5C1823.75 86.5 1824.916655 85.45000000000002 1825.208345 83.70000000000002L1833.083345 46.60000000000002C1833.375 45.20000000000002 1833.375 44.50000000000003 1832.791655 43.80000000000001C1829.942865 40.38143600871001 1818.41124 34.0 1802.166655 34.0C1769.63769 34.0 1750.78039 54.20244477331502 1740.041655 105.4C1727.208345 167.0 1709.708345 249.95 1695.125 320.3C1692.791655 331.85 1689.875 338.85 1685.208345 343.4C1680.25 347.95 1673.541655 349.7 1664.208345 349.7C1659.892915 349.7 1655.982085 349.7 1651.666655 349.7ZM1697.458345 169.8C1696.583345 174.0 1695.708345 176.8 1695.125 181.0C1694.541655 183.10000000000002 1695.708345 184.85000000000002 1697.458345 184.85000000000002H1784.666655C1785.541655 180.65 1786.125 177.85000000000002 1787.0 173.65C1787.583345 171.20000000000002 1786.416655 169.8 1784.666655 169.8ZM1819.666655 115.9C1818.791655 119.75 1817.916655 123.95000000000002 1817.041655 127.80000000000001C1816.45831 130.25 1817.625 131.65 1819.375 131.65C1830.45831 131.65 1836.291655 131.65 1847.375 131.65H1851.45831C1842.416655 173.65 1833.95831 214.95 1824.916655 259.4C1820.25 281.8 1826.666655 300.0 1851.166655 300.0C1856.70831 300.0 1861.08331 300.0 1862.541655 300.0C1864.0 300.0 1866.041655 299.65 1866.625 296.15C1867.5 291.6 1868.08331 288.45 1868.95831 284.25H1865.45831C1861.666655 284.25 1856.416655 284.25 1852.33331 284.25C1846.20831 284.25 1842.416655 283.2 1840.08331 280.4C1836.875 276.55 1836.875 269.9 1839.5 258.35C1849.416655 210.75 1858.75 165.60000000000002 1868.375 119.75C1868.95831 116.95000000000002 1867.791655 115.9 1866.041655 115.9C1848.25 115.9 1837.45831 115.9 1819.666655 115.9ZM1856.3 49.400000000000006C1856.3 59.45186000000001 1864.44814 67.60000000000002 1874.5 67.60000000000002C1884.55186 67.60000000000002 1892.7 59.45186000000001 1892.7 49.400000000000006C1892.7 39.34814 1884.55186 31.200000000000045 1874.5 31.200000000000045C1864.44814 31.200000000000045 1856.3 39.34814 1856.3 49.400000000000006Z" fill="#1a1a1a"/><line x1="20" y1="382.5" x2="1870.0" y2="382.5" stroke="#eee" stroke-width="0.5"/><text x="20" y="553.75" font-size="11" font-family="sans-serif" font-weight="bold" fill="#555">SemiCasual</text><path d="M145.791655 622.525C125.95834500000001 622.525 116.1875 617.45 104.520845 606.425H102.1875C101.16669 609.225 100.4375 611.325 99.708345 614.475C98.833345 618.5 99.270845 621.65 101.75 624.45C108.458345 632.675 123.04165499999999 639.5 143.75 639.5C179.770845 639.5 204.854155 618.15 216.229155 571.425C229.1346 510.72974999999997 242.4311 448.19525 255.33654499999997 387.5C255.33654499999997 384.70000000000005 253.84844999999999 383.3 250.128195 383.3C248.6401 383.3 247.152005 383.3 245.66391 383.3C241.94365499999998 383.3 240.45556 384.70000000000005 240.45556 387.5C240.45556 387.5 240.45556 387.5 240.45556 387.5C240.45556 387.5 240.45556 387.5 240.45556 387.5C228.22585999999998 445.30775 215.625545 504.86725 203.395845 562.675C198.583345 583.85 192.604155 595.225 184.145845 606.775C173.5 617.275 161.541655 622.525 145.791655 622.525Z" fill="#1a1a1a"/><path d="M405.666655 381.20000000000005C365.416655 381.20000000000005 328.375 411.65 319.916655 452.6L318.020845 462.05C312.479155 488.82500000000005 321.8125 508.95 356.083345 523.825L380.729155 534.5C403.041655 544.3 410.1875 555.85 406.25 577.2L404.9375 583.675C398.375 609.225 376.354155 621.3 348.9375 621.3C318.3125 621.3 302.708345 613.25 290.166655 592.6H287.833345C286.229155 595.75 285.354155 598.55 284.1875 603.625C283.604155 606.95 284.041655 610.275 286.229155 613.25C295.270845 626.2 314.083345 637.75 347.625 637.4C384.958345 637.05 410.770845 620.775 417.479155 588.05L419.520845 578.425C424.916655 553.05 416.166655 533.275 387.145845 520.5L362.354155 510.0C332.020845 497.05 327.791655 482.35 331.583345 464.32500000000005L333.479155 455.225C340.041655 422.675 373.291655 397.475 404.208345 397.475C421.708345 397.475 433.520845 401.85 441.395845 411.82500000000005L436.729155 399.57500000000005C437.604155 417.425 431.041655 431.775 426.666655 451.725C425.0625 458.9 426.8125 463.8 431.479155 463.8C434.104155 463.8 436.729155 463.625 439.0625 463.275C441.541655 446.65 445.333345 435.1 449.416655 417.07500000000005C451.166655 409.55 450.291655 402.025 445.916655 396.6C439.645845 387.85 425.5 381.20000000000005 405.666655 381.20000000000005Z" fill="#1a1a1a"/><path d="M468.8125 632.5C468.8125 632.5 571.7708275 632.5 571.7708275 632.5C572.5 629.875 572.9375 627.425 573.2291725 624.625C573.9583275 619.025 572.2083275 616.575 568.8541725 616.575C568.8541725 616.575 475.520845 616.575 475.520845 616.575C484.270845 546.925 507.4583275 475.175 520.5833275 406.225C523.2083275 391.35 522.3333275 385.75 517.083345 385.75C514.0208275 385.75 511.3958275 385.925 508.4791725 386.275C507.3125 398.875 506.0 407.625 502.9375 423.725C490.1041725 487.425 471.583345 546.225 460.9375 609.925C459.0416725 624.275 460.9375 632.5 468.8125 632.5Z" fill="#1a1a1a"/><path d="M764.125 632.5C764.8541725 629.525 765.4375 627.075 766.1666725 623.75C767.0416725 619.9 765.583345 616.225 760.4791725 616.225C760.4791725 616.225 692.2291725 616.225 692.2291725 616.225C676.625 616.225 662.4791725 616.575 646.4375 616.925C646.4375 616.925 646.4375 613.6 646.4375 613.6C664.8125 596.975 684.645845 577.025 701.270845 557.775C766.4583275 483.225 802.770845 423.025 811.5208275 405.35C811.5208275 405.35 813.416655 396.95000000000005 813.416655 396.95000000000005C814.4375 392.05 810.0625 387.5 803.5 387.5C803.5 387.5 680.125 387.5 680.125 387.5C679.541655 389.775 678.8125 392.57500000000005 678.0833275 395.55C676.916655 400.625 677.2083275 403.775 681.0 403.775C681.0 403.775 740.0625 403.775 740.0625 403.775C760.9166725 403.775 774.479155 403.95000000000005 794.75 403.425C794.75 403.425 795.1875 405.875 795.1875 405.875C783.8125 423.725 772.875 441.225 754.9375 465.725C709.0 529.775 668.895845 573.875 627.041655 614.475C627.041655 614.475 625.1458275 623.575 625.1458275 623.575C624.125 628.125 625.7291725 632.5 631.4166725 632.5C631.4166725 632.5 764.125 632.5 764.125 632.5Z" fill="#1a1a1a"/><path d="M929.354155 366.5C900.770845 366.5 887.1791725 387.5 881.7541725 429.675C872.0416725 506.15 868.6291725 550.6 846.4625 624.45C846.4625 624.45 866.7041725 624.45 866.7041725 624.45C866.7041725 624.45 865.8291725 619.375 865.8291725 619.375C866.8791725 615.7 867.8416725 610.975 868.6291725 605.2C850.3125 546.75 871.6041725 502.65 884.583345 443.15C890.125 418.3 895.2291725 403.775 901.0625 395.20000000000005C908.5 387.32500000000005 917.104155 383.3 927.0208275 383.3C936.2083275 383.3 944.8125 385.75 949.7708275 389.775C949.7708275 389.775 952.3958275 389.775 952.3958275 389.775C953.2708275 386.8 953.8541725 384.525 954.4375 381.55C955.166655 377.35 955.0208275 375.6 953.2708275 373.5C950.5 369.825 939.125 366.5 929.354155 366.5ZM854.95 448.4C854.5125 451.025 854.25 453.3 853.9 456.1C853.2 461.35 854.25 464.5 856.0875 464.5C856.0875 464.5 922.0625 464.5 922.0625 464.5C922.645845 461.70000000000005 923.0833275 459.425 923.666655 456.625C924.6875 451.55 923.375 448.4 919.875 448.4C919.875 448.4 854.95 448.4 854.95 448.4ZM797.8125 616.225C796.9375 619.025 796.208345 621.65 795.4791725 624.8C794.4583275 629.175 796.0625 632.5 800.0 632.5C800.0 632.5 884.291655 632.5 884.291655 632.5C884.875 630.05 885.4583275 627.6 885.8958275 625.15C886.9033724999999 620.320180771675 878.75 616.225 868.9791725 616.225C868.9791725 616.225 797.8125 616.225 797.8125 616.225Z" fill="#1a1a1a"/><path d="M1003.875 448.57500000000005C1002.8541725 451.55 1002.125 454.35 1001.3958275 457.675C1000.5208275 462.05 1001.9791725 465.20000000000005 1005.0416725 465.20000000000005C1013.19459 465.20000000000005 1020.7271325 462.40968103494754 1032.1666725 461.525C1032.1666725 461.525 1034.791655 462.225 1034.791655 462.225C1026.9166725 504.75 1016.2708275 540.45 1008.1041725 587.7C1003.2916725 616.75 1011.0208275 635.3 1032.4583275 635.3C1039.604155 635.3 1044.8974675 633.673035658515 1047.7708275 631.1C1049.8345675 629.49853485052 1051.7250575 627.2672813059825 1052.4375 623.75C1053.3125 619.9 1053.75 616.225 1054.041655 611.675C1054.041655 611.675 1051.416655 611.675 1051.416655 611.675C1046.0208275 616.925 1040.0719475 619.55 1033.625 619.55C1028.30752 619.55 1024.5833275 618.325 1022.104155 615.0C1019.7006175 609.2379452446374 1019.93216 601.046099053175 1022.6875 585.075C1030.2708275 542.9 1043.395845 498.45000000000005 1050.25 456.275C1050.979155 450.675 1047.3333275 446.65 1043.1041725 446.65C1029.7648675 446.65 1019.1875 447.35 1003.875 448.57500000000005ZM1039.925 382.95000000000005C1039.925 382.95000000000005 1039.925 382.95000000000005 1039.925 382.95000000000005C1039.925 393.00186 1048.07314 401.15 1058.125 401.15C1068.17686 401.15 1076.325 393.00186 1076.325 382.95000000000005C1076.325 382.95000000000005 1076.325 382.95000000000005 1076.325 382.95000000000005C1076.325 372.89814 1068.17686 364.75 1058.125 364.75C1048.07314 364.75 1039.925 372.89814 1039.925 382.95000000000005Z" fill="#1a1a1a"/><path d="M1200.4583275 370.0C1199.2916725 373.325 1198.4166725 376.475 1197.6875 379.8C1196.8125 384.175 1197.833345 386.625 1200.75 386.625C1206.0 386.625 1215.041655 385.05 1220.583345 382.25C1220.583345 382.25 1222.3333275 382.775 1222.3333275 382.775C1210.375 452.6 1192.4375 507.55 1178.875 586.475C1174.0625 615.175 1181.5 635.3 1203.958345 635.3C1209.645845 635.3 1216.0625 633.55 1218.833345 631.1C1221.166655 629.525 1222.9166725 627.25 1223.6458275 623.4C1224.375 619.725 1224.8125 615.35 1225.1041725 611.675C1225.1041725 611.675 1222.4791725 611.675 1222.4791725 611.675C1216.2083275 617.275 1210.8125 619.55 1205.125 619.55C1200.0208275 619.55 1195.645845 618.5 1192.875 614.825C1190.1041725 608.35 1190.6875 600.125 1193.75 581.925C1205.7083275 514.9 1226.8541725 445.07500000000005 1237.6458275 377.875C1238.375 372.27500000000003 1234.7291725 368.25 1230.7916725 368.25C1225.25 368.25 1207.75 368.77500000000003 1200.4583275 370.0Z" fill="#1a1a1a"/><path d="M1351.1041725 448.4C1350.0833275 451.375 1349.2083275 454.35 1348.4791725 457.675C1347.6041725 462.4 1349.0625 464.85 1352.125 464.85C1356.3518625 464.85 1360.9100349999999 463.17459938053753 1369.9166725 461.35C1369.9166725 461.35 1372.8333275 462.225 1372.8333275 462.225C1363.6458275 516.825 1348.9166725 566.875 1340.1666725 618.5C1338.7083275 629.875 1341.3333275 633.55 1346.1458275 633.55C1349.0625 633.55 1351.8333275 633.375 1354.604155 632.85C1355.3333275 621.475 1356.3541725 611.325 1358.8333275 596.625C1364.6666725 563.55 1373.4166725 530.825 1380.125 497.57500000000005C1385.9583275 468.0 1388.2916725 446.65 1383.333345 446.65C1372.7224825 446.65 1362.3635675 447.0 1351.1041725 448.4ZM1432.625 445.07500000000005C1415.0852224999999 445.07500000000005 1399.8179775 459.90674379940754 1384.208345 490.57500000000005C1384.208345 490.57500000000005 1376.916655 488.82500000000005 1376.916655 488.82500000000005C1376.916655 488.82500000000005 1364.5208275 548.15 1364.5208275 548.15C1397.479155 480.775 1414.9791725 462.225 1431.3125 462.225C1436.708345 462.225 1441.2291725 463.975 1445.0208275 468.175C1442.6875 483.05 1439.625 494.07500000000005 1434.2291725 507.025C1434.2291725 507.025 1433.7916725 510.175 1433.7916725 510.175C1436.7083275 510.525 1439.479155 510.7 1442.25 510.7C1447.7916725 510.7 1451.583345 505.45 1453.7708275 496.0C1453.7708275 496.0 1458.875 471.675 1458.875 471.675C1460.3333275 465.725 1458.875 458.025 1454.645845 452.95000000000005C1451.2916725 448.925 1444.1458275 445.07500000000005 1432.625 445.07500000000005Z" fill="#1a1a1a"/><path d="M1537.4791725 504.4C1537.4791725 504.4 1529.3125 545.525 1529.3125 545.525C1513.5625 623.05 1538.2083275 694.275 1637.5208275 693.75C1667.7083275 693.575 1699.354155 687.8 1718.3125 680.1C1723.2708275 678.0 1724.875 675.025 1725.8958275 669.25C1726.333345 666.625 1727.0625 662.6 1727.2083275 659.975C1727.2083275 659.975 1724.5833275 659.975 1724.5833275 659.975C1693.6666725 672.925 1667.4166725 677.125 1642.0416725 677.125C1599.604155 677.125 1574.2291725 668.025 1555.125 647.2C1540.3958275 625.5 1534.125 592.775 1543.4583275 547.275C1543.4583275 547.275 1551.9166725 505.1 1551.9166725 505.1C1565.7708275 437.375 1610.25 394.15 1685.6458275 394.15C1722.25 394.15 1744.854155 403.6 1757.25 415.675C1769.6458275 433.0 1771.979155 460.125 1765.7083275 494.07500000000005C1760.6041725 521.2 1751.270845 569.15 1745.0 602.925C1743.3958275 614.3 1747.1875 618.15 1752.7291725 618.15C1752.7291725 618.15 1759.145845 618.15 1759.145845 618.15C1759.0 611.675 1758.8541725 607.3 1760.3125 597.85C1766.4375 564.6 1776.5 517.0 1781.020845 489.0C1792.3958275 419.0 1765.8541725 377.175 1686.958345 377.175C1601.3541725 377.175 1552.5 430.55 1537.4791725 504.4ZM1759.1458275 563.375C1731.0 595.225 1701.5416725 605.725 1673.979155 605.725C1640.0 605.725 1633.1458275 581.925 1638.8333275 553.925C1638.8333275 553.925 1641.3125 540.625 1641.3125 540.625C1644.2291725 525.4 1650.7916725 514.2 1659.8333275 504.575C1671.208345 496.35 1685.645845 491.8 1704.3125 491.8C1729.6875 491.8 1749.958345 496.175 1768.625 503.70000000000005C1768.625 503.70000000000005 1772.5625 486.025 1772.5625 486.025C1772.5625 486.025 1766.729155 486.025 1766.729155 486.025C1749.8125 479.9 1731.875 475.35 1705.479155 475.35C1658.375 475.35 1633.875 501.95000000000005 1626.5833275 540.1C1626.5833275 540.1 1624.1041725 553.75 1624.1041725 553.75C1617.25 589.45 1630.375 622.875 1673.25 622.875C1699.5 622.875 1724.0 613.775 1743.5416725 595.225C1743.5416725 595.225 1752.4375 595.225 1752.4375 595.225C1752.4375 595.225 1759.1458275 563.375 1759.1458275 563.375Z" fill="#1a1a1a"/><path d="M1641.8958275 675.375C1640.490735 678.7812502928475 1639.6422125 681.8173322154975 1638.8333275 685.7C1638.070695 689.185706819035 1638.9112725 693.6685133179925 1641.8958275 696.025C1644.3498 698.3280791486325 1652.0448125 699.35 1659.8333275 699.35C1687.64543 699.35 1702.4457225 681.5479028692275 1709.8541725 647.55C1723.5625 583.675 1733.1875 507.725 1747.0416725 443.32500000000005C1751.73946 421.30809787629755 1758.00544 406.3684566603225 1766.0 396.775C1773.7866425 387.4310314918775 1782.9171975 382.6 1795.3125 382.6C1804.795925 382.6 1811.05172 385.7048737545 1817.1875 391.175C1814.7083275 407.975 1810.0416725 418.3 1801.729155 430.025C1801.729155 430.025 1801.4375 432.475 1801.4375 432.475C1804.3541725 433.35 1807.125 433.70000000000005 1810.041655 433.70000000000005C1816.4583275 433.70000000000005 1822.729155 427.75 1825.208345 417.6C1825.208345 417.6 1829.7291725 396.775 1829.7291725 396.775C1831.4791725 389.95000000000005 1830.8958275 383.3 1826.666655 378.225C1821.94372 372.55747048471255 1810.71082 366.5 1796.916655 366.5C1763.8968675 366.5 1744.5172275 388.4062803974525 1733.041655 440.0C1718.1666725 506.85 1709.708345 579.125 1696.0 641.075C1692.22049 657.916115943435 1689.1249675 667.1036135066475 1683.6041725 675.025C1677.15698 681.2406512159525 1669.352015 682.725 1660.4166725 682.725C1652.4391925 682.725 1648.2052425 680.5892547639176 1644.5208275 675.375C1644.5208275 675.375 1641.8958275 675.375 1641.8958275 675.375ZM1692.9375 508.95C1692.3541725 511.575 1691.770845 513.675 1691.3333275 516.475C1690.166655 521.375 1692.7916725 524.875 1697.458345 524.875C1697.458345 524.875 1780.5833275 524.875 1780.5833275 524.875C1781.166655 522.075 1781.6041725 519.975 1782.1875 517.175C1783.208345 512.275 1780.5833275 508.95 1775.916655 508.95C1775.916655 508.95 1692.9375 508.95 1692.9375 508.95ZM1820.541655 448.57500000000005C1819.5208275 451.55 1818.791655 454.35 1818.0624825 457.675C1817.1874825 462.05 1818.6458275 465.20000000000005 1821.7083275 465.20000000000005C1829.861245 465.20000000000005 1837.3937875 462.40968103494754 1848.8333275 461.525C1848.8333275 461.525 1851.45831 462.225 1851.45831 462.225C1843.5833275 504.75 1832.9374825 540.45 1824.7708275 587.7C1819.9583275 616.75 1827.6874825 635.3 1849.1249825 635.3C1856.27081 635.3 1861.5641225 633.673035658515 1864.4374825 631.1C1866.5012225 629.49853485052 1868.3917125 627.2672813059825 1869.104155 623.75C1869.979155 619.9 1870.416655 616.225 1870.70831 611.675C1870.70831 611.675 1868.08331 611.675 1868.08331 611.675C1862.6874825 616.925 1856.7386025 619.55 1850.291655 619.55C1844.974175 619.55 1841.2499825 618.325 1838.77081 615.0C1836.3672725 609.2379452446374 1836.598815 601.046099053175 1839.354155 585.075C1846.9374825 542.9 1860.0625 498.45000000000005 1866.916655 456.275C1867.64581 450.675 1863.9999825 446.65 1859.7708275 446.65C1846.4315225 446.65 1835.854155 447.35 1820.541655 448.57500000000005ZM1856.591655 382.95000000000005C1856.591655 382.95000000000005 1856.591655 382.95000000000005 1856.591655 382.95000000000005C1856.591655 393.00186 1864.739795 401.15 1874.791655 401.15C1884.843515 401.15 1892.991655 393.00186 1892.991655 382.95000000000005C1892.991655 382.95000000000005 1892.991655 382.95000000000005 1892.991655 382.95000000000005C1892.991655 372.89814 1884.843515 364.75 1874.791655 364.75C1864.739795 364.75 1856.591655 372.89814 1856.591655 382.95000000000005Z" fill="#1a1a1a"/><line x1="20" y1="715.0" x2="1870.0" y2="715.0" stroke="#eee" stroke-width="0.5"/><text x="20" y="886.25" font-size="11" font-family="sans-serif" font-weight="bold" fill="#555">Casual</text><path d="M144.333345 954.5C122.45834500000001 954.5 113.708345 948.9 102.041655 938.05H100.875C99.708345 939.8 98.833345 941.55 98.25 944.0C97.083345 949.25 97.958345 954.5 102.041655 958.7C110.5 967.45 123.625 972.0 141.708345 972.0C175.25 972.0 199.458345 955.55 211.416655 914.95C228.33334499999998 857.9 233.291655 787.9 251.95834499999998 727.35C253.70834499999998 721.4 250.791655 716.5 240.58334499999998 716.5C209.958345 716.5 191.875 717.2 154.25 720.0C153.375 721.75 152.791655 723.85 152.5 726.3C151.916655 732.25 153.666655 737.85 159.5 737.85C177.583345 737.85 190.708345 732.6 244.375 731.9L232.125 728.05L237.666655 738.55V725.6C216.958345 795.6 214.625 841.8 201.208345 896.4C195.375 919.85 189.833345 929.3 181.375 942.25C170.291655 950.65 159.5 954.5 144.333345 954.5Z" fill="#1a1a1a"/><path d="M415.583345 713.0C373.291655 713.0 324.875 756.05 315.25 802.25L314.083345 807.85C308.833345 833.75 319.333345 852.3 354.625 869.45L377.375 880.65C397.5 890.8 406.25 902.0 403.916655 917.75L403.625 919.15C396.625 939.8 375.041655 952.75 348.208345 952.75C315.833345 952.75 300.958345 943.65 290.166655 923.0H289.0C286.666655 926.15 285.5 928.95 284.625 933.5C283.75 938.75 284.625 943.65 288.125 948.2C297.166655 959.75 314.375 969.2 347.625 969.2C381.166655 969.2 409.166655 953.45 415.583345 921.95L416.166655 919.5C420.833345 898.15 410.041655 879.95 382.625 866.65L360.166655 855.8C328.083345 840.4 325.166655 824.65 327.791655 811.35L328.666655 806.8C336.25 767.6 382.041655 729.8 413.833345 729.8C424.041655 729.8 429.291655 731.55 438.041655 738.55L432.791655 731.55C437.75 751.85 427.833345 765.5 422.291655 790.0C419.666655 801.55 422.291655 810.3 429.583345 810.3C431.333345 810.3 432.5 809.95 433.666655 809.25C435.708345 790.35 440.375 781.25 445.625 759.55C448.833345 745.9 447.375 731.9 440.083345 723.15C434.833345 716.85 426.958345 713.0 415.583345 713.0Z" fill="#1a1a1a"/><path d="M477.125 965.0H572.791655C573.958345 962.9 574.541655 960.8 574.833345 959.05C576.0 951.7 573.666655 948.2 569.583345 948.2H475.958345C477.708345 883.8 508.625 816.6 519.125 753.6C523.791655 725.6 522.625 716.5 514.458345 716.5C512.125 716.5 510.666655 716.85 508.625 717.55C508.625 731.2 508.625 737.15 504.833345 757.8C493.75 816.6 470.708345 864.9 463.708345 923.7C460.5 949.95 463.416655 965.0 477.125 965.0Z" fill="#1a1a1a"/><path d="M765.0 965.0C765.583345 963.25 766.166655 961.15 766.458345 959.4C767.625 953.8 765.583345 948.2 757.708345 948.2H695.583345C680.125 948.2 665.833345 948.9 648.916655 949.6V947.15C668.458345 932.1 689.458345 913.9 706.958345 895.7C781.916655 817.3 809.333345 753.95 813.125 736.45L813.416655 735.05C814.875 727.7 807.291655 720.0 795.916655 720.0H680.125C679.541655 721.05 678.958345 722.8 678.375 724.9C676.916655 731.55 676.916655 736.8 682.166655 736.8H740.5C758.583345 736.8 774.916655 737.15 795.625 736.1L796.5 737.85C788.916655 756.75 778.416655 777.75 766.458345 796.3C732.333345 850.9 682.458345 902.35 627.041655 947.5L626.166655 951.0C624.416655 958.0 626.75 965.0 636.375 965.0Z" fill="#1a1a1a"/><path d="M929.791655 699.0C902.083345 699.0 881.666655 719.65 873.791655 756.4C854.833345 844.95 857.166655 869.1 831.208345 952.4H847.541655L845.5 946.1C848.125 943.3 850.458345 938.05 852.208345 931.05C867.958345 872.6 869.125 843.55 882.833345 783.0C890.125 751.15 895.375 735.4 900.333345 727.35C908.5 720.35 917.541655 716.85 927.75 716.85C937.375 716.85 944.666655 718.95 950.5 723.5H952.25C953.125 721.75 953.708345 719.65 954.0 717.9C955.166655 710.9 954.875 708.45 952.25 705.3C949.333345 701.8 939.708345 699.0 929.791655 699.0ZM832.375 780.9C832.083345 781.95 831.791655 783.35 831.5 784.75C829.75 792.45 831.791655 797.7 836.166655 797.7H922.791655C923.083345 796.3 923.375 794.9 923.666655 793.5C925.125 786.15 923.666655 780.9 918.416655 780.9ZM796.791655 948.2C795.916655 949.6 795.333345 951.35 794.75 953.8C793.291655 959.75 795.333345 965.0 800.875 965.0H885.166655C885.458345 964.3 885.75 962.9 885.75 962.2C887.181745 954.64036154335 872.041655 948.2 854.25 948.2Z" fill="#1a1a1a"/><path d="M1004.75 781.25C1003.583345 783.35 1003.0 784.75 1002.416655 787.55C1001.25 793.85 1003.0 798.75 1007.375 798.75C1012.597525 798.75 1021.829265 793.169362069895 1033.625 791.4L1034.791655 792.8C1028.083345 835.85 1015.25 865.95 1007.958345 916.0C1003.0 951.7 1012.041655 970.6 1030.416655 970.6C1039.166655 970.6 1045.37828 967.34607131703 1049.666655 962.2C1052.33579 958.99706970104 1054.075115 954.884562611965 1054.916655 951.35C1055.791655 948.2 1056.083345 944.0 1055.791655 939.1H1054.041655C1047.041655 949.6 1040.393895 954.85 1031.583345 954.85C1027.073385 954.85 1023.416655 953.45 1020.791655 949.6C1019.19289 941.925890489275 1019.655975 932.19219810635 1022.541655 911.8C1027.791655 875.05 1044.708345 831.3 1048.791655 792.8C1049.666655 784.4 1043.541655 777.4 1036.833345 777.4C1027.94639 777.4 1017.583345 778.8 1004.75 781.25ZM1040.216655 716.5C1040.216655 726.55186 1048.364795 734.7 1058.416655 734.7C1068.468515 734.7 1076.616655 726.55186 1076.616655 716.5C1076.616655 706.44814 1068.468515 698.3 1058.416655 698.3C1048.364795 698.3 1040.216655 706.44814 1040.216655 716.5Z" fill="#1a1a1a"/><path d="M1198.416655 702.5C1196.958345 705.3 1196.083345 707.4000000000001 1195.5 710.2C1194.333345 716.5 1195.208345 720.0 1199.291655 720.0C1204.25 720.0 1211.541655 716.85 1220.583345 711.25L1222.041655 712.3C1212.708345 783.7 1190.541655 830.6 1178.0 916.0C1173.041655 950.65 1181.5 970.6 1200.458345 970.6C1209.208345 970.6 1215.916655 967.1 1219.708345 962.2C1222.041655 959.05 1224.375 954.85 1225.25 950.65C1225.833345 947.85 1226.125 942.25 1225.833345 939.1H1224.083345C1216.5 950.3 1209.791655 954.85 1201.625 954.85C1197.25 954.85 1193.458345 953.45 1190.833345 949.6C1189.083345 941.2 1189.958345 930.7 1193.458345 906.55C1201.916655 847.4 1229.333345 776.7 1235.75 714.4C1236.625 706.0 1230.5 699.0 1224.375 699.0C1217.083345 699.0 1207.458345 700.05 1198.416655 702.5Z" fill="#1a1a1a"/><path d="M1349.208345 780.9C1348.041655 782.65 1347.166655 784.75 1346.583345 787.2C1345.125 794.2 1347.166655 797.7 1351.25 797.7C1355.328725 797.7 1359.486725 794.3491987610751 1372.833345 790.7L1374.291655 792.45C1367.291655 847.05 1349.5 892.2 1343.375 940.85C1341.041655 961.15 1345.416655 967.1 1353.0 967.1C1355.041655 967.1 1356.791655 966.75 1358.541655 965.7C1357.375 954.85 1357.083345 946.45 1359.416655 928.6C1363.208345 900.6 1372.833345 872.6 1378.375 844.6C1389.75 785.8 1390.333345 777.4 1380.708345 777.4C1370.338755 777.4 1360.875 778.1 1349.208345 780.9ZM1433.208345 776.0C1414.75379 776.0 1398.510955 796.5634875988151 1382.458345 833.4L1375.166655 829.9L1360.0 902.7C1394.416655 820.8 1416.875 794.2 1432.916655 794.2C1438.458345 794.2 1443.708345 797.0 1447.5 804.0C1445.458345 820.1 1441.666655 831.3 1433.5 844.95V847.05C1435.541655 847.75 1437.291655 848.1 1439.041655 848.1C1448.083345 848.1 1454.208345 839.0 1458.0 822.55L1459.166655 817.65C1461.791655 807.15 1458.875 793.15 1451.583345 784.4C1447.208345 779.15 1441.666655 776.0 1433.208345 776.0Z" fill="#1a1a1a"/><path d="M1532.083345 858.6 1531.791655 860.0C1515.166655 939.45 1545.5 1028.0 1647.291655 1028.0C1671.791655 1028.0 1693.666655 1023.1 1715.541655 1014.0C1723.125 1010.85 1726.333345 1006.3 1727.791655 997.2C1728.083345 995.45 1728.083345 993.0 1727.791655 991.25H1726.041655C1696.583345 1006.3 1674.708345 1011.2 1651.083345 1011.2C1617.541655 1011.2 1588.958345 1003.5 1563.291655 979.35C1546.375 953.45 1535.0 913.9 1545.5 863.85L1546.375 859.65C1563.291655 778.45 1619.875 727.0 1696.875 727.0C1715.25 727.0 1733.041655 730.85 1748.208345 739.25C1763.375 758.15 1767.166655 793.15 1761.041655 831.3C1756.375 860.0 1749.083345 898.85 1745.583345 923.35C1742.666655 944.0 1749.375 949.95 1758.708345 949.95H1760.458345C1759.583345 939.45 1758.708345 933.5 1761.041655 917.05C1764.541655 892.2 1773.291655 852.65 1777.083345 820.8C1786.416655 743.8 1755.5 709.5 1694.833345 709.5C1610.833345 709.5 1549.583345 774.6 1532.083345 858.6ZM1754.625 900.6C1728.083345 930.7 1702.708345 938.4 1677.916655 938.4C1642.625 938.4 1631.25 909.35 1638.541655 875.05L1639.416655 870.85C1642.333345 856.85 1650.5 842.5 1660.416655 830.6C1674.708345 821.85 1688.708345 817.65 1704.458345 817.65C1723.125 817.65 1744.708345 826.4 1761.916655 841.45L1766.291655 822.55H1759.291655C1743.833345 810.3 1725.75 801.2 1703.291655 801.2C1661.583345 801.2 1632.125 832.35 1624.25 870.15L1623.375 874.35C1615.5 912.85 1631.25 955.9 1679.375 955.9C1701.541655 955.9 1723.708345 947.5 1742.375 928.95H1749.083345Z" fill="#1a1a1a"/><path d="M1635.625 1001.05C1633.689815 1003.6625005856949 1632.86777 1005.534664430995 1632.125 1009.1C1631.183045 1013.62141363807 1631.9892 1021.187026635985 1635.916655 1025.9C1639.75514 1030.506158297265 1646.284075 1032.55 1655.75 1032.55C1683.957515 1032.55 1701.59979 1010.945805738455 1710.583345 971.65C1723.125 916.35 1724.291655 849.5 1738.875 783.35C1744.770575 756.466195752595 1752.344225 739.536913320645 1760.75 729.45C1769.089975 719.44203125055 1778.62499 715.8 1791.083345 715.8C1801.97811 715.8 1810.11393 721.196283911025 1816.166655 729.45C1813.25 753.25 1805.083345 767.6 1791.666655 776.35V778.45C1793.708345 780.2 1795.75 780.9 1797.791655 780.9C1809.166655 780.9 1820.541655 770.05 1825.208345 751.5L1826.375 746.95C1829.583345 734.7 1828.416655 722.1 1820.541655 712.65C1813.944575 704.733504960715 1803.0104000000001 699.0 1791.666655 699.0C1758.156045 699.0 1738.254065 722.61011602159 1726.041655 774.6C1709.125 846.7 1709.708345 908.3 1696.875 961.85C1691.649325 983.98223188687 1688.374935 995.357227013295 1682.0 1006.65C1674.06396 1014.531302431905 1665.162375 1015.75 1656.625 1015.75C1644.98547 1015.75 1640.4284 1011.4785095278351 1637.375 1001.05ZM1688.416655 848.1C1688.125 849.15 1687.833345 850.55 1687.541655 851.95C1685.791655 859.65 1689.875 864.9 1697.458345 864.9H1776.5C1776.791655 863.5 1777.083345 862.1 1777.375 860.7C1778.833345 853.35 1774.75 848.1 1767.166655 848.1ZM1821.416655 781.25C1820.25 783.35 1819.666655 784.75 1819.08331 787.55C1817.916655 793.85 1819.666655 798.75 1824.041655 798.75C1829.26418 798.75 1838.49592 793.169362069895 1850.291655 791.4L1851.45831 792.8C1844.75 835.85 1831.916655 865.95 1824.625 916.0C1819.666655 951.7 1828.70831 970.6 1847.08331 970.6C1855.83331 970.6 1862.044935 967.34607131703 1866.33331 962.2C1869.002445 958.99706970104 1870.74177 954.884562611965 1871.58331 951.35C1872.45831 948.2 1872.75 944.0 1872.45831 939.1H1870.70831C1863.70831 949.6 1857.06055 954.85 1848.25 954.85C1843.74004 954.85 1840.08331 953.45 1837.45831 949.6C1835.859545 941.925890489275 1836.32263 932.19219810635 1839.20831 911.8C1844.45831 875.05 1861.375 831.3 1865.45831 792.8C1866.33331 784.4 1860.20831 777.4 1853.5 777.4C1844.613045 777.4 1834.25 778.8 1821.416655 781.25ZM1856.88331 716.5C1856.88331 726.55186 1865.03145 734.7 1875.08331 734.7C1885.13517 734.7 1893.28331 726.55186 1893.28331 716.5C1893.28331 706.44814 1885.13517 698.3 1875.08331 698.3C1865.03145 698.3 1856.88331 706.44814 1856.88331 716.5Z" fill="#1a1a1a"/>
</svg>