<?xml version="1.0" encoding="UTF-8"?>
<svg xmlns="http://www.w3.org/2000/svg" width="1890.0" height="1057.5"
     viewBox="0 0 1890.0 1057.5">
<rect width="100%" height="100%" fill="white"/>
<text x="945.0" y="30" text-anchor="middle" font-size="14" font-family="sans-serif" font-weight="bold" fill="#333">Sans B Slanted — Key glyphs + features</text><text x="187.5" y="48" text-anchor="middle" font-size="10" font-family="sans-serif" fill="#999">J</text><text x="362.5" y="48" text-anchor="middle" font-size="10" font-family="sans-serif" fill="#999">S</text><text x="537.5" y="48" text-anchor="middle" font-size="10" font-family="sans-serif" fill="#999">L</text><text x="712.5" y="48" text-anchor="middle" font-size="10" font-family="sans-serif" fill="#999">Z</text><text x="887.5" y="48" text-anchor="middle" font-size="10" font-family="sans-serif" fill="#999">f</text><text x="1062.5" y="48" text-anchor="middle" font-size="10" font-family="sans-serif" fill="#999">i</text><text x="1237.5" y="48" text-anchor="middle" font-size="10" font-family="sans-serif" fill="#999">l</text><text x="1412.5" y="48" text-anchor="middle" font-size="10" font-family="sans-serif" fill="#999">r</text><text x="1587.5" y="48" text-anchor="middle" font-size="10" font-family="sans-serif" fill="#999">@</text><text x="1762.5" y="48" text-anchor="middle" font-size="10" font-family="sans-serif" fill="#999">fi</text><text x="20" y="221.25" font-size="11" font-family="sans-serif" font-weight="bold" fill="#555">Linear</text><path d="M144.333345 258.0C128.583345 258.0 121.0 255.55 109.333345 245.4H103.5C100.291655 259.75 97.666655 272.7 94.75 287.05C94.75 288.1 94.75 289.15 95.041655 289.85C99.708345 297.2 118.083345 307.0 140.25 307.0C184.875 307.0 208.791655 282.85 220.166655 228.60000000000002C232.17547 171.312 244.54821499999997 112.28799999999998 256.55702999999994 55.00000000000003C256.55702999999994 52.20000000000002 252.21524499999998 50.80000000000001 241.36073 50.80000000000001C237.01890999999998 50.80000000000001 232.67709 50.80000000000001 228.335305 50.80000000000001C217.48079 50.80000000000001 213.13897 52.20000000000002 213.13897 55.00000000000003C213.13897 55.00000000000003 213.13897 55.00000000000003 213.13897 55.00000000000003C213.13897 55.00000000000003 213.13897 55.00000000000003 213.13897 55.00000000000003C201.790605 109.1695 190.098365 164.9805 178.75 219.15C175.833345 232.8 172.333345 241.9 167.083345 248.2C160.958345 255.55 153.666655 258.0 144.333345 258.0Z" fill="#1a1a1a"/><path d="M394.583345 48.00000000000003C354.625 48.00000000000003 323.97697 67.27551337610501 314.958345 108.9L311.166655 126.4C306.791655 148.8 310.583345 179.95 345.291655 193.60000000000002L370.083345 203.75C386.125 210.05 389.333345 215.65 387.0 226.85000000000002L384.375 239.1C382.333345 248.9 371.541655 258.0 348.5 258.0C322.25 258.0 306.791655 248.9 292.208345 235.25H286.375C284.333345 245.05 280.833345 260.1 277.041655 278.65C276.75 280.05 276.458345 281.1 277.333345 282.5C284.625 294.05 311.166655 307.0 344.708345 307.0C388.166655 307.0 416.166655 289.5 425.208345 246.45L428.708345 229.65C434.833345 200.60000000000002 426.083345 175.75 393.708345 162.8L369.208345 153.0C351.708345 146.35000000000002 351.125 139.35000000000002 354.041655 125.70000000000002L355.791655 117.65C359.411425 100.9990628909 370.666655 94.55000000000001 392.25 94.55000000000001C404.5 94.55000000000001 408.583345 96.30000000000001 417.916655 101.20000000000002L409.75 92.10000000000002C406.833345 106.10000000000002 405.083345 114.15 403.625 121.85000000000002C403.041655 124.30000000000001 403.916655 125.70000000000002 405.958345 125.70000000000002C418.5 125.70000000000002 431.625 125.70000000000002 444.166655 125.70000000000002C447.375 109.95000000000002 451.458345 90.35000000000002 454.375 76.70000000000002C454.958345 73.9 454.666655 72.15 453.208345 70.4C445.333345 60.95000000000002 427.833345 48.00000000000003 394.583345 48.00000000000003Z" fill="#1a1a1a"/><path d="M447.958345 300.0H578.625C581.833345 285.65 584.458345 273.05 587.666655 256.95C588.25 254.15 587.375 252.75 585.041655 252.75H501.333345C514.75 189.05 528.458345 122.55000000000001 541.875 58.85000000000002C542.458345 56.400000000000006 541.583345 55.00000000000003 539.541655 55.00000000000003C524.958345 55.00000000000003 510.666655 55.00000000000003 496.083345 55.00000000000003C494.041655 64.45000000000002 492.0 73.55000000000001 490.25 83.0C475.375 154.05 460.5 225.10000000000002 445.625 296.15C445.041655 298.6 445.916655 300.0 447.958345 300.0Z" fill="#1a1a1a"/><path d="M767.041655 300.0C770.25 284.6 773.458345 269.55 776.666655 254.15C777.25 251.7 776.375 250.3 774.333345 250.3H723.0C700.541655 250.3 688.875 250.3 674.291655 250.3L675.75 243.3C689.458345 235.95 697.625 230.0 713.375 212.85000000000002C743.708345 178.9 774.333345 145.3 804.958345 111.35000000000002L816.041655 58.85000000000002C816.625 56.400000000000006 815.75 55.00000000000003 813.708345 55.00000000000003H671.083345C668.75 65.15 664.666655 85.45000000000002 661.75 99.80000000000001C660.875 103.30000000000001 661.75 104.70000000000002 664.666655 104.70000000000002H709.291655C723.0 104.70000000000002 731.458345 104.70000000000002 762.375 104.70000000000002L760.916655 111.70000000000002C743.416655 120.80000000000001 738.458345 125.35000000000002 723.291655 142.15C692.666655 176.10000000000002 662.333345 210.05 631.708345 243.65L620.625 296.15C620.041655 298.6 620.916655 300.0 622.958345 300.0Z" fill="#1a1a1a"/><path d="M925.125 30.5C887.675 30.5 879.1 64.45000000000002 874.55 101.20000000000002C867.025 161.4 859.325 221.95 851.625 282.5H879.45V272.7C881.025 259.75 881.9 252.4 883.475 239.45C879.625 194.65 888.666655 150.20000000000002 898.0 105.4C900.333345 93.15 903.25 85.80000000000001 907.333345 81.25C910.833345 77.75 915.5 76.35000000000002 921.625 76.35000000000002C929.791655 76.35000000000002 936.5 77.75 942.333345 80.55000000000001H948.166655C950.791655 67.25000000000003 953.125 57.45000000000002 956.041655 43.10000000000002C956.333345 41.69999999999999 956.333345 41.0 955.75 40.30000000000001C953.416655 37.5 942.625 30.5 925.125 30.5ZM852.5 121.5C850.75 135.85000000000002 849.175 147.75 847.425 162.10000000000002C847.075 163.85000000000002 847.6 165.95000000000002 848.825 165.95000000000002H916.083345C919.291655 151.25 921.625 139.70000000000002 924.541655 125.35000000000002C925.125 123.25 923.958345 121.5 922.208345 121.5ZM801.166655 255.55C798.25 269.9 795.625 281.8 792.708345 296.15C792.125 297.9 793.0 300.0 795.041655 300.0H888.083345C891.291655 285.65 893.625 273.75 896.541655 259.4C897.125 257.3 895.958345 255.55 894.208345 255.55Z" fill="#1a1a1a"/><path d="M1003.291655 111.0C1000.375 124.65 997.458345 139.0 994.541655 152.65C993.958345 155.45000000000002 995.125 156.5 997.166655 156.5C1000.50758 156.5 1003.99568 156.5 1007.375 156.5H1014.375C1008.541655 184.85000000000002 1002.416655 213.2 996.583345 241.55C989.875 274.1 998.625 300.0 1037.125 300.0C1040.017365 300.0 1043.833345 300.0 1045.291655 300.0C1047.916655 300.0 1048.5 299.65 1049.083345 297.2C1052.0 283.55 1055.208345 268.15 1058.125 254.5H1052.291655C1050.395845 254.5 1048.40277 254.5 1046.458345 254.5C1043.25 254.5 1041.208345 253.8 1040.041655 252.4C1038.875 251.0 1038.875 248.2 1039.75 244.0C1048.791655 200.95 1057.541655 157.9 1066.583345 114.85000000000002C1067.166655 112.05000000000001 1066.0 111.0 1064.25 111.0C1043.99424 111.0 1023.52239 111.0 1003.291655 111.0ZM1019.2225 46.25000000000003C1019.2225 67.73583500000001 1036.639165 85.1525 1058.125 85.1525C1079.610835 85.1525 1097.0275 67.73583500000001 1097.0275 46.25000000000003C1097.0275 24.76416499999999 1079.610835 7.347500000000025 1058.125 7.347500000000025C1036.639165 7.347500000000025 1019.2225 24.76416499999999 1019.2225 46.25000000000003Z" fill="#1a1a1a"/><path d="M1186.458345 37.5C1183.541655 51.150000000000006 1180.625 65.50000000000003 1177.708345 79.15C1177.125 81.95000000000002 1178.291655 83.0 1180.333345 83.0C1182.666655 83.0 1195.5 83.0 1199.0 83.0H1201.041655C1189.958345 135.5 1179.166655 188.35000000000002 1166.333345 249.6C1159.916655 281.1 1170.416655 300.0 1198.416655 300.0C1203.083345 300.0 1216.5 300.0 1218.25 300.0C1220.583345 300.0 1221.75 298.6 1222.333345 296.15C1225.25 282.5 1229.041655 263.95 1231.958345 250.3H1229.041655C1227.875 250.3 1220.875 250.3 1218.833345 250.3C1215.625 250.3 1213.583345 249.6 1212.416655 248.2C1210.958345 246.45 1211.25 244.0 1212.125 239.8C1226.416655 172.25 1238.958345 108.9 1253.25 41.35000000000002C1253.833345 38.55000000000001 1252.666655 37.5 1250.916655 37.5C1241.291655 37.5 1194.625 37.5 1186.458345 37.5Z" fill="#1a1a1a"/><path d="M1351.833345 111.0C1348.916655 125.0 1346.291655 138.65 1343.375 152.65C1342.791655 154.75 1343.958345 156.5 1345.708345 156.5C1348.37195 156.5 1350.803925 156.5 1353.583345 156.5H1356.791655C1348.625 194.65 1335.5 258.0 1327.625 296.15C1327.041655 298.6 1327.916655 300.0 1329.958345 300.0C1343.375 300.0 1357.083345 300.0 1370.5 300.0C1372.541655 289.85 1375.166655 278.3 1377.791655 265.7C1385.083345 229.65 1394.125 187.3 1399.958345 158.60000000000002C1400.25 158.25 1390.916655 111.0 1390.625 111.0C1390.625 111.0 1351.833345 111.0 1351.833345 111.0ZM1450.708345 107.5C1428.25 107.5 1414.25 118.70000000000002 1402.291655 142.85000000000002H1387.125L1382.75 198.15C1398.5 168.75 1411.916655 161.4 1419.5 161.4C1423.291655 161.4 1424.75 162.10000000000002 1425.916655 163.15C1425.216655 166.51000000000002 1424.374275 170.36363499556 1423.583345 174.35000000000002L1422.125 181.35000000000002C1432.041655 181.35000000000002 1442.541655 181.35000000000002 1452.458345 181.35000000000002C1454.5 181.35000000000002 1455.958345 179.95 1456.541655 177.5L1468.791655 118.0C1469.083345 116.60000000000002 1469.375 114.85000000000002 1467.916655 113.10000000000002C1465.291655 109.95000000000002 1458.583345 107.5 1450.708345 107.5Z" fill="#1a1a1a"/><path d="M1539.666655 164.9 1523.041655 244.0C1506.416655 322.75 1528.875 377.35 1618.416655 377.35C1656.333345 377.35 1689.0 372.45 1705.916655 367.2C1707.083345 366.85 1707.375 365.45 1707.375 364.4C1709.416655 355.3 1714.958345 329.05 1716.708345 319.95H1710.0C1685.791655 325.9 1662.458345 329.05 1632.416655 329.05C1599.458345 329.05 1581.666655 322.4 1572.041655 311.55C1562.416655 300.7 1557.166655 280.4 1566.5 235.95L1579.916655 171.9C1591.875 115.20000000000002 1623.375 80.9 1684.333345 80.9C1717.291655 80.9 1731.875 86.15 1741.5 95.25C1751.125 104.35000000000002 1751.416655 119.05000000000001 1746.75 141.8C1740.333345 172.25 1732.75 209.35000000000002 1721.958345 261.15C1721.666655 262.55 1738.291655 293.0 1741.5 293.0H1756.375C1760.166655 275.85 1763.666655 258.7 1767.166655 241.55C1776.208345 198.15 1785.25 154.4 1788.166655 140.05C1801.291655 77.05000000000001 1775.916655 34.0 1689.291655 34.0C1598.291655 34.0 1555.416655 88.95000000000002 1539.666655 164.9ZM1743.25 233.15C1721.083345 245.4 1706.791655 249.25 1696.291655 249.25C1680.25 249.25 1675.0 241.55 1679.375 220.55L1683.458345 200.60000000000002C1686.375 186.25 1689.291655 179.25 1693.083345 175.05C1697.166655 170.5 1702.125 167.70000000000002 1714.958345 167.70000000000002C1727.5 167.70000000000002 1738.583345 170.5 1752.0 175.05L1760.75 134.10000000000002H1744.416655C1733.916655 127.80000000000001 1725.166655 125.0 1708.833345 125.0C1671.5 125.0 1652.833345 148.10000000000002 1643.5 193.25L1636.208345 228.25C1627.458345 270.6 1639.416655 296.5 1667.416655 296.5C1687.541655 296.5 1706.208345 290.2 1722.833345 271.3H1735.375Z" fill="#1a1a1a"/><path d="M1658.083345 323.45C1654.875 337.8 1651.958345 351.45 1649.041655 365.8C1648.75 367.9 1649.625 369.65 1651.375 369.65C1652.48863 369.65 1657.89774 369.65 1668.875 369.65C1698.916655 369.65 1717.875 353.9 1724.583345 321.35C1743.386745 230.01915442553502 1752.583345 186.95 1771.25 97.0C1773.583345 86.15 1775.625 80.20000000000002 1778.541655 76.70000000000002C1781.166655 73.55000000000001 1782.916655 72.50000000000003 1785.833345 72.50000000000003C1788.75 72.50000000000003 1791.666655 72.85000000000002 1793.708345 73.9C1791.666655 83.0 1789.916655 91.4 1787.875 100.85000000000002L1787.291655 104.0C1799.541655 104.0 1808.583345 104.0 1820.833345 104.0C1823.166655 104.0 1824.041655 102.60000000000002 1824.625 100.15L1835.708345 47.30000000000001C1836.0 45.900000000000006 1836.0 44.150000000000006 1835.125 43.10000000000002C1832.658585 40.14031977551997 1816.49478 30.5 1794.291655 30.5C1750.527795 30.5 1734.484425 59.97480228084001 1727.208345 94.9C1710.291655 174.35000000000002 1697.458345 236.65 1680.541655 317.15C1679.958345 319.25 1679.375 320.65 1678.791655 321.35C1677.333345 323.1 1675.291655 323.45 1672.375 323.45C1668.73472 323.45 1666.486285 323.45 1663.916655 323.45ZM1693.083345 160.0C1690.166655 174.35000000000002 1687.833345 186.25 1684.625 200.60000000000002C1684.333345 202.35000000000002 1684.916655 204.45 1686.958345 204.45H1782.916655C1786.125 190.10000000000002 1788.458345 178.2 1791.375 163.85000000000002C1791.958345 161.75 1790.791655 160.0 1789.041655 160.0ZM1819.95831 111.0C1817.041655 124.65 1814.125 139.0 1811.20831 152.65C1810.625 155.45000000000002 1811.791655 156.5 1813.83331 156.5C1817.174235 156.5 1820.662335 156.5 1824.041655 156.5H1831.041655C1825.20831 184.85000000000002 1819.08331 213.2 1813.25 241.55C1806.541655 274.1 1815.291655 300.0 1853.791655 300.0C1856.68402 300.0 1860.5 300.0 1861.95831 300.0C1864.58331 300.0 1865.166655 299.65 1865.75 297.2C1868.666655 283.55 1871.875 268.15 1874.791655 254.5H1868.95831C1867.0625 254.5 1865.069425 254.5 1863.125 254.5C1859.916655 254.5 1857.875 253.8 1856.70831 252.4C1855.541655 251.0 1855.541655 248.2 1856.416655 244.0C1865.45831 200.95 1874.20831 157.9 1883.25 114.85000000000002C1883.83331 112.05000000000001 1882.666655 111.0 1880.916655 111.0C1860.660895 111.0 1840.189045 111.0 1819.95831 111.0ZM1835.889155 46.25000000000003C1835.889155 67.73583500000001 1853.30582 85.1525 1874.791655 85.1525C1896.27749 85.1525 1913.694155 67.73583500000001 1913.694155 46.25000000000003C1913.694155 24.76416499999999 1896.27749 7.347500000000025 1874.791655 7.347500000000025C1853.30582 7.347500000000025 1835.889155 24.76416499999999 1835.889155 46.25000000000003Z" fill="#1a1a1a"/><line x1="20" y1="382.5" x2="1870.0" y2="382.5" stroke="#eee" stroke-width="0.5"/><text x="20" y="553.75" font-size="11" font-family="sans-serif" font-weight="bold" fill="#555">SemiCasual</text><path d="M146.229155 589.8C131.9375 589.8 122.02081 586.125 109.916655 573.875H106.125C103.0625 583.85 100.4375 592.95 97.8125 605.725C96.0625 614.3 97.375 620.075 100.4375 623.925C106.708345 632.325 122.16665499999999 639.5 144.333345 639.5C187.5 639.5 210.541655 616.05 223.666655 564.425C235.963345 506.03975 248.632645 445.88525000000004 260.9293 387.5C260.9293 384.70000000000005 256.56690000000003 383.3 245.660935 383.3C241.298535 383.3 236.936135 383.3 232.57377 383.3C221.66777000000002 383.3 217.305405 384.70000000000005 217.305405 387.5C217.305405 387.5 217.305405 387.5 217.305405 387.5C217.305405 387.5 217.305405 387.5 217.305405 387.5C205.64085 442.30475 193.622865 498.77025000000003 181.958345 553.575C179.041655 566.35 175.6875 575.275 170.729155 582.275C163.729155 587.875 156.583345 589.8 146.229155 589.8Z" fill="#1a1a1a"/><path d="M399.541655 380.5C360.458345 380.5 322.530175 409.03774 313.208345 453.125L310.729155 464.675C306.354155 486.20000000000005 308.833345 515.775 346.604155 532.575L371.104155 543.6C384.958345 549.725 389.625 556.55 387.4375 568.275L385.833345 576.15C380.291655 583.675 369.0625 589.625 351.854155 589.625C321.8125 589.625 304.604155 579.65 291.1875 562.85H287.395845C284.916655 570.375 281.708345 581.575 279.083345 595.225C277.1875 604.85 278.354155 612.2 282.0 616.75C290.020845 627.775 312.333345 639.5 346.604155 639.5C389.916655 639.5 416.458345 624.275 425.0625 583.325L427.395845 572.125C432.208345 549.025 427.833345 521.2 394.0 506.325L369.208345 495.475C352.729155 488.3 350.25 480.07500000000005 352.875 467.475L354.041655 462.05C358.184885 442.524515 376.5 428.45000000000005 396.625 428.45000000000005C406.979155 428.45000000000005 410.916655 430.20000000000005 417.770845 435.45000000000005L417.916655 420.925C409.75 433.70000000000005 403.770845 445.6 401.4375 456.45000000000005C399.25 465.725 403.1875 471.85 414.5625 471.85C423.75 471.85 433.375 471.15 442.416655 469.75C444.020845 455.05 446.791655 440.175 450.583345 423.55C452.479155 415.15 451.604155 406.57500000000005 446.0625 399.925C437.895845 390.125 424.625 380.5 399.541655 380.5Z" fill="#1a1a1a"/><path d="M477.125 632.5C477.125 632.5 578.7708275 632.5 578.7708275 632.5C581.5416725 622.525 583.875 613.25 586.354155 601.525C588.8333275 589.1 585.0416725 583.5 577.0208275 583.5C577.0208275 583.5 502.3541725 583.5 502.3541725 583.5C511.5416725 528.55 530.7916725 471.32500000000005 541.0 412.70000000000005C543.0416725 397.65 540.125 385.75 529.625 385.75C517.958345 385.75 507.0208275 386.45000000000005 496.083345 387.5C496.0833275 398.0 495.5 409.55 493.4583275 421.275C481.7916725 482.35 465.8958275 537.65 453.6458275 598.025C450.291655 615.175 461.375 632.5 477.125 632.5Z" fill="#1a1a1a"/><path d="M765.875 632.5C768.0625 623.4 770.25 614.125 772.291655 604.15C775.0625 590.85 770.1041725 581.4 758.875 581.4C758.875 581.4 727.9583275 581.4 727.9583275 581.4C709.729155 581.4 694.4166725 581.925 679.3958275 582.8C679.3958275 582.8 680.2708275 578.25 680.2708275 578.25C694.708345 568.45 702.875 561.975 718.4791725 545.875C753.9166725 509.65 787.3125 471.5 804.8125 444.55C804.8125 444.55 810.791655 416.725 810.791655 416.725C815.1666725 400.975 808.6041725 387.5 800.145845 387.5C800.145845 387.5 675.458345 387.5 675.458345 387.5C673.4166725 395.025 670.2083275 408.85 668.0208275 419.525C665.3958275 431.775 668.75 437.725 680.2708275 437.725C680.2708275 437.725 706.8125 437.725 706.8125 437.725C723.1458275 437.725 737.2916725 437.025 761.3541725 435.625C761.3541725 435.625 760.479155 440.175 760.479155 440.175C746.916655 452.425 740.5 460.3 726.6458275 476.925C696.75 513.325 666.4166725 545.875 630.833345 579.825C630.833345 579.825 624.8541725 608.7 624.8541725 608.7C621.6458275 623.575 626.0208275 632.5 640.020845 632.5C640.020845 632.5 765.875 632.5 765.875 632.5Z" fill="#1a1a1a"/><path d="M927.4583275 363.0C890.5041725 363.0 876.9416725 395.55 871.1666725 438.775C863.3791725 497.75 860.4041725 541.675 816.3333275 602.75C816.3333275 602.75 877.3791725 602.75 877.3791725 602.75C877.3791725 602.75 876.6791725 592.775 876.6791725 592.775C879.3041725 582.975 880.7916725 575.625 882.4541725 563.2C878.75 528.2 883.854155 493.55 893.625 445.95000000000005C896.6875 430.20000000000005 899.6041725 421.625 903.9791725 414.45000000000005C906.895845 411.82500000000005 911.7083275 410.6 917.6875 410.6C926.291655 410.6 934.0208275 412.175 941.3125 415.675C941.3125 415.675 945.104155 415.675 945.104155 415.675C948.166655 406.05 950.6458275 398.875 952.979155 387.85C954.4375 379.45000000000005 954.2916725 374.2 951.9583275 371.05C949.041655 367.375 940.7291725 363.0 927.4583275 363.0ZM852.2375 454.0C851.1875 462.225 850.3125 469.225 849.2625 477.625C847.2059525 492.3550224624875 849.505365 500.725 860.1125 500.725C860.1125 500.725 914.333345 500.725 914.333345 500.725C917.104155 490.57500000000005 919.4375 481.125 921.625 470.275C923.6666725 460.125 920.020845 454.0 910.1041725 454.0C910.1041725 454.0 852.2375 454.0 852.2375 454.0ZM801.166655 584.9C799.5625 593.125 798.1041725 600.125 796.3541725 608.525C792.8541725 623.75 797.6666725 632.5 808.4583275 632.5C808.4583275 632.5 886.770845 632.5 886.770845 632.5C889.6875 622.875 891.5833275 614.65 893.625 604.675C896.0557325 593.3574852722675 891.04809 584.9 879.0416725 584.9C879.0416725 584.9 801.166655 584.9 801.166655 584.9Z" fill="#1a1a1a"/><path d="M1004.3125 443.5C1001.1041725 454.175 998.770845 464.32500000000005 996.5833275 474.475C993.8125 488.475 996.5833275 494.07500000000005 1000.9583275 494.07500000000005C1005.1079625 494.07500000000005 1008.4561675 493.55 1011.75 491.8C1011.75 491.8 1015.9791725 492.32500000000005 1015.9791725 492.32500000000005C1010.1458275 520.675 1000.8125 547.975 996.2916725 578.6C991.0416725 613.075 1005.0416725 634.25 1032.75 634.25C1039.59201 634.25 1045.145845 633.2 1048.5 630.05C1052.0 627.425 1053.75 623.925 1054.770845 618.325C1057.25 605.725 1059.0 592.95 1059.875 582.1C1059.875 582.1 1056.0833275 582.1 1056.0833275 582.1C1052.802095 584.55 1050.3472125 585.25 1046.6041725 585.25C1043.6875 585.25 1041.208345 584.55 1039.604155 583.15C1039.0208275 580.175 1039.1666725 576.5 1040.7708275 569.15C1048.354155 533.975 1058.125 503.0 1065.125 464.5C1067.0208275 452.6 1059.0 441.75 1050.5416725 441.75C1035.4554475 441.75 1019.2403675 442.45000000000005 1004.3125 443.5ZM1019.6599825 384.7875C1019.6599825 384.7875 1019.6599825 384.7875 1019.6599825 384.7875C1019.6599825 406.27333500000003 1037.0766475 423.69 1058.5624825 423.69C1080.0483175 423.69 1097.4649825 406.27333500000003 1097.4649825 384.7875C1097.4649825 384.7875 1097.4649825 384.7875 1097.4649825 384.7875C1097.4649825 363.301665 1080.0483175 345.88500000000005 1058.5624825 345.88500000000005C1037.0766475 345.88500000000005 1019.6599825 363.301665 1019.6599825 384.7875Z" fill="#1a1a1a"/><path d="M1185.145845 370.0C1181.9375 380.675 1179.6041725 390.82500000000005 1177.4166725 400.975C1174.5 415.32500000000005 1177.2708275 420.57500000000005 1184.125 420.57500000000005C1188.0625 420.57500000000005 1197.5416725 419.525 1201.3333275 417.6C1201.3333275 417.6 1203.0833275 418.125 1203.0833275 418.125C1192.0 467.82500000000005 1174.0625 515.6 1164.145845 575.625C1158.4583275 609.575 1172.75 634.25 1199.729155 634.25C1208.333345 634.25 1219.7083275 632.325 1223.2083275 629.175C1226.708345 626.375 1228.75 622.875 1230.0625 616.75C1232.8333275 603.1 1234.729155 588.05 1235.895845 577.55C1235.895845 577.55 1233.5625 577.55 1233.5625 577.55C1228.4583275 582.625 1221.0208275 584.9 1215.1875 584.9C1212.2708275 584.9 1209.9375 584.375 1208.041655 583.15C1207.458345 579.65 1208.0416725 575.625 1209.0625 570.55C1221.8958275 507.725 1241.145845 456.625 1252.6666725 393.45000000000005C1254.708345 379.975 1245.229155 368.075 1233.2708275 368.075C1223.2083275 368.075 1194.4791725 368.95 1185.145845 370.0Z" fill="#1a1a1a"/><path d="M1349.9375 443.5C1346.5833275 455.05 1344.3958275 464.85 1342.2083275 475.175C1339.291655 488.82500000000005 1342.0625 495.125 1345.8541725 495.125C1349.5193025 495.125 1352.48529 494.25 1355.333345 492.85C1355.333345 492.85 1357.8125 493.20000000000005 1357.8125 493.20000000000005C1351.1041725 528.375 1338.5625 573.875 1332.0 605.55C1328.354155 622.875 1335.354155 633.9 1348.0416725 633.9C1357.8125 633.9 1367.583345 633.375 1376.625 632.5C1376.3333275 622.875 1377.5 611.675 1379.6875 598.2C1385.8125 559.35 1394.5625 530.125 1402.583345 494.425C1405.6458275 482.175 1396.4583275 441.75 1382.0208275 441.75C1377.9375 441.75 1353.583345 442.275 1349.9375 443.5ZM1449.6875 438.25C1432.3773925 438.25 1417.59691 450.69485882122 1405.354155 479.9C1405.354155 479.9 1394.4166725 478.32500000000005 1394.4166725 478.32500000000005C1394.4166725 478.32500000000005 1382.6041725 550.075 1382.6041725 550.075C1399.102035 509.50638122972254 1413.4454725 496.525 1422.4166725 496.525C1424.8958275 496.525 1425.9166725 497.05 1426.791655 497.925C1426.15 501.355 1425.4371375 504.50681749778005 1424.020845 508.775C1424.020845 508.775 1423.2916725 513.15 1423.2916725 513.15C1428.979155 513.5 1435.104155 513.675 1442.395845 513.675C1451.5874225 513.675 1458.0103425 507.1504143579325 1460.3333275 496.175C1460.3333275 496.175 1466.8958275 464.32500000000005 1466.8958275 464.32500000000005C1468.8014375 455.17816894993 1468.3370224999999 448.02942038548997 1464.7083275 443.675C1461.9375 440.35 1456.6875 438.25 1449.6875 438.25Z" fill="#1a1a1a"/><path d="M1535.729155 512.8C1535.729155 512.8 1526.979155 554.625 1526.979155 554.625C1509.7708275 640.025 1533.5416725 693.925 1633.0 693.925C1667.270845 693.925 1694.6875 689.375 1709.125 682.025C1714.083345 678.35 1716.125 673.45 1717.1458275 666.45C1718.75 658.05 1721.520845 642.65 1722.395845 635.65C1722.395845 635.65 1718.1666725 635.65 1718.1666725 635.65C1689.5833275 643.525 1666.6875 647.025 1636.2083275 647.025C1603.833345 647.025 1584.5833275 642.65 1571.604155 633.725C1563.1458275 616.4 1560.8125 593.825 1567.9583275 556.55C1567.9583275 556.55 1574.9583275 522.775 1574.9583275 522.775C1586.9166725 458.375 1628.1875 414.45000000000005 1690.020845 414.45000000000005C1713.9375 414.45000000000005 1727.6458275 418.125 1738.1458275 424.95000000000005C1744.2708275 440.0 1743.8333275 456.45000000000005 1739.75 479.025C1734.0625 509.65 1726.0416725 541.85 1719.0416725 584.2C1717.5833275 598.375 1731.1458275 617.8 1749.2291725 617.8C1749.2291725 617.8 1758.8541725 617.8 1758.8541725 617.8C1760.4583275 602.75 1762.0625 588.4 1765.125 572.475C1772.5625 534.85 1781.75 499.675 1785.541655 477.275C1797.5 410.6 1769.6458275 364.75 1693.666655 364.75C1608.0625 364.75 1553.229155 424.6 1535.729155 512.8ZM1741.3541725 538.7C1715.5416725 559.0 1697.8958275 565.125 1684.7708275 565.125C1668.4375 565.125 1664.5 556.375 1667.7083275 538.7C1667.7083275 538.7 1670.0416725 526.8 1670.0416725 526.8C1672.2291725 514.9 1674.854155 508.25 1678.7916725 501.775C1685.5 498.1 1692.3541725 495.65 1706.7916725 495.65C1720.2083275 495.65 1730.708345 498.275 1742.6666725 502.125C1742.6666725 502.125 1754.1875 464.15 1754.1875 464.15C1754.1875 464.15 1738.291655 464.15 1738.291655 464.15C1729.3958275 456.45000000000005 1719.3333275 452.6 1703.7291725 452.6C1661.4375 452.6 1633.0 483.57500000000005 1624.6875 525.75C1624.6875 525.75 1620.75 544.825 1620.75 544.825C1611.5625 592.25 1628.7708275 616.75 1655.4583275 616.75C1677.1875 616.75 1700.375 608.175 1718.895845 583.325C1718.895845 583.325 1734.9375 583.325 1734.9375 583.325C1734.9375 583.325 1741.3541725 538.7 1741.3541725 538.7Z" fill="#1a1a1a"/><path d="M1650.5 650.0C1647.7291725 659.625 1645.395845 668.725 1643.2083275 679.575C1641.3731375 689.4096503294024 1642.43992 695.802895734015 1646.7083275 699.875C1649.2274525 702.229757075265 1655.7495625 703.9 1667.4166725 703.9C1694.69534 703.9 1716.3025725 686.651455998325 1726.333345 649.65C1746.219225 571.5291693370375 1749.24116 523.012151831595 1767.6041725 438.425C1770.6666725 424.95000000000005 1773.7291725 416.725 1778.104155 411.475C1781.947995 406.8623970069775 1785.541655 405.70000000000005 1790.7916725 405.70000000000005C1793.2708275 405.70000000000005 1795.604155 406.05 1797.0625 406.75C1795.1021675 418.1896217166525 1792.2628625 426.86455707126254 1787.5833275 438.95000000000005C1787.5833275 438.95000000000005 1787.291655 441.57500000000005 1787.291655 441.57500000000005C1794.729155 442.1 1800.8541725 442.45000000000005 1808.4375 442.45000000000005C1818.5869225 442.45000000000005 1827.2065125 436.00872632201754 1829.4375 425.475C1829.4375 425.475 1835.270845 397.65 1835.270845 397.65C1836.83433 390.145180604115 1836.3813774999999 382.70766346435255 1831.1875 376.475C1825.62971 369.80566679302996 1813.31041 363.0 1794.5833275 363.0C1756.98442 363.0 1734.239355 389.073821500195 1723.8541725 433.525C1705.6229 511.98630503631 1703.1799175 565.9381167703225 1683.75 640.2C1682.145845 645.45 1680.3958275 650.35 1678.6458275 654.375C1677.0416725 655.425 1674.854155 655.775 1671.7916725 655.775C1664.5756875 655.775 1659.222315 654.55 1654.291655 650.0C1654.291655 650.0 1650.5 650.0 1650.5 650.0ZM1691.625 495.65C1689.729155 503.875 1688.270845 510.875 1686.375 519.275C1683.52082 531.952700849765 1688.565055 543.25 1701.25 543.25C1701.25 543.25 1783.354155 543.25 1783.354155 543.25C1785.9791725 533.8 1787.875 525.575 1789.7708275 515.6C1791.8125 503.175 1788.3125 495.65 1770.9583275 495.65C1770.9583275 495.65 1691.625 495.65 1691.625 495.65ZM1820.979155 443.5C1817.7708275 454.175 1815.4375 464.32500000000005 1813.2499825 474.475C1810.479155 488.475 1813.2499825 494.07500000000005 1817.6249825 494.07500000000005C1821.7746175 494.07500000000005 1825.1228225 493.55 1828.416655 491.8C1828.416655 491.8 1832.6458275 492.32500000000005 1832.6458275 492.32500000000005C1826.8124825 520.675 1817.479155 547.975 1812.9583275 578.6C1807.7083275 613.075 1821.7083275 634.25 1849.416655 634.25C1856.258665 634.25 1861.8125 633.2 1865.166655 630.05C1868.666655 627.425 1870.416655 623.925 1871.4375 618.325C1873.916655 605.725 1875.666655 592.95 1876.541655 582.1C1876.541655 582.1 1872.7499825 582.1 1872.7499825 582.1C1869.46875 584.55 1867.0138675 585.25 1863.2708275 585.25C1860.354155 585.25 1857.875 584.55 1856.27081 583.15C1855.6874825 580.175 1855.8333275 576.5 1857.4374825 569.15C1865.02081 533.975 1874.791655 503.0 1881.791655 464.5C1883.6874825 452.6 1875.666655 441.75 1867.2083275 441.75C1852.1221025 441.75 1835.9070225 442.45000000000005 1820.979155 443.5ZM1836.3266375 384.7875C1836.3266375 384.7875 1836.3266375 384.7875 1836.3266375 384.7875C1836.3266375 406.27333500000003 1853.7433025 423.69 1875.2291375 423.69C1896.7149725 423.69 1914.1316375 406.27333500000003 1914.1316375 384.7875C1914.1316375 384.7875 1914.1316375 384.7875 1914.1316375 384.7875C1914.1316375 363.301665 1896.7149725 345.88500000000005 1875.2291375 345.88500000000005C1853.7433025 345.88500000000005 1836.3266375 363.301665 1836.3266375 384.7875Z" fill="#1a1a1a"/><line x1="20" y1="715.0" x2="1870.0" y2="715.0" stroke="#eee" stroke-width="0.5"/><text x="20" y="886.25" font-size="11" font-family="sans-serif" font-weight="bold" fill="#555">Casual</text><path d="M148.125 921.6C135.291655 921.6 123.04165499999999 916.7 110.5 902.35H108.75C105.833345 907.95 103.208345 913.2 100.875 924.4C97.375 940.5 100.0 951.0 105.833345 958.0C113.708345 967.45 126.25 972.0 148.416655 972.0C190.125 972.0 212.291655 949.25 227.166655 900.25C239.761055 840.7675 252.73709499999998 779.4825000000001 265.331495 720.0C265.331495 717.2 260.9433 715.8 249.97276 715.8C245.58453 715.8 241.19633499999998 715.8 236.80810499999998 715.8C225.8376 715.8 221.44937 717.2 221.44937 720.0C221.44937 720.0 221.44937 720.0 221.44937 720.0C221.44937 720.0 221.44937 720.0 221.44937 720.0C209.47607999999997 775.44 197.139945 832.56 185.166655 888.0C182.25 899.9 179.041655 908.65 174.375 916.35C166.5 920.2 159.5 921.6 148.125 921.6Z" fill="#1a1a1a"/><path d="M404.5 713.0C366.291655 713.0 321.083345 750.8 311.458345 797.35L310.291655 802.95C305.916655 823.6 307.083345 851.6 347.916655 871.55L372.125 883.45C383.791655 889.4 389.916655 897.45 387.875 909.7L387.291655 913.2C378.25 918.45 366.583345 921.25 355.208345 921.25C321.375 921.25 302.416655 910.4 290.166655 890.45H288.416655C285.5 895.7 282.583345 903.05 281.125 911.8C277.625 929.65 280.25 943.3 286.666655 951.0C295.416655 961.5 313.5 972.0 348.5 972.0C391.666655 972.0 416.75 959.05 424.916655 920.2L426.083345 914.6C429.583345 897.45 429.583345 866.65 394.291655 849.85L369.208345 837.95C353.75 830.25 349.375 820.8 351.708345 809.25L352.291655 806.45C356.958345 784.05 382.333345 762.35 401.0 762.35C409.458345 762.35 413.25 764.1 417.625 769.7L426.083345 749.75C412.666655 761.3 402.458345 777.05 399.25 791.05C395.458345 807.15 402.458345 818.0 423.166655 818.0C429.0 818.0 435.125 816.6 440.666655 813.8C440.666655 800.15 442.125 790.0 446.791655 770.4C450.0 756.4 448.541655 741.0 438.916655 729.45C430.458345 719.3 421.416655 713.0 404.5 713.0Z" fill="#1a1a1a"/><path d="M506.291655 965.0H578.916655C581.25 959.4 583.291655 953.45 585.041655 946.1C589.416655 924.05 582.708345 914.25 569.0 914.25H503.375C508.333345 868.05 533.125 820.1 540.125 766.55C543.625 738.9 538.666655 716.5 519.708345 716.5C510.958345 716.5 503.375 717.9 496.083345 720.0C498.125 731.55 499.0 745.55 496.666655 759.55C488.208345 810.65 471.291655 850.2 461.666655 899.9C455.541655 931.75 476.833345 965.0 506.291655 965.0Z" fill="#1a1a1a"/><path d="M764.708345 965.0C765.875 962.2 767.041655 958.7 767.916655 954.15C772.875 930.0 763.833345 912.5 743.416655 912.5H732.916655C718.916655 912.5 699.958345 913.55 684.5 915.3L684.791655 913.2C699.958345 900.95 708.125 893.95 723.583345 878.9C764.125 840.4 800.291655 797.7 804.666655 777.75L805.541655 774.6C813.708345 745.55 801.458345 720.0 786.583345 720.0H679.833345C678.083345 724.9 675.75 732.25 674.291655 739.25C669.916655 760.25 675.75 770.75 695.875 770.75H704.333345C723.291655 770.75 743.125 769.35 760.333345 766.55L760.041655 768.65C750.416655 784.05 742.541655 795.25 730.0 811.7C700.833345 850.55 670.5 881.7 629.958345 916.0L629.083345 921.25C623.25 948.55 631.125 965.0 657.083345 965.0Z" fill="#1a1a1a"/><path d="M929.791655 695.5C893.333345 695.5 874.783345 726.65 867.783345 776.35C859.733345 834.1 861.483345 861.4 849.058345 923.0H875.308345L873.908345 912.85C877.583345 906.2 879.683345 898.85 881.433345 886.95C877.875 861.75 879.041655 836.9 889.25 786.5C893.041655 767.25 895.958345 757.45 900.625 747.65C902.958345 745.9 907.916655 744.85 913.75 744.85C922.791655 744.85 931.541655 746.6 940.291655 750.8H942.041655C945.541655 744.85 948.166655 740.3 949.916655 732.6C952.541655 717.2 952.25 707.4000000000001 948.166655 701.8C944.666655 697.25 938.833345 695.5 929.791655 695.5ZM851.975 786.5C851.625 788.6 851.45 790.7 851.1 793.15C847.336905 820.860044924975 851.41073 835.5 871.4 835.5H912.583345C914.916655 829.9 917.25 822.55 918.708345 815.2C922.208345 797.0 916.083345 786.5 898.0 786.5ZM801.166655 914.25C800.875 916.35 800.583345 918.45 800.0 920.9C793.583345 949.6 802.333345 965.0 821.875 965.0H885.458345C888.083345 960.1 889.541655 955.55 890.708345 949.95C894.986465 929.414970544535 886.137835 914.25 863.875 914.25Z" fill="#1a1a1a"/><path d="M1005.333345 776.0C1001.833345 783.7 1000.083345 789.65 998.625 796.3C993.666655 821.5 998.041655 831.65 1004.75 831.65C1009.708345 831.65 1012.916655 830.6 1016.125 827.1L1017.583345 828.15C1011.75 856.5 999.208345 882.75 996.0 915.65C992.208345 952.05 1011.458345 968.5 1028.375 968.5C1039.166655 968.5 1046.458345 966.4 1051.708345 960.1C1056.083345 954.85 1059.0 948.2 1060.458345 939.45C1062.5 927.9 1062.791655 917.75 1061.625 909.7H1059.875C1055.208345 914.6 1052.291655 916.0 1046.75 916.0C1044.125 916.0 1041.208345 915.3 1039.166655 913.9C1039.166655 909.35 1039.458345 904.8 1041.791655 894.3C1047.916655 867.0 1058.708345 848.1 1063.666655 814.15C1066.875 793.15 1052.0 772.5 1036.833345 772.5C1026.916655 772.5 1014.958345 773.9 1005.333345 776.0ZM1020.0975 723.325C1020.0975 744.810835 1037.51413 762.2275 1059.0 762.2275C1080.485835 762.2275 1097.9025 744.810835 1097.9025 723.325C1097.9025 701.8391650000001 1080.485835 684.4225 1059.0 684.4225C1037.51413 684.4225 1020.0975 701.8391650000001 1020.0975 723.325Z" fill="#1a1a1a"/><path d="M1183.833345 702.5C1180.333345 710.2 1178.583345 716.15 1177.125 722.8C1171.875 748.7 1176.25 758.15 1187.916655 758.15C1193.458345 758.15 1199.583345 756.05 1203.666655 752.2L1205.125 753.25C1194.041655 800.15 1168.958345 842.85 1161.958345 901.65C1157.0 938.05 1175.083345 968.5 1201.041655 968.5C1213.583345 968.5 1222.916655 964.65 1228.166655 958.35C1232.833345 952.75 1235.75 947.15 1237.791655 937.35C1240.416655 923.7 1240.416655 912.15 1239.833345 904.8H1238.083345C1229.041655 914.95 1221.166655 919.5 1211.541655 919.5C1208.916655 919.5 1206.291655 919.15 1203.666655 918.1C1203.958345 912.85 1204.833345 907.25 1206.0 901.3C1217.375 843.2 1243.333345 804.35 1252.083345 745.55C1255.583345 721.4 1237.791655 698.6500000000001 1215.625 698.6500000000001C1205.125 698.6500000000001 1194.333345 700.4000000000001 1183.833345 702.5Z" fill="#1a1a1a"/><path d="M1348.041655 776.0C1344.25 785.1 1342.5 791.05 1341.041655 797.7C1335.791655 822.9 1340.166655 833.75 1346.0 833.75C1350.666655 833.75 1354.166655 832.0 1357.083345 829.2L1358.833345 829.9C1353.583345 862.1 1341.625 889.75 1336.375 914.95C1329.666655 947.15 1342.791655 967.8 1366.125 967.8C1372.25 967.8 1378.083345 966.75 1382.75 965.0C1380.125 955.9 1379.833345 945.05 1381.583345 930.7C1386.541655 889.05 1395.0 872.95 1405.208345 830.25C1411.041655 806.1 1402.0 772.5 1373.416655 772.5C1365.25 772.5 1355.333345 773.55 1348.041655 776.0ZM1448.666655 769.0C1436.504785 769.0 1420.94382 782.68971764244 1408.416655 816.95L1401.708345 813.8L1382.458345 902.0C1399.70407 850.262762459445 1414.9742899999999 831.65 1425.333345 831.65C1426.5 831.65 1427.083345 832.0 1427.666655 832.7C1427.083345 836.2 1426.5 838.65 1424.458345 843.2V844.95C1425.916655 845.65 1427.666655 846.0 1432.333345 846.0C1448.674845 846.0 1460.06234 834.350828715865 1464.125 814.85L1465.0 810.65C1468.51953 793.75633789986 1467.299045 781.20884077098 1461.5 774.25C1458.583345 770.75 1454.791655 769.0 1448.666655 769.0Z" fill="#1a1a1a"/><path d="M1531.791655 860.7 1530.916655 865.25C1513.125 957.3 1538.208345 1010.5 1647.583345 1010.5C1678.208345 1010.5 1700.375 1006.3 1712.333345 996.85C1721.083345 989.85 1724.875 981.45 1726.916655 968.5C1728.083345 960.8 1728.083345 956.25 1728.083345 951.35H1726.333345C1693.375 961.15 1670.916655 965.0 1640.0 965.0C1608.208345 965.0 1587.5 962.9 1571.166655 955.9C1563.875 932.1 1564.458345 907.25 1569.416655 877.15L1570.0 873.65C1581.958345 801.55 1633.0 748.0 1695.708345 748.0C1710.583345 748.0 1723.416655 750.1 1734.791655 754.65C1737.416655 775.65 1736.25 793.85 1732.75 816.25C1727.791655 847.05 1719.333345 874.35 1716.125 907.25C1713.5 934.2 1724.0 942.6 1756.958345 942.6H1761.333345C1760.75 929.65 1760.458345 918.1 1763.083345 903.4C1768.916655 871.55 1778.25 844.95 1782.916655 814.5C1793.708345 744.15 1763.375 695.5 1698.041655 695.5C1617.833345 695.5 1551.041655 760.25 1531.791655 860.7ZM1739.458345 844.25C1710.0 872.6 1689.0 881.0 1673.25 881.0C1656.625 881.0 1654.0 871.2 1656.041655 856.85L1656.625 853.0C1658.083345 843.55 1660.416655 837.25 1664.5 828.5C1673.833345 825.7 1682.583345 823.6 1698.625 823.6C1712.916655 823.6 1722.833345 826.05 1733.333345 829.2L1747.625 794.2H1732.166655C1724.875 785.1 1713.5 780.2 1698.625 780.2C1651.375 780.2 1613.166655 819.05 1605.875 858.25L1605.291655 861.4C1595.666655 913.9 1618.125 937.0 1643.5 937.0C1666.833345 937.0 1694.541655 926.15 1714.958345 895.35H1734.5Z" fill="#1a1a1a"/><path d="M1642.916655 976.55C1640.583345 981.45 1638.833345 986.0 1637.375 993.35C1633.996275 1010.919300658805 1635.25484 1021.95579146803 1642.041655 1030.1C1645.966275 1034.80951415053 1653.601385 1038.15 1665.958345 1038.15C1690.474025 1038.15 1714.730145 1019.40291199665 1728.083345 977.95C1749.051705 913.03918424854 1745.898975 859.07430366319 1763.958345 779.85C1767.75 763.75 1771.833345 753.25 1777.666655 746.25C1782.729335 740.1747940139551 1788.166655 738.9 1795.75 738.9C1797.791655 738.9 1799.541655 739.25 1800.416655 739.6C1798.53768 753.379243433305 1794.60907 762.329114142525 1787.291655 777.05V779.15C1789.916655 780.2 1793.125 780.9 1796.041655 780.9C1814.00719 780.9 1830.37137 769.417452644035 1834.25 750.8L1834.833345 748.0C1837.66866 734.3903612082299 1836.762755 721.265326928705 1827.25 709.85C1818.600835 699.47101381054 1810.12604 695.5 1794.875 695.5C1763.441045 695.5 1733.994285 718.17284071955 1720.5 772.15C1700.954145 849.62261007262 1708.90149 895.226233540645 1686.958345 963.25C1684.333345 971.65 1681.416655 980.05 1678.5 987.4C1676.75 987.75 1674.416655 988.1 1671.208345 988.1C1660.416655 988.1 1651.958345 985.65 1644.666655 976.55ZM1690.166655 831.3C1689.291655 833.4 1688.708345 835.5 1688.125 837.95C1682.708295 861.55540169953 1692.213455 882.05 1715.541655 882.05H1783.791655C1785.833345 877.5 1787.291655 872.95 1788.166655 867.35C1791.666655 844.6 1785.833345 831.3 1752.875 831.3ZM1822.0 776.0C1818.5 783.7 1816.75 789.65 1815.291655 796.3C1810.33331 821.5 1814.70831 831.65 1821.416655 831.65C1826.375 831.65 1829.58331 830.6 1832.791655 827.1L1834.25 828.15C1828.416655 856.5 1815.875 882.75 1812.666655 915.65C1808.875 952.05 1828.125 968.5 1845.041655 968.5C1855.83331 968.5 1863.125 966.4 1868.375 960.1C1872.75 954.85 1875.666655 948.2 1877.125 939.45C1879.166655 927.9 1879.45831 917.75 1878.291655 909.7H1876.541655C1871.875 914.6 1868.95831 916.0 1863.416655 916.0C1860.791655 916.0 1857.875 915.3 1855.83331 913.9C1855.83331 909.35 1856.125 904.8 1858.45831 894.3C1864.58331 867.0 1875.375 848.1 1880.33331 814.15C1883.541655 793.15 1868.666655 772.5 1853.5 772.5C1843.58331 772.5 1831.625 773.9 1822.0 776.0ZM1836.764155 723.325C1836.764155 744.810835 1854.180785 762.2275 1875.666655 762.2275C1897.15249 762.2275 1914.569155 744.810835 1914.569155 723.325C1914.569155 701.8391650000001 1897.15249 684.4225 1875.666655 684.4225C1854.180785 684.4225 1836.764155 701.8391650000001 1836.764155 723.325Z" fill="#1a1a1a"/>
</svg>