<?xml version="1.0" encoding="UTF-8"?>
<svg xmlns="http://www.w3.org/2000/svg" width="1540.0" height="1057.5"
     viewBox="0 0 1540.0 1057.5">
<rect width="100%" height="100%" fill="white"/>
<text x="770.0" y="30" text-anchor="middle" font-size="14" font-family="sans-serif" font-weight="bold" fill="#333">Sans B Upright — Key glyphs close-up</text><text x="187.5" y="48" text-anchor="middle" font-size="10" font-family="sans-serif" fill="#999">H</text><text x="362.5" y="48" text-anchor="middle" font-size="10" font-family="sans-serif" fill="#999">I</text><text x="537.5" y="48" text-anchor="middle" font-size="10" font-family="sans-serif" fill="#999">J</text><text x="712.5" y="48" text-anchor="middle" font-size="10" font-family="sans-serif" fill="#999">K</text><text x="887.5" y="48" text-anchor="middle" font-size="10" font-family="sans-serif" fill="#999">L</text><text x="1062.5" y="48" text-anchor="middle" font-size="10" font-family="sans-serif" fill="#999">M</text><text x="1237.5" y="48" text-anchor="middle" font-size="10" font-family="sans-serif" fill="#999">R</text><text x="1412.5" y="48" text-anchor="middle" font-size="10" font-family="sans-serif" fill="#999">S</text><text x="20" y="221.25" font-size="11" font-family="sans-serif" font-weight="bold" fill="#555">Linear</text><path d="M120.41665499999999 55.00000000000003C120.41665499999999 67.60000000000002 120.41665499999999 79.85000000000002 120.41665499999999 92.45000000000002C120.41665499999999 160.35000000000002 120.41665499999999 228.25 120.41665499999999 296.15C120.41665499999999 298.25 121.875 300.0 123.625 300.0C138.208345 300.0 152.5 300.0 167.083345 300.0C167.083345 219.85000000000002 167.083345 139.0 167.083345 58.85000000000002C167.083345 56.75000000000003 165.625 55.00000000000003 163.875 55.00000000000003C149.291655 55.00000000000003 135.0 55.00000000000003 120.41665499999999 55.00000000000003ZM139.666655 154.4V197.8C139.666655 199.9 141.125 201.65 142.875 201.65H243.791655L234.166655 151.25L223.375 154.4C216.958345 154.4 210.541655 154.4 204.125 154.4ZM269.166655 300.0C269.166655 288.8 269.166655 275.5 269.166655 261.5C269.166655 193.95 269.166655 126.4 269.166655 58.85000000000002C269.166655 56.75000000000003 267.708345 55.00000000000003 265.958345 55.00000000000003C251.375 55.00000000000003 237.08334499999998 55.00000000000003 222.5 55.00000000000003C222.5 135.15 222.5 216.0 222.5 296.15C222.5 298.25 223.958345 300.0 225.708345 300.0C240.291655 300.0 254.58334499999998 300.0 269.166655 300.0Z" fill="#1a1a1a"/><path d="M371.25 270.25C371.25 223.0 371.25 174.35000000000002 371.25 126.75C371.25 119.05000000000001 371.25 108.55000000000001 371.25 100.85000000000002L372.416655 84.75H324.583345C324.583345 132.35000000000002 324.583345 181.0 324.583345 228.25C324.583345 235.60000000000002 324.583345 246.8 324.583345 254.15L323.416655 270.25ZM400.416655 300.0C400.416655 284.6 400.416655 272.0 400.416655 256.6C400.416655 254.5 398.958345 252.75 397.208345 252.75H295.416655C295.416655 268.15 295.416655 280.75 295.416655 296.15C295.416655 298.25 296.875 300.0 298.625 300.0ZM295.416655 55.00000000000003C295.416655 70.4 295.416655 83.0 295.416655 98.4C295.416655 100.5 296.875 102.25 298.625 102.25H400.416655C400.416655 86.85000000000002 400.416655 74.25000000000003 400.416655 58.85000000000002C400.416655 56.75000000000003 398.958345 55.00000000000003 397.208345 55.00000000000003Z" fill="#1a1a1a"/><path d="M507.166655 254.5C492.291655 254.5 481.791655 251.35 467.5 244.0H461.666655C461.666655 259.75 461.666655 276.2 461.666655 290.55C461.666655 293.0 461.958345 294.4 463.125 295.8C467.5 301.05 485.0 307.0 508.041655 307.0C554.416655 307.0 575.416655 276.55 575.416655 223.35000000000002C575.416655 167.7945 575.416655 110.55550000000002 575.416655 55.00000000000003C575.416655 52.20000000000002 571.041655 50.80000000000001 560.104155 50.80000000000001C555.729155 50.80000000000001 551.354155 50.80000000000001 546.979155 50.80000000000001C536.041655 50.80000000000001 531.666655 52.20000000000002 531.666655 55.00000000000003C531.666655 55.00000000000003 531.666655 55.00000000000003 531.666655 55.00000000000003C531.666655 55.00000000000003 531.666655 55.00000000000003 531.666655 55.00000000000003C531.666655 109.51600000000002 531.666655 165.684 531.666655 220.2C531.666655 234.9 530.208345 242.95 526.125 247.85C522.041655 252.75 516.791655 254.5 507.166655 254.5Z" fill="#1a1a1a"/><path d="M722.708345 152.65 694.125 218.45H710.75C713.958345 235.25 717.166655 244.0 730.583345 270.6C744.583345 297.55 753.916655 300.0 775.791655 300.0C782.208345 300.0 786.0 300.0 788.041655 300.0C790.083345 300.0 791.25 298.6 791.25 296.15C791.25 293.35 791.25 268.85 791.25 252.75H789.791655C786.875 252.75 785.708345 252.75 782.791655 252.75C775.208345 252.75 773.458345 251.0 769.083345 242.25C753.916655 212.85000000000002 737.875 182.05 722.708345 152.65ZM793.291655 55.00000000000003H743.708345C734.083345 74.25000000000003 719.791655 103.30000000000001 710.458345 122.55000000000001C702.291655 139.0 697.333345 151.95000000000002 693.541655 169.45000000000002H681.875V258.35C724.458345 185.55 772.875 101.55000000000001 788.916655 72.85000000000002C795.916655 60.60000000000002 795.916655 59.55000000000001 795.916655 57.80000000000001C795.916655 56.400000000000006 794.75 55.00000000000003 793.291655 55.00000000000003ZM642.5 55.00000000000003C642.5 67.60000000000002 642.5 79.85000000000002 642.5 92.45000000000002C642.5 160.35000000000002 642.5 228.25 642.5 296.15C642.5 298.6 643.666655 300.0 645.708345 300.0C660.291655 300.0 673.125 300.0 687.708345 300.0C687.708345 219.85000000000002 687.708345 139.0 687.708345 58.85000000000002C687.708345 56.400000000000006 686.541655 55.00000000000003 684.5 55.00000000000003C669.916655 55.00000000000003 657.083345 55.00000000000003 642.5 55.00000000000003Z" fill="#1a1a1a"/><path d="M823.625 300.0H945.833345C941.166655 265.0 933.583345 252.75 910.541655 252.75H867.083345C867.083345 189.05 867.083345 122.55000000000001 867.083345 58.85000000000002C867.083345 56.75000000000003 865.625 55.00000000000003 863.875 55.00000000000003C849.291655 55.00000000000003 835.0 55.00000000000003 820.416655 55.00000000000003C820.416655 64.45000000000002 820.416655 73.55000000000001 820.416655 83.0C820.416655 154.05 820.416655 225.10000000000002 820.416655 296.15C820.416655 298.25 821.875 300.0 823.625 300.0Z" fill="#1a1a1a"/><path d="M1039.166655 300.0C1039.166655 284.6 1039.166655 268.85 1039.166655 253.45C1039.166655 214.60000000000002 1037.708345 183.10000000000002 1030.416655 126.4L1024.875 136.9H1045.875L1033.916655 127.10000000000002C1046.458345 167.0 1060.75 210.05 1073.583345 249.95C1074.458345 252.4 1075.916655 252.75 1077.083345 252.75C1087.583345 252.75 1098.083345 252.75 1108.583345 252.75C1121.416655 212.15 1136.0 167.70000000000002 1148.833345 127.10000000000002L1136.583345 136.9H1157.875L1152.333345 126.4C1145.625 184.5 1144.166655 215.3 1144.166655 253.45C1144.166655 267.8 1144.166655 281.8 1144.166655 296.15C1144.166655 298.25 1145.625 300.0 1147.375 300.0C1160.791655 300.0 1174.5 300.0 1187.916655 300.0C1187.916655 288.45 1187.916655 276.9 1187.916655 265.35C1187.916655 196.4 1187.916655 127.45000000000002 1187.916655 58.85000000000002C1187.916655 56.75000000000003 1186.458345 55.00000000000003 1184.708345 55.00000000000003C1171.291655 55.00000000000003 1142.708345 55.00000000000003 1129.291655 55.00000000000003C1112.958345 106.80000000000001 1102.75 140.75 1089.916655 187.3L1102.75 172.25H1081.458345L1094.0 187.3C1081.166655 141.10000000000002 1070.083345 106.10000000000002 1055.5 63.75000000000003C1053.166655 56.400000000000006 1051.708345 55.00000000000003 1047.916655 55.00000000000003C1036.25 55.00000000000003 1008.833345 55.00000000000003 995.416655 55.00000000000003C995.416655 66.55000000000001 995.416655 78.45000000000002 995.416655 90.0C995.416655 158.60000000000002 995.416655 227.55 995.416655 296.15C995.416655 298.25 996.875 300.0 998.625 300.0C1012.041655 300.0 1025.75 300.0 1039.166655 300.0Z" fill="#1a1a1a"/><path d="M1268.416655 188.7 1230.208345 208.65C1240.125 231.4 1249.458345 254.5 1259.375 277.25C1267.541655 296.5 1276.875 300.0 1297.875 300.0C1301.666655 300.0 1307.5 300.0 1310.125 300.0C1312.166655 300.0 1313.333345 298.6 1313.333345 296.15C1313.333345 280.4 1313.333345 268.5 1313.333345 252.75H1307.5C1306.041655 252.75 1305.166655 252.75 1303.708345 252.75C1299.625 252.75 1297.583345 251.0 1294.666655 244.7C1285.333345 224.4 1278.041655 209.35000000000002 1268.416655 188.7ZM1171.875 55.00000000000003C1171.875 70.4 1171.875 83.0 1171.875 98.4C1171.875 100.85000000000002 1171.875 102.25 1171.875 102.25C1187.916655 102.25 1214.458345 102.25 1240.416655 102.25C1247.708345 102.25 1252.958345 104.35000000000002 1256.166655 108.20000000000002C1259.375 112.05000000000001 1260.833345 117.65 1260.833345 125.35000000000002V149.85000000000002C1260.833345 165.60000000000002 1254.416655 172.95 1240.416655 172.95C1230.208345 172.95 1220.0 172.95 1209.791655 172.95V220.2L1213.0 218.45C1223.791655 218.45 1235.166655 218.45 1245.958345 218.45C1283.291655 218.45 1306.041655 192.55 1306.041655 149.15V128.5C1306.041655 83.70000000000002 1287.666655 55.00000000000003 1238.666655 55.00000000000003C1212.125 55.00000000000003 1185.291655 55.00000000000003 1171.875 55.00000000000003ZM1217.083345 300.0C1217.083345 290.2 1217.083345 278.3 1217.083345 265.7C1217.083345 217.05 1217.083345 178.2 1217.083345 133.75C1217.083345 121.5 1217.083345 108.55000000000001 1217.083345 94.9L1220.583345 84.4H1171.875C1171.875 158.60000000000002 1171.875 221.95 1171.875 296.15C1171.875 298.6 1173.041655 300.0 1175.083345 300.0C1189.666655 300.0 1202.5 300.0 1217.083345 300.0Z" fill="#1a1a1a"/><path d="M1418.916655 48.00000000000003C1373.125 48.00000000000003 1344.541655 76.35000000000002 1344.541655 114.5V132.35000000000002C1344.541655 157.55 1353.0 180.3 1392.083345 194.65L1419.5 204.8C1439.625 212.15 1441.375 217.4 1441.375 226.85000000000002V239.8C1441.375 249.6 1432.625 259.4 1409.583345 259.4C1383.333345 259.4 1365.833345 252.75 1348.333345 239.1H1342.5C1342.5 255.55 1342.5 268.85 1342.5 281.8C1342.5 286.35 1343.083345 287.4 1344.25 288.8C1353.875 300.35 1378.083345 307.0 1406.375 307.0C1455.375 307.0 1484.25 282.15 1484.25 240.5V223.7C1484.25 191.15 1474.041655 173.65 1437.583345 160.35000000000002L1409.875 150.20000000000002C1390.625 143.20000000000002 1387.416655 138.3 1387.416655 125.70000000000002V118.35000000000002C1387.416655 101.55000000000001 1397.916655 95.25 1418.916655 95.25C1428.25 95.25 1434.666655 96.65 1443.708345 100.15L1440.35006 98.50314500000002C1440.2395999999999 98.11632499999999 1440.09197 99.82947000000001 1439.889775 101.26261500000001C1439.61723 100.59579500000001 1439.72706 99.50894000000002 1440.09099 97.86212000000003C1444.54999 96.21526499999999 1449.13128 94.56841 1453.365055 92.92159000000001C1452.46797 84.97473500000001 1451.45983 75.48788000000002 1450.346795 68.38105999999999C1449.13786 65.614205 1447.72792 63.26738499999999 1445.78101 60.920530000000014C1440.74619 54.93367500000002 1431.35751 49.646855000000016 1418.916655 48.00000000000003Z" fill="#1a1a1a"/><line x1="20" y1="382.5" x2="1520.0" y2="382.5" stroke="#eee" stroke-width="0.5"/><text x="20" y="553.75" font-size="11" font-family="sans-serif" font-weight="bold" fill="#555">SemiCasual</text><path d="M119.25 387.5C120.5625 399.57500000000005 121.1458275 412.175 121.1458275 425.475C121.1458275 486.9 121.1458275 548.15 121.1458275 609.575C121.1458275 628.125 126.3958275 633.9 136.6041725 633.9C147.395845 633.9 157.3125 633.375 167.8125 632.5C167.8125 557.075 167.8125 481.125 167.8125 405.70000000000005C167.8125 393.975 162.4166725 386.1 150.75 386.1C139.8125 386.1 129.8958275 386.625 119.25 387.5ZM123.47915499999999 489.70000000000005C123.47915499999999 489.70000000000005 123.47915499999999 515.775 123.47915499999999 515.775C123.47915499999999 529.95 125.5208275 539.575 133.8333275 539.575C133.8333275 539.575 238.104155 539.575 238.104155 539.575C238.104155 539.575 233.291655 490.75 233.291655 490.75C233.291655 490.75 222.7916725 494.95000000000005 222.7916725 494.95000000000005C215.9375 491.275 208.5 489.70000000000005 199.0208275 489.70000000000005C199.0208275 489.70000000000005 123.47915499999999 489.70000000000005 123.47915499999999 489.70000000000005ZM271.2083275 632.5C269.8958275 620.6 269.8958275 607.475 269.8958275 593.475C269.8958275 528.9 269.8958275 463.975 269.8958275 406.4C269.8958275 390.65 263.9166725 386.1 254.0 386.1C243.35417249999998 386.1 233.4375 386.625 223.2291725 387.5C223.2291725 462.925 223.2291725 536.95 223.2291725 611.15C223.2291725 626.025 229.64584499999998 633.9 239.70834499999998 633.9C250.6458275 633.9 260.5625 633.375 271.2083275 632.5Z" fill="#1a1a1a"/><path d="M371.25 596.275C371.25 553.575 371.25 510.35 371.25 467.475C371.25 455.75 369.2083275 444.20000000000005 365.7083275 437.725C365.7083275 437.725 367.75 423.725 367.75 423.725C367.75 423.725 324.583345 423.725 324.583345 423.725C324.583345 466.6 324.583345 509.825 324.583345 552.525C324.583345 564.075 326.625 575.975 330.125 582.275C330.125 582.275 328.0833275 596.275 328.0833275 596.275C328.0833275 596.275 371.25 596.275 371.25 596.275ZM403.7708275 632.5C404.354155 622.35 404.791655 613.425 404.791655 602.925C404.791655 591.725 399.5416725 582.625 380.875 582.625C380.875 582.625 292.0625 582.625 292.0625 582.625C291.479155 592.95 291.041655 603.45 291.041655 615.175C291.041655 625.85 294.25 632.5 301.6875 632.5C301.6875 632.5 403.7708275 632.5 403.7708275 632.5ZM291.916655 387.5C291.479155 396.775 291.1875 406.225 291.1875 416.55C291.1875 431.07500000000005 299.0625 437.375 315.25 437.375C315.25 437.375 403.625 437.375 403.625 437.375C404.354155 426.175 404.791655 416.375 404.791655 405.525C404.791655 395.55 402.895845 387.5 394.145845 387.5C394.145845 387.5 291.916655 387.5 291.916655 387.5Z" fill="#1a1a1a"/><path d="M507.458345 587.0C491.708345 587.0 479.020845 582.45 463.5625 572.125H459.770845C459.1875 582.8 458.75 594.7 458.75 607.475C458.75 616.75 460.5 622.175 464.291655 626.725C470.27081 633.9 485.291655 639.5 506.0 639.5C552.375 639.5 576.145845 601.525 576.145845 554.8C576.145845 499.591 576.145845 442.709 576.145845 387.5C576.145845 384.70000000000005 571.639595 383.3 560.37397 383.3C555.86772 383.3 551.36147 383.3 546.85522 383.3C535.589595 383.3 531.083345 384.70000000000005 531.083345 387.5C531.083345 387.5 531.083345 387.5 531.083345 387.5C531.083345 387.5 531.083345 387.5 531.083345 387.5C531.083345 441.90049999999997 531.083345 497.9495 531.083345 552.35C531.083345 565.65 530.208345 574.4 527.4375 581.225C522.333345 585.25 516.5 587.0 507.458345 587.0Z" fill="#1a1a1a"/><path d="M725.0416725 493.025C725.0416725 493.025 694.125 547.975 694.125 547.975C694.125 547.975 708.2708275 547.975 708.2708275 547.975C715.270845 573.875 718.479155 582.625 729.708345 605.9C741.8125 630.575 752.0208275 636.0 770.25 636.0C777.25 636.0 782.0625 634.95 785.125 632.5C788.4791725 629.7 790.375 623.75 790.375 616.225C790.375 608.7 790.0833275 593.125 789.3541725 581.05C789.3541725 581.05 787.75 581.05 787.75 581.05C784.8333275 582.275 782.645845 582.8 778.5625 582.8C771.125 582.8 767.0416725 579.3 761.9375 568.275C749.8333275 543.425 737.1458275 517.875 725.0416725 493.025ZM769.9583275 385.75C769.9583275 385.75 742.395845 385.75 742.395845 385.75C736.125 410.775 725.1875 438.6 716.145845 457.85C707.25 476.75 699.6666725 490.925 692.375 505.625C692.375 505.625 682.1666725 505.625 682.1666725 505.625C682.1666725 505.625 682.1666725 573.7 682.1666725 573.7C719.645845 531.0 766.6041725 467.65 782.2083275 431.775C789.9375 414.275 790.8125 407.275 790.8125 399.4C790.8125 391.875 783.375 385.75 769.9583275 385.75ZM641.3333275 387.5C642.6458275 399.57500000000005 643.2291725 412.175 643.2291725 425.475C643.2291725 486.9 643.2291725 548.15 643.2291725 609.575C643.2291725 628.3 648.3333275 633.9 658.6875 633.9C669.479155 633.9 678.0833275 633.375 688.583345 632.5C688.583345 557.075 688.583345 481.125 688.583345 405.70000000000005C688.583345 393.8 683.916655 386.1 672.1041725 386.1C661.166655 386.1 651.9791725 386.625 641.3333275 387.5Z" fill="#1a1a1a"/><path d="M835.5833275 632.5C835.5833275 632.5 940.583345 632.5 940.583345 632.5C939.854155 597.15 932.8541725 582.625 912.729155 582.625C912.729155 582.625 866.3541725 582.625 866.3541725 582.625C866.3541725 522.775 866.3541725 459.775 866.3541725 403.425C866.3541725 389.6 862.125 385.75 850.8958275 385.75C839.229155 385.75 828.4375 386.45000000000005 817.791655 387.5C819.104155 398.175 819.6875 409.025 819.6875 420.75C819.6875 481.475 819.6875 542.025 819.6875 602.75C819.6875 616.225 824.7916725 632.5 835.5833275 632.5Z" fill="#1a1a1a"/><path d="M1036.979155 632.5C1036.25 616.225 1035.8125 599.425 1035.8125 582.975C1035.8125 551.3 1036.1041725 517.875 1035.0833275 459.6C1035.0833275 459.6 1028.8125 470.1 1028.8125 470.1C1028.8125 470.1 1048.5 470.1 1048.5 470.1C1048.5 470.1 1036.3958275 460.475 1036.3958275 460.475C1047.770845 509.65 1064.1041725 559.7 1075.4791725 584.725C1077.958345 588.05 1080.729155 588.75 1084.8125 588.75C1092.9791725 588.75 1101.0 588.225 1108.145845 587.0C1120.25 557.25 1136.0 502.82500000000005 1146.9375 460.65C1146.9375 460.65 1134.5416725 470.1 1134.5416725 470.1C1134.5416725 470.1 1154.375 470.1 1154.375 470.1C1154.375 470.1 1148.25 459.6 1148.25 459.6C1146.5 513.5 1146.9375 543.95 1146.9375 573.525C1146.9375 588.225 1146.6458275 606.075 1146.6458275 617.45C1146.6458275 629.7 1150.1458275 633.9 1162.3958275 633.9C1173.479155 633.9 1184.4166725 633.375 1193.4583275 632.5C1192.291655 621.475 1191.2708275 607.475 1190.541655 581.575C1189.8125 526.45 1188.9375 470.8 1185.729155 404.125C1184.5625 391.525 1180.4791725 386.1 1164.145845 386.1C1151.3125 386.1 1134.1041725 386.625 1124.7708275 387.5C1113.395845 437.725 1102.75 485.32500000000005 1089.916655 527.675C1089.916655 527.675 1102.3125 515.95 1102.3125 515.95C1102.3125 515.95 1082.4791725 515.95 1082.4791725 515.95C1082.4791725 515.95 1093.5625 527.85 1093.5625 527.85C1081.75 485.15 1072.4166725 444.375 1062.6458275 403.775C1060.166655 390.3 1053.6041725 386.1 1037.2708275 386.1C1024.0 386.1 1006.645845 386.625 996.5833275 387.5C997.604155 397.65 997.8958275 406.225 997.8958275 416.9C997.8958275 470.275 991.7708275 541.15 991.7708275 617.1C991.7708275 629.35 998.625 633.9 1006.3541725 633.9C1015.979155 633.9 1028.6666725 633.55 1036.979155 632.5Z" fill="#1a1a1a"/><path d="M1271.479155 525.75C1271.479155 525.75 1237.0625 547.275 1237.0625 547.275C1243.0416725 568.8 1249.895845 588.925 1258.9375 610.275C1267.3958275 630.225 1278.1875 636.0 1296.4166725 636.0C1301.5208275 636.0 1306.7708275 635.125 1310.2708275 632.5C1313.479155 629.875 1315.375 623.75 1315.375 613.6C1315.375 601.875 1315.083345 592.6 1314.3541725 581.05C1314.3541725 581.05 1310.5625 581.05 1310.5625 581.05C1308.0833275 582.275 1306.7708275 582.625 1303.5625 582.625C1297.2916725 582.625 1293.0625 579.3 1288.6875 569.5C1281.833345 554.45 1276.875 541.675 1271.479155 525.75ZM1170.916455 387.5C1171.0747425 398.35 1171.2242449999999 407.625 1171.4177075 419.175C1171.9629375 431.25 1172.2355525 437.375 1172.2355525 437.375C1181.0625 437.375 1207.1666725 433.875 1236.3333275 433.875C1245.6666725 433.875 1252.2291725 435.625 1257.7708275 439.3C1260.1041725 444.375 1261.125 449.975 1261.125 457.15C1261.125 457.15 1261.125 472.025 1261.125 472.025C1261.125 500.375 1251.2083275 513.675 1234.0 513.675C1223.208345 513.675 1216.6458275 513.325 1209.354155 512.45C1209.354155 512.45 1209.354155 555.675 1209.354155 555.675C1209.354155 555.675 1216.6458275 554.8 1216.6458275 554.8C1224.0833275 557.425 1233.125 558.475 1242.458345 558.475C1277.8958275 558.475 1306.7708275 525.1853773584975 1306.7708275 469.925C1306.7708275 469.925 1306.7708275 457.675 1306.7708275 457.675C1306.7708275 418.38611111111754 1286.9375 384.0 1234.875 384.0C1209.3541725 384.0 1182.375 385.225 1170.916455 387.5ZM1219.4166725 632.5C1218.1041725 622.175 1217.8125 610.275 1217.8125 598.55C1217.8125 552.175 1217.8125 511.05 1217.8125 466.775C1217.8125 453.03948863637 1216.2200175 441.40830416863497 1212.270845 431.775C1212.270845 431.775 1215.4791725 421.275 1215.4791725 421.275C1215.4791725 421.275 1171.875 421.275 1171.875 421.275C1171.875 486.9 1171.875 546.925 1171.875 612.55C1171.875 627.25 1177.7083275 633.55 1190.6875 633.55C1201.1875 633.55 1209.5 633.2 1219.4166725 632.5Z" fill="#1a1a1a"/><path d="M1425.625 380.5C1380.270845 380.5 1345.708345 419.0 1345.708345 461.525V472.725C1345.708345 495.475 1354.020845 515.95 1396.020845 533.1L1423.145845 544.125C1439.479155 550.6 1444.4375 557.775 1444.4375 568.275V575.625C1440.208345 583.15 1429.854155 589.45 1411.770845 589.45C1383.333345 589.45 1363.645845 580.7 1346.583345 563.9H1342.791655C1342.208345 574.75 1341.770845 585.075 1341.770845 596.1C1341.770845 608.35 1344.395845 616.225 1348.041655 620.6C1357.520845 631.975 1382.166655 639.5 1410.166655 639.5C1459.895845 639.5 1485.5625 614.65 1485.5625 574.4V563.2C1485.5625 538.35 1476.666655 518.05 1439.333345 503.175L1411.770845 492.15C1393.6875 484.975 1389.3125 479.9 1389.020845 468.175V463.8C1389.020845 444.725 1406.958345 430.375 1426.645845 430.375C1434.083345 430.375 1438.75 431.6 1445.75 435.1L1442.947445 433.37579500000004C1442.34268 432.42159000000004 1441.8174 434.47735 1441.76259 435.973145C1441.63743 438.518975 1443.702955 438.334735 1447.364235 436.61053000000004C1450.745585 434.886325 1453.95757 432.81212000000005 1456.58873 430.73788C1455.83903 423.693675 1454.97824 415.52947 1454.01259 408.625265C1452.951005 402.911025 1451.33845 397.966855 1447.847235 393.512615C1442.7848 387.23841000000004 1435.41016 382.224205 1425.625 380.5Z" fill="#1a1a1a"/><line x1="20" y1="715.0" x2="1520.0" y2="715.0" stroke="#eee" stroke-width="0.5"/><text x="20" y="886.25" font-size="11" font-family="sans-serif" font-weight="bold" fill="#555">Casual</text><path d="M118.083345 720.0C120.708345 731.55 121.875 744.5 121.875 758.5C121.875 813.45 121.875 868.05 121.875 923.0C121.875 958.0 130.916655 967.8 149.583345 967.8C156.583345 967.8 162.125 966.75 168.541655 965.0C168.541655 894.3 168.541655 823.25 168.541655 752.55C168.541655 731.2 159.208345 717.2 137.625 717.2C130.333345 717.2 124.79165499999999 718.25 118.083345 720.0ZM107.291655 825.0V833.75C107.291655 860.0 109.916655 877.5 124.79165499999999 877.5H232.416655V830.25L222.208345 835.5C214.916655 828.15 206.458345 825.0 193.916655 825.0ZM273.25 965.0C270.625 952.4 270.625 939.45 270.625 925.45C270.625 863.85 270.625 801.55 270.625 753.95C270.625 724.55 260.125 717.2 242.041655 717.2C235.33334499999998 717.2 229.791655 718.25 223.958345 720.0C223.958345 790.7 223.958345 857.9 223.958345 926.15C223.958345 953.8 235.33334499999998 967.8 253.70834499999998 967.8C261.0 967.8 266.541655 966.75 273.25 965.0Z" fill="#1a1a1a"/><path d="M371.25 922.3C371.25 884.15 371.25 846.35 371.25 808.2C371.25 792.45 367.166655 779.85 360.166655 774.6L363.083345 762.7H324.583345C324.583345 800.85 324.583345 838.65 324.583345 876.8C324.583345 892.55 328.666655 905.15 335.666655 910.4L332.75 922.3ZM407.125 965.0C408.291655 960.1 409.166655 954.85 409.166655 949.25C409.166655 928.95 400.125 912.5 364.541655 912.5H288.708345C287.541655 917.75 286.666655 926.15 286.666655 934.2C286.666655 953.45 291.625 965.0 304.75 965.0ZM288.416655 720.0C287.541655 723.15 286.958345 729.45 286.958345 734.7C286.958345 761.65 301.25 772.5 331.875 772.5H406.833345C408.291655 765.5 409.166655 758.5 409.166655 752.2C409.166655 734.35 406.833345 720.0 391.083345 720.0Z" fill="#1a1a1a"/><path d="M507.75 919.5C491.125 919.5 476.25 913.55 459.625 900.25H457.875C456.708345 905.85 455.833345 913.2 455.833345 924.4C455.833345 940.5 459.041655 949.95 465.458345 957.65C473.041655 966.75 485.583345 972.0 503.958345 972.0C550.333345 972.0 576.875 926.5 576.875 886.25C576.875 831.3875 576.875 774.8625 576.875 720.0C576.875 717.2 572.2375 715.8 560.64375 715.8C556.00625 715.8 551.36875 715.8 546.73125 715.8C535.1375 715.8 530.5 717.2 530.5 720.0C530.5 720.0 530.5 720.0 530.5 720.0C530.5 720.0 530.5 720.0 530.5 720.0C530.5 774.2850000000001 530.5 830.215 530.5 884.5C530.5 896.4 530.208345 905.85 528.75 914.6C522.625 917.75 516.208345 919.5 507.75 919.5Z" fill="#1a1a1a"/><path d="M727.375 833.4 694.125 877.5H705.791655C716.583345 912.5 719.791655 921.25 728.833345 941.2C739.041655 963.6 750.125 972.0 764.708345 972.0C772.291655 972.0 778.125 969.9 782.208345 965.0C786.875 959.4 789.5 948.9 789.5 936.3C789.5 924.05 788.916655 917.4 787.458345 909.35H785.708345C782.791655 911.8 779.583345 912.85 774.333345 912.85C767.041655 912.85 760.625 907.6 754.791655 894.3C745.75 874.0 736.416655 853.7 727.375 833.4ZM746.625 716.5H741.083345C738.166655 747.3 730.583345 773.9 721.833345 793.15C712.208345 814.5 702.0 829.9 691.208345 841.8H682.458345V889.05C714.833345 876.45 760.333345 833.75 775.5 790.7C783.958345 767.95 785.708345 755.0 785.708345 741.0C785.708345 727.35 772.0 716.5 746.625 716.5ZM640.166655 720.0C642.791655 731.55 643.958345 744.5 643.958345 758.5C643.958345 813.45 643.958345 868.05 643.958345 923.0C643.958345 958.0 653.0 967.8 671.666655 967.8C678.666655 967.8 683.041655 966.75 689.458345 965.0C689.458345 894.3 689.458345 823.25 689.458345 752.55C689.458345 731.2 681.291655 717.2 659.708345 717.2C652.416655 717.2 646.875 718.25 640.166655 720.0Z" fill="#1a1a1a"/><path d="M847.541655 965.0H935.333345C938.541655 929.3 932.125 912.5 914.916655 912.5H865.625C865.625 856.5 865.625 797.0 865.625 748.0C865.625 722.45 858.625 716.5 837.916655 716.5C829.166655 716.5 821.875 717.9 815.166655 720.0C817.791655 731.9 818.958345 744.5 818.958345 758.5C818.958345 808.9 818.958345 858.95 818.958345 909.35C818.958345 934.2 827.708345 965.0 847.541655 965.0Z" fill="#1a1a1a"/><path d="M1034.791655 965.0C1033.333345 947.85 1032.458345 930.0 1032.458345 912.5C1032.458345 888.0 1034.5 852.65 1039.75 792.8L1032.75 803.3H1051.125L1038.875 793.85C1049.083345 852.3 1067.458345 909.35 1077.375 919.5C1081.458345 923.7 1085.541655 924.75 1092.541655 924.75C1098.375 924.75 1103.916655 923.7 1107.708345 921.25C1119.083345 902.35 1136.0 837.95 1145.041655 794.2L1132.5 803.3H1150.875L1144.166655 792.8C1147.375 842.5 1149.708345 872.6 1149.708345 893.6C1149.708345 908.65 1149.125 930.35 1149.125 938.75C1149.125 961.15 1154.666655 967.8 1177.416655 967.8C1186.166655 967.8 1194.333345 966.75 1199.0 965.0C1196.666655 954.5 1194.625 938.05 1193.166655 897.8C1191.708345 856.5 1189.958345 814.15 1183.541655 749.4C1181.208345 726.3 1174.5 717.2 1143.583345 717.2C1131.333345 717.2 1125.5 718.25 1120.25 720.0C1113.833345 768.65 1102.75 829.9 1089.916655 868.05L1101.875 859.65H1083.5L1093.125 868.4C1082.333345 829.2 1074.75 782.65 1069.791655 743.8C1067.166655 724.2 1055.5 717.2 1026.625 717.2C1011.75 717.2 1004.458345 718.25 997.75 720.0C999.791655 728.75 1000.375 734.0 1000.375 743.8C1000.375 781.95 988.125 854.75 988.125 938.05C988.125 960.45 1000.375 967.8 1014.083345 967.8C1019.916655 967.8 1031.583345 967.1 1034.791655 965.0Z" fill="#1a1a1a"/><path d="M1274.541655 862.8 1243.916655 885.9C1245.958345 906.2 1250.333345 923.35 1258.5 943.3C1267.25 963.95 1279.5 972.0 1294.958345 972.0C1301.375 972.0 1306.041655 970.25 1310.416655 965.0C1314.791655 959.75 1317.416655 948.9 1317.416655 931.05C1317.416655 923.35 1316.833345 916.7 1315.375 909.35H1313.625C1310.125 911.8 1308.375 912.5 1303.416655 912.5C1294.958345 912.5 1288.541655 907.6 1282.708345 894.3C1278.333345 884.5 1275.708345 874.0 1274.541655 862.8ZM1169.95791 720.0C1170.274485 726.3 1170.57349 732.25 1170.960415 739.95C1172.050875 761.65 1172.596105 772.5 1172.596105 772.5C1174.208345 772.5 1199.875 765.5 1232.25 765.5C1243.625 765.5 1251.5 766.9 1259.375 770.4C1260.833345 776.7 1261.416655 782.3 1261.416655 788.95V794.2C1261.416655 835.15 1248.0 854.4 1227.583345 854.4C1216.208345 854.4 1213.291655 853.7 1208.916655 851.95V891.15H1220.291655C1224.375 896.4 1231.083345 898.5 1238.958345 898.5C1272.5 898.5 1307.5 857.820754716995 1307.5 790.7V786.85C1307.5 753.072222222235 1286.208345 713.0 1231.083345 713.0C1206.583345 713.0 1179.458345 715.45 1169.95791 720.0ZM1221.75 965.0C1219.125 954.15 1218.541655 942.25 1218.541655 931.4C1218.541655 887.3 1218.541655 843.9 1218.541655 799.8C1218.541655 784.5789772727401 1215.35669 774.26660833727 1207.458345 768.65L1210.375 758.15H1171.875C1171.875 815.2 1171.875 871.9 1171.875 928.95C1171.875 955.9 1182.375 967.1 1206.291655 967.1C1212.708345 967.1 1216.5 966.4 1221.75 965.0Z" fill="#1a1a1a"/><path d="M1432.333345 713.0C1387.416655 713.0 1346.875 761.65 1346.875 808.55V813.1C1346.875 833.4 1355.041655 851.6 1399.958345 871.55L1426.791655 883.45C1439.333345 889.05 1447.5 898.15 1447.5 909.7V911.45C1439.041655 916.7 1427.083345 919.5 1413.958345 919.5C1383.333345 919.5 1361.458345 908.65 1344.833345 888.7H1343.083345C1341.916655 893.95 1341.041655 901.3 1341.041655 910.4C1341.041655 930.35 1345.708345 945.05 1351.833345 952.4C1361.166655 963.6 1386.25 972.0 1413.958345 972.0C1464.416655 972.0 1486.875 947.15 1486.875 908.3V902.7C1486.875 885.55 1479.291655 862.45 1441.083345 846.0L1413.666655 834.1C1396.75 826.75 1391.208345 821.5 1390.625 810.65V809.25C1390.625 787.9 1416.0 765.5 1434.375 765.5C1439.916655 765.5 1442.833345 766.55 1447.791655 770.05L1445.544795 768.24841C1444.44576 766.726855 1443.54283 769.125265 1443.635405 770.683675C1443.657595 776.44212 1447.678815 777.16053 1454.63748 775.3589400000001C1456.941215 773.5573850000001 1458.783895 771.055795 1459.812405 768.554205C1459.21009 762.412615 1458.496685 755.57106 1457.678385 748.86947C1456.764185 740.20788 1454.9489800000001 732.666325 1449.91346 726.104735C1444.82341 719.543145 1439.46281 714.80159 1432.333345 713.0Z" fill="#1a1a1a"/>
</svg>