<?xml version="1.0" encoding="UTF-8"?>
<svg xmlns="http://www.w3.org/2000/svg" width="1890.0" height="725.0"
     viewBox="0 0 1890.0 725.0">
<rect width="100%" height="100%" fill="white"/>
<text x="945.0" y="30" text-anchor="middle" font-size="14" font-family="sans-serif" font-weight="bold" fill="#333">Sans A Upright — Key glyphs + features</text><text x="187.5" y="48" text-anchor="middle" font-size="10" font-family="sans-serif" fill="#999">J</text><text x="362.5" y="48" text-anchor="middle" font-size="10" font-family="sans-serif" fill="#999">S</text><text x="537.5" y="48" text-anchor="middle" font-size="10" font-family="sans-serif" fill="#999">L</text><text x="712.5" y="48" text-anchor="middle" font-size="10" font-family="sans-serif" fill="#999">Z</text><text x="887.5" y="48" text-anchor="middle" font-size="10" font-family="sans-serif" fill="#999">f</text><text x="1062.5" y="48" text-anchor="middle" font-size="10" font-family="sans-serif" fill="#999">i</text><text x="1237.5" y="48" text-anchor="middle" font-size="10" font-family="sans-serif" fill="#999">l</text><text x="1412.5" y="48" text-anchor="middle" font-size="10" font-family="sans-serif" fill="#999">r</text><text x="1587.5" y="48" text-anchor="middle" font-size="10" font-family="sans-serif" fill="#999">@</text><text x="1762.5" y="48" text-anchor="middle" font-size="10" font-family="sans-serif" fill="#999">fi</text><text x="20" y="221.25" font-size="11" font-family="sans-serif" font-weight="bold" fill="#555">Linear</text><path d="M160.958345 290.55C146.083345 290.55 132.375 284.6 121.0 274.8H117.5C117.5 279.35 117.5 283.2 117.5 287.75C117.5 289.5 117.79165499999999 290.2 118.66665499999999 291.25C125.375 299.3 142.291655 307.0 160.083345 307.0C201.5 307.0 225.416655 274.45 225.416655 216.35000000000002C225.416655 168.75 225.416655 114.85000000000002 225.416655 58.85000000000002C225.416655 56.400000000000006 224.541655 55.00000000000003 222.208345 55.00000000000003C189.25 55.00000000000003 159.208345 55.00000000000003 126.25 55.00000000000003C126.25 59.20000000000002 126.25 63.400000000000006 126.25 67.60000000000002C126.25 69.70000000000002 127.41665499999999 71.45000000000002 129.458345 71.45000000000002C160.375 71.45000000000002 188.666655 71.45000000000002 219.583345 71.45000000000002L208.208345 67.60000000000002L213.75 73.20000000000002L210.833345 60.95000000000002C210.833345 116.25 210.833345 168.4 210.833345 215.3C210.833345 245.4 204.416655 263.6 194.791655 275.15C186.333345 285.3 174.375 290.55 160.958345 290.55Z" fill="#1a1a1a"/><path d="M367.458345 49.400000000000006C329.25 49.400000000000006 301.25 74.03508771930501 301.25 111.35000000000002V121.85000000000002C301.25 153.35000000000002 313.53045 169.735814246305 348.208345 182.05L376.791655 192.2C405.05954499999996 202.23797702978 413.541655 211.45 413.541655 233.85000000000002V240.85C413.541655 272.0 393.24036 289.15 362.208345 289.15C335.375 289.15 318.166655 283.2 300.958345 265.0H297.458345C297.458345 269.55 297.458345 273.989024390255 297.458345 278.65C297.458345 280.75 297.75 282.15 299.208345 283.9C309.88478 296.71172119584 333.598225 305.6 362.208345 305.6C404.208345 305.6 428.416655 279.889759036145 428.416655 241.9V230.7C428.416655 199.2918032787 414.43289500000003 186.58036384055504 379.125 174.35000000000002L350.833345 164.55C323.41536 155.052634494855 315.833345 141.8 315.833345 119.75V113.10000000000002C315.833345 84.4 336.71536 65.85000000000002 367.458345 65.85000000000002C392.25 65.85000000000002 409.458345 72.50000000000003 419.083345 85.10000000000002L411.208345 66.9C411.208345 82.30000000000001 411.208345 98.05000000000001 411.208345 113.45000000000002C411.208345 115.9 412.375 117.30000000000001 414.416655 117.30000000000001C418.208345 117.30000000000001 422.0 117.30000000000001 425.791655 117.30000000000001C425.791655 102.96435000000002 425.791655 88.60000000000002 425.791655 74.25000000000003C425.791655 71.80000000000001 425.208345 70.75000000000003 423.458345 68.65C413.541655 56.75000000000003 392.833345 49.400000000000006 367.458345 49.400000000000006Z" fill="#1a1a1a"/><path d="M479.458345 300.0H592.916655C592.916655 296.85 592.916655 291.6 592.916655 287.4C592.916655 284.6 592.041655 283.55 589.708345 283.55H490.833345C490.833345 208.65 490.833345 133.75 490.833345 58.85000000000002C490.833345 56.75000000000003 489.666655 55.00000000000003 487.625 55.00000000000003C483.833345 55.00000000000003 480.041655 55.00000000000003 476.25 55.00000000000003C476.25 66.55000000000001 476.25 78.45000000000002 476.25 90.0C476.25 123.60000000000002 476.25 217.05 476.25 296.15C476.25 298.6 477.416655 300.0 479.458345 300.0Z" fill="#1a1a1a"/><path d="M782.5 300.0C782.5 295.8 782.5 291.6 782.5 287.4C782.5 284.95 781.333345 283.55 779.291655 283.55H700.833345C681.875 283.55 671.375 283.55 659.416655 283.55V279.7C669.041655 263.95 678.958345 247.15 689.166655 230.35000000000002C724.75 170.5 762.083345 109.25 782.5 74.95000000000002V58.85000000000002C782.5 56.400000000000006 781.333345 55.00000000000003 779.291655 55.00000000000003H642.5C642.5 60.60000000000002 642.5 63.400000000000006 642.5 67.25000000000003C642.5 70.4 643.375 71.45000000000002 645.708345 71.45000000000002H712.208345C736.125 71.45000000000002 750.125 71.45000000000002 766.458345 71.45000000000002V75.30000000000001C755.375 93.5 744.583345 111.0 734.375 127.80000000000001C704.625 176.8 676.916655 223.0 642.5 280.05V296.15C642.5 298.6 643.666655 300.0 645.708345 300.0Z" fill="#1a1a1a"/><path d="M881.666655 34.0C850.166655 34.0 835.0 57.45000000000002 835.0 105.4C835.0 169.1 835.0 232.8 835.0 296.5H850.75L849.583345 292.65C849.583345 288.45 849.583345 284.6 849.583345 280.4C849.583345 221.25 849.583345 162.10000000000002 849.583345 103.30000000000001C849.583345 80.55000000000001 853.083345 65.85000000000002 860.666655 57.80000000000001C866.208345 52.55000000000001 872.041655 50.45000000000002 881.666655 50.45000000000002C892.166655 50.45000000000002 902.60236 53.761679136569995 910.25 59.20000000000002H913.75C913.75 55.00000000000003 913.75 50.45000000000002 913.75 46.25000000000003C913.75 44.85000000000002 913.458345 44.150000000000006 912.875 43.44999999999999C908.791655 38.55000000000001 893.625 34.0 881.666655 34.0ZM811.666655 115.9C811.666655 120.45000000000002 811.666655 123.60000000000002 811.666655 128.15C811.666655 130.60000000000002 812.833345 132.0 814.875 132.0H899.166655C899.166655 127.45000000000002 899.166655 124.30000000000001 899.166655 119.75C899.166655 117.30000000000001 898.0 115.9 895.958345 115.9ZM811.666655 283.9C811.666655 288.45 811.666655 291.6 811.666655 296.15C811.666655 298.6 812.833345 300.0 814.875 300.0H893.333345C893.333345 295.45 893.333345 292.3 893.333345 287.75C893.333345 285.3 892.166655 283.9 890.125 283.9Z" fill="#1a1a1a"/><path d="M983.75 115.9C983.75 120.10000000000002 983.75 124.30000000000001 983.75 128.5C983.75 130.95000000000002 984.916655 132.35000000000002 986.958345 132.35000000000002C998.333345 132.35000000000002 1003.875 132.35000000000002 1015.25 132.35000000000002H1018.75C1018.75 173.65 1018.75 217.75 1018.75 257.65C1018.75 286.0 1027.5 300.0 1052.291655 300.0C1058.125 300.0 1062.791655 300.0 1065.125 300.0C1067.166655 300.0 1068.333345 298.6 1068.333345 296.15C1068.333345 291.95 1068.333345 287.75 1068.333345 283.55H1064.833345C1058.708345 283.55 1056.958345 283.55 1051.708345 283.55C1045.0 283.55 1040.916655 282.5 1037.708345 278.65C1034.208345 274.45 1033.333345 268.15 1033.333345 258.0C1033.333345 216.0 1033.333345 165.25 1033.333345 119.75C1033.333345 117.30000000000001 1032.166655 115.9 1030.125 115.9C1012.625 115.9 1001.25 115.9 983.75 115.9ZM1007.841655 49.400000000000006C1007.841655 59.45186000000001 1015.989795 67.60000000000002 1026.041655 67.60000000000002C1036.093515 67.60000000000002 1044.241655 59.45186000000001 1044.241655 49.400000000000006C1044.241655 39.34814 1036.093515 31.200000000000045 1026.041655 31.200000000000045C1015.989795 31.200000000000045 1007.841655 39.34814 1007.841655 49.400000000000006Z" fill="#1a1a1a"/><path d="M1167.5 37.5C1167.5 41.69999999999999 1167.5 45.900000000000006 1167.5 50.10000000000002C1167.5 52.55000000000001 1168.666655 53.95000000000002 1170.708345 53.95000000000002C1173.333345 53.95000000000002 1182.083345 53.95000000000002 1184.708345 53.95000000000002H1187.916655C1187.916655 94.9 1187.916655 214.60000000000002 1187.916655 262.2C1187.916655 288.45 1198.125 300.0 1219.708345 300.0C1225.25 300.0 1228.75 300.0 1230.791655 300.0C1232.833345 300.0 1234.0 298.6 1234.0 296.15C1234.0 291.95 1234.0 287.75 1234.0 283.55H1230.5C1229.333345 283.55 1227.0 283.55 1224.666655 283.55C1217.666655 283.55 1210.666655 283.2 1206.875 278.65C1203.083345 274.1 1202.5 268.5 1202.5 256.95C1202.5 212.15 1202.5 86.15 1202.5 41.35000000000002C1202.5 38.900000000000034 1201.333345 37.5 1199.291655 37.5C1195.791655 37.5 1176.25 37.5 1167.5 37.5Z" fill="#1a1a1a"/><path d="M1333.75 115.9C1333.75 120.10000000000002 1333.75 124.65 1333.75 128.85000000000002C1333.75 131.3 1334.916655 132.70000000000002 1336.958345 132.70000000000002C1341.770845 132.70000000000002 1346.729155 132.70000000000002 1351.541655 132.70000000000002H1355.625C1355.625 187.3 1355.625 241.55 1355.625 296.15C1355.625 298.6 1356.791655 300.0 1358.833345 300.0C1362.625 300.0 1366.416655 300.0 1370.208345 300.0C1370.208345 288.1 1370.208345 276.2 1370.208345 264.65C1370.208345 226.5 1370.208345 189.05 1370.208345 150.55C1370.208345 150.20000000000002 1367.291655 115.9 1367.0 115.9C1356.051825 115.9 1344.698175 115.9 1333.75 115.9ZM1416.583345 114.15C1398.5 114.15 1385.083345 125.0 1373.708345 147.75H1366.125V185.55C1384.70167 143.055900071335 1397.041655 130.95000000000002 1413.666655 130.95000000000002C1418.916655 130.95000000000002 1423.0 131.65 1427.083345 133.05C1427.083345 146.70000000000002 1427.083345 156.85000000000002 1427.083345 169.1V173.3C1430.875 173.3 1434.666655 173.3 1438.458345 173.3C1440.5 173.3 1441.666655 171.9 1441.666655 169.45000000000002V125.70000000000002C1441.666655 124.65 1441.375 123.25 1440.5 122.20000000000002C1437.291655 118.35000000000002 1427.375 114.15 1416.583345 114.15Z" fill="#1a1a1a"/><path d="M1539.375 174.7V232.45C1539.375 320.3 1573.208345 360.9 1659.541655 360.9C1701.833345 360.9 1730.708345 351.8 1741.208345 343.05C1742.958345 341.65 1742.958345 340.6 1742.958345 338.15C1742.958345 334.65 1742.958345 329.75 1742.958345 326.25H1739.458345C1719.041655 337.45 1696.291655 344.45 1658.375 344.45C1619.291655 344.45 1594.5 335.35 1577.875 317.85C1561.833345 300.7 1553.958345 280.4 1553.958345 232.10000000000002V175.05C1553.958345 112.75 1589.25 61.30000000000001 1656.041655 61.30000000000001C1690.458345 61.30000000000001 1712.041655 69.70000000000002 1729.25 88.95000000000002C1746.166655 109.25 1752.291655 132.0 1752.291655 167.70000000000002C1752.291655 196.75 1752.291655 246.8 1752.291655 275.85C1752.291655 277.95 1753.75 279.7 1755.5 279.7H1766.875C1766.875 277.25 1766.875 274.45 1766.875 272.0C1766.875 244.35 1766.875 195.7 1766.875 168.05C1766.875 94.20000000000002 1734.5 44.50000000000003 1656.041655 44.50000000000003C1582.25 44.50000000000003 1539.375 102.95000000000002 1539.375 174.7ZM1758.125 219.5C1736.541655 257.3 1716.125 266.4 1687.25 266.4C1657.208345 266.4 1643.208345 252.05 1643.208345 221.95V212.5C1643.208345 197.8 1645.833345 187.3 1653.125 178.55C1660.416655 169.8 1670.916655 165.60000000000002 1695.708345 165.60000000000002C1721.083345 165.60000000000002 1735.958345 165.60000000000002 1760.166655 165.60000000000002V149.15H1755.791655C1733.625 149.15 1715.541655 149.15 1693.375 149.15C1647.875 149.15 1628.625 172.25 1628.625 212.15V222.3C1628.625 263.95 1650.208345 283.2 1686.083345 283.2C1713.5 283.2 1732.166655 276.55 1749.375 254.85H1758.125Z" fill="#1a1a1a"/><path d="M1663.333345 349.7C1663.333345 353.9 1663.333345 358.1 1663.333345 362.3C1663.333345 364.75 1664.5 366.15 1666.541655 366.15C1667.95835 366.15 1679.69644 366.15 1686.375 366.15C1714.375 366.15 1724.583345 351.45 1724.583345 321.7C1724.583345 263.6 1724.583345 162.45000000000002 1724.583345 103.30000000000001C1724.583345 83.70000000000002 1727.5 70.05000000000001 1734.208345 61.650000000000006C1740.21662 54.09672582578503 1749.321975 50.45000000000002 1761.916655 50.45000000000002C1770.185405 50.45000000000002 1778.953815 52.61188989978501 1786.416655 55.00000000000003C1786.416655 64.45000000000002 1786.416655 73.20000000000002 1786.416655 82.65V86.85000000000002C1790.208345 86.85000000000002 1793.416655 86.85000000000002 1797.208345 86.85000000000002C1799.25 86.85000000000002 1800.416655 85.45000000000002 1800.416655 83.0V46.95000000000002C1800.416655 45.55000000000001 1800.125 44.85000000000002 1799.541655 44.150000000000006C1796.502395 40.50286584251501 1779.354005 34.0 1763.083345 34.0C1730.833785 34.0 1710.0 53.60000000000002 1710.0 105.4C1710.0 175.75 1710.0 249.95 1710.0 320.3C1710.0 331.85 1708.833345 338.85 1705.041655 343.4C1701.25 347.95 1694.833345 349.7 1685.5 349.7C1679.1454 349.7 1673.187945 349.7 1666.833345 349.7ZM1686.666655 169.8C1686.666655 174.35000000000002 1686.666655 177.5 1686.666655 182.05C1686.666655 184.5 1687.833345 185.9 1689.875 185.9H1774.166655C1774.166655 181.35000000000002 1774.166655 178.2 1774.166655 173.65C1774.166655 171.20000000000002 1773.0 169.8 1770.958345 169.8ZM1800.416655 115.9C1800.416655 120.10000000000002 1800.416655 124.30000000000001 1800.416655 128.5C1800.416655 130.95000000000002 1801.58331 132.35000000000002 1803.625 132.35000000000002C1815.0 132.35000000000002 1820.541655 132.35000000000002 1831.916655 132.35000000000002H1835.416655C1835.416655 173.65 1835.416655 217.75 1835.416655 257.65C1835.416655 286.0 1844.166655 300.0 1868.95831 300.0C1874.791655 300.0 1879.45831 300.0 1881.791655 300.0C1883.83331 300.0 1885.0 298.6 1885.0 296.15C1885.0 291.95 1885.0 287.75 1885.0 283.55H1881.5C1875.375 283.55 1873.625 283.55 1868.375 283.55C1861.666655 283.55 1857.58331 282.5 1854.375 278.65C1850.875 274.45 1850.0 268.15 1850.0 258.0C1850.0 216.0 1850.0 165.25 1850.0 119.75C1850.0 117.30000000000001 1848.83331 115.9 1846.791655 115.9C1829.291655 115.9 1817.916655 115.9 1800.416655 115.9ZM1824.50831 49.400000000000006C1824.50831 59.45186000000001 1832.65645 67.60000000000002 1842.70831 67.60000000000002C1852.76017 67.60000000000002 1860.90831 59.45186000000001 1860.90831 49.400000000000006C1860.90831 39.34814 1852.76017 31.200000000000045 1842.70831 31.200000000000045C1832.65645 31.200000000000045 1824.50831 39.34814 1824.50831 49.400000000000006Z" fill="#1a1a1a"/><line x1="20" y1="382.5" x2="1870.0" y2="382.5" stroke="#eee" stroke-width="0.5"/><text x="20" y="553.75" font-size="11" font-family="sans-serif" font-weight="bold" fill="#555">Casual</text><path d="M159.791655 622.0C138.208345 622.0 129.75 617.8 116.333345 608.35H114.583345C114.583345 609.75 114.583345 610.8 114.583345 612.2C114.583345 618.85 115.16665499999999 624.45 117.208345 627.25C122.75 634.95 133.833345 639.5 159.208345 639.5C202.375 639.5 221.041655 603.45 221.041655 563.9C221.041655 500.9 221.041655 448.05 221.041655 395.55C221.041655 390.3 217.25 387.5 209.375 387.5C179.625 387.5 150.75 387.5 121.875 387.5C121.875 389.25 121.875 390.3 121.875 391.70000000000005C121.875 399.75 124.79165499999999 405.0 128.583345 405.0C158.333345 405.0 185.75 405.0 215.208345 405.0L203.541655 400.1L210.541655 408.5L206.458345 394.5C206.458345 447.0 206.458345 499.5 206.458345 554.8C206.458345 583.15 200.625 601.0 190.416655 613.95C181.375 620.25 172.625 622.0 159.791655 622.0Z" fill="#1a1a1a"/><path d="M385.25 380.5C344.125 380.5 301.25 435.45000000000005 301.25 479.20000000000005V482.70000000000005C301.25 506.5 314.958345 520.85 354.041655 538.35L379.125 549.55C402.166655 559.7 412.375 570.2 415.0 584.55V585.6C410.041655 607.3 391.666655 619.2 362.5 619.2C332.75 619.2 313.791655 608.35 300.958345 587.0H299.208345C298.041655 590.85 297.458345 594.7 297.458345 599.95C297.458345 605.55 298.625 609.4 302.416655 613.95C314.375 628.3 335.666655 636.7 362.5 636.7C401.291655 636.7 427.833345 616.05 427.833345 583.85V582.1C427.833345 560.75 412.666655 545.35 382.333345 532.05L357.541655 521.2C321.083345 505.45 315.833345 494.25 315.833345 482.0V479.55C315.833345 443.15 353.166655 398.0 385.25 398.0C392.541655 398.0 401.291655 399.05 406.833345 405.70000000000005L400.125 395.9C406.833345 407.8 406.25 410.6 406.25 459.6C406.25 469.4 409.75 475.0 416.75 475.0C418.5 475.0 419.666655 474.65 420.833345 473.95000000000005C420.833345 457.15 420.833345 440.70000000000005 420.833345 423.9C420.833345 412.70000000000005 419.083345 400.1 412.083345 391.70000000000005C406.541655 385.05 398.958345 380.5 385.25 380.5Z" fill="#1a1a1a"/><path d="M489.666655 632.5H598.75C598.75 630.4 598.75 628.3 598.75 626.55C598.75 619.2 596.125 615.0 592.041655 615.0H493.75C493.75 545.0 493.75 475.0 493.75 405.0C493.75 396.25 493.166655 384.0 482.666655 384.0C480.333345 384.0 478.875 384.35 477.125 385.05C478.875 397.3 479.166655 404.3 479.166655 421.1C479.166655 486.20000000000005 479.166655 553.4 479.166655 613.95C479.166655 624.1 483.25 632.5 489.666655 632.5Z" fill="#1a1a1a"/><path d="M782.5 632.5C782.5 630.75 782.5 628.65 782.5 626.9C782.5 618.85 781.041655 615.0 775.791655 615.0H712.208345C696.75 615.0 681.291655 615.7 664.375 616.4L663.791655 613.95C680.125 597.85 694.708345 581.4 707.25 565.3C762.083345 494.25 782.5 425.65 782.5 405.0V402.9C782.5 392.05 778.125 387.5 773.458345 387.5H646.0C645.708345 388.55 645.416655 390.3 645.416655 392.4C645.416655 399.05 646.583345 405.0 651.833345 405.0H712.5C730.583345 405.0 746.916655 405.0 767.333345 403.95000000000005L768.5 405.70000000000005C765.0 424.6 759.166655 443.85 751.0 462.4C728.25 517.0 688.583345 569.85 642.5 615.0V618.5C642.5 626.55 643.958345 632.5 649.208345 632.5Z" fill="#1a1a1a"/><path d="M886.916655 366.5C850.458345 366.5 835.0 391.0 835.0 448.4C835.0 505.45 835.0 562.15 835.0 619.2H849.291655L847.25 613.6C849.0 610.45 849.583345 606.6 849.583345 597.85C849.583345 548.85 849.583345 499.5 849.583345 450.5C849.583345 424.25 851.916655 405.70000000000005 856.875 395.55C864.166655 387.85 874.083345 384.0 886.916655 384.0C897.125 384.0 910.541655 389.6 917.25 396.25H919.0C919.583345 394.5 919.875 391.35 919.875 388.9C919.875 382.95000000000005 919.0 380.15 916.958345 377.70000000000005C912.0 371.75 898.291655 366.5 886.916655 366.5ZM810.208345 448.4C810.208345 449.45000000000005 810.208345 450.85 810.208345 451.9C810.208345 459.6 811.666655 465.9 816.916655 465.9H909.958345C909.958345 464.85 909.958345 463.45000000000005 909.958345 462.4C909.958345 454.70000000000005 908.5 448.4 903.25 448.4ZM806.708345 615.0C806.125 616.4 805.833345 618.15 805.833345 620.6C805.833345 627.25 807.291655 632.5 814.291655 632.5H904.416655C904.708345 631.8 905.0 630.75 905.0 629.7C905.0 621.65 882.236735 615.0 855.416655 615.0Z" fill="#1a1a1a"/><path d="M984.625 448.75C984.041655 450.5 983.75 452.6 983.75 455.05C983.75 461.70000000000005 986.083345 466.25 990.458345 466.25C993.958345 466.25 1000.958345 462.4 1015.541655 459.95000000000005L1016.708345 461.0C1016.708345 500.9 1016.708345 540.45 1016.708345 580.35C1016.708345 617.8 1027.5 636.35 1045.875 636.35C1053.458345 636.35 1060.166655 633.55 1063.958345 629.0C1067.166655 625.15 1068.625 619.9 1068.625 613.95C1068.625 611.15 1068.333345 608.35 1068.041655 606.6H1066.291655C1060.75 613.95 1054.916655 618.85 1046.75 618.85C1042.083345 618.85 1038.583345 618.15 1035.083345 613.95C1031.875 605.2 1031.291655 595.4 1031.291655 576.15C1031.291655 535.2 1031.291655 494.25 1031.291655 453.3C1031.291655 447.0 1025.458345 445.25 1017.583345 445.25C1009.708345 445.25 999.5 446.3 984.625 448.75ZM1000.631655 384.0C1000.631655 397.067425 1011.22423 407.66 1024.291655 407.66C1037.35908 407.66 1047.951655 397.067425 1047.951655 384.0C1047.951655 370.932575 1037.35908 360.34000000000003 1024.291655 360.34000000000003C1011.22423 360.34000000000003 1000.631655 370.932575 1000.631655 384.0Z" fill="#1a1a1a"/><path d="M1160.208345 370.0C1159.625 371.75 1159.333345 375.25 1159.333345 378.4C1159.333345 384.35 1161.666655 387.5 1166.041655 387.5C1172.166655 387.5 1180.333345 384.35 1185.291655 381.20000000000005L1186.458345 382.6C1186.458345 449.45000000000005 1186.458345 516.65 1186.458345 583.85C1186.458345 618.85 1197.833345 636.0 1216.5 636.0C1223.5 636.0 1230.5 633.55 1234.291655 628.3C1237.208345 624.45 1238.958345 618.85 1238.958345 613.6C1238.958345 610.8 1238.666655 608.35 1238.083345 606.25H1236.333345C1230.791655 614.3 1224.666655 618.5 1216.5 618.5C1211.541655 618.5 1208.333345 617.8 1204.833345 613.6C1201.916655 605.55 1201.041655 596.8 1201.041655 579.3C1201.041655 511.4 1201.041655 442.45000000000005 1201.041655 374.55C1201.041655 368.25 1195.208345 366.5 1189.375 366.5C1180.916655 366.5 1168.083345 368.25 1160.208345 370.0Z" fill="#1a1a1a"/><path d="M1334.041655 448.4C1333.458345 450.15 1333.166655 452.25 1333.166655 454.70000000000005C1333.166655 461.70000000000005 1335.791655 465.9 1339.875 465.9C1342.48341 465.9 1348.916655 463.8 1354.458345 458.55L1355.625 459.95000000000005C1355.625 510.0 1355.625 560.05 1355.625 610.1C1355.625 630.75 1360.875 634.6 1367.875 634.6C1370.208345 634.6 1372.25 634.25 1374.0 633.2C1371.083345 621.3 1370.208345 613.6 1370.208345 596.1C1370.208345 567.05 1370.208345 543.95 1370.208345 511.05C1370.208345 449.8 1368.166655 444.9 1359.416655 444.9C1351.16978 444.9 1342.5 445.95000000000005 1334.041655 448.4ZM1418.625 443.5C1398.791655 443.5 1381.875 468.0 1372.25 506.15H1366.416655L1368.75 555.15C1381.183715 496.856108334655 1398.721305 461.70000000000005 1418.041655 461.70000000000005C1423.291655 461.70000000000005 1427.083345 462.4 1430.0 464.15C1431.166655 474.65 1430.0 491.1 1427.666655 503.0V505.1C1428.541655 505.8 1429.416655 505.8 1430.291655 505.8C1438.75 505.8 1444.0 493.9 1444.0 473.25V468.70000000000005C1444.0 463.8 1441.958345 457.85 1437.583345 452.6C1433.208345 447.35 1427.083345 443.5 1418.625 443.5Z" fill="#1a1a1a"/><path d="M1527.125 554.8V557.25C1527.125 651.4 1576.708345 695.5 1658.958345 695.5C1693.666655 695.5 1729.25 683.95 1736.541655 678.35C1739.75 675.9 1741.5 667.5 1741.5 661.55C1741.5 660.5 1741.5 659.8 1741.5 658.75H1739.75C1714.958345 672.75 1686.083345 678.0 1652.25 678.0C1621.916655 678.0 1595.666655 668.9 1574.083345 654.9C1555.708345 635.3 1541.708345 599.95 1541.708345 559.35V556.2C1541.708345 456.1 1602.083345 394.5 1672.083345 394.5C1692.5 394.5 1708.833345 398.35 1725.166655 406.05C1740.333345 424.6 1747.041655 441.75 1747.041655 467.65C1747.041655 503.35 1747.041655 568.8 1747.041655 604.5C1747.041655 616.4 1753.75 620.95 1763.083345 620.95H1764.833345C1761.916655 610.45 1761.625 606.95 1761.625 590.5C1761.625 557.6 1761.625 495.3 1761.625 474.3C1761.625 417.95000000000005 1739.166655 377.0 1673.833345 377.0C1589.541655 377.0 1527.125 452.25 1527.125 554.8ZM1752.291655 543.25C1736.541655 578.95 1710.291655 605.9 1677.333345 605.9C1648.458345 605.9 1633.583345 585.25 1633.583345 551.65V550.25C1633.583345 529.6 1636.791655 513.85 1645.541655 498.8C1655.166655 491.45000000000005 1667.416655 486.20000000000005 1687.541655 486.20000000000005C1712.333345 486.20000000000005 1732.75 497.05 1750.541655 513.85V491.45000000000005H1745.291655C1731.583345 481.3 1713.208345 468.70000000000005 1685.208345 468.70000000000005C1642.333345 468.70000000000005 1618.416655 502.65 1618.416655 552.0V553.75C1618.416655 594.7 1640.291655 623.4 1675.0 623.4C1707.083345 623.4 1731.291655 603.45 1745.291655 580.7H1752.291655Z" fill="#1a1a1a"/><path d="M1662.458345 670.65C1662.166655 672.4 1661.875 675.2 1661.875 678.0C1661.875 683.95 1663.333345 689.2 1666.541655 693.05C1671.5 699.0 1678.208345 700.05 1686.666655 700.05C1711.186115 700.05 1724.583345 682.2 1724.583345 644.05C1724.583345 581.75 1724.583345 513.15 1724.583345 450.5C1724.583345 420.75 1728.375 403.95000000000005 1736.25 394.5C1743.833345 385.4 1750.833345 383.3 1761.625 383.3C1771.833345 383.3 1778.541655 386.45000000000005 1783.5 391.35C1784.958345 405.0 1783.791655 420.4 1780.875 433.35V435.45000000000005C1782.333345 435.8 1783.5 436.15 1784.666655 436.15C1791.958345 436.15 1797.208345 422.85 1797.208345 406.05V401.5C1797.208345 393.500000000015 1794.4228 385.557374542815 1789.041655 379.1C1783.1479 372.77195383178 1775.625 367.55 1762.208345 367.55C1728.375 367.55 1710.0 391.0 1710.0 448.4C1710.0 511.75 1710.0 576.85 1710.0 639.85C1710.0 657.35 1709.125 666.1 1706.208345 674.15C1700.789295 680.03352265865 1694.18518 682.55 1685.791655 682.55C1677.041655 682.55 1670.916655 679.75 1664.208345 670.65ZM1686.666655 515.6C1686.666655 516.65 1686.666655 518.05 1686.666655 519.1C1686.666655 526.8 1688.708345 533.1 1696.291655 533.1H1785.833345C1785.833345 532.05 1785.833345 530.65 1785.833345 529.6C1785.833345 521.9 1784.375 515.6 1779.125 515.6ZM1801.291655 448.75C1800.70831 450.5 1800.416655 452.6 1800.416655 455.05C1800.416655 461.70000000000005 1802.75 466.25 1807.125 466.25C1810.625 466.25 1817.625 462.4 1832.20831 459.95000000000005L1833.375 461.0C1833.375 500.9 1833.375 540.45 1833.375 580.35C1833.375 617.8 1844.166655 636.35 1862.541655 636.35C1870.125 636.35 1876.83331 633.55 1880.625 629.0C1883.83331 625.15 1885.291655 619.9 1885.291655 613.95C1885.291655 611.15 1885.0 608.35 1884.70831 606.6H1882.95831C1877.416655 613.95 1871.58331 618.85 1863.416655 618.85C1858.75 618.85 1855.25 618.15 1851.75 613.95C1848.541655 605.2 1847.95831 595.4 1847.95831 576.15C1847.95831 535.2 1847.95831 494.25 1847.95831 453.3C1847.95831 447.0 1842.125 445.25 1834.25 445.25C1826.375 445.25 1816.166655 446.3 1801.291655 448.75ZM1817.29831 384.0C1817.29831 397.067425 1827.890885 407.66 1840.95831 407.66C1854.025735 407.66 1864.61831 397.067425 1864.61831 384.0C1864.61831 370.932575 1854.025735 360.34000000000003 1840.95831 360.34000000000003C1827.890885 360.34000000000003 1817.29831 370.932575 1817.29831 384.0Z" fill="#1a1a1a"/>
</svg>