<?xml version="1.0" encoding="UTF-8"?>
<svg xmlns="http://www.w3.org/2000/svg" width="1890.0" height="725.0"
     viewBox="0 0 1890.0 725.0">
<rect width="100%" height="100%" fill="white"/>
<text x="945.0" y="30" text-anchor="middle" font-size="14" font-family="sans-serif" font-weight="bold" fill="#333">Mono C Upright — Key glyphs + features</text><text x="187.5" y="48" text-anchor="middle" font-size="10" font-family="sans-serif" fill="#999">J</text><text x="362.5" y="48" text-anchor="middle" font-size="10" font-family="sans-serif" fill="#999">S</text><text x="537.5" y="48" text-anchor="middle" font-size="10" font-family="sans-serif" fill="#999">L</text><text x="712.5" y="48" text-anchor="middle" font-size="10" font-family="sans-serif" fill="#999">Z</text><text x="887.5" y="48" text-anchor="middle" font-size="10" font-family="sans-serif" fill="#999">f</text><text x="1062.5" y="48" text-anchor="middle" font-size="10" font-family="sans-serif" fill="#999">i</text><text x="1237.5" y="48" text-anchor="middle" font-size="10" font-family="sans-serif" fill="#999">l</text><text x="1412.5" y="48" text-anchor="middle" font-size="10" font-family="sans-serif" fill="#999">r</text><text x="1587.5" y="48" text-anchor="middle" font-size="10" font-family="sans-serif" fill="#999">@</text><text x="1762.5" y="48" text-anchor="middle" font-size="10" font-family="sans-serif" fill="#999">fi</text><text x="20" y="221.25" font-size="11" font-family="sans-serif" font-weight="bold" fill="#555">Linear</text><path d="M166.791655 231.75C147.541655 231.75 130.333345 227.55 114.583345 216.35000000000002H108.75C108.75 239.45 108.75 264.3 108.75 287.4C108.75 288.45 109.041655 289.5 109.625 290.2C114.0 295.45 141.125 307.0 173.208345 307.0C227.166655 307.0 263.041655 273.4 263.041655 205.5C263.041655 153.70000000000002 263.041655 110.65 263.041655 58.85000000000002C263.041655 56.400000000000006 261.875 55.00000000000003 259.833345 55.00000000000003C210.541655 55.00000000000003 160.958345 55.00000000000003 111.666655 55.00000000000003C111.666655 78.10000000000002 111.666655 101.55000000000001 111.666655 124.65C111.666655 126.75 112.833345 128.5 114.875 128.5C144.625 128.5 174.083345 128.5 203.833345 128.5L191.875 122.9L198.875 131.3L195.083345 118.0C195.083345 146.35000000000002 195.083345 175.05 195.083345 203.4C195.083345 212.5 193.041655 219.15 189.541655 223.35000000000002C184.583345 229.65 176.708345 231.75 166.791655 231.75Z" fill="#1a1a1a"/><path d="M370.083345 48.00000000000003C317.583345 48.00000000000003 285.208345 77.05000000000001 285.208345 120.45000000000002V136.20000000000002C285.208345 167.70000000000002 290.75 190.10000000000002 340.916655 202.7L367.458345 209.7C377.375 212.15 380.0 217.05 380.0 221.60000000000002V225.45C380.0 231.75 376.5 237.0 357.25 237.0C330.125 237.0 309.416655 230.0 289.583345 217.05H283.75C283.75 239.8 283.75 262.55 283.75 285.3C283.75 286.35 284.041655 287.4 284.625 288.1C291.333345 296.15 321.666655 307.0 355.5 307.0C408.0 307.0 441.25 283.55 441.25 235.25V217.05C441.25 177.85000000000002 430.75 161.05 388.75 150.9L359.0 143.55C348.208345 141.10000000000002 346.458345 136.9 346.458345 130.25V126.75C346.458345 115.55000000000001 358.416655 114.5 371.833345 114.5C378.25 114.5 382.916655 115.20000000000002 389.916655 118.35000000000002L381.458345 105.05000000000001C381.458345 112.15955 381.458345 121.15 381.458345 126.4C381.458345 128.5 382.041655 130.25 384.375 130.25C402.458345 130.25 420.25 130.25 438.333345 130.25C438.333345 109.95000000000002 438.333345 90.70000000000002 438.333345 70.4C438.333345 67.25000000000003 438.041655 66.20000000000002 436.583345 64.45000000000002C431.625 58.50000000000003 407.125 48.00000000000003 370.083345 48.00000000000003Z" fill="#1a1a1a"/><path d="M466.333345 300.0H616.25C616.25 269.55 616.25 260.45 616.25 231.75C616.25 227.9 615.083345 226.5 612.458345 226.5H528.75C528.75 171.9 528.75 113.45000000000002 528.75 58.85000000000002C528.75 56.400000000000006 527.583345 55.00000000000003 525.541655 55.00000000000003C503.666655 55.00000000000003 485.0 55.00000000000003 463.125 55.00000000000003C463.125 66.55000000000001 463.125 78.10000000000002 463.125 89.65C463.125 158.25 463.125 227.55 463.125 296.15C463.125 298.25 464.583345 300.0 466.333345 300.0Z" fill="#1a1a1a"/><path d="M791.25 300.0C791.25 276.9 791.25 253.45 791.25 230.35000000000002C791.25 227.9 790.083345 226.5 788.041655 226.5H762.375C741.958345 226.5 727.083345 226.5 702.291655 226.5V219.5C715.708345 216.35000000000002 723.875 212.85000000000002 750.416655 181.0C762.666655 166.3 775.5 150.55 789.791655 132.0V58.85000000000002C789.791655 56.400000000000006 788.625 55.00000000000003 786.583345 55.00000000000003H633.75C633.75 79.5 633.75 97.35000000000002 633.75 119.4C633.75 123.60000000000002 634.916655 125.0 638.125 125.0H695.291655C713.958345 125.0 705.208345 125.0 730.583345 125.0V132.0C713.083345 140.4 704.916655 148.8 690.333345 164.20000000000002C672.541655 183.10000000000002 653.291655 204.45 633.75 226.85000000000002V296.15C633.75 298.6 634.916655 300.0 636.958345 300.0Z" fill="#1a1a1a"/><path d="M923.666655 30.5C868.25 30.5 843.75 56.05000000000001 843.75 115.55000000000001C843.75 161.75 843.75 214.95 843.75 262.2H913.458345L910.833345 245.75C910.833345 237.35 910.833345 233.15 910.833345 220.9C910.833345 184.15 910.833345 147.75 910.833345 111.0C910.833345 106.45000000000002 911.708345 102.60000000000002 913.75 100.5C915.791655 97.70000000000002 919.875 97.0 925.416655 97.0C936.5 97.0 956.916655 100.85000000000002 966.25 104.0H972.083345C972.083345 83.35000000000002 972.083345 63.05000000000001 972.083345 42.400000000000034C972.083345 41.35000000000002 971.791655 40.30000000000001 971.208345 39.60000000000002C966.833345 34.69999999999999 943.5 30.5 923.666655 30.5ZM805.833345 127.10000000000002C805.833345 146.70000000000002 805.833345 168.05 805.833345 187.65C805.833345 190.10000000000002 807.0 191.5 809.041655 191.5H966.25C966.25 171.9 966.25 150.55 966.25 130.95000000000002C966.25 128.5 965.083345 127.10000000000002 963.041655 127.10000000000002ZM805.833345 226.5C805.833345 243.3 805.833345 279.35 805.833345 296.15C805.833345 298.6 807.0 300.0 809.041655 300.0H957.5C957.5 283.2 957.5 247.15 957.5 230.35000000000002C957.5 227.9 956.333345 226.5 954.291655 226.5Z" fill="#1a1a1a"/><path d="M982.291655 107.5C982.291655 130.60000000000002 982.291655 154.05 982.291655 177.15C982.291655 179.60000000000002 983.458345 181.0 985.5 181.0C997.75 181.0 1010.0 181.0 1022.25 181.0H1030.416655C1030.416655 197.8 1030.416655 214.60000000000002 1030.416655 231.4C1030.416655 277.6 1049.083345 300.0 1087.583345 300.0C1104.791655 300.0 1122.291655 300.0 1139.5 300.0C1141.541655 300.0 1142.708345 298.6 1142.708345 296.15C1142.708345 273.05 1142.708345 249.6 1142.708345 226.5H1137.166655C1124.625 226.5 1111.5 226.5 1098.958345 226.5C1098.083345 226.5 1097.208345 226.15 1096.916655 225.8C1096.333345 225.10000000000002 1096.041655 224.05 1096.041655 222.65C1096.041655 185.55 1096.041655 148.45000000000002 1096.041655 111.35000000000002C1096.041655 108.9 1094.875 107.5 1092.833345 107.5C1056.083345 107.5 1019.041655 107.5 982.291655 107.5ZM1015.4075 52.37500000000003C1015.4075 78.38416500000002 1036.490835 99.4675 1062.5 99.4675C1088.509165 99.4675 1109.5925 78.38416500000002 1109.5925 52.37500000000003C1109.5925 26.365835000000004 1088.509165 5.282500000000027 1062.5 5.282500000000027C1036.490835 5.282500000000027 1015.4075 26.365835000000004 1015.4075 52.37500000000003Z" fill="#1a1a1a"/><path d="M1155.833345 37.5C1155.833345 60.60000000000002 1155.833345 84.05000000000001 1155.833345 107.15C1155.833345 109.60000000000002 1157.0 111.0 1159.041655 111.0C1171.583345 111.0 1184.416655 111.0 1196.958345 111.0H1203.958345C1203.958345 151.25 1203.958345 191.15 1203.958345 231.4C1203.958345 277.25 1222.625 300.0 1261.125 300.0C1277.458345 300.0 1296.708345 300.0 1313.041655 300.0C1314.791655 300.0 1316.25 298.6 1316.25 296.15C1316.25 273.05 1316.25 249.6 1316.25 226.5H1310.416655C1298.75 226.5 1284.166655 226.5 1272.5 226.5C1271.625 226.5 1270.75 226.15 1270.458345 225.8C1269.875 225.10000000000002 1269.583345 224.05 1269.583345 222.65C1269.583345 162.45000000000002 1269.583345 101.55000000000001 1269.583345 41.35000000000002C1269.583345 38.900000000000034 1268.125 37.5 1266.375 37.5C1229.625 37.5 1192.583345 37.5 1155.833345 37.5Z" fill="#1a1a1a"/><path d="M1328.5 107.5C1328.5 129.55 1328.5 151.60000000000002 1328.5 173.65C1328.5 176.10000000000002 1329.666655 177.5 1331.708345 177.5C1336.375 177.5 1344.25 177.5 1348.916655 177.5H1354.75C1354.75 217.05 1354.75 293.7 1354.75 296.15C1354.75 298.6 1355.916655 300.0 1357.958345 300.0C1378.666655 300.0 1399.666655 300.0 1420.375 300.0C1420.375 288.8 1420.375 277.25 1420.375 266.05C1420.375 229.65 1420.375 193.60000000000002 1420.375 150.55C1420.375 150.20000000000002 1409.0 107.5 1408.708345 107.5C1390.333345 107.5 1354.166655 107.5 1328.5 107.5ZM1473.458345 104.0C1449.541655 104.0 1434.375 120.80000000000001 1425.625 149.15H1408.708345V193.25C1416.291655 186.25 1424.75 183.8 1432.625 183.8C1435.833345 183.8 1437.583345 184.15 1439.333345 184.85000000000002C1439.333345 189.4 1439.333345 193.25 1439.333345 198.5V202.0C1457.125 202.0 1474.041655 202.0 1491.541655 202.0C1493.583345 202.0 1494.75 200.60000000000002 1494.75 198.15V113.80000000000001C1494.75 112.05000000000001 1494.458345 111.35000000000002 1493.583345 110.30000000000001C1490.958345 107.15 1484.833345 104.0 1473.458345 104.0Z" fill="#1a1a1a"/><path d="M1511.083345 129.20000000000002V284.6C1511.083345 359.85 1541.708345 387.5 1593.625 387.5C1616.958345 387.5 1638.541655 381.2 1641.75 377.7C1642.333345 377.0 1642.625 375.95 1642.625 374.9C1642.625 366.85 1642.625 328.35 1642.625 320.3H1635.916655C1626.0 325.55 1611.125 329.05 1598.583345 329.05C1579.041655 329.05 1570.875 325.9 1563.875 319.25C1557.458345 312.95 1553.666655 304.55 1553.666655 286.35V155.10000000000002C1553.666655 120.45000000000002 1558.333345 98.75 1588.666655 98.75C1600.916655 98.75 1609.375 102.60000000000002 1614.333345 110.30000000000001C1618.416655 116.60000000000002 1620.166655 125.70000000000002 1620.166655 137.25C1620.166655 190.45 1620.166655 221.25 1620.166655 274.45C1620.166655 275.5 1648.458345 310.85 1651.083345 310.85H1663.916655C1663.916655 295.45 1663.916655 280.05 1663.916655 264.65C1663.916655 218.45 1663.916655 158.60000000000002 1663.916655 126.4C1663.916655 65.85000000000002 1639.416655 34.0 1587.208345 34.0C1535.0 34.0 1511.083345 76.0 1511.083345 129.20000000000002ZM1636.791655 242.6C1629.208345 255.55 1622.5 261.85 1613.166655 261.85C1608.791655 261.85 1607.041655 259.05 1607.041655 253.8V174.35000000000002C1607.041655 171.9 1607.625 169.8 1608.5 168.4C1609.666655 167.0 1611.125 166.3 1613.166655 166.3C1620.75 166.3 1629.208345 167.70000000000002 1636.5 171.55V127.45000000000002H1616.666655C1609.375 119.75 1601.208345 115.20000000000002 1589.833345 115.20000000000002C1574.375 115.20000000000002 1566.208345 129.20000000000002 1566.208345 150.9V281.1C1566.208345 303.15 1573.208345 314.35 1592.166655 314.35C1604.708345 314.35 1617.25 307.7 1627.166655 287.75H1636.791655Z" fill="#1a1a1a"/><path d="M1682.0 296.5C1682.0 319.6 1682.0 343.05 1682.0 366.15C1682.0 368.6 1683.458345 370.0 1685.208345 370.0C1698.041655 370.0 1714.083345 370.0 1726.916655 370.0C1765.416655 370.0 1784.083345 347.25 1784.083345 301.4C1784.083345 244.916292134835 1784.083345 167.828464419475 1784.083345 111.70000000000002C1784.083345 107.15 1784.958345 103.65 1787.0 101.20000000000002C1788.75 99.10000000000002 1791.666655 97.70000000000002 1795.75 97.70000000000002C1796.916655 97.70000000000002 1798.083345 97.70000000000002 1799.25 97.70000000000002C1799.25 100.73333333334503 1799.25 103.26111111111504 1799.25 106.80000000000001V111.0C1814.605305 111.0 1829.686385 111.0 1845.041655 111.0C1847.083345 111.0 1848.25 109.60000000000002 1848.25 107.15V42.400000000000034C1848.25 41.35000000000002 1847.958345 40.30000000000001 1847.375 39.60000000000002C1843.0 34.69999999999999 1819.958345 30.5 1800.125 30.5C1742.36016 30.5 1717.0 56.05000000000001 1717.0 115.55000000000001C1717.0 172.25 1717.0 235.60000000000002 1717.0 292.65C1717.0 294.05 1716.708345 295.1 1716.125 295.8C1715.833345 296.15 1714.958345 296.5 1714.083345 296.5C1705.916655 296.5 1696.0 296.5 1687.833345 296.5ZM1682.0 153.0C1682.0 172.60000000000002 1682.0 199.55 1682.0 219.15C1682.0 221.60000000000002 1683.166655 223.0 1685.208345 223.0H1842.416655C1842.416655 203.4 1842.416655 176.45 1842.416655 156.85000000000002C1842.416655 154.4 1841.25 153.0 1839.208345 153.0ZM1857.291655 107.5C1857.291655 130.60000000000002 1857.291655 154.05 1857.291655 177.15C1857.291655 179.60000000000002 1858.458345 181.0 1860.5 181.0C1872.75 181.0 1885.0 181.0 1897.25 181.0H1905.416655C1905.416655 197.8 1905.416655 214.60000000000002 1905.416655 231.4C1905.416655 277.6 1924.083345 300.0 1962.583345 300.0C1979.791655 300.0 1997.291655 300.0 2014.5 300.0C2016.541655 300.0 2017.708345 298.6 2017.708345 296.15C2017.708345 273.05 2017.708345 249.6 2017.708345 226.5H2012.166655C1999.625 226.5 1986.5 226.5 1973.958345 226.5C1973.083345 226.5 1972.208345 226.15 1971.916655 225.8C1971.333345 225.10000000000002 1971.041655 224.05 1971.041655 222.65C1971.041655 185.55 1971.041655 148.45000000000002 1971.041655 111.35000000000002C1971.041655 108.9 1969.875 107.5 1967.833345 107.5C1931.083345 107.5 1894.041655 107.5 1857.291655 107.5ZM1890.4075 52.37500000000003C1890.4075 78.38416500000002 1911.490835 99.4675 1937.5 99.4675C1963.509165 99.4675 1984.5925 78.38416500000002 1984.5925 52.37500000000003C1984.5925 26.365835000000004 1963.509165 5.282500000000027 1937.5 5.282500000000027C1911.490835 5.282500000000027 1890.4075 26.365835000000004 1890.4075 52.37500000000003Z" fill="#1a1a1a"/><line x1="20" y1="382.5" x2="1870.0" y2="382.5" stroke="#eee" stroke-width="0.5"/><text x="20" y="553.75" font-size="11" font-family="sans-serif" font-weight="bold" fill="#555">Casual</text><path d="M183.125 564.25C151.333345 564.25 139.083345 561.1 112.833345 545.0H111.083345C107.875 556.2 106.416655 567.4 106.416655 580.35C106.416655 601.0 109.333345 615.0 117.208345 624.1C126.83334500000001 635.65 144.041655 639.5 172.333345 639.5C226.291655 639.5 263.041655 604.5 263.041655 552.0C263.041655 505.45 263.041655 458.9 263.041655 426.70000000000005C263.041655 391.70000000000005 252.541655 384.0 205.0 384.0C182.25 384.0 136.458345 385.75 114.0 387.5C112.833345 395.55 111.958345 405.35 111.958345 414.8C111.958345 448.05 120.708345 461.0 143.458345 461.0C161.541655 461.0 173.791655 457.85 203.833345 444.9L190.416655 445.95000000000005L200.041655 455.05L195.083345 440.0C195.083345 476.05 195.083345 512.45 195.083345 548.5C195.083345 553.75 195.083345 559.0 194.791655 563.2C191.0 563.9 187.208345 564.25 183.125 564.25Z" fill="#1a1a1a"/><path d="M375.625 380.5C323.708345 380.5 285.791655 420.05 285.791655 469.05V473.6C285.791655 504.05 299.791655 522.6 340.625 537.3L368.041655 547.1C376.208345 550.25 382.041655 554.45 385.541655 560.4V561.1C380.875 563.9 372.708345 564.6 361.625 564.6C333.041655 564.6 309.708345 554.45 286.666655 539.4H284.916655C283.458345 546.4 282.583345 556.55 282.583345 568.1C282.583345 591.2 286.375 606.6 294.541655 617.1C306.5 632.85 328.083345 639.5 362.5 639.5C409.166655 639.5 442.416655 617.8 442.416655 571.25V568.1C442.416655 549.2 431.916655 519.8 388.75 504.75L360.75 494.95000000000005C348.5 490.75 346.75 487.25 346.75 480.6V479.55C346.75 468.70000000000005 357.833345 454.35 375.041655 454.35C380.0 454.35 383.208345 454.70000000000005 389.041655 455.75L381.75 444.20000000000005C380.291655 453.65 379.708345 463.8 379.708345 471.85C379.708345 487.25 389.625 497.05 416.166655 497.05C426.375 497.05 434.25 495.65 440.958345 493.20000000000005C440.958345 483.75 440.958345 466.95000000000005 440.958345 457.85C440.958345 434.75 432.791655 415.5 419.666655 399.75C408.583345 386.45000000000005 395.458345 380.5 375.625 380.5Z" fill="#1a1a1a"/><path d="M495.208345 632.5H611.291655C612.166655 626.9 612.458345 620.6 612.458345 613.6C612.458345 587.0 605.75 555.5 590.0 555.5H525.833345C525.833345 511.75 525.833345 468.35 525.833345 424.6C525.833345 390.65 518.541655 384.0 485.0 384.0C474.791655 384.0 465.458345 385.05 456.708345 387.5C459.041655 401.15 460.208345 416.9 460.208345 436.5C460.208345 481.3 460.208345 526.45 460.208345 578.25C460.208345 613.6 473.041655 632.5 495.208345 632.5Z" fill="#1a1a1a"/><path d="M792.708345 632.5C793.875 624.45 794.75 611.85 794.75 601.35C794.75 570.2 786.0 554.8 768.5 554.8H767.333345C753.625 554.8 741.666655 555.85 718.041655 562.15V560.05C734.958345 548.15 751.583345 533.1 765.0 517.35C782.208345 497.05 794.166655 476.05 794.166655 461.0V457.85C794.166655 416.55 782.5 387.5 765.875 387.5H635.791655C634.333345 396.6 633.458345 405.35 633.458345 413.4C633.458345 439.3 642.5 458.55 665.25 458.55H695.291655C712.208345 458.55 717.458345 458.55 728.541655 458.55V460.65C721.833345 478.15 713.958345 492.85 703.75 506.15C686.833345 528.55 663.5 546.75 630.25 567.05V570.2C630.25 613.25 636.958345 632.5 652.125 632.5Z" fill="#1a1a1a"/><path d="M921.625 363.0C869.708345 363.0 843.75 403.25 843.75 433.70000000000005C843.75 485.15 843.75 536.6 843.75 588.05H912.583345L900.916655 556.9C905.291655 548.85 907.916655 539.75 907.916655 529.95C907.916655 509.3 907.916655 484.8 907.916655 459.95000000000005C904.416655 451.55 902.375 442.8 901.791655 434.4C907.041655 433.35 912.0 433.0 916.666655 433.0C939.125 433.0 949.916655 434.05 968.0 440.35H969.75C971.5 429.5 971.791655 422.5 971.791655 410.95000000000005C971.791655 392.4 969.75 380.85 963.625 373.5C958.083345 366.85 947.0 363.0 921.625 363.0ZM806.125 459.25C806.125 461.35 806.125 463.45000000000005 806.125 473.95000000000005C806.125 517.35 816.041655 524.0 857.458345 524.0H964.791655C966.25 517.0 966.833345 507.9 966.833345 498.45000000000005C966.833345 464.5 961.875 459.25 945.541655 459.25ZM807.875 559.0C806.416655 568.45 805.541655 577.2 805.541655 586.65C805.541655 618.85 811.375 632.5 833.833345 632.5H955.458345C956.916655 625.85 958.375 617.1 958.375 606.6C958.375 573.35 942.333345 559.0 907.916655 559.0Z" fill="#1a1a1a"/><path d="M985.5 450.15C983.458345 459.95000000000005 982.291655 472.55 982.291655 485.5C982.291655 517.7 987.541655 531.0 999.5 531.0C1008.833345 531.0 1015.833345 525.75 1029.25 506.5L1031.875 508.25C1031.875 530.3 1031.875 552.35 1031.875 574.4C1031.875 612.2 1056.083345 636.35 1092.833345 636.35C1110.041655 636.35 1122.291655 631.8 1130.166655 622.35C1137.75 612.9 1141.25 598.9 1141.25 579.65C1141.25 567.4 1140.666655 559.0 1138.916655 549.2H1137.166655C1128.416655 555.5 1116.75 559.35 1104.208345 559.35C1101.583345 559.35 1098.958345 559.35 1097.5 559.0C1097.5 554.8 1097.5 550.95 1097.5 546.75C1097.5 521.55 1097.5 496.0 1097.5 470.8C1097.5 448.75 1082.041655 436.15 1049.375 436.15C1030.708345 436.15 1007.375 438.95000000000005 985.5 450.15ZM1016.574155 385.925C1016.574155 411.934165 1037.65749 433.0175 1063.666655 433.0175C1089.67582 433.0175 1110.759155 411.934165 1110.759155 385.925C1110.759155 359.915835 1089.67582 338.83250000000004 1063.666655 338.83250000000004C1037.65749 338.83250000000004 1016.574155 359.915835 1016.574155 385.925Z" fill="#1a1a1a"/><path d="M1156.125 380.5C1154.083345 390.3 1152.916655 402.9 1152.916655 415.85C1152.916655 449.8 1158.458345 462.75 1173.041655 462.75C1184.708345 462.75 1191.125 454.70000000000005 1200.75 434.4L1202.5 434.75C1202.5 479.55 1202.5 529.95 1202.5 574.4C1202.5 612.2 1225.541655 636.35 1263.458345 636.35C1280.958345 636.35 1292.916655 632.15 1300.791655 622.35C1308.375 612.9 1311.875 597.85 1311.875 576.15C1311.875 567.4 1311.291655 559.0 1309.541655 549.2H1307.791655C1299.041655 555.5 1287.375 559.35 1274.833345 559.35C1272.208345 559.35 1269.583345 559.35 1268.125 559.0C1268.125 554.8 1268.125 550.95 1268.125 546.75C1268.125 498.1 1268.125 449.8 1268.125 401.15C1268.125 380.15 1254.416655 366.5 1220.0 366.5C1200.75 366.5 1178.0 369.3 1156.125 380.5Z" fill="#1a1a1a"/><path d="M1330.541655 450.15C1328.791655 458.20000000000005 1327.333345 468.0 1327.333345 478.5C1327.333345 513.5 1332.0 531.35 1341.625 531.35C1346.875 531.35 1352.125 526.45 1358.25 515.95L1360.0 517.0C1360.0 543.95 1360.0 576.85 1360.0 603.8C1360.0 625.15 1371.666655 636.0 1398.791655 636.0C1409.291655 636.0 1418.916655 635.3 1428.541655 634.25C1426.208345 619.55 1425.041655 603.45 1425.041655 583.5C1425.041655 553.4 1425.041655 523.65 1425.041655 493.55C1425.041655 469.05 1400.541655 436.5 1372.541655 436.5C1357.375 436.5 1341.333345 441.75 1330.541655 450.15ZM1468.5 433.0C1448.083345 433.0 1434.083345 454.70000000000005 1427.083345 493.20000000000005H1416.0L1421.25 552.7C1425.625 533.1 1430.583345 522.95 1440.5 520.5C1441.666655 520.15 1443.416655 519.8 1444.291655 519.8C1444.583345 526.45 1444.0 533.1 1442.25 540.1V542.2C1448.083345 543.95 1455.666655 545.0 1460.333345 545.0C1486.0 545.0 1497.083345 518.75 1497.083345 492.5V487.95000000000005C1497.083345 465.55 1493.583345 449.45000000000005 1486.875 441.05C1482.5 435.45000000000005 1476.666655 433.0 1468.5 433.0Z" fill="#1a1a1a"/><path d="M1512.25 553.4V559.35C1512.25 668.55 1542.875 702.5 1593.625 702.5C1614.625 702.5 1625.416655 699.0 1630.958345 692.35C1637.375 685.0 1639.416655 670.3 1639.416655 659.8C1639.416655 654.2 1639.125 648.25 1638.25 643.35H1636.5C1624.25 651.75 1611.416655 656.65 1595.666655 656.65C1582.833345 656.65 1572.625 652.45 1563.291655 645.45C1551.916655 623.4 1550.75 599.25 1550.75 557.95V554.1C1550.75 486.9 1567.666655 412.35 1604.416655 412.35C1605.875 412.35 1607.333345 412.35 1608.791655 412.70000000000005C1610.25 418.3 1610.833345 424.95000000000005 1610.833345 431.95000000000005C1610.833345 479.9 1610.833345 527.5 1610.833345 575.45C1610.833345 601.0 1630.083345 628.3 1658.958345 628.3H1665.083345C1663.916655 613.6 1663.333345 596.8 1663.333345 589.1C1663.333345 543.25 1663.333345 497.75 1663.333345 451.9C1663.333345 394.85 1639.416655 366.5 1599.166655 366.5C1546.083345 366.5 1512.25 448.05 1512.25 553.4ZM1644.375 542.9C1635.333345 558.65 1625.125 572.65 1616.958345 572.65C1614.041655 572.65 1613.458345 562.85 1613.458345 548.15V545.0C1613.458345 521.55 1613.75 505.1 1614.916655 492.5C1616.083345 492.5 1616.375 492.5 1617.541655 492.5C1620.458345 492.5 1624.833345 493.9 1630.375 498.8L1633.0 447.0H1628.916655C1625.125 442.1 1622.208345 439.3 1610.833345 439.3C1591.583345 439.3 1571.75 474.65 1571.75 555.15V559.0C1571.75 606.6 1583.708345 630.05 1604.125 630.05C1622.208345 630.05 1630.958345 621.65 1641.166655 601.35H1645.25Z" fill="#1a1a1a"/><path d="M1677.333345 618.85C1675.583345 628.65 1675.0 637.05 1675.0 645.8C1675.0 665.75 1678.791655 679.4 1686.083345 688.5C1693.958345 698.3 1705.916655 702.5 1723.416655 702.5C1761.333345 702.5 1784.375 674.85 1784.375 637.05C1784.375 597.15 1784.375 528.2 1784.375 495.3C1784.375 474.65 1782.77382 457.238130056455 1776.791655 436.5C1781.290695 435.22968601044 1785.736115 434.4 1790.208345 434.4C1794.291655 434.4 1798.083345 434.75 1801.583345 435.45000000000005C1802.458345 443.15 1801.291655 449.1 1799.25 456.8V458.9C1803.333345 460.3 1806.833345 460.65 1811.208345 460.65C1832.791655 460.65 1847.375 443.85 1847.375 416.55V412.0C1847.375 399.05 1842.125 385.4 1836.583345 378.75C1829.0 369.3 1817.625 363.0 1794.583345 363.0C1752.875 363.0 1718.75 391.35 1718.75 435.1C1718.75 490.4 1718.75 557.6 1718.75 612.9C1718.75 618.5 1718.75 622.7 1718.75 628.3C1717.291655 628.65 1714.666655 629.0 1712.041655 629.0C1699.5 629.0 1687.833345 625.15 1679.083345 618.85ZM1682.875 490.05C1681.708345 496.35 1681.125 503.0 1681.125 510.7C1681.125 546.75 1693.375 560.05 1732.458345 560.05H1839.791655C1841.25 553.05 1841.833345 543.95 1841.833345 534.5C1841.833345 500.55 1833.375 490.05 1805.958345 490.05ZM1860.5 450.15C1858.458345 459.95000000000005 1857.291655 472.55 1857.291655 485.5C1857.291655 517.7 1862.541655 531.0 1874.5 531.0C1883.833345 531.0 1890.833345 525.75 1904.25 506.5L1906.875 508.25C1906.875 530.3 1906.875 552.35 1906.875 574.4C1906.875 612.2 1931.083345 636.35 1967.833345 636.35C1985.041655 636.35 1997.291655 631.8 2005.166655 622.35C2012.75 612.9 2016.25 598.9 2016.25 579.65C2016.25 567.4 2015.666655 559.0 2013.916655 549.2H2012.166655C2003.416655 555.5 1991.75 559.35 1979.208345 559.35C1976.583345 559.35 1973.958345 559.35 1972.5 559.0C1972.5 554.8 1972.5 550.95 1972.5 546.75C1972.5 521.55 1972.5 496.0 1972.5 470.8C1972.5 448.75 1957.041655 436.15 1924.375 436.15C1905.708345 436.15 1882.375 438.95000000000005 1860.5 450.15ZM1891.574155 385.925C1891.574155 411.934165 1912.65749 433.0175 1938.666655 433.0175C1964.67582 433.0175 1985.759155 411.934165 1985.759155 385.925C1985.759155 359.915835 1964.67582 338.83250000000004 1938.666655 338.83250000000004C1912.65749 338.83250000000004 1891.574155 359.915835 1891.574155 385.925Z" fill="#1a1a1a"/>
</svg>