<?xml version="1.0" encoding="UTF-8"?>
<svg xmlns="http://www.w3.org/2000/svg" width="1890.0" height="1057.5"
     viewBox="0 0 1890.0 1057.5">
<rect width="100%" height="100%" fill="white"/>
<text x="945.0" y="30" text-anchor="middle" font-size="14" font-family="sans-serif" font-weight="bold" fill="#333">Mono C Upright — Key glyphs + features</text><text x="187.5" y="48" text-anchor="middle" font-size="10" font-family="sans-serif" fill="#999">J</text><text x="362.5" y="48" text-anchor="middle" font-size="10" font-family="sans-serif" fill="#999">S</text><text x="537.5" y="48" text-anchor="middle" font-size="10" font-family="sans-serif" fill="#999">L</text><text x="712.5" y="48" text-anchor="middle" font-size="10" font-family="sans-serif" fill="#999">Z</text><text x="887.5" y="48" text-anchor="middle" font-size="10" font-family="sans-serif" fill="#999">f</text><text x="1062.5" y="48" text-anchor="middle" font-size="10" font-family="sans-serif" fill="#999">i</text><text x="1237.5" y="48" text-anchor="middle" font-size="10" font-family="sans-serif" fill="#999">l</text><text x="1412.5" y="48" text-anchor="middle" font-size="10" font-family="sans-serif" fill="#999">r</text><text x="1587.5" y="48" text-anchor="middle" font-size="10" font-family="sans-serif" fill="#999">@</text><text x="1762.5" y="48" text-anchor="middle" font-size="10" font-family="sans-serif" fill="#999">fi</text><text x="20" y="221.25" font-size="11" font-family="sans-serif" font-weight="bold" fill="#555">Linear</text><path d="M166.791655 231.75C147.541655 231.75 130.333345 227.55 114.583345 216.35000000000002H108.75C108.75 239.45 108.75 264.3 108.75 287.4C108.75 288.45 109.041655 289.5 109.625 290.2C114.0 295.45 141.125 307.0 173.208345 307.0C227.166655 307.0 263.041655 273.4 263.041655 205.5C263.041655 153.70000000000002 263.041655 110.65 263.041655 58.85000000000002C263.041655 56.400000000000006 261.875 55.00000000000003 259.833345 55.00000000000003C210.541655 55.00000000000003 160.958345 55.00000000000003 111.666655 55.00000000000003C111.666655 78.10000000000002 111.666655 101.55000000000001 111.666655 124.65C111.666655 126.75 112.833345 128.5 114.875 128.5C144.625 128.5 174.083345 128.5 203.833345 128.5L191.875 122.9L198.875 131.3L195.083345 118.0C195.083345 146.35000000000002 195.083345 175.05 195.083345 203.4C195.083345 212.5 193.041655 219.15 189.541655 223.35000000000002C184.583345 229.65 176.708345 231.75 166.791655 231.75Z" fill="#1a1a1a"/><path d="M370.083345 48.00000000000003C317.583345 48.00000000000003 285.208345 77.05000000000001 285.208345 120.45000000000002V136.20000000000002C285.208345 167.70000000000002 290.75 190.10000000000002 340.916655 202.7L367.458345 209.7C377.375 212.15 380.0 217.05 380.0 221.60000000000002V225.45C380.0 231.75 376.5 237.0 357.25 237.0C330.125 237.0 309.416655 230.0 289.583345 217.05H283.75C283.75 239.8 283.75 262.55 283.75 285.3C283.75 286.35 284.041655 287.4 284.625 288.1C291.333345 296.15 321.666655 307.0 355.5 307.0C408.0 307.0 441.25 283.55 441.25 235.25V217.05C441.25 177.85000000000002 430.75 161.05 388.75 150.9L359.0 143.55C348.208345 141.10000000000002 346.458345 136.9 346.458345 130.25V126.75C346.458345 115.55000000000001 358.416655 114.5 371.833345 114.5C378.25 114.5 382.916655 115.20000000000002 389.916655 118.35000000000002L381.458345 105.05000000000001C381.458345 112.15955 381.458345 121.15 381.458345 126.4C381.458345 128.5 382.041655 130.25 384.375 130.25C402.458345 130.25 420.25 130.25 438.333345 130.25C438.333345 109.95000000000002 438.333345 90.70000000000002 438.333345 70.4C438.333345 67.25000000000003 438.041655 66.20000000000002 436.583345 64.45000000000002C431.625 58.50000000000003 407.125 48.00000000000003 370.083345 48.00000000000003Z" fill="#1a1a1a"/><path d="M466.333345 300.0H616.25C616.25 269.55 616.25 260.45 616.25 231.75C616.25 227.9 615.083345 226.5 612.458345 226.5H528.75C528.75 171.9 528.75 113.45000000000002 528.75 58.85000000000002C528.75 56.400000000000006 527.583345 55.00000000000003 525.541655 55.00000000000003C503.666655 55.00000000000003 485.0 55.00000000000003 463.125 55.00000000000003C463.125 66.55000000000001 463.125 78.10000000000002 463.125 89.65C463.125 158.25 463.125 227.55 463.125 296.15C463.125 298.25 464.583345 300.0 466.333345 300.0Z" fill="#1a1a1a"/><path d="M791.25 300.0C791.25 276.9 791.25 253.45 791.25 230.35000000000002C791.25 227.9 790.083345 226.5 788.041655 226.5H762.375C741.958345 226.5 727.083345 226.5 702.291655 226.5V219.5C715.708345 216.35000000000002 723.875 212.85000000000002 750.416655 181.0C762.666655 166.3 775.5 150.55 789.791655 132.0V58.85000000000002C789.791655 56.400000000000006 788.625 55.00000000000003 786.583345 55.00000000000003H633.75C633.75 79.5 633.75 97.35000000000002 633.75 119.4C633.75 123.60000000000002 634.916655 125.0 638.125 125.0H695.291655C713.958345 125.0 705.208345 125.0 730.583345 125.0V132.0C713.083345 140.4 704.916655 148.8 690.333345 164.20000000000002C672.541655 183.10000000000002 653.291655 204.45 633.75 226.85000000000002V296.15C633.75 298.6 634.916655 300.0 636.958345 300.0Z" fill="#1a1a1a"/><path d="M923.666655 30.5C868.25 30.5 843.75 56.05000000000001 843.75 115.55000000000001C843.75 161.75 843.75 214.95 843.75 262.2H913.458345L910.833345 245.75C910.833345 237.35 910.833345 233.15 910.833345 220.9C910.833345 184.15 910.833345 147.75 910.833345 111.0C910.833345 106.45000000000002 911.708345 102.60000000000002 913.75 100.5C915.791655 97.70000000000002 919.875 97.0 925.416655 97.0C936.5 97.0 956.916655 100.85000000000002 966.25 104.0H972.083345C972.083345 83.35000000000002 972.083345 63.05000000000001 972.083345 42.400000000000034C972.083345 41.35000000000002 971.791655 40.30000000000001 971.208345 39.60000000000002C966.833345 34.69999999999999 943.5 30.5 923.666655 30.5ZM805.833345 127.10000000000002C805.833345 146.70000000000002 805.833345 168.05 805.833345 187.65C805.833345 190.10000000000002 807.0 191.5 809.041655 191.5H966.25C966.25 171.9 966.25 150.55 966.25 130.95000000000002C966.25 128.5 965.083345 127.10000000000002 963.041655 127.10000000000002ZM805.833345 226.5C805.833345 243.3 805.833345 279.35 805.833345 296.15C805.833345 298.6 807.0 300.0 809.041655 300.0H957.5C957.5 283.2 957.5 247.15 957.5 230.35000000000002C957.5 227.9 956.333345 226.5 954.291655 226.5Z" fill="#1a1a1a"/><path d="M982.291655 107.5C982.291655 130.60000000000002 982.291655 154.05 982.291655 177.15C982.291655 179.60000000000002 983.458345 181.0 985.5 181.0C997.75 181.0 1010.0 181.0 1022.25 181.0H1030.416655C1030.416655 197.8 1030.416655 214.60000000000002 1030.416655 231.4C1030.416655 277.6 1049.083345 300.0 1087.583345 300.0C1104.791655 300.0 1122.291655 300.0 1139.5 300.0C1141.541655 300.0 1142.708345 298.6 1142.708345 296.15C1142.708345 273.05 1142.708345 249.6 1142.708345 226.5H1137.166655C1124.625 226.5 1111.5 226.5 1098.958345 226.5C1098.083345 226.5 1097.208345 226.15 1096.916655 225.8C1096.333345 225.10000000000002 1096.041655 224.05 1096.041655 222.65C1096.041655 185.55 1096.041655 148.45000000000002 1096.041655 111.35000000000002C1096.041655 108.9 1094.875 107.5 1092.833345 107.5C1056.083345 107.5 1019.041655 107.5 982.291655 107.5ZM1015.4075 52.37500000000003C1015.4075 78.38416500000002 1036.490835 99.4675 1062.5 99.4675C1088.509165 99.4675 1109.5925 78.38416500000002 1109.5925 52.37500000000003C1109.5925 26.365835000000004 1088.509165 5.282500000000027 1062.5 5.282500000000027C1036.490835 5.282500000000027 1015.4075 26.365835000000004 1015.4075 52.37500000000003Z" fill="#1a1a1a"/><path d="M1155.833345 37.5C1155.833345 60.60000000000002 1155.833345 84.05000000000001 1155.833345 107.15C1155.833345 109.60000000000002 1157.0 111.0 1159.041655 111.0C1171.583345 111.0 1184.416655 111.0 1196.958345 111.0H1203.958345C1203.958345 151.25 1203.958345 191.15 1203.958345 231.4C1203.958345 277.25 1222.625 300.0 1261.125 300.0C1277.458345 300.0 1296.708345 300.0 1313.041655 300.0C1314.791655 300.0 1316.25 298.6 1316.25 296.15C1316.25 273.05 1316.25 249.6 1316.25 226.5H1310.416655C1298.75 226.5 1284.166655 226.5 1272.5 226.5C1271.625 226.5 1270.75 226.15 1270.458345 225.8C1269.875 225.10000000000002 1269.583345 224.05 1269.583345 222.65C1269.583345 162.45000000000002 1269.583345 101.55000000000001 1269.583345 41.35000000000002C1269.583345 38.900000000000034 1268.125 37.5 1266.375 37.5C1229.625 37.5 1192.583345 37.5 1155.833345 37.5Z" fill="#1a1a1a"/><path d="M1328.5 107.5C1328.5 129.55 1328.5 151.60000000000002 1328.5 173.65C1328.5 176.10000000000002 1329.666655 177.5 1331.708345 177.5C1336.375 177.5 1344.25 177.5 1348.916655 177.5H1354.75C1354.75 217.05 1354.75 293.7 1354.75 296.15C1354.75 298.6 1355.916655 300.0 1357.958345 300.0C1378.666655 300.0 1399.666655 300.0 1420.375 300.0C1420.375 288.8 1420.375 277.25 1420.375 266.05C1420.375 229.65 1420.375 193.60000000000002 1420.375 150.55C1420.375 150.20000000000002 1409.0 107.5 1408.708345 107.5C1390.333345 107.5 1354.166655 107.5 1328.5 107.5ZM1473.458345 104.0C1449.541655 104.0 1434.375 120.80000000000001 1425.625 149.15H1408.708345V193.25C1416.291655 186.25 1424.75 183.8 1432.625 183.8C1435.833345 183.8 1437.583345 184.15 1439.333345 184.85000000000002C1439.333345 189.4 1439.333345 193.25 1439.333345 198.5V202.0C1457.125 202.0 1474.041655 202.0 1491.541655 202.0C1493.583345 202.0 1494.75 200.60000000000002 1494.75 198.15V113.80000000000001C1494.75 112.05000000000001 1494.458345 111.35000000000002 1493.583345 110.30000000000001C1490.958345 107.15 1484.833345 104.0 1473.458345 104.0Z" fill="#1a1a1a"/><path d="M1511.083345 129.20000000000002V284.6C1511.083345 359.85 1541.708345 387.5 1593.625 387.5C1616.958345 387.5 1638.541655 381.2 1641.75 377.7C1642.333345 377.0 1642.625 375.95 1642.625 374.9C1642.625 366.85 1642.625 328.35 1642.625 320.3H1635.916655C1626.0 325.55 1611.125 329.05 1598.583345 329.05C1579.041655 329.05 1570.875 325.9 1563.875 319.25C1557.458345 312.95 1553.666655 304.55 1553.666655 286.35V155.10000000000002C1553.666655 120.45000000000002 1558.333345 98.75 1588.666655 98.75C1600.916655 98.75 1609.375 102.60000000000002 1614.333345 110.30000000000001C1618.416655 116.60000000000002 1620.166655 125.70000000000002 1620.166655 137.25C1620.166655 190.45 1620.166655 221.25 1620.166655 274.45C1620.166655 275.5 1648.458345 310.85 1651.083345 310.85H1663.916655C1663.916655 295.45 1663.916655 280.05 1663.916655 264.65C1663.916655 218.45 1663.916655 158.60000000000002 1663.916655 126.4C1663.916655 65.85000000000002 1639.416655 34.0 1587.208345 34.0C1535.0 34.0 1511.083345 76.0 1511.083345 129.20000000000002ZM1636.791655 242.6C1629.208345 255.55 1622.5 261.85 1613.166655 261.85C1608.791655 261.85 1607.041655 259.05 1607.041655 253.8V174.35000000000002C1607.041655 171.9 1607.625 169.8 1608.5 168.4C1609.666655 167.0 1611.125 166.3 1613.166655 166.3C1620.75 166.3 1629.208345 167.70000000000002 1636.5 171.55V127.45000000000002H1616.666655C1609.375 119.75 1601.208345 115.20000000000002 1589.833345 115.20000000000002C1574.375 115.20000000000002 1566.208345 129.20000000000002 1566.208345 150.9V281.1C1566.208345 303.15 1573.208345 314.35 1592.166655 314.35C1604.708345 314.35 1617.25 307.7 1627.166655 287.75H1636.791655Z" fill="#1a1a1a"/><path d="M1682.0 296.5C1682.0 319.6 1682.0 343.05 1682.0 366.15C1682.0 368.6 1683.458345 370.0 1685.208345 370.0C1698.041655 370.0 1714.083345 370.0 1726.916655 370.0C1765.416655 370.0 1784.083345 347.25 1784.083345 301.4C1784.083345 244.916292134835 1784.083345 167.828464419475 1784.083345 111.70000000000002C1784.083345 107.15 1784.958345 103.65 1787.0 101.20000000000002C1788.75 99.10000000000002 1791.666655 97.70000000000002 1795.75 97.70000000000002C1796.916655 97.70000000000002 1798.083345 97.70000000000002 1799.25 97.70000000000002C1799.25 100.73333333334503 1799.25 103.26111111111504 1799.25 106.80000000000001V111.0C1814.605305 111.0 1829.686385 111.0 1845.041655 111.0C1847.083345 111.0 1848.25 109.60000000000002 1848.25 107.15V42.400000000000034C1848.25 41.35000000000002 1847.958345 40.30000000000001 1847.375 39.60000000000002C1843.0 34.69999999999999 1819.958345 30.5 1800.125 30.5C1742.36016 30.5 1717.0 56.05000000000001 1717.0 115.55000000000001C1717.0 172.25 1717.0 235.60000000000002 1717.0 292.65C1717.0 294.05 1716.708345 295.1 1716.125 295.8C1715.833345 296.15 1714.958345 296.5 1714.083345 296.5C1705.916655 296.5 1696.0 296.5 1687.833345 296.5ZM1682.0 153.0C1682.0 172.60000000000002 1682.0 199.55 1682.0 219.15C1682.0 221.60000000000002 1683.166655 223.0 1685.208345 223.0H1842.416655C1842.416655 203.4 1842.416655 176.45 1842.416655 156.85000000000002C1842.416655 154.4 1841.25 153.0 1839.208345 153.0ZM1857.291655 107.5C1857.291655 130.60000000000002 1857.291655 154.05 1857.291655 177.15C1857.291655 179.60000000000002 1858.458345 181.0 1860.5 181.0C1872.75 181.0 1885.0 181.0 1897.25 181.0H1905.416655C1905.416655 197.8 1905.416655 214.60000000000002 1905.416655 231.4C1905.416655 277.6 1924.083345 300.0 1962.583345 300.0C1979.791655 300.0 1997.291655 300.0 2014.5 300.0C2016.541655 300.0 2017.708345 298.6 2017.708345 296.15C2017.708345 273.05 2017.708345 249.6 2017.708345 226.5H2012.166655C1999.625 226.5 1986.5 226.5 1973.958345 226.5C1973.083345 226.5 1972.208345 226.15 1971.916655 225.8C1971.333345 225.10000000000002 1971.041655 224.05 1971.041655 222.65C1971.041655 185.55 1971.041655 148.45000000000002 1971.041655 111.35000000000002C1971.041655 108.9 1969.875 107.5 1967.833345 107.5C1931.083345 107.5 1894.041655 107.5 1857.291655 107.5ZM1890.4075 52.37500000000003C1890.4075 78.38416500000002 1911.490835 99.4675 1937.5 99.4675C1963.509165 99.4675 1984.5925 78.38416500000002 1984.5925 52.37500000000003C1984.5925 26.365835000000004 1963.509165 5.282500000000027 1937.5 5.282500000000027C1911.490835 5.282500000000027 1890.4075 26.365835000000004 1890.4075 52.37500000000003Z" fill="#1a1a1a"/><line x1="20" y1="382.5" x2="1870.0" y2="382.5" stroke="#eee" stroke-width="0.5"/><text x="20" y="553.75" font-size="11" font-family="sans-serif" font-weight="bold" fill="#555">SemiCasual</text><path d="M174.958345 564.25C149.4375 564.25 134.708345 560.575 113.708345 546.925H109.916655C108.3125 564.075 107.583345 582.1 107.583345 600.125C107.583345 610.975 109.1875 618.5 113.416655 623.4C120.41669 631.8 142.583345 639.5 172.770845 639.5C226.729155 639.5 263.041655 605.2 263.041655 545.0C263.041655 493.025 263.041655 439.475 263.041655 387.5C263.041655 384.70000000000005 256.24581 383.3 239.25625 383.3C232.460405 383.3 225.664595 383.3 218.86874999999998 383.3C201.87919 383.3 195.083345 384.70000000000005 195.083345 387.5C195.083345 387.5 195.083345 387.5 195.083345 387.5C195.083345 387.5 195.083345 387.5 195.083345 387.5C195.083345 438.55100000000004 195.083345 491.149 195.083345 542.2C195.083345 549.375 194.0625 555.325 192.166655 559.525C187.791655 563.025 181.958345 564.25 174.958345 564.25Z" fill="#1a1a1a"/><path d="M372.854155 380.5C320.645845 380.5 285.5 414.8 285.5 461.0V471.15C285.5 502.125 295.27081 522.6 340.770845 536.25L367.75 544.65C376.791655 547.45 381.020845 552.0 382.770845 557.25V559.525C380.4375 564.075 374.604155 567.05 359.4375 567.05C331.583345 567.05 309.5625 558.475 288.125 544.475H284.333345C283.604155 559.35 283.166655 575.8 283.166655 592.95C283.166655 605.025 285.208345 613.25 289.583345 618.85C298.916655 630.75 324.875 639.5 359.0 639.5C408.583345 639.5 441.833345 616.925 441.833345 569.5V558.825C441.833345 529.775 431.333345 506.675 388.75 494.07500000000005L359.875 485.5C348.354155 482.175 346.604155 478.32500000000005 346.604155 471.675V469.4C346.604155 458.375 358.125 450.675 373.4375 450.675C379.125 450.675 383.0625 451.20000000000005 389.479155 453.3L381.604155 440.875C380.875 449.15477500000003 380.583345 458.725 380.583345 465.375C380.583345 474.125 385.833345 479.9 400.270845 479.9C414.416655 479.9 427.25 479.20000000000005 439.645845 477.975C439.645845 463.1 439.645845 445.07500000000005 439.645845 430.375C439.645845 417.25 435.416655 407.1 428.125 398.35C420.104155 388.725 401.291655 380.5 372.854155 380.5Z" fill="#1a1a1a"/><path d="M480.770845 632.5C480.770845 632.5 613.7708275 632.5 613.7708275 632.5C614.2083275 614.475 614.3541725 606.775 614.3541725 588.925C614.3541725 573.7 610.4166725 557.25 601.2291725 557.25C601.2291725 557.25 527.2916725 557.25 527.2916725 557.25C527.2916725 508.075 527.2916725 457.15 527.2916725 407.975C527.2916725 389.775 523.0625 385.75 505.2708275 385.75C489.229155 385.75 475.2291725 386.275 459.9166725 387.5C461.0833275 400.1 461.6666725 413.75 461.6666725 429.32500000000005C461.6666725 486.025 461.6666725 543.25 461.6666725 603.45C461.6666725 622.175 468.8125 632.5 480.770845 632.5Z" fill="#1a1a1a"/><path d="M791.9791725 632.5C792.5625 616.925 793.0 598.9 793.0 582.1C793.0 565.3 788.0416725 556.9 778.2708275 556.9C778.2708275 556.9 764.8541725 556.9 764.8541725 556.9C747.7916725 556.9 734.375 557.425 710.166655 560.575C710.166655 560.575 710.166655 556.025 710.166655 556.025C725.333345 548.5 737.7291725 539.225 757.7083275 515.425C772.4375 497.925 784.8333275 479.55 791.979155 462.75C791.979155 462.75 791.979155 424.6 791.979155 424.6C791.979155 402.725 785.5625 387.5 776.2291725 387.5C776.2291725 387.5 634.7708275 387.5 634.7708275 387.5C634.0416725 404.3 633.6041725 417.6 633.6041725 432.65C633.6041725 447.70000000000005 638.7083275 458.025 651.6875 458.025C651.6875 458.025 695.291655 458.025 695.291655 458.025C713.083345 458.025 711.333345 458.025 729.5625 458.025C729.5625 458.025 729.5625 462.57500000000005 729.5625 462.57500000000005C717.458345 475.525 709.4375 487.07500000000005 697.0416725 501.425C679.6875 522.075 658.3958275 541.85 632.0 563.2C632.0 563.2 632.0 599.425 632.0 599.425C632.0 622.175 635.9375 632.5 644.5416725 632.5C644.5416725 632.5 791.9791725 632.5 791.9791725 632.5Z" fill="#1a1a1a"/><path d="M922.6458275 363.0C884.2041725 363.0 844.4791725 395.9 844.4791725 440.875C844.4791725 489.70000000000005 844.4791725 542.025 844.4791725 591.375C844.4791725 591.375 913.020845 591.375 913.020845 591.375C913.020845 591.375 905.875 567.575 905.875 567.575C908.0625 559.35 909.375 552.7 909.375 541.675C909.375 512.975 909.375 482.525 909.375 451.725C907.625 445.25 907.0416725 438.95000000000005 907.7708275 433.70000000000005C911.416655 431.775 915.9375 431.25 921.041655 431.25C937.8125 431.25 953.416655 433.70000000000005 967.125 438.425C967.125 438.425 970.9166725 438.425 970.9166725 438.425C971.7916725 422.675 971.9375 409.025 971.9375 392.925C971.9375 383.125 970.7708275 376.82500000000005 967.4166725 372.8C962.458345 367.02500000000003 945.25 363.0 922.6458275 363.0ZM838.5875 459.425C838.5875 470.275 838.5875 482.0 838.5875 497.05C838.5875 519.975 841.9125 524.0 854.95 524.0C854.95 524.0 965.5208275 524.0 965.5208275 524.0C966.25 510.7 966.5416725 495.475 966.5416725 480.95000000000005C966.5416725 462.75 963.4791725 459.425 954.291655 459.425C954.291655 459.425 838.5875 459.425 838.5875 459.425ZM806.8541725 559.0C806.125 572.125 805.6875 594.525 805.6875 607.65C805.6875 624.975 809.1875 632.5 821.4375 632.5C821.4375 632.5 956.4791725 632.5 956.4791725 632.5C957.2083275 620.775 957.9375 598.375 957.9375 584.725C957.9375 566.875 949.333345 559.0 931.104155 559.0C931.104155 559.0 806.8541725 559.0 806.8541725 559.0Z" fill="#1a1a1a"/><path d="M983.8958275 445.07500000000005C982.875 461.525 982.291655 479.55 982.291655 497.57500000000005C982.291655 514.9 985.5 522.25 992.5 522.25C1003.2916725 522.25 1012.9166725 519.625 1025.75 510.0C1025.75 510.0 1031.1458275 510.875 1031.1458275 510.875C1031.1458275 530.3 1031.1458275 549.725 1031.1458275 569.15C1031.1458275 611.15 1052.583345 634.425 1090.208345 634.425C1107.416655 634.425 1122.291655 632.15 1134.8333275 627.425C1139.6458275 622.7 1141.9791725 615.0 1141.9791725 604.15C1141.9791725 586.475 1141.6875 570.55 1140.8125 554.1C1140.8125 554.1 1137.166655 554.1 1137.166655 554.1C1126.5208275 557.25 1114.125 559.175 1101.583345 559.175C1099.833345 559.175 1098.083345 559.0 1097.2083275 558.65C1096.9166725 556.2 1096.7708275 553.75 1096.7708275 550.95C1096.7708275 519.8 1096.7708275 488.475 1096.7708275 457.32500000000005C1096.7708275 445.07500000000005 1088.4583275 438.07500000000005 1071.1041725 438.07500000000005C1043.395845 438.07500000000005 1013.2083275 439.475 983.8958275 445.07500000000005ZM1015.9908275 385.4C1015.9908275 385.4 1015.9908275 385.4 1015.9908275 385.4C1015.9908275 411.40916500000003 1037.0741625 432.4925 1063.0833275 432.4925C1089.0924925 432.4925 1110.1758275 411.40916500000003 1110.1758275 385.4C1110.1758275 385.4 1110.1758275 385.4 1110.1758275 385.4C1110.1758275 359.390835 1089.0924925 338.30750000000006 1063.0833275 338.30750000000006C1037.0741625 338.30750000000006 1015.9908275 359.390835 1015.9908275 385.4Z" fill="#1a1a1a"/><path d="M1155.9791725 375.25C1154.958345 391.70000000000005 1154.375 409.725 1154.375 427.75C1154.375 445.95000000000005 1157.7291725 453.125 1166.041655 453.125C1178.145845 453.125 1187.7708275 449.1 1198.8541725 438.95000000000005C1198.8541725 438.95000000000005 1203.2291725 439.125 1203.2291725 439.125C1203.2291725 481.65 1203.2291725 526.8 1203.2291725 569.15C1203.2291725 610.975 1224.0833275 634.425 1262.2916725 634.425C1279.208345 634.425 1294.8125 632.325 1306.916655 627.425C1311.5833275 622.7 1314.0625 614.475 1314.0625 602.4C1314.0625 586.475 1313.7708275 570.55 1312.8958275 554.1C1312.8958275 554.1 1309.104155 554.1 1309.104155 554.1C1298.8958275 557.25 1285.7708275 559.175 1273.6666725 559.175C1271.9166725 559.175 1270.1666725 559.0 1269.2916725 558.65C1269.0 556.2 1268.8541725 553.75 1268.8541725 550.95C1268.8541725 496.525 1268.8541725 441.925 1268.8541725 387.5C1268.8541725 375.77500000000003 1261.2708275 368.25 1243.1875 368.25C1215.1875 368.25 1185.2916725 369.65000000000003 1155.9791725 375.25Z" fill="#1a1a1a"/><path d="M1329.5208275 445.07500000000005C1328.6458275 460.125 1327.9166725 476.05 1327.9166725 492.32500000000005C1327.9166725 511.05 1330.8333275 520.675 1336.6666725 520.675C1341.625 520.675 1348.1875 518.225 1353.5833275 512.975C1353.5833275 512.975 1357.375 513.5 1357.375 513.5C1357.375 546.75 1357.375 601.525 1357.375 616.225C1357.375 628.125 1363.791655 634.25 1378.375 634.25C1393.979155 634.25 1409.291655 633.9 1424.4583275 633.375C1423.2916725 620.425 1422.7083275 606.6 1422.7083275 591.025C1422.7083275 557.775 1422.7083275 524.875 1422.7083275 488.3C1422.7083275 475.875 1404.7708275 438.25 1390.625 438.25C1373.8541725 438.25 1347.75 440.875 1329.5208275 445.07500000000005ZM1470.9791725 434.75C1448.8125 434.75 1434.2291725 454.0 1426.3541725 487.425C1426.3541725 487.425 1412.3541725 487.425 1412.3541725 487.425C1412.3541725 487.425 1414.9791725 539.225 1414.9791725 539.225C1420.9583275 525.925 1427.6666725 519.625 1436.5625 518.4C1438.75 518.225 1440.5 518.225 1441.8125 518.575C1441.958345 524.175 1441.6666725 529.425 1440.7916725 535.55C1440.7916725 535.55 1440.7916725 538.35 1440.7916725 538.35C1452.6041725 539.225 1464.854155 539.75 1475.9375 539.75C1489.7916725 539.75 1495.9166725 525.925 1495.9166725 511.575C1495.9166725 511.575 1495.9166725 467.125 1495.9166725 467.125C1495.9166725 455.05 1494.020845 446.65 1490.2291725 441.925C1486.7291725 437.55 1480.75 434.75 1470.9791725 434.75Z" fill="#1a1a1a"/><path d="M1511.6666725 507.55C1511.6666725 507.55 1511.6666725 588.225 1511.6666725 588.225C1511.6666725 680.45 1542.2916725 711.25 1593.625 711.25C1615.7916725 711.25 1631.979155 706.35 1636.3541725 701.275C1639.8541725 697.25 1641.0208275 689.375 1641.0208275 683.6C1641.0208275 676.775 1640.875 654.55 1640.4375 648.075C1640.4375 648.075 1636.2083275 648.075 1636.2083275 648.075C1625.125 654.9 1611.2708275 659.1 1597.125 659.1C1580.9375 659.1 1571.75 655.425 1563.5833275 648.6C1554.6875 634.425 1552.2083275 618.15 1552.2083275 588.4C1552.2083275 588.4 1552.2083275 520.85 1552.2083275 520.85C1552.2083275 469.925 1563.0 421.8 1596.541655 421.8C1603.3958275 421.8 1608.3541725 423.725 1611.5625 427.75C1614.3333275 433.70000000000005 1615.5 441.57500000000005 1615.5 450.85C1615.5 501.425 1615.5 540.625 1615.5 591.2C1615.5 604.5 1639.270845 635.825 1655.020845 635.825C1655.020845 635.825 1664.5 635.825 1664.5 635.825C1663.916655 620.775 1663.625 604.675 1663.625 593.125C1663.625 547.1 1663.625 494.425 1663.625 455.4C1663.625 396.6 1639.416655 366.5 1593.1875 366.5C1540.5416725 366.5 1511.6666725 428.275 1511.6666725 507.55ZM1640.5833275 559.0C1632.270845 573.35 1623.8125 583.5 1615.0625 583.5C1611.416655 583.5 1610.25 577.2 1610.25 567.225C1610.25 567.225 1610.25 525.925 1610.25 525.925C1610.25 512.975 1610.6875 503.70000000000005 1611.7083275 496.70000000000005C1612.875 496.0 1613.75 495.65 1615.354155 495.65C1620.6041725 495.65 1627.020845 497.05 1633.4375 501.425C1633.4375 501.425 1634.75 453.475 1634.75 453.475C1634.75 453.475 1622.791655 453.475 1622.791655 453.475C1617.25 447.175 1611.708345 443.5 1600.333345 443.5C1582.9791725 443.5 1568.9791725 468.175 1568.9791725 519.275C1568.9791725 519.275 1568.9791725 586.3 1568.9791725 586.3C1568.9791725 621.125 1578.458345 638.45 1598.1458275 638.45C1613.458345 638.45 1624.1041725 630.925 1634.166655 610.8C1634.166655 610.8 1641.0208275 610.8 1641.0208275 610.8C1641.0208275 610.8 1640.5833275 559.0 1640.5833275 559.0Z" fill="#1a1a1a"/><path d="M1679.6666725 623.925C1678.7916725 640.375 1678.5 656.3 1678.5 672.225C1678.5 683.425 1681.125 690.95 1685.645845 695.5C1696.0 700.4 1710.0 702.5 1725.166655 702.5C1763.375 702.5 1784.2291725 677.3 1784.2291725 635.475C1784.2291725 587.2831460674175 1784.2291725 514.2642322097375 1784.2291725 469.75C1784.2291725 457.15 1783.8660825 446.69406502822756 1781.8958275 435.1C1785.0203475 433.41484300522 1788.701385 432.3 1792.9791725 432.3C1795.604155 432.3 1798.083345 432.475 1800.4166725 432.82500000000005C1800.8541725 438.1916666666725 1800.2708275 442.43055555555753 1799.25 448.05C1799.25 448.05 1799.25 451.20000000000005 1799.25 451.20000000000005C1808.969325 451.9 1818.259865 452.07500000000005 1828.125 452.07500000000005C1839.9375 452.07500000000005 1847.8125 442.975 1847.8125 428.1C1847.8125 428.1 1847.8125 393.45000000000005 1847.8125 393.45000000000005C1847.8125 386.45000000000005 1845.0416725 379.1 1841.9791725 375.425C1836.0 368.25 1818.7916725 363.0 1797.3541725 363.0C1747.61758 363.0 1717.875 389.95000000000005 1717.875 441.57500000000005C1717.875 497.57500000000005 1717.875 562.85 1717.875 619.025C1717.875 622.525 1717.7291725 625.15 1717.4375 628.3C1716.5625 628.65 1714.8125 629.0 1713.0625 629.0C1702.7083275 629.0 1691.9166725 627.075 1683.458345 623.925C1683.458345 623.925 1679.6666725 623.925 1679.6666725 623.925ZM1682.4375 487.775C1681.8541725 500.725 1681.5625 517.525 1681.5625 531.175C1681.5625 550.425 1688.2708275 557.775 1708.833345 557.775C1708.833345 557.775 1841.104155 557.775 1841.104155 557.775C1841.8333275 544.475 1842.125 526.45 1842.125 511.925C1842.125 493.725 1837.3125 487.775 1822.583345 487.775C1822.583345 487.775 1682.4375 487.775 1682.4375 487.775ZM1858.8958275 445.07500000000005C1857.875 461.525 1857.291655 479.55 1857.291655 497.57500000000005C1857.291655 514.9 1860.5 522.25 1867.5 522.25C1878.2916725 522.25 1887.9166725 519.625 1900.75 510.0C1900.75 510.0 1906.1458275 510.875 1906.1458275 510.875C1906.1458275 530.3 1906.1458275 549.725 1906.1458275 569.15C1906.1458275 611.15 1927.583345 634.425 1965.208345 634.425C1982.416655 634.425 1997.291655 632.15 2009.8333275 627.425C2014.6458275 622.7 2016.9791725 615.0 2016.9791725 604.15C2016.9791725 586.475 2016.6875 570.55 2015.8125 554.1C2015.8125 554.1 2012.166655 554.1 2012.166655 554.1C2001.5208275 557.25 1989.125 559.175 1976.583345 559.175C1974.833345 559.175 1973.083345 559.0 1972.2083275 558.65C1971.9166725 556.2 1971.7708275 553.75 1971.7708275 550.95C1971.7708275 519.8 1971.7708275 488.475 1971.7708275 457.32500000000005C1971.7708275 445.07500000000005 1963.4583275 438.07500000000005 1946.1041725 438.07500000000005C1918.395845 438.07500000000005 1888.2083275 439.475 1858.8958275 445.07500000000005ZM1890.9908275 385.4C1890.9908275 385.4 1890.9908275 385.4 1890.9908275 385.4C1890.9908275 411.40916500000003 1912.0741625 432.4925 1938.0833275 432.4925C1964.0924925 432.4925 1985.1758275 411.40916500000003 1985.1758275 385.4C1985.1758275 385.4 1985.1758275 385.4 1985.1758275 385.4C1985.1758275 359.390835 1964.0924925 338.30750000000006 1938.0833275 338.30750000000006C1912.0741625 338.30750000000006 1890.9908275 359.390835 1890.9908275 385.4Z" fill="#1a1a1a"/><line x1="20" y1="715.0" x2="1870.0" y2="715.0" stroke="#eee" stroke-width="0.5"/><text x="20" y="886.25" font-size="11" font-family="sans-serif" font-weight="bold" fill="#555">Casual</text><path d="M183.125 896.75C151.333345 896.75 139.083345 893.6 112.833345 877.5H111.083345C107.875 888.7 106.416655 899.9 106.416655 912.85C106.416655 933.5 109.333345 947.5 117.208345 956.6C126.83334500000001 968.15 144.041655 972.0 172.333345 972.0C226.291655 972.0 263.041655 937.0 263.041655 884.5C263.041655 837.95 263.041655 791.4 263.041655 759.2C263.041655 724.2 252.541655 716.5 205.0 716.5C182.25 716.5 136.458345 718.25 114.0 720.0C112.833345 728.05 111.958345 737.85 111.958345 747.3C111.958345 780.55 120.708345 793.5 143.458345 793.5C161.541655 793.5 173.791655 790.35 203.833345 777.4L190.416655 778.45L200.041655 787.55L195.083345 772.5C195.083345 808.55 195.083345 844.95 195.083345 881.0C195.083345 886.25 195.083345 891.5 194.791655 895.7C191.0 896.4 187.208345 896.75 183.125 896.75Z" fill="#1a1a1a"/><path d="M375.625 713.0C323.708345 713.0 285.791655 752.55 285.791655 801.55V806.1C285.791655 836.55 299.791655 855.1 340.625 869.8L368.041655 879.6C376.208345 882.75 382.041655 886.95 385.541655 892.9V893.6C380.875 896.4 372.708345 897.1 361.625 897.1C333.041655 897.1 309.708345 886.95 286.666655 871.9H284.916655C283.458345 878.9 282.583345 889.05 282.583345 900.6C282.583345 923.7 286.375 939.1 294.541655 949.6C306.5 965.35 328.083345 972.0 362.5 972.0C409.166655 972.0 442.416655 950.3 442.416655 903.75V900.6C442.416655 881.7 431.916655 852.3 388.75 837.25L360.75 827.45C348.5 823.25 346.75 819.75 346.75 813.1V812.05C346.75 801.2 357.833345 786.85 375.041655 786.85C380.0 786.85 383.208345 787.2 389.041655 788.25L381.75 776.7C380.291655 786.15 379.708345 796.3 379.708345 804.35C379.708345 819.75 389.625 829.55 416.166655 829.55C426.375 829.55 434.25 828.15 440.958345 825.7C440.958345 816.25 440.958345 799.45 440.958345 790.35C440.958345 767.25 432.791655 748.0 419.666655 732.25C408.583345 718.95 395.458345 713.0 375.625 713.0Z" fill="#1a1a1a"/><path d="M495.208345 965.0H611.291655C612.166655 959.4 612.458345 953.1 612.458345 946.1C612.458345 919.5 605.75 888.0 590.0 888.0H525.833345C525.833345 844.25 525.833345 800.85 525.833345 757.1C525.833345 723.15 518.541655 716.5 485.0 716.5C474.791655 716.5 465.458345 717.55 456.708345 720.0C459.041655 733.65 460.208345 749.4 460.208345 769.0C460.208345 813.8 460.208345 858.95 460.208345 910.75C460.208345 946.1 473.041655 965.0 495.208345 965.0Z" fill="#1a1a1a"/><path d="M792.708345 965.0C793.875 956.95 794.75 944.35 794.75 933.85C794.75 902.7 786.0 887.3 768.5 887.3H767.333345C753.625 887.3 741.666655 888.35 718.041655 894.65V892.55C734.958345 880.65 751.583345 865.6 765.0 849.85C782.208345 829.55 794.166655 808.55 794.166655 793.5V790.35C794.166655 749.05 782.5 720.0 765.875 720.0H635.791655C634.333345 729.1 633.458345 737.85 633.458345 745.9C633.458345 771.8 642.5 791.05 665.25 791.05H695.291655C712.208345 791.05 717.458345 791.05 728.541655 791.05V793.15C721.833345 810.65 713.958345 825.35 703.75 838.65C686.833345 861.05 663.5 879.25 630.25 899.55V902.7C630.25 945.75 636.958345 965.0 652.125 965.0Z" fill="#1a1a1a"/><path d="M921.625 695.5C869.708345 695.5 843.75 735.75 843.75 766.2C843.75 817.65 843.75 869.1 843.75 920.55H912.583345L900.916655 889.4C905.291655 881.35 907.916655 872.25 907.916655 862.45C907.916655 841.8 907.916655 817.3 907.916655 792.45C904.416655 784.05 902.375 775.3 901.791655 766.9C907.041655 765.85 912.0 765.5 916.666655 765.5C939.125 765.5 949.916655 766.55 968.0 772.85H969.75C971.5 762.0 971.791655 755.0 971.791655 743.45C971.791655 724.9 969.75 713.35 963.625 706.0C958.083345 699.35 947.0 695.5 921.625 695.5ZM806.125 791.75C806.125 793.85 806.125 795.95 806.125 806.45C806.125 849.85 816.041655 856.5 857.458345 856.5H964.791655C966.25 849.5 966.833345 840.4 966.833345 830.95C966.833345 797.0 961.875 791.75 945.541655 791.75ZM807.875 891.5C806.416655 900.95 805.541655 909.7 805.541655 919.15C805.541655 951.35 811.375 965.0 833.833345 965.0H955.458345C956.916655 958.35 958.375 949.6 958.375 939.1C958.375 905.85 942.333345 891.5 907.916655 891.5Z" fill="#1a1a1a"/><path d="M985.5 782.65C983.458345 792.45 982.291655 805.05 982.291655 818.0C982.291655 850.2 987.541655 863.5 999.5 863.5C1008.833345 863.5 1015.833345 858.25 1029.25 839.0L1031.875 840.75C1031.875 862.8 1031.875 884.85 1031.875 906.9C1031.875 944.7 1056.083345 968.85 1092.833345 968.85C1110.041655 968.85 1122.291655 964.3 1130.166655 954.85C1137.75 945.4 1141.25 931.4 1141.25 912.15C1141.25 899.9 1140.666655 891.5 1138.916655 881.7H1137.166655C1128.416655 888.0 1116.75 891.85 1104.208345 891.85C1101.583345 891.85 1098.958345 891.85 1097.5 891.5C1097.5 887.3 1097.5 883.45 1097.5 879.25C1097.5 854.05 1097.5 828.5 1097.5 803.3C1097.5 781.25 1082.041655 768.65 1049.375 768.65C1030.708345 768.65 1007.375 771.45 985.5 782.65ZM1016.574155 718.425C1016.574155 744.434165 1037.65749 765.5174999999999 1063.666655 765.5174999999999C1089.67582 765.5174999999999 1110.759155 744.434165 1110.759155 718.425C1110.759155 692.415835 1089.67582 671.3325 1063.666655 671.3325C1037.65749 671.3325 1016.574155 692.415835 1016.574155 718.425Z" fill="#1a1a1a"/><path d="M1156.125 713.0C1154.083345 722.8 1152.916655 735.4 1152.916655 748.35C1152.916655 782.3 1158.458345 795.25 1173.041655 795.25C1184.708345 795.25 1191.125 787.2 1200.75 766.9L1202.5 767.25C1202.5 812.05 1202.5 862.45 1202.5 906.9C1202.5 944.7 1225.541655 968.85 1263.458345 968.85C1280.958345 968.85 1292.916655 964.65 1300.791655 954.85C1308.375 945.4 1311.875 930.35 1311.875 908.65C1311.875 899.9 1311.291655 891.5 1309.541655 881.7H1307.791655C1299.041655 888.0 1287.375 891.85 1274.833345 891.85C1272.208345 891.85 1269.583345 891.85 1268.125 891.5C1268.125 887.3 1268.125 883.45 1268.125 879.25C1268.125 830.6 1268.125 782.3 1268.125 733.65C1268.125 712.65 1254.416655 699.0 1220.0 699.0C1200.75 699.0 1178.0 701.8 1156.125 713.0Z" fill="#1a1a1a"/><path d="M1330.541655 782.65C1328.791655 790.7 1327.333345 800.5 1327.333345 811.0C1327.333345 846.0 1332.0 863.85 1341.625 863.85C1346.875 863.85 1352.125 858.95 1358.25 848.45L1360.0 849.5C1360.0 876.45 1360.0 909.35 1360.0 936.3C1360.0 957.65 1371.666655 968.5 1398.791655 968.5C1409.291655 968.5 1418.916655 967.8 1428.541655 966.75C1426.208345 952.05 1425.041655 935.95 1425.041655 916.0C1425.041655 885.9 1425.041655 856.15 1425.041655 826.05C1425.041655 801.55 1400.541655 769.0 1372.541655 769.0C1357.375 769.0 1341.333345 774.25 1330.541655 782.65ZM1468.5 765.5C1448.083345 765.5 1434.083345 787.2 1427.083345 825.7H1416.0L1421.25 885.2C1425.625 865.6 1430.583345 855.45 1440.5 853.0C1441.666655 852.65 1443.416655 852.3 1444.291655 852.3C1444.583345 858.95 1444.0 865.6 1442.25 872.6V874.7C1448.083345 876.45 1455.666655 877.5 1460.333345 877.5C1486.0 877.5 1497.083345 851.25 1497.083345 825.0V820.45C1497.083345 798.05 1493.583345 781.95 1486.875 773.55C1482.5 767.95 1476.666655 765.5 1468.5 765.5Z" fill="#1a1a1a"/><path d="M1512.25 885.9V891.85C1512.25 1001.05 1542.875 1035.0 1593.625 1035.0C1614.625 1035.0 1625.416655 1031.5 1630.958345 1024.85C1637.375 1017.5 1639.416655 1002.8 1639.416655 992.3C1639.416655 986.7 1639.125 980.75 1638.25 975.85H1636.5C1624.25 984.25 1611.416655 989.15 1595.666655 989.15C1582.833345 989.15 1572.625 984.95 1563.291655 977.95C1551.916655 955.9 1550.75 931.75 1550.75 890.45V886.6C1550.75 819.4 1567.666655 744.85 1604.416655 744.85C1605.875 744.85 1607.333345 744.85 1608.791655 745.2C1610.25 750.8 1610.833345 757.45 1610.833345 764.45C1610.833345 812.4 1610.833345 860.0 1610.833345 907.95C1610.833345 933.5 1630.083345 960.8 1658.958345 960.8H1665.083345C1663.916655 946.1 1663.333345 929.3 1663.333345 921.6C1663.333345 875.75 1663.333345 830.25 1663.333345 784.4C1663.333345 727.35 1639.416655 699.0 1599.166655 699.0C1546.083345 699.0 1512.25 780.55 1512.25 885.9ZM1644.375 875.4C1635.333345 891.15 1625.125 905.15 1616.958345 905.15C1614.041655 905.15 1613.458345 895.35 1613.458345 880.65V877.5C1613.458345 854.05 1613.75 837.6 1614.916655 825.0C1616.083345 825.0 1616.375 825.0 1617.541655 825.0C1620.458345 825.0 1624.833345 826.4 1630.375 831.3L1633.0 779.5H1628.916655C1625.125 774.6 1622.208345 771.8 1610.833345 771.8C1591.583345 771.8 1571.75 807.15 1571.75 887.65V891.5C1571.75 939.1 1583.708345 962.55 1604.125 962.55C1622.208345 962.55 1630.958345 954.15 1641.166655 933.85H1645.25Z" fill="#1a1a1a"/><path d="M1677.333345 951.35C1675.583345 961.15 1675.0 969.55 1675.0 978.3C1675.0 998.25 1678.791655 1011.9 1686.083345 1021.0C1693.958345 1030.8 1705.916655 1035.0 1723.416655 1035.0C1761.333345 1035.0 1784.375 1007.35 1784.375 969.55C1784.375 929.65 1784.375 860.7 1784.375 827.8C1784.375 807.15 1782.77382 789.738130056455 1776.791655 769.0C1781.290695 767.72968601044 1785.736115 766.9 1790.208345 766.9C1794.291655 766.9 1798.083345 767.25 1801.583345 767.95C1802.458345 775.65 1801.291655 781.6 1799.25 789.3V791.4C1803.333345 792.8 1806.833345 793.15 1811.208345 793.15C1832.791655 793.15 1847.375 776.35 1847.375 749.05V744.5C1847.375 731.55 1842.125 717.9 1836.583345 711.25C1829.0 701.8 1817.625 695.5 1794.583345 695.5C1752.875 695.5 1718.75 723.85 1718.75 767.6C1718.75 822.9 1718.75 890.1 1718.75 945.4C1718.75 951.0 1718.75 955.2 1718.75 960.8C1717.291655 961.15 1714.666655 961.5 1712.041655 961.5C1699.5 961.5 1687.833345 957.65 1679.083345 951.35ZM1682.875 822.55C1681.708345 828.85 1681.125 835.5 1681.125 843.2C1681.125 879.25 1693.375 892.55 1732.458345 892.55H1839.791655C1841.25 885.55 1841.833345 876.45 1841.833345 867.0C1841.833345 833.05 1833.375 822.55 1805.958345 822.55ZM1860.5 782.65C1858.458345 792.45 1857.291655 805.05 1857.291655 818.0C1857.291655 850.2 1862.541655 863.5 1874.5 863.5C1883.833345 863.5 1890.833345 858.25 1904.25 839.0L1906.875 840.75C1906.875 862.8 1906.875 884.85 1906.875 906.9C1906.875 944.7 1931.083345 968.85 1967.833345 968.85C1985.041655 968.85 1997.291655 964.3 2005.166655 954.85C2012.75 945.4 2016.25 931.4 2016.25 912.15C2016.25 899.9 2015.666655 891.5 2013.916655 881.7H2012.166655C2003.416655 888.0 1991.75 891.85 1979.208345 891.85C1976.583345 891.85 1973.958345 891.85 1972.5 891.5C1972.5 887.3 1972.5 883.45 1972.5 879.25C1972.5 854.05 1972.5 828.5 1972.5 803.3C1972.5 781.25 1957.041655 768.65 1924.375 768.65C1905.708345 768.65 1882.375 771.45 1860.5 782.65ZM1891.574155 718.425C1891.574155 744.434165 1912.65749 765.5174999999999 1938.666655 765.5174999999999C1964.67582 765.5174999999999 1985.759155 744.434165 1985.759155 718.425C1985.759155 692.415835 1964.67582 671.3325 1938.666655 671.3325C1912.65749 671.3325 1891.574155 692.415835 1891.574155 718.425Z" fill="#1a1a1a"/>
</svg>