<?xml version="1.0" encoding="UTF-8"?>
<svg xmlns="http://www.w3.org/2000/svg" width="1890.0" height="725.0"
     viewBox="0 0 1890.0 725.0">
<rect width="100%" height="100%" fill="white"/>
<text x="945.0" y="30" text-anchor="middle" font-size="14" font-family="sans-serif" font-weight="bold" fill="#333">Sans A Slanted — Key glyphs + features</text><text x="187.5" y="48" text-anchor="middle" font-size="10" font-family="sans-serif" fill="#999">J</text><text x="362.5" y="48" text-anchor="middle" font-size="10" font-family="sans-serif" fill="#999">S</text><text x="537.5" y="48" text-anchor="middle" font-size="10" font-family="sans-serif" fill="#999">L</text><text x="712.5" y="48" text-anchor="middle" font-size="10" font-family="sans-serif" fill="#999">Z</text><text x="887.5" y="48" text-anchor="middle" font-size="10" font-family="sans-serif" fill="#999">f</text><text x="1062.5" y="48" text-anchor="middle" font-size="10" font-family="sans-serif" fill="#999">i</text><text x="1237.5" y="48" text-anchor="middle" font-size="10" font-family="sans-serif" fill="#999">l</text><text x="1412.5" y="48" text-anchor="middle" font-size="10" font-family="sans-serif" fill="#999">r</text><text x="1587.5" y="48" text-anchor="middle" font-size="10" font-family="sans-serif" fill="#999">@</text><text x="1762.5" y="48" text-anchor="middle" font-size="10" font-family="sans-serif" fill="#999">fi</text><text x="20" y="221.25" font-size="11" font-family="sans-serif" font-weight="bold" fill="#555">Linear</text><path d="M147.25 290.55C129.458345 290.55 118.66665499999999 286.0 107.0 274.8H103.5C102.625 278.65 102.041655 281.1 101.166655 284.95C100.583345 287.75 100.583345 288.8 101.458345 290.2C106.416655 297.9 122.45834500000001 307.0 145.791655 307.0C184.291655 307.0 210.25 280.75 221.041655 227.9C232.70834499999998 171.55 244.666655 115.20000000000002 256.333345 58.85000000000002C256.916655 56.400000000000006 256.333345 55.00000000000003 254.0 55.00000000000003C221.041655 55.00000000000003 190.708345 55.00000000000003 157.75 55.00000000000003C156.875 59.20000000000002 156.291655 62.70000000000002 155.416655 66.9C154.833345 68.65 155.416655 70.75000000000003 157.75 70.75000000000003C185.75 70.75000000000003 210.833345 70.75000000000003 247.58334499999998 70.75000000000003L237.08334499999998 67.25000000000003L241.75 72.50000000000003L240.875 60.60000000000002C229.20834499999998 116.60000000000002 217.25 172.95 205.583345 228.95C201.791655 247.85 195.375 261.15 186.916655 271.3C176.708345 283.9 163.583345 290.55 147.25 290.55Z" fill="#1a1a1a"/><path d="M395.75 49.400000000000006C357.541655 49.400000000000006 331.875 67.25000000000003 324.583345 102.95000000000002L321.958345 116.25C316.125 143.9 324.291655 165.60000000000002 357.541655 178.2L384.083345 188.35000000000002C408.583345 197.8 414.125 209.7 408.583345 236.65L406.25 248.2C400.125 278.65 377.666655 289.85 349.666655 289.85C320.791655 289.85 304.458345 282.85 290.166655 262.2H286.666655C285.791655 265.35 285.208345 268.15 283.75 273.75C283.458345 275.15 283.458345 276.9 284.333345 278.3C293.375 292.65 313.791655 306.3 347.625 305.6C388.75 304.9 412.375 288.1 419.375 254.15L422.875 237.35C429.0 207.95 422.291655 186.60000000000002 391.666655 174.35000000000002L364.541655 164.20000000000002C335.958345 153.70000000000002 330.416655 140.05 335.375 117.30000000000001L338.291655 103.65C343.833345 77.75 364.541655 65.15 394.583345 65.15C419.375 65.15 437.75 72.15 444.75 85.10000000000002L440.666655 67.60000000000002C437.458345 83.0 434.25 98.05000000000001 431.041655 113.45000000000002C430.458345 116.25 431.333345 117.30000000000001 433.375 117.30000000000001C436.875 117.30000000000001 440.958345 117.30000000000001 444.458345 117.30000000000001C447.375 102.95000000000002 450.291655 88.95000000000002 453.208345 74.60000000000002C453.5 73.20000000000002 453.208345 72.15 451.75 70.05000000000001C444.458345 58.85000000000002 424.041655 49.400000000000006 395.75 49.400000000000006Z" fill="#1a1a1a"/><path d="M460.5 300.0H570.75C571.041655 296.85 571.333345 294.05 571.625 290.2C571.916655 286.35 570.75 284.95 568.125 284.95H475.083345C490.833345 210.05 506.291655 133.75 522.041655 58.85000000000002C522.625 57.10000000000002 522.041655 55.00000000000003 519.708345 55.00000000000003C515.916655 55.00000000000003 512.125 55.00000000000003 508.333345 55.00000000000003C506.0 66.55000000000001 503.375 78.10000000000002 501.041655 89.65C486.458345 158.25 472.458345 227.55 458.166655 296.15C457.583345 298.6 458.458345 300.0 460.5 300.0Z" fill="#1a1a1a"/><path d="M763.25 300.0C764.125 295.8 764.708345 293.0 765.875 288.1C766.458345 286.0 765.583345 284.25 763.25 284.25H688.875C673.125 284.25 659.125 284.25 643.958345 284.25V280.05C661.166655 261.85 679.833345 240.15 695.583345 219.85000000000002C751.0 149.15 796.208345 92.10000000000002 809.916655 74.25000000000003L813.416655 58.85000000000002C814.0 56.400000000000006 812.833345 55.00000000000003 811.083345 55.00000000000003H680.125C679.541655 58.50000000000003 678.666655 62.35000000000002 677.791655 66.20000000000002C676.916655 69.70000000000002 677.5 70.75000000000003 679.833345 70.75000000000003H739.625C763.25 70.75000000000003 774.041655 70.75000000000003 793.875 70.75000000000003V73.9C778.708345 90.70000000000002 767.333345 104.70000000000002 743.416655 135.15C685.666655 208.65 655.333345 245.4 627.041655 281.45L624.125 296.15C623.833345 298.25 624.708345 300.0 626.458345 300.0Z" fill="#1a1a1a"/><path d="M928.916655 34.0C899.458345 34.0 881.958345 55.35000000000002 871.75 102.95000000000002C858.333345 167.35 844.625 232.10000000000002 831.208345 296.5H847.833345L846.958345 292.65C847.833345 288.1 848.708345 283.9 849.583345 279.35C861.833345 220.9 874.083345 161.75 886.333345 103.30000000000001C890.125 85.45000000000002 895.083345 72.15 901.791655 63.05000000000001C908.5 54.30000000000001 916.666655 49.75000000000003 926.291655 49.75000000000003C935.041655 49.75000000000003 944.958345 52.55000000000001 949.041655 56.05000000000001H952.541655C953.416655 51.85000000000002 954.0 49.400000000000006 954.875 45.20000000000002C955.166655 43.80000000000001 955.166655 42.75 954.291655 41.69999999999999C951.666655 37.85000000000002 938.541655 34.0 928.916655 34.0ZM834.125 115.9C832.958345 120.10000000000002 832.375 123.25 831.5 127.45000000000002C830.916655 130.25 832.375 131.3 834.125 131.3H921.333345C922.208345 127.10000000000002 922.791655 123.95000000000002 923.666655 119.75C924.25 116.95000000000002 923.083345 115.9 921.333345 115.9ZM798.833345 284.25C797.958345 288.45 797.083345 291.95 796.208345 295.8C795.625 298.6 796.791655 300.0 799.125 300.0H883.416655C884.291655 295.8 885.166655 292.3 886.041655 288.1C886.625 286.0 885.458345 284.25 883.708345 284.25Z" fill="#1a1a1a"/><path d="M1003.0 115.9C1002.125 119.75 1001.25 123.95000000000002 1000.375 127.80000000000001C999.791655 130.25 1000.958345 131.65 1002.708345 131.65C1013.791655 131.65 1019.625 131.65 1030.708345 131.65H1034.791655C1025.75 173.65 1017.291655 214.95 1008.25 259.4C1003.583345 281.8 1010.0 300.0 1034.5 300.0C1040.041655 300.0 1044.416655 300.0 1045.875 300.0C1047.333345 300.0 1049.375 299.65 1049.958345 296.15C1050.833345 291.6 1051.416655 288.45 1052.291655 284.25H1048.791655C1045.0 284.25 1039.75 284.25 1035.666655 284.25C1029.541655 284.25 1025.75 283.2 1023.416655 280.4C1020.208345 276.55 1020.208345 269.9 1022.833345 258.35C1032.75 210.75 1042.083345 165.60000000000002 1051.708345 119.75C1052.291655 116.95000000000002 1051.125 115.9 1049.375 115.9C1031.583345 115.9 1020.791655 115.9 1003.0 115.9ZM1039.633345 49.400000000000006C1039.633345 59.45186000000001 1047.781485 67.60000000000002 1057.833345 67.60000000000002C1067.885205 67.60000000000002 1076.033345 59.45186000000001 1076.033345 49.400000000000006C1076.033345 39.34814 1067.885205 31.200000000000045 1057.833345 31.200000000000045C1047.781485 31.200000000000045 1039.633345 39.34814 1039.633345 49.400000000000006Z" fill="#1a1a1a"/><path d="M1202.5 37.5C1201.625 41.35000000000002 1200.75 45.55000000000001 1199.875 49.400000000000006C1199.291655 51.85000000000002 1200.458345 53.25000000000003 1202.208345 53.25000000000003C1207.75 53.25000000000003 1218.541655 53.25000000000003 1220.583345 53.25000000000003H1222.625C1208.041655 121.5 1194.333345 184.5 1179.75 256.95C1175.083345 279.7 1181.5 300.0 1207.458345 300.0C1210.083345 300.0 1216.208345 300.0 1217.958345 300.0C1220.291655 300.0 1221.458345 299.65 1222.041655 296.15C1222.916655 291.6 1223.5 288.45 1224.375 284.25H1220.875C1215.916655 284.25 1211.833345 284.25 1208.625 284.25C1202.791655 284.25 1197.833345 283.55 1194.916655 280.05C1191.125 275.5 1191.416655 269.55 1194.041655 257.3C1209.5 182.4 1224.375 113.45000000000002 1239.541655 41.35000000000002C1240.125 38.55000000000001 1238.958345 37.5 1237.208345 37.5C1233.416655 37.5 1208.041655 37.5 1202.5 37.5Z" fill="#1a1a1a"/><path d="M1353.0 115.9C1352.125 120.10000000000002 1351.25 123.95000000000002 1350.375 128.15C1350.083345 130.60000000000002 1350.958345 132.0 1353.0 132.0C1357.375 132.0 1362.333345 132.0 1367.0 132.0H1371.375C1360.0 186.60000000000002 1348.333345 241.55 1336.958345 296.15C1336.375 298.6 1337.25 300.0 1339.291655 300.0C1343.083345 300.0 1346.875 300.0 1350.666655 300.0C1353.291655 288.1 1355.625 276.2 1358.25 264.65C1366.125 226.5 1374.0 189.05 1381.875 150.55C1382.166655 150.20000000000002 1386.25 115.9 1385.958345 115.9C1375.10621 115.9 1363.852135 115.9 1353.0 115.9ZM1432.041655 114.15C1415.416655 114.15 1401.125 123.25 1385.958345 147.75H1378.666655L1369.041655 193.60000000000002C1400.541655 140.75 1413.083345 130.25 1429.708345 130.25C1434.958345 130.25 1438.75 130.95000000000002 1442.541655 132.35000000000002C1439.916655 146.0 1437.583345 156.85000000000002 1434.958345 169.1L1434.083345 173.3C1437.875 173.3 1441.666655 173.3 1445.458345 173.3C1447.5 173.3 1448.958345 171.9 1449.541655 169.45000000000002L1458.583345 125.70000000000002C1458.875 124.30000000000001 1458.875 122.9 1457.708345 121.5C1455.375 118.70000000000002 1446.625 114.15 1432.041655 114.15Z" fill="#1a1a1a"/><path d="M1542.875 150.20000000000002 1526.833345 231.05C1511.958345 306.65 1530.916655 360.55 1627.75 359.5C1663.625 359.15 1705.041655 352.5 1721.083345 346.2C1723.416655 345.15 1723.416655 343.75 1724.0 341.3C1724.583345 337.8 1726.041655 332.2 1726.625 328.7H1723.125C1690.75 339.55 1660.125 343.05 1633.0 343.05C1581.666655 343.05 1559.5 332.55 1546.958345 315.05C1534.416655 297.55 1533.25 271.65 1541.416655 230.7L1557.458345 150.55C1568.25 96.30000000000001 1600.625 61.30000000000001 1674.416655 61.30000000000001C1729.25 61.30000000000001 1756.666655 76.35000000000002 1766.291655 92.10000000000002C1775.916655 107.85000000000002 1776.791655 127.10000000000002 1770.375 156.85000000000002C1764.833345 182.4 1753.458345 239.45 1744.416655 282.5C1744.125 284.6 1745.0 286.35 1746.75 286.35H1757.833345C1758.416655 283.9 1759.0 281.1 1759.583345 278.65C1768.333345 237.0 1779.708345 181.35000000000002 1784.958345 157.20000000000002C1798.375 94.20000000000002 1776.208345 44.85000000000002 1679.083345 44.85000000000002C1591.875 44.85000000000002 1555.416655 86.5 1542.875 150.20000000000002ZM1763.666655 226.15C1733.916655 259.75 1700.375 273.05 1670.041655 273.05C1637.375 273.05 1635.041655 254.5 1639.125 232.8L1643.208345 210.4C1646.125 193.95 1651.083345 185.9 1659.25 178.55C1667.708345 170.85 1682.583345 165.95000000000002 1704.166655 165.95000000000002C1736.25 165.95000000000002 1755.208345 165.95000000000002 1775.333345 165.95000000000002L1778.833345 149.5H1774.166655C1755.791655 149.5 1738.0 149.5 1707.666655 149.5C1655.166655 149.5 1635.625 171.55 1628.916655 210.05L1624.833345 233.15C1619.0 266.05 1629.5 289.85 1667.125 289.85C1697.458345 289.85 1724.291655 280.05 1744.708345 261.5H1755.791655Z" fill="#1a1a1a"/><path d="M1648.166655 349.7C1647.291655 353.9 1646.416655 358.1 1645.541655 362.3C1644.958345 364.75 1645.833345 366.15 1647.875 366.15C1648.94446 366.15 1657.80555 366.15 1663.916655 366.15C1691.333345 366.15 1703.291655 352.15 1709.125 323.45C1724.0 251.0 1742.083345 165.95000000000002 1755.208345 103.30000000000001C1758.708345 86.15 1763.666655 73.20000000000002 1771.25 64.10000000000002C1778.48331 55.42003173320501 1787.209405 49.400000000000006 1799.541655 49.400000000000006C1807.61374 49.400000000000006 1811.9895099999999 50.21346359797499 1818.208345 52.900000000000006C1816.166655 62.70000000000002 1815.0 69.00000000000003 1811.791655 83.70000000000002L1811.208345 86.5C1815.0 86.5 1818.5 86.5 1822.291655 86.5C1823.75 86.5 1824.916655 85.45000000000002 1825.208345 83.70000000000002L1833.083345 46.60000000000002C1833.375 45.20000000000002 1833.375 44.50000000000003 1832.791655 43.80000000000001C1829.942865 40.38143600871001 1818.41124 34.0 1802.166655 34.0C1769.63769 34.0 1750.78039 54.20244477331502 1740.041655 105.4C1727.208345 167.0 1709.708345 249.95 1695.125 320.3C1692.791655 331.85 1689.875 338.85 1685.208345 343.4C1680.25 347.95 1673.541655 349.7 1664.208345 349.7C1659.892915 349.7 1655.982085 349.7 1651.666655 349.7ZM1697.458345 169.8C1696.583345 174.0 1695.708345 176.8 1695.125 181.0C1694.541655 183.10000000000002 1695.708345 184.85000000000002 1697.458345 184.85000000000002H1784.666655C1785.541655 180.65 1786.125 177.85000000000002 1787.0 173.65C1787.583345 171.20000000000002 1786.416655 169.8 1784.666655 169.8ZM1819.666655 115.9C1818.791655 119.75 1817.916655 123.95000000000002 1817.041655 127.80000000000001C1816.45831 130.25 1817.625 131.65 1819.375 131.65C1830.45831 131.65 1836.291655 131.65 1847.375 131.65H1851.45831C1842.416655 173.65 1833.95831 214.95 1824.916655 259.4C1820.25 281.8 1826.666655 300.0 1851.166655 300.0C1856.70831 300.0 1861.08331 300.0 1862.541655 300.0C1864.0 300.0 1866.041655 299.65 1866.625 296.15C1867.5 291.6 1868.08331 288.45 1868.95831 284.25H1865.45831C1861.666655 284.25 1856.416655 284.25 1852.33331 284.25C1846.20831 284.25 1842.416655 283.2 1840.08331 280.4C1836.875 276.55 1836.875 269.9 1839.5 258.35C1849.416655 210.75 1858.75 165.60000000000002 1868.375 119.75C1868.95831 116.95000000000002 1867.791655 115.9 1866.041655 115.9C1848.25 115.9 1837.45831 115.9 1819.666655 115.9ZM1856.3 49.400000000000006C1856.3 59.45186000000001 1864.44814 67.60000000000002 1874.5 67.60000000000002C1884.55186 67.60000000000002 1892.7 59.45186000000001 1892.7 49.400000000000006C1892.7 39.34814 1884.55186 31.200000000000045 1874.5 31.200000000000045C1864.44814 31.200000000000045 1856.3 39.34814 1856.3 49.400000000000006Z" fill="#1a1a1a"/><line x1="20" y1="382.5" x2="1870.0" y2="382.5" stroke="#eee" stroke-width="0.5"/><text x="20" y="553.75" font-size="11" font-family="sans-serif" font-weight="bold" fill="#555">Casual</text><path d="M144.333345 622.0C122.45834500000001 622.0 113.708345 616.4 102.041655 605.55H100.875C99.708345 607.3 98.833345 609.05 98.25 611.5C97.083345 616.75 97.958345 622.0 102.041655 626.2C110.5 634.95 123.625 639.5 141.708345 639.5C175.25 639.5 199.458345 623.05 211.416655 582.45C228.33334499999998 525.4 233.291655 455.4 251.95834499999998 394.85C253.70834499999998 388.9 250.791655 384.0 240.58334499999998 384.0C209.958345 384.0 191.875 384.70000000000005 154.25 387.5C153.375 389.25 152.791655 391.35 152.5 393.8C151.916655 399.75 153.666655 405.35 159.5 405.35C177.583345 405.35 190.708345 400.1 244.375 399.4L232.125 395.55L237.666655 406.05V393.1C216.958345 463.1 214.625 509.3 201.208345 563.9C195.375 587.35 189.833345 596.8 181.375 609.75C170.291655 618.15 159.5 622.0 144.333345 622.0Z" fill="#1a1a1a"/><path d="M415.583345 380.5C373.291655 380.5 324.875 423.55 315.25 469.75L314.083345 475.35C308.833345 501.25 319.333345 519.8 354.625 536.95L377.375 548.15C397.5 558.3 406.25 569.5 403.916655 585.25L403.625 586.65C396.625 607.3 375.041655 620.25 348.208345 620.25C315.833345 620.25 300.958345 611.15 290.166655 590.5H289.0C286.666655 593.65 285.5 596.45 284.625 601.0C283.75 606.25 284.625 611.15 288.125 615.7C297.166655 627.25 314.375 636.7 347.625 636.7C381.166655 636.7 409.166655 620.95 415.583345 589.45L416.166655 587.0C420.833345 565.65 410.041655 547.45 382.625 534.15L360.166655 523.3C328.083345 507.9 325.166655 492.15 327.791655 478.85L328.666655 474.3C336.25 435.1 382.041655 397.3 413.833345 397.3C424.041655 397.3 429.291655 399.05 438.041655 406.05L432.791655 399.05C437.75 419.35 427.833345 433.0 422.291655 457.5C419.666655 469.05 422.291655 477.8 429.583345 477.8C431.333345 477.8 432.5 477.45000000000005 433.666655 476.75C435.708345 457.85 440.375 448.75 445.625 427.05C448.833345 413.4 447.375 399.4 440.083345 390.65C434.833345 384.35 426.958345 380.5 415.583345 380.5Z" fill="#1a1a1a"/><path d="M477.125 632.5H572.791655C573.958345 630.4 574.541655 628.3 574.833345 626.55C576.0 619.2 573.666655 615.7 569.583345 615.7H475.958345C477.708345 551.3 508.625 484.1 519.125 421.1C523.791655 393.1 522.625 384.0 514.458345 384.0C512.125 384.0 510.666655 384.35 508.625 385.05C508.625 398.70000000000005 508.625 404.65 504.833345 425.3C493.75 484.1 470.708345 532.4 463.708345 591.2C460.5 617.45 463.416655 632.5 477.125 632.5Z" fill="#1a1a1a"/><path d="M765.0 632.5C765.583345 630.75 766.166655 628.65 766.458345 626.9C767.625 621.3 765.583345 615.7 757.708345 615.7H695.583345C680.125 615.7 665.833345 616.4 648.916655 617.1V614.65C668.458345 599.6 689.458345 581.4 706.958345 563.2C781.916655 484.8 809.333345 421.45000000000005 813.125 403.95000000000005L813.416655 402.55C814.875 395.20000000000005 807.291655 387.5 795.916655 387.5H680.125C679.541655 388.55 678.958345 390.3 678.375 392.4C676.916655 399.05 676.916655 404.3 682.166655 404.3H740.5C758.583345 404.3 774.916655 404.65 795.625 403.6L796.5 405.35C788.916655 424.25 778.416655 445.25 766.458345 463.8C732.333345 518.4 682.458345 569.85 627.041655 615.0L626.166655 618.5C624.416655 625.5 626.75 632.5 636.375 632.5Z" fill="#1a1a1a"/><path d="M929.791655 366.5C902.083345 366.5 881.666655 387.15 873.791655 423.9C854.833345 512.45 857.166655 536.6 831.208345 619.9H847.541655L845.5 613.6C848.125 610.8 850.458345 605.55 852.208345 598.55C867.958345 540.1 869.125 511.05 882.833345 450.5C890.125 418.65 895.375 402.9 900.333345 394.85C908.5 387.85 917.541655 384.35 927.75 384.35C937.375 384.35 944.666655 386.45000000000005 950.5 391.0H952.25C953.125 389.25 953.708345 387.15 954.0 385.4C955.166655 378.4 954.875 375.95 952.25 372.8C949.333345 369.3 939.708345 366.5 929.791655 366.5ZM832.375 448.4C832.083345 449.45000000000005 831.791655 450.85 831.5 452.25C829.75 459.95000000000005 831.791655 465.20000000000005 836.166655 465.20000000000005H922.791655C923.083345 463.8 923.375 462.4 923.666655 461.0C925.125 453.65 923.666655 448.4 918.416655 448.4ZM796.791655 615.7C795.916655 617.1 795.333345 618.85 794.75 621.3C793.291655 627.25 795.333345 632.5 800.875 632.5H885.166655C885.458345 631.8 885.75 630.4 885.75 629.7C887.181745 622.14036154335 872.041655 615.7 854.25 615.7Z" fill="#1a1a1a"/><path d="M1004.75 448.75C1003.583345 450.85 1003.0 452.25 1002.416655 455.05C1001.25 461.35 1003.0 466.25 1007.375 466.25C1012.597525 466.25 1021.829265 460.669362069895 1033.625 458.9L1034.791655 460.3C1028.083345 503.35 1015.25 533.45 1007.958345 583.5C1003.0 619.2 1012.041655 638.1 1030.416655 638.1C1039.166655 638.1 1045.37828 634.84607131703 1049.666655 629.7C1052.33579 626.49706970104 1054.075115 622.384562611965 1054.916655 618.85C1055.791655 615.7 1056.083345 611.5 1055.791655 606.6H1054.041655C1047.041655 617.1 1040.393895 622.35 1031.583345 622.35C1027.073385 622.35 1023.416655 620.95 1020.791655 617.1C1019.19289 609.425890489275 1019.655975 599.69219810635 1022.541655 579.3C1027.791655 542.55 1044.708345 498.8 1048.791655 460.3C1049.666655 451.9 1043.541655 444.9 1036.833345 444.9C1027.94639 444.9 1017.583345 446.3 1004.75 448.75ZM1040.216655 384.0C1040.216655 394.05186000000003 1048.364795 402.20000000000005 1058.416655 402.20000000000005C1068.468515 402.20000000000005 1076.616655 394.05186000000003 1076.616655 384.0C1076.616655 373.94814 1068.468515 365.8 1058.416655 365.8C1048.364795 365.8 1040.216655 373.94814 1040.216655 384.0Z" fill="#1a1a1a"/><path d="M1198.416655 370.0C1196.958345 372.8 1196.083345 374.90000000000003 1195.5 377.70000000000005C1194.333345 384.0 1195.208345 387.5 1199.291655 387.5C1204.25 387.5 1211.541655 384.35 1220.583345 378.75L1222.041655 379.8C1212.708345 451.20000000000005 1190.541655 498.1 1178.0 583.5C1173.041655 618.15 1181.5 638.1 1200.458345 638.1C1209.208345 638.1 1215.916655 634.6 1219.708345 629.7C1222.041655 626.55 1224.375 622.35 1225.25 618.15C1225.833345 615.35 1226.125 609.75 1225.833345 606.6H1224.083345C1216.5 617.8 1209.791655 622.35 1201.625 622.35C1197.25 622.35 1193.458345 620.95 1190.833345 617.1C1189.083345 608.7 1189.958345 598.2 1193.458345 574.05C1201.916655 514.9 1229.333345 444.20000000000005 1235.75 381.9C1236.625 373.5 1230.5 366.5 1224.375 366.5C1217.083345 366.5 1207.458345 367.55 1198.416655 370.0Z" fill="#1a1a1a"/><path d="M1349.208345 448.4C1348.041655 450.15 1347.166655 452.25 1346.583345 454.70000000000005C1345.125 461.70000000000005 1347.166655 465.20000000000005 1351.25 465.20000000000005C1355.328725 465.20000000000005 1359.486725 461.849198761075 1372.833345 458.20000000000005L1374.291655 459.95000000000005C1367.291655 514.55 1349.5 559.7 1343.375 608.35C1341.041655 628.65 1345.416655 634.6 1353.0 634.6C1355.041655 634.6 1356.791655 634.25 1358.541655 633.2C1357.375 622.35 1357.083345 613.95 1359.416655 596.1C1363.208345 568.1 1372.833345 540.1 1378.375 512.1C1389.75 453.3 1390.333345 444.9 1380.708345 444.9C1370.338755 444.9 1360.875 445.6 1349.208345 448.4ZM1433.208345 443.5C1414.75379 443.5 1398.510955 464.063487598815 1382.458345 500.9L1375.166655 497.4L1360.0 570.2C1394.416655 488.3 1416.875 461.70000000000005 1432.916655 461.70000000000005C1438.458345 461.70000000000005 1443.708345 464.5 1447.5 471.5C1445.458345 487.6 1441.666655 498.8 1433.5 512.45V514.55C1435.541655 515.25 1437.291655 515.6 1439.041655 515.6C1448.083345 515.6 1454.208345 506.5 1458.0 490.05L1459.166655 485.15C1461.791655 474.65 1458.875 460.65 1451.583345 451.9C1447.208345 446.65 1441.666655 443.5 1433.208345 443.5Z" fill="#1a1a1a"/><path d="M1532.083345 526.1 1531.791655 527.5C1515.166655 606.95 1545.5 695.5 1647.291655 695.5C1671.791655 695.5 1693.666655 690.6 1715.541655 681.5C1723.125 678.35 1726.333345 673.8 1727.791655 664.7C1728.083345 662.95 1728.083345 660.5 1727.791655 658.75H1726.041655C1696.583345 673.8 1674.708345 678.7 1651.083345 678.7C1617.541655 678.7 1588.958345 671.0 1563.291655 646.85C1546.375 620.95 1535.0 581.4 1545.5 531.35L1546.375 527.15C1563.291655 445.95000000000005 1619.875 394.5 1696.875 394.5C1715.25 394.5 1733.041655 398.35 1748.208345 406.75C1763.375 425.65 1767.166655 460.65 1761.041655 498.8C1756.375 527.5 1749.083345 566.35 1745.583345 590.85C1742.666655 611.5 1749.375 617.45 1758.708345 617.45H1760.458345C1759.583345 606.95 1758.708345 601.0 1761.041655 584.55C1764.541655 559.7 1773.291655 520.15 1777.083345 488.3C1786.416655 411.3 1755.5 377.0 1694.833345 377.0C1610.833345 377.0 1549.583345 442.1 1532.083345 526.1ZM1754.625 568.1C1728.083345 598.2 1702.708345 605.9 1677.916655 605.9C1642.625 605.9 1631.25 576.85 1638.541655 542.55L1639.416655 538.35C1642.333345 524.35 1650.5 510.0 1660.416655 498.1C1674.708345 489.35 1688.708345 485.15 1704.458345 485.15C1723.125 485.15 1744.708345 493.9 1761.916655 508.95L1766.291655 490.05H1759.291655C1743.833345 477.8 1725.75 468.70000000000005 1703.291655 468.70000000000005C1661.583345 468.70000000000005 1632.125 499.85 1624.25 537.65L1623.375 541.85C1615.5 580.35 1631.25 623.4 1679.375 623.4C1701.541655 623.4 1723.708345 615.0 1742.375 596.45H1749.083345Z" fill="#1a1a1a"/><path d="M1635.625 668.55C1633.689815 671.1625005856949 1632.86777 673.034664430995 1632.125 676.6C1631.183045 681.12141363807 1631.9892 688.687026635985 1635.916655 693.4C1639.75514 698.006158297265 1646.284075 700.05 1655.75 700.05C1683.957515 700.05 1701.59979 678.445805738455 1710.583345 639.15C1723.125 583.85 1724.291655 517.0 1738.875 450.85C1744.770575 423.966195752595 1752.344225 407.036913320645 1760.75 396.95000000000005C1769.089975 386.94203125055003 1778.62499 383.3 1791.083345 383.3C1801.97811 383.3 1810.11393 388.69628391102503 1816.166655 396.95000000000005C1813.25 420.75 1805.083345 435.1 1791.666655 443.85V445.95000000000005C1793.708345 447.70000000000005 1795.75 448.4 1797.791655 448.4C1809.166655 448.4 1820.541655 437.55 1825.208345 419.0L1826.375 414.45000000000005C1829.583345 402.20000000000005 1828.416655 389.6 1820.541655 380.15C1813.944575 372.23350496071504 1803.0104000000001 366.5 1791.666655 366.5C1758.156045 366.5 1738.254065 390.11011602159 1726.041655 442.1C1709.125 514.2 1709.708345 575.8 1696.875 629.35C1691.649325 651.48223188687 1688.374935 662.857227013295 1682.0 674.15C1674.06396 682.031302431905 1665.162375 683.25 1656.625 683.25C1644.98547 683.25 1640.4284 678.9785095278351 1637.375 668.55ZM1688.416655 515.6C1688.125 516.65 1687.833345 518.05 1687.541655 519.45C1685.791655 527.15 1689.875 532.4 1697.458345 532.4H1776.5C1776.791655 531.0 1777.083345 529.6 1777.375 528.2C1778.833345 520.85 1774.75 515.6 1767.166655 515.6ZM1821.416655 448.75C1820.25 450.85 1819.666655 452.25 1819.08331 455.05C1817.916655 461.35 1819.666655 466.25 1824.041655 466.25C1829.26418 466.25 1838.49592 460.669362069895 1850.291655 458.9L1851.45831 460.3C1844.75 503.35 1831.916655 533.45 1824.625 583.5C1819.666655 619.2 1828.70831 638.1 1847.08331 638.1C1855.83331 638.1 1862.044935 634.84607131703 1866.33331 629.7C1869.002445 626.49706970104 1870.74177 622.384562611965 1871.58331 618.85C1872.45831 615.7 1872.75 611.5 1872.45831 606.6H1870.70831C1863.70831 617.1 1857.06055 622.35 1848.25 622.35C1843.74004 622.35 1840.08331 620.95 1837.45831 617.1C1835.859545 609.425890489275 1836.32263 599.69219810635 1839.20831 579.3C1844.45831 542.55 1861.375 498.8 1865.45831 460.3C1866.33331 451.9 1860.20831 444.9 1853.5 444.9C1844.613045 444.9 1834.25 446.3 1821.416655 448.75ZM1856.88331 384.0C1856.88331 394.05186000000003 1865.03145 402.20000000000005 1875.08331 402.20000000000005C1885.13517 402.20000000000005 1893.28331 394.05186000000003 1893.28331 384.0C1893.28331 373.94814 1885.13517 365.8 1875.08331 365.8C1865.03145 365.8 1856.88331 373.94814 1856.88331 384.0Z" fill="#1a1a1a"/>
</svg>