<?xml version="1.0" encoding="UTF-8"?>
<svg xmlns="http://www.w3.org/2000/svg" width="1890.0" height="1057.5"
     viewBox="0 0 1890.0 1057.5">
<rect width="100%" height="100%" fill="white"/>
<text x="945.0" y="30" text-anchor="middle" font-size="14" font-family="sans-serif" font-weight="bold" fill="#333">Mono B Slanted — Key glyphs + features</text><text x="187.5" y="48" text-anchor="middle" font-size="10" font-family="sans-serif" fill="#999">J</text><text x="362.5" y="48" text-anchor="middle" font-size="10" font-family="sans-serif" fill="#999">S</text><text x="537.5" y="48" text-anchor="middle" font-size="10" font-family="sans-serif" fill="#999">L</text><text x="712.5" y="48" text-anchor="middle" font-size="10" font-family="sans-serif" fill="#999">Z</text><text x="887.5" y="48" text-anchor="middle" font-size="10" font-family="sans-serif" fill="#999">f</text><text x="1062.5" y="48" text-anchor="middle" font-size="10" font-family="sans-serif" fill="#999">i</text><text x="1237.5" y="48" text-anchor="middle" font-size="10" font-family="sans-serif" fill="#999">l</text><text x="1412.5" y="48" text-anchor="middle" font-size="10" font-family="sans-serif" fill="#999">r</text><text x="1587.5" y="48" text-anchor="middle" font-size="10" font-family="sans-serif" fill="#999">@</text><text x="1762.5" y="48" text-anchor="middle" font-size="10" font-family="sans-serif" fill="#999">fi</text><text x="20" y="221.25" font-size="11" font-family="sans-serif" font-weight="bold" fill="#555">Linear</text><path d="M164.75 258.0C146.083345 258.0 133.833345 254.5 121.0 245.4H115.16665499999999C111.958345 259.75 109.333345 272.7 106.416655 287.05C106.416655 288.1 106.416655 289.15 106.708345 289.85C111.375 297.2 130.333345 307.0 160.666655 307.0C205.291655 307.0 232.416655 282.85 243.791655 228.60000000000002C255.80047 171.312 268.17321499999997 112.28799999999998 280.18202999999994 55.00000000000003C280.18202999999994 52.20000000000002 275.5194 50.80000000000001 263.86279 50.80000000000001C259.20016 50.80000000000001 254.537495 50.80000000000001 249.874865 50.80000000000001C238.21825499999997 50.80000000000001 233.555625 52.20000000000002 233.555625 55.00000000000003C233.555625 55.00000000000003 233.555625 55.00000000000003 233.555625 55.00000000000003C233.555625 55.00000000000003 233.555625 55.00000000000003 233.555625 55.00000000000003C222.20725999999996 109.1695 210.51502 164.9805 199.166655 219.15C196.25 232.8 192.75 241.9 187.5 248.2C181.375 255.55 174.083345 258.0 164.75 258.0Z" fill="#1a1a1a"/><path d="M394.583345 48.00000000000003C354.625 48.00000000000003 323.97697 67.27551337610501 314.958345 108.9L311.166655 126.4C306.791655 148.8 310.583345 179.95 345.291655 193.60000000000002L370.083345 203.75C386.125 210.05 389.333345 215.65 387.0 226.85000000000002L384.375 239.1C382.333345 248.9 371.541655 258.0 348.5 258.0C322.25 258.0 306.791655 248.9 292.208345 235.25H286.375C284.333345 245.05 280.833345 260.1 277.041655 278.65C276.75 280.05 276.458345 281.1 277.333345 282.5C284.625 294.05 311.166655 307.0 344.708345 307.0C388.166655 307.0 416.166655 289.5 425.208345 246.45L428.708345 229.65C434.833345 200.60000000000002 426.083345 175.75 393.708345 162.8L369.208345 153.0C351.708345 146.35000000000002 351.125 139.35000000000002 354.041655 125.70000000000002L355.791655 117.65C359.411425 100.9990628909 370.666655 94.55000000000001 392.25 94.55000000000001C404.5 94.55000000000001 408.583345 96.30000000000001 417.916655 101.20000000000002L414.604465 95.88C413.373375 99.80000000000001 412.57177 101.34 411.83232499999997 102.74000000000001C411.37249499999996 102.03999999999999 411.411695 100.92000000000002 411.821685 99.24000000000001C416.32674499999996 97.56000000000003 420.95406 95.88 425.23389499999996 94.20000000000002C425.66621499999997 86.22000000000003 426.33748 76.70000000000002 426.43715999999995 69.56000000000003C425.507595 66.76000000000002 424.143715 64.38 422.242865 62.00000000000003C417.72076 56.54000000000002 409.31148499999995 49.68000000000001 394.583345 48.00000000000003Z" fill="#1a1a1a"/><path d="M453.791655 300.0H587.666655C590.875 285.65 593.5 273.05 596.708345 256.95C597.291655 254.15 596.416655 252.75 594.083345 252.75H507.166655C520.583345 189.05 534.291655 122.55000000000001 547.708345 58.85000000000002C548.291655 56.400000000000006 547.416655 55.00000000000003 545.375 55.00000000000003C530.791655 55.00000000000003 516.5 55.00000000000003 501.916655 55.00000000000003C499.875 64.45000000000002 497.833345 73.55000000000001 496.083345 83.0C481.208345 154.05 466.333345 225.10000000000002 451.458345 296.15C450.875 298.6 451.75 300.0 453.791655 300.0Z" fill="#1a1a1a"/><path d="M767.041655 300.0C770.25 284.6 773.458345 269.55 776.666655 254.15C777.25 251.7 776.375 250.3 774.333345 250.3H723.0C700.541655 250.3 688.875 250.3 674.291655 250.3L675.75 243.3C689.458345 235.95 697.625 230.0 713.375 212.85000000000002C743.708345 178.9 774.333345 145.3 804.958345 111.35000000000002L816.041655 58.85000000000002C816.625 56.400000000000006 815.75 55.00000000000003 813.708345 55.00000000000003H671.083345C668.75 65.15 664.666655 85.45000000000002 661.75 99.80000000000001C660.875 103.30000000000001 661.75 104.70000000000002 664.666655 104.70000000000002H709.291655C723.0 104.70000000000002 731.458345 104.70000000000002 762.375 104.70000000000002L760.916655 111.70000000000002C743.416655 120.80000000000001 738.458345 125.35000000000002 723.291655 142.15C692.666655 176.10000000000002 662.333345 210.05 631.708345 243.65L620.625 296.15C620.041655 298.6 620.916655 300.0 622.958345 300.0Z" fill="#1a1a1a"/><path d="M797.666655 323.45C794.458345 337.8 791.541655 351.45 788.625 365.8C788.333345 367.9 789.208345 369.65 790.958345 369.65C793.0 369.65 802.916655 369.65 823.041655 369.65C853.083345 369.65 872.041655 353.9 878.75 321.35C897.125 232.10000000000002 906.166655 189.75 924.833345 102.25C927.166655 91.4 929.5 84.4 933.583345 79.5C937.666655 74.60000000000002 942.041655 72.50000000000003 950.791655 72.50000000000003C953.708345 72.50000000000003 956.625 72.85000000000002 958.666655 73.9C956.625 83.0 954.875 91.4 952.833345 100.85000000000002L952.25 104.0C964.5 104.0 973.541655 104.0 985.791655 104.0C988.125 104.0 989.0 102.60000000000002 989.583345 100.15L1000.666655 47.30000000000001C1000.958345 45.900000000000006 1000.958345 44.150000000000006 1000.083345 43.10000000000002C997.458345 39.94999999999999 978.791655 30.5 953.416655 30.5C906.458345 30.5 888.666655 59.900000000000006 881.375 94.9C864.458345 174.35000000000002 851.625 236.65 834.708345 317.15C834.125 319.25 833.541655 320.65 832.958345 321.35C831.5 323.1 829.458345 323.45 826.541655 323.45C816.625 323.45 810.5 323.45 803.5 323.45ZM829.75 160.0C826.833345 174.35000000000002 824.5 186.25 821.291655 200.60000000000002C821.0 202.35000000000002 821.583345 204.45 823.625 204.45H954.583345C957.791655 190.10000000000002 960.125 178.2 963.041655 163.85000000000002C963.625 161.75 962.458345 160.0 960.708345 160.0Z" fill="#1a1a1a"/><path d="M1009.125 111.0C1006.208345 124.65 1003.291655 139.0 1000.375 152.65C999.791655 155.45000000000002 1000.958345 156.5 1003.0 156.5C1017.0 156.5 1028.375 156.5 1042.375 156.5H1049.375C1043.541655 184.85000000000002 1037.416655 213.2 1031.583345 241.55C1024.875 274.1 1033.625 300.0 1074.166655 300.0C1091.666655 300.0 1113.541655 300.0 1115.291655 300.0C1117.625 300.0 1118.791655 298.6 1119.375 296.15C1122.291655 282.5 1125.208345 268.15 1128.125 254.5H1122.291655C1110.625 254.5 1093.125 254.5 1081.458345 254.5C1078.25 254.5 1076.208345 253.8 1075.041655 252.4C1073.583345 250.65 1073.875 248.2 1074.75 244.0C1083.791655 200.95 1092.541655 157.9 1101.583345 114.85000000000002C1102.166655 112.05000000000001 1101.0 111.0 1099.25 111.0C1068.333345 111.0 1040.041655 111.0 1009.125 111.0ZM1050.775 46.25000000000003C1050.775 70.12315000000001 1070.12685 89.47500000000002 1094.0 89.47500000000002C1117.87315 89.47500000000002 1137.225 70.12315000000001 1137.225 46.25000000000003C1137.225 22.376850000000047 1117.87315 3.025000000000034 1094.0 3.025000000000034C1070.12685 3.025000000000034 1050.775 22.376850000000047 1050.775 46.25000000000003Z" fill="#1a1a1a"/><path d="M1193.75 37.5C1190.833345 51.150000000000006 1187.916655 65.50000000000003 1185.0 79.15C1184.416655 81.95000000000002 1185.583345 83.0 1187.625 83.0C1201.916655 83.0 1219.125 83.0 1233.416655 83.0H1239.833345C1229.041655 135.5 1218.25 187.65 1207.166655 240.5C1200.166655 273.75 1209.208345 300.0 1249.166655 300.0C1266.666655 300.0 1291.458345 300.0 1293.208345 300.0C1295.541655 300.0 1296.708345 298.6 1297.291655 296.15C1300.208345 282.5 1303.125 268.15 1306.041655 254.5H1300.208345C1288.541655 254.5 1268.416655 254.5 1256.75 254.5C1253.541655 254.5 1251.5 253.8 1250.333345 252.4C1248.875 250.65 1249.166655 248.2 1250.041655 244.0C1264.041655 176.45 1278.041655 109.25 1292.333345 41.35000000000002C1292.916655 38.55000000000001 1291.75 37.5 1290.0 37.5C1259.083345 37.5 1224.666655 37.5 1193.75 37.5Z" fill="#1a1a1a"/><path d="M1360.291655 111.0C1357.375 125.0 1354.75 138.65 1351.833345 152.65C1351.25 154.75 1352.416655 156.5 1354.166655 156.5C1360.875 156.5 1367.291655 156.5 1374.0 156.5H1380.125C1371.958345 194.65 1358.833345 258.0 1350.958345 296.15C1350.375 298.6 1351.25 300.0 1353.291655 300.0C1366.708345 300.0 1380.416655 300.0 1393.833345 300.0C1395.875 289.85 1398.5 278.3 1401.125 265.7C1408.416655 229.65 1417.458345 187.3 1423.291655 158.60000000000002C1423.583345 158.25 1414.25 111.0 1413.958345 111.0C1413.958345 111.0 1360.291655 111.0 1360.291655 111.0ZM1485.125 107.5C1459.458345 107.5 1439.916655 120.45000000000002 1427.375 148.10000000000002H1411.625L1412.5 185.2C1425.625 169.1 1444.0 159.3 1454.791655 159.3C1455.375 159.3 1455.666655 159.3 1455.958345 159.3C1454.5 166.65 1452.75 174.0 1451.291655 181.35000000000002L1449.833345 188.35000000000002C1461.791655 188.35000000000002 1474.041655 188.35000000000002 1486.0 188.35000000000002C1488.041655 188.35000000000002 1489.5 186.95 1490.083345 184.5L1503.791655 118.0C1504.083345 116.60000000000002 1504.375 114.85000000000002 1502.916655 113.10000000000002C1500.0 109.60000000000002 1493.583345 107.5 1485.125 107.5Z" fill="#1a1a1a"/><path d="M1535.0 114.5 1502.625 269.2C1488.041655 339.9 1513.416655 373.85 1560.375 373.85C1579.333345 373.85 1600.333345 368.25 1605.291655 363.7C1605.875 363.0 1606.458345 361.95 1606.75 360.9C1608.5 351.8 1612.291655 335.35 1614.041655 326.25H1608.208345C1596.833345 332.2 1582.541655 335.35 1569.125 335.35C1551.625 335.35 1540.541655 331.5 1534.125 323.1C1526.541655 312.95 1526.25 296.15 1531.5 270.95L1561.25 128.15C1568.541655 93.5 1581.958345 72.85000000000002 1611.416655 72.85000000000002C1627.166655 72.85000000000002 1635.333345 77.4 1640.0 84.05000000000001C1643.791655 90.70000000000002 1644.666655 98.75 1641.75 112.4C1630.958345 164.20000000000002 1621.625 209.35000000000002 1610.833345 261.15C1610.541655 262.55 1624.541655 293.0 1627.458345 293.0H1640.583345C1644.083345 275.85 1647.875 258.7 1651.375 241.55C1660.416655 198.15 1668.875 154.4 1678.5 111.0C1687.541655 70.05000000000001 1668.583345 34.0 1618.416655 34.0C1573.791655 34.0 1546.083345 62.00000000000003 1535.0 114.5ZM1629.208345 238.4C1620.166655 249.6 1605.583345 254.5 1596.833345 254.5C1593.916655 254.5 1593.041655 252.4 1594.208345 247.5L1612.291655 160.35000000000002C1613.458345 154.75 1615.208345 150.9 1617.541655 148.45000000000002C1619.583345 146.35000000000002 1622.5 145.3 1625.708345 145.3C1635.333345 145.3 1640.0 147.05 1644.666655 152.65L1652.25 116.60000000000002H1637.375C1630.666655 110.30000000000001 1626.0 107.5 1615.791655 107.5C1594.208345 107.5 1583.125 125.0 1577.291655 153.35000000000002L1555.416655 258.35C1550.458345 282.15 1560.083345 296.5 1578.166655 296.5C1591.0 296.5 1603.25 291.25 1613.75 275.5H1621.625Z" fill="#1a1a1a"/><path d="M1672.666655 323.45C1669.458345 337.8 1666.541655 351.45 1663.625 365.8C1663.333345 367.9 1664.208345 369.65 1665.958345 369.65C1668.0 369.65 1677.916655 369.65 1698.041655 369.65C1728.083345 369.65 1747.041655 353.9 1753.75 321.35C1772.125 232.10000000000002 1781.166655 189.75 1799.833345 102.25C1802.166655 91.4 1804.5 84.4 1808.583345 79.5C1812.666655 74.60000000000002 1817.041655 72.50000000000003 1825.791655 72.50000000000003C1828.708345 72.50000000000003 1831.625 72.85000000000002 1833.666655 73.9C1831.625 83.0 1829.875 91.4 1827.833345 100.85000000000002L1827.25 104.0C1839.5 104.0 1848.541655 104.0 1860.791655 104.0C1863.125 104.0 1864.0 102.60000000000002 1864.583345 100.15L1875.666655 47.30000000000001C1875.958345 45.900000000000006 1875.958345 44.150000000000006 1875.083345 43.10000000000002C1872.458345 39.94999999999999 1853.791655 30.5 1828.416655 30.5C1781.458345 30.5 1763.666655 59.900000000000006 1756.375 94.9C1739.458345 174.35000000000002 1726.625 236.65 1709.708345 317.15C1709.125 319.25 1708.541655 320.65 1707.958345 321.35C1706.5 323.1 1704.458345 323.45 1701.541655 323.45C1691.625 323.45 1685.5 323.45 1678.5 323.45ZM1704.75 160.0C1701.833345 174.35000000000002 1699.5 186.25 1696.291655 200.60000000000002C1696.0 202.35000000000002 1696.583345 204.45 1698.625 204.45H1829.583345C1832.791655 190.10000000000002 1835.125 178.2 1838.041655 163.85000000000002C1838.625 161.75 1837.458345 160.0 1835.708345 160.0ZM1884.125 111.0C1881.208345 124.65 1878.291655 139.0 1875.375 152.65C1874.791655 155.45000000000002 1875.958345 156.5 1878.0 156.5C1892.0 156.5 1903.375 156.5 1917.375 156.5H1924.375C1918.541655 184.85000000000002 1912.416655 213.2 1906.583345 241.55C1899.875 274.1 1908.625 300.0 1949.166655 300.0C1966.666655 300.0 1988.541655 300.0 1990.291655 300.0C1992.625 300.0 1993.791655 298.6 1994.375 296.15C1997.291655 282.5 2000.208345 268.15 2003.125 254.5H1997.291655C1985.625 254.5 1968.125 254.5 1956.458345 254.5C1953.25 254.5 1951.208345 253.8 1950.041655 252.4C1948.583345 250.65 1948.875 248.2 1949.75 244.0C1958.791655 200.95 1967.541655 157.9 1976.583345 114.85000000000002C1977.166655 112.05000000000001 1976.0 111.0 1974.25 111.0C1943.333345 111.0 1915.041655 111.0 1884.125 111.0ZM1925.775 46.25000000000003C1925.775 70.12315000000001 1945.12685 89.47500000000002 1969.0 89.47500000000002C1992.87315 89.47500000000002 2012.225 70.12315000000001 2012.225 46.25000000000003C2012.225 22.376850000000047 1992.87315 3.025000000000034 1969.0 3.025000000000034C1945.12685 3.025000000000034 1925.775 22.376850000000047 1925.775 46.25000000000003Z" fill="#1a1a1a"/><line x1="20" y1="382.5" x2="1870.0" y2="382.5" stroke="#eee" stroke-width="0.5"/><text x="20" y="553.75" font-size="11" font-family="sans-serif" font-weight="bold" fill="#555">SemiCasual</text><path d="M167.520845 589.8C148.854155 589.8 135.875 585.075 122.89584500000001 573.875H119.10415499999999C116.04165499999999 583.85 113.416655 592.95 110.791655 605.725C109.041655 614.3 110.354155 620.075 113.416655 623.925C119.6875 632.325 134.125 639.5 161.6875 639.5C204.854155 639.5 232.5625 608.525 243.64584499999998 564.425C255.942535 506.03975 268.611835 445.88525000000004 280.90849 387.5C280.90849 384.70000000000005 276.37333 383.3 265.035395 383.3C260.500235 383.3 255.96507499999998 383.3 251.429915 383.3C240.09198 383.3 235.55682 384.70000000000005 235.55682 387.5C235.55682 387.5 235.55682 387.5 235.55682 387.5C235.55682 387.5 235.55682 387.5 235.55682 387.5C224.07745 442.30475 212.250215 498.77025000000003 200.770845 553.575C197.854155 566.35 194.5 575.275 189.541655 582.275C183.416655 587.7 176.416655 589.8 167.520845 589.8Z" fill="#1a1a1a"/><path d="M394.583345 380.5C354.625 380.5 323.97697 399.775513376105 314.958345 441.4L311.166655 458.9C306.791655 481.3 310.583345 512.45 345.291655 526.1L370.083345 536.25C386.125 542.55 389.333345 548.15 387.0 559.35L384.375 571.6C382.333345 581.4 371.541655 590.5 348.5 590.5C322.25 590.5 306.791655 581.4 292.208345 567.75H286.375C284.333345 577.55 280.833345 592.6 277.041655 611.15C276.75 612.55 276.458345 613.6 277.333345 615.0C284.625 626.55 311.166655 639.5 344.708345 639.5C388.166655 639.5 416.166655 622.0 425.208345 578.95L428.708345 562.15C434.833345 533.1 426.083345 508.25 393.708345 495.3L369.208345 485.5C351.708345 478.85 351.125 471.85 354.041655 458.20000000000005L355.791655 450.15C359.411425 433.4990628909 370.666655 427.05 392.25 427.05C404.5 427.05 408.583345 428.8 417.916655 433.70000000000005L418.420865 433.27342C418.55918499999996 432.05566500000003 418.35419 430.139905 417.829295 427.6191C417.00952499999994 424.58642 415.92175999999995 421.13489500000003 414.59519 417.357625C413.061665 413.34764 411.35587 409.198075 409.515465 405.001925C407.58129499999995 400.85236 405.597285 396.842375 403.61044 393.065105C401.670565 389.61358000000007 399.83009 386.58090000000004 398.14378999999997 384.06009500000005C396.66826 382.144335 395.46173999999996 380.92658 394.583345 380.5Z" fill="#1a1a1a"/><path d="M481.5 632.5C481.5 632.5 587.666655 632.5 587.666655 632.5C590.4375 622.525 592.7708275 613.25 595.25 601.525C597.729155 589.1 593.9375 583.5 585.9166725 583.5C585.9166725 583.5 506.729155 583.5 506.729155 583.5C515.9166725 528.55 535.166655 471.32500000000005 545.375 412.70000000000005C547.416655 397.65 544.5 385.75 534.0 385.75C522.3333275 385.75 511.3958275 386.45000000000005 500.4583275 387.5C500.4583275 398.0 499.875 409.55 497.833345 421.275C486.1666725 482.35 470.270845 537.65 458.020845 598.025C454.6666725 615.175 465.75 632.5 481.5 632.5Z" fill="#1a1a1a"/><path d="M765.875 632.5C768.0625 623.4 770.25 614.125 772.291655 604.15C775.0625 590.85 770.1041725 581.4 758.875 581.4C758.875 581.4 727.9583275 581.4 727.9583275 581.4C709.729155 581.4 694.4166725 581.925 679.3958275 582.8C679.3958275 582.8 680.2708275 578.25 680.2708275 578.25C694.708345 568.45 702.875 561.975 718.4791725 545.875C753.9166725 509.65 787.3125 471.5 804.8125 444.55C804.8125 444.55 810.791655 416.725 810.791655 416.725C815.1666725 400.975 808.6041725 387.5 800.145845 387.5C800.145845 387.5 675.458345 387.5 675.458345 387.5C673.4166725 395.025 670.2083275 408.85 668.0208275 419.525C665.3958275 431.775 668.75 437.725 680.2708275 437.725C680.2708275 437.725 706.8125 437.725 706.8125 437.725C723.1458275 437.725 737.2916725 437.025 761.3541725 435.625C761.3541725 435.625 760.479155 440.175 760.479155 440.175C746.916655 452.425 740.5 460.3 726.6458275 476.925C696.75 513.325 666.4166725 545.875 630.833345 579.825C630.833345 579.825 624.8541725 608.7 624.8541725 608.7C621.6458275 623.575 626.0208275 632.5 640.020845 632.5C640.020845 632.5 765.875 632.5 765.875 632.5Z" fill="#1a1a1a"/><path d="M794.8958275 648.25C791.9791725 657.525 789.5 666.625 787.3125 677.475C785.4166725 687.625 787.895845 694.1 792.5625 698.65C795.9166725 701.45 805.104155 703.9 822.3125 703.9C850.1666725 703.9 872.625 686.75 882.6875 649.65C901.7916725 574.4 901.2641175 524.57601174561 919.2916725 442.625C922.4086325000001 429.20373711960747 925.5625 420.4 930.520845 414.45000000000005C935.625 408.32500000000005 941.2698175 405.875 950.5 405.875C952.5416725 405.875 954.4375 406.05 955.8958275 406.75C953.6252025 420.86095440609756 950.7201325 431.7241777004125 944.8125 446.475C944.8125 446.475 944.5208275 449.1 944.5208275 449.1C951.9583275 449.625 958.0833275 449.975 965.666655 449.975C977.2404375 449.975 986.7740699999999 441.234477614615 989.583345 427.925C989.583345 427.925 995.416655 400.1 995.416655 400.1C997.020845 392.225 996.2916725 382.95000000000005 991.4791725 377.175C985.5 370.0 971.5 363.0 950.5 363.0C910.6256375 363.0 886.5423125 389.5780534262775 875.8333275 435.1C858.00074 511.911931685965 858.9166725 567.925 840.1041725 640.2C838.5 645.45 836.75 650.35 835.0 654.375C833.3958275 655.425 831.208345 655.775 828.1458275 655.775C815.75 655.775 807.0 654.025 798.6875 648.25C798.6875 648.25 794.8958275 648.25 794.8958275 648.25ZM823.1875 495.65C821.2916725 503.875 819.8333275 510.875 817.9375 519.275C815.0208275 532.225 822.3125 543.25 847.3958275 543.25C847.3958275 543.25 955.75 543.25 955.75 543.25C958.375 533.8 960.2708275 525.575 962.166655 515.6C964.2083275 503.175 960.708345 495.65 943.3541725 495.65C943.3541725 495.65 823.1875 495.65 823.1875 495.65Z" fill="#1a1a1a"/><path d="M1005.0416725 449.975C1001.833345 460.65 999.5 470.8 997.3125 480.95000000000005C994.3958275 495.3 997.1666725 502.3 1003.2916725 502.3C1017.5833275 502.3 1034.9375 495.475 1051.4166725 484.975C1051.4166725 484.975 1055.7916725 485.5 1055.7916725 485.5C1048.791655 515.425 1036.6875 541.675 1031.7291725 572.3C1026.3333275 603.275 1042.375 634.25 1077.9583275 634.25C1094.4375 634.25 1111.791655 631.45 1116.0208275 627.775C1121.2708275 623.4 1124.3333275 616.925 1126.5208275 606.6C1129.291655 593.125 1130.75 581.225 1131.9166725 570.725C1131.9166725 570.725 1128.125 570.725 1128.125 570.725C1111.9375 583.85 1095.1666725 587.875 1079.8541725 587.875C1077.375 587.875 1075.4791725 587.35 1074.0208275 586.475C1073.4375 582.975 1074.0208275 578.775 1075.0416725 573.525C1082.7708275 535.2 1097.354155 502.65 1104.5 463.8C1106.3958275 451.9 1096.4791725 441.75 1084.8125 441.75C1058.5625 441.75 1029.104155 445.775 1005.0416725 449.975ZM1052.9625 384.7875C1052.9625 384.7875 1052.9625 384.7875 1052.9625 384.7875C1052.9625 408.66065000000003 1072.3143325 428.01250000000005 1096.1875 428.01250000000005C1120.06065 428.01250000000005 1139.4125 408.66065000000003 1139.4125 384.7875C1139.4125 384.7875 1139.4125 384.7875 1139.4125 384.7875C1139.4125 360.91435 1120.06065 341.5625 1096.1875 341.5625C1072.3143325 341.5625 1052.9625 360.91435 1052.9625 384.7875Z" fill="#1a1a1a"/><path d="M1189.0833275 376.3C1185.875 386.975 1183.541655 397.125 1181.3541725 407.275C1178.4375 421.625 1181.208345 426.875 1188.0625 426.875C1201.7708275 426.875 1224.375 422.5 1241.291655 410.95000000000005C1241.291655 410.95000000000005 1245.520845 411.82500000000005 1245.520845 411.82500000000005C1234.0 465.375 1208.4791725 510.875 1199.4375 568.275C1193.604155 602.575 1210.8125 634.25 1247.854155 634.25C1265.6458275 634.25 1285.1875 631.625 1290.875 626.725C1296.854155 622.0 1300.0625 615.875 1302.3958275 604.325C1305.3125 590.15 1306.4791725 576.15 1307.2083275 563.725C1307.2083275 563.725 1303.4166725 563.725 1303.4166725 563.725C1286.0625 580.525 1268.2708275 586.125 1251.2083275 586.125C1247.5625 586.125 1244.3541725 585.775 1241.875 584.375C1241.2916725 580.875 1241.875 576.85 1242.8958275 571.95C1254.854155 510.875 1282.854155 456.1 1294.2291725 393.45000000000005C1296.2708275 379.975 1286.3541725 368.075 1274.3958275 368.075C1247.708345 368.075 1212.854155 372.27500000000003 1189.0833275 376.3Z" fill="#1a1a1a"/><path d="M1356.791655 446.475C1353.4375 458.025 1351.25 467.82500000000005 1349.0625 478.15C1346.1458275 492.15 1348.625 498.1 1354.604155 498.1C1361.75 498.1 1368.3125 494.95000000000005 1377.3541725 484.975C1377.3541725 484.975 1381.2916725 485.5 1381.2916725 485.5C1374.2916725 523.3 1361.020845 570.375 1353.583345 605.55C1349.7916725 622.875 1356.9375 633.9 1369.625 633.9C1379.395845 633.9 1389.166655 633.375 1398.208345 632.5C1397.9166725 622.875 1399.0833275 611.675 1401.2708275 598.2C1407.3958275 559.35 1416.145845 530.125 1424.166655 494.425C1427.2291725 482.175 1418.0416725 441.75 1403.6041725 441.75C1396.895845 441.75 1361.3125 444.375 1356.791655 446.475ZM1481.625 438.25C1461.208345 438.25 1442.541655 455.05 1427.5208275 487.95000000000005C1427.5208275 487.95000000000005 1415.5625 486.025 1415.5625 486.025C1415.5625 486.025 1407.25 542.725 1407.25 542.725C1425.3333275 507.025 1446.9166725 497.57500000000005 1457.2708275 497.57500000000005C1457.8541725 497.57500000000005 1458.4375 497.57500000000005 1458.875 497.57500000000005C1458.1458275 506.675 1456.6875 515.25 1454.5 524.175C1454.5 524.175 1453.770845 528.725 1453.770845 528.725C1460.916655 529.075 1467.7708275 529.075 1474.7708275 529.075C1491.104155 529.075 1495.0416725 511.575 1495.625 508.95C1495.625 508.95 1503.2083275 472.20000000000005 1503.2083275 472.20000000000005C1503.645845 470.1 1505.9791725 454.35 1497.666655 444.55C1494.3125 440.525 1488.9166725 438.25 1481.625 438.25Z" fill="#1a1a1a"/><path d="M1524.7916725 489.70000000000005C1524.7916725 489.70000000000005 1507.4375 572.825 1507.4375 572.825C1491.979155 648.6 1513.5625 692.175 1563.5833275 692.175C1580.9375 692.175 1598.2916725 688.675 1605.291655 682.375C1609.2291725 678.7 1610.9791725 674.5 1611.8541725 669.075C1613.1666725 661.55 1614.916655 652.1 1615.5 645.975C1615.5 645.975 1611.708345 645.975 1611.708345 645.975C1599.1666725 652.45 1585.3125 655.425 1571.0208275 655.425C1555.8541725 655.425 1543.8958275 652.625 1536.0208275 646.15C1529.166655 631.45 1528.5833275 607.65 1536.1666725 572.825C1536.1666725 572.825 1551.625 498.8 1551.625 498.8C1564.166655 441.225 1589.1041725 401.675 1623.229155 401.675C1632.854155 401.675 1638.395845 404.125 1642.625 407.8C1644.666655 416.375 1644.8125 425.3 1642.625 437.025C1633.7291725 487.25 1620.1666725 533.975 1612.0 584.2C1610.3958275 597.85 1625.416655 619.55 1635.625 619.55C1635.625 619.55 1644.375 619.55 1644.375 619.55C1645.833345 605.2 1648.4583275 590.15 1650.9375 575.975C1658.229155 532.75 1670.3333275 489.175 1678.0625 445.95000000000005C1686.229155 398.35 1669.3125 364.75 1627.0208275 364.75C1579.7708275 364.75 1540.5416725 412.875 1524.7916725 489.70000000000005ZM1635.9166725 557.075C1624.3958275 571.425 1610.5416725 580.0 1600.625 580.0C1596.104155 580.0 1594.6458275 574.575 1597.125 561.1C1597.125 561.1 1606.4583275 515.775 1606.4583275 515.775C1608.7916725 502.3 1613.1666725 489.70000000000005 1618.854155 477.625C1621.0416725 476.4 1624.25 475.70000000000005 1627.020845 475.70000000000005C1634.458345 475.70000000000005 1640.5833275 477.975 1645.3958275 483.05C1645.3958275 483.05 1653.4166725 446.125 1653.4166725 446.125C1653.4166725 446.125 1638.3958275 446.125 1638.3958275 446.125C1633.5833275 440.35 1629.6458275 436.85 1621.041655 436.85C1599.020845 436.85 1580.5 464.15 1570.729155 515.425C1570.729155 515.425 1559.5 569.5 1559.5 569.5C1552.9375 603.8 1563.2916725 622.0 1581.9583275 622.0C1593.7708275 622.0 1603.8333275 616.575 1613.75 602.225C1613.75 602.225 1626.1458275 602.225 1626.1458275 602.225C1626.1458275 602.225 1635.9166725 557.075 1635.9166725 557.075Z" fill="#1a1a1a"/><path d="M1669.8958275 648.25C1666.9791725 657.525 1664.5 666.625 1662.3125 677.475C1660.4166725 687.625 1662.895845 694.1 1667.5625 698.65C1670.9166725 701.45 1680.104155 703.9 1697.3125 703.9C1725.1666725 703.9 1747.625 686.75 1757.6875 649.65C1776.7916725 574.4 1776.2641174999999 524.57601174561 1794.2916725 442.625C1797.4086325 429.20373711960747 1800.5625 420.4 1805.520845 414.45000000000005C1810.625 408.32500000000005 1816.2698175 405.875 1825.5 405.875C1827.5416725 405.875 1829.4375 406.05 1830.8958275 406.75C1828.6252025 420.86095440609756 1825.7201325 431.7241777004125 1819.8125 446.475C1819.8125 446.475 1819.5208275 449.1 1819.5208275 449.1C1826.9583275 449.625 1833.0833275 449.975 1840.666655 449.975C1852.2404375 449.975 1861.77407 441.234477614615 1864.583345 427.925C1864.583345 427.925 1870.416655 400.1 1870.416655 400.1C1872.020845 392.225 1871.2916725 382.95000000000005 1866.4791725 377.175C1860.5 370.0 1846.5 363.0 1825.5 363.0C1785.6256375 363.0 1761.5423125 389.5780534262775 1750.8333275 435.1C1733.00074 511.911931685965 1733.9166725 567.925 1715.1041725 640.2C1713.5 645.45 1711.75 650.35 1710.0 654.375C1708.3958275 655.425 1706.208345 655.775 1703.1458275 655.775C1690.75 655.775 1682.0 654.025 1673.6875 648.25C1673.6875 648.25 1669.8958275 648.25 1669.8958275 648.25ZM1698.1875 495.65C1696.2916725 503.875 1694.8333275 510.875 1692.9375 519.275C1690.0208275 532.225 1697.3125 543.25 1722.3958275 543.25C1722.3958275 543.25 1830.75 543.25 1830.75 543.25C1833.375 533.8 1835.2708275 525.575 1837.166655 515.6C1839.2083275 503.175 1835.708345 495.65 1818.3541725 495.65C1818.3541725 495.65 1698.1875 495.65 1698.1875 495.65ZM1880.0416725 449.975C1876.833345 460.65 1874.5 470.8 1872.3125 480.95000000000005C1869.3958275 495.3 1872.1666725 502.3 1878.2916725 502.3C1892.5833275 502.3 1909.9375 495.475 1926.4166725 484.975C1926.4166725 484.975 1930.7916725 485.5 1930.7916725 485.5C1923.791655 515.425 1911.6875 541.675 1906.7291725 572.3C1901.3333275 603.275 1917.375 634.25 1952.9583275 634.25C1969.4375 634.25 1986.791655 631.45 1991.0208275 627.775C1996.2708275 623.4 1999.3333275 616.925 2001.5208275 606.6C2004.291655 593.125 2005.75 581.225 2006.9166725 570.725C2006.9166725 570.725 2003.125 570.725 2003.125 570.725C1986.9375 583.85 1970.1666725 587.875 1954.8541725 587.875C1952.375 587.875 1950.4791725 587.35 1949.0208275 586.475C1948.4375 582.975 1949.0208275 578.775 1950.0416725 573.525C1957.7708275 535.2 1972.354155 502.65 1979.5 463.8C1981.3958275 451.9 1971.4791725 441.75 1959.8125 441.75C1933.5625 441.75 1904.104155 445.775 1880.0416725 449.975ZM1927.9625 384.7875C1927.9625 384.7875 1927.9625 384.7875 1927.9625 384.7875C1927.9625 408.66065000000003 1947.3143325 428.01250000000005 1971.1875 428.01250000000005C1995.06065 428.01250000000005 2014.4125 408.66065000000003 2014.4125 384.7875C2014.4125 384.7875 2014.4125 384.7875 2014.4125 384.7875C2014.4125 360.91435 1995.06065 341.5625 1971.1875 341.5625C1947.3143325 341.5625 1927.9625 360.91435 1927.9625 384.7875Z" fill="#1a1a1a"/><line x1="20" y1="715.0" x2="1870.0" y2="715.0" stroke="#eee" stroke-width="0.5"/><text x="20" y="886.25" font-size="11" font-family="sans-serif" font-weight="bold" fill="#555">Casual</text><path d="M170.291655 921.6C151.625 921.6 137.916655 915.65 124.79165499999999 902.35H123.04165499999999C120.125 907.95 117.5 913.2 115.16665499999999 924.4C111.666655 940.5 114.29165499999999 951.0 120.125 958.0C128.0 967.45 137.916655 972.0 162.708345 972.0C204.416655 972.0 232.70834499999998 934.2 243.5 900.25C256.09439999999995 840.7675 269.070405 779.4825000000001 281.664805 720.0C281.664805 717.2 277.25414 715.8 266.227495 715.8C261.816865 715.8 257.4062 715.8 252.995535 715.8C241.96889 715.8 237.55826 717.2 237.55826 720.0C237.55826 720.0 237.55826 720.0 237.55826 720.0C237.55826 720.0 237.55826 720.0 237.55826 720.0C225.94778 775.44 213.98548 832.56 202.375 888.0C199.458345 899.9 196.25 908.65 191.583345 916.35C185.458345 919.85 178.75 921.6 170.291655 921.6Z" fill="#1a1a1a"/><path d="M404.5 713.0C366.291655 713.0 321.083345 750.8 311.458345 797.35L310.291655 802.95C305.916655 823.6 307.083345 851.6 347.916655 871.55L372.125 883.45C383.791655 889.4 389.916655 897.45 387.875 909.7L387.291655 913.2C378.25 918.45 366.583345 921.25 355.208345 921.25C321.375 921.25 302.416655 910.4 290.166655 890.45H288.416655C285.5 895.7 282.583345 903.05 281.125 911.8C277.625 929.65 280.25 943.3 286.666655 951.0C295.416655 961.5 313.5 972.0 348.5 972.0C391.666655 972.0 416.75 959.05 424.916655 920.2L426.083345 914.6C429.583345 897.45 429.583345 866.65 394.291655 849.85L369.208345 837.95C353.75 830.25 349.375 820.8 351.708345 809.25L352.291655 806.45C356.958345 784.05 382.333345 762.35 401.0 762.35C409.458345 762.35 413.25 764.1 417.625 769.7C420.95 762.0 424.45 754.3 428.002955 746.7031450000001C428.48119499999996 739.1578450000001 426.9371 732.0615250000001 421.509055 724.95159C417.07602499999996 719.10106 412.37244499999997 714.79053 404.5 713.0Z" fill="#1a1a1a"/><path d="M509.208345 965.0H587.666655C590.0 959.4 592.041655 953.45 593.791655 946.1C598.166655 924.05 591.458345 914.25 577.75 914.25H506.291655C511.25 868.05 536.041655 820.1 543.041655 766.55C546.541655 738.9 541.583345 716.5 522.625 716.5C513.875 716.5 506.291655 717.9 499.0 720.0C501.041655 731.55 501.916655 745.55 499.583345 759.55C491.125 810.65 474.208345 850.2 464.583345 899.9C458.458345 931.75 479.75 965.0 509.208345 965.0Z" fill="#1a1a1a"/><path d="M764.708345 965.0C765.875 962.2 767.041655 958.7 767.916655 954.15C772.875 930.0 763.833345 912.5 743.416655 912.5H732.916655C718.916655 912.5 699.958345 913.55 684.5 915.3L684.791655 913.2C699.958345 900.95 708.125 893.95 723.583345 878.9C764.125 840.4 800.291655 797.7 804.666655 777.75L805.541655 774.6C813.708345 745.55 801.458345 720.0 786.583345 720.0H679.833345C678.083345 724.9 675.75 732.25 674.291655 739.25C669.916655 760.25 675.75 770.75 695.875 770.75H704.333345C723.291655 770.75 743.125 769.35 760.333345 766.55L760.041655 768.65C750.416655 784.05 742.541655 795.25 730.0 811.7C700.833345 850.55 670.5 881.7 629.958345 916.0L629.083345 921.25C623.25 948.55 631.125 965.0 657.083345 965.0Z" fill="#1a1a1a"/><path d="M792.125 973.05C789.5 977.25 787.458345 981.8 786.0 989.15C782.5 1007.35 786.583345 1018.55 794.166655 1027.65C798.833345 1033.25 807.291655 1038.15 821.583345 1038.15C847.25 1038.15 873.208345 1019.6 886.625 977.95C906.458345 916.7 896.36158 859.40202349122 913.75 783.0C917.65061 767.007474239215 921.625 756.4 927.458345 749.4C933.583345 742.05 940.49798 739.25 950.208345 739.25C951.375 739.25 952.25 739.25 953.125 739.6C950.625405 758.721908812195 946.565265 772.048355400825 936.791655 792.1V794.2C939.416655 795.25 942.625 795.95 945.541655 795.95C966.355875 795.95 984.54814 779.86895522923 989.583345 755.7L990.166655 752.9C993.083345 738.55 991.625 721.75 982.875 711.25C973.541655 700.05 964.208345 695.5 947.583345 695.5C914.79293 695.5 884.41797 719.256106852555 870.291655 775.3C851.543135 849.4738633719301 866.208345 899.2 845.5 963.25C842.875 971.65 839.958345 980.05 837.041655 987.4C835.291655 987.75 832.958345 988.1 829.75 988.1C814.875 988.1 803.5 984.6 793.875 973.05ZM816.625 831.3C815.75 833.4 815.166655 835.5 814.583345 837.95C809.041655 862.1 823.041655 882.05 871.166655 882.05H956.916655C958.958345 877.5 960.416655 872.95 961.291655 867.35C964.791655 844.6 958.958345 831.3 926.0 831.3Z" fill="#1a1a1a"/><path d="M1000.958345 788.95C997.458345 796.65 995.708345 802.6 994.25 809.25C989.0 835.15 993.375 848.1 1003.583345 848.1C1018.166655 848.1 1041.5 834.45 1060.458345 813.45L1062.208345 814.5C1054.041655 846.0 1035.958345 870.15 1031.875 903.05C1027.791655 932.45 1051.125 968.5 1081.75 968.5C1097.208345 968.5 1110.041655 962.9 1116.75 955.55C1124.916655 946.8 1129.875 935.25 1133.666655 917.05C1136.291655 903.75 1136.291655 894.3 1135.708345 886.95H1133.958345C1113.25 913.2 1097.208345 921.25 1078.25 921.25C1076.5 921.25 1074.75 920.9 1073.0 920.55C1073.291655 915.3 1074.166655 909.35 1075.333345 903.05C1081.75 869.45 1102.166655 847.4 1107.416655 812.75C1110.625 791.75 1091.958345 772.5 1070.375 772.5C1048.791655 772.5 1018.166655 780.55 1000.958345 788.95ZM1055.15 723.325C1055.15 747.1981499999999 1074.501815 766.55 1098.375 766.55C1122.24815 766.55 1141.6 747.1981499999999 1141.6 723.325C1141.6 699.45185 1122.24815 680.1 1098.375 680.1C1074.501815 680.1 1055.15 699.45185 1055.15 723.325Z" fill="#1a1a1a"/><path d="M1184.416655 715.1C1180.916655 722.8 1179.166655 728.75 1177.708345 735.4C1172.458345 761.3 1176.833345 770.75 1188.5 770.75C1201.625 770.75 1229.625 762.0 1249.166655 738.9L1251.208345 740.65C1238.958345 795.25 1198.708345 834.1 1191.708345 896.05C1187.041655 931.4 1212.416655 968.5 1246.541655 968.5C1264.625 968.5 1278.916655 963.25 1288.541655 953.45C1298.166655 944.0 1303.416655 933.15 1307.5 912.5C1310.416655 897.8 1309.833345 884.15 1308.375 872.95H1306.625C1283.583345 906.55 1268.125 917.75 1245.666655 917.75C1241.583345 917.75 1237.208345 917.75 1233.416655 916.35C1233.708345 911.1 1234.583345 905.5 1235.75 899.9C1245.666655 845.3 1287.666655 802.95 1296.125 745.55C1299.625 721.4 1280.958345 698.6500000000001 1258.791655 698.6500000000001C1236.333345 698.6500000000001 1201.041655 707.05 1184.416655 715.1Z" fill="#1a1a1a"/><path d="M1353.291655 781.95C1349.5 791.05 1347.75 797.0 1346.291655 803.65C1341.041655 829.55 1344.833345 839.7 1355.041655 839.7C1362.625 839.7 1369.333345 833.4 1380.708345 813.45L1382.458345 814.5C1376.625 851.95 1363.208345 882.75 1356.208345 914.95C1349.208345 947.15 1362.625 967.8 1385.958345 967.8C1392.083345 967.8 1397.916655 966.75 1402.583345 965.0C1399.958345 955.9 1399.666655 945.05 1401.416655 930.7C1406.375 889.05 1414.833345 872.95 1425.041655 830.25C1430.875 806.1 1421.833345 772.5 1393.25 772.5C1379.833345 772.5 1362.333345 777.75 1353.291655 781.95ZM1478.125 769.0C1462.958345 769.0 1445.166655 789.65 1427.666655 827.8L1419.5 823.95L1402.0 900.25C1425.041655 844.95 1449.833345 835.85 1459.75 835.85C1460.333345 835.85 1461.208345 835.85 1461.791655 835.85C1461.791655 846.7 1460.625 856.5 1457.708345 867.0V869.1C1460.041655 869.8 1461.5 869.8 1463.541655 869.8C1494.166655 869.8 1500.583345 836.2 1501.166655 833.4L1502.625 826.4C1503.208345 823.6 1507.583345 793.85 1492.416655 776.0C1488.625 771.45 1484.25 769.0 1478.125 769.0Z" fill="#1a1a1a"/><path d="M1514.583345 864.9 1512.25 876.45C1495.916655 957.3 1513.708345 1010.5 1566.791655 1010.5C1582.541655 1010.5 1596.25 1009.1 1605.291655 1001.05C1612.583345 994.4 1615.5 987.05 1616.958345 977.25C1617.833345 971.3 1617.541655 968.85 1616.958345 965.7H1615.208345C1601.5 972.7 1588.083345 975.5 1572.916655 975.5C1560.083345 975.5 1547.25 973.75 1537.916655 969.2C1531.791655 949.95 1530.916655 919.15 1540.833345 874.7L1542.0 869.45C1559.791655 788.95 1596.25 730.5 1635.041655 730.5C1638.541655 730.5 1641.458345 730.85 1645.25 731.55C1645.541655 742.05 1644.958345 751.85 1643.5 761.65C1636.5 810.3 1618.708345 858.6 1613.166655 907.25C1610.25 933.15 1626.291655 946.1 1643.791655 946.1H1648.166655C1647.583345 934.55 1649.041655 921.6 1650.5 910.4C1656.041655 867.35 1671.791655 823.95 1677.625 780.9C1684.916655 726.65 1670.041655 695.5 1635.625 695.5C1585.75 695.5 1535.0 763.75 1514.583345 864.9ZM1642.625 875.75C1628.625 893.25 1615.5 905.5 1604.416655 905.5C1598.291655 905.5 1596.25 896.75 1600.041655 874.7L1600.625 871.2C1604.125 849.85 1611.125 828.5 1620.166655 806.8C1622.5 806.45 1626.0 806.1 1628.333345 806.1C1633.583345 806.1 1641.166655 808.9 1646.125 813.45L1654.583345 775.65H1639.416655C1636.5 770.4 1633.291655 766.2 1626.291655 766.2C1603.833345 766.2 1577.875 803.3 1564.166655 877.5L1563.583345 880.65C1555.416655 925.45 1566.5 947.5 1585.75 947.5C1596.541655 947.5 1604.416655 941.9 1613.75 928.95H1630.666655Z" fill="#1a1a1a"/><path d="M1667.125 973.05C1664.5 977.25 1662.458345 981.8 1661.0 989.15C1657.5 1007.35 1661.583345 1018.55 1669.166655 1027.65C1673.833345 1033.25 1682.291655 1038.15 1696.583345 1038.15C1722.25 1038.15 1748.208345 1019.6 1761.625 977.95C1781.458345 916.7 1771.36158 859.40202349122 1788.75 783.0C1792.65061 767.007474239215 1796.625 756.4 1802.458345 749.4C1808.583345 742.05 1815.49798 739.25 1825.208345 739.25C1826.375 739.25 1827.25 739.25 1828.125 739.6C1825.625405 758.721908812195 1821.565265 772.048355400825 1811.791655 792.1V794.2C1814.416655 795.25 1817.625 795.95 1820.541655 795.95C1841.355875 795.95 1859.5481399999999 779.86895522923 1864.583345 755.7L1865.166655 752.9C1868.083345 738.55 1866.625 721.75 1857.875 711.25C1848.541655 700.05 1839.208345 695.5 1822.583345 695.5C1789.79293 695.5 1759.41797 719.256106852555 1745.291655 775.3C1726.543135 849.4738633719301 1741.208345 899.2 1720.5 963.25C1717.875 971.65 1714.958345 980.05 1712.041655 987.4C1710.291655 987.75 1707.958345 988.1 1704.75 988.1C1689.875 988.1 1678.5 984.6 1668.875 973.05ZM1691.625 831.3C1690.75 833.4 1690.166655 835.5 1689.583345 837.95C1684.041655 862.1 1698.041655 882.05 1746.166655 882.05H1831.916655C1833.958345 877.5 1835.416655 872.95 1836.291655 867.35C1839.791655 844.6 1833.958345 831.3 1801.0 831.3ZM1875.958345 788.95C1872.458345 796.65 1870.708345 802.6 1869.25 809.25C1864.0 835.15 1868.375 848.1 1878.583345 848.1C1893.166655 848.1 1916.5 834.45 1935.458345 813.45L1937.208345 814.5C1929.041655 846.0 1910.958345 870.15 1906.875 903.05C1902.791655 932.45 1926.125 968.5 1956.75 968.5C1972.208345 968.5 1985.041655 962.9 1991.75 955.55C1999.916655 946.8 2004.875 935.25 2008.666655 917.05C2011.291655 903.75 2011.291655 894.3 2010.708345 886.95H2008.958345C1988.25 913.2 1972.208345 921.25 1953.25 921.25C1951.5 921.25 1949.75 920.9 1948.0 920.55C1948.291655 915.3 1949.166655 909.35 1950.333345 903.05C1956.75 869.45 1977.166655 847.4 1982.416655 812.75C1985.625 791.75 1966.958345 772.5 1945.375 772.5C1923.791655 772.5 1893.166655 780.55 1875.958345 788.95ZM1930.15 723.325C1930.15 747.1981499999999 1949.501815 766.55 1973.375 766.55C1997.24815 766.55 2016.6 747.1981499999999 2016.6 723.325C2016.6 699.45185 1997.24815 680.1 1973.375 680.1C1949.501815 680.1 1930.15 699.45185 1930.15 723.325Z" fill="#1a1a1a"/>
</svg>