<?xml version="1.0" encoding="UTF-8"?>
<svg xmlns="http://www.w3.org/2000/svg" width="1890.0" height="1057.5"
     viewBox="0 0 1890.0 1057.5">
<rect width="100%" height="100%" fill="white"/>
<text x="945.0" y="30" text-anchor="middle" font-size="14" font-family="sans-serif" font-weight="bold" fill="#333">Sans B Upright — Key glyphs + features</text><text x="187.5" y="48" text-anchor="middle" font-size="10" font-family="sans-serif" fill="#999">J</text><text x="362.5" y="48" text-anchor="middle" font-size="10" font-family="sans-serif" fill="#999">S</text><text x="537.5" y="48" text-anchor="middle" font-size="10" font-family="sans-serif" fill="#999">L</text><text x="712.5" y="48" text-anchor="middle" font-size="10" font-family="sans-serif" fill="#999">Z</text><text x="887.5" y="48" text-anchor="middle" font-size="10" font-family="sans-serif" fill="#999">f</text><text x="1062.5" y="48" text-anchor="middle" font-size="10" font-family="sans-serif" fill="#999">i</text><text x="1237.5" y="48" text-anchor="middle" font-size="10" font-family="sans-serif" fill="#999">l</text><text x="1412.5" y="48" text-anchor="middle" font-size="10" font-family="sans-serif" fill="#999">r</text><text x="1587.5" y="48" text-anchor="middle" font-size="10" font-family="sans-serif" fill="#999">@</text><text x="1762.5" y="48" text-anchor="middle" font-size="10" font-family="sans-serif" fill="#999">fi</text><text x="20" y="221.25" font-size="11" font-family="sans-serif" font-weight="bold" fill="#555">Linear</text><path d="M157.166655 254.5C142.291655 254.5 131.791655 251.35 117.5 244.0H111.666655C111.666655 259.75 111.666655 276.2 111.666655 290.55C111.666655 293.0 111.958345 294.4 113.125 295.8C117.5 301.05 135.0 307.0 158.041655 307.0C204.416655 307.0 225.416655 276.55 225.416655 223.35000000000002C225.416655 167.7945 225.416655 110.55550000000002 225.416655 55.00000000000003C225.416655 52.20000000000002 221.041655 50.80000000000001 210.104155 50.80000000000001C205.729155 50.80000000000001 201.354155 50.80000000000001 196.979155 50.80000000000001C186.041655 50.80000000000001 181.666655 52.20000000000002 181.666655 55.00000000000003C181.666655 55.00000000000003 181.666655 55.00000000000003 181.666655 55.00000000000003C181.666655 55.00000000000003 181.666655 55.00000000000003 181.666655 55.00000000000003C181.666655 109.51600000000002 181.666655 165.684 181.666655 220.2C181.666655 234.9 180.208345 242.95 176.125 247.85C172.041655 252.75 166.791655 254.5 157.166655 254.5Z" fill="#1a1a1a"/><path d="M368.916655 48.00000000000003C323.125 48.00000000000003 294.541655 76.35000000000002 294.541655 114.5V132.35000000000002C294.541655 157.55 303.0 180.3 342.083345 194.65L369.5 204.8C389.625 212.15 391.375 217.4 391.375 226.85000000000002V239.8C391.375 249.6 382.625 259.4 359.583345 259.4C333.333345 259.4 315.833345 252.75 298.333345 239.1H292.5C292.5 255.55 292.5 268.85 292.5 281.8C292.5 286.35 293.083345 287.4 294.25 288.8C303.875 300.35 328.083345 307.0 356.375 307.0C405.375 307.0 434.25 282.15 434.25 240.5V223.7C434.25 191.15 424.041655 173.65 387.583345 160.35000000000002L359.875 150.20000000000002C340.625 143.20000000000002 337.416655 138.3 337.416655 125.70000000000002V118.35000000000002C337.416655 101.55000000000001 347.916655 95.25 368.916655 95.25C378.25 95.25 384.666655 96.65 393.708345 100.15L385.541655 88.60000000000002C385.541655 103.30000000000001 385.541655 111.70000000000002 385.541655 119.4C385.541655 121.85000000000002 386.708345 123.25 388.75 123.25C401.291655 123.25 414.416655 123.25 426.958345 123.25C426.958345 107.5 426.958345 87.9 426.958345 74.25000000000003C426.958345 71.45000000000002 426.666655 69.70000000000002 425.208345 67.95000000000002C416.166655 57.10000000000002 396.333345 48.00000000000003 368.916655 48.00000000000003Z" fill="#1a1a1a"/><path d="M467.791655 300.0H598.75C598.75 285.65 598.75 273.05 598.75 256.95C598.75 254.15 597.583345 252.75 595.25 252.75H511.25C511.25 189.05 511.25 122.55000000000001 511.25 58.85000000000002C511.25 56.400000000000006 510.083345 55.00000000000003 508.041655 55.00000000000003C493.458345 55.00000000000003 479.166655 55.00000000000003 464.583345 55.00000000000003C464.583345 64.45000000000002 464.583345 73.55000000000001 464.583345 83.0C464.583345 154.05 464.583345 225.10000000000002 464.583345 296.15C464.583345 298.6 465.75 300.0 467.791655 300.0Z" fill="#1a1a1a"/><path d="M786.875 300.0C786.875 284.6 786.875 269.55 786.875 254.15C786.875 251.7 785.708345 250.3 783.666655 250.3H732.333345C709.875 250.3 698.208345 250.3 683.625 250.3V243.3C695.875 235.95 702.875 230.0 714.833345 212.85000000000002C738.166655 178.9 761.791655 145.3 785.416655 111.35000000000002V58.85000000000002C785.416655 56.400000000000006 784.25 55.00000000000003 782.208345 55.00000000000003H639.583345C639.583345 65.15 639.583345 85.45000000000002 639.583345 99.80000000000001C639.583345 103.30000000000001 640.75 104.70000000000002 643.666655 104.70000000000002H688.291655C702.0 104.70000000000002 710.458345 104.70000000000002 741.375 104.70000000000002V111.70000000000002C725.625 120.80000000000001 721.833345 125.35000000000002 710.166655 142.15C686.541655 176.10000000000002 663.208345 210.05 639.583345 243.65V296.15C639.583345 298.6 640.75 300.0 642.791655 300.0Z" fill="#1a1a1a"/><path d="M809.041655 323.45C809.041655 337.8 809.041655 351.45 809.041655 365.8C809.041655 367.9 810.208345 369.65 811.958345 369.65C813.071975 369.65 818.48105 369.65 829.458345 369.65C859.791655 369.65 875.541655 350.4 875.541655 315.05C875.541655 244.7 875.541655 147.4 875.541655 98.05000000000001C875.541655 88.60000000000002 876.708345 82.65 879.333345 78.80000000000001C881.375 75.65 884.291655 74.25000000000003 888.083345 74.25000000000003C889.541655 74.25000000000003 891.291655 74.60000000000002 893.041655 74.95000000000002C893.041655 80.9 893.041655 92.10000000000002 893.041655 100.85000000000002V104.0C903.07122 104.0 913.38719 104.0 923.375 104.0C925.416655 104.0 926.583345 102.60000000000002 926.583345 100.15V44.50000000000003C926.583345 43.44999999999999 926.291655 42.400000000000034 925.708345 41.69999999999999C922.308935 37.62073717817003 910.58334 30.5 890.416655 30.5C853.75566 30.5 830.333345 55.70000000000002 830.333345 104.70000000000002C830.333345 175.4 830.333345 244.7 830.333345 315.4C830.333345 318.2 830.041655 319.95 828.875 321.35C827.708345 322.75 825.958345 323.45 823.333345 323.45C819.69303 323.45 817.44463 323.45 814.875 323.45ZM811.666655 160.0C811.666655 174.0 811.666655 187.65 811.666655 201.65C811.666655 204.10000000000002 812.833345 205.5 814.875 205.5H907.916655C907.916655 190.8 907.916655 178.55 907.916655 163.85000000000002C907.916655 161.4 906.75 160.0 904.708345 160.0Z" fill="#1a1a1a"/><path d="M983.75 111.0C983.75 125.0 983.75 142.85000000000002 983.75 156.85000000000002C983.75 159.3 984.916655 160.70000000000002 986.958345 160.70000000000002C993.083345 160.70000000000002 1001.25 160.70000000000002 1002.708345 160.70000000000002H1004.75C1004.75 189.05 1004.75 213.55 1004.75 248.9C1004.75 281.1 1019.041655 300.0 1047.916655 300.0C1058.125 300.0 1059.0 300.0 1065.125 300.0C1067.166655 300.0 1068.333345 298.6 1068.333345 296.15C1068.333345 282.15 1068.333345 264.3 1068.333345 250.3H1062.5C1058.708345 250.3 1059.291655 250.3 1057.25 250.3C1053.75 250.3 1051.708345 249.6 1050.25 247.85C1048.791655 246.1 1048.5 244.0 1048.5 240.85C1048.5 197.45 1048.5 158.25 1048.5 114.85000000000002C1048.5 112.4 1047.333345 111.0 1045.291655 111.0C1014.375 111.0 997.458345 111.0 983.75 111.0ZM983.4 46.25000000000003C983.4 70.12315000000001 1002.751815 89.47500000000002 1026.625 89.47500000000002C1050.498185 89.47500000000002 1069.85 70.12315000000001 1069.85 46.25000000000003C1069.85 22.376850000000047 1050.498185 3.025000000000034 1026.625 3.025000000000034C1002.751815 3.025000000000034 983.4 22.376850000000047 983.4 46.25000000000003Z" fill="#1a1a1a"/><path d="M1151.458345 37.5C1151.458345 51.50000000000003 1151.458345 65.15 1151.458345 79.15C1151.458345 81.60000000000002 1152.625 83.0 1154.666655 83.0C1158.75 83.0 1171.0 83.0 1173.333345 83.0H1174.791655C1174.791655 137.25 1174.791655 191.85000000000002 1174.791655 246.1C1174.791655 282.5 1189.083345 300.0 1213.875 300.0C1219.416655 300.0 1233.416655 300.0 1237.208345 300.0C1239.25 300.0 1240.416655 298.6 1240.416655 296.15C1240.416655 282.15 1240.416655 264.3 1240.416655 250.3H1237.5C1235.166655 250.3 1230.208345 250.3 1227.291655 250.3C1223.791655 250.3 1221.75 249.6 1220.291655 247.85C1218.833345 246.1 1218.541655 244.0 1218.541655 240.85C1218.541655 172.95 1218.541655 109.25 1218.541655 41.35000000000002C1218.541655 38.900000000000034 1217.375 37.5 1215.333345 37.5C1206.0 37.5 1158.458345 37.5 1151.458345 37.5Z" fill="#1a1a1a"/><path d="M1333.75 111.0C1333.75 125.0 1333.75 138.65 1333.75 152.65C1333.75 155.10000000000002 1334.916655 156.5 1336.958345 156.5C1343.958345 156.5 1347.458345 156.5 1349.791655 156.5H1351.25C1351.25 194.65 1351.25 258.0 1351.25 296.15C1351.25 298.6 1352.416655 300.0 1354.458345 300.0C1367.875 300.0 1381.583345 300.0 1395.0 300.0C1395.0 289.85 1395.0 278.3 1395.0 265.7C1395.0 229.65 1395.0 187.3 1395.0 158.60000000000002C1395.0 158.25 1381.875 111.0 1381.583345 111.0C1359.416655 111.0 1344.833345 111.0 1333.75 111.0ZM1432.625 107.5C1413.666655 107.5 1402.0 119.75 1395.875 142.85000000000002H1386.541655V196.75C1395.875 168.75 1403.766415 161.75 1411.041655 161.75C1415.125 161.75 1417.166655 163.15 1418.625 165.25C1418.625 168.378125 1418.625 171.41451612903 1418.625 174.35000000000002V181.35000000000002C1428.541655 181.35000000000002 1439.041655 181.35000000000002 1448.958345 181.35000000000002C1451.0 181.35000000000002 1452.166655 179.95 1452.166655 177.5V117.30000000000001C1452.166655 116.25 1451.875 114.85000000000002 1451.291655 114.15C1448.375 110.65 1443.416655 107.5 1432.625 107.5Z" fill="#1a1a1a"/><path d="M1530.625 164.9V244.0C1530.625 336.75 1564.166655 377.35 1653.708345 377.35C1691.625 377.35 1723.125 372.45 1739.166655 367.2C1740.041655 366.85 1740.041655 365.45 1740.041655 364.4C1740.041655 355.3 1740.041655 329.05 1740.041655 319.95H1733.333345C1710.291655 325.9 1687.541655 329.05 1657.5 329.05C1624.541655 329.05 1605.583345 322.4 1593.625 311.55C1581.666655 300.7 1572.333345 280.4 1572.333345 235.95V171.9C1572.333345 115.20000000000002 1598.0 80.9 1661.583345 80.9C1693.083345 80.9 1706.5 86.15 1717.875 95.25C1729.541655 104.35000000000002 1732.75 119.05000000000001 1732.75 141.8C1732.75 172.25 1732.75 209.35000000000002 1732.75 261.15C1732.75 262.55 1756.083345 293.0 1759.291655 293.0H1774.166655C1774.166655 275.85 1774.166655 258.7 1774.166655 241.55C1774.166655 198.15 1774.166655 154.4 1774.166655 140.05C1774.166655 77.05000000000001 1749.666655 34.0 1661.291655 34.0C1567.083345 34.0 1530.625 88.95000000000002 1530.625 164.9ZM1748.5 233.15C1728.958345 245.4 1715.25 249.25 1704.75 249.25C1688.708345 249.25 1681.708345 241.9 1681.708345 220.55V200.60000000000002C1681.708345 186.25 1683.166655 179.25 1686.083345 175.05C1689.291655 170.5 1693.666655 167.70000000000002 1706.5 167.70000000000002C1719.041655 167.70000000000002 1731.0 170.5 1745.291655 175.05V134.10000000000002H1728.958345C1719.333345 127.80000000000001 1710.0 125.0 1694.541655 125.0C1659.25 125.0 1640.291655 148.10000000000002 1640.291655 193.25V228.25C1640.291655 275.5 1657.791655 296.5 1687.833345 296.5C1708.833345 296.5 1723.416655 290.2 1735.958345 271.3H1748.5Z" fill="#1a1a1a"/><path d="M1684.041655 323.45C1684.041655 337.8 1684.041655 351.45 1684.041655 365.8C1684.041655 367.9 1685.208345 369.65 1686.958345 369.65C1688.071975 369.65 1693.48105 369.65 1704.458345 369.65C1734.791655 369.65 1750.541655 350.4 1750.541655 315.05C1750.541655 244.7 1750.541655 147.4 1750.541655 98.05000000000001C1750.541655 88.60000000000002 1751.708345 82.65 1754.333345 78.80000000000001C1756.375 75.65 1759.291655 74.25000000000003 1763.083345 74.25000000000003C1764.541655 74.25000000000003 1766.291655 74.60000000000002 1768.041655 74.95000000000002C1768.041655 80.9 1768.041655 92.10000000000002 1768.041655 100.85000000000002V104.0C1778.07122 104.0 1788.38719 104.0 1798.375 104.0C1800.416655 104.0 1801.583345 102.60000000000002 1801.583345 100.15V44.50000000000003C1801.583345 43.44999999999999 1801.291655 42.400000000000034 1800.708345 41.69999999999999C1797.308935 37.62073717817003 1785.58334 30.5 1765.416655 30.5C1728.75566 30.5 1705.333345 55.70000000000002 1705.333345 104.70000000000002C1705.333345 175.4 1705.333345 244.7 1705.333345 315.4C1705.333345 318.2 1705.041655 319.95 1703.875 321.35C1702.708345 322.75 1700.958345 323.45 1698.333345 323.45C1694.69303 323.45 1692.44463 323.45 1689.875 323.45ZM1686.666655 160.0C1686.666655 174.0 1686.666655 187.65 1686.666655 201.65C1686.666655 204.10000000000002 1687.833345 205.5 1689.875 205.5H1782.916655C1782.916655 190.8 1782.916655 178.55 1782.916655 163.85000000000002C1782.916655 161.4 1781.75 160.0 1779.708345 160.0ZM1800.416655 111.0C1800.416655 125.0 1800.416655 142.85000000000002 1800.416655 156.85000000000002C1800.416655 159.3 1801.58331 160.70000000000002 1803.625 160.70000000000002C1809.75 160.70000000000002 1817.916655 160.70000000000002 1819.375 160.70000000000002H1821.416655C1821.416655 189.05 1821.416655 213.55 1821.416655 248.9C1821.416655 281.1 1835.70831 300.0 1864.58331 300.0C1874.791655 300.0 1875.666655 300.0 1881.791655 300.0C1883.83331 300.0 1885.0 298.6 1885.0 296.15C1885.0 282.15 1885.0 264.3 1885.0 250.3H1879.166655C1875.375 250.3 1875.95831 250.3 1873.916655 250.3C1870.416655 250.3 1868.375 249.6 1866.916655 247.85C1865.45831 246.1 1865.166655 244.0 1865.166655 240.85C1865.166655 197.45 1865.166655 158.25 1865.166655 114.85000000000002C1865.166655 112.4 1864.0 111.0 1861.95831 111.0C1831.041655 111.0 1814.125 111.0 1800.416655 111.0ZM1800.066655 46.25000000000003C1800.066655 70.12315000000001 1819.41847 89.47500000000002 1843.291655 89.47500000000002C1867.16484 89.47500000000002 1886.516655 70.12315000000001 1886.516655 46.25000000000003C1886.516655 22.376850000000047 1867.16484 3.025000000000034 1843.291655 3.025000000000034C1819.41847 3.025000000000034 1800.066655 22.376850000000047 1800.066655 46.25000000000003Z" fill="#1a1a1a"/><line x1="20" y1="382.5" x2="1870.0" y2="382.5" stroke="#eee" stroke-width="0.5"/><text x="20" y="553.75" font-size="11" font-family="sans-serif" font-weight="bold" fill="#555">SemiCasual</text><path d="M157.458345 587.0C141.708345 587.0 129.020845 582.45 113.5625 572.125H109.770845C109.1875 582.8 108.75 594.7 108.75 607.475C108.75 616.75 110.5 622.175 114.29165499999999 626.725C120.27081 633.9 135.291655 639.5 156.0 639.5C202.375 639.5 226.145845 601.525 226.145845 554.8C226.145845 499.591 226.145845 442.709 226.145845 387.5C226.145845 384.70000000000005 221.63959499999999 383.3 210.37396999999999 383.3C205.86772 383.3 201.36147 383.3 196.85521999999997 383.3C185.58959499999997 383.3 181.083345 384.70000000000005 181.083345 387.5C181.083345 387.5 181.083345 387.5 181.083345 387.5C181.083345 387.5 181.083345 387.5 181.083345 387.5C181.083345 441.90049999999997 181.083345 497.9495 181.083345 552.35C181.083345 565.65 180.208345 574.4 177.4375 581.225C172.333345 585.25 166.5 587.0 157.458345 587.0Z" fill="#1a1a1a"/><path d="M375.625 380.5C330.270845 380.5 295.708345 419.0 295.708345 461.525V472.725C295.708345 495.475 304.020845 515.95 346.020845 533.1L373.145845 544.125C389.479155 550.6 394.4375 557.775 394.4375 568.275V575.625C390.208345 583.15 379.854155 589.45 361.770845 589.45C333.333345 589.45 313.645845 580.7 296.583345 563.9H292.791655C292.208345 574.75 291.770845 585.075 291.770845 596.1C291.770845 608.35 294.395845 616.225 298.041655 620.6C307.520845 631.975 332.166655 639.5 360.166655 639.5C409.895845 639.5 435.5625 614.65 435.5625 574.4V563.2C435.5625 538.35 426.666655 518.05 389.333345 503.175L361.770845 492.15C343.6875 484.975 339.3125 479.9 339.020845 468.175V463.8C339.020845 444.725 356.958345 430.375 376.645845 430.375C384.083345 430.375 388.75 431.6 395.75 435.1L388.604155 420.225C387.0 437.025 385.6875 446.475 385.6875 454.525C385.6875 465.20000000000005 391.375 469.05 401.291655 469.05C410.770845 469.05 420.104155 468.175 428.270845 467.3C428.270845 454.0 428.270845 437.9 428.270845 424.95000000000005C428.270845 414.975 427.104155 406.925 421.416655 400.1C411.9375 388.725 396.770845 380.5 375.625 380.5Z" fill="#1a1a1a"/><path d="M481.2083275 632.5C481.2083275 632.5 599.3333275 632.5 599.3333275 632.5C599.625 622.35 599.9166725 613.25 599.9166725 601.525C599.9166725 589.1 596.270845 582.625 588.25 582.625C588.25 582.625 511.9791725 582.625 511.9791725 582.625C511.9791725 522.775 511.9791725 459.775 511.9791725 403.425C511.9791725 389.425 507.895845 385.75 496.5208275 385.75C484.8541725 385.75 474.0625 386.45000000000005 463.4166725 387.5C464.7291725 398.175 465.3125 409.025 465.3125 420.75C465.3125 481.475 465.3125 542.025 465.3125 602.75C465.3125 616.4 470.2708275 632.5 481.2083275 632.5Z" fill="#1a1a1a"/><path d="M785.7083275 632.5C786.0 623.4 786.1458275 614.125 786.1458275 604.15C786.1458275 590.85 782.9375 581.4 772.1458275 581.4C772.1458275 581.4 737.0 581.4 737.0 581.4C718.7708275 581.4 703.020845 581.925 688.1458275 582.8C688.1458275 582.8 688.1458275 578.25 688.1458275 578.25C700.5416725 568.45 707.9791725 561.975 720.083345 545.875C747.9375 509.65 773.4583275 471.5 785.416655 444.55C785.416655 444.55 785.416655 416.725 785.416655 416.725C785.416655 395.55 782.0625 387.5 773.3125 387.5C773.3125 387.5 643.958345 387.5 643.958345 387.5C643.6666725 395.025 643.2291725 408.85 643.2291725 419.525C643.2291725 431.775 647.8958275 437.725 659.416655 437.725C659.416655 437.725 689.8958275 437.725 689.8958275 437.725C710.3125 437.725 720.083345 437.20000000000005 740.0625 435.625C740.0625 435.625 740.0625 440.175 740.0625 440.175C728.9791725 452.425 724.3125 460.3 713.9583275 476.925C691.6458275 513.325 668.020845 545.875 639.583345 579.825C639.583345 579.825 639.583345 608.7 639.583345 608.7C639.583345 623.575 643.2291725 632.5 654.4583275 632.5C654.4583275 632.5 785.7083275 632.5 785.7083275 632.5Z" fill="#1a1a1a"/><path d="M801.0208275 649.475C800.4375 659.45 800.1458275 669.6 800.291655 680.45C800.4331075 689.4779607432175 803.0775325 695.799880547155 807.583345 699.35C810.6772575 701.8236739027525 817.361435 704.075 828.875 704.075C856.0 704.075 876.416655 685.175 876.416655 646.15C876.416655 579.825 876.416655 502.3 876.416655 440.70000000000005C876.416655 424.95000000000005 877.875 418.125 881.520845 413.4C884.2916725 409.725 888.229155 408.5 892.6041725 408.5C894.5259175 408.5 896.4797925 408.828788473685 898.4375 409.375C898.7484925 418.3211338066625 898.4238325 429.0624841716875 897.2708275 439.475C897.2708275 439.475 897.2708275 442.1 897.2708275 442.1C903.4522825 442.45000000000005 909.9227675 442.625 916.0833275 442.625C925.066655 442.625 930.958345 433.8983333333275 930.958345 423.9C930.958345 423.9 930.958345 393.8 930.958345 393.8C930.958345 386.83632075471496 929.4317149999999 380.0921613869475 924.6875 374.90000000000003C919.84868 369.26465383722496 909.32292 363.0 891.4375 363.0C854.25868 363.0 830.4791725 390.3 830.4791725 438.25C830.4791725 505.45 830.4791725 571.075 830.4791725 637.575C830.4791725 643.875 829.8958275 648.775 828.4375 652.45C826.9791725 653.5 823.9166725 654.375 819.5416725 654.375C814.221515 654.375 809.7777575 653.464123224415 804.8125 649.475C804.8125 649.475 801.0208275 649.475 801.0208275 649.475ZM808.166655 495.65C808.166655 503.70000000000005 808.166655 511.575 808.166655 519.8C808.166655 538.525 814.2916725 544.65 835.4375 544.65C835.4375 544.65 906.4583275 544.65 906.4583275 544.65C907.041655 534.325 907.479155 524.175 907.479155 512.8C907.479155 500.025 903.3958275 495.65 890.8541725 495.65C890.8541725 495.65 808.166655 495.65 808.166655 495.65Z" fill="#1a1a1a"/><path d="M983.4583275 443.5C982.7291725 454.70000000000005 982.5833275 465.9 982.5833275 476.925C982.5833275 487.775 984.916655 494.6 989.0 494.6C994.5416725 494.6 1000.8125 493.025 1002.8541725 491.45000000000005C1002.8541725 491.45000000000005 1004.75 491.8 1004.75 491.8C1004.75 521.2 1004.75 546.925 1004.75 585.075C1004.75 611.675 1020.5 634.25 1048.791655 634.25C1057.6875 634.25 1060.8958275 633.2 1066.4375 630.225C1069.791655 627.425 1071.9791725 620.425 1071.9791725 610.275C1071.9791725 601.175 1071.833345 589.975 1071.395845 580.7C1071.395845 580.7 1067.6041725 580.7 1067.6041725 580.7C1062.7916725 583.15 1060.75 584.025 1056.6666725 584.025C1053.3125 584.025 1050.833345 583.325 1049.375 581.925C1048.6458275 577.725 1048.5 571.95 1048.5 565.3C1048.5 529.775 1048.5 496.525 1048.5 455.05C1048.5 448.05 1042.2291725 441.75 1026.041655 441.75C1004.8958275 441.75 993.520845 442.45000000000005 983.4583275 443.5ZM983.1083275 384.9625C983.1083275 384.9625 983.1083275 384.9625 983.1083275 384.9625C983.1083275 408.83565 1002.4601425 428.1875 1026.3333275 428.1875C1050.2065125 428.1875 1069.5583275 408.83565 1069.5583275 384.9625C1069.5583275 384.9625 1069.5583275 384.9625 1069.5583275 384.9625C1069.5583275 361.08935 1050.2065125 341.7375 1026.3333275 341.7375C1002.4601425 341.7375 983.1083275 361.08935 983.1083275 384.9625Z" fill="#1a1a1a"/><path d="M1153.5 370.0C1152.9166725 379.8 1152.333345 391.0 1152.333345 402.025C1152.333345 416.20000000000005 1155.1041725 421.275 1159.3333275 421.275C1162.5416725 421.275 1170.8541725 420.75 1173.333345 419.175C1173.333345 419.175 1174.791655 419.525 1174.791655 419.525C1174.791655 472.025 1174.791655 526.1 1174.791655 578.425C1174.791655 609.575 1186.75 634.25 1215.3333275 634.25C1222.479155 634.25 1233.2708275 633.55 1237.645845 630.575C1240.8541725 627.95 1243.1875 620.6 1243.1875 610.975C1243.1875 600.125 1243.041655 588.925 1242.604155 579.65C1242.604155 579.65 1240.2708275 579.65 1240.2708275 579.65C1237.354155 581.925 1232.25 583.15 1228.166655 583.15C1224.229155 583.15 1222.0416725 582.1 1220.291655 580.35C1218.833345 576.15 1218.541655 571.075 1218.541655 564.425C1218.541655 504.4 1218.541655 447.525 1218.541655 387.5C1218.541655 375.25 1212.8541725 368.25 1201.770845 368.25C1192.875 368.25 1162.9791725 368.6 1153.5 370.0Z" fill="#1a1a1a"/><path d="M1331.125 443.5C1330.3958275 455.57500000000005 1330.1041725 465.725 1330.1041725 477.1C1330.1041725 486.9 1332.875 493.375 1337.833345 493.375C1342.645845 493.375 1345.8541725 492.32500000000005 1348.479155 490.75C1348.479155 490.75 1350.0833275 491.1 1350.0833275 491.1C1350.0833275 528.55 1350.0833275 577.9 1350.0833275 615.525C1350.0833275 627.6 1356.354155 633.55 1367.0 633.55C1376.625 633.55 1386.395845 633.2 1396.0208275 632.5C1394.2708275 620.25 1393.8333275 608.525 1393.8333275 594.175C1393.8333275 558.475 1393.8333275 519.8 1393.8333275 494.25C1393.8333275 471.15 1379.5416725 441.75 1368.6041725 441.75C1353.0 441.75 1340.75 442.275 1331.125 443.5ZM1430.875 438.25C1414.104155 438.25 1401.4166725 452.07500000000005 1395.2916725 482.525C1395.2916725 482.525 1387.125 482.525 1387.125 482.525C1387.125 482.525 1387.125 552.875 1387.125 552.875C1397.1875 509.3 1406.529035 496.175 1414.3958275 496.175C1417.0208275 496.175 1418.3333275 497.05 1419.5 498.45000000000005C1419.5 501.4140625 1419.5 504.507258064515 1419.2083275 508.075C1419.2083275 508.075 1419.2083275 512.625 1419.2083275 512.625C1424.8958275 512.975 1431.0208275 513.15 1438.3125 513.15C1446.9166725 513.15 1451.729155 504.05 1451.729155 494.775C1451.729155 494.775 1451.729155 462.4 1451.729155 462.4C1451.729155 454.525 1449.9791725 448.4 1447.0625 444.9C1443.7083275 440.875 1438.8958275 438.25 1430.875 438.25Z" fill="#1a1a1a"/><path d="M1526.9791725 518.75C1526.9791725 518.75 1526.9791725 560.575 1526.9791725 560.575C1526.9791725 647.725 1562.5625 693.925 1655.895845 693.925C1696.2916725 693.925 1722.8333275 689.2 1735.666655 682.025C1739.75 678.35 1740.625 669.6 1740.625 662.775C1740.625 656.65 1740.625 641.775 1740.625 635.65C1740.625 635.65 1736.395845 635.65 1736.395845 635.65C1709.416655 643.525 1685.791655 647.025 1655.3125 647.025C1624.3958275 647.025 1602.375 641.075 1586.4791725 629.7C1575.8333275 616.4 1568.25 593.65 1568.25 556.55C1568.25 556.55 1568.25 522.775 1568.25 522.775C1568.25 456.275 1594.7916725 414.45000000000005 1659.833345 414.45000000000005C1685.7916725 414.45000000000005 1700.9583275 418.475 1713.3541725 427.05C1721.5208275 440.0 1723.8541725 449.625 1723.8541725 479.025C1723.8541725 509.475 1723.8541725 543.075 1723.8541725 584.2C1723.8541725 598.725 1748.645845 617.8 1760.8958275 617.8C1760.8958275 617.8 1770.5208275 617.8 1770.5208275 617.8C1769.6458275 602.75 1769.354155 588.225 1769.354155 574.225C1769.354155 537.125 1769.354155 499.85 1769.354155 477.275C1769.354155 410.95000000000005 1737.125 364.75 1659.979155 364.75C1570.875 364.75 1526.9791725 426.0 1526.9791725 518.75ZM1738.0 538.7C1716.4166725 559.0 1699.9375 565.125 1686.8125 565.125C1670.4791725 565.125 1664.3541725 557.075 1664.3541725 539.4C1664.3541725 539.4 1664.3541725 527.5 1664.3541725 527.5C1664.3541725 514.55 1665.666655 508.6 1668.4375 501.95000000000005C1674.2708275 497.925 1679.9583275 495.65 1694.3958275 495.65C1710.1458275 495.65 1719.0416725 498.275 1731.729155 502.125C1731.729155 502.125 1734.791655 464.15 1734.791655 464.15C1734.791655 464.15 1720.9375 464.15 1720.9375 464.15C1711.6041725 456.45000000000005 1700.5208275 452.6 1686.375 452.6C1644.375 452.6 1618.5625 484.625 1618.5625 525.75C1618.5625 525.75 1618.5625 544.825 1618.5625 544.825C1618.5625 594.525 1640.1458275 616.75 1671.3541725 616.75C1694.5416725 616.75 1711.4583275 608.175 1724.7291725 583.325C1724.7291725 583.325 1740.7708275 583.325 1740.7708275 583.325C1740.7708275 583.325 1738.0 538.7 1738.0 538.7Z" fill="#1a1a1a"/><path d="M1676.0208275 649.475C1675.4375 659.45 1675.1458275 669.6 1675.291655 680.45C1675.4331075 689.4779607432175 1678.0775325 695.799880547155 1682.583345 699.35C1685.6772575 701.8236739027525 1692.361435 704.075 1703.875 704.075C1731.0 704.075 1751.416655 685.175 1751.416655 646.15C1751.416655 579.825 1751.416655 502.3 1751.416655 440.70000000000005C1751.416655 424.95000000000005 1752.875 418.125 1756.520845 413.4C1759.2916725 409.725 1763.229155 408.5 1767.6041725 408.5C1769.5259175 408.5 1771.4797925 408.828788473685 1773.4375 409.375C1773.7484924999999 418.3211338066625 1773.4238325000001 429.0624841716875 1772.2708275 439.475C1772.2708275 439.475 1772.2708275 442.1 1772.2708275 442.1C1778.4522825 442.45000000000005 1784.9227675 442.625 1791.0833275 442.625C1800.066655 442.625 1805.958345 433.8983333333275 1805.958345 423.9C1805.958345 423.9 1805.958345 393.8 1805.958345 393.8C1805.958345 386.83632075471496 1804.431715 380.0921613869475 1799.6875 374.90000000000003C1794.84868 369.26465383722496 1784.32292 363.0 1766.4375 363.0C1729.25868 363.0 1705.4791725 390.3 1705.4791725 438.25C1705.4791725 505.45 1705.4791725 571.075 1705.4791725 637.575C1705.4791725 643.875 1704.8958275 648.775 1703.4375 652.45C1701.9791725 653.5 1698.9166725 654.375 1694.5416725 654.375C1689.221515 654.375 1684.7777575 653.464123224415 1679.8125 649.475C1679.8125 649.475 1676.0208275 649.475 1676.0208275 649.475ZM1683.166655 495.65C1683.166655 503.70000000000005 1683.166655 511.575 1683.166655 519.8C1683.166655 538.525 1689.2916725 544.65 1710.4375 544.65C1710.4375 544.65 1781.4583275 544.65 1781.4583275 544.65C1782.041655 534.325 1782.479155 524.175 1782.479155 512.8C1782.479155 500.025 1778.3958275 495.65 1765.8541725 495.65C1765.8541725 495.65 1683.166655 495.65 1683.166655 495.65ZM1800.1249825 443.5C1799.3958275 454.70000000000005 1799.2499825 465.9 1799.2499825 476.925C1799.2499825 487.775 1801.58331 494.6 1805.666655 494.6C1811.2083275 494.6 1817.479155 493.025 1819.5208275 491.45000000000005C1819.5208275 491.45000000000005 1821.416655 491.8 1821.416655 491.8C1821.416655 521.2 1821.416655 546.925 1821.416655 585.075C1821.416655 611.675 1837.166655 634.25 1865.45831 634.25C1874.354155 634.25 1877.5624825 633.2 1883.104155 630.225C1886.45831 627.425 1888.6458275 620.425 1888.6458275 610.275C1888.6458275 601.175 1888.5 589.975 1888.0625 580.7C1888.0625 580.7 1884.2708275 580.7 1884.2708275 580.7C1879.4583275 583.15 1877.416655 584.025 1873.3333275 584.025C1869.979155 584.025 1867.5 583.325 1866.041655 581.925C1865.3124825 577.725 1865.166655 571.95 1865.166655 565.3C1865.166655 529.775 1865.166655 496.525 1865.166655 455.05C1865.166655 448.05 1858.8958275 441.75 1842.70831 441.75C1821.5624825 441.75 1810.1875 442.45000000000005 1800.1249825 443.5ZM1799.7749825 384.9625C1799.7749825 384.9625 1799.7749825 384.9625 1799.7749825 384.9625C1799.7749825 408.83565 1819.1267975 428.1875 1842.9999825 428.1875C1866.8731675 428.1875 1886.2249825 408.83565 1886.2249825 384.9625C1886.2249825 384.9625 1886.2249825 384.9625 1886.2249825 384.9625C1886.2249825 361.08935 1866.8731675 341.7375 1842.9999825 341.7375C1819.1267975 341.7375 1799.7749825 361.08935 1799.7749825 384.9625Z" fill="#1a1a1a"/><line x1="20" y1="715.0" x2="1870.0" y2="715.0" stroke="#eee" stroke-width="0.5"/><text x="20" y="886.25" font-size="11" font-family="sans-serif" font-weight="bold" fill="#555">Casual</text><path d="M157.75 919.5C141.125 919.5 126.25 913.55 109.625 900.25H107.875C106.708345 905.85 105.833345 913.2 105.833345 924.4C105.833345 940.5 109.041655 949.95 115.458345 957.65C123.04165499999999 966.75 135.583345 972.0 153.958345 972.0C200.333345 972.0 226.875 926.5 226.875 886.25C226.875 831.3875 226.875 774.8625 226.875 720.0C226.875 717.2 222.2375 715.8 210.64375 715.8C206.00625 715.8 201.36874999999998 715.8 196.73125 715.8C185.1375 715.8 180.5 717.2 180.5 720.0C180.5 720.0 180.5 720.0 180.5 720.0C180.5 720.0 180.5 720.0 180.5 720.0C180.5 774.2850000000001 180.5 830.215 180.5 884.5C180.5 896.4 180.208345 905.85 178.75 914.6C172.625 917.75 166.208345 919.5 157.75 919.5Z" fill="#1a1a1a"/><path d="M382.333345 713.0C337.416655 713.0 296.875 761.65 296.875 808.55V813.1C296.875 833.4 305.041655 851.6 349.958345 871.55L376.791655 883.45C389.333345 889.05 397.5 898.15 397.5 909.7V911.45C389.041655 916.7 377.083345 919.5 363.958345 919.5C333.333345 919.5 311.458345 908.65 294.833345 888.7H293.083345C291.916655 893.95 291.041655 901.3 291.041655 910.4C291.041655 930.35 295.708345 945.05 301.833345 952.4C311.166655 963.6 336.25 972.0 363.958345 972.0C414.416655 972.0 436.875 947.15 436.875 908.3V902.7C436.875 885.55 429.291655 862.45 391.083345 846.0L363.666655 834.1C346.75 826.75 341.208345 821.5 340.625 810.65V809.25C340.625 787.9 366.0 765.5 384.375 765.5C389.916655 765.5 392.833345 766.55 397.791655 770.05L391.666655 751.85C388.458345 770.75 385.833345 781.25 385.833345 789.65C385.833345 808.55 396.041655 814.85 413.833345 814.85C420.25 814.85 425.791655 813.1 429.583345 811.35C429.583345 800.5 429.583345 787.9 429.583345 775.65C429.583345 758.5 427.541655 744.15 417.625 732.25C407.708345 720.35 397.208345 713.0 382.333345 713.0Z" fill="#1a1a1a"/><path d="M494.625 965.0H599.916655C600.5 959.05 601.083345 953.45 601.083345 946.1C601.083345 924.05 594.958345 912.5 581.25 912.5H512.708345C512.708345 856.5 512.708345 797.0 512.708345 748.0C512.708345 722.45 505.708345 716.5 485.0 716.5C476.25 716.5 468.958345 717.9 462.25 720.0C464.875 731.9 466.041655 744.5 466.041655 758.5C466.041655 808.9 466.041655 858.95 466.041655 909.35C466.041655 934.2 474.791655 965.0 494.625 965.0Z" fill="#1a1a1a"/><path d="M784.541655 965.0C785.125 962.2 785.416655 958.7 785.416655 954.15C785.416655 930.0 780.166655 912.5 760.625 912.5H741.666655C727.666655 912.5 707.833345 913.55 692.666655 915.3V913.2C705.208345 900.95 713.083345 893.95 725.333345 878.9C757.708345 840.4 785.125 797.7 785.416655 777.75V774.6C785.416655 734.7 779.875 720.0 764.416655 720.0H648.333345C647.75 724.9 646.875 732.25 646.875 739.25C646.875 760.25 655.041655 770.75 675.166655 770.75H691.5C718.625 770.75 729.708345 769.7 738.75 766.55V768.65C732.333345 784.05 726.791655 795.25 717.75 811.7C696.75 850.55 672.833345 881.7 639.583345 916.0V921.25C639.583345 948.55 645.708345 965.0 666.125 965.0Z" fill="#1a1a1a"/><path d="M793.0 975.5C791.833345 981.1 791.25 987.75 791.541655 995.1C791.82456 1011.055921486435 795.94672 1021.94976109431 803.208345 1029.05C808.28254 1033.997347805505 816.24182 1038.5 828.291655 1038.5C852.208345 1038.5 877.291655 1019.95 877.291655 977.25C877.291655 914.95 877.291655 857.2 877.291655 783.35C877.291655 761.3 879.041655 753.6 883.708345 748.0C887.208345 743.8 892.166655 742.75 897.125 742.75C899.51018 742.75 901.66793 743.05757694737 903.833345 743.8C904.45533 755.742267613325 903.80601 766.024968343375 901.5 778.1V780.2C903.833345 780.9 906.458345 781.25 908.791655 781.25C924.716655 781.25 935.333345 765.196666666655 935.333345 747.65V743.1C935.333345 730.22264150943 932.571775 717.784322773895 923.666655 708.1C917.388425 700.9085704962799 908.0625 695.5 892.458345 695.5C854.7617 695.5 830.625 724.9 830.625 771.8C830.625 835.5 830.625 897.45 830.625 959.75C830.625 969.55 829.75 977.6 828.0 983.55C826.25 984.25 821.875 985.3 815.75 985.3C808.75 985.3 802.110885 983.47824644883 794.75 975.5ZM804.666655 831.3C804.666655 833.4 804.666655 835.5 804.666655 837.95C804.666655 872.95 815.75 883.8 856.0 883.8H905.0C906.166655 877.85 907.041655 869.8 907.041655 861.75C907.041655 838.65 900.041655 831.3 877.0 831.3Z" fill="#1a1a1a"/><path d="M983.166655 776.0C981.708345 784.4 981.416655 788.95 981.416655 797.0C981.416655 816.25 984.916655 828.5 991.041655 828.5C996.0 828.5 1000.375 825.35 1003.0 822.2L1004.75 822.9C1004.75 853.35 1004.75 880.3 1004.75 921.25C1004.75 942.25 1021.958345 968.5 1049.666655 968.5C1057.25 968.5 1062.791655 966.4 1067.75 960.45C1072.416655 954.85 1075.625 942.25 1075.625 924.4C1075.625 920.2 1075.333345 915.65 1074.458345 911.1H1072.708345C1066.875 916.0 1062.208345 917.75 1056.083345 917.75C1052.875 917.75 1049.958345 917.05 1048.5 916.0C1048.5 909.35 1048.5 899.9 1048.5 889.75C1048.5 862.1 1048.5 834.8 1048.5 795.25C1048.5 783.7 1037.125 772.5 1006.791655 772.5C995.416655 772.5 989.583345 773.9 983.166655 776.0ZM982.816655 723.675C982.816655 747.54815 1002.16847 766.9 1026.041655 766.9C1049.91484 766.9 1069.266655 747.54815 1069.266655 723.675C1069.266655 699.8018500000001 1049.91484 680.45 1026.041655 680.45C1002.16847 680.45 982.816655 699.8018500000001 982.816655 723.675Z" fill="#1a1a1a"/><path d="M1155.541655 702.5C1154.375 708.1 1153.208345 716.85 1153.208345 724.9C1153.208345 750.8 1157.583345 759.55 1164.0 759.55C1166.333345 759.55 1170.708345 758.5 1173.333345 755.35L1174.791655 756.05C1174.791655 806.8 1174.791655 860.35 1174.791655 910.75C1174.791655 936.65 1184.416655 968.5 1216.791655 968.5C1225.541655 968.5 1233.125 967.1 1238.083345 961.15C1242.458345 955.9 1245.958345 942.6 1245.958345 925.8C1245.958345 918.1 1245.666655 913.55 1244.791655 909.0H1243.041655C1239.541655 913.55 1234.291655 916.0 1229.041655 916.0C1224.666655 916.0 1222.333345 914.6 1220.291655 912.85C1218.833345 906.2 1218.541655 898.15 1218.541655 888.0C1218.541655 835.85 1218.541655 785.8 1218.541655 733.65C1218.541655 711.6 1208.333345 699.0 1188.208345 699.0C1179.75 699.0 1167.5 699.7 1155.541655 702.5Z" fill="#1a1a1a"/><path d="M1328.5 776.0C1327.041655 786.15 1326.458345 792.8 1326.458345 801.55C1326.458345 818.7 1330.833345 830.25 1338.708345 830.25C1341.333345 830.25 1344.25 828.15 1347.166655 825.0L1348.916655 825.7C1348.916655 862.45 1348.916655 897.8 1348.916655 934.9C1348.916655 956.6 1360.291655 967.1 1379.541655 967.1C1385.375 967.1 1391.208345 966.4 1397.041655 965.0C1393.541655 950.65 1392.666655 938.75 1392.666655 922.65C1392.666655 887.3 1392.666655 852.3 1392.666655 829.9C1392.666655 784.05 1377.208345 772.5 1355.625 772.5C1346.583345 772.5 1336.666655 773.55 1328.5 776.0ZM1429.125 769.0C1414.541655 769.0 1400.833345 784.4 1394.708345 822.2H1387.708345V909.0C1398.5 849.85 1409.291655 830.6 1417.75 830.6C1418.916655 830.6 1419.5 830.95 1420.375 831.65C1420.375 834.45 1420.375 837.6 1419.791655 841.8V843.9C1421.25 844.6 1423.0 844.95 1427.666655 844.95C1442.833345 844.95 1451.291655 828.15 1451.291655 812.05V807.5C1451.291655 792.8 1448.083345 781.95 1442.833345 775.65C1439.041655 771.1 1434.375 769.0 1429.125 769.0Z" fill="#1a1a1a"/><path d="M1523.333345 872.6V877.15C1523.333345 958.7 1560.958345 1010.5 1658.083345 1010.5C1700.958345 1010.5 1722.541655 1005.95 1732.166655 996.85C1739.458345 989.85 1741.208345 973.75 1741.208345 961.15C1741.208345 958.0 1741.208345 954.5 1741.208345 951.35H1739.458345C1708.541655 961.15 1684.041655 965.0 1653.125 965.0C1624.25 965.0 1599.166655 959.75 1579.333345 947.85C1570.0 932.1 1564.166655 906.9 1564.166655 877.15V873.65C1564.166655 797.35 1591.583345 748.0 1658.083345 748.0C1678.5 748.0 1695.416655 750.8 1708.833345 758.85C1713.5 775.65 1714.958345 780.2 1714.958345 816.25C1714.958345 846.7 1714.958345 876.8 1714.958345 907.25C1714.958345 934.9 1741.208345 942.6 1762.5 942.6H1766.875C1765.125 929.65 1764.541655 917.75 1764.541655 906.9C1764.541655 876.1 1764.541655 845.3 1764.541655 814.5C1764.541655 744.85 1724.583345 695.5 1658.666655 695.5C1574.666655 695.5 1523.333345 763.05 1523.333345 872.6ZM1727.5 844.25C1703.875 872.6 1684.625 881.0 1668.875 881.0C1652.25 881.0 1647.0 872.25 1647.0 858.25V854.4C1647.0 842.85 1648.166655 837.95 1650.791655 828.85C1659.25 825.35 1666.25 823.6 1682.291655 823.6C1701.25 823.6 1707.083345 826.05 1718.166655 829.2L1724.291655 794.2H1712.916655C1703.875 785.1 1691.041655 780.2 1678.208345 780.2C1629.5 780.2 1596.833345 821.15 1596.833345 858.25V861.4C1596.833345 913.55 1622.5 937.0 1654.875 937.0C1680.25 937.0 1699.5 926.15 1713.5 895.35H1733.041655Z" fill="#1a1a1a"/><path d="M1668.0 975.5C1666.833345 981.1 1666.25 987.75 1666.541655 995.1C1666.82456 1011.055921486435 1670.94672 1021.94976109431 1678.208345 1029.05C1683.28254 1033.997347805505 1691.24182 1038.5 1703.291655 1038.5C1727.208345 1038.5 1752.291655 1019.95 1752.291655 977.25C1752.291655 914.95 1752.291655 857.2 1752.291655 783.35C1752.291655 761.3 1754.041655 753.6 1758.708345 748.0C1762.208345 743.8 1767.166655 742.75 1772.125 742.75C1774.51018 742.75 1776.66793 743.05757694737 1778.833345 743.8C1779.45533 755.742267613325 1778.80601 766.024968343375 1776.5 778.1V780.2C1778.833345 780.9 1781.458345 781.25 1783.791655 781.25C1799.716655 781.25 1810.333345 765.196666666655 1810.333345 747.65V743.1C1810.333345 730.22264150943 1807.571775 717.784322773895 1798.666655 708.1C1792.388425 700.9085704962799 1783.0625 695.5 1767.458345 695.5C1729.7617 695.5 1705.625 724.9 1705.625 771.8C1705.625 835.5 1705.625 897.45 1705.625 959.75C1705.625 969.55 1704.75 977.6 1703.0 983.55C1701.25 984.25 1696.875 985.3 1690.75 985.3C1683.75 985.3 1677.110885 983.47824644883 1669.75 975.5ZM1679.666655 831.3C1679.666655 833.4 1679.666655 835.5 1679.666655 837.95C1679.666655 872.95 1690.75 883.8 1731.0 883.8H1780.0C1781.166655 877.85 1782.041655 869.8 1782.041655 861.75C1782.041655 838.65 1775.041655 831.3 1752.0 831.3ZM1799.83331 776.0C1798.375 784.4 1798.08331 788.95 1798.08331 797.0C1798.08331 816.25 1801.58331 828.5 1807.70831 828.5C1812.666655 828.5 1817.041655 825.35 1819.666655 822.2L1821.416655 822.9C1821.416655 853.35 1821.416655 880.3 1821.416655 921.25C1821.416655 942.25 1838.625 968.5 1866.33331 968.5C1873.916655 968.5 1879.45831 966.4 1884.416655 960.45C1889.08331 954.85 1892.291655 942.25 1892.291655 924.4C1892.291655 920.2 1892.0 915.65 1891.125 911.1H1889.375C1883.541655 916.0 1878.875 917.75 1872.75 917.75C1869.541655 917.75 1866.625 917.05 1865.166655 916.0C1865.166655 909.35 1865.166655 899.9 1865.166655 889.75C1865.166655 862.1 1865.166655 834.8 1865.166655 795.25C1865.166655 783.7 1853.791655 772.5 1823.45831 772.5C1812.08331 772.5 1806.25 773.9 1799.83331 776.0ZM1799.48331 723.675C1799.48331 747.54815 1818.835125 766.9 1842.70831 766.9C1866.581495 766.9 1885.93331 747.54815 1885.93331 723.675C1885.93331 699.8018500000001 1866.581495 680.45 1842.70831 680.45C1818.835125 680.45 1799.48331 699.8018500000001 1799.48331 723.675Z" fill="#1a1a1a"/>
</svg>