<?xml version="1.0" encoding="UTF-8"?>
<svg xmlns="http://www.w3.org/2000/svg" width="1540.0" height="1057.5"
     viewBox="0 0 1540.0 1057.5">
<rect width="100%" height="100%" fill="white"/>
<text x="770.0" y="30" text-anchor="middle" font-size="14" font-family="sans-serif" font-weight="bold" fill="#333">Mono C Upright — Key glyphs close-up</text><text x="187.5" y="48" text-anchor="middle" font-size="10" font-family="sans-serif" fill="#999">H</text><text x="362.5" y="48" text-anchor="middle" font-size="10" font-family="sans-serif" fill="#999">I</text><text x="537.5" y="48" text-anchor="middle" font-size="10" font-family="sans-serif" fill="#999">J</text><text x="712.5" y="48" text-anchor="middle" font-size="10" font-family="sans-serif" fill="#999">K</text><text x="887.5" y="48" text-anchor="middle" font-size="10" font-family="sans-serif" fill="#999">L</text><text x="1062.5" y="48" text-anchor="middle" font-size="10" font-family="sans-serif" fill="#999">M</text><text x="1237.5" y="48" text-anchor="middle" font-size="10" font-family="sans-serif" fill="#999">R</text><text x="1412.5" y="48" text-anchor="middle" font-size="10" font-family="sans-serif" fill="#999">S</text><text x="20" y="221.25" font-size="11" font-family="sans-serif" font-weight="bold" fill="#555">Linear</text><path d="M110.208345 55.00000000000003C110.208345 66.55000000000001 110.208345 78.45000000000002 110.208345 90.0C110.208345 158.60000000000002 110.208345 227.55 110.208345 296.15C110.208345 298.6 111.375 300.0 113.416655 300.0C134.125 300.0 155.125 300.0 175.833345 300.0C175.833345 219.85000000000002 175.833345 139.0 175.833345 58.85000000000002C175.833345 56.400000000000006 174.666655 55.00000000000003 172.625 55.00000000000003C151.916655 55.00000000000003 130.916655 55.00000000000003 110.208345 55.00000000000003ZM139.375 139.0V208.65C139.375 210.75 140.541655 212.5 142.583345 212.5H234.166655L230.95834499999998 135.5L216.666655 139.0C209.083345 139.0 201.208345 139.0 193.625 139.0ZM264.791655 300.0C264.791655 288.45 264.791655 276.55 264.791655 265.0C264.791655 196.4 264.791655 127.45000000000002 264.791655 58.85000000000002C264.791655 56.400000000000006 263.625 55.00000000000003 261.583345 55.00000000000003C240.875 55.00000000000003 219.875 55.00000000000003 199.166655 55.00000000000003C199.166655 135.15 199.166655 216.0 199.166655 296.15C199.166655 298.6 200.333345 300.0 202.375 300.0C223.083345 300.0 244.08334499999998 300.0 264.791655 300.0Z" fill="#1a1a1a"/><path d="M395.166655 282.5C395.166655 235.60000000000002 395.166655 188.35000000000002 395.166655 141.45000000000002C395.166655 119.75 395.166655 98.05000000000001 395.166655 76.35000000000002L398.083345 72.50000000000003H329.833345C329.833345 121.5 329.833345 170.15 329.833345 219.15C329.833345 239.1 329.833345 258.7 329.833345 278.65L326.916655 282.5ZM441.25 300.0C441.25 283.9 441.25 246.45 441.25 230.35000000000002C441.25 227.9 440.083345 226.5 438.041655 226.5H283.75C283.75 242.6 283.75 280.05 283.75 296.15C283.75 298.25 284.916655 300.0 286.958345 300.0ZM283.75 55.00000000000003C283.75 71.10000000000002 283.75 108.55000000000001 283.75 124.65C283.75 126.75 284.916655 128.5 286.958345 128.5H441.25C441.25 112.4 441.25 74.95000000000002 441.25 58.85000000000002C441.25 56.400000000000006 440.083345 55.00000000000003 438.041655 55.00000000000003Z" fill="#1a1a1a"/><path d="M516.791655 231.75C497.541655 231.75 480.333345 227.55 464.583345 216.35000000000002H458.75C458.75 239.45 458.75 264.3 458.75 287.4C458.75 288.45 459.041655 289.5 459.625 290.2C464.0 295.45 491.125 307.0 523.208345 307.0C577.166655 307.0 613.041655 273.4 613.041655 205.5C613.041655 155.835 613.041655 104.66499999999999 613.041655 55.00000000000003C613.041655 52.20000000000002 606.24581 50.80000000000001 589.25625 50.80000000000001C582.460405 50.80000000000001 575.664595 50.80000000000001 568.86875 50.80000000000001C551.87919 50.80000000000001 545.083345 52.20000000000002 545.083345 55.00000000000003C545.083345 55.00000000000003 545.083345 55.00000000000003 545.083345 55.00000000000003C545.083345 55.00000000000003 545.083345 55.00000000000003 545.083345 55.00000000000003C545.083345 103.97200000000001 545.083345 154.428 545.083345 203.4C545.083345 212.5 543.041655 219.15 539.541655 223.35000000000002C534.583345 229.65 526.708345 231.75 516.791655 231.75Z" fill="#1a1a1a"/><path d="M739.625 158.95000000000002 694.125 231.4H712.208345C714.25 252.4 713.666655 251.35 721.25 269.9C732.625 297.55 742.25 303.5 768.791655 303.5C775.208345 303.5 785.708345 303.5 788.041655 303.5C790.083345 303.5 791.25 302.1 791.25 299.65C791.25 297.2 791.25 253.1 791.25 230.0H783.958345C782.791655 230.0 781.625 230.0 780.458345 230.0C776.375 230.0 774.333345 227.9 771.708345 222.65C760.916655 201.3 750.416655 180.3 739.625 158.95000000000002ZM794.166655 55.00000000000003H727.375C722.125 71.80000000000001 720.375 79.15 713.083345 104.0C705.5 129.9 705.791655 128.5 702.291655 158.25H684.208345V259.4C731.75 202.35000000000002 738.75 190.45 780.458345 96.30000000000001C796.208345 61.30000000000001 796.791655 59.55000000000001 796.791655 57.80000000000001C796.791655 56.400000000000006 795.625 55.00000000000003 794.166655 55.00000000000003ZM632.291655 55.00000000000003C632.291655 66.55000000000001 632.291655 78.45000000000002 632.291655 90.0C632.291655 158.60000000000002 632.291655 227.55 632.291655 296.15C632.291655 298.6 633.458345 300.0 635.5 300.0C656.208345 300.0 675.75 300.0 696.458345 300.0C696.458345 219.85000000000002 696.458345 139.0 696.458345 58.85000000000002C696.458345 56.75000000000003 695.291655 55.00000000000003 693.25 55.00000000000003C672.541655 55.00000000000003 653.0 55.00000000000003 632.291655 55.00000000000003Z" fill="#1a1a1a"/><path d="M813.416655 300.0H966.25C966.25 264.3 937.958345 226.5 910.541655 226.5H878.75C878.75 169.45000000000002 878.75 115.9 878.75 58.85000000000002C878.75 56.75000000000003 877.583345 55.00000000000003 875.541655 55.00000000000003C853.666655 55.00000000000003 832.083345 55.00000000000003 810.208345 55.00000000000003C810.208345 66.55000000000001 810.208345 78.10000000000002 810.208345 89.65C810.208345 158.25 810.208345 227.55 810.208345 296.15C810.208345 298.6 811.375 300.0 813.416655 300.0Z" fill="#1a1a1a"/><path d="M1040.333345 300.0C1040.333345 291.6 1040.333345 286.7 1040.333345 279.35C1040.333345 254.5 1041.208345 264.65 1014.083345 120.45000000000002L1011.75 127.80000000000001H1023.708345L1019.625 120.45000000000002C1032.458345 164.55 1045.875 209.7 1058.708345 253.8C1059.583345 256.25 1061.041655 256.6 1062.208345 256.6C1063.375 256.6 1064.25 256.6 1065.416655 256.6C1078.25 212.85000000000002 1092.833345 163.85000000000002 1105.666655 120.10000000000002L1099.25 127.80000000000001H1111.791655L1110.916655 120.10000000000002C1084.083345 264.65 1084.666655 255.55 1084.666655 279.35C1084.666655 285.65 1084.666655 291.6 1084.666655 296.15C1084.666655 298.25 1085.833345 300.0 1087.875 300.0C1105.958345 300.0 1124.333345 300.0 1142.416655 300.0C1142.416655 288.45 1142.416655 277.25 1142.416655 265.7C1142.416655 196.75 1142.416655 127.80000000000001 1142.416655 58.85000000000002C1142.416655 56.75000000000003 1141.25 55.00000000000003 1139.208345 55.00000000000003C1120.25 55.00000000000003 1101.583345 55.00000000000003 1082.041655 55.00000000000003C1070.958345 97.35000000000002 1069.208345 108.20000000000002 1064.541655 146.0L1073.583345 135.5H1052.291655L1060.75 146.0C1055.791655 107.15 1055.791655 99.45000000000002 1045.583345 63.75000000000003C1043.25 55.00000000000003 1041.208345 55.00000000000003 1035.375 55.00000000000003C1019.916655 55.00000000000003 1001.541655 55.00000000000003 982.583345 55.00000000000003C982.291655 66.55000000000001 982.291655 77.75 982.583345 89.30000000000001C982.583345 158.25 982.583345 227.2 982.583345 296.15C982.583345 298.25 983.75 300.0 985.791655 300.0C1003.875 300.0 1022.25 300.0 1040.333345 300.0Z" fill="#1a1a1a"/><path d="M1277.458345 184.5 1227.291655 217.05C1234.875 234.55 1242.166655 252.4 1249.75 269.9C1262.291655 297.9 1270.166655 303.5 1296.708345 303.5C1302.833345 303.5 1308.84897 303.5 1315.083345 303.5C1317.125 303.5 1318.291655 302.1 1318.291655 299.65C1318.291655 276.55 1318.291655 253.1 1318.291655 230.0H1308.958345C1307.791655 230.0 1306.625 230.0 1305.458345 230.0C1301.375 230.0 1299.333345 227.55 1296.708345 222.65C1290.291655 210.05 1283.875 197.10000000000002 1277.458345 184.5ZM1160.208345 55.00000000000003C1160.208345 77.05000000000001 1160.208345 99.10000000000002 1160.208345 121.15C1160.208345 123.60000000000002 1160.208345 125.0 1160.208345 125.0C1181.5 125.0 1208.625 125.0 1235.458345 125.0C1240.125 125.0 1244.5 125.35000000000002 1247.125 128.5C1249.458345 130.95000000000002 1250.625 135.15 1250.625 142.85000000000002V147.4C1250.625 163.5 1247.708345 167.0 1234.291655 167.0C1223.208345 167.0 1212.125 167.0 1201.041655 167.0V231.4L1204.25 228.25C1220.583345 228.25 1237.208345 228.25 1253.541655 228.25C1292.625 228.25 1319.75 198.44512711865002 1319.75 147.4V133.4C1319.75 79.5 1297.583345 55.00000000000003 1249.458345 55.00000000000003C1216.791655 55.00000000000003 1184.125 55.00000000000003 1160.208345 55.00000000000003ZM1226.125 300.0C1226.125 289.15 1226.125 277.25 1226.125 264.65C1226.125 225.8 1226.125 186.95 1226.125 148.10000000000002C1226.125 124.30000000000001 1226.125 100.15 1226.125 76.35000000000002L1230.791655 72.50000000000003H1160.208345C1160.208345 147.05 1160.208345 221.60000000000002 1160.208345 296.15C1160.208345 298.25 1161.375 300.0 1163.416655 300.0C1184.416655 300.0 1205.125 300.0 1226.125 300.0Z" fill="#1a1a1a"/><path d="M1420.083345 48.00000000000003C1367.583345 48.00000000000003 1335.208345 77.05000000000001 1335.208345 120.45000000000002V136.20000000000002C1335.208345 167.70000000000002 1340.75 190.10000000000002 1390.916655 202.7L1417.458345 209.7C1427.375 212.15 1430.0 217.05 1430.0 221.60000000000002V225.45C1430.0 231.75 1426.5 237.0 1407.25 237.0C1380.125 237.0 1359.416655 230.0 1339.583345 217.05H1333.75C1333.75 239.8 1333.75 262.55 1333.75 285.3C1333.75 286.35 1334.041655 287.4 1334.625 288.1C1341.333345 296.15 1371.666655 307.0 1405.5 307.0C1458.0 307.0 1491.25 283.55 1491.25 235.25V217.05C1491.25 177.85000000000002 1480.75 161.05 1438.75 150.9L1409.0 143.55C1398.208345 141.10000000000002 1396.458345 136.9 1396.458345 130.25V126.75C1396.458345 115.55000000000001 1408.416655 114.5 1421.833345 114.5C1428.25 114.5 1432.916655 115.20000000000002 1439.916655 118.35000000000002L1436.598305 110.80841000000001C1436.644435 111.43067500000001 1436.65336 112.80526500000002 1436.607755 112.68367500000002C1436.4918 111.30212 1436.524875 109.78053000000003 1437.16205 107.55894C1443.994295 105.33738500000001 1450.5987949999999 103.11579500000002 1457.20585 100.89420500000003C1456.465355 90.552615 1455.613805 80.63105999999999 1454.657325 70.28947000000002C1453.604945 66.80788000000001 1452.3516300000001 64.166325 1450.561275 61.24473499999999C1447.31639 56.64314500000003 1436.21761 50.22159000000002 1420.083345 48.00000000000003Z" fill="#1a1a1a"/><line x1="20" y1="382.5" x2="1520.0" y2="382.5" stroke="#eee" stroke-width="0.5"/><text x="20" y="553.75" font-size="11" font-family="sans-serif" font-weight="bold" fill="#555">SemiCasual</text><path d="M108.458345 387.5C109.625 399.925 110.208345 413.75 110.208345 429.5C110.208345 491.975 110.208345 554.8 110.208345 610.275C110.208345 627.075 116.0416725 633.725 132.229155 633.725C146.9583275 633.725 161.6875 633.375 175.833345 632.5C175.833345 557.775 175.833345 482.70000000000005 175.833345 407.975C175.833345 392.75 169.416655 385.75 153.8125 385.75C138.5 385.75 123.3333275 386.275 108.458345 387.5ZM120.4166725 476.75C120.4166725 476.75 120.4166725 516.475 120.4166725 516.475C120.4166725 545.525 123.3333275 550.25 141.5625 550.25C141.5625 550.25 224.979155 550.25 224.979155 550.25C224.979155 550.25 223.375 475.0 223.375 475.0C223.375 475.0 207.041655 481.65 207.041655 481.65C199.1666725 477.975 191.4375 476.75 180.5 476.75C180.5 476.75 120.4166725 476.75 120.4166725 476.75ZM266.541655 632.5C265.375 620.075 264.791655 606.25 264.791655 590.5C264.791655 528.025 264.791655 465.20000000000005 264.791655 405.875C264.791655 393.275 256.3333275 386.275 242.77084499999998 386.275C228.0416725 386.275 213.3125 386.625 199.166655 387.5C199.166655 462.225 199.166655 537.3 199.166655 612.025C199.166655 626.725 206.458345 634.25 221.1875 634.25C236.5 634.25 251.66667249999998 633.725 266.541655 632.5Z" fill="#1a1a1a"/><path d="M395.3125 596.275C395.3125 556.725 395.3125 528.375 395.3125 484.275C395.3125 466.6 394.875 451.375 390.9375 435.975C390.9375 435.975 396.333345 423.725 396.333345 423.725C396.333345 423.725 329.6875 423.725 329.6875 423.725C329.6875 464.32500000000005 329.6875 493.375 329.6875 538.525C329.6875 555.325 330.125 569.5 334.0625 584.025C334.0625 584.025 328.666655 596.275 328.666655 596.275C328.666655 596.275 395.3125 596.275 395.3125 596.275ZM438.3333275 632.5C439.2083275 621.125 439.7916725 597.15 439.7916725 584.025C439.7916725 567.575 434.395845 559.0 423.3125 559.0C423.3125 559.0 286.2291725 559.0 286.2291725 559.0C285.6458275 571.075 285.2083275 594.7 285.2083275 607.475C285.2083275 619.375 285.9375 632.5 302.5625 632.5C302.5625 632.5 438.3333275 632.5 438.3333275 632.5ZM286.2291725 387.5C285.6458275 399.57500000000005 285.2083275 423.20000000000005 285.2083275 435.975C285.2083275 452.25 290.75 461.0 302.5625 461.0C302.5625 461.0 438.3333275 461.0 438.3333275 461.0C439.2083275 449.625 439.7916725 425.65 439.7916725 412.525C439.7916725 395.20000000000005 434.833345 387.5 423.3125 387.5C423.3125 387.5 286.2291725 387.5 286.2291725 387.5Z" fill="#1a1a1a"/><path d="M524.958345 564.25C499.4375 564.25 484.708345 560.575 463.708345 546.925H459.916655C458.3125 564.075 457.583345 582.1 457.583345 600.125C457.583345 610.975 459.1875 618.5 463.416655 623.4C470.41669 631.8 492.583345 639.5 522.770845 639.5C576.729155 639.5 613.041655 605.2 613.041655 545.0C613.041655 493.025 613.041655 439.475 613.041655 387.5C613.041655 384.70000000000005 606.24581 383.3 589.25625 383.3C582.460405 383.3 575.664595 383.3 568.86875 383.3C551.87919 383.3 545.083345 384.70000000000005 545.083345 387.5C545.083345 387.5 545.083345 387.5 545.083345 387.5C545.083345 387.5 545.083345 387.5 545.083345 387.5C545.083345 438.55100000000004 545.083345 491.149 545.083345 542.2C545.083345 549.375 544.0625 555.325 542.166655 559.525C537.791655 563.025 531.958345 564.25 524.958345 564.25Z" fill="#1a1a1a"/><path d="M744.5833275 498.275C744.5833275 498.275 700.5416725 563.375 700.5416725 563.375C700.5416725 563.375 713.958345 563.375 713.958345 563.375C716.2916725 581.75 717.4583275 587.0 723.5833275 603.1C733.2083275 628.475 745.8958275 637.75 767.041655 637.75C774.770845 637.75 783.083345 636.175 786.5833275 633.375C789.7916725 630.75 793.0 624.275 793.0 614.125C793.0 604.15 792.7083275 578.075 791.8333275 560.75C791.8333275 560.75 787.3125 560.75 787.3125 560.75C785.7083275 561.975 783.6666725 562.5 781.4791725 562.5C776.5208275 562.5 774.1875 560.575 771.5625 554.975C762.5208275 536.075 753.625 517.175 744.5833275 498.275ZM764.5625 385.75C764.5625 385.75 727.6666725 385.75 727.6666725 385.75C724.3125 409.20000000000005 722.2708275 423.725 716.583345 445.07500000000005C710.8958275 467.125 708.416655 473.425 702.4375 495.3C702.4375 495.3 682.6041725 495.3 682.6041725 495.3C682.6041725 495.3 682.458345 584.9 682.458345 584.9C725.757475 552.1778696759525 751.7614599999999 522.7968430177875 781.9166725 449.45000000000005C793.0 422.85 795.1875 412.525 795.1875 402.55C795.1875 390.3 787.1666725 385.75 764.5625 385.75ZM632.0 387.5C633.166655 399.925 633.75 413.75 633.75 429.5C633.75 491.975 633.75 554.8 633.75 610.275C633.75 627.425 639.4375 633.725 655.7708275 633.725C670.9375 633.725 684.5 633.375 698.645845 632.5C698.645845 557.775 698.645845 482.70000000000005 698.645845 407.975C698.645845 392.225 692.229155 385.75 676.625 385.75C661.3125 385.75 646.875 386.275 632.0 387.5Z" fill="#1a1a1a"/><path d="M829.3125 632.5C829.3125 632.5 963.7708275 632.5 963.7708275 632.5C965.830735 601.0546875 948.9480475 557.25 925.2708275 557.25C925.2708275 557.25 877.2916725 557.25 877.2916725 557.25C877.2916725 506.85 877.2916725 458.375 877.2916725 407.975C877.2916725 389.95000000000005 873.0625 385.75 855.2708275 385.75C839.229155 385.75 823.770845 386.275 808.458345 387.5C809.625 400.1 810.208345 413.75 810.208345 429.32500000000005C810.208345 486.025 810.208345 543.25 810.208345 603.45C810.208345 622.35 817.2083275 632.5 829.3125 632.5Z" fill="#1a1a1a"/><path d="M1042.375 632.5C1042.375 623.925 1042.375 616.925 1042.375 608.875C1042.375 575.275 1032.3125 563.375 1017.2916725 451.375C1017.2916725 451.375 1013.2083275 461.875 1013.2083275 461.875C1013.2083275 461.875 1026.1875 461.875 1026.1875 461.875C1026.1875 461.875 1019.625 451.55 1019.625 451.55C1033.9166725 508.775 1047.3333275 554.975 1056.375 581.575C1058.125 585.075 1060.3125 585.425 1062.3541725 585.425C1063.375 585.425 1065.7083275 585.425 1066.729155 585.425C1076.0625 560.05 1090.7916725 513.15 1105.375 450.85C1105.375 450.85 1099.3958275 461.175 1099.3958275 461.175C1099.3958275 461.175 1110.916655 461.175 1110.916655 461.175C1110.916655 461.175 1107.854155 450.675 1107.854155 450.675C1092.395845 563.55 1082.625 579.125 1082.625 605.9C1082.625 609.925 1082.625 613.95 1082.625 617.1C1082.625 629.525 1088.020845 634.25 1102.8958275 634.25C1116.895845 634.25 1130.75 633.725 1144.3125 632.5C1143.1458275 620.075 1142.5625 606.6 1142.5625 590.85C1142.5625 526.625 1142.5625 462.4 1142.5625 400.275C1142.5625 390.125 1137.1666725 385.75 1122.875 385.75C1108.7291725 385.75 1091.6666725 386.1 1077.375 387.32500000000005C1071.395845 425.475 1068.9166725 445.07500000000005 1063.0833275 478.675C1063.0833275 478.675 1070.375 469.925 1070.375 469.925C1070.375 469.925 1054.625 469.925 1054.625 469.925C1054.625 469.925 1062.0625 478.85 1062.0625 478.85C1056.9583275 447.175 1055.6458275 433.0 1049.8125 405.875C1047.625 388.725 1040.770845 385.75 1021.2291725 385.75C1008.541655 385.75 994.6875 386.275 980.6875 387.5C981.7083275 399.925 982.291655 413.4 982.4375 429.15C982.4375 491.8 982.4375 554.625 982.4375 617.275C982.4375 630.00961538461 987.25 633.725 1003.5833275 633.725C1017.7291725 633.725 1028.9583275 633.55 1042.375 632.5Z" fill="#1a1a1a"/><path d="M1270.1666725 512.8C1270.1666725 512.8 1225.104155 546.05 1225.104155 546.05C1232.8333275 565.825 1240.2708275 584.9 1249.3125 604.325C1261.5625 630.575 1270.75 637.75 1292.770845 637.75C1300.0625 637.75 1306.2786575 636.35 1311.7291725 633.55C1315.6666725 630.05 1317.5625 623.75 1317.5625 613.25C1317.5625 593.825 1317.2708275 578.075 1316.3958275 560.75C1316.3958275 560.75 1310.8541725 560.75 1310.8541725 560.75C1309.104155 561.975 1306.1875 562.5 1303.5625 562.5C1298.4583275 562.5 1295.1041725 560.4 1291.458345 554.275C1284.166655 541.5 1277.1666725 527.5 1270.1666725 512.8ZM1157.583345 389.25C1156.5625 404.65 1155.833345 421.8 1155.833345 441.57500000000005C1155.833345 456.45000000000005 1157.4375 461.0 1161.6666725 461.0C1176.25 461.0 1201.9321775 457.5 1232.1041725 457.5C1238.85856 457.5 1244.3583725 458.05200705147 1248.4375 460.125C1250.333345 464.32500000000005 1251.3541725 470.1 1251.3541725 478.15C1251.3541725 478.15 1251.3541725 482.0 1251.3541725 482.0C1251.3541725 500.20000000000005 1247.4166725 505.45 1235.75 505.45C1225.395845 505.45 1212.8541725 503.0 1201.625 499.32500000000005C1201.625 499.32500000000005 1205.2708275 560.225 1205.2708275 560.225C1205.2708275 560.225 1216.2083275 558.65 1216.2083275 558.65C1226.270845 560.4 1237.3541725 561.625 1247.125 561.625C1285.7708275 561.625 1319.4583275 533.072563559325 1319.4583275 472.20000000000005C1319.4583275 472.20000000000005 1319.4583275 463.625 1319.4583275 463.625C1319.4583275 418.3 1294.2291725 385.75 1246.6875 385.75C1214.4583275 385.75 1182.375 386.625 1157.583345 389.25ZM1227.875 630.75C1226.7083275 618.675 1226.125 604.85 1226.125 588.575C1226.125 553.75 1226.125 520.5 1226.125 485.85C1226.125 467.125 1225.6875 450.675 1221.75 434.225C1221.75 434.225 1228.0208275 420.225 1228.0208275 420.225C1228.0208275 420.225 1161.6666725 421.975 1161.6666725 421.975C1161.6666725 485.32500000000005 1161.6666725 548.675 1161.6666725 612.025C1161.6666725 627.25 1168.375 634.25 1183.6875 634.25C1199.1458275 634.25 1213.7291725 633.375 1227.875 630.75Z" fill="#1a1a1a"/><path d="M1420.083345 380.5C1367.583345 380.5 1335.208345 409.55 1335.208345 452.95000000000005V468.70000000000005C1335.208345 500.20000000000005 1340.75 522.6 1390.916655 535.2L1417.458345 542.2C1427.375 544.65 1430.0 549.55 1430.0 554.1V557.95C1430.0 564.25 1426.5 569.5 1407.25 569.5C1380.125 569.5 1359.416655 562.5 1339.583345 549.55H1333.75C1333.75 572.3 1333.75 595.05 1333.75 617.8C1333.75 618.85 1334.041655 619.9 1334.625 620.6C1341.333345 628.65 1371.666655 639.5 1405.5 639.5C1458.0 639.5 1491.25 616.05 1491.25 567.75V549.55C1491.25 510.35 1480.75 493.55 1438.75 483.4L1409.0 476.05C1398.208345 473.6 1396.458345 469.4 1396.458345 462.75V459.25C1396.458345 448.05 1408.416655 447.0 1421.833345 447.0C1428.25 447.0 1432.916655 447.70000000000005 1439.916655 450.85L1440.4488999999999 450.28587000000005C1440.66737 448.67559000000006 1440.58841 446.14222000000007 1440.229345 442.80882C1439.60911 438.798485 1438.74839 434.23431000000005 1437.670355 429.23935500000005C1436.40066 423.93668 1434.96783 418.44941500000004 1433.40347 412.900585C1431.742335 407.41332 1430.022155 402.110645 1428.28381 397.11569C1426.57098 392.551515 1424.93004 388.54118 1423.40957 385.20778C1422.06011 382.67440999999997 1420.93367 381.06413000000003 1420.083345 380.5Z" fill="#1a1a1a"/><line x1="20" y1="715.0" x2="1520.0" y2="715.0" stroke="#eee" stroke-width="0.5"/><text x="20" y="886.25" font-size="11" font-family="sans-serif" font-weight="bold" fill="#555">Casual</text><path d="M106.708345 720.0C109.041655 733.3 110.208345 749.05 110.208345 769.0C110.208345 825.35 110.208345 882.05 110.208345 924.4C110.208345 955.55 120.708345 967.45 151.041655 967.45C159.791655 967.45 168.25 966.75 175.833345 965.0C175.833345 895.7 175.833345 826.4 175.833345 757.1C175.833345 729.1 164.166655 716.5 135.0 716.5C125.08334500000001 716.5 115.75 717.55 106.708345 720.0ZM101.458345 814.5V824.3C101.458345 880.3 106.125 888.0 140.541655 888.0H215.791655V814.5L197.416655 824.3C189.25 816.95 181.666655 814.5 167.375 814.5ZM268.291655 965.0C265.958345 951.7 264.791655 935.95 264.791655 916.0C264.791655 859.65 264.791655 802.95 264.791655 752.9C264.791655 730.15 249.041655 717.55 223.958345 717.55C215.208345 717.55 206.75 718.25 199.166655 720.0C199.166655 789.3 199.166655 858.6 199.166655 927.9C199.166655 954.85 212.583345 968.5 240.0 968.5C249.916655 968.5 259.25 967.45 268.291655 965.0Z" fill="#1a1a1a"/><path d="M395.458345 910.05C395.458345 877.85 395.458345 868.4 395.458345 827.1C395.458345 813.45 394.583345 804.7 386.708345 795.6L394.583345 774.95H329.541655C329.541655 807.15 329.541655 816.6 329.541655 857.9C329.541655 871.55 330.416655 880.3 338.291655 889.4L330.416655 910.05ZM435.416655 965.0C437.166655 958.35 438.333345 947.85 438.333345 937.7C438.333345 907.25 428.708345 891.5 408.583345 891.5H288.708345C287.541655 899.55 286.666655 909.35 286.666655 918.8C286.666655 940.5 286.958345 965.0 318.166655 965.0ZM288.708345 720.0C287.541655 728.05 286.666655 737.85 286.666655 747.3C286.666655 777.75 296.583345 793.5 318.166655 793.5H435.416655C437.166655 786.85 438.333345 776.35 438.333345 766.2C438.333345 734.0 429.583345 720.0 408.583345 720.0Z" fill="#1a1a1a"/><path d="M533.125 896.75C501.333345 896.75 489.083345 893.6 462.833345 877.5H461.083345C457.875 888.7 456.416655 899.9 456.416655 912.85C456.416655 933.5 459.333345 947.5 467.208345 956.6C476.833345 968.15 494.041655 972.0 522.333345 972.0C576.291655 972.0 613.041655 937.0 613.041655 884.5C613.041655 830.215 613.041655 774.2850000000001 613.041655 720.0C613.041655 717.2 606.24581 715.8 589.25625 715.8C582.460405 715.8 575.664595 715.8 568.86875 715.8C551.87919 715.8 545.083345 717.2 545.083345 720.0C545.083345 720.0 545.083345 720.0 545.083345 720.0C545.083345 720.0 545.083345 720.0 545.083345 720.0C545.083345 773.13 545.083345 827.87 545.083345 881.0C545.083345 886.25 545.083345 891.5 544.791655 895.7C541.0 896.4 537.208345 896.75 533.125 896.75Z" fill="#1a1a1a"/><path d="M749.541655 837.6 706.958345 895.35H715.708345C718.333345 911.1 721.25 922.65 725.916655 936.3C733.791655 959.4 749.541655 972.0 765.291655 972.0C774.333345 972.0 780.458345 968.85 785.125 963.25C789.5 958.0 794.75 946.45 794.75 928.6C794.75 911.1 794.166655 903.05 792.416655 891.5H790.666655C788.625 893.95 785.708345 895.0 782.5 895.0C776.666655 895.0 774.041655 893.25 771.416655 887.3C764.125 870.85 756.833345 854.05 749.541655 837.6ZM734.958345 716.5H727.958345C726.5 746.6 724.166655 768.3 720.083345 786.15C716.291655 804.35 711.041655 818.35 702.583345 832.35H681.0L680.708345 910.4C719.76495 902.005739351905 764.77292 855.143686035575 783.375 802.6C789.791655 784.4 793.583345 765.5 793.583345 747.3C793.583345 724.2 778.708345 716.5 734.958345 716.5ZM631.708345 720.0C634.041655 733.3 635.208345 749.05 635.208345 769.0C635.208345 825.35 635.208345 882.05 635.208345 924.4C635.208345 956.25 645.416655 967.45 676.041655 967.45C685.666655 967.45 693.25 966.75 700.833345 965.0C700.833345 895.7 700.833345 826.4 700.833345 757.1C700.833345 727.7 689.166655 716.5 660.0 716.5C650.083345 716.5 640.75 717.55 631.708345 720.0Z" fill="#1a1a1a"/><path d="M845.208345 965.0H961.291655C965.41147 937.809375 959.93775 888.0 940.0 888.0H875.833345C875.833345 844.25 875.833345 800.85 875.833345 757.1C875.833345 723.15 868.541655 716.5 835.0 716.5C824.791655 716.5 815.458345 717.55 806.708345 720.0C809.041655 733.65 810.208345 749.4 810.208345 769.0C810.208345 813.8 810.208345 858.95 810.208345 910.75C810.208345 946.1 823.041655 965.0 845.208345 965.0Z" fill="#1a1a1a"/><path d="M1044.416655 965.0C1044.416655 956.25 1044.416655 947.15 1044.416655 938.4C1044.416655 896.05 1023.416655 862.1 1020.5 782.3L1014.666655 795.95H1028.666655L1019.625 782.65C1035.375 853.0 1048.791655 900.25 1054.041655 909.35C1056.666655 913.9 1059.583345 914.25 1062.5 914.25C1063.375 914.25 1067.166655 914.25 1068.041655 914.25C1073.875 907.25 1088.75 862.45 1105.083345 781.6L1099.541655 794.55H1110.041655L1104.791655 781.25C1100.708345 862.45 1080.583345 902.7 1080.583345 932.45C1080.583345 934.2 1080.583345 936.3 1080.583345 938.05C1080.583345 960.8 1090.208345 968.5 1117.916655 968.5C1127.833345 968.5 1137.166655 967.45 1146.208345 965.0C1143.875 951.7 1142.708345 935.95 1142.708345 916.0C1142.708345 856.5 1142.708345 797.0 1142.708345 741.7C1142.708345 723.5 1133.083345 716.5 1106.541655 716.5C1097.208345 716.5 1081.75 717.2 1072.708345 719.65C1071.833345 753.6 1068.625 781.95 1061.625 811.35L1067.166655 804.35H1056.958345L1063.375 811.7C1058.125 787.2 1055.5 766.55 1054.041655 748.0C1052.0 722.45 1040.333345 716.5 1007.083345 716.5C997.166655 716.5 987.833345 717.55 978.791655 720.0C981.125 733.3 982.291655 749.05 982.291655 769.0C982.291655 825.35 982.291655 882.05 982.291655 938.4C982.291655 961.76923076922 990.75 967.45 1021.375 967.45C1031.583345 967.45 1035.666655 967.1 1044.416655 965.0Z" fill="#1a1a1a"/><path d="M1262.875 841.1 1222.916655 875.05C1230.791655 897.1 1238.375 917.4 1248.875 938.75C1260.833345 963.25 1271.333345 972.0 1288.833345 972.0C1297.291655 972.0 1303.708345 969.2 1308.375 963.6C1314.208345 956.6 1316.833345 945.4 1316.833345 926.85C1316.833345 911.1 1316.25 903.05 1314.5 891.5H1312.75C1310.416655 893.95 1305.75 895.0 1301.666655 895.0C1295.541655 895.0 1290.875 893.25 1286.208345 885.9C1278.041655 872.95 1270.458345 857.9 1262.875 841.1ZM1154.958345 723.5C1152.916655 732.25 1151.458345 744.5 1151.458345 762.0C1151.458345 789.3 1154.666655 797.0 1163.125 797.0C1171.0 797.0 1195.239355 790.0 1228.75 790.0C1237.59212 790.0 1244.216745 790.75401410294 1249.75 791.75C1251.208345 797.7 1252.083345 805.05 1252.083345 813.45V816.6C1252.083345 836.9 1247.125 843.9 1237.208345 843.9C1227.583345 843.9 1213.583345 839.0 1202.208345 831.65L1209.5 889.05H1228.166655C1231.958345 892.55 1237.5 895.0 1240.708345 895.0C1278.916655 895.0 1319.166655 867.7 1319.166655 797.0V793.85C1319.166655 757.1 1290.875 716.5 1243.916655 716.5C1212.125 716.5 1180.625 718.25 1154.958345 723.5ZM1229.625 961.5C1227.291655 948.2 1226.125 932.45 1226.125 912.5C1226.125 881.7 1226.125 854.05 1226.125 823.6C1226.125 809.95 1225.25 801.2 1217.375 792.1L1225.25 767.95L1163.125 771.45C1163.125 823.6 1163.125 875.75 1163.125 927.9C1163.125 956.25 1175.375 968.5 1203.958345 968.5C1213.875 968.5 1222.333345 966.75 1229.625 961.5Z" fill="#1a1a1a"/><path d="M1425.625 713.0C1373.708345 713.0 1335.791655 752.55 1335.791655 801.55V806.1C1335.791655 836.55 1349.791655 855.1 1390.625 869.8L1418.041655 879.6C1426.208345 882.75 1432.041655 886.95 1435.541655 892.9V893.6C1430.875 896.4 1422.708345 897.1 1411.625 897.1C1383.041655 897.1 1359.708345 886.95 1336.666655 871.9H1334.916655C1333.458345 878.9 1332.583345 889.05 1332.583345 900.6C1332.583345 923.7 1336.375 939.1 1344.541655 949.6C1356.5 965.35 1378.083345 972.0 1412.5 972.0C1459.166655 972.0 1492.416655 950.3 1492.416655 903.75V900.6C1492.416655 881.7 1481.916655 852.3 1438.75 837.25L1410.75 827.45C1398.5 823.25 1396.75 819.75 1396.75 813.1V812.05C1396.75 801.2 1407.833345 786.85 1425.041655 786.85C1430.0 786.85 1433.208345 787.2 1439.041655 788.25C1445.75 777.75 1452.75 767.25 1457.81653 758.1978799999999C1456.9668 746.58159 1452.7661 736.505265 1446.511705 727.82894C1441.019435 720.132615 1434.673305 715.376325 1425.625 713.0Z" fill="#1a1a1a"/>
</svg>