<?xml version="1.0" encoding="UTF-8"?>
<svg xmlns="http://www.w3.org/2000/svg" width="1890.0" height="725.0"
     viewBox="0 0 1890.0 725.0">
<rect width="100%" height="100%" fill="white"/>
<text x="945.0" y="30" text-anchor="middle" font-size="14" font-family="sans-serif" font-weight="bold" fill="#333">Sans C Upright — Key glyphs + features</text><text x="187.5" y="48" text-anchor="middle" font-size="10" font-family="sans-serif" fill="#999">J</text><text x="362.5" y="48" text-anchor="middle" font-size="10" font-family="sans-serif" fill="#999">S</text><text x="537.5" y="48" text-anchor="middle" font-size="10" font-family="sans-serif" fill="#999">L</text><text x="712.5" y="48" text-anchor="middle" font-size="10" font-family="sans-serif" fill="#999">Z</text><text x="887.5" y="48" text-anchor="middle" font-size="10" font-family="sans-serif" fill="#999">f</text><text x="1062.5" y="48" text-anchor="middle" font-size="10" font-family="sans-serif" fill="#999">i</text><text x="1237.5" y="48" text-anchor="middle" font-size="10" font-family="sans-serif" fill="#999">l</text><text x="1412.5" y="48" text-anchor="middle" font-size="10" font-family="sans-serif" fill="#999">r</text><text x="1587.5" y="48" text-anchor="middle" font-size="10" font-family="sans-serif" fill="#999">@</text><text x="1762.5" y="48" text-anchor="middle" font-size="10" font-family="sans-serif" fill="#999">fi</text><text x="20" y="221.25" font-size="11" font-family="sans-serif" font-weight="bold" fill="#555">Linear</text><path d="M146.375 231.75C132.958345 231.75 124.79165499999999 229.3 113.125 221.60000000000002H107.291655C107.291655 245.05 107.291655 268.85 107.291655 292.3C107.291655 293.35 107.583345 294.4 108.166655 295.1C111.375 298.95 129.458345 307.0 152.791655 307.0C210.25 307.0 238.25 276.55 238.25 214.25C238.25 162.45000000000002 238.25 110.65 238.25 58.85000000000002C238.25 56.75000000000003 236.791655 55.00000000000003 235.041655 55.00000000000003C193.333345 55.00000000000003 151.916655 55.00000000000003 110.208345 55.00000000000003C110.208345 78.10000000000002 110.208345 101.55000000000001 110.208345 124.65C110.208345 127.10000000000002 111.375 128.5 113.416655 128.5C132.375 128.5 151.333345 128.5 187.791655 128.5L164.75 118.35000000000002L178.75 135.15L170.291655 107.5C170.291655 139.35000000000002 170.291655 171.55 170.291655 203.4C170.291655 213.2 168.541655 220.2 164.75 224.75C160.666655 229.65 154.833345 231.75 146.375 231.75Z" fill="#1a1a1a"/><path d="M370.083345 48.00000000000003C317.583345 48.00000000000003 285.208345 77.05000000000001 285.208345 120.45000000000002V136.20000000000002C285.208345 167.70000000000002 290.75 190.10000000000002 340.916655 202.7L367.458345 209.7C377.375 212.15 380.0 217.05 380.0 221.60000000000002V225.45C380.0 231.75 376.5 237.0 357.25 237.0C330.125 237.0 309.416655 230.0 289.583345 217.05H283.75C283.75 239.8 283.75 262.55 283.75 285.3C283.75 286.35 284.041655 287.4 284.625 288.1C291.333345 296.15 321.666655 307.0 355.5 307.0C408.0 307.0 441.25 283.55 441.25 235.25V217.05C441.25 177.85000000000002 430.75 161.05 388.75 150.9L359.0 143.55C348.208345 141.10000000000002 346.458345 136.9 346.458345 130.25V126.75C346.458345 115.55000000000001 358.416655 114.5 371.833345 114.5C378.25 114.5 382.916655 115.20000000000002 389.916655 118.35000000000002L381.458345 105.05000000000001C381.458345 112.15955 381.458345 121.15 381.458345 126.4C381.458345 128.5 382.041655 130.25 384.375 130.25C402.458345 130.25 420.25 130.25 438.333345 130.25C438.333345 109.95000000000002 438.333345 90.70000000000002 438.333345 70.4C438.333345 67.25000000000003 438.041655 66.20000000000002 436.583345 64.45000000000002C431.625 58.50000000000003 407.125 48.00000000000003 370.083345 48.00000000000003Z" fill="#1a1a1a"/><path d="M463.416655 300.0H601.666655C601.666655 269.55 601.666655 260.45 601.666655 231.75C601.666655 227.9 600.5 226.5 597.875 226.5H525.833345C525.833345 171.9 525.833345 113.45000000000002 525.833345 58.85000000000002C525.833345 56.400000000000006 524.666655 55.00000000000003 522.625 55.00000000000003C500.75 55.00000000000003 482.083345 55.00000000000003 460.208345 55.00000000000003C460.208345 66.55000000000001 460.208345 78.10000000000002 460.208345 89.65C460.208345 158.25 460.208345 227.55 460.208345 296.15C460.208345 298.25 461.666655 300.0 463.416655 300.0Z" fill="#1a1a1a"/><path d="M791.25 300.0C791.25 276.9 791.25 253.45 791.25 230.35000000000002C791.25 227.9 790.083345 226.5 788.041655 226.5H762.375C741.958345 226.5 727.083345 226.5 702.291655 226.5V219.5C715.708345 216.35000000000002 723.875 212.85000000000002 750.416655 181.0C762.666655 166.3 775.5 150.55 789.791655 132.0V58.85000000000002C789.791655 56.400000000000006 788.625 55.00000000000003 786.583345 55.00000000000003H633.75C633.75 79.5 633.75 97.35000000000002 633.75 119.4C633.75 123.60000000000002 634.916655 125.0 638.125 125.0H695.291655C713.958345 125.0 705.208345 125.0 730.583345 125.0V132.0C713.083345 140.4 704.916655 148.8 690.333345 164.20000000000002C672.541655 183.10000000000002 653.291655 204.45 633.75 226.85000000000002V296.15C633.75 298.6 634.916655 300.0 636.958345 300.0Z" fill="#1a1a1a"/><path d="M885.75 30.5C842.291655 30.5 820.416655 58.85000000000002 820.416655 115.55000000000001C820.416655 161.75 820.416655 214.95 820.416655 262.2H890.125L887.5 245.75C887.5 237.35 887.5 233.15 887.5 220.9C887.5 185.2 887.5 150.20000000000002 887.5 114.5C887.5 109.95000000000002 888.375 106.45000000000002 890.125 104.0C892.014405 101.73269964769 895.083345 100.5 898.875 100.5C901.791655 100.5 905.5395599999999 101.332216806085 907.916655 102.60000000000002H913.75C913.75 81.719230769245 913.75 61.18076923075503 913.75 40.30000000000001C913.75 39.25 913.458345 38.19999999999999 912.875 37.5C909.375 33.650000000000034 897.125 30.5 885.75 30.5ZM805.833345 127.10000000000002C805.833345 146.70000000000002 805.833345 168.05 805.833345 187.65C805.833345 190.10000000000002 807.0 191.5 809.041655 191.5H910.833345C910.833345 171.9 910.833345 150.55 910.833345 130.95000000000002C910.833345 128.5 909.666655 127.10000000000002 907.625 127.10000000000002ZM805.833345 226.5C805.833345 243.3 805.833345 279.35 805.833345 296.15C805.833345 298.6 807.0 300.0 809.041655 300.0H910.833345C910.833345 283.2 910.833345 247.15 910.833345 230.35000000000002C910.833345 227.9 909.666655 226.5 907.625 226.5Z" fill="#1a1a1a"/><path d="M977.916655 107.5C977.916655 130.60000000000002 977.916655 154.05 977.916655 177.15C977.916655 179.60000000000002 979.083345 181.0 981.125 181.0C982.583345 181.0 985.791655 181.0 987.25 181.0H992.5C992.5 197.8 992.5 228.25 992.5 242.6C992.5 281.1 1008.25 300.0 1040.333345 300.0C1057.25 300.0 1068.625 300.0 1070.958345 300.0C1073.0 300.0 1074.166655 298.6 1074.166655 296.15C1074.166655 273.05 1074.166655 249.6 1074.166655 226.5H1068.625C1066.583345 226.5 1063.083345 226.5 1061.041655 226.5C1060.166655 226.5 1059.291655 226.15 1059.0 225.8C1058.416655 225.10000000000002 1058.125 224.05 1058.125 222.65C1058.125 185.55 1058.125 148.45000000000002 1058.125 111.35000000000002C1058.125 108.9 1056.958345 107.5 1054.916655 107.5C1029.833345 107.5 1003.0 107.5 977.916655 107.5ZM976.615845 52.37500000000003C976.615845 78.38416500000002 997.6991800000001 99.4675 1023.708345 99.4675C1049.71751 99.4675 1070.800845 78.38416500000002 1070.800845 52.37500000000003C1070.800845 26.365835000000004 1049.71751 5.282500000000027 1023.708345 5.282500000000027C997.6991800000001 5.282500000000027 976.615845 26.365835000000004 976.615845 52.37500000000003Z" fill="#1a1a1a"/><path d="M1150.291655 37.5C1150.291655 60.60000000000002 1150.291655 84.05000000000001 1150.291655 107.15C1150.291655 109.60000000000002 1151.458345 111.0 1153.5 111.0C1155.833345 111.0 1157.583345 111.0 1159.041655 111.0H1160.5C1160.5 151.25 1160.5 191.15 1160.5 250.3C1160.5 281.45 1177.125 300.0 1205.416655 300.0C1212.708345 300.0 1228.458345 300.0 1233.125 300.0C1234.875 300.0 1236.333345 298.6 1236.333345 296.15C1236.333345 273.05 1236.333345 249.6 1236.333345 226.5H1234.291655C1232.541655 226.5 1230.5 226.5 1229.041655 226.5C1228.166655 226.5 1227.291655 226.15 1227.0 225.8C1226.416655 225.10000000000002 1226.125 224.05 1226.125 222.65C1226.125 162.45000000000002 1226.125 101.55000000000001 1226.125 41.35000000000002C1226.125 38.900000000000034 1224.666655 37.5 1222.916655 37.5C1186.166655 37.5 1163.125 37.5 1150.291655 37.5Z" fill="#1a1a1a"/><path d="M1328.208345 107.5C1328.208345 129.55 1328.208345 151.60000000000002 1328.208345 173.65C1328.208345 176.10000000000002 1329.375 177.5 1331.125 177.5C1332.0 177.5 1333.458345 177.5 1334.625 177.5H1335.5C1335.5 217.05 1335.5 256.6 1335.5 296.15C1335.5 298.6 1336.666655 300.0 1338.708345 300.0C1359.416655 300.0 1380.416655 300.0 1401.125 300.0C1401.125 288.8 1401.125 277.25 1401.125 266.05C1401.125 236.3 1400.833345 206.55 1401.125 171.20000000000002C1400.833345 170.5 1381.875 107.5 1381.875 107.5C1367.875 107.5 1347.75 107.5 1328.208345 107.5ZM1432.625 104.0C1414.25 104.0 1403.166655 115.55000000000001 1399.375 147.75H1389.166655L1394.416655 191.15C1402.583345 185.2 1408.416655 183.8 1412.791655 183.8C1415.125 183.8 1416.583345 184.15 1418.333345 185.2C1418.333345 186.95 1418.333345 189.05 1418.333345 192.2V195.0C1428.833345 195.0 1439.041655 195.0 1449.541655 195.0C1451.583345 195.0 1452.75 193.60000000000002 1452.75 191.15L1452.166655 114.5C1452.166655 112.75 1451.875 112.05000000000001 1450.708345 110.65C1447.5 106.80000000000001 1440.5 104.0 1432.625 104.0Z" fill="#1a1a1a"/><path d="M1520.125 154.05V255.2C1520.125 343.4 1557.166655 387.5 1665.958345 387.5C1705.041655 387.5 1745.291655 381.9 1757.833345 377.7C1758.708345 377.35 1759.0 375.95 1759.0 374.9C1759.0 366.85 1759.0 324.85 1759.0 316.8H1750.541655C1733.041655 322.05 1713.5 325.55 1678.791655 325.55C1640.291655 325.55 1618.125 322.05 1602.958345 310.85C1588.375 300.0 1581.083345 280.05 1581.083345 230.0V175.4C1581.083345 122.20000000000002 1601.208345 95.60000000000002 1655.75 95.60000000000002C1685.208345 95.60000000000002 1703.0 99.45000000000002 1711.75 108.55000000000001C1719.916655 116.95000000000002 1723.416655 126.75 1723.416655 157.55C1723.416655 187.3 1723.416655 210.75 1723.416655 263.95C1723.416655 265.0 1756.666655 300.35 1760.166655 300.35H1786.125C1786.125 284.95 1786.125 269.55 1786.125 254.15C1786.125 207.95 1786.125 169.1 1786.125 148.45000000000002C1786.125 79.5 1758.708345 34.0 1654.583345 34.0C1550.458345 34.0 1520.125 86.5 1520.125 154.05ZM1744.416655 228.60000000000002C1734.791655 241.55 1720.5 247.85 1708.833345 247.85C1698.041655 247.85 1692.208345 241.2 1692.208345 226.85000000000002V202.7C1692.208345 193.60000000000002 1693.375 189.75 1696.0 186.60000000000002C1698.333345 183.8 1702.416655 182.05 1708.833345 182.05C1718.166655 182.05 1731.291655 183.8 1743.833345 187.3V143.20000000000002H1719.041655C1708.25 135.5 1698.333345 130.95000000000002 1681.416655 130.95000000000002C1647.291655 130.95000000000002 1629.5 154.4 1629.5 193.60000000000002V249.25C1629.5 286.35 1646.708345 303.85 1675.0 303.85C1699.791655 303.85 1714.958345 300.7 1731.291655 281.1H1744.416655Z" fill="#1a1a1a"/><path d="M1677.916655 296.5C1677.916655 319.6 1677.916655 343.05 1677.916655 366.15C1677.916655 368.6 1679.375 370.0 1681.125 370.0C1688.573735 370.0 1697.88461 370.0 1705.333345 370.0C1743.833345 370.0 1762.5 347.25 1762.5 301.4C1762.5 245.4 1762.5 167.70000000000002 1762.5 111.70000000000002C1762.5 107.15 1763.375 103.65 1765.416655 101.20000000000002C1767.166655 99.10000000000002 1770.083345 97.70000000000002 1774.166655 97.70000000000002C1775.333345 97.70000000000002 1776.5 97.70000000000002 1777.666655 97.70000000000002C1777.666655 100.85000000000002 1777.666655 103.30000000000001 1777.666655 106.80000000000001V111.0C1786.204065 111.0 1794.50428 111.0 1803.041655 111.0C1805.083345 111.0 1806.25 109.60000000000002 1806.25 107.15V42.400000000000034C1806.25 41.35000000000002 1805.958345 40.30000000000001 1805.375 39.60000000000002C1801.404495 35.10417614531002 1790.208345 30.5 1769.208345 30.5C1721.083345 30.5 1695.416655 56.05000000000001 1695.416655 115.55000000000001C1695.416655 172.25 1695.416655 235.60000000000002 1695.416655 292.65C1695.416655 294.05 1695.125 295.1 1694.541655 295.8C1694.25 296.15 1693.375 296.5 1692.5 296.5C1689.77777 296.5 1686.47223 296.5 1683.75 296.5ZM1677.916655 153.0C1677.916655 172.60000000000002 1677.916655 199.55 1677.916655 219.15C1677.916655 221.60000000000002 1679.083345 223.0 1681.125 223.0H1788.75C1788.75 203.4 1788.75 176.45 1788.75 156.85000000000002C1788.75 154.4 1787.583345 153.0 1785.541655 153.0ZM1794.58331 107.5C1794.58331 130.60000000000002 1794.58331 154.05 1794.58331 177.15C1794.58331 179.60000000000002 1795.75 181.0 1797.791655 181.0C1799.25 181.0 1802.45831 181.0 1803.916655 181.0H1809.166655C1809.166655 197.8 1809.166655 228.25 1809.166655 242.6C1809.166655 281.1 1824.916655 300.0 1857.0 300.0C1873.916655 300.0 1885.291655 300.0 1887.625 300.0C1889.666655 300.0 1890.83331 298.6 1890.83331 296.15C1890.83331 273.05 1890.83331 249.6 1890.83331 226.5H1885.291655C1883.25 226.5 1879.75 226.5 1877.70831 226.5C1876.83331 226.5 1875.95831 226.15 1875.666655 225.8C1875.08331 225.10000000000002 1874.791655 224.05 1874.791655 222.65C1874.791655 185.55 1874.791655 148.45000000000002 1874.791655 111.35000000000002C1874.791655 108.9 1873.625 107.5 1871.58331 107.5C1846.5 107.5 1819.666655 107.5 1794.58331 107.5ZM1793.2825 52.37500000000003C1793.2825 78.38416500000002 1814.365835 99.4675 1840.375 99.4675C1866.384165 99.4675 1887.4675 78.38416500000002 1887.4675 52.37500000000003C1887.4675 26.365835000000004 1866.384165 5.282500000000027 1840.375 5.282500000000027C1814.365835 5.282500000000027 1793.2825 26.365835000000004 1793.2825 52.37500000000003Z" fill="#1a1a1a"/><line x1="20" y1="382.5" x2="1870.0" y2="382.5" stroke="#eee" stroke-width="0.5"/><text x="20" y="553.75" font-size="11" font-family="sans-serif" font-weight="bold" fill="#555">Casual</text><path d="M161.25 564.25C138.208345 564.25 128.583345 560.75 109.625 550.6H107.875C106.416655 560.05 105.25 569.85 105.25 582.45C105.25 601.35 108.458345 615.0 116.04165499999999 624.1C124.5 634.95 138.791655 639.5 160.083345 639.5C207.041655 639.5 235.33334499999998 606.95 235.33334499999998 552.0C235.59868 509.65119702086 235.625 467.3 235.33334499999998 424.95000000000005C235.33334499999998 394.15 223.083345 384.0 186.041655 384.0C160.666655 384.0 135.583345 385.05 110.208345 387.5C109.041655 395.55 108.166655 405.35 108.166655 414.8C108.166655 447.35 114.875 461.0 130.916655 461.0C146.666655 461.0 164.166655 452.95000000000005 176.125 440.0L160.375 443.5L172.625 455.4L167.375 429.5C167.375 469.05 167.375 508.95 167.375 548.5C167.375 554.1 167.375 559.35 167.083345 563.9C165.333345 564.25 163.291655 564.25 161.25 564.25Z" fill="#1a1a1a"/><path d="M375.625 380.5C323.708345 380.5 285.791655 420.05 285.791655 469.05V473.6C285.791655 504.05 299.791655 522.6 340.625 537.3L368.041655 547.1C376.208345 550.25 382.041655 554.45 385.541655 560.4V561.1C380.875 563.9 372.708345 564.6 361.625 564.6C333.041655 564.6 309.708345 554.45 286.666655 539.4H284.916655C283.458345 546.4 282.583345 556.55 282.583345 568.1C282.583345 591.2 286.375 606.6 294.541655 617.1C306.5 632.85 328.083345 639.5 362.5 639.5C409.166655 639.5 442.416655 617.8 442.416655 571.25V568.1C442.416655 549.2 431.916655 519.8 388.75 504.75L360.75 494.95000000000005C348.5 490.75 346.75 487.25 346.75 480.6V479.55C346.75 468.70000000000005 357.833345 454.35 375.041655 454.35C380.0 454.35 383.208345 454.70000000000005 389.041655 455.75L381.75 444.20000000000005C380.291655 453.65 379.708345 463.8 379.708345 471.85C379.708345 487.25 389.625 497.05 416.166655 497.05C426.375 497.05 434.25 495.65 440.958345 493.20000000000005C440.958345 483.75 440.958345 466.95000000000005 440.958345 457.85C440.958345 434.75 432.791655 415.5 419.666655 399.75C408.583345 386.45000000000005 395.458345 380.5 375.625 380.5Z" fill="#1a1a1a"/><path d="M495.208345 632.5H605.458345C606.333345 626.9 606.625 620.6 606.625 613.6C606.625 587.0 599.916655 555.5 584.166655 555.5H525.833345C525.833345 511.75 525.833345 468.35 525.833345 424.6C525.833345 390.65 518.541655 384.0 485.0 384.0C474.791655 384.0 465.458345 385.05 456.708345 387.5C459.041655 401.15 460.208345 416.9 460.208345 436.5C460.208345 481.3 460.208345 526.45 460.208345 578.25C460.208345 613.6 473.041655 632.5 495.208345 632.5Z" fill="#1a1a1a"/><path d="M792.708345 632.5C793.875 624.45 794.75 611.85 794.75 601.35C794.75 570.2 786.0 554.8 768.5 554.8H767.333345C753.625 554.8 741.666655 555.85 718.041655 562.15V560.05C734.958345 548.15 751.583345 533.1 765.0 517.35C782.208345 497.05 794.166655 476.05 794.166655 461.0V457.85C794.166655 416.55 782.5 387.5 765.875 387.5H635.791655C634.333345 396.6 633.458345 405.35 633.458345 413.4C633.458345 439.3 642.5 458.55 665.25 458.55H695.291655C712.208345 458.55 717.458345 458.55 728.541655 458.55V460.65C721.833345 478.15 713.958345 492.85 703.75 506.15C686.833345 528.55 663.5 546.75 630.25 567.05V570.2C630.25 613.25 636.958345 632.5 652.125 632.5Z" fill="#1a1a1a"/><path d="M885.458345 363.0C841.125 363.0 819.25 403.25 819.25 433.70000000000005C819.25 485.15 819.25 536.6 819.25 588.05H891.0L879.333345 556.9C881.958345 549.55 883.416655 539.75 883.416655 529.95C883.416655 509.3 883.416655 484.8 883.416655 459.95000000000005C879.916655 451.55 877.875 442.8 877.291655 434.4C879.625 433.70000000000005 883.416655 433.0 886.333345 433.0C896.541655 433.0 901.791655 434.75 908.5 440.35H910.25C912.0 429.5 912.291655 422.5 912.291655 410.95000000000005C912.291655 392.4 909.666655 379.8 904.416655 372.1C900.041655 365.8 893.625 363.0 885.458345 363.0ZM800.291655 459.25C800.291655 461.35 800.291655 463.45000000000005 800.291655 473.95000000000005C800.291655 517.35 806.60226 524.0 832.958345 524.0H905.291655C906.75 517.0 907.333345 507.9 907.333345 498.45000000000005C907.333345 464.5 902.375 459.25 886.041655 459.25ZM802.041655 559.0C800.583345 568.45 799.708345 577.2 799.708345 586.65C799.708345 621.65 806.416655 632.5 828.0 632.5H909.083345C910.541655 625.85 912.0 617.1 912.0 606.6C912.0 573.7 907.333345 559.0 896.541655 559.0Z" fill="#1a1a1a"/><path d="M977.041655 440.0C975.0 449.8 973.833345 462.178217821795 973.833345 475.0C973.833345 500.76 977.041655 511.4 984.333345 511.4C986.375 511.4 988.708345 510.7 990.75 508.95L992.208345 509.3C992.208345 528.9 992.208345 557.95 992.208345 589.1C992.208345 616.4 1014.958345 636.35 1043.25 636.35C1054.916655 636.35 1062.208345 634.25 1068.041655 627.25C1074.75 619.2 1077.666655 607.65 1077.666655 588.4C1077.666655 576.15 1077.083345 567.75 1075.333345 557.95H1073.583345C1070.958345 559.7 1068.041655 561.1 1064.541655 561.1C1061.916655 561.1 1059.875 560.75 1057.833345 559.35C1057.833345 556.2 1057.833345 552.7 1057.833345 548.5C1057.833345 523.3 1057.833345 496.0 1057.833345 470.8C1057.833345 448.75 1042.375 436.15 1009.708345 436.15C1000.083345 436.15 987.541655 437.20000000000005 977.041655 440.0ZM983.324155 385.925C983.324155 411.934165 1004.40749 433.0175 1030.416655 433.0175C1056.42582 433.0175 1077.509155 411.934165 1077.509155 385.925C1077.509155 359.915835 1056.42582 338.83250000000004 1030.416655 338.83250000000004C1004.40749 338.83250000000004 983.324155 359.915835 983.324155 385.925Z" fill="#1a1a1a"/><path d="M1141.25 377.0C1139.208345 386.8 1138.041655 399.4 1138.041655 412.35C1138.041655 446.3 1143.583345 459.25 1150.875 459.25C1155.25 459.25 1158.75 456.8 1162.541655 449.45000000000005L1164.291655 449.8C1164.291655 494.6 1164.291655 529.95 1164.291655 574.4C1164.291655 612.2 1191.708345 636.35 1212.708345 636.35C1224.375 636.35 1230.208345 635.65 1236.041655 628.65C1241.875 621.65 1245.083345 603.45 1245.083345 581.75C1245.083345 573.0 1244.5 564.6 1242.75 554.8H1241.0C1236.041655 557.6 1232.833345 558.65 1231.083345 558.65C1230.791655 558.65 1230.208345 558.65 1229.916655 558.65C1229.916655 554.45 1229.916655 550.95 1229.916655 546.75C1229.916655 498.1 1229.916655 449.8 1229.916655 404.3C1229.916655 376.3 1222.625 366.5 1194.041655 366.5C1171.291655 366.5 1156.416655 369.65000000000003 1141.25 377.0Z" fill="#1a1a1a"/><path d="M1327.041655 440.0C1324.708345 448.05 1323.25 462.05 1323.25 478.5C1323.25 513.5 1326.166655 518.75 1332.291655 518.75C1334.625 518.75 1336.375 517.7 1337.541655 515.95L1339.291655 517.0C1339.291655 543.95 1339.291655 576.85 1339.291655 603.8C1339.291655 625.15 1348.916655 636.0 1376.041655 636.0C1386.541655 636.0 1396.166655 635.3 1405.791655 634.25C1403.458345 619.55 1402.291655 603.45 1402.291655 583.5C1402.291655 556.328015564215 1402.291655 529.6 1402.291655 502.3C1402.291655 473.95000000000005 1379.833345 436.5 1351.833345 436.5C1342.5 436.5 1334.916655 437.55 1327.041655 440.0ZM1432.041655 434.75C1417.458345 434.75 1406.375 443.85 1401.125 482.35H1391.5L1392.666655 534.5C1402.0 514.9 1410.166655 512.1 1416.0 512.1C1417.166655 512.1 1418.625 512.45 1419.791655 512.8C1420.083345 519.45 1419.5 525.75 1418.625 529.95V532.05C1422.125 533.45 1426.5 534.15 1431.166655 534.15C1446.916655 534.15 1456.833345 522.6 1456.833345 487.6V483.05C1456.833345 461.70000000000005 1453.333345 449.45000000000005 1447.208345 442.1C1442.833345 436.85 1437.583345 434.75 1432.041655 434.75Z" fill="#1a1a1a"/><path d="M1524.791655 553.4V559.35C1524.791655 652.1 1570.875 702.5 1666.541655 702.5C1696.875 702.5 1720.791655 699.7 1732.75 691.65C1741.5 685.7 1743.541655 670.3 1743.541655 659.8C1743.541655 654.2 1743.25 647.2 1742.083345 642.3H1739.75C1724.0 650.7 1696.583345 656.65 1669.458345 656.65C1638.541655 656.65 1623.958345 655.25 1600.916655 648.95C1582.541655 627.6 1574.666655 599.25 1574.666655 557.95V554.1C1574.666655 456.8 1616.958345 412.35 1686.083345 412.35C1696.583345 412.35 1706.791655 413.4 1714.666655 414.45000000000005C1717.291655 419.0 1718.166655 424.95000000000005 1718.166655 438.25C1718.166655 479.9 1718.166655 527.5 1718.166655 575.45C1718.166655 601.0 1743.25 628.3 1780.583345 628.3H1788.75C1787.291655 613.6 1786.416655 604.85 1786.416655 589.1C1786.416655 543.25 1786.416655 497.75 1786.416655 451.9C1786.416655 394.85 1755.5 366.5 1685.5 366.5C1591.0 366.5 1524.791655 448.05 1524.791655 553.4ZM1735.375 542.9C1723.125 564.25 1709.416655 572.65 1699.791655 572.65C1689.583345 572.65 1683.75 567.05 1683.75 540.8V538.0C1683.75 515.25 1684.041655 506.5 1685.5 493.9C1690.166655 492.85 1694.25 492.5 1700.666655 492.5C1708.541655 492.5 1715.25 494.25 1720.791655 501.6V454.0H1716.125C1707.666655 444.20000000000005 1700.666655 439.3 1685.5 439.3C1662.458345 439.3 1617.833345 474.65 1617.833345 541.5V546.75C1617.833345 606.6 1646.416655 630.05 1676.458345 630.05C1698.041655 630.05 1710.875 621.65 1724.0 601.35H1736.541655Z" fill="#1a1a1a"/><path d="M1674.125 625.5C1672.375 635.3 1671.791655 643.7 1671.791655 652.45C1671.791655 672.4 1675.583345 686.05 1682.875 695.15C1687.3508 700.71989735071 1696.583345 702.85 1704.75 702.85C1742.666655 702.85 1761.041655 674.85 1761.041655 637.05C1761.041655 597.15 1761.041655 528.2 1761.041655 495.3C1761.041655 474.65 1753.458345 453.3 1741.791655 436.5C1745.286755 435.381572533655 1748.867745 434.4 1752.291655 434.4C1755.327975 434.4 1758.119155 434.923830531175 1760.75 435.45000000000005C1761.333345 439.65 1760.458345 442.8 1759.291655 447.0V449.1C1762.588235 450.263498818195 1765.258875 450.85 1768.625 450.85C1784.1168049999999 450.85 1794.875 437.10714285716 1794.875 414.45000000000005V409.9C1794.875 396.95000000000005 1789.625 383.3 1784.083345 376.65C1778.085395 369.15259706446 1770.384415 363.0 1753.75 363.0C1721.666655 363.0 1695.416655 391.35 1695.416655 435.1C1695.416655 490.4 1695.416655 557.6 1695.416655 612.9C1695.416655 618.5 1695.416655 622.7 1695.416655 628.3C1693.958345 628.65 1691.333345 629.0 1688.708345 629.0C1683.824865 629.0 1680.00143 628.47102626408 1675.875 625.5ZM1677.041655 490.05C1675.875 496.35 1675.291655 503.0 1675.291655 510.7C1675.291655 546.75 1683.458345 560.05 1709.125 560.05H1787.291655C1788.75 553.05 1789.333345 543.95 1789.333345 534.5C1789.333345 500.55 1780.875 490.05 1753.458345 490.05ZM1793.70831 440.0C1791.666655 449.8 1790.5 462.178217821795 1790.5 475.0C1790.5 500.76 1793.70831 511.4 1801.0 511.4C1803.041655 511.4 1805.375 510.7 1807.416655 508.95L1808.875 509.3C1808.875 528.9 1808.875 557.95 1808.875 589.1C1808.875 616.4 1831.625 636.35 1859.916655 636.35C1871.58331 636.35 1878.875 634.25 1884.70831 627.25C1891.416655 619.2 1894.33331 607.65 1894.33331 588.4C1894.33331 576.15 1893.75 567.75 1892.0 557.95H1890.25C1887.625 559.7 1884.70831 561.1 1881.20831 561.1C1878.58331 561.1 1876.541655 560.75 1874.5 559.35C1874.5 556.2 1874.5 552.7 1874.5 548.5C1874.5 523.3 1874.5 496.0 1874.5 470.8C1874.5 448.75 1859.041655 436.15 1826.375 436.15C1816.75 436.15 1804.20831 437.20000000000005 1793.70831 440.0ZM1799.99081 385.925C1799.99081 411.934165 1821.074145 433.0175 1847.08331 433.0175C1873.092475 433.0175 1894.17581 411.934165 1894.17581 385.925C1894.17581 359.915835 1873.092475 338.83250000000004 1847.08331 338.83250000000004C1821.074145 338.83250000000004 1799.99081 359.915835 1799.99081 385.925Z" fill="#1a1a1a"/>
</svg>