<?xml version="1.0" encoding="UTF-8"?>
<svg xmlns="http://www.w3.org/2000/svg" width="1890.0" height="1057.5"
     viewBox="0 0 1890.0 1057.5">
<rect width="100%" height="100%" fill="white"/>
<text x="945.0" y="30" text-anchor="middle" font-size="14" font-family="sans-serif" font-weight="bold" fill="#333">Mono C Slanted — Key glyphs + features</text><text x="187.5" y="48" text-anchor="middle" font-size="10" font-family="sans-serif" fill="#999">J</text><text x="362.5" y="48" text-anchor="middle" font-size="10" font-family="sans-serif" fill="#999">S</text><text x="537.5" y="48" text-anchor="middle" font-size="10" font-family="sans-serif" fill="#999">L</text><text x="712.5" y="48" text-anchor="middle" font-size="10" font-family="sans-serif" fill="#999">Z</text><text x="887.5" y="48" text-anchor="middle" font-size="10" font-family="sans-serif" fill="#999">f</text><text x="1062.5" y="48" text-anchor="middle" font-size="10" font-family="sans-serif" fill="#999">i</text><text x="1237.5" y="48" text-anchor="middle" font-size="10" font-family="sans-serif" fill="#999">l</text><text x="1412.5" y="48" text-anchor="middle" font-size="10" font-family="sans-serif" fill="#999">r</text><text x="1587.5" y="48" text-anchor="middle" font-size="10" font-family="sans-serif" fill="#999">@</text><text x="1762.5" y="48" text-anchor="middle" font-size="10" font-family="sans-serif" fill="#999">fi</text><text x="20" y="221.25" font-size="11" font-family="sans-serif" font-weight="bold" fill="#555">Linear</text><path d="M162.416655 231.75C143.75 231.75 128.875 224.75 113.125 216.35000000000002H107.291655C102.625 238.4 97.666655 260.45 93.0 282.5C92.708345 283.9 92.708345 285.3 93.875 286.7C100.0 294.05 128.0 307.0 164.166655 307.0C223.375 307.0 248.45834499999998 273.05 258.958345 220.9C270.48713499999997 166.153 282.36529499999995 109.74699999999999 293.894085 55.00000000000003C293.894085 52.20000000000002 287.06093 50.80000000000001 269.978025 50.80000000000001C263.14486999999997 50.80000000000001 256.311715 50.80000000000001 249.47856 50.80000000000001C232.395655 50.80000000000001 225.5625 52.20000000000002 225.5625 55.00000000000003C225.5625 55.00000000000003 225.5625 55.00000000000003 225.5625 55.00000000000003C225.5625 55.00000000000003 225.5625 55.00000000000003 225.5625 55.00000000000003C216.081875 100.507 206.31396999999998 147.39300000000003 196.833345 192.9C193.625 207.95 189.833345 217.05 184.875 223.0C179.625 229.3 172.625 231.75 162.416655 231.75Z" fill="#1a1a1a"/><path d="M400.708345 48.00000000000003C349.375 48.00000000000003 314.375 66.9 305.333345 108.9L301.541655 126.4C296.583345 151.60000000000002 297.458345 184.5 345.291655 202.0L363.083345 208.65C371.541655 211.8 379.416655 214.95 377.083345 225.8L376.5 228.60000000000002C374.75 237.0 366.875 239.45 350.833345 239.45C321.375 239.45 301.833345 230.35000000000002 286.958345 216.7H281.125C277.041655 237.35 272.666655 258.0 268.875 278.65C268.583345 280.05 268.291655 281.45 269.458345 282.85C279.666655 295.1 307.083345 307.0 344.708345 307.0C392.833345 307.0 423.458345 287.75 433.375 240.85L434.25 236.3C442.708345 192.9 435.708345 169.8 395.166655 153.70000000000002L369.5 143.55C363.666655 141.10000000000002 361.041655 136.9 362.5 130.25L363.375 126.05000000000001C365.416655 116.25 370.666655 113.80000000000001 386.708345 113.80000000000001C394.875 113.80000000000001 403.333345 115.9 408.0 119.05000000000001L401.583345 104.0C399.541655 113.10000000000002 397.5 122.20000000000002 395.458345 131.65C394.875 134.45000000000002 395.458345 135.5 397.791655 135.5C414.125 135.5 433.666655 135.5 451.458345 135.5C455.833345 114.85000000000002 460.208345 93.85000000000002 464.583345 73.20000000000002C465.458345 68.65 465.75 68.30000000000001 464.291655 66.55000000000001C457.291655 58.150000000000006 433.083345 48.00000000000003 400.708345 48.00000000000003Z" fill="#1a1a1a"/><path d="M446.208345 300.0H596.125C602.541655 269.55 604.583345 260.45 610.416655 231.75C611.291655 227.9 610.416655 226.5 607.791655 226.5H524.083345C535.458345 171.9 547.708345 113.45000000000002 559.083345 58.85000000000002C559.666655 56.400000000000006 558.791655 55.00000000000003 556.75 55.00000000000003C534.875 55.00000000000003 516.208345 55.00000000000003 494.333345 55.00000000000003C491.708345 66.55000000000001 489.375 78.10000000000002 487.041655 89.65C472.75 158.25 458.166655 227.55 443.875 296.15C443.583345 298.25 444.458345 300.0 446.208345 300.0Z" fill="#1a1a1a"/><path d="M771.125 300.0C776.083345 276.9 781.041655 253.45 785.708345 230.35000000000002C786.291655 227.9 785.416655 226.5 783.375 226.5H757.708345C737.291655 226.5 722.416655 226.5 697.625 226.5L699.083345 219.5C713.083345 216.35000000000002 722.125 212.85000000000002 755.083345 181.0C770.541655 166.3 786.583345 150.55 804.958345 132.0L820.125 58.85000000000002C820.708345 56.400000000000006 819.833345 55.00000000000003 817.791655 55.00000000000003H664.958345C659.708345 79.5 655.916655 97.35000000000002 651.541655 119.4C650.666655 123.60000000000002 651.541655 125.0 654.75 125.0H711.916655C730.583345 125.0 721.833345 125.0 747.208345 125.0L745.75 132.0C726.5 140.4 716.583345 148.8 698.791655 164.20000000000002C676.916655 183.10000000000002 653.291655 204.45 629.083345 226.85000000000002L614.5 296.15C613.916655 298.6 614.791655 300.0 616.833345 300.0Z" fill="#1a1a1a"/><path d="M785.125 296.5C780.166655 319.6 775.208345 343.05 770.541655 366.15C769.958345 368.6 771.125 370.0 772.875 370.0C785.708345 370.0 801.75 370.0 814.583345 370.0C853.083345 370.0 876.416655 347.25 886.041655 301.4C898.875 240.15 913.166655 172.25 926.0 111.35000000000002C926.84252 106.968873739965 928.51202 103.46237983258001 930.666655 101.20000000000002C933.184135 98.55664324091504 936.24478 97.35000000000002 940.583345 97.35000000000002C942.72223 97.35000000000002 944.8611149999999 97.35000000000002 947.0 97.35000000000002C945.833345 102.60000000000002 945.541655 104.35000000000002 944.375 109.95000000000002L943.5 114.5C958.758775 114.5 969.65788 114.5 984.916655 114.5C987.541655 114.5 988.416655 113.10000000000002 989.0 110.65L1002.125 47.650000000000006C1002.416655 45.900000000000006 1002.125 45.20000000000002 1001.25 44.150000000000006C996.875 38.900000000000034 977.916655 30.5 947.291655 30.5C892.458345 30.5 871.458345 50.10000000000002 858.041655 115.55000000000001C845.791655 173.65 833.25 234.2 821.0 292.65C820.708345 294.05 820.416655 294.75 819.833345 295.45C819.25 296.15 818.375 296.5 816.625 296.5C809.333345 296.5 799.125 296.5 790.958345 296.5ZM815.166655 153.0C811.083345 172.25 805.541655 198.85000000000002 801.458345 218.10000000000002C800.875 220.55 801.75 221.95 803.791655 221.95H961.0C965.083345 202.7 970.625 176.10000000000002 974.708345 156.85000000000002C975.291655 154.4 974.416655 153.0 972.375 153.0Z" fill="#1a1a1a"/><path d="M1002.416655 107.5C997.75 130.25 993.083345 153.35000000000002 988.416655 176.10000000000002C987.833345 178.55 988.708345 179.95 990.75 179.95C1002.416655 179.95 1014.375 179.95 1026.041655 179.95H1035.666655C1031.875 197.10000000000002 1028.375 214.25 1024.583345 231.4C1014.666655 277.6 1028.666655 300.0 1067.458345 300.0C1084.666655 300.0 1102.166655 300.0 1119.375 300.0C1121.416655 300.0 1122.875 298.6 1123.458345 296.15C1128.416655 273.4 1133.083345 250.3 1138.041655 227.55H1132.208345C1119.666655 227.55 1106.541655 227.55 1094.0 227.55C1093.125 227.55 1092.541655 227.2 1092.25 226.85000000000002C1091.666655 226.15 1091.666655 225.10000000000002 1091.958345 223.7C1099.833345 186.25 1107.416655 148.8 1115.291655 111.35000000000002C1115.875 108.9 1115.0 107.5 1112.958345 107.5C1076.208345 107.5 1039.166655 107.5 1002.416655 107.5ZM1043.133345 52.37500000000003C1043.133345 81.27408000000003 1066.559265 104.70000000000002 1095.458345 104.70000000000002C1124.357425 104.70000000000002 1147.783345 81.27408000000003 1147.783345 52.37500000000003C1147.783345 23.47592000000003 1124.357425 0.05000000000001137 1095.458345 0.05000000000001137C1066.559265 0.05000000000001137 1043.133345 23.47592000000003 1043.133345 52.37500000000003Z" fill="#1a1a1a"/><path d="M1188.208345 37.5C1183.541655 60.25000000000003 1178.583345 83.35000000000002 1173.916655 106.10000000000002C1173.333345 108.55000000000001 1174.208345 109.95000000000002 1176.25 109.95000000000002C1188.791655 109.95000000000002 1201.625 109.95000000000002 1214.458345 109.95000000000002H1221.75C1213.291655 150.55 1204.25 190.8 1195.791655 231.4C1187.333345 272.35 1204.25 300.0 1238.666655 300.0C1255.0 300.0 1271.333345 300.0 1287.666655 300.0C1289.416655 300.0 1291.166655 298.6 1291.75 296.15C1296.416655 273.4 1301.375 250.3 1306.041655 227.55H1300.5C1288.833345 227.55 1277.166655 227.55 1265.5 227.55C1264.625 227.55 1263.75 227.2 1263.458345 226.85000000000002C1263.166655 226.15 1262.875 225.10000000000002 1263.166655 223.7C1275.708345 163.15 1288.541655 101.9 1301.083345 41.35000000000002C1301.666655 38.900000000000034 1300.791655 37.5 1298.75 37.5C1262.0 37.5 1224.958345 37.5 1188.208345 37.5Z" fill="#1a1a1a"/><path d="M1348.333345 107.5C1343.666655 129.55 1339.0 151.60000000000002 1334.333345 173.65C1334.041655 176.10000000000002 1334.916655 177.5 1336.666655 177.5C1341.041655 177.5 1349.5 177.5 1354.166655 177.5H1360.0C1351.541655 217.05 1335.791655 293.7 1335.208345 296.15C1334.625 298.6 1335.5 300.0 1337.541655 300.0C1358.25 300.0 1379.25 300.0 1399.958345 300.0C1402.291655 288.8 1404.625 277.25 1406.958345 266.05C1414.541655 230.0 1422.125 193.95 1431.166655 150.9C1431.75 150.20000000000002 1425.916655 107.5 1425.916655 107.5C1407.833345 107.5 1373.125 107.5 1348.333345 107.5ZM1490.958345 104.0C1467.625 104.0 1454.208345 114.5 1436.708345 147.75H1419.791655L1409.875 192.9C1421.25 186.25 1430.466655 183.8 1439.041655 183.8C1439.625 183.8 1440.5 183.8 1440.791655 183.8C1439.625 189.05 1438.75 193.95 1437.583345 199.2L1437.0 202.0C1455.375 202.0 1473.166655 202.0 1491.541655 202.0C1493.583345 202.0 1495.041655 200.60000000000002 1495.625 198.15L1513.125 114.5C1513.416655 113.10000000000002 1513.416655 112.05000000000001 1512.541655 111.0C1509.333345 107.15 1499.416655 104.0 1490.958345 104.0Z" fill="#1a1a1a"/><path d="M1526.541655 129.20000000000002 1494.166655 284.6C1480.458345 350.75 1503.5 387.5 1559.208345 387.5C1581.375 387.5 1601.5 381.2 1605.583345 377.7C1606.166655 377.0 1606.75 375.95 1607.041655 374.9C1608.5 366.85 1616.666655 328.35 1618.416655 320.3H1611.708345C1600.625 325.55 1584.875 329.05 1572.333345 329.05C1552.791655 329.05 1545.5 325.9 1539.666655 319.25C1534.708345 312.95 1532.666655 304.55 1536.458345 286.35L1563.875 155.10000000000002C1572.041655 115.9 1580.208345 98.75 1607.916655 98.75C1622.791655 98.75 1630.375 102.60000000000002 1633.875 110.30000000000001C1636.5 116.60000000000002 1636.5 125.70000000000002 1634.166655 137.25C1623.083345 190.45 1616.375 221.25 1605.291655 274.45C1605.291655 275.5 1626.0 310.85 1628.625 310.85H1641.458345C1644.666655 295.45 1647.875 280.05 1651.083345 264.65C1660.708345 218.45 1673.25 158.60000000000002 1679.958345 126.4C1691.333345 72.15 1674.708345 34.0 1618.125 34.0C1564.166655 34.0 1539.083345 69.00000000000003 1526.541655 129.20000000000002ZM1628.625 242.6C1618.416655 255.55 1610.25 261.85 1600.916655 261.85C1596.541655 261.85 1595.375 259.05 1596.541655 253.8L1613.166655 174.35000000000002C1613.75 171.9 1614.625 169.8 1615.791655 168.4C1617.25 167.0 1619.0 166.3 1621.041655 166.3C1628.625 166.3 1636.791655 167.70000000000002 1643.208345 171.55L1652.541655 127.45000000000002H1632.708345C1625.416655 119.75 1618.125 115.20000000000002 1606.75 115.20000000000002C1591.291655 115.20000000000002 1582.541655 125.70000000000002 1577.291655 150.9L1550.166655 281.1C1545.5 303.15 1552.208345 314.35 1567.666655 314.35C1581.666655 314.35 1595.666655 307.7 1609.666655 287.75H1619.291655Z" fill="#1a1a1a"/><path d="M1660.125 296.5C1655.166655 319.6 1650.208345 343.05 1645.541655 366.15C1644.958345 368.6 1646.125 370.0 1647.875 370.0C1660.708345 370.0 1676.75 370.0 1689.583345 370.0C1728.083345 370.0 1751.416655 347.25 1761.041655 301.4C1773.875 240.15 1788.166655 172.25 1801.0 111.35000000000002C1801.84252 106.968873739965 1803.5120200000001 103.46237983258001 1805.666655 101.20000000000002C1808.184135 98.55664324091504 1811.24478 97.35000000000002 1815.583345 97.35000000000002C1817.72223 97.35000000000002 1819.861115 97.35000000000002 1822.0 97.35000000000002C1820.833345 102.60000000000002 1820.541655 104.35000000000002 1819.375 109.95000000000002L1818.5 114.5C1833.758775 114.5 1844.65788 114.5 1859.916655 114.5C1862.541655 114.5 1863.416655 113.10000000000002 1864.0 110.65L1877.125 47.650000000000006C1877.416655 45.900000000000006 1877.125 45.20000000000002 1876.25 44.150000000000006C1871.875 38.900000000000034 1852.916655 30.5 1822.291655 30.5C1767.458345 30.5 1746.458345 50.10000000000002 1733.041655 115.55000000000001C1720.791655 173.65 1708.25 234.2 1696.0 292.65C1695.708345 294.05 1695.416655 294.75 1694.833345 295.45C1694.25 296.15 1693.375 296.5 1691.625 296.5C1684.333345 296.5 1674.125 296.5 1665.958345 296.5ZM1690.166655 153.0C1686.083345 172.25 1680.541655 198.85000000000002 1676.458345 218.10000000000002C1675.875 220.55 1676.75 221.95 1678.791655 221.95H1836.0C1840.083345 202.7 1845.625 176.10000000000002 1849.708345 156.85000000000002C1850.291655 154.4 1849.416655 153.0 1847.375 153.0ZM1877.416655 107.5C1872.75 130.25 1868.083345 153.35000000000002 1863.416655 176.10000000000002C1862.833345 178.55 1863.708345 179.95 1865.75 179.95C1877.416655 179.95 1889.375 179.95 1901.041655 179.95H1910.666655C1906.875 197.10000000000002 1903.375 214.25 1899.583345 231.4C1889.666655 277.6 1903.666655 300.0 1942.458345 300.0C1959.666655 300.0 1977.166655 300.0 1994.375 300.0C1996.416655 300.0 1997.875 298.6 1998.458345 296.15C2003.416655 273.4 2008.083345 250.3 2013.041655 227.55H2007.208345C1994.666655 227.55 1981.541655 227.55 1969.0 227.55C1968.125 227.55 1967.541655 227.2 1967.25 226.85000000000002C1966.666655 226.15 1966.666655 225.10000000000002 1966.958345 223.7C1974.833345 186.25 1982.416655 148.8 1990.291655 111.35000000000002C1990.875 108.9 1990.0 107.5 1987.958345 107.5C1951.208345 107.5 1914.166655 107.5 1877.416655 107.5ZM1918.133345 52.37500000000003C1918.133345 81.27408000000003 1941.559265 104.70000000000002 1970.458345 104.70000000000002C1999.357425 104.70000000000002 2022.783345 81.27408000000003 2022.783345 52.37500000000003C2022.783345 23.47592000000003 1999.357425 0.05000000000001137 1970.458345 0.05000000000001137C1941.559265 0.05000000000001137 1918.133345 23.47592000000003 1918.133345 52.37500000000003Z" fill="#1a1a1a"/><line x1="20" y1="382.5" x2="1870.0" y2="382.5" stroke="#eee" stroke-width="0.5"/><text x="20" y="553.75" font-size="11" font-family="sans-serif" font-weight="bold" fill="#555">SemiCasual</text><path d="M161.833345 564.25C142.729155 564.25 128.875 558.3 112.979155 546.925H109.479155C105.833345 560.4 102.041655 574.925 98.395845 592.075C95.041655 607.3 96.5 613.775 101.020845 620.95C107.583345 630.05 133.104155 639.5 162.270845 639.5C215.5 639.5 244.229155 610.975 256.916655 561.625C268.67774 504.16375 280.795195 444.96125 292.55628 387.5C292.55628 384.70000000000005 285.816015 383.3 268.96544 383.3C262.225175 383.3 255.48494499999998 383.3 248.74471499999999 383.3C231.894105 383.3 225.15384 384.70000000000005 225.15384 387.5C225.15384 387.5 225.15384 387.5 225.15384 387.5C225.15384 387.5 225.15384 387.5 225.15384 387.5C215.18244499999997 436.5875 204.908895 487.1625 194.9375 536.25C192.895845 545.525 190.5625 551.825 187.5 556.55C181.375 561.975 173.0625 564.25 161.833345 564.25Z" fill="#1a1a1a"/><path d="M403.770845 380.5C352.875 380.5 311.895845 409.55 302.416655 454.525L300.229155 464.675C294.395845 493.20000000000005 301.25 519.8 346.604155 536.775L361.479155 542.375C370.958345 546.05 377.666655 550.425 376.5 560.225L376.208345 562.15C371.541655 567.225 362.354155 568.8 348.5 568.8C321.666655 568.8 303.4375 559.0 288.854155 543.075H285.0625C280.104155 557.775 275.14581 578.775 272.375 594.7C270.625 605.2 271.645845 613.6 276.75 619.025C286.95831 630.4 310.145845 639.5 344.708345 639.5C394.583345 639.5 423.895845 620.6 432.9375 577.375L433.958345 572.3C441.25 535.725 431.041655 511.575 393.416655 496.70000000000005L370.229155 487.6C361.625 484.1 358.270845 479.025 359.875 471.85L360.458345 469.05C362.645845 458.375 374.458345 452.25 392.395845 452.25C397.645845 452.25 403.916655 453.475 408.0 455.225L403.041655 440.70000000000005C399.979155 449.275 397.354155 458.55 396.041655 466.07500000000005C394.145845 477.8 399.25 483.05 412.520845 483.05C425.354155 483.05 439.208345 482.35 451.458345 480.95000000000005C453.9375 463.975 457.291655 445.07500000000005 461.229155 426.70000000000005C463.5625 414.8 461.520845 406.75 456.270845 399.57500000000005C447.8125 388.9 428.416655 380.5 403.770845 380.5Z" fill="#1a1a1a"/><path d="M473.0416725 632.5C473.0416725 632.5 596.5625 632.5 596.5625 632.5C600.791655 614.475 602.6875 606.775 606.3333275 588.925C609.541655 573.7 608.9583275 557.25 590.4375 557.25C590.4375 557.25 524.375 557.25 524.375 557.25C531.2291725 510.35 548.2916725 462.925 557.0416725 412.0C559.0833275 396.775 556.8958275 385.75 538.2291725 385.75C522.1875 385.75 508.0416725 386.275 492.4375 387.5C492.0 399.225 491.125 411.82500000000005 488.791655 424.775C478.0 482.0 459.7708275 536.775 449.2708275 596.1C446.9375 613.6 459.4791725 632.5 473.0416725 632.5Z" fill="#1a1a1a"/><path d="M771.8541725 632.5C775.7916725 616.925 780.166655 598.9 783.520845 582.1C786.5833275 567.575 783.8125 556.9 771.5625 556.9C771.5625 556.9 758.145845 556.9 758.145845 556.9C743.5625 556.9 730.0 557.425 705.2083275 560.575C705.2083275 560.575 706.083345 556.025 706.083345 556.025C722.8541725 548.5 737.1458275 539.225 762.083345 515.425C780.4583275 497.925 796.7916725 479.55 807.4375 462.75C807.4375 462.75 815.3125 424.6 815.3125 424.6C818.6666725 406.75 811.8125 387.5 802.479155 387.5C802.479155 387.5 666.4166725 387.5 666.4166725 387.5C661.895845 404.3 658.3958275 417.6 655.3333275 432.65C652.2708275 447.70000000000005 656.9375 458.025 670.0625 458.025C670.0625 458.025 711.7708275 458.025 711.7708275 458.025C729.5625 458.025 728.6875 458.025 746.9166725 458.025C746.9166725 458.025 745.8958275 462.57500000000005 745.8958275 462.57500000000005C731.1666725 475.525 719.7916725 487.07500000000005 704.479155 501.425C682.75 522.075 657.375 541.85 626.458345 563.2C626.458345 563.2 618.875 599.425 618.875 599.425C614.0625 622.175 618.0 632.5 633.458345 632.5C633.458345 632.5 771.8541725 632.5 771.8541725 632.5Z" fill="#1a1a1a"/><path d="M789.0625 623.925C784.3958275 639.675 780.458345 654.725 777.104155 670.825C774.9166725 680.275 776.8125 690.95 781.625 695.675C791.833345 700.225 804.5208275 702.5 820.125 702.5C858.333345 702.5 882.8333275 676.95 891.729155 634.775C903.6875 578.25 910.979155 514.375 921.3333275 455.925C923.2129325 443.5844368699825 925.6518375 438.85618991628996 929.2083275 434.75C932.50874 430.97832162045756 937.1015625 429.5 941.020845 429.5C943.548615 429.5 945.638885 429.85 947.7291725 430.9C947.145845 437.375 944.666655 443.5 940.7291725 449.975C940.7291725 449.975 940.2916725 453.3 940.2916725 453.3C950.2543875 454.35 957.89144 454.875 968.4375 454.875C978.9375 454.875 988.854155 450.15 992.2083275 434.4C992.2083275 434.4 999.0625 401.5 999.0625 401.5C1001.25 390.65 998.1875 383.3 993.2291725 377.35C987.25 370.175 970.80448 363.0 946.7083275 363.0C897.8541725 363.0 872.770845 386.1 860.229155 441.4C846.4139375 500.92068623495754 843.3674675 558.885091696 830.625 617.975C829.895845 621.475 828.729155 625.15 827.270845 628.125C825.2182 629.1793877576225 822.11937 629.525 818.2291725 629.525C809.770845 629.525 800.5833275 627.075 792.8541725 623.925C792.8541725 623.925 789.0625 623.925 789.0625 623.925ZM816.041655 487.775C813.4166725 498.975 810.2083275 513.5 807.583345 525.75C803.3541725 545.7 814.1884575 556.55 828.4375 556.55C828.4375 556.55 960.7083275 556.55 960.7083275 556.55C964.208345 543.425 968.2916725 525.575 971.208345 511.575C974.125 494.6 968.1458275 487.775 955.8958275 487.775C955.8958275 487.775 816.041655 487.775 816.041655 487.775Z" fill="#1a1a1a"/><path d="M1000.229155 445.07500000000005C996.1458275 460.475 992.0625 476.925 988.7083275 493.55C985.3094775 509.50313164872 986.8125 521.725 996.4375 521.725C1008.25 521.725 1020.6458275 517.7 1033.041655 508.95C1033.041655 508.95 1038.729155 509.475 1038.729155 509.475C1033.0416725 528.025 1028.677925 544.042843899575 1024.875 566.525C1017.4375 607.475 1036.6875 634.425 1071.1041725 634.425C1091.5208275 634.425 1106.541655 631.275 1120.1041725 625.325C1125.2083275 620.425 1128.4166725 614.125 1130.6041725 604.325C1134.6875 585.95 1137.18006 568.214028503155 1139.354155 550.25C1139.354155 550.25 1135.5625 550.25 1135.5625 550.25C1122.5453875 557.40418546213 1107.1192775 561.1 1093.2708275 561.1C1091.8125 561.1 1089.916655 560.75 1088.4583275 560.225C1088.3125 557.425 1088.75 554.625 1089.625 551.475C1096.625 521.025 1106.541655 494.25 1112.375 461.35C1114.2708275 448.57500000000005 1105.5208275 438.07500000000005 1091.8125 438.07500000000005C1063.2890399999999 438.07500000000005 1031.6335 439.04697223585003 1000.229155 445.07500000000005ZM1043.425 386.275C1043.425 386.275 1043.425 386.275 1043.425 386.275C1043.425 415.17408 1066.8509025 438.6 1095.75 438.6C1124.6490975 438.6 1148.075 415.17408 1148.075 386.275C1148.075 386.275 1148.075 386.275 1148.075 386.275C1148.075 357.37592 1124.6490975 333.95000000000005 1095.75 333.95000000000005C1066.8509025 333.95000000000005 1043.425 357.37592 1043.425 386.275Z" fill="#1a1a1a"/><path d="M1190.25 372.975C1183.541655 390.3 1178.2916725 408.5 1174.354155 427.4C1171.145845 442.275 1173.0416725 452.25 1183.3958275 452.25C1196.666655 452.25 1209.2083275 449.45000000000005 1224.6666725 440.0C1224.6666725 440.0 1229.0416725 440.525 1229.0416725 440.525C1220.291655 474.475 1202.7916725 510.875 1194.3333275 559.0C1187.0416725 599.775 1206.7291725 634.425 1246.541655 634.425C1263.4583275 634.425 1278.1875 632.15 1291.166655 626.375C1295.6875 622.0 1299.916655 615.35 1302.25 603.975C1306.1875 585.425 1308.5208275 565.825 1310.416655 550.25C1310.416655 550.25 1306.7708275 550.25 1306.7708275 550.25C1293.5 557.775 1279.791655 561.975 1266.5208275 561.975C1264.0416725 561.975 1261.5625 561.45 1259.958345 560.225C1259.9583275 557.25 1260.25 554.275 1261.2708275 550.775C1272.645845 502.3 1294.229155 453.65 1304.2916725 400.8C1306.916655 385.4 1295.6875 368.25 1279.9375 368.25C1251.2083275 368.25 1220.0 369.475 1190.25 372.975Z" fill="#1a1a1a"/><path d="M1348.770845 442.975C1344.104155 458.375 1339.875 475.175 1336.2291725 493.375C1332.729155 511.225 1334.7708275 520.675 1340.3125 520.675C1345.5625 520.675 1353.0 519.275 1359.7083275 511.75C1359.7083275 511.75 1363.6458275 512.45 1363.6458275 512.45C1357.5208275 543.95 1344.979155 593.3 1342.645845 604.325C1339.5833275 619.55 1345.4166725 634.25 1362.041655 634.25C1376.0416725 634.25 1389.75 633.725 1403.458345 632.5C1403.166655 620.95 1404.4791725 608.7 1406.958345 593.3C1412.791655 559.7 1424.0208275 525.225 1431.4583275 491.45000000000005C1434.8125 478.32500000000005 1426.791655 438.25 1408.2708275 438.25C1391.3541725 438.25 1366.8541725 440.175 1348.770845 442.975ZM1485.5625 434.75C1467.0416725 434.75 1451.583345 450.15 1435.6875 486.025C1435.6875 486.025 1425.041655 485.32500000000005 1425.041655 485.32500000000005C1425.041655 485.32500000000005 1412.3541725 536.95 1412.3541725 536.95C1421.9791725 524.35 1430.525 517.7 1440.2083275 517.7C1441.375 517.7 1443.125 517.875 1444.1458275 518.4C1443.5625 523.825 1442.5416725 530.475 1440.9375 536.25C1440.9375 536.25 1440.6458275 538.7 1440.6458275 538.7C1452.3125 539.575 1463.3958275 539.75 1475.791655 539.75C1487.3125 539.75 1496.5 531.0 1499.4166725 516.475C1499.4166725 516.475 1508.75 472.025 1508.75 472.025C1511.375 458.55 1509.479155 448.4 1504.666655 442.625C1500.4375 437.55 1492.854155 434.75 1485.5625 434.75Z" fill="#1a1a1a"/><path d="M1517.354155 507.55C1517.354155 507.55 1500.5833275 588.225 1500.5833275 588.225C1484.25 669.425 1507.1458275 711.25 1558.9166725 711.25C1581.2291725 711.25 1596.6875 706.175 1602.2291725 701.1C1606.4583275 697.075 1608.7916725 691.3 1610.104155 683.6C1611.2708275 676.775 1615.2083275 654.55 1616.0833275 648.075C1616.0833275 648.075 1611.8541725 648.075 1611.8541725 648.075C1597.5625 655.775 1582.8333275 659.1 1569.125 659.1C1555.125 659.1 1547.3958275 657.0 1540.979155 652.1C1534.5625 639.15 1535.0 618.15 1541.125 588.4C1541.125 588.4 1555.2708275 520.85 1555.2708275 520.85C1566.354155 467.65 1585.020845 421.8 1620.0208275 421.8C1628.7708275 421.8 1633.4375 423.725 1636.2083275 427.57500000000005C1637.6666725 433.525 1637.2291725 441.57500000000005 1635.3333275 450.85C1624.833345 501.425 1612.5833275 540.45 1603.8333275 591.2C1601.6458275 608.35 1619.7291725 635.825 1635.4791725 635.825C1635.4791725 635.825 1644.958345 635.825 1644.958345 635.825C1646.5625 621.125 1648.75 606.6 1651.520845 593.125C1660.8541725 546.75 1674.8541725 495.125 1682.4375 455.4C1693.083345 400.975 1674.5625 366.5 1623.8125 366.5C1568.8333275 366.5 1533.9791725 424.6 1517.354155 507.55ZM1635.625 559.0C1624.3958275 573.35 1613.75 583.5 1605.0 583.5C1601.354155 583.5 1601.5 577.2 1603.541655 567.225C1603.541655 567.225 1612.1458275 525.925 1612.1458275 525.925C1614.9166725 512.975 1617.25 503.70000000000005 1619.729155 496.70000000000005C1621.0416725 496.0 1622.0625 495.65 1623.666655 495.65C1628.9166725 495.65 1635.041655 497.05 1640.583345 501.425C1640.583345 501.425 1651.9583275 453.475 1651.9583275 453.475C1651.9583275 453.475 1640.0 453.475 1640.0 453.475C1634.8958275 447.175 1630.0833275 443.5 1618.7083275 443.5C1601.354155 443.5 1581.8125 470.8 1572.3333275 519.275C1572.3333275 519.275 1558.3333275 586.65 1558.3333275 586.65C1551.3333275 621.65 1559.3541725 638.45 1575.979155 638.45C1590.125 638.45 1604.2708275 630.925 1618.416655 610.8C1618.416655 610.8 1625.2708275 610.8 1625.2708275 610.8C1625.2708275 610.8 1635.625 559.0 1635.625 559.0Z" fill="#1a1a1a"/><path d="M1664.0625 623.925C1659.3958275 639.675 1655.458345 654.725 1652.104155 670.825C1649.9166725 680.275 1651.8125 690.95 1656.625 695.675C1666.833345 700.225 1679.5208275 702.5 1695.125 702.5C1733.333345 702.5 1757.8333275 676.95 1766.729155 634.775C1778.6875 578.25 1785.979155 514.375 1796.3333275 455.925C1798.2129325 443.5844368699825 1800.6518375 438.85618991628996 1804.2083275 434.75C1807.50874 430.97832162045756 1812.1015625 429.5 1816.020845 429.5C1818.548615 429.5 1820.638885 429.85 1822.7291725 430.9C1822.145845 437.375 1819.666655 443.5 1815.7291725 449.975C1815.7291725 449.975 1815.2916725 453.3 1815.2916725 453.3C1825.2543875 454.35 1832.8914399999999 454.875 1843.4375 454.875C1853.9375 454.875 1863.854155 450.15 1867.2083275 434.4C1867.2083275 434.4 1874.0625 401.5 1874.0625 401.5C1876.25 390.65 1873.1875 383.3 1868.2291725 377.35C1862.25 370.175 1845.80448 363.0 1821.7083275 363.0C1772.8541725 363.0 1747.770845 386.1 1735.229155 441.4C1721.4139375 500.92068623495754 1718.3674675 558.885091696 1705.625 617.975C1704.895845 621.475 1703.729155 625.15 1702.270845 628.125C1700.2182 629.1793877576225 1697.11937 629.525 1693.2291725 629.525C1684.770845 629.525 1675.5833275 627.075 1667.8541725 623.925C1667.8541725 623.925 1664.0625 623.925 1664.0625 623.925ZM1691.041655 487.775C1688.4166725 498.975 1685.2083275 513.5 1682.583345 525.75C1678.3541725 545.7 1689.1884575 556.55 1703.4375 556.55C1703.4375 556.55 1835.7083275 556.55 1835.7083275 556.55C1839.208345 543.425 1843.2916725 525.575 1846.208345 511.575C1849.125 494.6 1843.1458275 487.775 1830.8958275 487.775C1830.8958275 487.775 1691.041655 487.775 1691.041655 487.775ZM1875.229155 445.07500000000005C1871.1458275 460.475 1867.0625 476.925 1863.7083275 493.55C1860.3094775 509.50313164872 1861.8125 521.725 1871.4375 521.725C1883.25 521.725 1895.6458275 517.7 1908.041655 508.95C1908.041655 508.95 1913.729155 509.475 1913.729155 509.475C1908.0416725 528.025 1903.677925 544.042843899575 1899.875 566.525C1892.4375 607.475 1911.6875 634.425 1946.1041725 634.425C1966.5208275 634.425 1981.541655 631.275 1995.1041725 625.325C2000.2083275 620.425 2003.4166725 614.125 2005.6041725 604.325C2009.6875 585.95 2012.18006 568.214028503155 2014.354155 550.25C2014.354155 550.25 2010.5625 550.25 2010.5625 550.25C1997.5453875 557.40418546213 1982.1192775 561.1 1968.2708275 561.1C1966.8125 561.1 1964.916655 560.75 1963.4583275 560.225C1963.3125 557.425 1963.75 554.625 1964.625 551.475C1971.625 521.025 1981.541655 494.25 1987.375 461.35C1989.2708275 448.57500000000005 1980.5208275 438.07500000000005 1966.8125 438.07500000000005C1938.2890399999999 438.07500000000005 1906.6335 439.04697223585003 1875.229155 445.07500000000005ZM1918.425 386.275C1918.425 386.275 1918.425 386.275 1918.425 386.275C1918.425 415.17408 1941.8509025 438.6 1970.75 438.6C1999.6490975 438.6 2023.075 415.17408 2023.075 386.275C2023.075 386.275 2023.075 386.275 2023.075 386.275C2023.075 357.37592 1999.6490975 333.95000000000005 1970.75 333.95000000000005C1941.8509025 333.95000000000005 1918.425 357.37592 1918.425 386.275Z" fill="#1a1a1a"/><line x1="20" y1="715.0" x2="1870.0" y2="715.0" stroke="#eee" stroke-width="0.5"/><text x="20" y="886.25" font-size="11" font-family="sans-serif" font-weight="bold" fill="#555">Casual</text><path d="M161.25 896.75C141.708345 896.75 128.875 891.85 112.833345 877.5H111.666655C109.041655 882.4 106.416655 889.4 103.791655 901.65C97.375 930.7 100.291655 942.25 108.166655 955.2C115.16665499999999 966.05 138.208345 972.0 160.375 972.0C207.625 972.0 240.0 948.9 254.875 902.35C266.771955 842.1745 279.02941 780.1755 290.92633 720.0C290.92633 717.2 284.32116499999995 715.8 267.8082 715.8C261.203 715.8 254.5978 715.8 247.99263499999998 715.8C231.47967 715.8 224.87446999999997 717.2 224.87446999999997 720.0C224.87446999999997 720.0 224.87446999999997 720.0 224.87446999999997 720.0C224.87446999999997 720.0 224.87446999999997 720.0 224.87446999999997 720.0C214.36964 772.668 203.54648500000002 826.932 193.041655 879.6C192.166655 883.1 191.291655 886.6 190.125 890.1C183.125 894.65 173.5 896.75 161.25 896.75Z" fill="#1a1a1a"/><path d="M406.833345 713.0C356.375 713.0 309.416655 752.2 299.5 800.15L298.916655 802.95C292.208345 834.8 305.041655 855.1 347.916655 871.55L359.875 876.1C370.375 880.3 375.916655 885.9 375.916655 894.65V895.7C368.333345 897.45 357.833345 898.15 346.166655 898.15C321.958345 898.15 305.041655 887.65 290.75 869.45H289.0C283.166655 878.2 277.625 899.55 275.875 910.75C272.666655 930.35 275.0 945.75 284.041655 955.2C294.25 965.7 313.208345 972.0 344.708345 972.0C396.333345 972.0 424.333345 953.45 432.5 913.9L433.666655 908.3C439.791655 878.55 426.375 853.35 391.666655 839.7L370.958345 831.65C359.583345 827.1 355.5 821.15 357.25 813.45L357.541655 812.05C359.875 800.5 378.25 790.7 398.083345 790.7C400.416655 790.7 404.5 791.05 408.0 791.4L404.5 777.4C400.416655 785.45 397.208345 794.9 396.625 800.5C393.416655 821.15 403.041655 830.6 427.25 830.6C436.583345 830.6 444.75 829.2 451.458345 826.4C452.041655 813.1 454.375 796.3 457.875 780.2C461.666655 760.95 457.291655 745.2 448.25 732.6C438.333345 719.65 423.75 713.0 406.833345 713.0Z" fill="#1a1a1a"/><path d="M499.875 965.0H597.0C599.041655 959.4 600.791655 953.1 602.25 946.1C607.791655 919.5 607.5 888.0 573.083345 888.0H524.666655C527.0 848.8 548.875 812.4 555.0 765.15C558.5 737.15 555.0 716.5 519.708345 716.5C509.5 716.5 499.875 717.55 490.541655 720.0C492.291655 731.9 492.875 745.55 490.541655 759.9C483.25 805.75 461.375 846.0 454.666655 896.05C450.291655 928.95 474.5 965.0 499.875 965.0Z" fill="#1a1a1a"/><path d="M772.583345 965.0C775.5 956.95 779.291655 944.35 781.333345 933.85C786.875 907.25 782.208345 887.3 759.75 887.3H758.583345C749.833345 887.3 737.583345 888.35 712.791655 894.65L713.083345 892.55C732.625 880.65 752.166655 865.6 769.083345 849.85C790.375 829.55 807.0 808.55 809.916655 793.5L810.5 790.35C816.625 757.1 803.791655 720.0 787.166655 720.0H667.875C664.083345 729.1 660.875 737.85 659.125 745.9C653.875 771.8 662.333345 791.05 685.375 791.05H711.625C728.541655 791.05 735.541655 791.05 746.625 791.05L746.041655 793.15C735.833345 810.65 723.0 825.35 710.166655 838.65C688.583345 861.05 661.458345 879.25 623.833345 899.55L623.25 902.7C614.208345 945.75 621.208345 965.0 650.083345 965.0Z" fill="#1a1a1a"/><path d="M793.0 951.35C788.625 959.75 785.708345 966.4 783.666655 975.5C779.875 991.95 782.5 1011.9 790.375 1021.35C797.958345 1030.45 807.291655 1035.0 825.666655 1035.0C863.583345 1035.0 889.25 1006.65 897.416655 968.15C908.5 916.35 908.791655 856.5 916.666655 800.5C919.583345 780.2 922.791655 774.25 927.75 768.3C931.833345 763.4 937.958345 761.65 941.458345 761.65C944.375 761.65 946.416655 762.35 948.458345 764.45C948.458345 772.15 943.791655 782.65 937.083345 790.0V792.1C941.75 794.2 946.125 795.25 951.958345 795.25C970.333345 795.25 989.291655 787.2 995.416655 758.15L996.0 755.35C1000.083345 735.4 994.25 721.4 985.208345 710.55C977.625 701.45 963.692305 695.5 946.125 695.5C903.25 695.5 874.083345 722.1 862.416655 767.25C847.03622 828.191372469915 853.484935 883.570183392 840.25 943.3C839.083345 948.9 837.041655 955.55 834.708345 960.8C831.1864 962.208775515245 825.86374 962.55 819.833345 962.55C810.208345 962.55 802.041655 957.65 794.75 951.35ZM816.916655 822.55C815.75 825.7 814.875 828.15 813.708345 833.4C805.833345 870.85 826.626915 891.15 853.083345 891.15H960.416655C963.333345 884.15 965.958345 875.05 967.708345 866.3C972.958345 834.8 961.875 822.55 939.416655 822.55Z" fill="#1a1a1a"/><path d="M998.041655 782.65C994.541655 790.7 991.041655 800.5 989.0 811.0C982.78561 840.45626329744 984.916655 863.5 1002.125 863.5C1014.083345 863.5 1026.916655 855.45 1040.041655 837.95L1041.791655 839.0C1034.208345 858.95 1028.98085 873.83568779915 1025.166655 901.65C1020.208345 937.35 1044.708345 968.85 1074.75 968.85C1098.375 968.85 1110.916655 962.55 1120.833345 950.65C1129.0 940.85 1133.958345 929.65 1137.75 912.5C1140.958345 898.5 1141.276775 886.12805700631 1140.666655 872.95H1138.916655C1125.42412 887.25837092426 1107.6969 894.65 1092.541655 894.65C1090.5 894.65 1087.291655 894.3 1084.666655 893.6C1084.958345 888.7 1085.833345 884.15 1087.291655 879.25C1093.416655 855.8 1105.666655 839.7 1109.458345 811.35C1112.666655 788.25 1096.041655 768.65 1070.666655 768.65C1050.369735 768.65 1024.100345 770.5939444717001 998.041655 782.65ZM1043.716655 720.175C1043.716655 749.07408 1067.14254 772.5 1096.041655 772.5C1124.94077 772.5 1148.366655 749.07408 1148.366655 720.175C1148.366655 691.27592 1124.94077 667.85 1096.041655 667.85C1067.14254 667.85 1043.716655 691.27592 1043.716655 720.175Z" fill="#1a1a1a"/><path d="M1192.291655 708.45C1183.541655 720.35 1178.0 733.65 1174.791655 748.7C1168.958345 776.0 1171.875 794.55 1190.541655 794.55C1204.541655 794.55 1216.791655 788.95 1234.875 770.05L1236.333345 771.1C1227.291655 798.4 1201.333345 830.95 1192.875 886.6C1186.75 927.2 1209.208345 968.85 1254.416655 968.85C1271.916655 968.85 1285.041655 964.3 1294.666655 952.75C1301.958345 944.0 1308.666655 932.1 1312.75 911.8C1315.958345 897.45 1315.666655 881.35 1314.791655 872.95H1313.041655C1298.166655 888.0 1282.416655 896.4 1267.541655 896.4C1263.458345 896.4 1259.375 895.7 1256.458345 893.6C1256.75 888.35 1257.625 883.45 1259.375 877.85C1269.583345 841.45 1299.916655 805.4 1307.5 760.25C1312.166655 731.9 1290.583345 699.0 1261.125 699.0C1240.416655 699.0 1215.041655 701.45 1192.291655 708.45Z" fill="#1a1a1a"/><path d="M1349.208345 778.45C1344.541655 787.2 1340.75 798.75 1338.125 813.1C1331.416655 846.35 1334.625 863.85 1343.958345 863.85C1350.083345 863.85 1356.5 861.05 1365.25 846.0L1367.291655 847.4C1363.5 870.85 1354.166655 892.9 1350.083345 912.5C1344.541655 940.5 1355.333345 968.5 1386.541655 968.5C1393.833345 968.5 1400.25 967.45 1406.958345 965.0C1404.041655 953.1 1404.333345 940.15 1406.958345 920.55C1411.041655 889.4 1425.916655 856.5 1431.75 832.0C1437.875 806.45 1427.666655 769.0 1390.625 769.0C1374.875 769.0 1360.583345 772.85 1349.208345 778.45ZM1480.166655 765.5C1466.458345 765.5 1448.958345 785.8 1434.666655 824.3L1430.291655 822.9L1414.833345 881.0C1422.708345 862.45 1430.583345 851.6 1441.375 851.6C1443.125 851.6 1445.75 851.95 1447.5 853.0C1447.5 858.6 1446.333345 867.0 1444.291655 873.3V875.4C1449.25 877.15 1453.625 877.5 1460.041655 877.5C1481.041655 877.5 1497.958345 861.4 1503.208345 834.8L1504.375 829.55C1509.333345 804.0 1505.541655 784.75 1496.791655 774.25C1491.541655 767.95 1486.291655 765.5 1480.166655 765.5Z" fill="#1a1a1a"/><path d="M1508.166655 885.9 1507.0 891.85C1488.041655 988.1 1510.791655 1035.0 1558.625 1035.0C1581.083345 1035.0 1591.875 1031.15 1598.875 1024.5C1606.75 1017.15 1610.833345 1006.65 1613.166655 992.3C1614.041655 986.7 1613.75 980.75 1613.75 975.85H1612.0C1594.5 986.0 1580.791655 989.15 1565.916655 989.15C1557.458345 989.15 1549.291655 988.1 1542.291655 984.95C1534.416655 965.35 1537.333345 931.75 1545.791655 890.45L1546.666655 886.6C1560.666655 819.4 1589.833345 744.85 1632.125 744.85C1634.75 744.85 1636.5 744.85 1638.541655 744.85C1638.833345 750.45 1637.958345 757.45 1636.5 764.45C1626.583345 812.4 1608.791655 859.65 1602.375 907.95C1598.0 941.2 1613.458345 960.8 1642.333345 960.8H1648.458345C1648.458345 946.8 1649.625 933.15 1651.958345 921.6C1661.0 875.05 1676.458345 831.65 1684.916655 784.4C1694.833345 729.8 1674.416655 699.0 1629.5 699.0C1573.5 699.0 1528.875 780.2 1508.166655 885.9ZM1642.625 875.4C1630.375 891.15 1617.25 905.15 1609.083345 905.15C1606.166655 905.15 1607.625 895.35 1610.541655 880.65L1611.125 877.5C1616.083345 854.05 1619.875 837.6 1623.666655 825.0C1624.833345 825.0 1625.125 825.0 1626.291655 825.0C1629.208345 825.0 1633.291655 826.4 1637.958345 831.3L1651.375 779.5H1647.291655C1644.375 774.6 1642.041655 771.8 1630.666655 771.8C1611.416655 771.8 1581.083345 815.9 1567.375 887.65L1566.5 892.2C1557.166655 940.15 1566.5 962.55 1584.291655 962.55C1598.583345 962.55 1612.875 954.15 1627.166655 933.85H1631.25Z" fill="#1a1a1a"/><path d="M1668.0 951.35C1663.625 959.75 1660.708345 966.4 1658.666655 975.5C1654.875 991.95 1657.5 1011.9 1665.375 1021.35C1672.958345 1030.45 1682.291655 1035.0 1700.666655 1035.0C1738.583345 1035.0 1764.25 1006.65 1772.416655 968.15C1783.5 916.35 1783.791655 856.5 1791.666655 800.5C1794.583345 780.2 1797.791655 774.25 1802.75 768.3C1806.833345 763.4 1812.958345 761.65 1816.458345 761.65C1819.375 761.65 1821.416655 762.35 1823.458345 764.45C1823.458345 772.15 1818.791655 782.65 1812.083345 790.0V792.1C1816.75 794.2 1821.125 795.25 1826.958345 795.25C1845.333345 795.25 1864.291655 787.2 1870.416655 758.15L1871.0 755.35C1875.083345 735.4 1869.25 721.4 1860.208345 710.55C1852.625 701.45 1838.692305 695.5 1821.125 695.5C1778.25 695.5 1749.083345 722.1 1737.416655 767.25C1722.03622 828.191372469915 1728.484935 883.570183392 1715.25 943.3C1714.083345 948.9 1712.041655 955.55 1709.708345 960.8C1706.1864 962.208775515245 1700.86374 962.55 1694.833345 962.55C1685.208345 962.55 1677.041655 957.65 1669.75 951.35ZM1691.916655 822.55C1690.75 825.7 1689.875 828.15 1688.708345 833.4C1680.833345 870.85 1701.626915 891.15 1728.083345 891.15H1835.416655C1838.333345 884.15 1840.958345 875.05 1842.708345 866.3C1847.958345 834.8 1836.875 822.55 1814.416655 822.55ZM1873.041655 782.65C1869.541655 790.7 1866.041655 800.5 1864.0 811.0C1857.78561 840.45626329744 1859.916655 863.5 1877.125 863.5C1889.083345 863.5 1901.916655 855.45 1915.041655 837.95L1916.791655 839.0C1909.208345 858.95 1903.98085 873.83568779915 1900.166655 901.65C1895.208345 937.35 1919.708345 968.85 1949.75 968.85C1973.375 968.85 1985.916655 962.55 1995.833345 950.65C2004.0 940.85 2008.958345 929.65 2012.75 912.5C2015.958345 898.5 2016.276775 886.12805700631 2015.666655 872.95H2013.916655C2000.42412 887.25837092426 1982.6969 894.65 1967.541655 894.65C1965.5 894.65 1962.291655 894.3 1959.666655 893.6C1959.958345 888.7 1960.833345 884.15 1962.291655 879.25C1968.416655 855.8 1980.666655 839.7 1984.458345 811.35C1987.666655 788.25 1971.041655 768.65 1945.666655 768.65C1925.369735 768.65 1899.100345 770.5939444717001 1873.041655 782.65ZM1918.716655 720.175C1918.716655 749.07408 1942.14254 772.5 1971.041655 772.5C1999.94077 772.5 2023.366655 749.07408 2023.366655 720.175C2023.366655 691.27592 1999.94077 667.85 1971.041655 667.85C1942.14254 667.85 1918.716655 691.27592 1918.716655 720.175Z" fill="#1a1a1a"/>
</svg>