<?xml version="1.0" encoding="UTF-8"?>
<svg xmlns="http://www.w3.org/2000/svg" width="1890.0" height="725.0"
     viewBox="0 0 1890.0 725.0">
<rect width="100%" height="100%" fill="white"/>
<text x="945.0" y="30" text-anchor="middle" font-size="14" font-family="sans-serif" font-weight="bold" fill="#333">Mono B Upright — Key glyphs + features</text><text x="187.5" y="48" text-anchor="middle" font-size="10" font-family="sans-serif" fill="#999">J</text><text x="362.5" y="48" text-anchor="middle" font-size="10" font-family="sans-serif" fill="#999">S</text><text x="537.5" y="48" text-anchor="middle" font-size="10" font-family="sans-serif" fill="#999">L</text><text x="712.5" y="48" text-anchor="middle" font-size="10" font-family="sans-serif" fill="#999">Z</text><text x="887.5" y="48" text-anchor="middle" font-size="10" font-family="sans-serif" fill="#999">f</text><text x="1062.5" y="48" text-anchor="middle" font-size="10" font-family="sans-serif" fill="#999">i</text><text x="1237.5" y="48" text-anchor="middle" font-size="10" font-family="sans-serif" fill="#999">l</text><text x="1412.5" y="48" text-anchor="middle" font-size="10" font-family="sans-serif" fill="#999">r</text><text x="1587.5" y="48" text-anchor="middle" font-size="10" font-family="sans-serif" fill="#999">@</text><text x="1762.5" y="48" text-anchor="middle" font-size="10" font-family="sans-serif" fill="#999">fi</text><text x="20" y="221.25" font-size="11" font-family="sans-serif" font-weight="bold" fill="#555">Linear</text><path d="M171.75 257.65C156.875 257.65 143.458345 254.5 129.166655 247.15H123.33334500000001C123.33334500000001 262.9 123.33334500000001 276.2 123.33334500000001 290.55C123.33334500000001 293.0 123.625 294.4 124.79165499999999 295.8C129.166655 301.05 149.583345 307.0 174.666655 307.0C224.25 307.0 248.75 267.45 248.75 214.25C248.75 162.45000000000002 248.75 110.65 248.75 58.85000000000002C248.75 56.400000000000006 247.58334499999998 55.00000000000003 245.541655 55.00000000000003C208.791655 55.00000000000003 172.041655 55.00000000000003 135.291655 55.00000000000003C135.291655 70.4 135.291655 83.0 135.291655 98.4C135.291655 100.85000000000002 136.458345 102.25 138.5 102.25C162.416655 102.25 186.333345 102.25 210.25 102.25L196.541655 93.5L208.5 109.60000000000002L202.083345 92.80000000000001C202.083345 140.4 202.083345 181.7 202.083345 218.8C202.083345 233.5 199.75 243.3 194.791655 249.25C189.833345 255.2 182.25 257.65 171.75 257.65Z" fill="#1a1a1a"/><path d="M368.916655 48.00000000000003C323.125 48.00000000000003 294.541655 76.35000000000002 294.541655 114.5V132.35000000000002C294.541655 157.55 303.0 180.3 342.083345 194.65L369.5 204.8C389.625 212.15 391.375 217.4 391.375 226.85000000000002V239.8C391.375 249.6 382.625 259.4 359.583345 259.4C333.333345 259.4 315.833345 252.75 298.333345 239.1H292.5C292.5 255.55 292.5 268.85 292.5 281.8C292.5 286.35 293.083345 287.4 294.25 288.8C303.875 300.35 328.083345 307.0 356.375 307.0C405.375 307.0 434.25 282.15 434.25 240.5V223.7C434.25 191.15 424.041655 173.65 387.583345 160.35000000000002L359.875 150.20000000000002C340.625 143.20000000000002 337.416655 138.3 337.416655 125.70000000000002V118.35000000000002C337.416655 101.55000000000001 347.916655 95.25 366.291655 95.25C375.041655 95.25 384.666655 97.0 393.708345 100.15L385.541655 88.60000000000002C385.541655 103.30000000000001 385.541655 111.70000000000002 385.541655 119.4C385.541655 121.85000000000002 386.708345 123.25 388.75 123.25C401.291655 123.25 414.416655 123.25 426.958345 123.25C426.958345 107.5 426.958345 87.9 426.958345 74.25000000000003C426.958345 71.45000000000002 426.666655 69.70000000000002 425.208345 67.95000000000002C416.166655 57.10000000000002 396.333345 48.00000000000003 368.916655 48.00000000000003Z" fill="#1a1a1a"/><path d="M473.625 300.0H607.5C607.5 285.65 607.5 273.05 607.5 256.95C607.5 254.15 606.333345 252.75 604.0 252.75H517.083345C517.083345 189.05 517.083345 122.55000000000001 517.083345 58.85000000000002C517.083345 56.400000000000006 515.916655 55.00000000000003 513.875 55.00000000000003C499.291655 55.00000000000003 485.0 55.00000000000003 470.416655 55.00000000000003C470.416655 64.45000000000002 470.416655 73.55000000000001 470.416655 83.0C470.416655 154.05 470.416655 225.10000000000002 470.416655 296.15C470.416655 298.6 471.583345 300.0 473.625 300.0Z" fill="#1a1a1a"/><path d="M786.875 300.0C786.875 284.6 786.875 269.55 786.875 254.15C786.875 251.7 785.708345 250.3 783.666655 250.3H732.333345C709.875 250.3 698.208345 250.3 683.625 250.3V243.3C695.875 235.95 702.875 230.0 714.833345 212.85000000000002C738.166655 178.9 761.791655 145.3 785.416655 111.35000000000002V58.85000000000002C785.416655 56.400000000000006 784.25 55.00000000000003 782.208345 55.00000000000003H639.583345C639.583345 65.15 639.583345 85.45000000000002 639.583345 99.80000000000001C639.583345 103.30000000000001 640.75 104.70000000000002 643.666655 104.70000000000002H688.291655C702.0 104.70000000000002 710.458345 104.70000000000002 741.375 104.70000000000002V111.70000000000002C725.625 120.80000000000001 721.833345 125.35000000000002 710.166655 142.15C686.541655 176.10000000000002 663.208345 210.05 639.583345 243.65V296.15C639.583345 298.6 640.75 300.0 642.791655 300.0Z" fill="#1a1a1a"/><path d="M918.416655 30.5C875.541655 30.5 851.041655 57.80000000000001 851.041655 104.70000000000002C851.041655 163.85000000000002 851.041655 223.35000000000002 851.041655 282.5H896.833345L894.791655 273.75C894.791655 262.9 894.791655 258.35 894.791655 248.2C894.791655 200.60000000000002 894.791655 153.0 894.791655 105.4C894.791655 93.15 895.958345 85.45000000000002 899.458345 81.25C902.958345 77.4 908.208345 76.0 917.541655 76.0C932.416655 76.0 942.625 78.10000000000002 954.583345 81.25H960.416655C960.416655 67.60000000000002 960.416655 54.30000000000001 960.416655 41.35000000000002C960.416655 40.30000000000001 960.125 39.25 959.541655 38.55000000000001C956.625 35.05000000000001 941.458345 30.5 918.416655 30.5ZM817.5 121.5C817.5 136.351937984485 817.5 148.298062015515 817.5 163.15C817.5 165.60000000000002 818.666655 167.0 820.708345 167.0H951.666655C951.666655 152.3 951.666655 140.05 951.666655 125.35000000000002C951.666655 122.9 950.5 121.5 948.458345 121.5ZM817.5 254.5C817.5 269.351937984485 817.5 281.29806201551503 817.5 296.15C817.5 298.6 818.666655 300.0 820.708345 300.0H951.666655C951.666655 285.148062015515 951.666655 273.20193798448497 951.666655 258.35C951.666655 255.9 950.5 254.5 948.458345 254.5Z" fill="#1a1a1a"/><path d="M989.583345 111.0C989.583345 125.0 989.583345 138.65 989.583345 152.65C989.583345 155.10000000000002 990.75 156.5 992.791655 156.5C1006.791655 156.5 1021.375 156.5 1035.375 156.5H1042.083345C1042.083345 184.85000000000002 1042.083345 213.55 1042.083345 241.9C1042.083345 281.1 1056.375 300.0 1090.208345 300.0C1104.208345 300.0 1118.208345 300.0 1132.208345 300.0C1134.25 300.0 1135.416655 298.6 1135.416655 296.15C1135.416655 282.15 1135.416655 268.5 1135.416655 254.5H1129.583345C1118.791655 254.5 1106.25 254.5 1094.583345 254.5C1091.083345 254.5 1089.041655 253.8 1087.583345 252.05C1086.125 250.3 1085.833345 248.2 1085.833345 245.05C1085.833345 201.65 1085.833345 158.25 1085.833345 114.85000000000002C1085.833345 112.4 1084.666655 111.0 1082.625 111.0C1051.708345 111.0 1020.5 111.0 989.583345 111.0ZM1023.5975 46.25000000000003C1023.5975 67.73583500000001 1041.01413 85.1525 1062.5 85.1525C1083.98587 85.1525 1101.4025 67.73583500000001 1101.4025 46.25000000000003C1101.4025 24.76416499999999 1083.98587 7.347500000000025 1062.5 7.347500000000025C1041.01413 7.347500000000025 1023.5975 24.76416499999999 1023.5975 46.25000000000003Z" fill="#1a1a1a"/><path d="M1164.583345 37.5C1164.583345 51.50000000000003 1164.583345 65.15 1164.583345 79.15C1164.583345 81.60000000000002 1165.75 83.0 1167.791655 83.0C1182.375 83.0 1197.25 83.0 1211.833345 83.0H1217.083345C1217.083345 137.25 1217.083345 191.85000000000002 1217.083345 246.1C1217.083345 282.5 1231.375 300.0 1265.208345 300.0C1279.208345 300.0 1293.208345 300.0 1307.208345 300.0C1309.25 300.0 1310.416655 298.6 1310.416655 296.15C1310.416655 282.15 1310.416655 268.5 1310.416655 254.5H1304.583345C1293.791655 254.5 1281.25 254.5 1269.583345 254.5C1266.083345 254.5 1264.041655 253.8 1262.583345 252.05C1261.125 250.3 1260.833345 248.2 1260.833345 245.05C1260.833345 177.15 1260.833345 109.25 1260.833345 41.35000000000002C1260.833345 38.900000000000034 1259.666655 37.5 1257.625 37.5C1226.708345 37.5 1195.5 37.5 1164.583345 37.5Z" fill="#1a1a1a"/><path d="M1341.041655 111.0C1341.041655 125.0 1341.041655 138.65 1341.041655 152.65C1341.041655 155.10000000000002 1342.208345 156.5 1344.25 156.5C1351.25 156.5 1358.25 156.5 1365.25 156.5H1370.208345C1370.208345 194.65 1370.208345 258.0 1370.208345 296.15C1370.208345 298.6 1371.375 300.0 1373.416655 300.0C1386.833345 300.0 1400.541655 300.0 1413.958345 300.0C1413.958345 289.85 1413.958345 278.3 1413.958345 265.7C1413.958345 229.65 1413.958345 187.3 1413.958345 158.60000000000002C1413.958345 158.25 1400.833345 111.0 1400.541655 111.0C1378.375 111.0 1363.208345 111.0 1341.041655 111.0ZM1461.791655 107.5C1439.916655 107.5 1425.625 123.95000000000002 1415.708345 148.10000000000002H1406.083345L1408.708345 189.4C1418.916655 169.45000000000002 1434.958345 159.65 1445.458345 159.65C1446.041655 159.65 1446.333345 159.65 1446.625 159.65C1446.625 166.65 1446.625 174.35000000000002 1446.625 181.35000000000002V188.35000000000002C1458.583345 188.35000000000002 1470.833345 188.35000000000002 1482.791655 188.35000000000002C1484.833345 188.35000000000002 1486.0 186.95 1486.0 184.5V117.30000000000001C1486.0 116.25 1485.708345 114.85000000000002 1485.125 114.15C1482.208345 110.65 1474.625 107.5 1461.791655 107.5Z" fill="#1a1a1a"/><path d="M1516.041655 114.5V269.2C1516.041655 339.9 1540.541655 373.85 1593.041655 373.85C1611.708345 373.85 1634.458345 368.25 1638.25 363.7C1638.833345 363.0 1639.125 361.95 1639.125 360.9C1639.125 351.8 1639.125 335.35 1639.125 326.25H1633.291655C1623.083345 332.2 1609.666655 335.35 1596.25 335.35C1578.75 335.35 1566.791655 331.5 1558.625 323.1C1549.0 312.95 1545.208345 296.15 1545.208345 270.95V128.15C1545.208345 93.5 1558.041655 72.85000000000002 1587.208345 72.85000000000002C1599.458345 72.85000000000002 1608.5 76.0 1614.333345 82.65C1619.583345 89.30000000000001 1622.5 98.75 1622.5 112.4C1622.5 164.20000000000002 1622.5 209.35000000000002 1622.5 261.15C1622.5 262.55 1642.916655 293.0 1645.833345 293.0H1658.958345C1658.958345 275.85 1658.958345 258.7 1658.958345 241.55C1658.958345 198.15 1658.958345 154.4 1658.958345 111.0C1658.958345 65.85000000000002 1633.0 34.0 1587.791655 34.0C1542.583345 34.0 1516.041655 69.00000000000003 1516.041655 114.5ZM1636.208345 238.4C1629.5 249.6 1615.791655 254.5 1607.041655 254.5C1604.125 254.5 1602.958345 252.4 1602.958345 247.5V160.35000000000002C1602.958345 154.75 1603.833345 150.9 1605.583345 148.45000000000002C1607.333345 146.35000000000002 1609.958345 145.3 1613.166655 145.3C1622.791655 145.3 1627.75 147.05 1633.583345 152.65V116.60000000000002H1619.0C1613.75 110.30000000000001 1608.5 107.5 1599.166655 107.5C1577.583345 107.5 1566.5 125.0 1566.5 153.35000000000002V258.35C1566.5 282.15 1579.041655 296.5 1597.125 296.5C1611.125 296.5 1621.333345 291.25 1628.333345 275.5H1636.208345Z" fill="#1a1a1a"/><path d="M1692.791655 323.45C1692.791655 337.8 1692.791655 351.45 1692.791655 365.8C1692.791655 367.9 1693.958345 369.65 1695.708345 369.65C1697.75 369.65 1707.666655 369.65 1727.791655 369.65C1758.125 369.65 1773.875 350.4 1773.875 315.05C1773.875 244.7 1773.875 176.10000000000002 1773.875 107.15C1773.875 94.20000000000002 1775.916655 85.80000000000001 1780.291655 80.55000000000001C1783.791655 76.35000000000002 1788.458345 74.25000000000003 1794.875 74.25000000000003C1797.5 74.25000000000003 1800.416655 74.60000000000002 1803.041655 75.30000000000001C1803.041655 83.70000000000002 1803.041655 92.10000000000002 1803.041655 100.85000000000002V104.0C1815.0 104.0 1827.25 104.0 1839.208345 104.0C1841.25 104.0 1842.416655 102.60000000000002 1842.416655 100.15V44.50000000000003C1842.416655 43.44999999999999 1842.125 42.400000000000034 1841.541655 41.69999999999999C1838.041655 37.5 1822.875 30.5 1797.5 30.5C1755.5 30.5 1728.666655 55.70000000000002 1728.666655 104.70000000000002C1728.666655 175.4 1728.666655 244.7 1728.666655 315.4C1728.666655 318.2 1728.375 319.95 1727.208345 321.35C1726.041655 322.75 1724.291655 323.45 1721.666655 323.45C1711.75 323.45 1705.625 323.45 1698.625 323.45ZM1695.416655 160.0C1695.416655 174.0 1695.416655 187.65 1695.416655 201.65C1695.416655 204.10000000000002 1696.583345 205.5 1698.625 205.5H1829.583345C1829.583345 190.8 1829.583345 178.55 1829.583345 163.85000000000002C1829.583345 161.4 1828.416655 160.0 1826.375 160.0ZM1864.583345 111.0C1864.583345 125.0 1864.583345 138.65 1864.583345 152.65C1864.583345 155.10000000000002 1865.75 156.5 1867.791655 156.5C1881.791655 156.5 1896.375 156.5 1910.375 156.5H1917.083345C1917.083345 184.85000000000002 1917.083345 213.55 1917.083345 241.9C1917.083345 281.1 1931.375 300.0 1965.208345 300.0C1979.208345 300.0 1993.208345 300.0 2007.208345 300.0C2009.25 300.0 2010.416655 298.6 2010.416655 296.15C2010.416655 282.15 2010.416655 268.5 2010.416655 254.5H2004.583345C1993.791655 254.5 1981.25 254.5 1969.583345 254.5C1966.083345 254.5 1964.041655 253.8 1962.583345 252.05C1961.125 250.3 1960.833345 248.2 1960.833345 245.05C1960.833345 201.65 1960.833345 158.25 1960.833345 114.85000000000002C1960.833345 112.4 1959.666655 111.0 1957.625 111.0C1926.708345 111.0 1895.5 111.0 1864.583345 111.0ZM1898.5975 46.25000000000003C1898.5975 67.73583500000001 1916.01413 85.1525 1937.5 85.1525C1958.98587 85.1525 1976.4025 67.73583500000001 1976.4025 46.25000000000003C1976.4025 24.76416499999999 1958.98587 7.347500000000025 1937.5 7.347500000000025C1916.01413 7.347500000000025 1898.5975 24.76416499999999 1898.5975 46.25000000000003Z" fill="#1a1a1a"/><line x1="20" y1="382.5" x2="1870.0" y2="382.5" stroke="#eee" stroke-width="0.5"/><text x="20" y="553.75" font-size="11" font-family="sans-serif" font-weight="bold" fill="#555">Casual</text><path d="M181.083345 587.0C162.416655 587.0 146.666655 581.05 130.041655 567.75H128.291655C127.125 573.35 126.25 580.7 126.25 591.9C126.25 608.0 129.458345 617.45 135.875 625.15C143.458345 634.25 158.916655 639.5 177.291655 639.5C225.416655 639.5 250.20834499999998 594.0 250.20834499999998 559.0C250.20834499999998 507.55 250.20834499999998 456.45000000000005 250.20834499999998 417.6C250.20834499999998 394.85 238.02834499999997 384.0 207.916655 384.0C184.19446 384.0 160.484935 385.23439152291 136.75 387.5C135.620165 392.471264735815 135.0 400.45000000000005 135.0 409.55C135.0 432.65 142.291655 443.5 155.708345 443.5C170.875 443.5 188.375 438.25 210.541655 426.70000000000005L194.791655 427.05L211.708345 436.85L203.833345 421.45000000000005C203.833345 473.95000000000005 203.833345 513.85 203.833345 552.0C203.833345 563.9 203.541655 573.35 202.083345 582.1C195.958345 585.25 189.541655 587.0 181.083345 587.0Z" fill="#1a1a1a"/><path d="M382.333345 380.5C337.416655 380.5 296.875 429.15 296.875 476.05V480.6C296.875 500.9 305.041655 519.1 349.958345 539.05L376.791655 550.95C389.333345 556.55 397.5 565.65 397.5 577.2V578.95C389.041655 584.2 377.083345 587.0 363.958345 587.0C333.333345 587.0 311.458345 576.15 294.833345 556.2H293.083345C291.916655 561.45 291.041655 568.8 291.041655 577.9C291.041655 597.85 295.708345 612.55 301.833345 619.9C311.166655 631.1 336.25 639.5 363.958345 639.5C414.416655 639.5 436.875 614.65 436.875 575.8V570.2C436.875 553.05 429.291655 529.95 391.083345 513.5L363.666655 501.6C346.75 494.25 341.208345 489.0 340.625 478.15V476.75C340.625 455.4 366.0 433.0 384.375 433.0C389.916655 433.0 392.833345 434.05 397.791655 437.55L391.666655 419.35C388.458345 438.25 385.833345 448.75 385.833345 457.15C385.833345 476.05 396.041655 482.35 413.833345 482.35C420.25 482.35 425.791655 480.6 429.583345 478.85C429.583345 468.0 429.583345 455.4 429.583345 443.15C429.583345 426.0 427.541655 411.65 417.625 399.75C407.708345 387.85 397.208345 380.5 382.333345 380.5Z" fill="#1a1a1a"/><path d="M497.541655 632.5H605.75C606.333345 626.55 606.916655 620.95 606.916655 613.6C606.916655 591.55 600.791655 580.0 587.083345 580.0H515.625C515.625 524.0 515.625 464.5 515.625 415.5C515.625 389.95000000000005 508.625 384.0 487.916655 384.0C479.166655 384.0 471.875 385.4 465.166655 387.5C467.791655 399.4 468.958345 412.0 468.958345 426.0C468.958345 476.4 468.958345 526.45 468.958345 576.85C468.958345 601.7 477.708345 632.5 497.541655 632.5Z" fill="#1a1a1a"/><path d="M784.541655 632.5C785.125 629.7 785.416655 626.2 785.416655 621.65C785.416655 597.5 780.166655 580.0 760.625 580.0H741.666655C727.666655 580.0 707.833345 581.05 692.666655 582.8V580.7C705.208345 568.45 713.083345 561.45 725.333345 546.4C757.708345 507.9 785.416655 465.20000000000005 785.416655 438.25V435.1C785.416655 402.20000000000005 774.041655 387.5 758.583345 387.5H648.333345C647.75 392.4 646.875 399.75 646.875 406.75C646.875 427.75 655.041655 438.25 675.166655 438.25H691.5C718.625 438.25 729.708345 437.20000000000005 738.75 434.05V436.15C732.333345 451.55 726.791655 462.75 717.75 479.20000000000005C696.75 518.05 672.833345 549.2 639.583345 583.5V588.75C639.583345 616.05 645.708345 632.5 666.125 632.5Z" fill="#1a1a1a"/><path d="M922.208345 363.0C878.458345 363.0 853.958345 397.65 853.958345 442.1C853.958345 491.8 853.958345 541.5 853.958345 591.2H890.708345L885.75 578.6C893.625 569.5 897.708345 554.8 897.708345 534.15C897.708345 507.55 897.708345 480.6 897.708345 454.0C895.083345 441.4 892.75 427.4 892.75 414.8C900.916655 413.05 909.083345 412.70000000000005 916.666655 412.70000000000005C938.25 412.70000000000005 956.916655 416.9 965.083345 421.45000000000005H966.833345C968.291655 415.5 968.291655 408.5 968.291655 402.20000000000005C968.291655 391.0 966.541655 380.85 961.291655 374.55C955.458345 367.55 944.083345 363.0 922.208345 363.0ZM811.958345 454.0C811.958345 456.1 811.958345 458.20000000000005 811.958345 460.65C811.958345 495.65 826.25 506.5 877.875 506.5H958.958345C960.125 500.55 961.0 492.5 961.0 484.45000000000005C961.0 461.35 954.0 454.0 930.958345 454.0ZM814.583345 580.0C814.583345 582.1 814.583345 584.2 814.583345 586.65C814.583345 623.05 820.125 632.5 845.791655 632.5H950.208345C951.666655 627.6 952.25 623.05 952.25 617.45C952.25 595.4 935.916655 580.0 891.875 580.0Z" fill="#1a1a1a"/><path d="M985.791655 454.0C984.625 459.6 983.458345 468.35 983.458345 476.4C983.458345 502.3 989.0 514.55 997.166655 514.55C1011.166655 514.55 1022.25 506.85 1039.75 486.20000000000005L1041.5 486.9C1041.5 517.35 1041.5 547.8 1041.5 578.25C1041.5 604.15 1059.875 636.0 1094.0 636.0C1116.166655 636.0 1124.916655 629.7 1130.458345 623.05C1135.708345 616.75 1140.666655 603.8 1140.666655 586.65C1140.666655 582.45 1140.375 577.9 1139.5 573.35H1137.75C1125.5 581.75 1110.625 585.25 1097.208345 585.25C1093.708345 585.25 1090.208345 585.25 1087.291655 584.9C1085.833345 576.85 1085.25 567.75 1085.25 557.25C1085.25 529.6 1085.25 502.3 1085.25 474.65C1085.25 452.6 1070.375 440.0 1044.416655 440.0C1026.625 440.0 1008.541655 443.5 985.791655 454.0ZM1024.764155 391.175C1024.764155 412.660835 1042.180785 430.0775 1063.666655 430.0775C1085.152525 430.0775 1102.569155 412.660835 1102.569155 391.175C1102.569155 369.689165 1085.152525 352.27250000000004 1063.666655 352.27250000000004C1042.180785 352.27250000000004 1024.764155 369.689165 1024.764155 391.175Z" fill="#1a1a1a"/><path d="M1155.541655 380.5C1154.375 386.1 1153.208345 394.85 1153.208345 402.9C1153.208345 428.8 1158.75 441.05 1166.916655 441.05C1180.625 441.05 1187.916655 422.85 1209.791655 412.35L1211.25 413.75C1211.25 468.70000000000005 1211.25 523.3 1211.25 578.25C1211.25 604.15 1230.5 636.0 1266.666655 636.0C1288.833345 636.0 1297.583345 629.7 1303.125 623.05C1308.375 616.75 1313.333345 603.8 1313.333345 586.65C1313.333345 582.45 1313.041655 577.9 1312.166655 573.35H1310.416655C1298.166655 582.45 1287.375 585.25 1269.875 585.25C1265.208345 585.25 1260.833345 584.9 1257.041655 583.5C1255.583345 576.5 1255.0 567.75 1255.0 557.25C1255.0 505.1 1255.0 453.3 1255.0 401.15C1255.0 379.1 1240.125 366.5 1211.25 366.5C1196.375 366.5 1178.291655 370.0 1155.541655 380.5Z" fill="#1a1a1a"/><path d="M1334.916655 450.5C1333.458345 460.65 1332.875 467.3 1332.875 476.05C1332.875 493.20000000000005 1337.25 503.0 1345.125 503.0C1350.958345 503.0 1357.958345 498.1 1365.25 489.0L1366.708345 490.4C1366.708345 527.5 1366.708345 580.35 1366.708345 602.4C1366.708345 624.1 1378.083345 634.6 1397.333345 634.6C1403.166655 634.6 1409.0 633.9 1414.833345 632.5C1411.333345 618.15 1410.458345 606.25 1410.458345 590.15C1410.458345 554.8 1410.458345 519.8 1410.458345 497.4C1410.458345 451.55 1395.0 440.0 1373.416655 440.0C1360.583345 440.0 1346.0 443.5 1334.916655 450.5ZM1456.833345 436.5C1443.416655 436.5 1423.583345 457.85 1411.916655 496.0H1403.458345L1402.583345 552.7C1417.458345 510.35 1434.958345 495.65 1452.458345 495.65C1453.041655 495.65 1453.333345 495.65 1453.916655 495.65C1453.916655 501.95000000000005 1453.333345 508.6 1452.166655 517.0V519.1C1453.625 519.8 1455.375 520.15 1457.416655 520.15C1488.041655 520.15 1488.041655 482.0 1488.041655 479.55V475.0C1488.041655 473.25 1488.333345 459.6 1477.541655 447.0C1472.291655 441.05 1465.291655 436.5 1456.833345 436.5Z" fill="#1a1a1a"/><path d="M1514.875 540.1V551.65C1514.875 630.75 1541.125 678.0 1594.208345 678.0C1614.041655 678.0 1628.041655 674.85 1633.291655 668.55C1638.25 662.6 1639.416655 651.05 1639.416655 636.0C1639.416655 634.95 1639.416655 634.25 1639.416655 633.2H1637.666655C1625.416655 640.2 1614.041655 643.0 1595.666655 643.0C1581.083345 643.0 1571.166655 641.6 1560.375 636.35C1549.0 617.8 1544.041655 590.5 1544.041655 544.65V541.15C1544.041655 456.8 1569.416655 398.0 1602.666655 398.0C1607.333345 398.0 1611.416655 398.70000000000005 1615.208345 400.45000000000005C1620.75 408.5 1621.625 419.35 1621.625 429.15C1621.625 477.8 1621.625 526.1 1621.625 574.75C1621.625 595.05 1636.208345 613.6 1657.5 613.6H1661.875C1660.125 600.65 1659.541655 588.75 1659.541655 577.9C1659.541655 534.85 1659.541655 491.45000000000005 1659.541655 448.4C1659.541655 400.45000000000005 1637.666655 363.0 1603.541655 363.0C1546.375 363.0 1514.875 431.95000000000005 1514.875 540.1ZM1644.375 543.25C1634.166655 560.75 1621.916655 573.0 1612.583345 573.0C1605.0 573.0 1601.5 563.2 1601.5 541.5V539.05C1601.5 517.35 1602.666655 495.65 1607.625 473.95000000000005C1609.666655 473.6 1613.166655 473.6 1615.5 473.6C1622.208345 473.6 1628.625 474.65 1635.041655 480.95000000000005V441.4H1619.875C1617.25 436.5 1613.458345 433.70000000000005 1608.5 433.70000000000005C1588.083345 433.70000000000005 1566.5 464.5 1566.5 545.0V548.15C1566.5 592.6 1580.208345 615.0 1602.666655 615.0C1612.291655 615.0 1621.041655 608.35 1625.416655 596.45H1642.333345Z" fill="#1a1a1a"/><path d="M1682.291655 640.9C1681.125 646.5 1680.541655 653.15 1680.833345 660.5C1681.09847 677.04487345644 1685.97376 687.71504741018 1693.958345 695.5C1699.791655 701.1 1709.416655 706.0 1723.708345 706.0C1747.687055 706.0 1772.708345 687.45 1772.708345 644.75C1772.708345 582.45 1772.708345 524.7 1772.708345 450.85C1772.708345 428.8 1774.458345 421.1 1779.125 415.5C1782.625 411.3 1787.583345 410.25 1792.541655 410.25C1797.208345 410.25 1801.583345 410.6 1805.666655 412.0C1806.541655 428.8 1805.666655 443.5 1802.458345 460.3V462.4C1804.791655 463.1 1807.416655 463.45000000000005 1809.75 463.45000000000005C1829.0 463.45000000000005 1841.833345 441.75 1841.833345 417.95000000000005V413.4C1841.833345 400.1 1838.625 387.5 1829.291655 377.35C1822.0 368.95 1810.916655 363.0 1792.541655 363.0C1752.0 363.0 1726.041655 392.4 1726.041655 439.3C1726.041655 503.0 1726.041655 564.95 1726.041655 627.25C1726.041655 636.90797101451 1725.144115 645.176617692165 1723.416655 651.05C1721.61811 651.769418167685 1717.291655 652.8 1711.166655 652.8C1702.125 652.8 1693.083345 650.7 1684.041655 640.9ZM1685.5 498.8C1685.5 500.9 1685.5 503.0 1685.5 505.45C1685.5 540.45 1699.791655 551.3 1751.416655 551.3H1833.958345C1835.125 545.35 1836.0 537.3 1836.0 529.25C1836.0 506.15 1829.0 498.8 1805.958345 498.8ZM1860.791655 454.0C1859.625 459.6 1858.458345 468.35 1858.458345 476.4C1858.458345 502.3 1864.0 514.55 1872.166655 514.55C1886.166655 514.55 1897.25 506.85 1914.75 486.20000000000005L1916.5 486.9C1916.5 517.35 1916.5 547.8 1916.5 578.25C1916.5 604.15 1934.875 636.0 1969.0 636.0C1991.166655 636.0 1999.916655 629.7 2005.458345 623.05C2010.708345 616.75 2015.666655 603.8 2015.666655 586.65C2015.666655 582.45 2015.375 577.9 2014.5 573.35H2012.75C2000.5 581.75 1985.625 585.25 1972.208345 585.25C1968.708345 585.25 1965.208345 585.25 1962.291655 584.9C1960.833345 576.85 1960.25 567.75 1960.25 557.25C1960.25 529.6 1960.25 502.3 1960.25 474.65C1960.25 452.6 1945.375 440.0 1919.416655 440.0C1901.625 440.0 1883.541655 443.5 1860.791655 454.0ZM1899.764155 391.175C1899.764155 412.660835 1917.180785 430.0775 1938.666655 430.0775C1960.152525 430.0775 1977.569155 412.660835 1977.569155 391.175C1977.569155 369.689165 1960.152525 352.27250000000004 1938.666655 352.27250000000004C1917.180785 352.27250000000004 1899.764155 369.689165 1899.764155 391.175Z" fill="#1a1a1a"/>
</svg>