<?xml version="1.0" encoding="UTF-8"?>
<svg xmlns="http://www.w3.org/2000/svg" width="1890.0" height="725.0"
     viewBox="0 0 1890.0 725.0">
<rect width="100%" height="100%" fill="white"/>
<text x="945.0" y="30" text-anchor="middle" font-size="14" font-family="sans-serif" font-weight="bold" fill="#333">Sans C Slanted — Key glyphs + features</text><text x="187.5" y="48" text-anchor="middle" font-size="10" font-family="sans-serif" fill="#999">J</text><text x="362.5" y="48" text-anchor="middle" font-size="10" font-family="sans-serif" fill="#999">S</text><text x="537.5" y="48" text-anchor="middle" font-size="10" font-family="sans-serif" fill="#999">L</text><text x="712.5" y="48" text-anchor="middle" font-size="10" font-family="sans-serif" fill="#999">Z</text><text x="887.5" y="48" text-anchor="middle" font-size="10" font-family="sans-serif" fill="#999">f</text><text x="1062.5" y="48" text-anchor="middle" font-size="10" font-family="sans-serif" fill="#999">i</text><text x="1237.5" y="48" text-anchor="middle" font-size="10" font-family="sans-serif" fill="#999">l</text><text x="1412.5" y="48" text-anchor="middle" font-size="10" font-family="sans-serif" fill="#999">r</text><text x="1587.5" y="48" text-anchor="middle" font-size="10" font-family="sans-serif" fill="#999">@</text><text x="1762.5" y="48" text-anchor="middle" font-size="10" font-family="sans-serif" fill="#999">fi</text><text x="20" y="221.25" font-size="11" font-family="sans-serif" font-weight="bold" fill="#555">Linear</text><path d="M142.0 231.75C128.0 231.75 117.5 228.25 105.541655 219.15H99.708345C95.041655 241.2 91.25 259.4 86.583345 281.45C86.583345 282.5 86.583345 283.55 86.875 284.25C93.0 294.05 110.208345 307.0 143.75 307.0C192.458345 307.0 223.666655 283.9 236.20834499999998 220.55C247.0 166.65 258.666655 112.75 270.041655 58.85000000000002C270.625 56.75000000000003 269.458345 55.00000000000003 267.708345 55.00000000000003C221.625 55.00000000000003 192.458345 55.00000000000003 146.375 55.00000000000003C140.541655 80.20000000000002 136.166655 99.80000000000001 130.916655 124.65C130.333345 127.10000000000002 131.791655 128.5 133.25 128.5C159.791655 128.5 169.416655 128.5 195.958345 128.5L184.875 124.65L192.166655 133.05L189.25 118.35000000000002C184.0 143.20000000000002 179.041655 168.05 173.791655 192.9C170.875 206.55 167.375 217.4 162.416655 223.35000000000002C156.291655 230.35000000000002 151.333345 231.75 142.0 231.75Z" fill="#1a1a1a"/><path d="M400.708345 48.00000000000003C349.375 48.00000000000003 314.375 66.9 305.333345 108.9L301.541655 126.4C296.583345 151.60000000000002 297.458345 184.5 345.291655 202.0L363.083345 208.65C371.541655 211.8 379.416655 214.95 377.083345 225.8L376.5 228.60000000000002C374.75 237.0 366.875 239.45 350.833345 239.45C321.375 239.45 301.833345 230.35000000000002 286.958345 216.7H281.125C277.041655 237.35 272.666655 258.0 268.875 278.65C268.583345 280.05 268.291655 281.45 269.458345 282.85C279.666655 295.1 307.083345 307.0 344.708345 307.0C392.833345 307.0 423.458345 287.75 433.375 240.85L436.291655 226.15C443.291655 193.25 435.708345 169.8 395.166655 153.70000000000002L369.5 143.55C363.666655 141.10000000000002 361.041655 136.9 362.5 130.25L363.375 126.05000000000001C365.416655 116.25 370.666655 113.80000000000001 386.708345 113.80000000000001C394.875 113.80000000000001 403.333345 115.9 408.0 119.05000000000001L401.583345 104.0C399.541655 113.10000000000002 397.5 122.20000000000002 395.458345 131.65C394.875 134.45000000000002 395.458345 135.5 397.791655 135.5C414.125 135.5 433.666655 135.5 451.458345 135.5C455.833345 114.85000000000002 460.208345 93.85000000000002 464.583345 73.20000000000002C465.458345 68.65 465.75 68.30000000000001 464.291655 66.55000000000001C457.291655 58.150000000000006 433.083345 48.00000000000003 400.708345 48.00000000000003Z" fill="#1a1a1a"/><path d="M443.291655 300.0H584.458345C590.875 269.55 592.916655 260.45 598.75 231.75C599.625 227.9 598.75 226.5 596.125 226.5H521.166655C532.541655 171.9 544.791655 113.45000000000002 556.166655 58.85000000000002C556.75 56.400000000000006 555.875 55.00000000000003 553.833345 55.00000000000003C531.958345 55.00000000000003 513.291655 55.00000000000003 491.416655 55.00000000000003C488.791655 66.55000000000001 486.458345 78.10000000000002 484.125 89.65C469.833345 158.25 455.25 227.55 440.958345 296.15C440.666655 298.25 441.541655 300.0 443.291655 300.0Z" fill="#1a1a1a"/><path d="M771.125 300.0C776.083345 276.9 781.041655 253.45 785.708345 230.35000000000002C786.291655 227.9 785.416655 226.5 783.375 226.5H757.708345C737.291655 226.5 722.416655 226.5 697.625 226.5L699.083345 219.5C713.083345 216.35000000000002 722.125 212.85000000000002 755.083345 181.0C770.541655 166.3 786.583345 150.55 804.958345 132.0L820.125 58.85000000000002C820.708345 56.400000000000006 819.833345 55.00000000000003 817.791655 55.00000000000003H664.958345C659.708345 79.5 655.916655 97.35000000000002 651.541655 119.4C650.666655 123.60000000000002 651.541655 125.0 654.75 125.0H711.916655C730.583345 125.0 721.833345 125.0 747.208345 125.0L745.75 132.0C726.5 140.4 716.583345 148.8 698.791655 164.20000000000002C676.916655 183.10000000000002 653.291655 204.45 629.083345 226.85000000000002L614.5 296.15C613.916655 298.6 614.791655 300.0 616.833345 300.0Z" fill="#1a1a1a"/><path d="M910.833345 30.5C873.208345 30.5 850.75 57.10000000000002 838.791655 115.55000000000001C829.166655 161.75 816.333345 223.35000000000002 806.708345 269.55H879.333345L877.583345 251.0C879.625 241.55 881.083345 234.55 883.416655 222.65C891.0 186.60000000000002 898.291655 150.55 905.875 114.5C907.333345 108.55000000000001 909.083345 105.05000000000001 911.416655 102.95000000000002C913.166655 101.20000000000002 916.083345 100.5 920.166655 100.5C922.791655 100.5 927.166655 101.55000000000001 928.916655 102.60000000000002H934.75C939.125 82.30000000000001 943.791655 60.25000000000003 948.166655 39.94999999999999C948.458345 38.900000000000034 948.458345 37.85000000000002 947.875 37.150000000000034C944.083345 33.30000000000001 928.041655 30.5 910.833345 30.5ZM818.666655 127.10000000000002C814.583345 146.35000000000002 810.208345 167.35 806.125 186.60000000000002C805.541655 189.05 806.416655 190.45 808.458345 190.45H910.25C914.625 170.5 919.0 150.9 923.083345 130.95000000000002C923.666655 128.5 922.791655 127.10000000000002 920.75 127.10000000000002ZM797.958345 227.55C794.458345 244.0 786.875 279.7 783.375 296.15C783.083345 298.6 783.958345 300.0 785.708345 300.0H890.708345C894.208345 283.55 901.5 247.85 905.0 231.4C905.583345 228.95 904.708345 227.55 902.666655 227.55Z" fill="#1a1a1a"/><path d="M998.041655 107.5C993.375 130.25 988.708345 153.35000000000002 984.041655 176.10000000000002C983.458345 178.55 984.333345 179.95 986.375 179.95C988.416655 179.95 991.625 179.95 993.666655 179.95H997.458345C993.666655 197.10000000000002 988.416655 221.60000000000002 984.916655 237.0C975.875 279.35 988.708345 300.0 1024.291655 300.0C1029.05554 300.0 1039.490755 300.0 1044.708345 300.0C1046.75 300.0 1048.208345 298.6 1048.791655 296.15C1053.75 273.4 1058.416655 250.3 1063.375 227.55H1057.541655C1057.07052 227.55 1056.262825 227.55 1055.791655 227.55C1054.916655 227.55 1054.333345 227.2 1054.041655 226.85000000000002C1053.458345 226.15 1053.458345 225.10000000000002 1053.75 223.7C1061.625 186.25 1069.208345 148.8 1077.083345 111.35000000000002C1077.666655 108.9 1076.791655 107.5 1074.75 107.5C1048.208345 107.5 1024.583345 107.5 998.041655 107.5ZM1010.449155 52.37500000000003C1010.449155 78.38416500000002 1031.53249 99.4675 1057.541655 99.4675C1083.55082 99.4675 1104.634155 78.38416500000002 1104.634155 52.37500000000003C1104.634155 26.365835000000004 1083.55082 5.282500000000027 1057.541655 5.282500000000027C1031.53249 5.282500000000027 1010.449155 26.365835000000004 1010.449155 52.37500000000003Z" fill="#1a1a1a"/><path d="M1188.208345 37.5C1183.541655 60.25000000000003 1178.583345 83.35000000000002 1173.916655 106.10000000000002C1173.333345 108.55000000000001 1174.208345 109.95000000000002 1176.25 109.95000000000002C1178.875 109.95000000000002 1181.208345 109.95000000000002 1182.958345 109.95000000000002H1184.125C1175.666655 150.55 1166.916655 190.8 1158.458345 231.4C1150.0 272.35 1166.916655 300.0 1201.333345 300.0C1204.541655 300.0 1212.708345 300.0 1217.083345 300.0C1218.833345 300.0 1220.583345 298.6 1221.166655 296.15C1225.833345 273.4 1230.791655 250.3 1235.458345 227.55H1233.125C1232.25 227.55 1229.625 227.55 1228.166655 227.55C1227.291655 227.55 1226.416655 227.2 1226.125 226.85000000000002C1225.833345 226.15 1225.541655 225.10000000000002 1225.833345 223.7C1238.375 163.15 1251.208345 101.9 1263.75 41.35000000000002C1264.333345 38.900000000000034 1263.458345 37.5 1261.416655 37.5C1252.666655 37.5 1194.041655 37.5 1188.208345 37.5Z" fill="#1a1a1a"/><path d="M1348.041655 107.5C1343.375 129.55 1338.708345 151.60000000000002 1334.041655 173.65C1333.75 176.10000000000002 1334.625 177.5 1336.375 177.5C1337.25 177.5 1338.708345 177.5 1339.875 177.5H1340.75C1332.291655 217.05 1324.125 256.6 1315.958345 296.15C1315.375 298.6 1316.25 300.0 1318.291655 300.0C1339.0 300.0 1360.0 300.0 1380.708345 300.0C1383.041655 288.8 1385.375 277.25 1387.708345 266.05C1393.833345 236.3 1399.958345 206.55 1407.541655 171.20000000000002C1407.541655 170.5 1401.708345 107.5 1401.708345 107.5C1387.708345 107.5 1367.583345 107.5 1348.041655 107.5ZM1453.041655 104.0C1434.666655 104.0 1421.25 115.55000000000001 1410.75 147.75H1400.541655L1396.75 191.15C1406.083345 185.2 1412.208345 183.8 1416.583345 183.8C1418.916655 183.8 1420.375 184.15 1421.833345 185.2C1421.541655 186.95 1420.958345 189.05 1420.375 192.2L1419.791655 195.0C1430.291655 195.0 1440.5 195.0 1451.0 195.0C1453.041655 195.0 1454.5 193.60000000000002 1455.083345 191.15L1470.541655 114.5C1470.833345 112.75 1470.833345 112.05000000000001 1469.666655 110.65C1466.166655 106.45000000000002 1460.916655 104.0 1453.041655 104.0Z" fill="#1a1a1a"/><path d="M1530.041655 154.05 1509.041655 255.2C1492.125 336.4 1524.5 387.5 1633.0 387.5C1675.291655 387.5 1707.958345 381.9 1721.375 377.7C1722.25 377.35 1722.833345 375.95 1723.125 374.9C1724.583345 366.85 1733.625 324.85 1735.375 316.8H1726.916655C1708.25 322.05 1687.833345 325.55 1653.125 325.55C1614.625 325.55 1593.041655 322.05 1580.208345 310.85C1567.958345 300.0 1564.75 280.05 1575.25 230.0L1586.625 175.4C1597.708345 122.20000000000002 1617.541655 95.60000000000002 1677.916655 95.60000000000002C1707.375 95.60000000000002 1724.583345 99.45000000000002 1731.291655 108.55000000000001C1737.708345 116.95000000000002 1739.166655 126.75 1732.75 157.55C1726.625 187.3 1721.666655 210.75 1710.583345 263.95C1710.291655 265.0 1736.25 300.35 1739.75 300.35H1766.0C1769.208345 284.95 1772.416655 269.55 1775.625 254.15C1785.25 207.95 1793.125 169.1 1797.5 148.45000000000002C1811.791655 79.5 1780.291655 34.0 1679.958345 34.0C1585.458345 34.0 1545.791655 78.80000000000001 1530.041655 154.05ZM1738.875 228.60000000000002C1726.625 241.55 1710.875 247.85 1699.208345 247.85C1688.416655 247.85 1684.041655 241.2 1686.958345 226.85000000000002L1692.208345 202.7C1693.958345 193.60000000000002 1696.0 189.75 1699.208345 186.60000000000002C1702.125 183.8 1706.791655 182.05 1713.208345 182.05C1722.541655 182.05 1735.083345 183.8 1747.041655 187.3L1756.083345 143.20000000000002H1731.291655C1722.25 135.5 1710.583345 130.95000000000002 1692.208345 130.95000000000002C1659.541655 130.95000000000002 1639.416655 154.4 1631.25 193.60000000000002L1619.583345 249.25C1612.875 281.45 1625.416655 303.85 1657.208345 303.85C1678.5 303.85 1696.0 298.25 1714.958345 281.1H1728.083345Z" fill="#1a1a1a"/><path d="M1657.791655 296.5C1653.125 319.6 1648.166655 343.05 1643.208345 366.15C1642.916655 368.6 1644.083345 370.0 1645.833345 370.0C1653.416655 370.0 1662.458345 370.0 1670.041655 370.0C1708.541655 370.0 1731.875 347.25 1741.5 301.4C1753.166655 245.05 1769.208345 167.70000000000002 1780.875 111.70000000000002C1782.041655 107.15 1783.5 103.65 1786.125 101.20000000000002C1788.166655 99.10000000000002 1791.375 97.70000000000002 1795.458345 97.70000000000002C1796.625 97.70000000000002 1797.791655 97.70000000000002 1798.958345 97.70000000000002C1798.375 100.85000000000002 1797.791655 103.30000000000001 1797.208345 106.80000000000001L1796.333345 111.0C1804.791655 111.0 1813.25 111.0 1821.708345 111.0C1823.75 111.0 1825.208345 109.60000000000002 1825.791655 107.15L1839.208345 42.400000000000034C1839.5 41.35000000000002 1839.208345 40.30000000000001 1838.916655 39.60000000000002C1835.708345 35.05000000000001 1825.5 30.5 1804.5 30.5C1756.375 30.5 1725.458345 56.05000000000001 1713.208345 115.55000000000001C1701.25 172.25 1688.125 235.60000000000002 1676.166655 292.65C1675.875 294.05 1675.291655 295.1 1674.708345 295.8C1674.125 296.15 1673.25 296.5 1672.375 296.5C1669.75 296.5 1666.25 296.5 1663.625 296.5ZM1687.833345 153.0C1683.75 172.60000000000002 1678.208345 199.55 1673.833345 219.15C1673.541655 221.60000000000002 1674.416655 223.0 1676.458345 223.0H1784.083345C1788.166655 203.4 1793.708345 176.45 1797.791655 156.85000000000002C1798.375 154.4 1797.5 153.0 1795.458345 153.0ZM1814.70831 107.5C1810.041655 130.25 1805.375 153.35000000000002 1800.70831 176.10000000000002C1800.125 178.55 1801.0 179.95 1803.041655 179.95C1805.08331 179.95 1808.291655 179.95 1810.33331 179.95H1814.125C1810.33331 197.10000000000002 1805.08331 221.60000000000002 1801.58331 237.0C1792.541655 279.35 1805.375 300.0 1840.95831 300.0C1845.722195 300.0 1856.15741 300.0 1861.375 300.0C1863.416655 300.0 1864.875 298.6 1865.45831 296.15C1870.416655 273.4 1875.08331 250.3 1880.041655 227.55H1874.20831C1873.737175 227.55 1872.92948 227.55 1872.45831 227.55C1871.58331 227.55 1871.0 227.2 1870.70831 226.85000000000002C1870.125 226.15 1870.125 225.10000000000002 1870.416655 223.7C1878.291655 186.25 1885.875 148.8 1893.75 111.35000000000002C1894.33331 108.9 1893.45831 107.5 1891.416655 107.5C1864.875 107.5 1841.25 107.5 1814.70831 107.5ZM1827.11581 52.37500000000003C1827.11581 78.38416500000002 1848.199145 99.4675 1874.20831 99.4675C1900.217475 99.4675 1921.30081 78.38416500000002 1921.30081 52.37500000000003C1921.30081 26.365835000000004 1900.217475 5.282500000000027 1874.20831 5.282500000000027C1848.199145 5.282500000000027 1827.11581 26.365835000000004 1827.11581 52.37500000000003Z" fill="#1a1a1a"/><line x1="20" y1="382.5" x2="1870.0" y2="382.5" stroke="#eee" stroke-width="0.5"/><text x="20" y="553.75" font-size="11" font-family="sans-serif" font-weight="bold" fill="#555">Casual</text><path d="M140.833345 564.25C130.333345 564.25 118.66665499999999 559.7 104.666655 545.0H102.916655C100.291655 549.9 97.666655 556.9 95.041655 569.15C88.625 598.2 88.625 610.45 96.5 623.4C103.5 634.25 118.66665499999999 639.5 139.958345 639.5C187.208345 639.5 216.666655 616.4 231.541655 569.85C246.416655 523.3 245.83334499999998 472.9 258.666655 432.65C268.291655 403.25 250.5 384.0 210.541655 384.0C184.291655 384.0 160.083345 386.1 135.583345 389.95000000000005C133.25 395.20000000000005 130.625 402.20000000000005 128.875 410.6C123.04165499999999 438.25 129.166655 461.0 150.458345 461.0C163.583345 461.0 174.958345 457.5 192.75 440.0L187.5 442.1L191.875 453.65L191.0 440.35C179.625 475.70000000000005 178.75 512.45 169.708345 547.1C168.833345 550.6 167.958345 554.1 166.791655 557.6C159.791655 562.15 153.083345 564.25 140.833345 564.25Z" fill="#1a1a1a"/><path d="M406.833345 380.5C356.375 380.5 309.416655 419.70000000000005 299.5 467.65L298.916655 470.45000000000005C292.208345 502.3 305.041655 522.6 347.916655 539.05L359.875 543.6C370.375 547.8 375.916655 553.4 375.916655 562.15V563.2C368.333345 564.95 357.833345 565.65 346.166655 565.65C321.958345 565.65 305.041655 555.15 290.75 536.95H289.0C283.166655 545.7 277.625 567.05 275.875 578.25C272.666655 597.85 275.0 613.25 284.041655 622.7C294.25 633.2 313.208345 639.5 344.708345 639.5C396.333345 639.5 424.333345 620.95 432.5 581.4L433.666655 575.8C439.791655 546.05 426.375 520.85 391.666655 507.2L370.958345 499.15C359.583345 494.6 355.5 488.65 357.25 480.95000000000005L357.541655 479.55C359.875 468.0 378.25 458.20000000000005 398.083345 458.20000000000005C400.416655 458.20000000000005 404.5 458.55 408.0 458.9L404.5 444.9C400.416655 452.95000000000005 397.208345 462.4 396.625 468.0C393.416655 488.65 403.041655 498.1 427.25 498.1C436.583345 498.1 444.75 496.70000000000005 451.458345 493.9C452.041655 480.6 454.375 463.8 457.875 447.70000000000005C461.666655 428.45000000000005 457.291655 412.70000000000005 448.25 400.1C438.333345 387.15 423.75 380.5 406.833345 380.5Z" fill="#1a1a1a"/><path d="M496.958345 632.5H582.416655C584.458345 626.9 586.208345 620.6 587.666655 613.6C593.208345 587.0 592.916655 555.5 558.5 555.5H521.75C524.083345 516.3 545.958345 479.9 552.083345 432.65C555.583345 404.65 552.083345 384.0 516.791655 384.0C506.583345 384.0 496.958345 385.05 487.625 387.5C489.375 399.4 489.958345 413.05 487.625 427.4C480.333345 473.25 458.458345 513.5 451.75 563.55C447.375 596.45 471.583345 632.5 496.958345 632.5Z" fill="#1a1a1a"/><path d="M772.583345 632.5C775.5 624.45 779.291655 611.85 781.333345 601.35C786.875 574.75 782.208345 554.8 759.75 554.8H758.583345C749.833345 554.8 737.583345 555.85 712.791655 562.15L713.083345 560.05C732.625 548.15 752.166655 533.1 769.083345 517.35C790.375 497.05 806.708345 476.05 809.916655 461.0L810.5 457.85C816.625 424.6 803.791655 387.5 787.166655 387.5H667.875C664.083345 396.6 660.875 405.35 659.125 413.4C653.875 439.3 662.333345 458.55 685.375 458.55H711.625C728.541655 458.55 735.541655 458.55 746.625 458.55L746.041655 460.65C735.833345 478.15 723.0 492.85 710.166655 506.15C688.583345 528.55 661.458345 546.75 623.833345 567.05L623.25 570.2C614.208345 613.25 621.208345 632.5 650.083345 632.5Z" fill="#1a1a1a"/><path d="M910.833345 363.0C875.833345 363.0 852.5 386.1 840.833345 433.35C828.291655 485.15 823.625 533.45 807.0 589.1H877.583345L872.625 557.95C879.041655 549.9 883.708345 540.8 885.75 531.0C890.125 510.0 895.083345 485.15 900.333345 459.95000000000005C898.583345 451.55 898.291655 442.1 899.458345 433.70000000000005C901.791655 433.35 905.875 433.0 908.791655 433.0C916.375 433.0 923.958345 435.8 928.625 440.35H930.375C934.458345 430.20000000000005 936.791655 422.5 939.125 410.95000000000005C942.916655 393.8 942.916655 381.9 938.833345 374.2C934.75 366.15000000000003 925.708345 363.0 910.833345 363.0ZM818.083345 459.25C816.916655 463.1 816.041655 466.95000000000005 814.0 475.70000000000005C806.338395 508.72999502792504 819.053125 524.0 836.458345 524.0H907.625C911.125 517.0 914.041655 507.9 915.791655 499.85C921.916655 471.5 918.125 459.25 903.25 459.25ZM797.958345 560.05C794.458345 569.5 791.833345 578.25 789.791655 587.7C783.666655 614.65 793.583345 632.5 814.583345 632.5H889.833345C892.458345 625.85 895.958345 617.1 898.0 606.6C904.708345 576.15 895.375 560.05 870.875 560.05Z" fill="#1a1a1a"/><path d="M997.458345 440.0C993.958345 448.05 990.458345 457.85 988.125 470.1C981.708345 500.20000000000005 986.083345 517.0 993.958345 517.0C996.875 517.0 998.625 516.3 1001.541655 512.8L1003.0 513.85C999.208345 530.65 989.583345 546.4 984.625 577.2C980.541655 602.75 998.333345 636.0 1020.208345 636.0C1032.458345 636.0 1042.958345 631.8 1049.083345 624.45C1054.625 617.8 1061.041655 607.3 1064.25 591.55C1066.291655 581.75 1067.75 566.35 1066.875 558.3H1065.125C1062.791655 561.1 1059.875 562.15 1056.375 562.15C1054.333345 562.15 1052.583345 561.8 1050.833345 560.4C1051.125 555.85 1052.291655 549.9 1054.625 541.85C1060.166655 521.9 1069.5 503.0 1073.291655 478.85C1077.083345 455.75 1059.0 436.15 1031.583345 436.15C1022.25 436.15 1007.958345 437.55 997.458345 440.0ZM1004.9075 387.675C1004.9075 413.684165 1025.9908 434.7675 1052.0 434.7675C1078.0092 434.7675 1099.0925 413.684165 1099.0925 387.675C1099.0925 361.665835 1078.0092 340.58250000000004 1052.0 340.58250000000004C1025.9908 340.58250000000004 1004.9075 361.665835 1004.9075 387.675Z" fill="#1a1a1a"/><path d="M1188.791655 370.0C1184.708345 381.55 1180.333345 397.3 1177.708345 408.85C1171.291655 439.65 1173.041655 449.8 1180.333345 449.8C1184.416655 449.8 1190.25 446.65 1197.541655 433.0L1199.291655 435.1C1188.208345 477.45000000000005 1166.041655 516.65 1159.041655 558.3C1152.041655 600.3 1169.541655 636.35 1200.458345 636.35C1211.833345 636.35 1219.708345 632.85 1225.541655 625.5C1231.958345 617.1 1234.583345 611.85 1238.958345 590.15C1242.166655 574.4 1242.458345 559.35 1241.583345 550.95H1239.833345C1232.25 561.1 1230.208345 562.15 1227.0 562.15C1225.25 562.15 1223.5 561.8 1221.458345 561.1C1221.75 556.9 1223.208345 548.85 1225.25 541.85C1237.5 497.75 1252.958345 461.0 1260.833345 414.8C1265.5 386.45000000000005 1246.541655 366.5 1214.166655 366.5C1205.125 366.5 1196.958345 367.90000000000003 1188.791655 370.0Z" fill="#1a1a1a"/><path d="M1347.166655 440.35C1342.5 449.1 1338.416655 463.45000000000005 1335.791655 477.8C1330.25 504.75 1332.0 517.35 1337.541655 517.35C1340.75 517.35 1342.791655 516.65 1344.541655 515.25L1346.0 516.3C1342.208345 538.35 1332.875 560.4 1328.791655 580.0C1323.25 608.0 1334.333345 636.0 1365.541655 636.0C1372.833345 636.0 1379.25 634.95 1385.958345 632.5C1383.041655 620.6 1383.333345 607.65 1385.958345 588.05C1390.041655 556.9 1401.125 532.05 1406.958345 507.55C1413.083345 482.0 1406.375 436.5 1375.458345 436.5C1366.125 436.5 1357.666655 437.9 1347.166655 440.35ZM1450.416655 434.4C1437.583345 434.4 1424.593655 443.92120235800996 1410.458345 482.0L1406.083345 480.6L1393.833345 527.15C1402.291655 516.3 1410.166655 511.75 1417.166655 511.75C1418.625 511.75 1419.791655 512.1 1420.666655 513.15C1420.666655 517.7 1418.916655 524.7 1417.166655 529.95V532.05C1422.125 533.8 1425.625 534.15 1432.041655 534.15C1447.054415 534.15 1459.02529 520.43613138281 1463.833345 498.8L1465.0 493.55C1471.125 465.55 1470.262845 448.765400877205 1463.541655 440.70000000000005C1459.75 436.15 1455.722515 434.4 1450.416655 434.4Z" fill="#1a1a1a"/><path d="M1520.708345 553.05 1519.541655 559.0C1503.208345 642.3 1535.875 702.5 1626.583345 702.5C1661.875 702.5 1682.875 700.4 1700.083345 691.65C1709.708345 686.75 1715.25 676.25 1717.291655 659.8C1717.875 654.2 1718.166655 646.5 1717.583345 641.25H1715.25C1689.0 653.5 1665.375 656.65 1644.083345 656.65C1613.166655 656.65 1592.75 655.95 1571.166655 652.45C1561.833345 624.8 1561.541655 594.0 1569.708345 558.3L1570.583345 554.45C1592.458345 457.5 1649.916655 412.35 1715.25 412.35C1725.75 412.35 1732.166655 413.4 1739.75 414.45000000000005C1741.5 419.0 1740.916655 424.95000000000005 1738.291655 438.25C1729.541655 479.9 1719.625 527.5 1709.708345 575.45C1704.166655 601.0 1726.625 628.3 1763.958345 628.3H1772.125C1771.833345 616.4 1772.708345 604.85 1775.041655 589.1C1781.75 543.6 1796.625 503.0 1803.625 451.9C1811.5 394.15 1785.25 366.5 1720.5 366.5C1611.416655 366.5 1541.416655 447.35 1520.708345 553.05ZM1733.625 542.9C1717.0 564.25 1701.541655 572.65 1691.916655 572.65C1681.708345 572.65 1677.041655 567.05 1682.291655 540.8L1682.875 538.0C1687.833345 515.25 1689.875 506.5 1693.958345 493.9C1698.916655 492.85 1703.0 492.5 1709.416655 492.5C1717.291655 492.5 1723.708345 494.25 1727.791655 501.6L1737.708345 454.0H1733.041655C1725.166655 444.55 1718.166655 439.3 1705.333345 439.3C1672.958345 439.3 1631.25 474.65 1616.375 541.15L1615.208345 546.4C1602.083345 605.9 1626.583345 630.05 1656.625 630.05C1678.208345 630.05 1692.791655 621.65 1710.0 601.35H1722.541655Z" fill="#1a1a1a"/><path d="M1654.875 625.5C1651.083345 635.3 1648.75 643.7 1646.708345 652.45C1642.625 672.4 1643.5 686.05 1649.041655 695.15C1652.25 700.75 1661.0 702.85 1669.166655 702.85C1707.083345 702.85 1731.291655 674.85 1739.166655 637.05C1747.625 597.15 1761.916655 528.2 1768.916655 495.3C1773.291655 474.65 1770.083345 453.3 1761.916655 436.5C1765.708345 435.45000000000005 1769.208345 434.4 1772.708345 434.4C1775.625 434.4 1778.541655 434.75 1781.166655 435.45000000000005C1780.875 439.65 1779.125 442.8 1777.083345 447.0L1776.791655 449.1C1779.708345 450.15 1782.333345 450.85 1785.833345 450.85C1801.291655 450.85 1814.708345 437.20000000000005 1819.666655 414.45000000000005L1820.541655 409.9C1823.166655 396.95000000000005 1820.833345 383.3 1816.75 376.65C1812.083345 369.3 1805.666655 363.0 1789.041655 363.0C1756.958345 363.0 1724.875 391.35 1715.833345 435.1C1704.166655 490.4 1690.166655 557.6 1678.791655 612.9C1677.625 618.5 1676.75 622.7 1675.583345 628.3C1673.833345 628.65 1671.208345 629.0 1668.583345 629.0C1663.625 629.0 1660.125 628.3 1656.625 625.5ZM1686.083345 490.05C1683.458345 496.35 1681.416655 503.0 1679.958345 510.7C1672.375 546.75 1677.625 560.05 1703.291655 560.05H1781.458345C1784.375 553.05 1787.0 543.95 1789.041655 534.5C1796.041655 500.55 1789.916655 490.05 1762.5 490.05ZM1814.125 440.0C1810.625 448.05 1807.125 457.85 1804.791655 470.1C1798.375 500.20000000000005 1802.75 517.0 1810.625 517.0C1813.541655 517.0 1815.291655 516.3 1818.20831 512.8L1819.666655 513.85C1815.875 530.65 1806.25 546.4 1801.291655 577.2C1797.20831 602.75 1815.0 636.0 1836.875 636.0C1849.125 636.0 1859.625 631.8 1865.75 624.45C1871.291655 617.8 1877.70831 607.3 1880.916655 591.55C1882.95831 581.75 1884.416655 566.35 1883.541655 558.3H1881.791655C1879.45831 561.1 1876.541655 562.15 1873.041655 562.15C1871.0 562.15 1869.25 561.8 1867.5 560.4C1867.791655 555.85 1868.95831 549.9 1871.291655 541.85C1876.83331 521.9 1886.166655 503.0 1889.95831 478.85C1893.75 455.75 1875.666655 436.15 1848.25 436.15C1838.916655 436.15 1824.625 437.55 1814.125 440.0ZM1821.574155 387.675C1821.574155 413.684165 1842.657455 434.7675 1868.666655 434.7675C1894.675855 434.7675 1915.759155 413.684165 1915.759155 387.675C1915.759155 361.665835 1894.675855 340.58250000000004 1868.666655 340.58250000000004C1842.657455 340.58250000000004 1821.574155 361.665835 1821.574155 387.675Z" fill="#1a1a1a"/>
</svg>