<?xml version="1.0" encoding="UTF-8"?>
<svg xmlns="http://www.w3.org/2000/svg" width="1890.0" height="1057.5"
     viewBox="0 0 1890.0 1057.5">
<rect width="100%" height="100%" fill="white"/>
<text x="945.0" y="30" text-anchor="middle" font-size="14" font-family="sans-serif" font-weight="bold" fill="#333">Sans C Slanted — Key glyphs + features</text><text x="187.5" y="48" text-anchor="middle" font-size="10" font-family="sans-serif" fill="#999">J</text><text x="362.5" y="48" text-anchor="middle" font-size="10" font-family="sans-serif" fill="#999">S</text><text x="537.5" y="48" text-anchor="middle" font-size="10" font-family="sans-serif" fill="#999">L</text><text x="712.5" y="48" text-anchor="middle" font-size="10" font-family="sans-serif" fill="#999">Z</text><text x="887.5" y="48" text-anchor="middle" font-size="10" font-family="sans-serif" fill="#999">f</text><text x="1062.5" y="48" text-anchor="middle" font-size="10" font-family="sans-serif" fill="#999">i</text><text x="1237.5" y="48" text-anchor="middle" font-size="10" font-family="sans-serif" fill="#999">l</text><text x="1412.5" y="48" text-anchor="middle" font-size="10" font-family="sans-serif" fill="#999">r</text><text x="1587.5" y="48" text-anchor="middle" font-size="10" font-family="sans-serif" fill="#999">@</text><text x="1762.5" y="48" text-anchor="middle" font-size="10" font-family="sans-serif" fill="#999">fi</text><text x="20" y="221.25" font-size="11" font-family="sans-serif" font-weight="bold" fill="#555">Linear</text><path d="M142.0 231.75C128.0 231.75 117.5 228.25 105.541655 219.15H99.708345C95.041655 241.2 91.25 259.4 86.583345 281.45C86.583345 282.5 86.583345 283.55 86.875 284.25C93.0 294.05 110.208345 307.0 143.75 307.0C192.458345 307.0 223.666655 283.9 236.20834499999998 220.55C247.0 166.65 258.666655 112.75 270.041655 58.85000000000002C270.625 56.75000000000003 269.458345 55.00000000000003 267.708345 55.00000000000003C221.625 55.00000000000003 192.458345 55.00000000000003 146.375 55.00000000000003C140.541655 80.20000000000002 136.166655 99.80000000000001 130.916655 124.65C130.333345 127.10000000000002 131.791655 128.5 133.25 128.5C159.791655 128.5 169.416655 128.5 195.958345 128.5L184.875 124.65L192.166655 133.05L189.25 118.35000000000002C184.0 143.20000000000002 179.041655 168.05 173.791655 192.9C170.875 206.55 167.375 217.4 162.416655 223.35000000000002C156.291655 230.35000000000002 151.333345 231.75 142.0 231.75Z" fill="#1a1a1a"/><path d="M400.708345 48.00000000000003C349.375 48.00000000000003 314.375 66.9 305.333345 108.9L301.541655 126.4C296.583345 151.60000000000002 297.458345 184.5 345.291655 202.0L363.083345 208.65C371.541655 211.8 379.416655 214.95 377.083345 225.8L376.5 228.60000000000002C374.75 237.0 366.875 239.45 350.833345 239.45C321.375 239.45 301.833345 230.35000000000002 286.958345 216.7H281.125C277.041655 237.35 272.666655 258.0 268.875 278.65C268.583345 280.05 268.291655 281.45 269.458345 282.85C279.666655 295.1 307.083345 307.0 344.708345 307.0C392.833345 307.0 423.458345 287.75 433.375 240.85L436.291655 226.15C443.291655 193.25 435.708345 169.8 395.166655 153.70000000000002L369.5 143.55C363.666655 141.10000000000002 361.041655 136.9 362.5 130.25L363.375 126.05000000000001C365.416655 116.25 370.666655 113.80000000000001 386.708345 113.80000000000001C394.875 113.80000000000001 403.333345 115.9 408.0 119.05000000000001L401.583345 104.0C399.541655 113.10000000000002 397.5 122.20000000000002 395.458345 131.65C394.875 134.45000000000002 395.458345 135.5 397.791655 135.5C414.125 135.5 433.666655 135.5 451.458345 135.5C455.833345 114.85000000000002 460.208345 93.85000000000002 464.583345 73.20000000000002C465.458345 68.65 465.75 68.30000000000001 464.291655 66.55000000000001C457.291655 58.150000000000006 433.083345 48.00000000000003 400.708345 48.00000000000003Z" fill="#1a1a1a"/><path d="M443.291655 300.0H584.458345C590.875 269.55 592.916655 260.45 598.75 231.75C599.625 227.9 598.75 226.5 596.125 226.5H521.166655C532.541655 171.9 544.791655 113.45000000000002 556.166655 58.85000000000002C556.75 56.400000000000006 555.875 55.00000000000003 553.833345 55.00000000000003C531.958345 55.00000000000003 513.291655 55.00000000000003 491.416655 55.00000000000003C488.791655 66.55000000000001 486.458345 78.10000000000002 484.125 89.65C469.833345 158.25 455.25 227.55 440.958345 296.15C440.666655 298.25 441.541655 300.0 443.291655 300.0Z" fill="#1a1a1a"/><path d="M771.125 300.0C776.083345 276.9 781.041655 253.45 785.708345 230.35000000000002C786.291655 227.9 785.416655 226.5 783.375 226.5H757.708345C737.291655 226.5 722.416655 226.5 697.625 226.5L699.083345 219.5C713.083345 216.35000000000002 722.125 212.85000000000002 755.083345 181.0C770.541655 166.3 786.583345 150.55 804.958345 132.0L820.125 58.85000000000002C820.708345 56.400000000000006 819.833345 55.00000000000003 817.791655 55.00000000000003H664.958345C659.708345 79.5 655.916655 97.35000000000002 651.541655 119.4C650.666655 123.60000000000002 651.541655 125.0 654.75 125.0H711.916655C730.583345 125.0 721.833345 125.0 747.208345 125.0L745.75 132.0C726.5 140.4 716.583345 148.8 698.791655 164.20000000000002C676.916655 183.10000000000002 653.291655 204.45 629.083345 226.85000000000002L614.5 296.15C613.916655 298.6 614.791655 300.0 616.833345 300.0Z" fill="#1a1a1a"/><path d="M910.833345 30.5C873.208345 30.5 850.75 57.10000000000002 838.791655 115.55000000000001C829.166655 161.75 816.333345 223.35000000000002 806.708345 269.55H879.333345L877.583345 251.0C879.625 241.55 881.083345 234.55 883.416655 222.65C891.0 186.60000000000002 898.291655 150.55 905.875 114.5C907.333345 108.55000000000001 909.083345 105.05000000000001 911.416655 102.95000000000002C913.166655 101.20000000000002 916.083345 100.5 920.166655 100.5C922.791655 100.5 927.166655 101.55000000000001 928.916655 102.60000000000002H934.75C939.125 82.30000000000001 943.791655 60.25000000000003 948.166655 39.94999999999999C948.458345 38.900000000000034 948.458345 37.85000000000002 947.875 37.150000000000034C944.083345 33.30000000000001 928.041655 30.5 910.833345 30.5ZM818.666655 127.10000000000002C814.583345 146.35000000000002 810.208345 167.35 806.125 186.60000000000002C805.541655 189.05 806.416655 190.45 808.458345 190.45H910.25C914.625 170.5 919.0 150.9 923.083345 130.95000000000002C923.666655 128.5 922.791655 127.10000000000002 920.75 127.10000000000002ZM797.958345 227.55C794.458345 244.0 786.875 279.7 783.375 296.15C783.083345 298.6 783.958345 300.0 785.708345 300.0H890.708345C894.208345 283.55 901.5 247.85 905.0 231.4C905.583345 228.95 904.708345 227.55 902.666655 227.55Z" fill="#1a1a1a"/><path d="M998.041655 107.5C993.375 130.25 988.708345 153.35000000000002 984.041655 176.10000000000002C983.458345 178.55 984.333345 179.95 986.375 179.95C988.416655 179.95 991.625 179.95 993.666655 179.95H997.458345C993.666655 197.10000000000002 988.416655 221.60000000000002 984.916655 237.0C975.875 279.35 988.708345 300.0 1024.291655 300.0C1029.05554 300.0 1039.490755 300.0 1044.708345 300.0C1046.75 300.0 1048.208345 298.6 1048.791655 296.15C1053.75 273.4 1058.416655 250.3 1063.375 227.55H1057.541655C1057.07052 227.55 1056.262825 227.55 1055.791655 227.55C1054.916655 227.55 1054.333345 227.2 1054.041655 226.85000000000002C1053.458345 226.15 1053.458345 225.10000000000002 1053.75 223.7C1061.625 186.25 1069.208345 148.8 1077.083345 111.35000000000002C1077.666655 108.9 1076.791655 107.5 1074.75 107.5C1048.208345 107.5 1024.583345 107.5 998.041655 107.5ZM1010.449155 52.37500000000003C1010.449155 78.38416500000002 1031.53249 99.4675 1057.541655 99.4675C1083.55082 99.4675 1104.634155 78.38416500000002 1104.634155 52.37500000000003C1104.634155 26.365835000000004 1083.55082 5.282500000000027 1057.541655 5.282500000000027C1031.53249 5.282500000000027 1010.449155 26.365835000000004 1010.449155 52.37500000000003Z" fill="#1a1a1a"/><path d="M1188.208345 37.5C1183.541655 60.25000000000003 1178.583345 83.35000000000002 1173.916655 106.10000000000002C1173.333345 108.55000000000001 1174.208345 109.95000000000002 1176.25 109.95000000000002C1178.875 109.95000000000002 1181.208345 109.95000000000002 1182.958345 109.95000000000002H1184.125C1175.666655 150.55 1166.916655 190.8 1158.458345 231.4C1150.0 272.35 1166.916655 300.0 1201.333345 300.0C1204.541655 300.0 1212.708345 300.0 1217.083345 300.0C1218.833345 300.0 1220.583345 298.6 1221.166655 296.15C1225.833345 273.4 1230.791655 250.3 1235.458345 227.55H1233.125C1232.25 227.55 1229.625 227.55 1228.166655 227.55C1227.291655 227.55 1226.416655 227.2 1226.125 226.85000000000002C1225.833345 226.15 1225.541655 225.10000000000002 1225.833345 223.7C1238.375 163.15 1251.208345 101.9 1263.75 41.35000000000002C1264.333345 38.900000000000034 1263.458345 37.5 1261.416655 37.5C1252.666655 37.5 1194.041655 37.5 1188.208345 37.5Z" fill="#1a1a1a"/><path d="M1348.041655 107.5C1343.375 129.55 1338.708345 151.60000000000002 1334.041655 173.65C1333.75 176.10000000000002 1334.625 177.5 1336.375 177.5C1337.25 177.5 1338.708345 177.5 1339.875 177.5H1340.75C1332.291655 217.05 1324.125 256.6 1315.958345 296.15C1315.375 298.6 1316.25 300.0 1318.291655 300.0C1339.0 300.0 1360.0 300.0 1380.708345 300.0C1383.041655 288.8 1385.375 277.25 1387.708345 266.05C1393.833345 236.3 1399.958345 206.55 1407.541655 171.20000000000002C1407.541655 170.5 1401.708345 107.5 1401.708345 107.5C1387.708345 107.5 1367.583345 107.5 1348.041655 107.5ZM1453.041655 104.0C1434.666655 104.0 1421.25 115.55000000000001 1410.75 147.75H1400.541655L1396.75 191.15C1406.083345 185.2 1412.208345 183.8 1416.583345 183.8C1418.916655 183.8 1420.375 184.15 1421.833345 185.2C1421.541655 186.95 1420.958345 189.05 1420.375 192.2L1419.791655 195.0C1430.291655 195.0 1440.5 195.0 1451.0 195.0C1453.041655 195.0 1454.5 193.60000000000002 1455.083345 191.15L1470.541655 114.5C1470.833345 112.75 1470.833345 112.05000000000001 1469.666655 110.65C1466.166655 106.45000000000002 1460.916655 104.0 1453.041655 104.0Z" fill="#1a1a1a"/><path d="M1530.041655 154.05 1509.041655 255.2C1492.125 336.4 1524.5 387.5 1633.0 387.5C1675.291655 387.5 1707.958345 381.9 1721.375 377.7C1722.25 377.35 1722.833345 375.95 1723.125 374.9C1724.583345 366.85 1733.625 324.85 1735.375 316.8H1726.916655C1708.25 322.05 1687.833345 325.55 1653.125 325.55C1614.625 325.55 1593.041655 322.05 1580.208345 310.85C1567.958345 300.0 1564.75 280.05 1575.25 230.0L1586.625 175.4C1597.708345 122.20000000000002 1617.541655 95.60000000000002 1677.916655 95.60000000000002C1707.375 95.60000000000002 1724.583345 99.45000000000002 1731.291655 108.55000000000001C1737.708345 116.95000000000002 1739.166655 126.75 1732.75 157.55C1726.625 187.3 1721.666655 210.75 1710.583345 263.95C1710.291655 265.0 1736.25 300.35 1739.75 300.35H1766.0C1769.208345 284.95 1772.416655 269.55 1775.625 254.15C1785.25 207.95 1793.125 169.1 1797.5 148.45000000000002C1811.791655 79.5 1780.291655 34.0 1679.958345 34.0C1585.458345 34.0 1545.791655 78.80000000000001 1530.041655 154.05ZM1738.875 228.60000000000002C1726.625 241.55 1710.875 247.85 1699.208345 247.85C1688.416655 247.85 1684.041655 241.2 1686.958345 226.85000000000002L1692.208345 202.7C1693.958345 193.60000000000002 1696.0 189.75 1699.208345 186.60000000000002C1702.125 183.8 1706.791655 182.05 1713.208345 182.05C1722.541655 182.05 1735.083345 183.8 1747.041655 187.3L1756.083345 143.20000000000002H1731.291655C1722.25 135.5 1710.583345 130.95000000000002 1692.208345 130.95000000000002C1659.541655 130.95000000000002 1639.416655 154.4 1631.25 193.60000000000002L1619.583345 249.25C1612.875 281.45 1625.416655 303.85 1657.208345 303.85C1678.5 303.85 1696.0 298.25 1714.958345 281.1H1728.083345Z" fill="#1a1a1a"/><path d="M1657.791655 296.5C1653.125 319.6 1648.166655 343.05 1643.208345 366.15C1642.916655 368.6 1644.083345 370.0 1645.833345 370.0C1653.416655 370.0 1662.458345 370.0 1670.041655 370.0C1708.541655 370.0 1731.875 347.25 1741.5 301.4C1753.166655 245.05 1769.208345 167.70000000000002 1780.875 111.70000000000002C1782.041655 107.15 1783.5 103.65 1786.125 101.20000000000002C1788.166655 99.10000000000002 1791.375 97.70000000000002 1795.458345 97.70000000000002C1796.625 97.70000000000002 1797.791655 97.70000000000002 1798.958345 97.70000000000002C1798.375 100.85000000000002 1797.791655 103.30000000000001 1797.208345 106.80000000000001L1796.333345 111.0C1804.791655 111.0 1813.25 111.0 1821.708345 111.0C1823.75 111.0 1825.208345 109.60000000000002 1825.791655 107.15L1839.208345 42.400000000000034C1839.5 41.35000000000002 1839.208345 40.30000000000001 1838.916655 39.60000000000002C1835.708345 35.05000000000001 1825.5 30.5 1804.5 30.5C1756.375 30.5 1725.458345 56.05000000000001 1713.208345 115.55000000000001C1701.25 172.25 1688.125 235.60000000000002 1676.166655 292.65C1675.875 294.05 1675.291655 295.1 1674.708345 295.8C1674.125 296.15 1673.25 296.5 1672.375 296.5C1669.75 296.5 1666.25 296.5 1663.625 296.5ZM1687.833345 153.0C1683.75 172.60000000000002 1678.208345 199.55 1673.833345 219.15C1673.541655 221.60000000000002 1674.416655 223.0 1676.458345 223.0H1784.083345C1788.166655 203.4 1793.708345 176.45 1797.791655 156.85000000000002C1798.375 154.4 1797.5 153.0 1795.458345 153.0ZM1814.70831 107.5C1810.041655 130.25 1805.375 153.35000000000002 1800.70831 176.10000000000002C1800.125 178.55 1801.0 179.95 1803.041655 179.95C1805.08331 179.95 1808.291655 179.95 1810.33331 179.95H1814.125C1810.33331 197.10000000000002 1805.08331 221.60000000000002 1801.58331 237.0C1792.541655 279.35 1805.375 300.0 1840.95831 300.0C1845.722195 300.0 1856.15741 300.0 1861.375 300.0C1863.416655 300.0 1864.875 298.6 1865.45831 296.15C1870.416655 273.4 1875.08331 250.3 1880.041655 227.55H1874.20831C1873.737175 227.55 1872.92948 227.55 1872.45831 227.55C1871.58331 227.55 1871.0 227.2 1870.70831 226.85000000000002C1870.125 226.15 1870.125 225.10000000000002 1870.416655 223.7C1878.291655 186.25 1885.875 148.8 1893.75 111.35000000000002C1894.33331 108.9 1893.45831 107.5 1891.416655 107.5C1864.875 107.5 1841.25 107.5 1814.70831 107.5ZM1827.11581 52.37500000000003C1827.11581 78.38416500000002 1848.199145 99.4675 1874.20831 99.4675C1900.217475 99.4675 1921.30081 78.38416500000002 1921.30081 52.37500000000003C1921.30081 26.365835000000004 1900.217475 5.282500000000027 1874.20831 5.282500000000027C1848.199145 5.282500000000027 1827.11581 26.365835000000004 1827.11581 52.37500000000003Z" fill="#1a1a1a"/><line x1="20" y1="382.5" x2="1870.0" y2="382.5" stroke="#eee" stroke-width="0.5"/><text x="20" y="553.75" font-size="11" font-family="sans-serif" font-weight="bold" fill="#555">SemiCasual</text><path d="M141.416655 564.25C129.166655 564.25 118.083345 560.225 105.104155 548.325H101.3125C97.666655 561.8 94.458345 574.4 90.8125 591.55C87.604155 606.6 87.604155 613.25 91.6875 620.075C98.25 630.4 114.4375 639.5 141.854155 639.5C189.833345 639.5 220.166655 616.4 233.875 561.45C245.58201 504.04650000000004 257.64374499999997 444.9035 269.350755 387.5C269.350755 384.70000000000005 262.60587 383.3 245.743675 383.3C238.99882499999998 383.3 232.25394 383.3 225.50909 383.3C208.64689499999997 383.3 201.90201 384.70000000000005 201.90201 387.5C201.90201 387.5 201.90201 387.5 201.90201 387.5C201.90201 387.5 201.90201 387.5 201.90201 387.5C191.95186 436.5875 181.70018499999998 487.1625 171.75 536.25C169.854155 544.825 167.666655 552.0 164.604155 556.725C158.041655 562.5 152.208345 564.25 141.416655 564.25Z" fill="#1a1a1a"/><path d="M403.770845 380.5C352.875 380.5 311.895845 409.55 302.416655 454.525L300.229155 464.675C294.395845 493.20000000000005 301.25 519.8 346.604155 536.775L361.479155 542.375C370.958345 546.05 377.666655 550.425 376.5 560.225L376.208345 562.15C371.541655 567.225 362.354155 568.8 348.5 568.8C321.666655 568.8 303.4375 559.0 288.854155 543.075H285.0625C280.104155 557.775 275.14581 578.775 272.375 594.7C270.625 605.2 271.645845 613.6 276.75 619.025C286.95831 630.4 310.145845 639.5 344.708345 639.5C394.583345 639.5 423.895845 620.6 432.9375 577.375L434.979155 567.225C441.541655 535.9 431.041655 511.575 393.416655 496.70000000000005L370.229155 487.6C361.625 484.1 358.270845 479.025 359.875 471.85L360.458345 469.05C362.645845 458.375 374.458345 452.25 392.395845 452.25C397.645845 452.25 403.916655 453.475 408.0 455.225L403.041655 440.70000000000005C399.979155 449.275 397.354155 458.55 396.041655 466.07500000000005C394.145845 477.8 399.25 483.05 412.520845 483.05C425.354155 483.05 439.208345 482.35 451.458345 480.95000000000005C453.9375 463.975 457.291655 445.07500000000005 461.229155 426.70000000000005C463.5625 414.8 461.520845 406.75 456.270845 399.57500000000005C447.8125 388.9 428.416655 380.5 403.770845 380.5Z" fill="#1a1a1a"/><path d="M470.125 632.5C470.125 632.5 583.4375 632.5 583.4375 632.5C587.6666725 614.475 589.5625 606.775 593.2083275 588.925C596.4166725 573.7 595.8333275 557.25 577.3125 557.25C577.3125 557.25 521.4583275 557.25 521.4583275 557.25C528.3125 510.35 545.375 462.925 554.125 412.0C556.1666725 396.775 553.9791725 385.75 535.3125 385.75C519.270845 385.75 505.125 386.275 489.5208275 387.5C489.0833275 399.225 488.208345 411.82500000000005 485.875 424.775C475.083345 482.0 456.8541725 536.775 446.3541725 596.1C444.0208275 613.6 456.5625 632.5 470.125 632.5Z" fill="#1a1a1a"/><path d="M771.8541725 632.5C775.7916725 616.925 780.166655 598.9 783.520845 582.1C786.5833275 567.575 783.8125 556.9 771.5625 556.9C771.5625 556.9 758.145845 556.9 758.145845 556.9C743.5625 556.9 730.0 557.425 705.2083275 560.575C705.2083275 560.575 706.083345 556.025 706.083345 556.025C722.8541725 548.5 737.1458275 539.225 762.083345 515.425C780.4583275 497.925 796.645845 479.55 807.4375 462.75C807.4375 462.75 815.3125 424.6 815.3125 424.6C818.6666725 406.75 811.8125 387.5 802.479155 387.5C802.479155 387.5 666.4166725 387.5 666.4166725 387.5C661.895845 404.3 658.3958275 417.6 655.3333275 432.65C652.2708275 447.70000000000005 656.9375 458.025 670.0625 458.025C670.0625 458.025 711.7708275 458.025 711.7708275 458.025C729.5625 458.025 728.6875 458.025 746.9166725 458.025C746.9166725 458.025 745.8958275 462.57500000000005 745.8958275 462.57500000000005C731.1666725 475.525 719.7916725 487.07500000000005 704.479155 501.425C682.75 522.075 657.375 541.85 626.458345 563.2C626.458345 563.2 618.875 599.425 618.875 599.425C614.0625 622.175 618.0 632.5 633.458345 632.5C633.458345 632.5 771.8541725 632.5 771.8541725 632.5Z" fill="#1a1a1a"/><path d="M910.833345 363.0C886.1875 363.0 872.45 387.85 865.3625 440.70000000000005C858.7125 489.70000000000005 853.4625 544.65 805.3958275 595.575C805.3958275 595.575 888.55 595.575 888.55 595.575C888.55 595.575 886.5375 570.725 886.5375 570.725C889.075 561.975 890.9125 553.925 892.225 543.075C890.5625 514.55 896.6875 484.1 903.1041725 453.475C902.958345 446.3 903.6875 439.82500000000005 905.4375 434.57500000000005C907.479155 433.525 910.9791725 433.0 914.479155 433.0C919.5833275 433.0 925.5625 434.925 928.7708275 437.725C928.7708275 437.725 932.5625 437.725 932.5625 437.725C936.7916725 422.5 940.291655 407.625 943.6458275 391.70000000000005C945.6875 382.6 945.6875 376.125 943.3541725 371.925C939.4166725 365.975 926.875 363.0 910.833345 363.0ZM846.025 459.425C844.45 470.975 842.875 483.4 841.0375 497.4C838.564015 515.1399975139625 842.6409375 523.475 848.475 523.475C848.475 523.475 908.9375 523.475 908.9375 523.475C912.875 510.0 916.5208275 495.65 919.4375 481.65C922.791655 466.25 920.4583275 459.425 912.0 459.425C912.0 459.425 846.025 459.425 846.025 459.425ZM797.958345 560.05C794.458345 573.0 789.3541725 595.225 786.5833275 608.175C783.375 622.875 788.770845 632.5 800.145845 632.5C800.145845 632.5 890.270845 632.5 890.270845 632.5C893.333345 620.95 898.7291725 598.725 901.5 585.25C905.145845 568.8 900.0416725 560.05 886.7708275 560.05C886.7708275 560.05 797.958345 560.05 797.958345 560.05Z" fill="#1a1a1a"/><path d="M997.75 440.0C993.6666725 455.4 989.583345 471.85 986.0833275 489.35C982.583345 505.625 985.208345 514.725 990.1666725 514.725C992.6458275 514.725 995.125 514.375 997.604155 512.625C997.604155 512.625 1000.2291725 513.15 1000.2291725 513.15C996.4375 530.125 989.0 550.25 984.7708275 573.35C978.2083275 607.3 993.520845 634.25 1022.25 634.25C1030.7569425 634.25 1041.22455 632.15 1046.895845 628.475C1050.6875 625.15 1054.625 619.2 1056.5208275 610.1C1060.0208275 593.825 1063.0833275 574.575 1065.125 559.175C1065.125 559.175 1061.3333275 559.175 1061.3333275 559.175C1059.9310875 560.575 1058.0689125 561.1 1056.0833275 561.1C1054.625 561.1 1053.458345 560.75 1052.4375 559.875C1052.2916725 557.25 1052.875 553.75 1054.1875 549.025C1060.8958275 520.325 1069.3541725 492.15 1075.1875 461.35C1077.375 448.57500000000005 1067.8958275 438.07500000000005 1053.1666725 438.07500000000005C1035.2291725 438.07500000000005 1016.270845 438.775 997.75 440.0ZM1007.678345 386.275C1007.678345 386.275 1007.678345 386.275 1007.678345 386.275C1007.678345 412.28416500000003 1028.761645 433.3675 1054.770845 433.3675C1080.78001 433.3675 1101.863345 412.28416500000003 1101.863345 386.275C1101.863345 386.275 1101.863345 386.275 1101.863345 386.275C1101.863345 360.265835 1080.78001 339.18250000000006 1054.770845 339.18250000000006C1028.761645 339.18250000000006 1007.678345 360.265835 1007.678345 386.275Z" fill="#1a1a1a"/><path d="M1188.5 370.0C1184.125 387.15 1179.458345 406.57500000000005 1175.8125 423.725C1172.3125 440.35 1173.625 446.125 1178.2916725 446.125C1181.6458275 446.125 1185.7291725 444.55 1190.25 437.725C1190.25 437.725 1191.7083275 438.775 1191.7083275 438.775C1181.9375 480.25 1166.479155 519.975 1158.75 561.1C1151.0208275 602.575 1168.229155 634.425 1200.895845 634.425C1208.1875 634.425 1216.208345 632.675 1221.3125 629.0C1225.395845 624.8 1227.583345 621.475 1230.0625 609.4C1234.0 590.15 1236.625 571.075 1238.520845 555.5C1238.520845 555.5 1236.4791725 555.5 1236.4791725 555.5C1232.25 560.575 1229.9166725 561.1 1227.5833275 561.1C1226.2708275 561.1 1224.9583275 560.75 1223.7916725 560.225C1223.7916725 557.775 1224.375 553.225 1225.5416725 549.025C1237.9375 496.70000000000005 1252.083345 447.70000000000005 1262.2916725 394.32500000000005C1264.9166725 378.925 1255.0 368.25 1237.791655 368.25C1228.8958275 368.25 1195.5 368.95 1188.5 370.0Z" fill="#1a1a1a"/><path d="M1347.604155 440.175C1342.9375 455.57500000000005 1338.5625 473.775 1334.916655 491.975C1332.0 506.675 1333.3125 513.675 1336.9583275 513.675C1339.0 513.675 1340.75 513.325 1342.2083275 512.625C1342.2083275 512.625 1343.375 513.15 1343.375 513.15C1337.25 543.95 1328.5 574.75 1322.375 604.325C1319.3125 619.55 1325.2916725 634.25 1341.916655 634.25C1355.9166725 634.25 1369.625 633.725 1383.333345 632.5C1383.041655 620.95 1384.3541725 608.7 1386.833345 593.3C1391.9375 562.85 1400.5416725 535.55 1407.25 505.625C1410.3125 492.5 1404.0416725 438.25 1388.583345 438.25C1376.9166725 438.25 1362.625 438.95000000000005 1347.604155 440.175ZM1451.729155 435.45000000000005C1436.125 435.45000000000005 1422.9218275 445.985601179005 1410.6041725 481.125C1410.6041725 481.125 1403.3125 480.425 1403.3125 480.425C1403.3125 480.425 1395.2916725 525.4 1395.2916725 525.4C1404.1875 517.0 1411.1875 514.025 1416.875 514.025C1418.7708275 514.025 1420.0833275 514.375 1421.25 515.425C1421.104155 518.575 1419.9375 523.125 1418.7708275 527.325C1418.7708275 527.325 1418.479155 529.775 1418.479155 529.775C1426.2083275 530.65 1433.0625 530.825 1441.5208275 530.825C1450.048035 530.825 1456.762645 523.268065691405 1459.458345 511.225C1459.458345 511.225 1467.7708275 470.275 1467.7708275 470.275C1470.9791725 455.4 1470.548095 446.6577004386025 1466.604155 441.925C1462.9583275 437.55 1458.319585 435.45000000000005 1451.729155 435.45000000000005Z" fill="#1a1a1a"/><path d="M1525.375 519.8C1525.375 519.8 1514.291655 573.35 1514.291655 573.35C1497.6666725 655.6 1530.1875 711.25 1629.7916725 711.25C1668.5833275 711.25 1695.4166725 707.4 1710.7291725 700.925C1715.9791725 698.3 1719.0416725 692.35 1720.2083275 683.6C1721.2291725 676.775 1725.8958275 651.925 1726.4791725 645.275C1726.4791725 645.275 1721.0833275 645.275 1721.0833275 645.275C1698.625 654.025 1676.6041725 657.35 1648.6041725 657.35C1613.8958275 657.35 1592.8958275 655.25 1575.6875 647.9C1564.895845 628.65 1563.1458275 603.275 1572.4791725 560.4C1572.4791725 560.4 1578.6041725 531.175 1578.6041725 531.175C1595.083345 456.1 1633.729155 420.225 1696.5833275 420.225C1716.5625 420.225 1728.375 422.675 1735.5208275 427.75C1739.6041725 434.225 1740.041655 442.1 1735.5208275 464.15C1728.0833275 499.85 1720.6458275 535.375 1710.145845 585.95C1707.229155 599.25 1731.4375 630.575 1751.8541725 630.575C1751.8541725 630.575 1769.0625 630.575 1769.0625 630.575C1770.520845 616.925 1772.5625 603.45 1775.3333275 587.875C1783.5 542.025 1794.875 502.3 1800.5625 466.425C1811.6458275 403.07500000000005 1782.7708275 366.5 1700.2291725 366.5C1598.4375 366.5 1543.604155 429.32500000000005 1525.375 519.8ZM1736.25 552.0C1721.8125 569.15 1706.2083275 576.5 1695.5625 576.5C1685.0625 576.5 1680.541655 570.375 1684.625 550.075C1684.625 550.075 1687.5416725 536.6 1687.5416725 536.6C1690.895845 520.675 1692.9375 514.375 1696.583345 506.5C1700.5208275 504.575 1704.8958275 503.525 1711.3125 503.525C1719.916655 503.525 1729.395845 505.275 1737.416655 510.7C1737.416655 510.7 1746.895845 464.85 1746.895845 464.85C1746.895845 464.85 1732.166655 464.85 1732.166655 464.85C1723.7083275 456.275 1714.375 451.375 1698.770845 451.375C1666.25 451.375 1635.3333275 480.775 1623.8125 533.625C1623.8125 533.625 1617.395845 564.075 1617.395845 564.075C1607.4791725 609.925 1626.0 633.2 1656.9166725 633.2C1678.3541725 633.2 1694.3958275 626.2 1712.4791725 607.475C1712.4791725 607.475 1725.3125 607.475 1725.3125 607.475C1725.3125 607.475 1736.25 552.0 1736.25 552.0Z" fill="#1a1a1a"/><path d="M1656.3333275 627.25C1652.1041725 643.7 1648.4583275 659.625 1644.958345 675.55C1642.7708275 686.75 1643.7916725 694.275 1647.4375 698.825C1652.8333275 701.625 1661.7291725 702.675 1669.604155 702.675C1707.8125 702.675 1731.5833275 677.3 1740.3333275 635.475C1750.3958275 587.35 1765.5625 514.2 1774.8958275 469.75C1777.666655 457.15 1776.7916725 444.725 1774.0208275 435.1C1776.9375 433.525 1780.2916725 432.3 1784.083345 432.3C1786.125 432.3 1788.166655 432.475 1790.0625 432.82500000000005C1789.625 436.5 1788.4583275 439.3 1787.145845 443.15C1787.145845 443.15 1786.5625 446.3 1786.5625 446.3C1792.25 446.82500000000005 1797.7916725 447.175 1803.770845 447.175C1812.5208275 447.175 1819.958345 439.65 1822.729155 427.05C1822.729155 427.05 1829.875 392.4 1829.875 392.4C1831.3333275 385.4 1830.020845 378.05 1827.8333275 374.375C1823.895845 368.425 1815.5833275 363.0 1796.7708275 363.0C1756.6666725 363.0 1725.1666725 389.95000000000005 1714.520845 441.57500000000005C1702.7083275 497.57500000000005 1689.1458275 562.85 1677.479155 619.025C1676.75 622.525 1676.0208275 625.15 1675.145845 628.3C1673.9791725 628.65 1672.2291725 629.0 1670.4791725 629.0C1666.6875 629.0 1663.1875 628.65 1660.125 627.25C1660.125 627.25 1656.3333275 627.25 1656.3333275 627.25ZM1686.958345 487.775C1683.6041725 500.725 1679.8125 517.525 1676.895845 531.175C1672.9583275 550.425 1676.0208275 557.775 1689.875 557.775C1689.875 557.775 1782.770845 557.775 1782.770845 557.775C1786.2708275 544.475 1790.3541725 526.45 1793.416655 511.925C1797.2083275 493.725 1793.7083275 487.775 1778.9791725 487.775C1778.9791725 487.775 1686.958345 487.775 1686.958345 487.775ZM1814.416655 440.0C1810.3333275 455.4 1806.25 471.85 1802.7499825 489.35C1799.25 505.625 1801.875 514.725 1806.8333275 514.725C1809.3124825 514.725 1811.791655 514.375 1814.27081 512.625C1814.27081 512.625 1816.8958275 513.15 1816.8958275 513.15C1813.104155 530.125 1805.666655 550.25 1801.4374825 573.35C1794.8749825 607.3 1810.1875 634.25 1838.916655 634.25C1847.4235975 634.25 1857.891205 632.15 1863.5625 628.475C1867.354155 625.15 1871.291655 619.2 1873.1874825 610.1C1876.6874825 593.825 1879.7499825 574.575 1881.791655 559.175C1881.791655 559.175 1877.9999825 559.175 1877.9999825 559.175C1876.5977425 560.575 1874.7355675 561.1 1872.7499825 561.1C1871.291655 561.1 1870.125 560.75 1869.104155 559.875C1868.9583275 557.25 1869.541655 553.75 1870.854155 549.025C1877.5624825 520.325 1886.0208275 492.15 1891.854155 461.35C1894.041655 448.57500000000005 1884.5624825 438.07500000000005 1869.8333275 438.07500000000005C1851.8958275 438.07500000000005 1832.9375 438.775 1814.416655 440.0ZM1824.345 386.275C1824.345 386.275 1824.345 386.275 1824.345 386.275C1824.345 412.28416500000003 1845.4283 433.3675 1871.4375 433.3675C1897.446665 433.3675 1918.53 412.28416500000003 1918.53 386.275C1918.53 386.275 1918.53 386.275 1918.53 386.275C1918.53 360.265835 1897.446665 339.18250000000006 1871.4375 339.18250000000006C1845.4283 339.18250000000006 1824.345 360.265835 1824.345 386.275Z" fill="#1a1a1a"/><line x1="20" y1="715.0" x2="1870.0" y2="715.0" stroke="#eee" stroke-width="0.5"/><text x="20" y="886.25" font-size="11" font-family="sans-serif" font-weight="bold" fill="#555">Casual</text><path d="M140.833345 896.75C130.333345 896.75 118.66665499999999 892.2 104.666655 877.5H102.916655C100.291655 882.4 97.666655 889.4 95.041655 901.65C88.625 930.7 88.625 942.95 96.5 955.9C103.5 966.75 118.66665499999999 972.0 139.958345 972.0C187.208345 972.0 216.666655 948.9 231.541655 902.35C246.416655 855.8 245.83334499999998 805.4 258.666655 765.15C268.291655 735.75 250.5 716.5 210.541655 716.5C184.291655 716.5 160.083345 718.6 135.583345 722.45C133.25 727.7 130.625 734.7 128.875 743.1C123.04165499999999 770.75 129.166655 793.5 150.458345 793.5C163.583345 793.5 174.958345 790.0 192.75 772.5L187.5 774.6L191.875 786.15L191.0 772.85C179.625 808.2 178.75 844.95 169.708345 879.6C168.833345 883.1 167.958345 886.6 166.791655 890.1C159.791655 894.65 153.083345 896.75 140.833345 896.75Z" fill="#1a1a1a"/><path d="M406.833345 713.0C356.375 713.0 309.416655 752.2 299.5 800.15L298.916655 802.95C292.208345 834.8 305.041655 855.1 347.916655 871.55L359.875 876.1C370.375 880.3 375.916655 885.9 375.916655 894.65V895.7C368.333345 897.45 357.833345 898.15 346.166655 898.15C321.958345 898.15 305.041655 887.65 290.75 869.45H289.0C283.166655 878.2 277.625 899.55 275.875 910.75C272.666655 930.35 275.0 945.75 284.041655 955.2C294.25 965.7 313.208345 972.0 344.708345 972.0C396.333345 972.0 424.333345 953.45 432.5 913.9L433.666655 908.3C439.791655 878.55 426.375 853.35 391.666655 839.7L370.958345 831.65C359.583345 827.1 355.5 821.15 357.25 813.45L357.541655 812.05C359.875 800.5 378.25 790.7 398.083345 790.7C400.416655 790.7 404.5 791.05 408.0 791.4L404.5 777.4C400.416655 785.45 397.208345 794.9 396.625 800.5C393.416655 821.15 403.041655 830.6 427.25 830.6C436.583345 830.6 444.75 829.2 451.458345 826.4C452.041655 813.1 454.375 796.3 457.875 780.2C461.666655 760.95 457.291655 745.2 448.25 732.6C438.333345 719.65 423.75 713.0 406.833345 713.0Z" fill="#1a1a1a"/><path d="M496.958345 965.0H582.416655C584.458345 959.4 586.208345 953.1 587.666655 946.1C593.208345 919.5 592.916655 888.0 558.5 888.0H521.75C524.083345 848.8 545.958345 812.4 552.083345 765.15C555.583345 737.15 552.083345 716.5 516.791655 716.5C506.583345 716.5 496.958345 717.55 487.625 720.0C489.375 731.9 489.958345 745.55 487.625 759.9C480.333345 805.75 458.458345 846.0 451.75 896.05C447.375 928.95 471.583345 965.0 496.958345 965.0Z" fill="#1a1a1a"/><path d="M772.583345 965.0C775.5 956.95 779.291655 944.35 781.333345 933.85C786.875 907.25 782.208345 887.3 759.75 887.3H758.583345C749.833345 887.3 737.583345 888.35 712.791655 894.65L713.083345 892.55C732.625 880.65 752.166655 865.6 769.083345 849.85C790.375 829.55 806.708345 808.55 809.916655 793.5L810.5 790.35C816.625 757.1 803.791655 720.0 787.166655 720.0H667.875C664.083345 729.1 660.875 737.85 659.125 745.9C653.875 771.8 662.333345 791.05 685.375 791.05H711.625C728.541655 791.05 735.541655 791.05 746.625 791.05L746.041655 793.15C735.833345 810.65 723.0 825.35 710.166655 838.65C688.583345 861.05 661.458345 879.25 623.833345 899.55L623.25 902.7C614.208345 945.75 621.208345 965.0 650.083345 965.0Z" fill="#1a1a1a"/><path d="M910.833345 695.5C875.833345 695.5 852.5 718.6 840.833345 765.85C828.291655 817.65 823.625 865.95 807.0 921.6H877.583345L872.625 890.45C879.041655 882.4 883.708345 873.3 885.75 863.5C890.125 842.5 895.083345 817.65 900.333345 792.45C898.583345 784.05 898.291655 774.6 899.458345 766.2C901.791655 765.85 905.875 765.5 908.791655 765.5C916.375 765.5 923.958345 768.3 928.625 772.85H930.375C934.458345 762.7 936.791655 755.0 939.125 743.45C942.916655 726.3 942.916655 714.4 938.833345 706.7C934.75 698.6500000000001 925.708345 695.5 910.833345 695.5ZM818.083345 791.75C816.916655 795.6 816.041655 799.45 814.0 808.2C806.338395 841.229995027925 819.053125 856.5 836.458345 856.5H907.625C911.125 849.5 914.041655 840.4 915.791655 832.35C921.916655 804.0 918.125 791.75 903.25 791.75ZM797.958345 892.55C794.458345 902.0 791.833345 910.75 789.791655 920.2C783.666655 947.15 793.583345 965.0 814.583345 965.0H889.833345C892.458345 958.35 895.958345 949.6 898.0 939.1C904.708345 908.65 895.375 892.55 870.875 892.55Z" fill="#1a1a1a"/><path d="M997.458345 772.5C993.958345 780.55 990.458345 790.35 988.125 802.6C981.708345 832.7 986.083345 849.5 993.958345 849.5C996.875 849.5 998.625 848.8 1001.541655 845.3L1003.0 846.35C999.208345 863.15 989.583345 878.9 984.625 909.7C980.541655 935.25 998.333345 968.5 1020.208345 968.5C1032.458345 968.5 1042.958345 964.3 1049.083345 956.95C1054.625 950.3 1061.041655 939.8 1064.25 924.05C1066.291655 914.25 1067.75 898.85 1066.875 890.8H1065.125C1062.791655 893.6 1059.875 894.65 1056.375 894.65C1054.333345 894.65 1052.583345 894.3 1050.833345 892.9C1051.125 888.35 1052.291655 882.4 1054.625 874.35C1060.166655 854.4 1069.5 835.5 1073.291655 811.35C1077.083345 788.25 1059.0 768.65 1031.583345 768.65C1022.25 768.65 1007.958345 770.05 997.458345 772.5ZM1004.9075 720.175C1004.9075 746.184165 1025.9908 767.2674999999999 1052.0 767.2674999999999C1078.0092 767.2674999999999 1099.0925 746.184165 1099.0925 720.175C1099.0925 694.165835 1078.0092 673.0825 1052.0 673.0825C1025.9908 673.0825 1004.9075 694.165835 1004.9075 720.175Z" fill="#1a1a1a"/><path d="M1188.791655 702.5C1184.708345 714.05 1180.333345 729.8 1177.708345 741.35C1171.291655 772.15 1173.041655 782.3 1180.333345 782.3C1184.416655 782.3 1190.25 779.15 1197.541655 765.5L1199.291655 767.6C1188.208345 809.95 1166.041655 849.15 1159.041655 890.8C1152.041655 932.8 1169.541655 968.85 1200.458345 968.85C1211.833345 968.85 1219.708345 965.35 1225.541655 958.0C1231.958345 949.6 1234.583345 944.35 1238.958345 922.65C1242.166655 906.9 1242.458345 891.85 1241.583345 883.45H1239.833345C1232.25 893.6 1230.208345 894.65 1227.0 894.65C1225.25 894.65 1223.5 894.3 1221.458345 893.6C1221.75 889.4 1223.208345 881.35 1225.25 874.35C1237.5 830.25 1252.958345 793.5 1260.833345 747.3C1265.5 718.95 1246.541655 699.0 1214.166655 699.0C1205.125 699.0 1196.958345 700.4000000000001 1188.791655 702.5Z" fill="#1a1a1a"/><path d="M1347.166655 772.85C1342.5 781.6 1338.416655 795.95 1335.791655 810.3C1330.25 837.25 1332.0 849.85 1337.541655 849.85C1340.75 849.85 1342.791655 849.15 1344.541655 847.75L1346.0 848.8C1342.208345 870.85 1332.875 892.9 1328.791655 912.5C1323.25 940.5 1334.333345 968.5 1365.541655 968.5C1372.833345 968.5 1379.25 967.45 1385.958345 965.0C1383.041655 953.1 1383.333345 940.15 1385.958345 920.55C1390.041655 889.4 1401.125 864.55 1406.958345 840.05C1413.083345 814.5 1406.375 769.0 1375.458345 769.0C1366.125 769.0 1357.666655 770.4 1347.166655 772.85ZM1450.416655 766.9C1437.583345 766.9 1424.593655 776.42120235801 1410.458345 814.5L1406.083345 813.1L1393.833345 859.65C1402.291655 848.8 1410.166655 844.25 1417.166655 844.25C1418.625 844.25 1419.791655 844.6 1420.666655 845.65C1420.666655 850.2 1418.916655 857.2 1417.166655 862.45V864.55C1422.125 866.3 1425.625 866.65 1432.041655 866.65C1447.054415 866.65 1459.02529 852.93613138281 1463.833345 831.3L1465.0 826.05C1471.125 798.05 1470.262845 781.265400877205 1463.541655 773.2C1459.75 768.65 1455.722515 766.9 1450.416655 766.9Z" fill="#1a1a1a"/><path d="M1520.708345 885.55 1519.541655 891.5C1503.208345 974.8 1535.875 1035.0 1626.583345 1035.0C1661.875 1035.0 1682.875 1032.9 1700.083345 1024.15C1709.708345 1019.25 1715.25 1008.75 1717.291655 992.3C1717.875 986.7 1718.166655 979.0 1717.583345 973.75H1715.25C1689.0 986.0 1665.375 989.15 1644.083345 989.15C1613.166655 989.15 1592.75 988.45 1571.166655 984.95C1561.833345 957.3 1561.541655 926.5 1569.708345 890.8L1570.583345 886.95C1592.458345 790.0 1649.916655 744.85 1715.25 744.85C1725.75 744.85 1732.166655 745.9 1739.75 746.95C1741.5 751.5 1740.916655 757.45 1738.291655 770.75C1729.541655 812.4 1719.625 860.0 1709.708345 907.95C1704.166655 933.5 1726.625 960.8 1763.958345 960.8H1772.125C1771.833345 948.9 1772.708345 937.35 1775.041655 921.6C1781.75 876.1 1796.625 835.5 1803.625 784.4C1811.5 726.65 1785.25 699.0 1720.5 699.0C1611.416655 699.0 1541.416655 779.85 1520.708345 885.55ZM1733.625 875.4C1717.0 896.75 1701.541655 905.15 1691.916655 905.15C1681.708345 905.15 1677.041655 899.55 1682.291655 873.3L1682.875 870.5C1687.833345 847.75 1689.875 839.0 1693.958345 826.4C1698.916655 825.35 1703.0 825.0 1709.416655 825.0C1717.291655 825.0 1723.708345 826.75 1727.791655 834.1L1737.708345 786.5H1733.041655C1725.166655 777.05 1718.166655 771.8 1705.333345 771.8C1672.958345 771.8 1631.25 807.15 1616.375 873.65L1615.208345 878.9C1602.083345 938.4 1626.583345 962.55 1656.625 962.55C1678.208345 962.55 1692.791655 954.15 1710.0 933.85H1722.541655Z" fill="#1a1a1a"/><path d="M1654.875 958.0C1651.083345 967.8 1648.75 976.2 1646.708345 984.95C1642.625 1004.9 1643.5 1018.55 1649.041655 1027.65C1652.25 1033.25 1661.0 1035.35 1669.166655 1035.35C1707.083345 1035.35 1731.291655 1007.35 1739.166655 969.55C1747.625 929.65 1761.916655 860.7 1768.916655 827.8C1773.291655 807.15 1770.083345 785.8 1761.916655 769.0C1765.708345 767.95 1769.208345 766.9 1772.708345 766.9C1775.625 766.9 1778.541655 767.25 1781.166655 767.95C1780.875 772.15 1779.125 775.3 1777.083345 779.5L1776.791655 781.6C1779.708345 782.65 1782.333345 783.35 1785.833345 783.35C1801.291655 783.35 1814.708345 769.7 1819.666655 746.95L1820.541655 742.4C1823.166655 729.45 1820.833345 715.8 1816.75 709.15C1812.083345 701.8 1805.666655 695.5 1789.041655 695.5C1756.958345 695.5 1724.875 723.85 1715.833345 767.6C1704.166655 822.9 1690.166655 890.1 1678.791655 945.4C1677.625 951.0 1676.75 955.2 1675.583345 960.8C1673.833345 961.15 1671.208345 961.5 1668.583345 961.5C1663.625 961.5 1660.125 960.8 1656.625 958.0ZM1686.083345 822.55C1683.458345 828.85 1681.416655 835.5 1679.958345 843.2C1672.375 879.25 1677.625 892.55 1703.291655 892.55H1781.458345C1784.375 885.55 1787.0 876.45 1789.041655 867.0C1796.041655 833.05 1789.916655 822.55 1762.5 822.55ZM1814.125 772.5C1810.625 780.55 1807.125 790.35 1804.791655 802.6C1798.375 832.7 1802.75 849.5 1810.625 849.5C1813.541655 849.5 1815.291655 848.8 1818.20831 845.3L1819.666655 846.35C1815.875 863.15 1806.25 878.9 1801.291655 909.7C1797.20831 935.25 1815.0 968.5 1836.875 968.5C1849.125 968.5 1859.625 964.3 1865.75 956.95C1871.291655 950.3 1877.70831 939.8 1880.916655 924.05C1882.95831 914.25 1884.416655 898.85 1883.541655 890.8H1881.791655C1879.45831 893.6 1876.541655 894.65 1873.041655 894.65C1871.0 894.65 1869.25 894.3 1867.5 892.9C1867.791655 888.35 1868.95831 882.4 1871.291655 874.35C1876.83331 854.4 1886.166655 835.5 1889.95831 811.35C1893.75 788.25 1875.666655 768.65 1848.25 768.65C1838.916655 768.65 1824.625 770.05 1814.125 772.5ZM1821.574155 720.175C1821.574155 746.184165 1842.657455 767.2674999999999 1868.666655 767.2674999999999C1894.675855 767.2674999999999 1915.759155 746.184165 1915.759155 720.175C1915.759155 694.165835 1894.675855 673.0825 1868.666655 673.0825C1842.657455 673.0825 1821.574155 694.165835 1821.574155 720.175Z" fill="#1a1a1a"/>
</svg>