<?xml version="1.0" encoding="UTF-8"?>
<svg xmlns="http://www.w3.org/2000/svg" width="1890.0" height="725.0"
     viewBox="0 0 1890.0 725.0">
<rect width="100%" height="100%" fill="white"/>
<text x="945.0" y="30" text-anchor="middle" font-size="14" font-family="sans-serif" font-weight="bold" fill="#333">Mono B Slanted — Key glyphs + features</text><text x="187.5" y="48" text-anchor="middle" font-size="10" font-family="sans-serif" fill="#999">J</text><text x="362.5" y="48" text-anchor="middle" font-size="10" font-family="sans-serif" fill="#999">S</text><text x="537.5" y="48" text-anchor="middle" font-size="10" font-family="sans-serif" fill="#999">L</text><text x="712.5" y="48" text-anchor="middle" font-size="10" font-family="sans-serif" fill="#999">Z</text><text x="887.5" y="48" text-anchor="middle" font-size="10" font-family="sans-serif" fill="#999">f</text><text x="1062.5" y="48" text-anchor="middle" font-size="10" font-family="sans-serif" fill="#999">i</text><text x="1237.5" y="48" text-anchor="middle" font-size="10" font-family="sans-serif" fill="#999">l</text><text x="1412.5" y="48" text-anchor="middle" font-size="10" font-family="sans-serif" fill="#999">r</text><text x="1587.5" y="48" text-anchor="middle" font-size="10" font-family="sans-serif" fill="#999">@</text><text x="1762.5" y="48" text-anchor="middle" font-size="10" font-family="sans-serif" fill="#999">fi</text><text x="20" y="221.25" font-size="11" font-family="sans-serif" font-weight="bold" fill="#555">Linear</text><path d="M164.75 258.0C146.083345 258.0 133.833345 254.5 121.0 245.4H115.16665499999999C111.958345 259.75 109.333345 272.7 106.416655 287.05C106.416655 288.1 106.416655 289.15 106.708345 289.85C111.375 297.2 130.333345 307.0 160.666655 307.0C205.291655 307.0 232.416655 282.85 243.791655 228.60000000000002C255.166655 174.0 268.0 113.45000000000002 279.375 58.85000000000002C279.958345 56.75000000000003 278.791655 55.00000000000003 277.041655 55.00000000000003C240.291655 55.00000000000003 203.541655 55.00000000000003 166.791655 55.00000000000003C163.291655 70.4 160.666655 83.70000000000002 157.458345 99.10000000000002C156.875 101.55000000000001 158.333345 102.95000000000002 159.791655 102.95000000000002C180.791655 102.95000000000002 201.791655 102.95000000000002 231.541655 102.95000000000002L217.833345 94.20000000000002L229.791655 110.65L225.416655 93.85000000000002C215.208345 142.5 207.333345 180.65 199.166655 219.15C196.25 232.8 192.75 241.9 187.5 248.2C181.375 255.55 174.083345 258.0 164.75 258.0Z" fill="#1a1a1a"/><path d="M394.583345 48.00000000000003C354.625 48.00000000000003 323.97697 67.27551337610501 314.958345 108.9L311.166655 126.4C306.791655 148.8 310.583345 179.95 345.291655 193.60000000000002L370.083345 203.75C386.125 210.05 389.333345 215.65 387.0 226.85000000000002L384.375 239.1C382.333345 248.9 371.541655 258.0 348.5 258.0C322.25 258.0 306.791655 248.9 292.208345 235.25H286.375C284.333345 245.05 280.833345 260.1 277.041655 278.65C276.75 280.05 276.458345 281.1 277.333345 282.5C284.625 294.05 311.166655 307.0 344.708345 307.0C388.166655 307.0 416.166655 289.5 425.208345 246.45L428.708345 229.65C434.833345 200.60000000000002 426.083345 175.75 393.708345 162.8L369.208345 153.0C351.708345 146.35000000000002 351.125 139.35000000000002 354.041655 125.70000000000002L355.791655 117.65C359.411425 100.9990628909 370.666655 94.55000000000001 392.25 94.55000000000001C404.5 94.55000000000001 408.583345 96.30000000000001 417.916655 101.20000000000002L409.75 92.10000000000002C406.833345 106.10000000000002 405.083345 114.15 403.625 121.85000000000002C403.041655 124.30000000000001 403.916655 125.70000000000002 405.958345 125.70000000000002C418.5 125.70000000000002 431.625 125.70000000000002 444.166655 125.70000000000002C447.375 109.95000000000002 451.458345 90.35000000000002 454.375 76.70000000000002C454.958345 73.9 454.666655 72.15 453.208345 70.4C445.333345 60.95000000000002 427.833345 48.00000000000003 394.583345 48.00000000000003Z" fill="#1a1a1a"/><path d="M453.791655 300.0H587.666655C590.875 285.65 593.5 273.05 596.708345 256.95C597.291655 254.15 596.416655 252.75 594.083345 252.75H507.166655C520.583345 189.05 534.291655 122.55000000000001 547.708345 58.85000000000002C548.291655 56.400000000000006 547.416655 55.00000000000003 545.375 55.00000000000003C530.791655 55.00000000000003 516.5 55.00000000000003 501.916655 55.00000000000003C499.875 64.45000000000002 497.833345 73.55000000000001 496.083345 83.0C481.208345 154.05 466.333345 225.10000000000002 451.458345 296.15C450.875 298.6 451.75 300.0 453.791655 300.0Z" fill="#1a1a1a"/><path d="M767.041655 300.0C770.25 284.6 773.458345 269.55 776.666655 254.15C777.25 251.7 776.375 250.3 774.333345 250.3H723.0C700.541655 250.3 688.875 250.3 674.291655 250.3L675.75 243.3C689.458345 235.95 697.625 230.0 713.375 212.85000000000002C743.708345 178.9 774.333345 145.3 804.958345 111.35000000000002L816.041655 58.85000000000002C816.625 56.400000000000006 815.75 55.00000000000003 813.708345 55.00000000000003H671.083345C668.75 65.15 664.666655 85.45000000000002 661.75 99.80000000000001C660.875 103.30000000000001 661.75 104.70000000000002 664.666655 104.70000000000002H709.291655C723.0 104.70000000000002 731.458345 104.70000000000002 762.375 104.70000000000002L760.916655 111.70000000000002C743.416655 120.80000000000001 738.458345 125.35000000000002 723.291655 142.15C692.666655 176.10000000000002 662.333345 210.05 631.708345 243.65L620.625 296.15C620.041655 298.6 620.916655 300.0 622.958345 300.0Z" fill="#1a1a1a"/><path d="M949.041655 30.5C896.541655 30.5 880.5 64.45000000000002 872.916655 101.20000000000002C860.375 161.4 847.541655 221.95 834.708345 282.5H881.083345V272.7C883.708345 259.75 885.166655 252.4 887.791655 239.45C897.125 194.65 906.166655 150.20000000000002 915.5 105.4C917.541655 95.25 920.458345 88.25 924.25 84.05000000000001C929.208345 77.75 936.5 76.0 946.416655 76.0C959.833345 76.0 969.166655 78.10000000000002 979.666655 83.35000000000002H985.5C988.125 70.05000000000001 990.458345 60.25000000000003 993.375 45.900000000000006C993.666655 44.50000000000003 993.666655 43.80000000000001 993.083345 43.10000000000002C990.166655 39.60000000000002 974.416655 30.5 949.041655 30.5ZM835.0 121.5C832.11215 135.99170338679002 829.38355 147.77696917401502 826.541655 162.10000000000002C825.958345 163.85000000000002 826.833345 165.95000000000002 828.875 165.95000000000002H959.833345C962.959195 151.286891441125 965.40384 139.84170338679002 968.291655 125.35000000000002C968.875 123.25 967.708345 121.5 965.958345 121.5ZM807.0 255.55C804.083345 269.9 801.458345 281.8 798.541655 296.15C797.958345 297.9 798.833345 300.0 800.875 300.0H931.833345C935.041655 285.65 937.375 273.75 940.291655 259.4C940.875 257.3 939.708345 255.55 937.958345 255.55Z" fill="#1a1a1a"/><path d="M1009.125 111.0C1006.208345 124.65 1003.291655 139.0 1000.375 152.65C999.791655 155.45000000000002 1000.958345 156.5 1003.0 156.5C1017.0 156.5 1028.375 156.5 1042.375 156.5H1049.375C1043.541655 184.85000000000002 1037.416655 213.2 1031.583345 241.55C1024.875 274.1 1033.625 300.0 1074.166655 300.0C1091.666655 300.0 1113.541655 300.0 1115.291655 300.0C1117.625 300.0 1118.791655 298.6 1119.375 296.15C1122.291655 282.5 1125.208345 268.15 1128.125 254.5H1122.291655C1110.625 254.5 1093.125 254.5 1081.458345 254.5C1078.25 254.5 1076.208345 253.8 1075.041655 252.4C1073.583345 250.65 1073.875 248.2 1074.75 244.0C1083.791655 200.95 1092.541655 157.9 1101.583345 114.85000000000002C1102.166655 112.05000000000001 1101.0 111.0 1099.25 111.0C1068.333345 111.0 1040.041655 111.0 1009.125 111.0ZM1055.0975 46.25000000000003C1055.0975 67.73583500000001 1072.514165 85.1525 1094.0 85.1525C1115.485835 85.1525 1132.9025 67.73583500000001 1132.9025 46.25000000000003C1132.9025 24.76416499999999 1115.485835 7.347500000000025 1094.0 7.347500000000025C1072.514165 7.347500000000025 1055.0975 24.76416499999999 1055.0975 46.25000000000003Z" fill="#1a1a1a"/><path d="M1193.75 37.5C1190.833345 51.150000000000006 1187.916655 65.50000000000003 1185.0 79.15C1184.416655 81.95000000000002 1185.583345 83.0 1187.625 83.0C1201.916655 83.0 1219.125 83.0 1233.416655 83.0H1239.833345C1229.041655 135.5 1218.25 187.65 1207.166655 240.5C1200.166655 273.75 1209.208345 300.0 1249.166655 300.0C1266.666655 300.0 1291.458345 300.0 1293.208345 300.0C1295.541655 300.0 1296.708345 298.6 1297.291655 296.15C1300.208345 282.5 1303.125 268.15 1306.041655 254.5H1300.208345C1288.541655 254.5 1268.416655 254.5 1256.75 254.5C1253.541655 254.5 1251.5 253.8 1250.333345 252.4C1248.875 250.65 1249.166655 248.2 1250.041655 244.0C1264.041655 176.45 1278.041655 109.25 1292.333345 41.35000000000002C1292.916655 38.55000000000001 1291.75 37.5 1290.0 37.5C1259.083345 37.5 1224.666655 37.5 1193.75 37.5Z" fill="#1a1a1a"/><path d="M1360.291655 111.0C1357.375 125.0 1354.75 138.65 1351.833345 152.65C1351.25 154.75 1352.416655 156.5 1354.166655 156.5C1360.875 156.5 1367.291655 156.5 1374.0 156.5H1380.125C1371.958345 194.65 1358.833345 258.0 1350.958345 296.15C1350.375 298.6 1351.25 300.0 1353.291655 300.0C1366.708345 300.0 1380.416655 300.0 1393.833345 300.0C1395.875 289.85 1398.5 278.3 1401.125 265.7C1408.416655 229.65 1417.458345 187.3 1423.291655 158.60000000000002C1423.583345 158.25 1414.25 111.0 1413.958345 111.0C1413.958345 111.0 1360.291655 111.0 1360.291655 111.0ZM1485.125 107.5C1459.458345 107.5 1439.916655 120.45000000000002 1427.375 148.10000000000002H1411.625L1412.5 185.2C1425.625 169.1 1444.0 159.3 1454.791655 159.3C1455.375 159.3 1455.666655 159.3 1455.958345 159.3C1454.5 166.65 1452.75 174.0 1451.291655 181.35000000000002L1449.833345 188.35000000000002C1461.791655 188.35000000000002 1474.041655 188.35000000000002 1486.0 188.35000000000002C1488.041655 188.35000000000002 1489.5 186.95 1490.083345 184.5L1503.791655 118.0C1504.083345 116.60000000000002 1504.375 114.85000000000002 1502.916655 113.10000000000002C1500.0 109.60000000000002 1493.583345 107.5 1485.125 107.5Z" fill="#1a1a1a"/><path d="M1535.0 114.5 1502.625 269.2C1488.041655 339.9 1513.416655 373.85 1560.375 373.85C1579.333345 373.85 1600.333345 368.25 1605.291655 363.7C1605.875 363.0 1606.458345 361.95 1606.75 360.9C1608.5 351.8 1612.291655 335.35 1614.041655 326.25H1608.208345C1596.833345 332.2 1582.541655 335.35 1569.125 335.35C1551.625 335.35 1540.541655 331.5 1534.125 323.1C1526.541655 312.95 1526.25 296.15 1531.5 270.95L1561.25 128.15C1568.541655 93.5 1581.958345 72.85000000000002 1611.416655 72.85000000000002C1627.166655 72.85000000000002 1635.333345 77.4 1640.0 84.05000000000001C1643.791655 90.70000000000002 1644.666655 98.75 1641.75 112.4C1630.958345 164.20000000000002 1621.625 209.35000000000002 1610.833345 261.15C1610.541655 262.55 1624.541655 293.0 1627.458345 293.0H1640.583345C1644.083345 275.85 1647.875 258.7 1651.375 241.55C1660.416655 198.15 1668.875 154.4 1678.5 111.0C1687.541655 70.05000000000001 1668.583345 34.0 1618.416655 34.0C1573.791655 34.0 1546.083345 62.00000000000003 1535.0 114.5ZM1629.208345 238.4C1620.166655 249.6 1605.583345 254.5 1596.833345 254.5C1593.916655 254.5 1593.041655 252.4 1594.208345 247.5L1612.291655 160.35000000000002C1613.458345 154.75 1615.208345 150.9 1617.541655 148.45000000000002C1619.583345 146.35000000000002 1622.5 145.3 1625.708345 145.3C1635.333345 145.3 1640.0 147.05 1644.666655 152.65L1652.25 116.60000000000002H1637.375C1630.666655 110.30000000000001 1626.0 107.5 1615.791655 107.5C1594.208345 107.5 1583.125 125.0 1577.291655 153.35000000000002L1555.416655 258.35C1550.458345 282.15 1560.083345 296.5 1578.166655 296.5C1591.0 296.5 1603.25 291.25 1613.75 275.5H1621.625Z" fill="#1a1a1a"/><path d="M1672.666655 323.45C1669.458345 337.8 1666.541655 351.45 1663.625 365.8C1663.333345 367.9 1664.208345 369.65 1665.958345 369.65C1668.0 369.65 1677.916655 369.65 1698.041655 369.65C1728.083345 369.65 1747.041655 353.9 1753.75 321.35C1772.125 232.10000000000002 1781.166655 189.75 1799.833345 102.25C1802.166655 91.4 1804.5 84.4 1808.583345 79.5C1812.666655 74.60000000000002 1817.041655 72.50000000000003 1825.791655 72.50000000000003C1828.708345 72.50000000000003 1831.625 72.85000000000002 1833.666655 73.9C1831.625 83.0 1829.875 91.4 1827.833345 100.85000000000002L1827.25 104.0C1839.5 104.0 1848.541655 104.0 1860.791655 104.0C1863.125 104.0 1864.0 102.60000000000002 1864.583345 100.15L1875.666655 47.30000000000001C1875.958345 45.900000000000006 1875.958345 44.150000000000006 1875.083345 43.10000000000002C1872.458345 39.94999999999999 1853.791655 30.5 1828.416655 30.5C1781.458345 30.5 1763.666655 59.900000000000006 1756.375 94.9C1739.458345 174.35000000000002 1726.625 236.65 1709.708345 317.15C1709.125 319.25 1708.541655 320.65 1707.958345 321.35C1706.5 323.1 1704.458345 323.45 1701.541655 323.45C1691.625 323.45 1685.5 323.45 1678.5 323.45ZM1704.75 160.0C1701.833345 174.35000000000002 1699.5 186.25 1696.291655 200.60000000000002C1696.0 202.35000000000002 1696.583345 204.45 1698.625 204.45H1829.583345C1832.791655 190.10000000000002 1835.125 178.2 1838.041655 163.85000000000002C1838.625 161.75 1837.458345 160.0 1835.708345 160.0ZM1884.125 111.0C1881.208345 124.65 1878.291655 139.0 1875.375 152.65C1874.791655 155.45000000000002 1875.958345 156.5 1878.0 156.5C1892.0 156.5 1903.375 156.5 1917.375 156.5H1924.375C1918.541655 184.85000000000002 1912.416655 213.2 1906.583345 241.55C1899.875 274.1 1908.625 300.0 1949.166655 300.0C1966.666655 300.0 1988.541655 300.0 1990.291655 300.0C1992.625 300.0 1993.791655 298.6 1994.375 296.15C1997.291655 282.5 2000.208345 268.15 2003.125 254.5H1997.291655C1985.625 254.5 1968.125 254.5 1956.458345 254.5C1953.25 254.5 1951.208345 253.8 1950.041655 252.4C1948.583345 250.65 1948.875 248.2 1949.75 244.0C1958.791655 200.95 1967.541655 157.9 1976.583345 114.85000000000002C1977.166655 112.05000000000001 1976.0 111.0 1974.25 111.0C1943.333345 111.0 1915.041655 111.0 1884.125 111.0ZM1930.0975 46.25000000000003C1930.0975 67.73583500000001 1947.514165 85.1525 1969.0 85.1525C1990.485835 85.1525 2007.9025 67.73583500000001 2007.9025 46.25000000000003C2007.9025 24.76416499999999 1990.485835 7.347500000000025 1969.0 7.347500000000025C1947.514165 7.347500000000025 1930.0975 24.76416499999999 1930.0975 46.25000000000003Z" fill="#1a1a1a"/><line x1="20" y1="382.5" x2="1870.0" y2="382.5" stroke="#eee" stroke-width="0.5"/><text x="20" y="553.75" font-size="11" font-family="sans-serif" font-weight="bold" fill="#555">Casual</text><path d="M170.291655 589.1C151.625 589.1 137.916655 583.15 124.79165499999999 569.85H123.04165499999999C120.125 575.45 117.5 580.7 115.16665499999999 591.9C111.666655 608.0 114.29165499999999 618.5 120.125 625.5C128.0 634.95 137.916655 639.5 162.708345 639.5C204.416655 639.5 232.70834499999998 601.7 243.5 567.75C258.958345 518.4 256.041655 473.95000000000005 275.291655 417.6C282.875 395.20000000000005 270.041655 384.0 240.0 384.0C216.375 384.0 192.166655 385.4 168.25 387.5C165.902375 392.664799764705 163.291655 401.15 161.833345 410.6C158.625 431.95000000000005 163.583345 443.5 179.333345 443.5C195.083345 443.5 214.333345 438.6 233.875 426.70000000000005L218.125 427.05L233.0 436.85L230.375 421.8C212.875 477.1 212.291655 518.05 202.375 555.5C199.458345 567.4 196.25 576.15 191.583345 583.85C185.458345 587.35 178.75 589.1 170.291655 589.1Z" fill="#1a1a1a"/><path d="M404.5 380.5C366.291655 380.5 321.083345 418.3 311.458345 464.85L310.291655 470.45000000000005C305.916655 491.1 307.083345 519.1 347.916655 539.05L372.125 550.95C383.791655 556.9 389.916655 564.95 387.875 577.2L387.291655 580.7C378.25 585.95 366.583345 588.75 355.208345 588.75C321.375 588.75 302.416655 577.9 290.166655 557.95H288.416655C285.5 563.2 282.583345 570.55 281.125 579.3C277.625 597.15 280.25 610.8 286.666655 618.5C295.416655 629.0 313.5 639.5 348.5 639.5C391.666655 639.5 416.75 626.55 424.916655 587.7L426.083345 582.1C429.583345 564.95 429.583345 534.15 394.291655 517.35L369.208345 505.45C353.75 497.75 349.375 488.3 351.708345 476.75L352.291655 473.95000000000005C356.958345 451.55 382.333345 429.85 401.0 429.85C409.458345 429.85 413.25 431.6 417.625 437.20000000000005L426.083345 417.25C412.666655 428.8 402.458345 444.55 399.25 458.55C395.458345 474.65 402.458345 485.5 423.166655 485.5C429.0 485.5 435.125 484.1 440.083345 481.65C440.666655 467.65 443.38563 458.33037633728 448.25 437.9C451.547 423.513057620575 449.998775 410.24854662433506 438.916655 396.95000000000005C430.458345 386.8 421.416655 380.5 404.5 380.5Z" fill="#1a1a1a"/><path d="M509.208345 632.5H587.666655C590.0 626.9 592.041655 620.95 593.791655 613.6C598.166655 591.55 591.458345 581.75 577.75 581.75H506.291655C511.25 535.55 536.041655 487.6 543.041655 434.05C546.541655 406.4 541.583345 384.0 522.625 384.0C513.875 384.0 506.291655 385.4 499.0 387.5C501.041655 399.05 501.916655 413.05 499.583345 427.05C491.125 478.15 474.208345 517.7 464.583345 567.4C458.458345 599.25 479.75 632.5 509.208345 632.5Z" fill="#1a1a1a"/><path d="M764.708345 632.5C765.875 629.7 767.041655 626.2 767.916655 621.65C772.875 597.5 763.833345 580.0 743.416655 580.0H732.916655C718.916655 580.0 699.958345 581.05 684.5 582.8L684.791655 580.7C699.958345 568.45 708.125 561.45 723.583345 546.4C764.125 507.9 800.291655 465.20000000000005 804.666655 445.25L805.541655 442.1C813.708345 413.05 801.458345 387.5 786.583345 387.5H679.833345C678.083345 392.4 675.75 399.75 674.291655 406.75C669.916655 427.75 675.75 438.25 695.875 438.25H704.333345C723.291655 438.25 743.125 436.85 760.333345 434.05L760.041655 436.15C750.416655 451.55 742.541655 462.75 730.0 479.20000000000005C700.833345 518.05 670.5 549.2 629.958345 583.5L629.083345 588.75C623.25 616.05 631.125 632.5 657.083345 632.5Z" fill="#1a1a1a"/><path d="M954.291655 363.0C919.0 363.0 886.625 387.85 873.5 443.85C860.083345 501.6 863.0 528.9 842.291655 590.5H883.125L880.791655 580.35C888.083345 574.75 893.333345 566.35 896.25 554.45C902.375 529.25 903.541655 504.4 913.75 454.0C917.541655 434.75 920.458345 424.95000000000005 925.125 415.15C931.541655 413.05 938.25 412.35 947.0 412.35C963.625 412.35 979.666655 416.55 987.541655 422.5H989.291655C992.791655 416.55 995.416655 407.8 997.166655 400.1C999.5 387.15 999.208345 379.8 994.833345 374.55C989.875 368.6 978.208345 363.0 954.291655 363.0ZM829.458345 454.0C828.875 456.1 828.583345 458.20000000000005 828.0 460.65C821.534625 488.9852123397 828.88403 503.0 885.166655 503.0H966.25C968.667065 497.52130359829005 971.03226 490.11200215357 972.375 482.70000000000005C975.875 464.5 969.75 454.0 951.666655 454.0ZM805.25 581.75C804.958345 583.85 804.666655 585.95 804.083345 588.4C797.666655 617.1 806.416655 632.5 825.958345 632.5H936.208345C938.833345 627.6 940.291655 623.05 941.458345 617.45C945.833345 596.45 932.416655 581.75 888.375 581.75Z" fill="#1a1a1a"/><path d="M1000.958345 456.45000000000005C997.458345 464.15 995.708345 470.1 994.25 476.75C989.0 502.65 993.375 515.6 1003.583345 515.6C1018.166655 515.6 1041.5 501.95000000000005 1060.458345 480.95000000000005L1062.208345 482.0C1054.041655 513.5 1035.958345 537.65 1031.875 570.55C1027.791655 599.95 1051.125 636.0 1081.75 636.0C1097.208345 636.0 1110.041655 630.4 1116.75 623.05C1124.916655 614.3 1129.875 602.75 1133.666655 584.55C1136.291655 571.25 1136.291655 561.8 1135.708345 554.45H1133.958345C1113.25 580.7 1097.208345 588.75 1078.25 588.75C1076.5 588.75 1074.75 588.4 1073.0 588.05C1073.291655 582.8 1074.166655 576.85 1075.333345 570.55C1081.75 536.95 1102.166655 514.9 1107.416655 480.25C1110.625 459.25 1091.958345 440.0 1070.375 440.0C1048.791655 440.0 1018.166655 448.05 1000.958345 456.45000000000005ZM1059.4725 390.82500000000005C1059.4725 412.310835 1076.88913 429.72749999999996 1098.375 429.72749999999996C1119.860835 429.72749999999996 1137.2775 412.310835 1137.2775 390.82500000000005C1137.2775 369.33916500000004 1119.860835 351.9225 1098.375 351.9225C1076.88913 351.9225 1059.4725 369.33916500000004 1059.4725 390.82500000000005Z" fill="#1a1a1a"/><path d="M1184.416655 382.6C1180.916655 390.3 1179.166655 396.25 1177.708345 402.9C1172.458345 428.8 1176.833345 438.25 1188.5 438.25C1201.625 438.25 1229.625 429.5 1249.166655 406.4L1251.208345 408.15C1238.958345 462.75 1198.708345 501.6 1191.708345 563.55C1187.041655 598.9 1212.416655 636.0 1246.541655 636.0C1264.625 636.0 1278.916655 630.75 1288.541655 620.95C1298.166655 611.5 1303.416655 600.65 1307.5 580.0C1310.416655 565.3 1309.833345 551.65 1308.375 540.45H1306.625C1283.583345 574.05 1268.125 585.25 1245.666655 585.25C1241.583345 585.25 1237.208345 585.25 1233.416655 583.85C1233.708345 578.6 1234.583345 573.0 1235.75 567.4C1245.666655 512.8 1287.666655 470.45000000000005 1296.125 413.05C1299.625 388.9 1280.958345 366.15000000000003 1258.791655 366.15000000000003C1236.333345 366.15000000000003 1201.041655 374.55 1184.416655 382.6Z" fill="#1a1a1a"/><path d="M1353.291655 449.45000000000005C1349.5 458.55 1347.75 464.5 1346.291655 471.15C1341.041655 497.05 1344.833345 507.2 1355.041655 507.2C1362.625 507.2 1369.333345 500.9 1380.708345 480.95000000000005L1382.458345 482.0C1376.625 519.45 1363.208345 550.25 1356.208345 582.45C1349.208345 614.65 1362.625 635.3 1385.958345 635.3C1392.083345 635.3 1397.916655 634.25 1402.583345 632.5C1399.958345 623.4 1399.666655 612.55 1401.416655 598.2C1406.375 556.55 1414.833345 540.45 1425.041655 497.75C1430.875 473.6 1421.833345 440.0 1393.25 440.0C1379.833345 440.0 1362.333345 445.25 1353.291655 449.45000000000005ZM1478.125 436.5C1462.958345 436.5 1445.166655 457.15 1427.666655 495.3L1419.5 491.45000000000005L1402.0 567.75C1425.041655 512.45 1449.833345 503.35 1459.75 503.35C1460.333345 503.35 1461.208345 503.35 1461.791655 503.35C1461.791655 514.2 1460.625 524.0 1457.708345 534.5V536.6C1460.041655 537.3 1461.5 537.3 1463.541655 537.3C1494.166655 537.3 1500.583345 503.70000000000005 1501.166655 500.9L1502.625 493.9C1503.208345 491.1 1507.583345 461.35 1492.416655 443.5C1488.625 438.95000000000005 1484.25 436.5 1478.125 436.5Z" fill="#1a1a1a"/><path d="M1514.583345 532.4 1512.25 543.95C1495.916655 624.8 1513.708345 678.0 1566.791655 678.0C1582.541655 678.0 1596.25 676.6 1605.291655 668.55C1612.583345 661.9 1615.5 654.55 1616.958345 644.75C1617.833345 638.8 1617.541655 636.35 1616.958345 633.2H1615.208345C1601.5 640.2 1588.083345 643.0 1572.916655 643.0C1560.083345 643.0 1547.25 641.25 1537.916655 636.7C1531.791655 617.45 1530.916655 586.65 1540.833345 542.2L1542.0 536.95C1559.791655 456.45000000000005 1596.25 398.0 1635.041655 398.0C1638.541655 398.0 1641.458345 398.35 1645.25 399.05C1645.541655 409.55 1644.958345 419.35 1643.5 429.15C1636.5 477.8 1618.708345 526.1 1613.166655 574.75C1610.25 600.65 1626.291655 613.6 1643.791655 613.6H1648.166655C1647.583345 602.05 1649.041655 589.1 1650.5 577.9C1656.041655 534.85 1671.791655 491.45000000000005 1677.625 448.4C1684.916655 394.15 1670.041655 363.0 1635.625 363.0C1585.75 363.0 1535.0 431.25 1514.583345 532.4ZM1642.625 543.25C1628.625 560.75 1615.5 573.0 1604.416655 573.0C1598.291655 573.0 1596.25 564.25 1600.041655 542.2L1600.625 538.7C1604.125 517.35 1611.125 496.0 1620.166655 474.3C1622.5 473.95000000000005 1626.0 473.6 1628.333345 473.6C1633.583345 473.6 1641.166655 476.4 1646.125 480.95000000000005L1654.583345 443.15H1639.416655C1636.5 437.9 1633.291655 433.70000000000005 1626.291655 433.70000000000005C1603.833345 433.70000000000005 1577.875 470.8 1564.166655 545.0L1563.583345 548.15C1555.416655 592.95 1566.5 615.0 1585.75 615.0C1596.541655 615.0 1604.416655 609.4 1613.75 596.45H1630.666655Z" fill="#1a1a1a"/><path d="M1667.125 640.55C1664.5 644.75 1662.458345 649.3 1661.0 656.65C1657.5 674.85 1661.583345 686.05 1669.166655 695.15C1673.833345 700.75 1682.291655 705.65 1696.583345 705.65C1722.25 705.65 1748.208345 687.1 1761.625 645.45C1781.458345 584.2 1771.36158 526.90202349122 1788.75 450.5C1792.65061 434.50747423921496 1796.625 423.9 1802.458345 416.9C1808.583345 409.55 1815.49798 406.75 1825.208345 406.75C1826.375 406.75 1827.25 406.75 1828.125 407.1C1825.625405 426.221908812195 1821.565265 439.548355400825 1811.791655 459.6V461.70000000000005C1814.416655 462.75 1817.625 463.45000000000005 1820.541655 463.45000000000005C1841.355875 463.45000000000005 1859.5481399999999 447.36895522923 1864.583345 423.20000000000005L1865.166655 420.4C1868.083345 406.05 1866.625 389.25 1857.875 378.75C1848.541655 367.55 1839.208345 363.0 1822.583345 363.0C1789.79293 363.0 1759.41797 386.75610685255504 1745.291655 442.8C1726.543135 516.9738633719301 1741.208345 566.7 1720.5 630.75C1717.875 639.15 1714.958345 647.55 1712.041655 654.9C1710.291655 655.25 1707.958345 655.6 1704.75 655.6C1689.875 655.6 1678.5 652.1 1668.875 640.55ZM1691.625 498.8C1690.75 500.9 1690.166655 503.0 1689.583345 505.45C1684.041655 529.6 1698.041655 549.55 1746.166655 549.55H1831.916655C1833.958345 545.0 1835.416655 540.45 1836.291655 534.85C1839.791655 512.1 1833.958345 498.8 1801.0 498.8ZM1875.958345 456.45000000000005C1872.458345 464.15 1870.708345 470.1 1869.25 476.75C1864.0 502.65 1868.375 515.6 1878.583345 515.6C1893.166655 515.6 1916.5 501.95000000000005 1935.458345 480.95000000000005L1937.208345 482.0C1929.041655 513.5 1910.958345 537.65 1906.875 570.55C1902.791655 599.95 1926.125 636.0 1956.75 636.0C1972.208345 636.0 1985.041655 630.4 1991.75 623.05C1999.916655 614.3 2004.875 602.75 2008.666655 584.55C2011.291655 571.25 2011.291655 561.8 2010.708345 554.45H2008.958345C1988.25 580.7 1972.208345 588.75 1953.25 588.75C1951.5 588.75 1949.75 588.4 1948.0 588.05C1948.291655 582.8 1949.166655 576.85 1950.333345 570.55C1956.75 536.95 1977.166655 514.9 1982.416655 480.25C1985.625 459.25 1966.958345 440.0 1945.375 440.0C1923.791655 440.0 1893.166655 448.05 1875.958345 456.45000000000005ZM1934.4725 390.82500000000005C1934.4725 412.310835 1951.88913 429.72749999999996 1973.375 429.72749999999996C1994.860835 429.72749999999996 2012.2775 412.310835 2012.2775 390.82500000000005C2012.2775 369.33916500000004 1994.860835 351.9225 1973.375 351.9225C1951.88913 351.9225 1934.4725 369.33916500000004 1934.4725 390.82500000000005Z" fill="#1a1a1a"/>
</svg>