<?xml version="1.0" encoding="UTF-8"?>
<svg xmlns="http://www.w3.org/2000/svg" width="1890.0" height="725.0"
     viewBox="0 0 1890.0 725.0">
<rect width="100%" height="100%" fill="white"/>
<text x="945.0" y="30" text-anchor="middle" font-size="14" font-family="sans-serif" font-weight="bold" fill="#333">Sans B Upright — Key glyphs + features</text><text x="187.5" y="48" text-anchor="middle" font-size="10" font-family="sans-serif" fill="#999">J</text><text x="362.5" y="48" text-anchor="middle" font-size="10" font-family="sans-serif" fill="#999">S</text><text x="537.5" y="48" text-anchor="middle" font-size="10" font-family="sans-serif" fill="#999">L</text><text x="712.5" y="48" text-anchor="middle" font-size="10" font-family="sans-serif" fill="#999">Z</text><text x="887.5" y="48" text-anchor="middle" font-size="10" font-family="sans-serif" fill="#999">f</text><text x="1062.5" y="48" text-anchor="middle" font-size="10" font-family="sans-serif" fill="#999">i</text><text x="1237.5" y="48" text-anchor="middle" font-size="10" font-family="sans-serif" fill="#999">l</text><text x="1412.5" y="48" text-anchor="middle" font-size="10" font-family="sans-serif" fill="#999">r</text><text x="1587.5" y="48" text-anchor="middle" font-size="10" font-family="sans-serif" fill="#999">@</text><text x="1762.5" y="48" text-anchor="middle" font-size="10" font-family="sans-serif" fill="#999">fi</text><text x="20" y="221.25" font-size="11" font-family="sans-serif" font-weight="bold" fill="#555">Linear</text><path d="M157.166655 254.5C142.291655 254.5 131.791655 251.35 117.5 244.0H111.666655C111.666655 259.75 111.666655 276.2 111.666655 290.55C111.666655 293.0 111.958345 294.4 113.125 295.8C117.5 301.05 135.0 307.0 158.041655 307.0C204.416655 307.0 225.416655 276.55 225.416655 223.35000000000002C225.416655 162.45000000000002 225.416655 110.65 225.416655 58.85000000000002C225.416655 56.75000000000003 223.958345 55.00000000000003 222.208345 55.00000000000003C185.458345 55.00000000000003 163.291655 55.00000000000003 126.54165499999999 55.00000000000003C126.54165499999999 70.4 126.54165499999999 83.0 126.54165499999999 98.4C126.54165499999999 100.5 128.0 102.25 129.75 102.25C153.666655 102.25 165.916655 102.25 189.833345 102.25L176.125 93.5L188.083345 109.60000000000002L181.666655 92.80000000000001C181.666655 140.4 181.666655 178.55 181.666655 220.2C181.666655 234.9 180.208345 242.95 176.125 247.85C172.041655 252.75 166.791655 254.5 157.166655 254.5Z" fill="#1a1a1a"/><path d="M368.916655 48.00000000000003C323.125 48.00000000000003 294.541655 76.35000000000002 294.541655 114.5V132.35000000000002C294.541655 157.55 303.0 180.3 342.083345 194.65L369.5 204.8C389.625 212.15 391.375 217.4 391.375 226.85000000000002V239.8C391.375 249.6 382.625 259.4 359.583345 259.4C333.333345 259.4 315.833345 252.75 298.333345 239.1H292.5C292.5 255.55 292.5 268.85 292.5 281.8C292.5 286.35 293.083345 287.4 294.25 288.8C303.875 300.35 328.083345 307.0 356.375 307.0C405.375 307.0 434.25 282.15 434.25 240.5V223.7C434.25 191.15 424.041655 173.65 387.583345 160.35000000000002L359.875 150.20000000000002C340.625 143.20000000000002 337.416655 138.3 337.416655 125.70000000000002V118.35000000000002C337.416655 101.55000000000001 347.916655 95.25 368.916655 95.25C378.25 95.25 384.666655 96.65 393.708345 100.15L385.541655 88.60000000000002C385.541655 103.30000000000001 385.541655 111.70000000000002 385.541655 119.4C385.541655 121.85000000000002 386.708345 123.25 388.75 123.25C401.291655 123.25 414.416655 123.25 426.958345 123.25C426.958345 107.5 426.958345 87.9 426.958345 74.25000000000003C426.958345 71.45000000000002 426.666655 69.70000000000002 425.208345 67.95000000000002C416.166655 57.10000000000002 396.333345 48.00000000000003 368.916655 48.00000000000003Z" fill="#1a1a1a"/><path d="M467.791655 300.0H598.75C598.75 285.65 598.75 273.05 598.75 256.95C598.75 254.15 597.583345 252.75 595.25 252.75H511.25C511.25 189.05 511.25 122.55000000000001 511.25 58.85000000000002C511.25 56.400000000000006 510.083345 55.00000000000003 508.041655 55.00000000000003C493.458345 55.00000000000003 479.166655 55.00000000000003 464.583345 55.00000000000003C464.583345 64.45000000000002 464.583345 73.55000000000001 464.583345 83.0C464.583345 154.05 464.583345 225.10000000000002 464.583345 296.15C464.583345 298.6 465.75 300.0 467.791655 300.0Z" fill="#1a1a1a"/><path d="M786.875 300.0C786.875 284.6 786.875 269.55 786.875 254.15C786.875 251.7 785.708345 250.3 783.666655 250.3H732.333345C709.875 250.3 698.208345 250.3 683.625 250.3V243.3C695.875 235.95 702.875 230.0 714.833345 212.85000000000002C738.166655 178.9 761.791655 145.3 785.416655 111.35000000000002V58.85000000000002C785.416655 56.400000000000006 784.25 55.00000000000003 782.208345 55.00000000000003H639.583345C639.583345 65.15 639.583345 85.45000000000002 639.583345 99.80000000000001C639.583345 103.30000000000001 640.75 104.70000000000002 643.666655 104.70000000000002H688.291655C702.0 104.70000000000002 710.458345 104.70000000000002 741.375 104.70000000000002V111.70000000000002C725.625 120.80000000000001 721.833345 125.35000000000002 710.166655 142.15C686.541655 176.10000000000002 663.208345 210.05 639.583345 243.65V296.15C639.583345 298.6 640.75 300.0 642.791655 300.0Z" fill="#1a1a1a"/><path d="M883.416655 30.5C846.083345 30.5 824.791655 57.80000000000001 824.791655 104.70000000000002C824.791655 163.85000000000002 824.791655 223.35000000000002 824.791655 282.5H870.583345L868.541655 273.75C868.541655 262.9 868.541655 258.35 868.541655 248.2C868.541655 200.60000000000002 868.541655 153.0 868.541655 105.4C868.541655 93.5 870.0 85.80000000000001 873.5 81.25C876.416655 77.4 880.5 76.0 886.625 76.0C894.208345 76.0 901.208345 77.75 907.916655 81.25H913.75C913.75 67.60000000000002 913.75 54.30000000000001 913.75 41.35000000000002C913.75 40.30000000000001 913.458345 39.25 912.875 38.55000000000001C909.083345 34.0 896.541655 30.5 883.416655 30.5ZM808.75 121.5C808.75 136.20000000000002 808.75 148.45000000000002 808.75 163.15C808.75 165.60000000000002 809.916655 167.0 811.958345 167.0H905.0C905.0 152.3 905.0 140.05 905.0 125.35000000000002C905.0 122.9 903.833345 121.5 901.791655 121.5ZM808.75 254.5C808.75 269.2 808.75 281.45 808.75 296.15C808.75 298.6 809.916655 300.0 811.958345 300.0H905.0C905.0 285.3 905.0 273.05 905.0 258.35C905.0 255.9 903.833345 254.5 901.791655 254.5Z" fill="#1a1a1a"/><path d="M983.75 111.0C983.75 125.0 983.75 142.85000000000002 983.75 156.85000000000002C983.75 159.3 984.916655 160.70000000000002 986.958345 160.70000000000002C993.083345 160.70000000000002 1001.25 160.70000000000002 1002.708345 160.70000000000002H1004.75C1004.75 189.05 1004.75 213.55 1004.75 248.9C1004.75 281.1 1019.041655 300.0 1047.916655 300.0C1058.125 300.0 1059.0 300.0 1065.125 300.0C1067.166655 300.0 1068.333345 298.6 1068.333345 296.15C1068.333345 282.15 1068.333345 264.3 1068.333345 250.3H1062.5C1058.708345 250.3 1059.291655 250.3 1057.25 250.3C1053.75 250.3 1051.708345 249.6 1050.25 247.85C1048.791655 246.1 1048.5 244.0 1048.5 240.85C1048.5 197.45 1048.5 158.25 1048.5 114.85000000000002C1048.5 112.4 1047.333345 111.0 1045.291655 111.0C1014.375 111.0 997.458345 111.0 983.75 111.0ZM987.7225 46.25000000000003C987.7225 67.73583500000001 1005.13913 85.1525 1026.625 85.1525C1048.11087 85.1525 1065.5275 67.73583500000001 1065.5275 46.25000000000003C1065.5275 24.76416499999999 1048.11087 7.347500000000025 1026.625 7.347500000000025C1005.13913 7.347500000000025 987.7225 24.76416499999999 987.7225 46.25000000000003Z" fill="#1a1a1a"/><path d="M1151.458345 37.5C1151.458345 51.50000000000003 1151.458345 65.15 1151.458345 79.15C1151.458345 81.60000000000002 1152.625 83.0 1154.666655 83.0C1158.75 83.0 1171.0 83.0 1173.333345 83.0H1174.791655C1174.791655 137.25 1174.791655 191.85000000000002 1174.791655 246.1C1174.791655 282.5 1189.083345 300.0 1213.875 300.0C1219.416655 300.0 1233.416655 300.0 1237.208345 300.0C1239.25 300.0 1240.416655 298.6 1240.416655 296.15C1240.416655 282.15 1240.416655 264.3 1240.416655 250.3H1237.5C1235.166655 250.3 1230.208345 250.3 1227.291655 250.3C1223.791655 250.3 1221.75 249.6 1220.291655 247.85C1218.833345 246.1 1218.541655 244.0 1218.541655 240.85C1218.541655 172.95 1218.541655 109.25 1218.541655 41.35000000000002C1218.541655 38.900000000000034 1217.375 37.5 1215.333345 37.5C1206.0 37.5 1158.458345 37.5 1151.458345 37.5Z" fill="#1a1a1a"/><path d="M1333.75 111.0C1333.75 125.0 1333.75 138.65 1333.75 152.65C1333.75 155.10000000000002 1334.916655 156.5 1336.958345 156.5C1343.958345 156.5 1347.458345 156.5 1349.791655 156.5H1351.25C1351.25 194.65 1351.25 258.0 1351.25 296.15C1351.25 298.6 1352.416655 300.0 1354.458345 300.0C1367.875 300.0 1381.583345 300.0 1395.0 300.0C1395.0 289.85 1395.0 278.3 1395.0 265.7C1395.0 229.65 1395.0 187.3 1395.0 158.60000000000002C1395.0 158.25 1381.875 111.0 1381.583345 111.0C1359.416655 111.0 1344.833345 111.0 1333.75 111.0ZM1432.625 107.5C1413.666655 107.5 1402.0 119.75 1395.875 142.85000000000002H1386.541655V196.75C1395.875 168.75 1403.766415 161.75 1411.041655 161.75C1415.125 161.75 1417.166655 163.15 1418.625 165.25C1418.625 168.378125 1418.625 171.41451612903 1418.625 174.35000000000002V181.35000000000002C1428.541655 181.35000000000002 1439.041655 181.35000000000002 1448.958345 181.35000000000002C1451.0 181.35000000000002 1452.166655 179.95 1452.166655 177.5V117.30000000000001C1452.166655 116.25 1451.875 114.85000000000002 1451.291655 114.15C1448.375 110.65 1443.416655 107.5 1432.625 107.5Z" fill="#1a1a1a"/><path d="M1530.625 164.9V244.0C1530.625 336.75 1564.166655 377.35 1653.708345 377.35C1691.625 377.35 1723.125 372.45 1739.166655 367.2C1740.041655 366.85 1740.041655 365.45 1740.041655 364.4C1740.041655 355.3 1740.041655 329.05 1740.041655 319.95H1733.333345C1710.291655 325.9 1687.541655 329.05 1657.5 329.05C1624.541655 329.05 1605.583345 322.4 1593.625 311.55C1581.666655 300.7 1572.333345 280.4 1572.333345 235.95V171.9C1572.333345 115.20000000000002 1598.0 80.9 1661.583345 80.9C1693.083345 80.9 1706.5 86.15 1717.875 95.25C1729.541655 104.35000000000002 1732.75 119.05000000000001 1732.75 141.8C1732.75 172.25 1732.75 209.35000000000002 1732.75 261.15C1732.75 262.55 1756.083345 293.0 1759.291655 293.0H1774.166655C1774.166655 275.85 1774.166655 258.7 1774.166655 241.55C1774.166655 198.15 1774.166655 154.4 1774.166655 140.05C1774.166655 77.05000000000001 1749.666655 34.0 1661.291655 34.0C1567.083345 34.0 1530.625 88.95000000000002 1530.625 164.9ZM1748.5 233.15C1728.958345 245.4 1715.25 249.25 1704.75 249.25C1688.708345 249.25 1681.708345 241.9 1681.708345 220.55V200.60000000000002C1681.708345 186.25 1683.166655 179.25 1686.083345 175.05C1689.291655 170.5 1693.666655 167.70000000000002 1706.5 167.70000000000002C1719.041655 167.70000000000002 1731.0 170.5 1745.291655 175.05V134.10000000000002H1728.958345C1719.333345 127.80000000000001 1710.0 125.0 1694.541655 125.0C1659.25 125.0 1640.291655 148.10000000000002 1640.291655 193.25V228.25C1640.291655 275.5 1657.791655 296.5 1687.833345 296.5C1708.833345 296.5 1723.416655 290.2 1735.958345 271.3H1748.5Z" fill="#1a1a1a"/><path d="M1684.041655 323.45C1684.041655 337.8 1684.041655 351.45 1684.041655 365.8C1684.041655 367.9 1685.208345 369.65 1686.958345 369.65C1688.071975 369.65 1693.48105 369.65 1704.458345 369.65C1734.791655 369.65 1750.541655 350.4 1750.541655 315.05C1750.541655 244.7 1750.541655 147.4 1750.541655 98.05000000000001C1750.541655 88.60000000000002 1751.708345 82.65 1754.333345 78.80000000000001C1756.375 75.65 1759.291655 74.25000000000003 1763.083345 74.25000000000003C1764.541655 74.25000000000003 1766.291655 74.60000000000002 1768.041655 74.95000000000002C1768.041655 80.9 1768.041655 92.10000000000002 1768.041655 100.85000000000002V104.0C1778.07122 104.0 1788.38719 104.0 1798.375 104.0C1800.416655 104.0 1801.583345 102.60000000000002 1801.583345 100.15V44.50000000000003C1801.583345 43.44999999999999 1801.291655 42.400000000000034 1800.708345 41.69999999999999C1797.308935 37.62073717817003 1785.58334 30.5 1765.416655 30.5C1728.75566 30.5 1705.333345 55.70000000000002 1705.333345 104.70000000000002C1705.333345 175.4 1705.333345 244.7 1705.333345 315.4C1705.333345 318.2 1705.041655 319.95 1703.875 321.35C1702.708345 322.75 1700.958345 323.45 1698.333345 323.45C1694.69303 323.45 1692.44463 323.45 1689.875 323.45ZM1686.666655 160.0C1686.666655 174.0 1686.666655 187.65 1686.666655 201.65C1686.666655 204.10000000000002 1687.833345 205.5 1689.875 205.5H1782.916655C1782.916655 190.8 1782.916655 178.55 1782.916655 163.85000000000002C1782.916655 161.4 1781.75 160.0 1779.708345 160.0ZM1800.416655 111.0C1800.416655 125.0 1800.416655 142.85000000000002 1800.416655 156.85000000000002C1800.416655 159.3 1801.58331 160.70000000000002 1803.625 160.70000000000002C1809.75 160.70000000000002 1817.916655 160.70000000000002 1819.375 160.70000000000002H1821.416655C1821.416655 189.05 1821.416655 213.55 1821.416655 248.9C1821.416655 281.1 1835.70831 300.0 1864.58331 300.0C1874.791655 300.0 1875.666655 300.0 1881.791655 300.0C1883.83331 300.0 1885.0 298.6 1885.0 296.15C1885.0 282.15 1885.0 264.3 1885.0 250.3H1879.166655C1875.375 250.3 1875.95831 250.3 1873.916655 250.3C1870.416655 250.3 1868.375 249.6 1866.916655 247.85C1865.45831 246.1 1865.166655 244.0 1865.166655 240.85C1865.166655 197.45 1865.166655 158.25 1865.166655 114.85000000000002C1865.166655 112.4 1864.0 111.0 1861.95831 111.0C1831.041655 111.0 1814.125 111.0 1800.416655 111.0ZM1804.389155 46.25000000000003C1804.389155 67.73583500000001 1821.805785 85.1525 1843.291655 85.1525C1864.777525 85.1525 1882.194155 67.73583500000001 1882.194155 46.25000000000003C1882.194155 24.76416499999999 1864.777525 7.347500000000025 1843.291655 7.347500000000025C1821.805785 7.347500000000025 1804.389155 24.76416499999999 1804.389155 46.25000000000003Z" fill="#1a1a1a"/><line x1="20" y1="382.5" x2="1870.0" y2="382.5" stroke="#eee" stroke-width="0.5"/><text x="20" y="553.75" font-size="11" font-family="sans-serif" font-weight="bold" fill="#555">Casual</text><path d="M157.75 587.0C141.125 587.0 126.25 581.05 109.625 567.75H107.875C106.708345 573.35 105.833345 580.7 105.833345 591.9C105.833345 608.0 109.041655 617.45 115.458345 625.15C123.04165499999999 634.25 135.583345 639.5 153.958345 639.5C200.333345 639.5 226.875 594.0 226.875 553.75C226.875 507.55 226.875 456.45000000000005 226.875 417.6C226.875 394.85 214.625 384.0 184.583345 384.0C160.958345 384.0 139.958345 385.4 116.333345 387.5C115.16665499999999 392.4 114.583345 400.45000000000005 114.583345 409.55C114.583345 432.65 121.875 443.5 135.291655 443.5C150.458345 443.5 165.625 438.25 187.208345 426.70000000000005L171.458345 427.05L188.375 436.85L180.5 421.45000000000005C180.5 473.95000000000005 180.5 513.85 180.5 552.0C180.5 563.9 180.208345 573.35 178.75 582.1C172.625 585.25 166.208345 587.0 157.75 587.0Z" fill="#1a1a1a"/><path d="M382.333345 380.5C337.416655 380.5 296.875 429.15 296.875 476.05V480.6C296.875 500.9 305.041655 519.1 349.958345 539.05L376.791655 550.95C389.333345 556.55 397.5 565.65 397.5 577.2V578.95C389.041655 584.2 377.083345 587.0 363.958345 587.0C333.333345 587.0 311.458345 576.15 294.833345 556.2H293.083345C291.916655 561.45 291.041655 568.8 291.041655 577.9C291.041655 597.85 295.708345 612.55 301.833345 619.9C311.166655 631.1 336.25 639.5 363.958345 639.5C414.416655 639.5 436.875 614.65 436.875 575.8V570.2C436.875 553.05 429.291655 529.95 391.083345 513.5L363.666655 501.6C346.75 494.25 341.208345 489.0 340.625 478.15V476.75C340.625 455.4 366.0 433.0 384.375 433.0C389.916655 433.0 392.833345 434.05 397.791655 437.55L391.666655 419.35C388.458345 438.25 385.833345 448.75 385.833345 457.15C385.833345 476.05 396.041655 482.35 413.833345 482.35C420.25 482.35 425.791655 480.6 429.583345 478.85C429.583345 468.0 429.583345 455.4 429.583345 443.15C429.583345 426.0 427.541655 411.65 417.625 399.75C407.708345 387.85 397.208345 380.5 382.333345 380.5Z" fill="#1a1a1a"/><path d="M494.625 632.5H599.916655C600.5 626.55 601.083345 620.95 601.083345 613.6C601.083345 591.55 594.958345 580.0 581.25 580.0H512.708345C512.708345 524.0 512.708345 464.5 512.708345 415.5C512.708345 389.95000000000005 505.708345 384.0 485.0 384.0C476.25 384.0 468.958345 385.4 462.25 387.5C464.875 399.4 466.041655 412.0 466.041655 426.0C466.041655 476.4 466.041655 526.45 466.041655 576.85C466.041655 601.7 474.791655 632.5 494.625 632.5Z" fill="#1a1a1a"/><path d="M784.541655 632.5C785.125 629.7 785.416655 626.2 785.416655 621.65C785.416655 597.5 780.166655 580.0 760.625 580.0H741.666655C727.666655 580.0 707.833345 581.05 692.666655 582.8V580.7C705.208345 568.45 713.083345 561.45 725.333345 546.4C757.708345 507.9 785.125 465.20000000000005 785.416655 445.25V442.1C785.416655 402.20000000000005 779.875 387.5 764.416655 387.5H648.333345C647.75 392.4 646.875 399.75 646.875 406.75C646.875 427.75 655.041655 438.25 675.166655 438.25H691.5C718.625 438.25 729.708345 437.20000000000005 738.75 434.05V436.15C732.333345 451.55 726.791655 462.75 717.75 479.20000000000005C696.75 518.05 672.833345 549.2 639.583345 583.5V588.75C639.583345 616.05 645.708345 632.5 666.125 632.5Z" fill="#1a1a1a"/><path d="M887.208345 363.0C849.0 363.0 827.708345 397.65 827.708345 442.1C827.708345 491.8 827.708345 541.5 827.708345 591.2H869.416655L864.458345 578.6C869.125 570.55 871.458345 561.8 871.458345 541.15C871.458345 509.65 871.458345 482.35 871.458345 454.0C869.416655 444.55 866.5 423.9 866.5 414.8C871.75 413.75 877.0 412.70000000000005 881.666655 412.70000000000005C894.5 412.70000000000005 905.0 415.5 910.25 418.3H912.0C913.458345 412.35 914.041655 405.35 914.041655 399.05C914.041655 387.85 912.291655 377.70000000000005 907.041655 371.40000000000003C902.958345 366.5 898.291655 363.0 887.208345 363.0ZM804.375 454.0C804.375 456.1 804.375 458.20000000000005 804.375 460.65C804.375 495.65 812.541655 506.5 847.25 506.5H905.0C906.166655 500.55 907.041655 492.5 907.041655 484.45000000000005C907.041655 461.35 900.041655 454.0 877.0 454.0ZM805.833345 580.0C805.833345 582.1 805.833345 584.2 805.833345 586.65C805.833345 623.05 809.916655 632.5 828.291655 632.5H892.75C894.208345 627.6 894.791655 623.05 894.791655 617.45C894.791655 595.4 886.916655 580.0 865.625 580.0Z" fill="#1a1a1a"/><path d="M983.166655 443.5C981.708345 451.9 981.416655 456.45000000000005 981.416655 464.5C981.416655 483.75 984.916655 496.0 991.041655 496.0C996.0 496.0 1000.375 492.85 1003.0 489.70000000000005L1004.75 490.4C1004.75 520.85 1004.75 547.8 1004.75 588.75C1004.75 609.75 1021.958345 636.0 1049.666655 636.0C1057.25 636.0 1062.791655 633.9 1067.75 627.95C1072.416655 622.35 1075.625 609.75 1075.625 591.9C1075.625 587.7 1075.333345 583.15 1074.458345 578.6H1072.708345C1066.875 583.5 1062.208345 585.25 1056.083345 585.25C1052.875 585.25 1049.958345 584.55 1048.5 583.5C1048.5 576.85 1048.5 567.4 1048.5 557.25C1048.5 529.6 1048.5 502.3 1048.5 462.75C1048.5 451.20000000000005 1037.125 440.0 1006.791655 440.0C995.416655 440.0 989.583345 441.4 983.166655 443.5ZM987.139155 391.175C987.139155 412.660835 1004.555785 430.0775 1026.041655 430.0775C1047.527525 430.0775 1064.944155 412.660835 1064.944155 391.175C1064.944155 369.689165 1047.527525 352.27250000000004 1026.041655 352.27250000000004C1004.555785 352.27250000000004 987.139155 369.689165 987.139155 391.175Z" fill="#1a1a1a"/><path d="M1155.541655 370.0C1154.375 375.6 1153.208345 384.35 1153.208345 392.4C1153.208345 418.3 1157.583345 427.05 1164.0 427.05C1166.333345 427.05 1170.708345 426.0 1173.333345 422.85L1174.791655 423.55C1174.791655 474.3 1174.791655 527.85 1174.791655 578.25C1174.791655 604.15 1184.416655 636.0 1216.791655 636.0C1225.541655 636.0 1233.125 634.6 1238.083345 628.65C1242.458345 623.4 1245.958345 610.1 1245.958345 593.3C1245.958345 585.6 1245.666655 581.05 1244.791655 576.5H1243.041655C1239.541655 581.05 1234.291655 583.5 1229.041655 583.5C1224.666655 583.5 1222.333345 582.1 1220.291655 580.35C1218.833345 573.7 1218.541655 565.65 1218.541655 555.5C1218.541655 503.35 1218.541655 453.3 1218.541655 401.15C1218.541655 379.1 1208.333345 366.5 1188.208345 366.5C1179.75 366.5 1167.5 367.2 1155.541655 370.0Z" fill="#1a1a1a"/><path d="M1328.5 443.5C1327.041655 453.65 1326.458345 460.3 1326.458345 469.05C1326.458345 486.20000000000005 1330.833345 497.75 1338.708345 497.75C1341.333345 497.75 1344.25 495.65 1347.166655 492.5L1348.916655 493.20000000000005C1348.916655 529.95 1348.916655 565.3 1348.916655 602.4C1348.916655 624.1 1360.291655 634.6 1379.541655 634.6C1385.375 634.6 1391.208345 633.9 1397.041655 632.5C1393.541655 618.15 1392.666655 606.25 1392.666655 590.15C1392.666655 554.8 1392.666655 519.8 1392.666655 497.4C1392.666655 451.55 1377.208345 440.0 1355.625 440.0C1346.583345 440.0 1336.666655 441.05 1328.5 443.5ZM1429.125 436.5C1414.541655 436.5 1400.833345 451.9 1394.708345 489.70000000000005H1387.708345V576.5C1398.5 517.35 1409.291655 498.1 1417.75 498.1C1418.916655 498.1 1419.5 498.45000000000005 1420.375 499.15C1420.375 501.95000000000005 1420.375 505.1 1419.791655 509.3V511.4C1421.25 512.1 1423.0 512.45 1427.666655 512.45C1442.833345 512.45 1451.291655 495.65 1451.291655 479.55V475.0C1451.291655 460.3 1448.083345 449.45000000000005 1442.833345 443.15C1439.041655 438.6 1434.375 436.5 1429.125 436.5Z" fill="#1a1a1a"/><path d="M1523.333345 540.1V544.65C1523.333345 626.2 1560.958345 678.0 1658.083345 678.0C1700.958345 678.0 1722.541655 673.45 1732.166655 664.35C1739.458345 657.35 1741.208345 641.25 1741.208345 628.65C1741.208345 625.5 1741.208345 622.0 1741.208345 618.85H1739.458345C1708.541655 628.65 1684.041655 632.5 1653.125 632.5C1624.25 632.5 1599.166655 627.25 1579.333345 615.35C1570.0 599.6 1564.166655 574.4 1564.166655 544.65V541.15C1564.166655 464.85 1591.583345 415.5 1658.083345 415.5C1678.5 415.5 1695.416655 418.3 1708.833345 426.35C1713.5 443.15 1714.958345 447.70000000000005 1714.958345 483.75C1714.958345 514.2 1714.958345 544.3 1714.958345 574.75C1714.958345 602.4 1741.208345 610.1 1762.5 610.1H1766.875C1765.125 597.15 1764.541655 585.25 1764.541655 574.4C1764.541655 543.6 1764.541655 512.8 1764.541655 482.0C1764.541655 412.35 1724.583345 363.0 1658.666655 363.0C1574.666655 363.0 1523.333345 430.55 1523.333345 540.1ZM1727.5 511.75C1703.875 540.1 1684.625 548.5 1668.875 548.5C1652.25 548.5 1647.0 539.75 1647.0 525.75V521.9C1647.0 510.35 1648.166655 505.45 1650.791655 496.35C1659.25 492.85 1666.25 491.1 1682.291655 491.1C1701.25 491.1 1707.083345 493.55 1718.166655 496.70000000000005L1724.291655 461.70000000000005H1712.916655C1703.875 452.6 1691.041655 447.70000000000005 1678.208345 447.70000000000005C1629.5 447.70000000000005 1596.833345 488.65 1596.833345 525.75V528.9C1596.833345 581.05 1622.5 604.5 1654.875 604.5C1680.25 604.5 1699.5 593.65 1713.5 562.85H1733.041655Z" fill="#1a1a1a"/><path d="M1668.0 643.0C1666.833345 648.6 1666.25 655.25 1666.541655 662.6C1666.82456 678.555921486435 1670.94672 689.44976109431 1678.208345 696.55C1683.28254 701.497347805505 1691.24182 706.0 1703.291655 706.0C1727.208345 706.0 1752.291655 687.45 1752.291655 644.75C1752.291655 582.45 1752.291655 524.7 1752.291655 450.85C1752.291655 428.8 1754.041655 421.1 1758.708345 415.5C1762.208345 411.3 1767.166655 410.25 1772.125 410.25C1774.51018 410.25 1776.66793 410.55757694736997 1778.833345 411.3C1779.45533 423.242267613325 1778.80601 433.524968343375 1776.5 445.6V447.70000000000005C1778.833345 448.4 1781.458345 448.75 1783.791655 448.75C1799.716655 448.75 1810.333345 432.696666666655 1810.333345 415.15V410.6C1810.333345 397.72264150943 1807.571775 385.28432277389504 1798.666655 375.6C1792.388425 368.40857049628 1783.0625 363.0 1767.458345 363.0C1729.7617 363.0 1705.625 392.4 1705.625 439.3C1705.625 503.0 1705.625 564.95 1705.625 627.25C1705.625 637.05 1704.75 645.1 1703.0 651.05C1701.25 651.75 1696.875 652.8 1690.75 652.8C1683.75 652.8 1677.110885 650.97824644883 1669.75 643.0ZM1679.666655 498.8C1679.666655 500.9 1679.666655 503.0 1679.666655 505.45C1679.666655 540.45 1690.75 551.3 1731.0 551.3H1780.0C1781.166655 545.35 1782.041655 537.3 1782.041655 529.25C1782.041655 506.15 1775.041655 498.8 1752.0 498.8ZM1799.83331 443.5C1798.375 451.9 1798.08331 456.45000000000005 1798.08331 464.5C1798.08331 483.75 1801.58331 496.0 1807.70831 496.0C1812.666655 496.0 1817.041655 492.85 1819.666655 489.70000000000005L1821.416655 490.4C1821.416655 520.85 1821.416655 547.8 1821.416655 588.75C1821.416655 609.75 1838.625 636.0 1866.33331 636.0C1873.916655 636.0 1879.45831 633.9 1884.416655 627.95C1889.08331 622.35 1892.291655 609.75 1892.291655 591.9C1892.291655 587.7 1892.0 583.15 1891.125 578.6H1889.375C1883.541655 583.5 1878.875 585.25 1872.75 585.25C1869.541655 585.25 1866.625 584.55 1865.166655 583.5C1865.166655 576.85 1865.166655 567.4 1865.166655 557.25C1865.166655 529.6 1865.166655 502.3 1865.166655 462.75C1865.166655 451.20000000000005 1853.791655 440.0 1823.45831 440.0C1812.08331 440.0 1806.25 441.4 1799.83331 443.5ZM1803.80581 391.175C1803.80581 412.660835 1821.22244 430.0775 1842.70831 430.0775C1864.19418 430.0775 1881.61081 412.660835 1881.61081 391.175C1881.61081 369.689165 1864.19418 352.27250000000004 1842.70831 352.27250000000004C1821.22244 352.27250000000004 1803.80581 369.689165 1803.80581 391.175Z" fill="#1a1a1a"/>
</svg>