<?xml version="1.0" encoding="UTF-8"?>
<svg xmlns="http://www.w3.org/2000/svg" width="1540.0" height="1057.5"
     viewBox="0 0 1540.0 1057.5">
<rect width="100%" height="100%" fill="white"/>
<text x="770.0" y="30" text-anchor="middle" font-size="14" font-family="sans-serif" font-weight="bold" fill="#333">Mono C Slanted — Key glyphs close-up</text><text x="187.5" y="48" text-anchor="middle" font-size="10" font-family="sans-serif" fill="#999">H</text><text x="362.5" y="48" text-anchor="middle" font-size="10" font-family="sans-serif" fill="#999">I</text><text x="537.5" y="48" text-anchor="middle" font-size="10" font-family="sans-serif" fill="#999">J</text><text x="712.5" y="48" text-anchor="middle" font-size="10" font-family="sans-serif" fill="#999">K</text><text x="887.5" y="48" text-anchor="middle" font-size="10" font-family="sans-serif" fill="#999">L</text><text x="1062.5" y="48" text-anchor="middle" font-size="10" font-family="sans-serif" fill="#999">M</text><text x="1237.5" y="48" text-anchor="middle" font-size="10" font-family="sans-serif" fill="#999">R</text><text x="1412.5" y="48" text-anchor="middle" font-size="10" font-family="sans-serif" fill="#999">S</text><text x="20" y="221.25" font-size="11" font-family="sans-serif" font-weight="bold" fill="#555">Linear</text><path d="M139.958345 55.00000000000003C137.333345 67.60000000000002 134.708345 79.85000000000002 132.083345 92.45000000000002C118.083345 160.35000000000002 103.791655 228.25 89.791655 296.15C89.208345 298.25 90.375 300.0 92.125 300.0C113.125 300.0 133.833345 300.0 154.833345 300.0C171.458345 219.85000000000002 188.375 139.0 205.0 58.85000000000002C205.583345 57.10000000000002 205.0 55.00000000000003 202.666655 55.00000000000003C181.666655 55.00000000000003 160.958345 55.00000000000003 139.958345 55.00000000000003ZM150.166655 139.70000000000002 141.125 208.3C140.833345 210.05 141.125 212.15 143.458345 212.15H235.041655L241.75 139.70000000000002H232.416655C224.833345 139.70000000000002 217.25 139.70000000000002 209.666655 139.70000000000002ZM246.416655 300.0C248.75 288.8 251.666655 275.5 254.58334499999998 261.5C268.583345 193.95 282.583345 126.4 296.583345 58.85000000000002C297.166655 56.75000000000003 296.0 55.00000000000003 294.25 55.00000000000003C273.25 55.00000000000003 252.541655 55.00000000000003 231.83334499999998 55.00000000000003C215.208345 135.15 198.291655 216.0 181.666655 296.15C181.14442 298.030097885785 182.018195 300.0 184.0 300.0C204.708345 300.0 225.416655 300.0 246.416655 300.0Z" fill="#1a1a1a"/><path d="M379.125 282.5C388.75 235.60000000000002 398.666655 189.05 408.291655 142.15C412.958345 120.10000000000002 417.333345 98.4 422.0 76.35000000000002L427.541655 72.50000000000003H357.541655C348.208345 117.30000000000001 338.875 162.45000000000002 329.25 207.25C324.291655 231.05 319.333345 254.85 314.375 278.65L311.458345 282.5ZM421.416655 300.0C426.375 277.25 431.041655 254.15 436.0 231.4C436.291655 229.3 435.125 227.55 433.375 227.55H279.083345C274.416655 250.3 269.458345 273.4 264.791655 296.15C264.208345 297.9 264.791655 300.0 267.125 300.0ZM314.958345 55.00000000000003C310.0 77.75 305.333345 100.85000000000002 300.375 123.60000000000002C299.791655 125.35000000000002 300.375 127.45000000000002 302.708345 127.45000000000002H457.0C461.958345 104.70000000000002 466.625 81.60000000000002 471.583345 58.85000000000002C472.166655 56.75000000000003 471.0 55.00000000000003 469.25 55.00000000000003Z" fill="#1a1a1a"/><path d="M512.416655 231.75C493.75 231.75 478.875 224.75 463.125 216.35000000000002H457.291655C452.625 238.4 447.666655 260.45 443.0 282.5C442.708345 283.9 442.708345 285.3 443.875 286.7C450.0 294.05 478.0 307.0 514.166655 307.0C573.375 307.0 598.458345 273.05 608.958345 220.9C620.487135 166.153 632.365295 109.74699999999999 643.894085 55.00000000000003C643.894085 52.20000000000002 637.06093 50.80000000000001 619.978025 50.80000000000001C613.14487 50.80000000000001 606.311715 50.80000000000001 599.47856 50.80000000000001C582.395655 50.80000000000001 575.5625 52.20000000000002 575.5625 55.00000000000003C575.5625 55.00000000000003 575.5625 55.00000000000003 575.5625 55.00000000000003C575.5625 55.00000000000003 575.5625 55.00000000000003 575.5625 55.00000000000003C566.081875 100.507 556.31397 147.39300000000003 546.833345 192.9C543.625 207.95 539.833345 217.05 534.875 223.0C529.625 229.3 522.625 231.75 512.416655 231.75Z" fill="#1a1a1a"/><path d="M730.875 131.3 692.375 228.60000000000002H704.916655C703.458345 257.3 702.875 253.45 709.0 272.0C716.875 294.4 723.291655 300.0 743.708345 300.0C752.166655 300.0 766.166655 300.0 768.5 300.0C770.541655 300.0 772.0 298.6 772.583345 296.15C773.166655 293.35 781.625 252.75 786.291655 229.65H784.833345C779.583345 229.65 777.25 229.65 772.0 229.65C762.375 229.65 760.333345 228.25 757.708345 219.5C748.666655 190.10000000000002 739.916655 160.70000000000002 730.875 131.3ZM826.833345 55.00000000000003H753.916655C744.291655 73.20000000000002 736.708345 88.25 730.875 100.85000000000002C718.916655 126.05000000000001 720.083345 123.60000000000002 710.166655 154.75H693.833345L669.333345 258.7C741.375 185.55 736.708345 190.8 806.708345 91.75C828.0 60.95000000000002 828.583345 59.55000000000001 828.875 57.80000000000001C829.166655 56.400000000000006 828.291655 55.00000000000003 826.833345 55.00000000000003ZM660.583345 55.00000000000003C657.958345 67.60000000000002 655.333345 79.85000000000002 652.708345 92.45000000000002C638.708345 160.35000000000002 624.416655 228.25 610.416655 296.15C609.833345 298.25 611.0 300.0 612.75 300.0C633.166655 300.0 653.291655 300.0 674.0 300.0C690.625 219.85000000000002 707.541655 139.0 724.166655 58.85000000000002C724.75 57.10000000000002 724.166655 55.00000000000003 721.833345 55.00000000000003C701.125 55.00000000000003 681.0 55.00000000000003 660.583345 55.00000000000003Z" fill="#1a1a1a"/><path d="M793.875 300.0H946.125C955.913415 253.706474929795 942.625 227.55 908.791655 227.55H874.083345C885.75 171.20000000000002 897.125 115.20000000000002 909.083345 58.85000000000002C909.375 57.10000000000002 908.791655 55.00000000000003 906.75 55.00000000000003C884.875 55.00000000000003 863.291655 55.00000000000003 841.416655 55.00000000000003C839.083345 66.55000000000001 836.458345 78.45000000000002 834.125 90.0C819.833345 158.60000000000002 805.541655 227.55 791.25 296.15C790.666655 298.25 791.833345 300.0 793.875 300.0Z" fill="#1a1a1a"/><path d="M1019.916655 300.0C1021.375 293.35 1022.833345 287.75 1024.875 279.35C1031.0 253.8 1029.833345 262.2 1031.291655 118.70000000000002L1029.833345 128.15H1039.458345L1036.833345 119.4C1041.208345 171.55 1044.708345 212.5 1047.916655 253.8C1048.208345 256.25 1049.375 256.6 1050.833345 256.6C1052.0 256.6 1052.875 256.6 1054.041655 256.6C1074.75 215.65 1095.458345 175.05 1120.833345 123.60000000000002L1115.583345 128.15H1127.833345L1126.958345 122.9C1071.541655 262.9 1074.458345 253.1 1068.333345 278.65C1066.291655 286.7 1065.708345 290.2 1064.541655 296.15C1063.958345 298.95 1065.125 300.0 1067.166655 300.0C1085.25 300.0 1103.916655 300.0 1122.0 300.0C1124.625 288.45 1126.958345 277.25 1129.291655 265.7C1143.583345 196.75 1158.166655 127.80000000000001 1172.458345 58.85000000000002C1173.041655 56.400000000000006 1172.166655 55.00000000000003 1170.125 55.00000000000003C1151.166655 55.00000000000003 1132.5 55.00000000000003 1113.541655 55.00000000000003C1090.5 100.5 1088.166655 107.5 1071.833345 161.75L1086.708345 135.5H1065.416655L1070.958345 161.75C1075.041655 106.45000000000002 1075.916655 102.25 1073.583345 65.15C1073.0 55.35000000000002 1071.833345 55.00000000000003 1066.291655 55.00000000000003C1046.166655 55.00000000000003 1032.458345 55.00000000000003 1013.5 55.00000000000003C1010.583345 67.95000000000002 1008.25 78.80000000000001 1006.208345 89.30000000000001C991.916655 158.25 977.333345 227.2 963.041655 296.15C962.75 298.25 963.333345 300.0 965.375 300.0C983.458345 300.0 1001.833345 300.0 1019.916655 300.0Z" fill="#1a1a1a"/><path d="M1278.041655 161.4 1222.041655 212.15C1227.583345 233.85000000000002 1232.833345 255.55 1238.375 277.25C1243.041655 296.85 1252.666655 303.5 1275.708345 303.5C1279.5 303.5 1286.5 303.5 1293.208345 303.5C1295.25 303.5 1296.708345 302.1 1297.291655 299.65C1301.958345 276.9 1307.208345 253.1 1311.875 230.35000000000002H1310.416655C1308.666655 230.35000000000002 1307.5 230.35000000000002 1305.75 230.35000000000002C1296.416655 230.35000000000002 1295.25 229.3 1292.625 218.45C1287.666655 199.55 1283.0 180.3 1278.041655 161.4ZM1192.937685 55.00000000000003C1188.234945 78.10000000000002 1184.102215 98.4 1179.39944 121.5C1179.043175 123.25 1168.958345 125.35000000000002 1171.0 125.35000000000002C1195.791655 125.35000000000002 1220.875 125.35000000000002 1245.666655 125.35000000000002C1254.708345 125.35000000000002 1258.5 126.05000000000001 1261.125 129.20000000000002C1263.458345 132.0 1263.75 137.25 1262.0 146.35000000000002L1261.125 150.55C1258.5 163.5 1254.416655 167.70000000000002 1245.666655 167.70000000000002C1234.291655 167.70000000000002 1222.916655 167.70000000000002 1211.541655 167.70000000000002L1198.416655 231.75L1201.916655 230.35000000000002C1218.541655 230.35000000000002 1235.166655 230.35000000000002 1251.791655 230.35000000000002C1292.625 230.35000000000002 1315.666655 207.95 1327.041655 156.85000000000002L1332.0 134.45000000000002C1343.375 83.0 1324.125 55.00000000000003 1278.041655 55.00000000000003C1246.25 55.00000000000003 1214.458345 55.00000000000003 1192.937685 55.00000000000003ZM1208.041655 300.0C1210.375 288.45 1213.0 276.55 1215.333345 265.0C1223.5 226.5 1231.375 188.0 1239.541655 149.5C1244.5 125.0 1249.75 100.85000000000002 1254.708345 76.35000000000002L1257.333345 72.50000000000003H1189.375C1173.916655 147.05 1158.166655 221.60000000000002 1142.708345 296.15C1142.186075 298.030097885785 1143.059885 300.0 1145.041655 300.0C1166.041655 300.0 1187.041655 300.0 1208.041655 300.0Z" fill="#1a1a1a"/><path d="M1450.708345 48.00000000000003C1399.375 48.00000000000003 1364.375 66.9 1355.333345 108.9L1351.541655 126.4C1346.583345 151.60000000000002 1347.458345 184.5 1395.291655 202.0L1413.083345 208.65C1421.541655 211.8 1429.416655 214.95 1427.083345 225.8L1426.5 228.60000000000002C1424.75 237.0 1416.875 239.45 1400.833345 239.45C1371.375 239.45 1351.833345 230.35000000000002 1336.958345 216.7H1331.125C1327.041655 237.35 1322.666655 258.0 1318.875 278.65C1318.583345 280.05 1318.291655 281.45 1319.458345 282.85C1329.666655 295.1 1357.083345 307.0 1394.708345 307.0C1442.833345 307.0 1473.458345 287.75 1483.375 240.85L1484.25 236.3C1492.708345 192.9 1485.708345 169.8 1445.166655 153.70000000000002L1419.5 143.55C1413.666655 141.10000000000002 1411.041655 136.9 1412.5 130.25L1413.375 126.05000000000001C1415.416655 116.25 1420.666655 113.80000000000001 1436.708345 113.80000000000001C1444.875 113.80000000000001 1453.333345 115.9 1458.0 119.05000000000001L1455.894365 110.786325C1455.519865 112.18261500000003 1455.108195 113.57893999999999 1454.641995 115.115265C1454.68872 113.99159000000003 1455.117855 112.16788000000003 1456.151055 109.924205C1462.679395 107.68053 1470.3799549999999 105.43685500000004 1477.26638 103.19314500000002C1478.671945 92.68947000000003 1479.96642 82.045795 1481.156035 71.54212000000001C1480.849715 67.47841000000003 1480.225735 65.09473500000001 1478.83144 62.15106000000003C1475.165925 56.54738500000002 1464.579895 50.243674999999996 1450.708345 48.00000000000003Z" fill="#1a1a1a"/><line x1="20" y1="382.5" x2="1520.0" y2="382.5" stroke="#eee" stroke-width="0.5"/><text x="20" y="553.75" font-size="11" font-family="sans-serif" font-weight="bold" fill="#555">SemiCasual</text><path d="M141.8541725 386.975C140.5416725 399.57500000000005 138.9375 412.175 136.6041725 425.475C125.08334500000001 489.70000000000005 106.416655 547.975 96.9375 603.8C94.020845 626.375 99.125 634.25 116.9166725 634.25C131.7916725 634.25 145.5 633.725 158.1875 632.675C166.5 560.4 190.5625 484.45000000000005 203.5416725 412.525C206.458345 393.275 202.2291725 385.75 186.1875 385.75C170.875 385.75 156.0 386.275 141.8541725 386.975ZM131.791655 477.975C131.791655 477.975 126.3958275 516.65 126.3958275 516.65C122.89584500000001 534.15 125.0833275 550.775 131.208345 550.775C131.208345 550.775 227.8958275 550.775 227.8958275 550.775C227.8958275 550.775 239.125 477.975 239.125 477.975C239.125 477.975 223.5208275 482.175 223.5208275 482.175C217.833345 479.375 210.3958275 477.975 200.479155 477.975C200.479155 477.975 131.791655 477.975 131.791655 477.975ZM248.8958275 633.025C249.625 621.65 251.229155 608.0 254.14584499999998 592.075C265.520845 530.3 285.058265 467.15468692307 294.6875 414.975C297.7553725 393.2349514698525 291.4791725 385.75 273.9791725 385.75C258.6666725 385.75 245.8333275 386.1 233.0 386.625C226.2916725 463.275 197.5625 538.875 186.041655 610.625C184.1763825 628.3650489428925 188.6965975 634.25 206.1666725 634.25C221.625 634.25 234.8958275 633.9 248.8958275 633.025Z" fill="#1a1a1a"/><path d="M382.3333275 589.275C387.73806249999996 554.0988564008475 398.341715 518.197285704265 405.5208275 484.275C409.6041725 465.375 411.5 450.5 411.2083275 435.275C411.2083275 435.275 416.166655 430.20000000000005 416.166655 430.20000000000005C416.166655 430.20000000000005 351.854155 430.20000000000005 351.854155 430.20000000000005C346.0017525 464.8725047986975 337.0190025 496.89333070547 329.5416725 529.775C324.729155 551.3 322.395845 567.575 322.8333275 584.2C322.8333275 584.2 319.1875 589.275 319.1875 589.275C319.1875 589.275 382.3333275 589.275 382.3333275 589.275ZM417.479155 632.5C422.1458275 616.05 425.354155 601.7 429.1458275 584.025C431.916655 568.8 427.5416725 559.525 416.3125 559.525C416.3125 559.525 279.2291725 559.525 279.2291725 559.525C275.5833275 573.7 271.7916725 588.4 268.0 605.55C263.333345 623.225 268.1458275 632.5 282.7291725 632.5C282.7291725 632.5 417.479155 632.5 417.479155 632.5ZM315.833345 387.5C311.4583275 403.07500000000005 307.6666725 420.225 303.5833275 438.6C300.666655 452.425 307.0833275 459.95000000000005 323.270845 459.95000000000005C323.270845 459.95000000000005 453.2083275 459.95000000000005 453.2083275 459.95000000000005C457.145845 444.9 460.7916725 429.32500000000005 464.4375 412.0C467.791655 396.07500000000005 462.9791725 387.5 450.7291725 387.5C450.7291725 387.5 315.833345 387.5 315.833345 387.5Z" fill="#1a1a1a"/><path d="M511.833345 564.25C492.729155 564.25 478.875 558.3 462.979155 546.925H459.479155C455.833345 560.4 452.041655 574.925 448.395845 592.075C445.041655 607.3 446.5 613.775 451.020845 620.95C457.583345 630.05 483.104155 639.5 512.270845 639.5C565.5 639.5 594.229155 610.975 606.916655 561.625C618.67774 504.16375 630.7951949999999 444.96125 642.55628 387.5C642.55628 384.70000000000005 635.816015 383.3 618.96544 383.3C612.225175 383.3 605.4849449999999 383.3 598.744715 383.3C581.894105 383.3 575.15384 384.70000000000005 575.15384 387.5C575.15384 387.5 575.15384 387.5 575.15384 387.5C575.15384 387.5 575.15384 387.5 575.15384 387.5C565.182445 436.5875 554.908895 487.1625 544.9375 536.25C542.895845 545.525 540.5625 551.825 537.5 556.55C531.375 561.975 523.0625 564.25 511.833345 564.25Z" fill="#1a1a1a"/><path d="M742.8333275 472.725C742.8333275 472.725 693.6875 557.075 693.6875 557.075C693.6875 557.075 705.354155 562.15 705.354155 562.15C704.770845 586.125 705.5 591.9 710.4583275 607.125C717.3125 628.125 725.7708275 636.0 742.9791725 636.0C752.4583275 636.0 763.25 634.6 767.9166725 630.4C771.854155 626.9 774.4791725 622.0 776.375 613.775C778.2708275 604.85 782.9375 578.075 784.979155 560.575C784.979155 560.575 783.375 560.575 783.375 560.575C779.7291725 561.8 777.3958275 562.325 772.875 562.325C764.7083275 562.325 761.7916725 560.225 759.6041725 552.525C752.75 528.375 747.354155 501.775 742.8333275 472.725ZM796.208345 385.75C796.208345 385.75 754.791655 385.75 754.791655 385.75C747.2083275 410.775 738.6041725 432.3 730.0 447.175C720.0833275 465.725 716.7291725 469.4 708.416655 488.3C708.416655 488.3 696.6041725 485.675 696.6041725 485.675C696.6041725 485.675 671.6666725 584.025 671.6666725 584.025C726.6458275 543.95 754.9375 511.575 804.083345 437.025C818.375 415.15 821.2916725 408.5 822.4583275 403.25C824.791655 391.35 816.916655 385.75 796.208345 385.75ZM659.5625 387.32500000000005C658.833345 401.15 657.375 413.57500000000005 655.0416725 425.65C643.6666725 488.3 625.875 544.825 615.666655 607.125C613.333345 625.675 619.3125 634.25 634.4791725 634.25C649.354155 634.25 662.479155 633.55 675.1666725 632.675C683.0416725 554.275 707.3958275 488.65 721.25 409.9C723.7291725 393.8 718.625 385.75 704.0416725 385.75C689.0208275 385.75 673.5625 386.1 659.5625 387.32500000000005Z" fill="#1a1a1a"/><path d="M822.0208275 632.5C822.0208275 632.5 940.4375 632.5 940.4375 632.5C952.477535 596.4032374648975 946.2708275 557.775 914.479155 557.775C914.479155 557.775 874.2291725 557.775 874.2291725 557.775C881.375 510.175 897.8541725 463.8 907.0416725 412.0C909.0833275 397.3 907.1875 385.75 888.2291725 385.75C872.625 385.75 856.5833275 386.625 840.8333275 387.85C840.5416725 399.225 839.520845 411.82500000000005 837.1875 424.775C826.395845 483.05 808.4583275 536.425 797.9583275 595.925C795.479155 613.425 808.1666725 632.5 822.0208275 632.5Z" fill="#1a1a1a"/><path d="M1021.8125 632.5C1023.5625 624.625 1025.1666725 617.625 1027.2083275 608.875C1034.9375 574.75 1027.3541725 576.325 1036.25 450.5C1036.25 450.5 1032.458345 462.225 1032.458345 462.225C1032.458345 462.225 1042.8125 460.3 1042.8125 460.3C1042.8125 460.3 1039.020845 450.85 1039.020845 450.85C1041.0625 504.049928771395 1044.803965 546.2128729081176 1050.8333275 574.4C1051.4166725 576.325 1052.5833275 576.675 1054.0416725 576.675C1055.0625 576.675 1055.9375 576.675 1056.9583275 576.675C1072.7083275 552.525 1096.2108625 508.5446013778925 1121.125 453.82500000000005C1121.125 453.82500000000005 1114.4166725 462.05 1114.4166725 462.05C1114.4166725 462.05 1124.770845 463.625 1124.770845 463.625C1124.770845 463.625 1124.333345 452.95000000000005 1124.333345 452.95000000000005C1081.61161 578.922251161855 1073.29169 579.1249571756275 1067.6041725 603.1C1066.4375 608.0 1066.0 610.625 1065.2708275 614.65C1063.520845 627.425 1067.4583275 634.25 1086.2708275 634.25C1098.6666725 634.25 1111.6458275 633.725 1123.3125 632.85C1124.9166725 621.3 1126.958345 609.925 1129.1458275 597.85C1141.25 531.525 1157.5833275 470.45000000000005 1168.8125 406.57500000000005C1170.7083275 392.75 1165.0208275 385.75 1152.4791725 385.75C1138.625 385.75 1124.1875 386.45000000000005 1111.354155 387.32500000000005C1097.7916725 425.3 1090.2083275 444.9 1071.833345 487.95000000000005C1071.833345 487.95000000000005 1084.2291725 471.85 1084.2291725 471.85C1084.2291725 471.85 1067.3125 470.275 1067.3125 470.275C1067.3125 470.275 1073.4375 488.82500000000005 1073.4375 488.82500000000005C1073.875 452.07500000000005 1074.0208275 439.65 1074.1666725 406.57500000000005C1074.75 391.35 1067.75 385.75 1052.4375 385.75C1038.291655 385.75 1027.0625 386.1 1011.6041725 387.32500000000005C1011.020845 398.875 1009.7083275 410.775 1007.8125 422.32500000000005C996.0 489.35 976.75 549.2 966.3958275 608.7C964.2083275 625.5 969.458345 634.25 982.0 634.25C995.708345 634.25 1010.4375 633.55 1021.8125 632.5Z" fill="#1a1a1a"/><path d="M1277.75 499.5C1277.75 499.5 1229.479155 550.95 1229.479155 550.95C1231.958345 569.85 1235.6041725 589.45 1239.9791725 608.0C1244.5 628.125 1255.0 637.75 1274.6875 637.75C1280.375 637.75 1287.5208275 636.0 1293.9375 632.325C1298.1666725 628.475 1301.375 622.175 1303.2708275 613.25C1307.208345 594.175 1310.125 578.425 1312.4583275 560.925C1312.4583275 560.925 1311.1458275 560.925 1311.1458275 560.925C1308.5208275 562.15 1306.625 562.675 1303.8541725 562.675C1295.8333275 562.675 1293.2083275 560.225 1289.8541725 548.325C1285.479155 532.925 1281.3958275 516.3 1277.75 499.5ZM1194.89688 387.5C1191.9655425 403.25 1188.908415 420.57500000000005 1185.6145825 438.95000000000005C1183.479075 454.0 1171.583345 461.175 1177.8541725 461.175C1193.3125 461.175 1216.8598875 457.675 1247.416655 457.675C1255.1135225 457.675 1259.5208275 458.375 1263.1666725 460.65C1264.770845 464.32500000000005 1264.9166725 469.925 1263.6041725 477.275C1263.6041725 477.275 1263.0208275 480.25 1263.0208275 480.25C1260.25 495.3 1254.125 502.125 1244.791655 502.125C1234.875 502.125 1226.125 500.9 1217.5208275 498.975C1217.5208275 498.975 1203.9583275 567.4 1203.9583275 567.4C1203.9583275 567.4 1211.541655 563.2 1211.541655 563.2C1222.041655 564.6 1235.604155 565.3 1246.3958275 565.3C1285.0416725 565.3 1317.854155 534.15 1328.354155 485.32500000000005C1328.354155 485.32500000000005 1331.2708275 472.025 1331.2708275 472.025C1342.6458275 418.82500000000005 1319.3125 384.0 1265.354155 384.0C1236.0416725 384.0 1208.9166725 385.57500000000005 1194.89688 387.5ZM1211.6875 632.5C1212.125 621.125 1213.2916725 608.35 1215.0416725 594.525C1220.4375 556.375 1231.5208275 525.05 1239.6875 489.35C1244.3541725 468.175 1246.8333275 449.975 1246.833345 434.05C1246.833345 434.05 1249.6041725 429.675 1249.6041725 429.675C1249.6041725 429.675 1188.5 429.675 1188.5 429.675C1177.2708275 495.82500000000005 1159.625 547.625 1148.395845 611.15C1146.38471 626.0900489428925 1152.80077 634.25 1167.2083275 634.25C1182.375 634.25 1197.541655 633.375 1211.6875 632.5Z" fill="#1a1a1a"/><path d="M1450.708345 380.5C1399.375 380.5 1364.375 399.4 1355.333345 441.4L1351.541655 458.9C1346.583345 484.1 1347.458345 517.0 1395.291655 534.5L1413.083345 541.15C1421.541655 544.3 1429.416655 547.45 1427.083345 558.3L1426.5 561.1C1424.75 569.5 1416.875 571.95 1400.833345 571.95C1371.375 571.95 1351.833345 562.85 1336.958345 549.2H1331.125C1327.041655 569.85 1322.666655 590.5 1318.875 611.15C1318.583345 612.55 1318.291655 613.95 1319.458345 615.35C1329.666655 627.6 1357.083345 639.5 1394.708345 639.5C1442.833345 639.5 1473.458345 620.25 1483.375 573.35L1484.25 568.8C1492.708345 525.4 1485.708345 502.3 1445.166655 486.20000000000005L1419.5 476.05C1413.666655 473.6 1411.041655 469.4 1412.5 462.75L1413.375 458.55C1415.416655 448.75 1420.666655 446.3 1436.708345 446.3C1444.875 446.3 1453.333345 448.4 1458.0 451.55L1458.632835 450.98027C1459.138375 449.35396000000003 1459.51102 446.79539 1459.746255 443.42881C1459.84093 439.378575 1459.793925 434.76897 1459.606325 429.72431500000005C1459.28198 424.368895 1458.8274 418.82703000000004 1458.25228 413.22297000000003C1457.56936 407.681105 1456.794495 402.325685 1455.94662 397.28103C1455.047505 392.671425 1454.121475 388.62119 1453.19527 385.25461C1452.29745 382.69604000000004 1451.458115 381.06973000000005 1450.708345 380.5Z" fill="#1a1a1a"/><line x1="20" y1="715.0" x2="1520.0" y2="715.0" stroke="#eee" stroke-width="0.5"/><text x="20" y="886.25" font-size="11" font-family="sans-serif" font-weight="bold" fill="#555">Casual</text><path d="M143.75 718.95C143.75 731.55 143.166655 744.5 141.125 758.5C132.083345 819.05 109.041655 867.7 104.083345 911.45C98.833345 954.5 107.875 968.5 141.708345 968.5C150.458345 968.5 157.166655 967.45 161.541655 965.35C161.541655 900.95 192.75 829.9 202.083345 766.2C207.333345 729.45 199.458345 716.5 169.708345 716.5C160.083345 716.5 151.041655 717.55 143.75 718.95ZM113.416655 816.25 111.666655 825.0C104.958345 858.25 109.041655 889.4 118.958345 889.4H220.75L236.5 816.25L214.625 824.65C210.833345 819.05 203.541655 816.25 191.291655 816.25ZM251.375 966.05C250.5 954.5 250.791655 940.5 253.70834499999998 922.65C262.458345 866.65 287.533185 807.90937384614 292.791655 771.1C298.34409 729.719902939705 286.958345 716.5 253.70834499999998 716.5C244.08334499999998 716.5 239.125 717.2 234.166655 718.25C237.375 791.4 196.833345 861.75 190.416655 925.1C187.208345 958.7 195.375 968.5 228.33334499999998 968.5C238.541655 968.5 244.375 967.8 251.375 966.05Z" fill="#1a1a1a"/><path d="M385.541655 896.05C386.72612499999997 872.597712801695 398.016775 847.34457140853 402.75 826.4C406.25 810.65 405.666655 802.6 400.416655 794.2L404.791655 787.9H346.166655C343.79516 812.445009597395 335.163005 831.33666141094 329.833345 852.3C325.166655 871.55 325.458345 880.3 331.291655 889.75L326.916655 896.05ZM413.541655 965.0C417.916655 954.85 419.666655 949.25 422.291655 936.65C427.541655 908.3 419.958345 891.5 399.25 891.5H279.375C276.75 897.1 274.125 903.4 271.208345 914.95C262.458345 948.55 271.5 965.0 298.333345 965.0ZM316.708345 720.0C312.916655 728.4 310.0 739.6 306.791655 753.6C301.541655 779.5 313.791655 792.45 343.833345 792.45H449.416655C452.333345 785.1 454.958345 777.05 457.291655 765.15C463.416655 735.4 454.958345 720.0 432.208345 720.0Z" fill="#1a1a1a"/><path d="M511.25 896.75C491.708345 896.75 478.875 891.85 462.833345 877.5H461.666655C459.041655 882.4 456.416655 889.4 453.791655 901.65C447.375 930.7 450.291655 942.25 458.166655 955.2C465.166655 966.05 488.208345 972.0 510.375 972.0C557.625 972.0 590.0 948.9 604.875 902.35C616.7719549999999 842.1745 629.02941 780.1755 640.92633 720.0C640.92633 717.2 634.321165 715.8 617.8081999999999 715.8C611.203 715.8 604.5978 715.8 597.992635 715.8C581.4796699999999 715.8 574.87447 717.2 574.87447 720.0C574.87447 720.0 574.87447 720.0 574.87447 720.0C574.87447 720.0 574.87447 720.0 574.87447 720.0C564.36964 772.668 553.546485 826.932 543.041655 879.6C542.166655 883.1 541.291655 886.6 540.125 890.1C533.125 894.65 523.5 896.75 511.25 896.75Z" fill="#1a1a1a"/><path d="M754.791655 814.15 695.0 885.55 705.791655 895.7C706.083345 914.95 708.125 930.35 711.916655 942.25C717.75 961.85 728.25 972.0 742.25 972.0C752.75 972.0 760.333345 969.2 767.333345 960.8C773.166655 953.8 776.958345 945.4 780.166655 931.4C783.375 916.35 784.25 903.4 783.666655 891.5H781.916655C779.875 893.95 777.541655 895.0 773.75 895.0C767.041655 895.0 763.25 892.2 761.5 885.55C756.833345 866.65 754.791655 842.85 754.791655 814.15ZM765.583345 716.5H755.666655C750.125 748.35 740.5 776.35 729.125 793.5C721.25 805.4 713.375 815.2 706.666655 821.85L699.375 816.6L674.0 909.35C711.916655 902.35 773.166655 832.35 801.458345 782.3C808.75 769.35 814.0 757.45 816.041655 748.7C820.416655 726.3 805.541655 716.5 765.583345 716.5ZM658.541655 719.65C659.708345 734.7 659.416655 747.3 657.375 758.85C648.625 816.25 627.333345 861.4 620.916655 918.1C616.833345 953.1 627.625 968.5 656.208345 968.5C665.541655 968.5 671.666655 967.1 676.333345 965.35C675.458345 888.7 707.25 838.3 718.333345 760.95C722.708345 730.5 713.083345 716.5 686.25 716.5C676.916655 716.5 666.125 717.2 658.541655 719.65Z" fill="#1a1a1a"/><path d="M850.166655 965.0H934.75C949.041655 939.1 949.916655 888.0 920.166655 888.0H874.375C877.0 849.15 898.583345 812.4 905.0 765.15C908.791655 737.5 905.583345 716.5 869.708345 716.5C860.375 716.5 849.875 718.25 840.25 720.7C842.0 731.9 842.583345 745.2 840.25 759.55C832.958345 807.5 811.375 845.3 804.666655 895.7C800.291655 928.6 824.5 965.0 850.166655 965.0Z" fill="#1a1a1a"/><path d="M1023.708345 965.0C1025.75 955.9 1027.5 947.5 1029.541655 938.4C1038.875 895.7 1024.875 890.45 1041.208345 782.3L1035.083345 796.3L1046.166655 792.45L1041.208345 782.3C1040.916655 836.54985754279 1044.899585 879.925745816235 1053.75 895.0C1054.625 896.4 1055.791655 896.75 1057.25 896.75C1058.125 896.75 1059.0 896.75 1059.875 896.75C1070.666655 889.4 1096.96338 842.039202755785 1121.416655 784.05L1113.25 795.95L1121.708345 799.1V783.0C1091.681565 894.94450232371 1072.125035 905.149914351255 1066.875 927.55C1066.583345 929.3 1066.291655 931.05 1066.0 933.15C1063.083345 955.9 1069.791655 968.5 1105.375 968.5C1112.083345 968.5 1119.375 967.45 1124.625 965.7C1125.208345 954.15 1126.958345 942.6 1129.0 930.0C1138.916655 866.3 1157.0 813.1 1165.166655 754.3C1168.375 729.1 1157.875 716.5 1134.833345 716.5C1126.083345 716.5 1115.875 717.9 1109.166655 719.65C1105.083345 750.1 1092.25 782.3 1071.833345 814.15L1081.75 808.2L1069.208345 805.05L1075.916655 815.9C1072.708345 797.7 1072.125 777.05 1074.75 748.0C1076.5 727.35 1063.666655 716.5 1038.583345 716.5C1030.416655 716.5 1021.666655 717.2 1009.708345 719.65C1011.458345 729.8 1011.166655 742.75 1009.416655 755.35C1000.083345 820.45 976.166655 871.2 969.75 921.25C965.666655 952.75 975.583345 968.5 998.625 968.5C1007.958345 968.5 1019.041655 967.1 1023.708345 965.0Z" fill="#1a1a1a"/><path d="M1277.458345 837.6 1236.916655 889.75C1236.333345 905.85 1238.375 923.35 1241.583345 938.75C1245.958345 959.4 1257.333345 972.0 1273.666655 972.0C1281.25 972.0 1288.541655 968.5 1294.666655 961.15C1301.083345 953.45 1306.041655 942.25 1309.25 926.85C1312.458345 911.45 1313.041655 903.75 1313.041655 891.5H1311.875C1308.375 893.95 1305.75 895.0 1301.958345 895.0C1295.25 895.0 1291.166655 891.15 1287.083345 878.2C1283.291655 866.3 1279.791655 852.3 1277.458345 837.6ZM1196.856075 720.0C1195.69614 728.4 1193.714615 742.75 1191.829725 756.4C1187.914975 784.75 1174.208345 797.0 1184.708345 797.0C1190.833345 797.0 1212.844775 790.0 1249.166655 790.0C1255.5187 790.0 1260.541655 790.7 1265.208345 792.1C1266.083345 796.65 1266.083345 802.6 1265.208345 808.2L1264.916655 809.95C1262.0 827.1 1253.833345 836.55 1243.916655 836.55C1235.458345 836.55 1229.333345 834.1 1223.5 830.25L1209.5 903.05L1221.166655 896.05C1225.541655 898.85 1236.041655 900.25 1241.0 900.25C1277.458345 900.25 1320.041655 860.35 1329.666655 813.8L1330.541655 809.6C1341.916655 754.65 1314.5 713.0 1252.666655 713.0C1225.833345 713.0 1203.375 716.15 1196.856075 720.0ZM1215.333345 965.0C1213.875 953.8 1213.583345 940.15 1214.75 924.05C1217.375 886.25 1231.666655 862.1 1239.833345 829.2C1244.208345 811.35 1243.916655 799.1 1238.958345 791.75L1241.875 786.85H1187.625C1180.625 844.6 1161.083345 873.65 1154.083345 926.15C1150.583345 954.15 1162.541655 968.5 1189.375 968.5C1198.708345 968.5 1208.041655 966.75 1215.333345 965.0Z" fill="#1a1a1a"/><path d="M1456.833345 713.0C1406.375 713.0 1359.416655 752.2 1349.5 800.15L1348.916655 802.95C1342.208345 834.8 1355.041655 855.1 1397.916655 871.55L1409.875 876.1C1420.375 880.3 1425.916655 885.9 1425.916655 894.65V895.7C1418.333345 897.45 1407.833345 898.15 1396.166655 898.15C1371.958345 898.15 1355.041655 887.65 1340.75 869.45H1339.0C1333.166655 878.2 1327.625 899.55 1325.875 910.75C1322.666655 930.35 1325.0 945.75 1334.041655 955.2C1344.25 965.7 1363.208345 972.0 1394.708345 972.0C1446.333345 972.0 1474.333345 953.45 1482.5 913.9L1483.666655 908.3C1489.791655 878.55 1476.375 853.35 1441.666655 839.7L1420.958345 831.65C1409.583345 827.1 1405.5 821.15 1407.25 813.45L1407.541655 812.05C1409.875 800.5 1428.25 790.7 1448.083345 790.7C1450.416655 790.7 1454.5 791.05 1458.0 791.4C1468.5 779.5 1475.5 765.5 1480.98716 754.734735C1482.040905 744.55894 1479.743715 735.783145 1475.50952 728.267385C1470.87076 720.61159 1464.32814 715.4757950000001 1456.833345 713.0Z" fill="#1a1a1a"/>
</svg>