<?xml version="1.0" encoding="UTF-8"?>
<svg xmlns="http://www.w3.org/2000/svg" width="1540.0" height="1057.5"
     viewBox="0 0 1540.0 1057.5">
<rect width="100%" height="100%" fill="white"/>
<text x="770.0" y="30" text-anchor="middle" font-size="14" font-family="sans-serif" font-weight="bold" fill="#333">Sans B Slanted — Key glyphs close-up</text><text x="187.5" y="48" text-anchor="middle" font-size="10" font-family="sans-serif" fill="#999">H</text><text x="362.5" y="48" text-anchor="middle" font-size="10" font-family="sans-serif" fill="#999">I</text><text x="537.5" y="48" text-anchor="middle" font-size="10" font-family="sans-serif" fill="#999">J</text><text x="712.5" y="48" text-anchor="middle" font-size="10" font-family="sans-serif" fill="#999">K</text><text x="887.5" y="48" text-anchor="middle" font-size="10" font-family="sans-serif" fill="#999">L</text><text x="1062.5" y="48" text-anchor="middle" font-size="10" font-family="sans-serif" fill="#999">M</text><text x="1237.5" y="48" text-anchor="middle" font-size="10" font-family="sans-serif" fill="#999">R</text><text x="1412.5" y="48" text-anchor="middle" font-size="10" font-family="sans-serif" fill="#999">S</text><text x="20" y="221.25" font-size="11" font-family="sans-serif" font-weight="bold" fill="#555">Linear</text><path d="M151.625 55.00000000000003C149.0 67.60000000000002 146.375 79.85000000000002 143.75 92.45000000000002C129.75 160.35000000000002 115.458345 228.25 101.458345 296.15C100.875 298.25 102.041655 300.0 103.791655 300.0C118.375 300.0 132.666655 300.0 147.25 300.0C163.875 219.85000000000002 180.791655 139.0 197.416655 58.85000000000002C198.0 57.10000000000002 197.125 55.00000000000003 195.083345 55.00000000000003C180.5 55.00000000000003 166.208345 55.00000000000003 151.625 55.00000000000003ZM153.083345 154.75 144.041655 195.35000000000002C143.75 197.10000000000002 144.333345 199.2 146.375 199.2H244.95834499999998V153.70000000000002L234.75 154.75C228.625 154.75 222.5 154.75 216.375 154.75ZM249.33334499999998 300.0C251.666655 288.8 254.58334499999998 275.5 257.5 261.5C271.5 193.95 285.5 126.4 299.5 58.85000000000002C300.083345 56.75000000000003 298.916655 55.00000000000003 297.166655 55.00000000000003C282.583345 55.00000000000003 268.291655 55.00000000000003 253.70834499999998 55.00000000000003C237.08334499999998 135.15 220.166655 216.0 203.541655 296.15C202.958345 297.9 203.833345 300.0 205.875 300.0C220.458345 300.0 234.75 300.0 249.33334499999998 300.0Z" fill="#1a1a1a"/><path d="M357.833345 270.25C367.458345 223.0 377.666655 174.35000000000002 387.583345 126.75C389.333345 119.05000000000001 391.958345 106.45000000000002 393.416655 98.75L397.5 84.75H349.666655C339.75 132.35000000000002 329.541655 181.0 319.916655 228.25C318.166655 235.60000000000002 315.541655 248.9 314.083345 256.25L310.0 270.25ZM380.291655 300.0C383.5 284.6 386.708345 269.55 389.916655 254.15C390.5 252.4 389.625 250.3 387.583345 250.3H286.083345C282.875 265.7 279.666655 280.75 276.458345 296.15C276.166655 298.25 277.333345 300.0 279.083345 300.0ZM326.625 55.00000000000003C323.416655 70.4 320.208345 85.45000000000002 317.0 100.85000000000002C316.416655 102.60000000000002 317.291655 104.70000000000002 319.333345 104.70000000000002H421.125C424.333345 89.30000000000001 427.541655 74.25000000000003 430.75 58.85000000000002C431.333345 56.75000000000003 430.166655 55.00000000000003 428.416655 55.00000000000003Z" fill="#1a1a1a"/><path d="M494.333345 258.0C478.583345 258.0 471.0 255.55 459.333345 245.4H453.5C450.291655 259.75 447.666655 272.7 444.75 287.05C444.75 288.1 444.75 289.15 445.041655 289.85C449.708345 297.2 468.083345 307.0 490.25 307.0C534.875 307.0 558.791655 282.85 570.166655 228.60000000000002C582.17547 171.312 594.548215 112.28799999999998 606.5570299999999 55.00000000000003C606.5570299999999 52.20000000000002 602.215245 50.80000000000001 591.36073 50.80000000000001C587.01891 50.80000000000001 582.67709 50.80000000000001 578.3353050000001 50.80000000000001C567.48079 50.80000000000001 563.13897 52.20000000000002 563.13897 55.00000000000003C563.13897 55.00000000000003 563.13897 55.00000000000003 563.13897 55.00000000000003C563.13897 55.00000000000003 563.13897 55.00000000000003 563.13897 55.00000000000003C551.790605 109.1695 540.0983650000001 164.9805 528.75 219.15C525.833345 232.8 522.333345 241.9 517.083345 248.2C510.958345 255.55 503.666655 258.0 494.333345 258.0Z" fill="#1a1a1a"/><path d="M731.75 152.65 690.041655 218.45H711.041655C711.916655 240.5 712.208345 243.65 720.666655 269.9C729.708345 296.85 737.0 301.75 756.833345 301.75C763.541655 301.75 765.875 301.75 767.916655 301.75C769.666655 301.75 771.416655 300.7 772.0 297.9C772.583345 295.45 777.833345 270.6 781.041655 254.5H775.208345C773.99304 254.5 773.5069599999999 254.5 772.291655 254.5C762.666655 254.5 760.625 253.1 758.0 244.35C749.25 213.9 740.5 183.10000000000002 731.75 152.65ZM819.833345 55.00000000000003H770.25C756.25 75.65 739.333345 101.55000000000001 725.333345 122.20000000000002C711.916655 142.15 707.541655 151.60000000000002 701.416655 169.45000000000002H687.125L670.208345 266.4C725.625 190.45 773.458345 125.0 806.708345 79.5C820.708345 60.60000000000002 821.583345 59.55000000000001 821.875 57.80000000000001C822.166655 56.400000000000006 821.291655 55.00000000000003 819.833345 55.00000000000003ZM673.708345 55.00000000000003C671.083345 67.60000000000002 668.458345 79.85000000000002 665.833345 92.45000000000002C651.833345 160.35000000000002 637.541655 228.25 623.541655 296.15C622.958345 298.25 624.125 300.0 625.875 300.0C640.458345 300.0 653.583345 300.0 668.166655 300.0C684.791655 219.85000000000002 701.708345 139.0 718.333345 58.85000000000002C718.916655 56.75000000000003 718.041655 55.00000000000003 716.0 55.00000000000003C701.416655 55.00000000000003 688.291655 55.00000000000003 673.708345 55.00000000000003Z" fill="#1a1a1a"/><path d="M803.791655 300.0H925.125C927.458345 275.15 920.166655 252.05 902.666655 252.05H857.166655C870.583345 187.65 884.0 123.25 897.416655 58.85000000000002C898.0 56.75000000000003 897.125 55.00000000000003 895.083345 55.00000000000003C880.5 55.00000000000003 866.208345 55.00000000000003 851.625 55.00000000000003C849.291655 66.55000000000001 846.666655 78.45000000000002 844.333345 90.0C830.041655 158.60000000000002 815.75 227.55 801.458345 296.15C800.875 298.25 802.041655 300.0 803.791655 300.0Z" fill="#1a1a1a"/><path d="M1018.166655 300.0C1022.25 281.1 1026.041655 261.85 1030.125 242.95C1035.375 217.75 1042.083345 178.9 1049.083345 133.4L1041.791655 143.9H1062.791655L1052.583345 134.10000000000002C1055.791655 173.65 1059.583345 213.2 1062.791655 252.75C1063.083345 255.2 1064.541655 255.55 1065.708345 255.55C1075.916655 255.55 1086.416655 255.55 1096.625 255.55C1117.333345 214.60000000000002 1137.75 175.05 1158.75 134.10000000000002L1145.333345 143.9H1166.625L1162.25 133.4C1148.25 188.0 1141.25 219.15 1136.291655 242.95C1132.5 260.8 1129.0 278.3 1125.208345 296.15C1124.916655 298.25 1125.791655 300.0 1127.541655 300.0C1141.25 300.0 1154.666655 300.0 1167.791655 300.0C1170.416655 288.45 1172.75 276.9 1175.083345 265.35C1189.375 196.4 1203.958345 127.45000000000002 1218.25 58.85000000000002C1218.541655 56.75000000000003 1217.666655 55.00000000000003 1215.916655 55.00000000000003C1200.458345 55.00000000000003 1172.166655 55.00000000000003 1156.708345 55.00000000000003C1135.125 98.4 1110.333345 149.5 1089.916655 194.65L1104.791655 179.60000000000002H1083.5L1092.541655 194.65C1090.791655 151.95000000000002 1086.708345 99.80000000000001 1083.208345 63.400000000000006C1082.625 56.400000000000006 1081.458345 55.00000000000003 1077.375 55.00000000000003C1065.708345 55.00000000000003 1040.625 55.00000000000003 1026.916655 55.00000000000003C1024.291655 66.55000000000001 1021.958345 78.45000000000002 1019.625 90.0C1005.333345 158.60000000000002 990.75 227.55 976.458345 296.15C976.166655 298.25 977.041655 300.0 978.791655 300.0C992.208345 300.0 1004.75 300.0 1018.166655 300.0Z" fill="#1a1a1a"/><path d="M1275.416655 198.15 1234.875 208.3C1240.125 230.7 1245.375 253.45 1250.625 275.85C1255.306775 295.678719578465 1262.7968799999999 301.75 1283.875 301.75C1285.916655 301.75 1288.833345 301.75 1290.0 301.75C1292.041655 301.75 1293.5 300.35 1294.083345 297.9C1297.0605150000001 282.9599964908 1300.04556 267.58287261904 1303.416655 252.75H1297.583345C1296.125 252.75 1295.25 252.75 1293.791655 252.75C1289.86539 252.75 1288.311005 251.73889238909499 1286.5 244.35C1282.708345 228.95 1279.208345 213.55 1275.416655 198.15ZM1202.92427 55.00000000000003C1199.94129 69.70000000000002 1196.958345 84.4 1193.9754 99.10000000000002C1193.478225 101.55000000000001 1193.19413 102.95000000000002 1193.19413 102.95000000000002C1209.208345 102.95000000000002 1235.458345 102.95000000000002 1261.416655 102.95000000000002C1267.833345 102.95000000000002 1271.333345 104.35000000000002 1274.25 107.85000000000002C1276.875 111.0 1278.333345 117.30000000000001 1276.291655 127.10000000000002L1271.333345 149.5C1267.833345 165.95000000000002 1259.958345 174.0 1245.958345 174.0C1236.041655 174.0 1226.125 174.0 1216.208345 174.0L1206.583345 220.2L1210.083345 218.45C1220.875 218.45 1232.25 218.45 1243.041655 218.45C1285.916655 218.45 1308.083345 197.45 1317.125 153.0L1321.5 132.35000000000002C1330.833345 86.5 1315.666655 55.00000000000003 1265.791655 55.00000000000003C1240.416655 55.00000000000003 1215.333345 55.00000000000003 1202.92427 55.00000000000003ZM1197.25 300.0C1199.291655 290.2 1201.625 278.3 1204.25 265.7C1214.458345 217.05 1222.625 178.2 1231.958345 133.75C1234.291655 121.5 1237.208345 108.55000000000001 1239.833345 94.9L1245.666655 84.4H1196.958345C1181.5 158.60000000000002 1168.083345 221.95 1152.625 296.15C1152.333345 298.6 1153.208345 300.0 1155.25 300.0C1169.833345 300.0 1182.666655 300.0 1197.25 300.0Z" fill="#1a1a1a"/><path d="M1444.583345 48.00000000000003C1404.625 48.00000000000003 1373.97697 67.27551337610501 1364.958345 108.9L1361.166655 126.4C1356.791655 148.8 1360.583345 179.95 1395.291655 193.60000000000002L1420.083345 203.75C1436.125 210.05 1439.333345 215.65 1437.0 226.85000000000002L1434.375 239.1C1432.333345 248.9 1421.541655 258.0 1398.5 258.0C1372.25 258.0 1356.791655 248.9 1342.208345 235.25H1336.375C1334.333345 245.05 1330.833345 260.1 1327.041655 278.65C1326.75 280.05 1326.458345 281.1 1327.333345 282.5C1334.625 294.05 1361.166655 307.0 1394.708345 307.0C1438.166655 307.0 1466.166655 289.5 1475.208345 246.45L1478.708345 229.65C1484.833345 200.60000000000002 1476.083345 175.75 1443.708345 162.8L1419.208345 153.0C1401.708345 146.35000000000002 1401.125 139.35000000000002 1404.041655 125.70000000000002L1405.791655 117.65C1409.411425 100.9990628909 1420.666655 94.55000000000001 1442.25 94.55000000000001C1454.5 94.55000000000001 1458.583345 96.30000000000001 1467.916655 101.20000000000002L1464.604465 95.88C1463.3733750000001 99.80000000000001 1462.57177 101.34 1461.832325 102.74000000000001C1461.372495 102.03999999999999 1461.411695 100.92000000000002 1461.821685 99.24000000000001C1466.326745 97.56000000000003 1470.95406 95.88 1475.233895 94.20000000000002C1475.666215 86.22000000000003 1476.33748 76.70000000000002 1476.43716 69.56000000000003C1475.507595 66.76000000000002 1474.143715 64.38 1472.242865 62.00000000000003C1467.72076 56.54000000000002 1459.311485 49.68000000000001 1444.583345 48.00000000000003Z" fill="#1a1a1a"/><line x1="20" y1="382.5" x2="1520.0" y2="382.5" stroke="#eee" stroke-width="0.5"/><text x="20" y="553.75" font-size="11" font-family="sans-serif" font-weight="bold" fill="#555">SemiCasual</text><path d="M150.75 387.5C150.0208275 399.75 148.5625 412.175 146.2291725 425.3C134.5625 490.75 115.895845 548.85 105.9791725 607.475C103.6458275 626.025 110.0625 633.9 119.97915499999999 633.9C130.0416725 633.9 139.9583275 633.375 149.4375 632.5C157.1666725 554.45 180.9375 489.175 194.354155 412.70000000000005C196.9791725 395.375 193.625 386.1 181.6666725 386.1C171.3125 386.1 161.5416725 386.45000000000005 150.75 387.5ZM135.145845 490.75C135.145845 490.75 129.604155 515.425 129.604155 515.425C127.125 527.5 128.2916725 538.35 136.0208275 538.35C136.0208275 538.35 237.375 538.35 237.375 538.35C237.375 538.35 241.45834499999998 496.0 241.45834499999998 496.0C241.45834499999998 496.0 231.5416725 497.75 231.5416725 497.75C226.2916725 493.55 219.2916725 490.75 209.9583275 490.75C209.9583275 490.75 135.145845 490.75 135.145845 490.75ZM252.54167249999998 632.5C252.3958275 620.775 254.0 608.35 256.625 593.825C268.2916725 529.6 286.2291725 471.15 296.2916725 413.4C298.0416725 401.15 298.041655 386.1 282.875 386.1C272.375 386.1 263.1875 386.45000000000005 252.10417249999998 387.32500000000005C245.39584499999998 463.1 218.5625 538.0 207.041655 610.975C205.2916725 626.725 212.145845 633.9 220.75 633.9C231.83334499999998 633.9 242.7708275 633.375 252.54167249999998 632.5Z" fill="#1a1a1a"/><path d="M357.6875 596.975C363.8125 549.025 377.666655 511.925 386.125 467.475C388.458345 455.4 387.875 442.625 384.375 435.625C384.375 435.625 388.8958275 423.025 388.8958275 423.025C388.8958275 423.025 349.0833275 423.025 349.0833275 423.025C342.9583275 469.225 328.9583275 508.25 320.6458275 552.525C318.3125 564.6 319.041655 577.55 322.395845 584.375C322.395845 584.375 317.875 596.975 317.875 596.975C317.875 596.975 357.6875 596.975 357.6875 596.975ZM383.9375 632.5C386.7083275 622.7 389.1875 613.075 391.5208275 601.875C394.0 591.2 390.2083275 582.275 375.333345 582.275C375.333345 582.275 283.458345 582.275 283.458345 582.275C280.5416725 592.775 277.625 604.15 275.145845 616.05C273.25 625.5 276.1666725 632.5 283.6041725 632.5C283.6041725 632.5 383.9375 632.5 383.9375 632.5ZM323.7083275 387.5C320.9375 397.3 318.458345 406.925 316.125 418.125C313.6458275 428.8 317.5833275 437.725 332.458345 437.725C332.458345 437.725 424.3333275 437.725 424.3333275 437.725C427.25 427.225 430.166655 415.85 432.6458275 403.95000000000005C434.6875 394.5 431.7708275 387.5 424.3333275 387.5C424.3333275 387.5 323.7083275 387.5 323.7083275 387.5Z" fill="#1a1a1a"/><path d="M496.229155 589.8C481.9375 589.8 472.02081 586.125 459.916655 573.875H456.125C453.0625 583.85 450.4375 592.95 447.8125 605.725C446.0625 614.3 447.375 620.075 450.4375 623.925C456.708345 632.325 472.166655 639.5 494.333345 639.5C537.5 639.5 560.541655 616.05 573.666655 564.425C585.963345 506.03975 598.632645 445.88525000000004 610.9293 387.5C610.9293 384.70000000000005 606.5669 383.3 595.660935 383.3C591.298535 383.3 586.936135 383.3 582.57377 383.3C571.66777 383.3 567.305405 384.70000000000005 567.305405 387.5C567.305405 387.5 567.305405 387.5 567.305405 387.5C567.305405 387.5 567.305405 387.5 567.305405 387.5C555.64085 442.30475 543.622865 498.77025000000003 531.958345 553.575C529.041655 566.35 525.6875 575.275 520.729155 582.275C513.729155 587.875 506.583345 589.8 496.229155 589.8Z" fill="#1a1a1a"/><path d="M738.8958275 492.32500000000005C738.8958275 492.32500000000005 697.625 545.525 697.625 545.525C697.625 545.525 711.625 547.625 711.625 547.625C711.7708275 569.675 712.645845 581.225 719.791655 604.325C727.520845 629.0 735.6875 636.875 752.895845 636.875C760.1875 636.875 764.125 635.65 767.479155 632.85C770.6875 630.05 773.3125 624.975 774.7708275 618.15C776.375 611.15 779.145845 594.875 780.604155 583.15C780.604155 583.15 776.8125 583.15 776.8125 583.15C774.7465199999999 584.375 773.4826525 584.725 770.3958275 584.725C761.354155 584.725 758.0 580.7 755.0833275 569.675C748.2291725 544.3 743.125 521.025 738.8958275 492.32500000000005ZM802.0416725 385.75C802.0416725 385.75 773.75 385.75 773.75 385.75C762.8125 409.9 748.8125 434.925 735.25 455.4C721.8333275 475.525 712.2083275 488.65 701.2708275 504.575C701.2708275 504.575 689.0208275 499.32500000000005 689.0208275 499.32500000000005C689.0208275 499.32500000000005 672.833345 578.95 672.833345 578.95C717.3125 537.3 772.4375 481.3 802.1875 435.1C815.75 414.275 818.375 407.275 820.125 398.875C822.0208275 389.6 813.854155 385.75 802.0416725 385.75ZM674.2916725 387.5C673.5625 399.75 672.1041725 412.175 669.770845 425.3C658.1041725 490.75 639.4375 548.85 629.5208275 607.475C627.1875 626.025 633.6041725 633.9 643.5208275 633.9C653.583345 633.9 662.9166725 633.375 672.3958275 632.5C680.125 554.45 703.895845 489.175 717.3125 412.70000000000005C719.9375 395.20000000000005 716.5833275 386.1 704.625 386.1C694.2708275 386.1 685.0833275 386.45000000000005 674.2916725 387.5Z" fill="#1a1a1a"/><path d="M828.5833275 632.5C828.5833275 632.5 921.625 632.5 921.625 632.5C927.1666725 607.475 923.375 583.15 904.2708275 583.15C904.2708275 583.15 853.9583275 583.15 853.9583275 583.15C863.0 528.025 881.8125 472.55 892.3125 412.525C894.5 397.65 892.3125 386.1 879.1875 386.1C868.8333275 386.1 858.4791725 386.275 847.5416725 387.5C847.25 398.875 846.229155 411.82500000000005 843.895845 424.775C832.9583275 483.75 817.2083275 538.875 805.1041725 598.2C801.75 614.825 813.2708275 632.5 828.5833275 632.5Z" fill="#1a1a1a"/><path d="M1021.0833275 632.5C1022.5416725 612.2 1026.041655 590.325 1030.5625 568.975C1036.8333275 538.7 1043.25 504.05 1051.270845 460.3C1051.270845 460.3 1042.8125 472.725 1042.8125 472.725C1042.8125 472.725 1062.5 470.8 1062.5 470.8C1062.5 470.8 1052.4375 460.3 1052.4375 460.3C1054.1875 505.975 1059.145845 546.925 1063.5208275 578.075C1065.270845 585.95 1069.2083275 590.15 1074.6041725 590.15C1081.604155 590.15 1088.3125 589.975 1095.1666725 588.925C1116.1666725 553.4 1139.5 509.475 1161.8125 461.35C1161.8125 461.35 1147.6666725 470.275 1147.6666725 470.275C1147.6666725 470.275 1167.3541725 472.9 1167.3541725 472.9C1167.3541725 472.9 1162.5416725 459.07500000000005 1162.5416725 459.07500000000005C1154.5208275 506.85 1146.2083275 540.625 1140.5208275 564.25C1136.0 582.8 1132.5 598.2 1130.020845 614.65C1129.0 628.125 1135.2708275 633.9 1144.604155 633.9C1156.4166725 633.9 1167.0625 633.375 1175.5208275 632.5C1175.8125 621.475 1176.9791725 610.1 1179.1666725 595.75C1189.375 536.775 1203.2291725 475.175 1213.4375 413.75C1215.625 394.675 1207.75 386.1 1193.3125 386.1C1181.9375 386.1 1164.291655 386.45000000000005 1152.333345 387.5C1133.375 434.05 1111.5 482.175 1090.791655 518.575C1090.791655 518.575 1104.791655 507.2 1104.791655 507.2C1104.791655 507.2 1084.8125 505.625 1084.8125 505.625C1084.8125 505.625 1094.875 519.45 1094.875 519.45C1092.104155 482.0 1089.9166725 443.15 1088.1666725 412.525C1087.875 396.07500000000005 1079.708345 386.1 1062.9375 386.1C1050.1041725 386.1 1034.3541725 386.45000000000005 1023.416655 387.5C1022.541655 398.70000000000005 1020.9375 411.65 1018.75 424.25C1007.2291725 489.875 988.2708275 548.675 978.3541725 607.475C976.166655 626.025 983.4583275 633.9 991.916655 633.9C1001.6875 633.9 1012.0416725 633.375 1021.0833275 632.5Z" fill="#1a1a1a"/><path d="M1273.229155 530.65C1273.229155 530.65 1236.7708275 546.925 1236.7708275 546.925C1238.8125 569.5 1241.5833275 589.45 1246.6875 610.275C1251.361715 629.2893597892325 1260.5026125 636.875 1278.7708275 636.875C1283.291655 636.875 1287.8125 635.475 1290.7291725 632.675C1294.229155 629.7 1297.0 624.45 1298.6041725 616.75C1300.9677575 605.4299982454 1302.89778 594.41643630952 1304.5833275 583.325C1304.5833275 583.325 1300.7916725 583.325 1300.7916725 583.325C1298.3125 584.55 1296.125 585.075 1292.916655 585.075C1286.7243675 585.075 1283.322175 582.1194461945474 1280.8125 571.775C1277.458345 558.125 1275.270845 544.3 1273.229155 530.65ZM1195.8579625 387.5C1193.1998175 398.0 1190.6875 408.32500000000005 1188.4668725 419.525C1186.030785 430.9 1186.7637375 436.85 1191.284565 436.85C1202.8431925 436.85 1229.4791725 433.35 1256.0208275 433.35C1265.7916725 433.35 1272.0625 434.75 1277.3125 438.07500000000005C1278.7708275 442.275 1279.208345 448.925 1277.3125 458.025C1277.3125 458.025 1274.25 471.85 1274.25 471.85C1268.270845 500.55 1254.5625 513.15 1237.3541725 513.15C1226.854155 513.15 1220.5833275 512.625 1211.9791725 510.35C1211.9791725 510.35 1201.770845 557.775 1201.770845 557.775C1201.770845 557.775 1212.5625 553.75 1212.5625 553.75C1220.5833275 556.9 1231.2291725 557.95 1239.979155 557.95C1279.0625 557.95 1308.520845 529.425 1320.1875 473.07500000000005C1320.1875 473.07500000000005 1322.8125 460.65 1322.8125 460.65C1330.9791725 420.925 1315.5208275 384.0 1261.416655 384.0C1236.479155 384.0 1214.1666725 385.225 1195.8579625 387.5ZM1200.3125 632.5C1200.604155 622.175 1201.9166725 610.275 1203.9583275 598.55C1212.270845 551.825 1226.2708275 510.7 1233.125 466.6C1235.0131975 453.5483163585525 1235.3125 441.4 1233.708345 430.9C1233.708345 430.9 1239.25 419.35 1239.25 419.35C1239.25 419.35 1198.125 422.5 1198.125 422.5C1186.6041725 493.55 1167.7916725 545.175 1156.4166725 610.45C1154.6666725 623.925 1157.7291725 633.9 1170.7083275 633.9C1180.9166725 633.9 1190.3958275 633.55 1200.3125 632.5Z" fill="#1a1a1a"/><path d="M1449.541655 380.5C1410.458345 380.5 1372.530175 409.03774 1363.208345 453.125L1360.729155 464.675C1356.354155 486.20000000000005 1358.833345 515.775 1396.604155 532.575L1421.104155 543.6C1434.958345 549.725 1439.625 556.55 1437.4375 568.275L1435.833345 576.15C1430.291655 583.675 1419.0625 589.625 1401.854155 589.625C1371.8125 589.625 1354.604155 579.65 1341.1875 562.85H1337.395845C1334.916655 570.375 1331.708345 581.575 1329.083345 595.225C1327.1875 604.85 1328.354155 612.2 1332.0 616.75C1340.020845 627.775 1362.333345 639.5 1396.604155 639.5C1439.916655 639.5 1466.458345 624.275 1475.0625 583.325L1477.395845 572.125C1482.208345 549.025 1477.833345 521.2 1444.0 506.325L1419.208345 495.475C1402.729155 488.3 1400.25 480.07500000000005 1402.875 467.475L1404.041655 462.05C1408.184885 442.524515 1426.5 428.45000000000005 1446.625 428.45000000000005C1456.979155 428.45000000000005 1460.916655 430.20000000000005 1467.770845 435.45000000000005L1467.9447949999999 431.89473499999997C1464.774915 431.27947 1462.44283 434.304205 1461.51456 436.90894000000003C1460.5742500000001 438.88367500000004 1461.999625 439.598445 1466.3041349999999 437.86314500000003C1469.628715 436.12791500000003 1473.017205 434.112615 1476.05825 431.81735000000003C1476.01009 424.20212000000004 1476.31753 416.516855 1476.928385 408.13159C1476.684995 403.03632500000003 1475.24898 397.87106000000006 1471.87596 393.47579500000006C1467.39841 387.82053 1460.841965 382.235265 1449.541655 380.5Z" fill="#1a1a1a"/><line x1="20" y1="715.0" x2="1520.0" y2="715.0" stroke="#eee" stroke-width="0.5"/><text x="20" y="886.25" font-size="11" font-family="sans-serif" font-weight="bold" fill="#555">Casual</text><path d="M149.875 720.0C151.041655 731.9 150.75 744.5 148.708345 758.15C139.375 821.15 116.333345 869.45 110.5 918.8C106.416655 953.8 118.083345 967.8 136.166655 967.8C141.708345 967.8 147.25 966.75 151.625 965.0C150.458345 889.05 181.083345 839.35 191.291655 766.55C195.958345 733.65 190.125 717.2 168.25 717.2C162.125 717.2 156.875 717.9 149.875 720.0ZM117.208345 826.75 115.16665499999999 835.5C110.5 857.9 112.25 877.5 125.66665499999999 877.5H229.791655L237.95834499999998 838.3L228.33334499999998 840.75C223.958345 832.35 216.083345 826.75 203.541655 826.75ZM255.75 965.0C253.125 952.75 253.416655 941.2 255.75 926.15C265.083345 865.25 286.958345 815.9 293.083345 767.95C296.0 745.55 297.166655 717.2 268.583345 717.2C262.166655 717.2 258.083345 717.9 250.5 719.65C253.70834499999998 791.05 216.958345 860.0 210.541655 925.8C207.625 955.55 220.458345 967.8 235.625 967.8C243.20834499999998 967.8 250.791655 966.75 255.75 965.0Z" fill="#1a1a1a"/><path d="M357.541655 923.7C360.166655 875.05 377.666655 849.5 384.666655 808.2C387.583345 791.75 383.791655 778.8 375.333345 772.5L380.291655 761.3H348.5C346.166655 806.1 328.375 835.5 321.375 876.8C318.458345 893.6 322.541655 906.2 330.708345 912.5L325.75 923.7ZM387.583345 965.0C389.916655 960.8 391.666655 956.6 393.125 949.6C397.5 930.0 390.791655 914.25 363.083345 914.25H280.833345C278.208345 919.85 275.583345 927.55 273.833345 935.95C270.333345 952.75 275.0 965.0 288.125 965.0ZM320.791655 720.0C318.458345 724.2 316.708345 728.4 315.25 735.4C310.875 755.0 317.875 770.75 345.583345 770.75H427.541655C430.166655 765.15 432.791655 757.45 434.541655 749.05C438.041655 732.25 433.375 720.0 420.25 720.0Z" fill="#1a1a1a"/><path d="M498.125 921.6C485.291655 921.6 473.041655 916.7 460.5 902.35H458.75C455.833345 907.95 453.208345 913.2 450.875 924.4C447.375 940.5 450.0 951.0 455.833345 958.0C463.708345 967.45 476.25 972.0 498.416655 972.0C540.125 972.0 562.291655 949.25 577.166655 900.25C589.7610549999999 840.7675 602.737095 779.4825000000001 615.331495 720.0C615.331495 717.2 610.9433 715.8 599.97276 715.8C595.58453 715.8 591.196335 715.8 586.808105 715.8C575.8376 715.8 571.44937 717.2 571.44937 720.0C571.44937 720.0 571.44937 720.0 571.44937 720.0C571.44937 720.0 571.44937 720.0 571.44937 720.0C559.47608 775.44 547.139945 832.56 535.166655 888.0C532.25 899.9 529.041655 908.65 524.375 916.35C516.5 920.2 509.5 921.6 498.125 921.6Z" fill="#1a1a1a"/><path d="M746.041655 832.0 705.208345 872.6 712.208345 876.8C711.625 898.85 713.083345 918.8 718.916655 938.75C725.333345 961.15 734.375 972.0 748.958345 972.0C756.833345 972.0 762.375 969.55 767.041655 963.95C771.708345 958.35 775.208345 949.25 777.541655 938.4C780.166655 926.85 780.458345 919.15 780.166655 911.8H778.416655C775.5 914.25 773.458345 914.95 768.5 914.95C760.041655 914.95 755.375 908.3 752.166655 895.0C747.208345 874.7 745.75 858.95 746.041655 832.0ZM784.25 716.5H777.25C769.375 744.15 758.291655 768.3 745.166655 788.6C731.75 808.9 716.875 825.7 701.125 839.7L690.916655 829.2L675.458345 891.5C709.0 884.15 771.416655 837.6 797.666655 790.7C810.791655 767.95 815.166655 755.0 818.375 739.95C821.875 722.8 806.416655 716.5 784.25 716.5ZM674.875 720.0C676.041655 731.9 675.75 744.5 673.708345 758.15C664.375 821.15 641.333345 869.45 635.5 918.8C631.416655 953.8 643.083345 967.8 661.166655 967.8C666.708345 967.8 672.25 966.75 676.625 965.0C675.458345 889.05 706.083345 839.35 716.291655 766.55C720.958345 733.65 715.125 717.2 693.25 717.2C687.125 717.2 681.875 717.9 674.875 720.0Z" fill="#1a1a1a"/><path d="M853.375 965.0H918.125C926.875 939.8 926.583345 914.25 905.875 914.25H850.75C855.416655 868.4 879.625 821.85 887.208345 766.2C891.0 738.55 887.5 717.2 863.291655 717.2C857.166655 717.2 850.75 717.55 843.458345 720.0C845.208345 731.2 845.791655 745.2 843.458345 759.55C835.875 808.9 818.666655 850.2 808.75 900.25C802.625 931.4 824.5 965.0 853.375 965.0Z" fill="#1a1a1a"/><path d="M1024.0 965.0C1022.833345 943.3 1026.041655 918.8 1031.0 895.0C1038.291655 859.65 1044.416655 829.2 1053.458345 787.2L1043.833345 801.55L1062.208345 797.7L1052.291655 786.5C1052.583345 838.3 1058.708345 880.65 1064.25 903.4C1067.458345 916.7 1073.875 924.75 1083.5 924.75C1087.291655 924.75 1090.208345 924.4 1093.708345 922.3C1115.0 892.2 1141.25 843.9 1164.875 788.6L1150.0 796.65L1168.083345 801.9L1162.833345 784.75C1160.791655 825.7 1151.166655 862.1 1144.75 885.55C1139.5 904.8 1136.0 918.1 1134.833345 933.15C1133.083345 958.0 1144.75 967.8 1161.666655 967.8C1171.583345 967.8 1179.458345 966.75 1183.25 965.0C1181.208345 954.5 1181.208345 943.3 1183.25 926.15C1189.375 877.15 1202.5 822.9 1208.625 768.65C1212.708345 732.6 1197.833345 717.2 1170.708345 717.2C1163.416655 717.2 1156.416655 717.9 1147.958345 720.0C1131.625 769.7 1112.666655 814.85 1091.666655 842.5L1104.791655 834.8L1086.125 831.65L1097.208345 844.25C1093.416655 812.05 1093.125 786.5 1093.125 761.65C1093.125 735.75 1077.958345 717.2 1048.5 717.2C1034.5 717.2 1028.083345 717.9 1019.916655 720.0C1020.791655 730.85 1019.916655 744.85 1017.875 758.5C1009.125 821.15 985.791655 869.8 980.25 918.8C976.166655 953.8 989.875 967.8 1005.041655 967.8C1011.166655 967.8 1019.333345 966.75 1024.0 965.0Z" fill="#1a1a1a"/><path d="M1271.041655 863.15 1238.666655 885.55C1237.5 908.3 1237.791655 925.45 1242.75 944.7C1247.416655 962.9 1258.208345 972.0 1273.666655 972.0C1280.666655 972.0 1286.791655 969.2 1291.458345 963.6C1296.416655 957.65 1300.5 948.55 1303.125 935.6C1304.875 927.9 1305.75 921.25 1305.75 913.9H1304.0C1300.5 916.35 1297.0 917.4 1292.041655 917.4C1283.583345 917.4 1278.333345 912.5 1275.125 899.2C1272.208345 887.3 1271.333345 875.05 1271.041655 863.15ZM1188.791655 720.0C1186.458345 726.3 1184.416655 732.25 1182.958345 739.95C1178.583345 760.25 1180.333345 770.75 1189.375 770.75C1196.47804 770.75 1223.5 763.75 1250.625 763.75C1263.75 763.75 1272.791655 765.15 1280.375 768.3C1280.666655 773.55 1280.083345 780.55 1278.333345 788.95L1277.166655 794.2C1268.708345 835.15 1249.166655 852.3 1228.75 852.3C1217.666655 852.3 1215.041655 851.25 1207.75 846.7L1196.958345 895.35L1215.041655 889.05C1220.291655 895.35 1230.208345 897.45 1236.916655 897.45C1272.208345 897.45 1308.958345 861.4 1323.25 793.15L1324.125 788.95C1331.125 755.35 1315.375 713.0 1257.041655 713.0C1232.541655 713.0 1213.0 715.45 1188.791655 720.0ZM1203.375 965.0C1201.916655 954.15 1202.208345 942.25 1203.666655 931.4C1210.083345 886.6 1229.916655 843.2 1234.291655 799.45C1235.73474 785.596632717105 1233.416655 774.25 1227.583345 766.9L1232.833345 754.3L1199.291655 760.6C1191.708345 828.5 1167.5 868.4 1160.208345 924.75C1157.0 949.25 1162.25 967.8 1186.166655 967.8C1192.0 967.8 1198.125 967.1 1203.375 965.0Z" fill="#1a1a1a"/><path d="M1454.5 713.0C1416.291655 713.0 1371.083345 750.8 1361.458345 797.35L1360.291655 802.95C1355.916655 823.6 1357.083345 851.6 1397.916655 871.55L1422.125 883.45C1433.791655 889.4 1439.916655 897.45 1437.875 909.7L1437.291655 913.2C1428.25 918.45 1416.583345 921.25 1405.208345 921.25C1371.375 921.25 1352.416655 910.4 1340.166655 890.45H1338.416655C1335.5 895.7 1332.583345 903.05 1331.125 911.8C1327.625 929.65 1330.25 943.3 1336.666655 951.0C1345.416655 961.5 1363.5 972.0 1398.5 972.0C1441.666655 972.0 1466.75 959.05 1474.916655 920.2L1476.083345 914.6C1479.583345 897.45 1479.583345 866.65 1444.291655 849.85L1419.208345 837.95C1403.75 830.25 1399.375 820.8 1401.708345 809.25L1402.291655 806.45C1406.958345 784.05 1432.333345 762.35 1451.0 762.35C1459.458345 762.35 1463.25 764.1 1467.625 769.7L1471.28516 767.90947C1466.176455 762.75894 1462.31389 767.26841 1461.196795 771.07788C1459.776005 775.727385 1462.58759 778.2768550000001 1470.786585 776.4863250000001C1472.930685 774.695795 1475.080385 772.345265 1476.88257 769.434735C1476.35393 762.184205 1476.29758 756.3336750000001 1477.41961 746.7031450000001C1477.862395 739.312615 1476.354245 731.36212 1471.509055 724.95159C1467.076025 719.10106 1462.372445 714.79053 1454.5 713.0Z" fill="#1a1a1a"/>
</svg>