<?xml version="1.0" encoding="UTF-8"?>
<svg xmlns="http://www.w3.org/2000/svg" width="1540.0" height="1057.5"
     viewBox="0 0 1540.0 1057.5">
<rect width="100%" height="100%" fill="white"/>
<text x="770.0" y="30" text-anchor="middle" font-size="14" font-family="sans-serif" font-weight="bold" fill="#333">Mono A Upright — Key glyphs close-up</text><text x="187.5" y="48" text-anchor="middle" font-size="10" font-family="sans-serif" fill="#999">H</text><text x="362.5" y="48" text-anchor="middle" font-size="10" font-family="sans-serif" fill="#999">I</text><text x="537.5" y="48" text-anchor="middle" font-size="10" font-family="sans-serif" fill="#999">J</text><text x="712.5" y="48" text-anchor="middle" font-size="10" font-family="sans-serif" fill="#999">K</text><text x="887.5" y="48" text-anchor="middle" font-size="10" font-family="sans-serif" fill="#999">L</text><text x="1062.5" y="48" text-anchor="middle" font-size="10" font-family="sans-serif" fill="#999">M</text><text x="1237.5" y="48" text-anchor="middle" font-size="10" font-family="sans-serif" fill="#999">R</text><text x="1412.5" y="48" text-anchor="middle" font-size="10" font-family="sans-serif" fill="#999">S</text><text x="20" y="221.25" font-size="11" font-family="sans-serif" font-weight="bold" fill="#555">Linear</text><path d="M123.91665499999999 55.00000000000003C123.91665499999999 66.55000000000001 123.91665499999999 78.10000000000002 123.91665499999999 89.65C123.91665499999999 158.25 123.91665499999999 227.55 123.91665499999999 296.15C123.91665499999999 298.6 125.08334500000001 300.0 127.125 300.0C130.916655 300.0 134.708345 300.0 138.5 300.0C138.5 219.85000000000002 138.5 139.0 138.5 58.85000000000002C138.5 56.400000000000006 137.333345 55.00000000000003 135.291655 55.00000000000003C131.5 55.00000000000003 127.70834500000001 55.00000000000003 123.91665499999999 55.00000000000003ZM134.416655 167.0V179.60000000000002C134.416655 182.05 135.583345 183.45 137.625 183.45H243.791655V163.5L237.375 167.0C234.45834499999998 167.0 231.25 167.0 228.33334499999998 167.0ZM251.08334499999998 300.0C251.08334499999998 288.45 251.08334499999998 276.55 251.08334499999998 265.0C251.08334499999998 196.4 251.08334499999998 127.45000000000002 251.08334499999998 58.85000000000002C251.08334499999998 56.400000000000006 249.916655 55.00000000000003 247.875 55.00000000000003C244.08334499999998 55.00000000000003 240.291655 55.00000000000003 236.5 55.00000000000003C236.5 135.15 236.5 216.0 236.5 296.15C236.5 298.6 237.666655 300.0 239.70834499999998 300.0C243.5 300.0 247.291655 300.0 251.08334499999998 300.0Z" fill="#1a1a1a"/><path d="M369.791655 293.0C369.791655 225.10000000000002 369.791655 157.20000000000002 369.791655 89.30000000000001C369.791655 81.60000000000002 369.791655 73.55000000000001 369.791655 65.85000000000002L371.541655 62.00000000000003H355.208345C355.208345 128.15 355.208345 194.3 355.208345 260.1C355.208345 269.9 355.208345 279.7 355.208345 289.15L354.333345 293.0ZM423.75 300.0C423.75 295.45 423.75 291.6 423.75 287.4C423.75 284.95 422.583345 283.55 420.541655 283.55H301.25C301.25 288.1 301.25 291.6 301.25 296.15C301.25 298.6 302.416655 300.0 304.458345 300.0ZM301.25 55.00000000000003C301.25 59.55000000000001 301.25 63.05000000000001 301.25 67.60000000000002C301.25 70.05000000000001 302.416655 71.45000000000002 304.458345 71.45000000000002H423.75C423.75 66.9 423.75 63.400000000000006 423.75 58.85000000000002C423.75 56.400000000000006 422.583345 55.00000000000003 420.541655 55.00000000000003Z" fill="#1a1a1a"/><path d="M525.833345 290.55C510.958345 290.55 499.583345 286.0 485.583345 274.1H482.083345C482.083345 278.65 482.083345 283.2 482.083345 287.75C482.083345 289.5 482.375 290.2 483.25 291.25C489.958345 299.3 507.458345 307.0 525.833345 307.0C572.791655 307.0 592.625 273.05 592.916655 224.75C592.916655 168.73250000000002 592.916655 111.01749999999998 592.916655 55.00000000000003C592.916655 52.20000000000002 591.4 50.80000000000001 587.60831 50.80000000000001C586.091655 50.80000000000001 584.575 50.80000000000001 583.058345 50.80000000000001C579.266655 50.80000000000001 577.75 52.20000000000002 577.75 55.00000000000003C577.75 55.00000000000003 577.75 55.00000000000003 577.75 55.00000000000003C577.75 55.00000000000003 577.75 55.00000000000003 577.75 55.00000000000003C577.75 110.67099999999999 577.75 168.029 577.75 223.7C577.75 246.45 573.375 263.6 563.75 275.15C555.291655 285.3 542.458345 290.55 525.833345 290.55Z" fill="#1a1a1a"/><path d="M702.291655 165.95000000000002 693.541655 186.25H701.708345C713.083345 215.65 728.25 242.95 749.25 279.35C758.291655 295.1 764.416655 300.0 778.416655 300.0C780.75 300.0 782.791655 300.0 785.125 300.0C787.166655 300.0 788.333345 298.6 788.333345 296.15C788.333345 293.7 788.333345 287.05 788.333345 282.5H785.416655C783.958345 282.5 782.208345 282.5 779.583345 282.5C771.708345 282.5 767.625 280.05 762.083345 270.6C742.25 235.60000000000002 722.125 200.95 702.291655 165.95000000000002ZM777.25 55.00000000000003H764.416655C747.791655 80.9 731.458345 106.80000000000001 714.833345 132.70000000000002C697.333345 160.70000000000002 679.541655 188.35000000000002 669.333345 212.5H661.166655V242.95C699.958345 183.10000000000002 740.5 120.45000000000002 766.166655 80.55000000000001C779.0 60.95000000000002 779.583345 59.55000000000001 779.583345 57.10000000000002C779.583345 56.05000000000001 778.708345 55.00000000000003 777.25 55.00000000000003ZM651.25 55.00000000000003C651.25 66.55000000000001 651.25 78.10000000000002 651.25 89.65C651.25 158.25 651.25 227.55 651.25 296.15C651.25 298.6 652.416655 300.0 654.458345 300.0C658.25 300.0 662.041655 300.0 665.833345 300.0C665.833345 219.85000000000002 665.833345 139.0 665.833345 58.85000000000002C665.833345 56.400000000000006 664.666655 55.00000000000003 662.625 55.00000000000003C658.833345 55.00000000000003 655.041655 55.00000000000003 651.25 55.00000000000003Z" fill="#1a1a1a"/><path d="M830.333345 300.0H952.833345C952.833345 293.7 949.041655 283.55 943.791655 283.55H841.708345C841.708345 208.65 841.708345 133.75 841.708345 58.85000000000002C841.708345 56.400000000000006 840.541655 55.00000000000003 838.5 55.00000000000003C834.708345 55.00000000000003 830.916655 55.00000000000003 827.125 55.00000000000003C827.125 66.55000000000001 827.125 78.45000000000002 827.125 90.0C827.125 123.60000000000002 827.125 217.05 827.125 296.15C827.125 298.6 828.291655 300.0 830.333345 300.0Z" fill="#1a1a1a"/><path d="M1011.166655 300.0C1011.166655 281.1 1011.166655 262.2 1011.166655 243.3C1011.166655 189.05 1010.875 126.75 1008.833345 72.50000000000003L1006.208345 79.5H1019.625L1010.875 72.85000000000002C1027.5 132.70000000000002 1048.208345 207.60000000000002 1054.333345 226.85000000000002C1055.208345 229.65 1056.666655 230.0 1057.833345 230.0C1061.625 230.0 1065.416655 230.0 1069.208345 230.0C1083.791655 179.95 1096.916655 134.10000000000002 1113.833345 74.25000000000003L1108.0 79.5H1119.083345L1116.166655 73.9C1114.125 127.80000000000001 1113.833345 189.4 1113.833345 243.3C1113.833345 260.8 1113.833345 278.65 1113.833345 296.15C1113.833345 298.6 1115.0 300.0 1117.041655 300.0C1119.083345 300.0 1122.875 300.0 1128.416655 300.0C1128.416655 288.1 1128.416655 276.2 1128.416655 264.3C1128.416655 196.05 1128.416655 66.20000000000002 1128.416655 58.85000000000002C1128.416655 56.400000000000006 1127.25 55.00000000000003 1125.208345 55.00000000000003C1120.708325 55.00000000000003 1110.041655 55.00000000000003 1105.666655 55.00000000000003C1091.666655 104.70000000000002 1077.083345 156.85000000000002 1059.0 223.0L1067.75 204.8H1057.833345L1066.0 223.0C1047.916655 157.55 1033.916655 109.95000000000002 1020.791655 62.00000000000003C1019.333345 56.400000000000006 1017.583345 55.00000000000003 1015.25 55.00000000000003C1010.583345 55.00000000000003 1001.36459 55.00000000000003 996.583345 55.00000000000003C996.583345 66.55000000000001 996.583345 78.10000000000002 996.583345 89.65C996.583345 158.25 996.583345 227.55 996.583345 296.15C996.583345 298.6 997.75 300.0 999.791655 300.0C1003.583345 300.0 1007.375 300.0 1011.166655 300.0Z" fill="#1a1a1a"/><path d="M1250.041655 183.8 1237.208345 192.2C1248.875 219.5 1260.833345 246.8 1272.5 274.1C1280.375 291.95 1289.125 300.0 1301.666655 300.0C1304.583345 300.0 1307.208345 300.0 1310.125 300.0C1312.166655 300.0 1313.333345 298.6 1313.333345 296.15C1313.333345 291.6 1313.333345 288.1 1313.333345 283.55H1310.416655C1308.958345 283.55 1307.208345 283.55 1304.583345 283.55C1296.708345 283.55 1292.041655 280.05 1286.791655 268.15C1274.541655 240.15 1262.291655 211.8 1250.041655 183.8ZM1179.166655 55.00000000000003C1179.166655 59.20000000000002 1179.166655 63.400000000000006 1179.166655 67.60000000000002C1179.166655 70.05000000000001 1179.166655 71.45000000000002 1179.166655 71.45000000000002C1188.696245 71.45000000000002 1215.041655 71.45000000000002 1241.875 71.45000000000002C1257.5018 71.45000000000002 1267.72369 76.21843166754502 1274.833345 84.75C1281.8187149999999 92.76800583755502 1285.041655 105.4 1285.041655 120.45000000000002V132.0C1285.041655 163.85000000000002 1270.75 181.0 1241.875 181.0C1224.083345 181.0 1206.291655 181.0 1188.5 181.0V200.60000000000002L1191.708345 197.45C1208.625 197.45 1225.833345 197.45 1242.75 197.45C1278.916655 197.45 1300.208345 172.95 1300.208345 133.4V119.05000000000001C1300.208345 78.80000000000001 1279.5 55.00000000000003 1242.75 55.00000000000003C1214.75 55.00000000000003 1186.75 55.00000000000003 1179.166655 55.00000000000003ZM1193.75 300.0C1193.75 288.8 1193.75 277.25 1193.75 265.0C1193.75 225.45 1193.75 186.25 1193.75 146.70000000000002C1193.75 119.75 1193.75 92.80000000000001 1193.75 65.85000000000002L1197.25 62.00000000000003H1179.166655C1179.166655 140.05 1179.166655 218.10000000000002 1179.166655 296.15C1179.166655 298.6 1180.333345 300.0 1182.375 300.0C1186.166655 300.0 1189.958345 300.0 1193.75 300.0Z" fill="#1a1a1a"/><path d="M1417.458345 49.400000000000006C1379.25 49.400000000000006 1351.25 74.03508771930501 1351.25 111.35000000000002V121.85000000000002C1351.25 153.35000000000002 1363.53045 169.735814246305 1398.208345 182.05L1426.791655 192.2C1455.059545 202.23797702978 1463.541655 211.45 1463.541655 233.85000000000002V240.85C1463.541655 272.0 1443.24036 289.15 1412.208345 289.15C1385.375 289.15 1368.166655 283.2 1350.958345 265.0H1347.458345C1347.458345 269.55 1347.458345 273.989024390255 1347.458345 278.65C1347.458345 280.75 1347.75 282.15 1349.208345 283.9C1359.88478 296.71172119584 1383.598225 305.6 1412.208345 305.6C1454.208345 305.6 1478.416655 279.889759036145 1478.416655 241.9V230.7C1478.416655 199.2918032787 1464.432895 186.58036384055504 1429.125 174.35000000000002L1400.833345 164.55C1373.41536 155.052634494855 1365.833345 141.8 1365.833345 119.75V113.10000000000002C1365.833345 84.4 1386.71536 65.85000000000002 1417.458345 65.85000000000002C1442.25 65.85000000000002 1459.458345 72.50000000000003 1469.083345 85.10000000000002L1464.994365 83.97261500000002C1464.036555 81.72526500000001 1463.04154 86.89788000000001 1461.991995 91.93053C1460.872065 91.78314500000002 1460.1345099999999 91.21579500000001 1459.65109 90.08841000000001C1459.762705 88.96106000000003 1459.7633 87.83367500000003 1459.64969 86.70632500000002C1457.9052550000001 79.84467999999998 1456.049765 72.97159000000002 1454.089345 66.10420500000004C1452.033025 63.99685500000001 1449.65908 62.44947000000005 1446.74813 60.48212000000001C1440.515925 54.594735000000014 1429.929895 50.52738500000001 1417.458345 49.400000000000006Z" fill="#1a1a1a"/><line x1="20" y1="382.5" x2="1520.0" y2="382.5" stroke="#eee" stroke-width="0.5"/><text x="20" y="553.75" font-size="11" font-family="sans-serif" font-weight="bold" fill="#555">SemiCasual</text><path d="M124.0625 387.15C124.9375 399.05 125.0833275 410.95000000000005 125.0833275 423.20000000000005C125.0833275 491.625 125.0833275 559.0 125.0833275 627.425C125.0833275 631.8 128.2916725 633.375 132.5208275 633.375C134.854155 633.375 137.333345 633.375 139.6666725 633.375C139.6666725 554.8 139.6666725 477.625 139.6666725 399.05C139.6666725 391.35 137.4791725 386.625 132.229155 386.625C129.4583275 386.625 126.83334500000001 386.8 124.0625 387.15ZM124.5 513.5C124.5 513.5 124.5 521.55 124.5 521.55C124.5 526.625 126.25 530.475 129.4583275 530.475C129.4583275 530.475 244.0833275 530.475 244.0833275 530.475C244.0833275 530.475 244.0833275 511.575 244.0833275 511.575C244.0833275 511.575 236.6458275 515.95 236.6458275 515.95C233.14584499999998 514.2 228.7708275 513.5 223.8125 513.5C223.8125 513.5 124.5 513.5 124.5 513.5ZM252.39584499999998 632.85C251.52084499999998 620.95 251.375 608.875 251.375 596.625C251.375 528.2 251.375 461.0 251.375 392.57500000000005C251.375 388.20000000000005 248.166655 386.625 243.9375 386.625C241.60417249999998 386.625 239.125 386.625 236.79167249999998 386.625C236.79167249999998 465.20000000000005 236.79167249999998 542.375 236.79167249999998 620.95C236.79167249999998 629.7 239.416655 633.375 244.22917249999998 633.375C247.0 633.375 249.625 633.2 252.39584499999998 632.85Z" fill="#1a1a1a"/><path d="M369.791655 624.625C369.791655 557.075 369.791655 489.35 369.791655 424.07500000000005C369.791655 416.025 369.2083275 408.675 367.75 402.375C367.75 402.375 370.8125 395.375 370.8125 395.375C370.8125 395.375 355.208345 395.375 355.208345 395.375C355.208345 462.05 355.208345 528.9 355.208345 593.125C355.208345 602.225 355.7916725 610.45 357.25 617.625C357.25 617.625 354.625 624.625 354.625 624.625C354.625 624.625 369.791655 624.625 369.791655 624.625ZM426.6666725 632.5C426.6666725 629.7 426.6666725 627.075 426.6666725 624.45C426.6666725 618.5 424.9166725 615.525 421.7083275 615.525C421.7083275 615.525 298.7708275 615.525 298.7708275 615.525C298.4791725 618.5 298.3333275 621.3 298.3333275 624.625C298.3333275 629.175 300.229155 632.5 303.583345 632.5C303.583345 632.5 426.6666725 632.5 426.6666725 632.5ZM298.7708275 387.5C298.4791725 390.475 298.3333275 393.275 298.3333275 396.6C298.3333275 401.15 300.229155 404.475 303.583345 404.475C303.583345 404.475 426.375 404.475 426.375 404.475C426.5208275 401.5 426.6666725 398.70000000000005 426.6666725 395.725C426.6666725 390.3 424.9166725 387.5 421.7083275 387.5C421.7083275 387.5 298.7708275 387.5 298.7708275 387.5Z" fill="#1a1a1a"/><path d="M526.125 622.525C506.875 622.525 495.9375 618.15 481.208345 604.5H478.583345C478.145845 608.175 478.0 612.025 478.0 615.875C478.0 619.375 478.875 621.65 480.479155 623.575C488.5 633.2 506.875 639.5 524.958345 639.5C570.75 639.5 590.583345 607.65 591.020845 555.325C591.020845 499.94275 591.020845 442.88225 591.020845 387.5C591.020845 384.70000000000005 589.533345 383.3 585.814595 383.3C584.327095 383.3 582.839595 383.3 581.352095 383.3C577.633345 383.3 576.145845 384.70000000000005 576.145845 387.5C576.145845 387.5 576.145845 387.5 576.145845 387.5C576.145845 387.5 576.145845 387.5 576.145845 387.5C576.145845 442.47800000000007 576.145845 499.122 576.145845 554.1C576.145845 579.65 572.645845 595.05 564.479155 607.475C554.854155 617.975 541.729155 622.525 526.125 622.525Z" fill="#1a1a1a"/><path d="M702.1458275 502.65C702.1458275 502.65 693.104155 521.375 693.104155 521.375C693.104155 521.375 699.375 521.375 699.375 521.375C707.833345 543.425 727.6666725 580.175 747.7916725 613.425C757.854155 630.05 765.1458275 636.0 777.6875 636.0C781.7708275 636.0 784.6875 635.125 787.0208275 633.725C789.0625 632.5 790.083345 630.225 790.083345 627.075C790.083345 624.1 789.9375 618.85 789.645845 615.0C789.645845 615.0 787.604155 615.0 787.604155 615.0C785.270845 617.45 782.208345 618.5 778.125 618.5C771.4166725 618.5 766.6041725 615.175 760.625 604.85C741.2291725 570.725 721.5416725 536.775 702.1458275 502.65ZM773.6041725 385.75C773.6041725 385.75 765.729155 385.75 765.729155 385.75C750.125 423.025 732.9166725 452.07500000000005 713.6666725 476.925C697.9430625 498.4030780384275 681.729155 519.1 668.458345 536.075C668.458345 536.075 660.291655 536.075 660.291655 536.075C660.291655 536.075 660.291655 560.925 660.291655 560.925C704.4791725 518.4 743.2708275 467.125 766.8958275 420.75C778.8541725 398.0 779.875 393.8 779.875 390.475C779.875 388.725 778.708345 385.75 773.6041725 385.75ZM650.2291725 386.275C651.1041725 398.175 651.25 410.07500000000005 651.25 422.32500000000005C651.25 490.75 651.25 559.875 651.25 628.3C651.25 632.675 654.4583275 634.25 658.6875 634.25C661.0208275 634.25 663.5 634.25 665.833345 634.25C665.833345 555.675 665.833345 476.75 665.833345 398.175C665.833345 391.4958333333275 664.666655 385.75 658.3958275 385.75C655.625 385.75 653.0 385.925 650.2291725 386.275Z" fill="#1a1a1a"/><path d="M835.0 632.5C835.0 632.5 949.333345 632.5 949.333345 632.5C949.333345 624.1 946.5625 615.525 941.4583275 615.525C941.4583275 615.525 842.7291725 615.525 842.7291725 615.525C842.7291725 543.075 842.7291725 471.32500000000005 842.7291725 398.875C842.7291725 393.275 841.854155 386.45000000000005 835.5833275 386.45000000000005C832.520845 386.45000000000005 829.8958275 386.625 827.125 386.975C828.0 398.875 828.1458275 408.32500000000005 828.1458275 422.5C828.1458275 471.85 828.1458275 551.475 828.1458275 621.3C828.1458275 627.6 830.7708275 632.5 835.0 632.5Z" fill="#1a1a1a"/><path d="M1012.041655 634.25C1012.041655 612.725 1012.041655 591.025 1012.041655 569.5C1012.041655 518.05 1011.8958275 463.45000000000005 1010.875 406.75C1010.875 406.75 1007.8125 414.8 1007.8125 414.8C1007.8125 414.8 1018.75 414.8 1018.75 414.8C1018.75 414.8 1012.0416725 406.57500000000005 1012.0416725 406.57500000000005C1026.625 478.5 1044.4166725 541.15 1055.9375 560.925C1057.1041725 563.2 1058.5625 563.725 1060.3125 563.725C1062.6458275 563.725 1064.979155 563.725 1067.3125 563.725C1084.5208275 523.475 1101.0 470.975 1112.958345 403.95000000000005C1112.958345 403.95000000000005 1108.2916725 414.8 1108.2916725 414.8C1108.2916725 414.8 1117.333345 414.8 1117.333345 414.8C1117.333345 414.8 1114.125 405.70000000000005 1114.125 405.70000000000005C1113.1041725 463.45000000000005 1112.958345 518.925 1112.958345 571.425C1112.958345 589.1 1112.958345 607.125 1112.958345 624.8C1112.958345 631.8 1115.2916725 634.25 1120.3958275 634.25C1122.2916725 634.25 1125.2083275 634.075 1128.854155 633.725C1127.979155 621.65 1127.541655 609.575 1127.541655 597.15C1127.541655 528.9 1127.541655 427.925 1127.541655 399.925C1127.541655 389.95000000000005 1125.2083275 386.625 1117.770845 386.625C1113.770835 386.625 1106.8333275 386.8 1103.3333275 387.5C1092.8333275 447.70000000000005 1077.8125 500.025 1058.5625 554.45C1058.5625 554.45 1067.3125 539.925 1067.3125 539.925C1067.3125 539.925 1057.6875 539.925 1057.6875 539.925C1057.6875 539.925 1066.4375 554.45 1066.4375 554.45C1045.729155 500.9 1033.1875 446.65 1023.5625 400.45000000000005C1021.6666725 389.425 1017.4375 386.625 1012.1875 386.625C1007.8125 386.625 1001.1614675 386.975 996.4375 387.5C997.1666725 399.4 997.458345 411.125 997.458345 423.20000000000005C997.458345 491.625 997.458345 559.875 997.458345 628.3C997.458345 632.15 1000.6666725 634.25 1004.8958275 634.25C1007.2291725 634.25 1009.7083275 634.25 1012.041655 634.25Z" fill="#1a1a1a"/><path d="M1243.041655 531.35C1243.041655 531.35 1230.208345 539.75 1230.208345 539.75C1242.75 563.375 1255.4375 587.175 1267.9791725 610.8C1277.75 628.475 1286.7916725 636.0 1298.604155 636.0C1303.270845 636.0 1306.333345 635.125 1308.9583275 633.725C1311.1458275 632.325 1312.3125 629.875 1312.3125 626.725C1312.3125 622.525 1312.020845 619.375 1311.583345 615.35C1311.583345 615.35 1309.25 615.35 1309.25 615.35C1307.3541725 617.8 1304.2916725 619.025 1300.645845 619.025C1293.3541725 619.025 1287.666655 615.0 1281.3958275 603.625C1268.2708275 579.125 1256.166655 555.85 1243.041655 531.35ZM1179.166655 387.5C1179.166655 390.125 1179.166655 392.925 1179.166655 395.55C1179.166655 401.15 1179.166655 404.475 1179.166655 404.475C1184.514795 404.475 1208.1875 400.975 1236.4791725 400.975C1255.3759 400.975 1266.9035175 405.1092158337725 1277.1666725 415.32500000000005C1283.57603 424.05900291877754 1286.791655 436.675 1286.791655 453.82500000000005C1286.791655 453.82500000000005 1286.791655 462.05 1286.791655 462.05C1286.791655 503.525 1262.2916725 529.425 1224.9583275 529.425C1212.125 529.425 1201.041655 529.075 1189.375 527.85C1189.375 527.85 1189.375 546.05 1189.375 546.05C1189.375 546.05 1193.6041725 543.25 1193.6041725 543.25C1203.9583275 545.175 1214.6041725 546.225 1227.2916725 546.225C1268.7083275 546.225 1301.6666725 512.975 1301.6666725 463.625C1301.6666725 463.625 1301.6666725 452.25 1301.6666725 452.25C1301.6666725 409.025 1278.625 384.0 1237.2083275 384.0C1213.875 384.0 1189.8125 384.70000000000005 1179.166655 387.5ZM1195.3541725 633.025C1193.8958275 623.05 1193.75 615.525 1193.75 601.0C1193.75 550.775 1193.75 499.32500000000005 1193.75 451.375C1193.75 433.175 1193.1666725 416.9 1191.7083275 400.975C1191.7083275 400.975 1195.6458275 393.975 1195.6458275 393.975C1195.6458275 393.975 1179.166655 393.975 1179.166655 393.975C1179.166655 470.45000000000005 1179.166655 547.1 1179.166655 623.575C1179.166655 630.225 1182.083345 633.725 1186.4583275 633.725C1189.5208275 633.725 1192.2916725 633.55 1195.3541725 633.025Z" fill="#1a1a1a"/><path d="M1417.458345 381.9C1379.25 381.9 1351.25 406.535087719305 1351.25 443.85V454.35C1351.25 485.85 1363.53045 502.23581424630504 1398.208345 514.55L1426.791655 524.7C1455.059545 534.73797702978 1463.541655 543.95 1463.541655 566.35V573.35C1463.541655 604.5 1443.24036 621.65 1412.208345 621.65C1385.375 621.65 1368.166655 615.7 1350.958345 597.5H1347.458345C1347.458345 602.05 1347.458345 606.489024390255 1347.458345 611.15C1347.458345 613.25 1347.75 614.65 1349.208345 616.4C1359.88478 629.21172119584 1383.598225 638.1 1412.208345 638.1C1454.208345 638.1 1478.416655 612.389759036145 1478.416655 574.4V563.2C1478.416655 531.7918032787 1464.432895 519.080363840555 1429.125 506.85L1400.833345 497.05C1373.41536 487.552634494855 1365.833345 474.3 1365.833345 452.25V445.6C1365.833345 416.9 1386.71536 398.35 1417.458345 398.35C1442.25 398.35 1459.458345 405.0 1469.083345 417.6L1469.360685 417.313735C1468.851435 416.49658999999997 1467.627625 415.21097000000003 1465.762195 413.51941999999997C1463.329625 411.48431000000005 1460.406355 409.16814999999997 1457.07103 406.633415C1453.405025 403.94251 1449.492445 401.15791 1445.420545 398.34209C1441.27966 395.55749000000003 1437.16317 392.866585 1433.167535 390.33185000000003C1429.392155 388.01569 1425.938915 385.98058000000003 1422.912045 384.28903C1420.417735 383.00341000000003 1418.56361 382.18626500000005 1417.458345 381.9Z" fill="#1a1a1a"/><line x1="20" y1="715.0" x2="1520.0" y2="715.0" stroke="#eee" stroke-width="0.5"/><text x="20" y="886.25" font-size="11" font-family="sans-serif" font-weight="bold" fill="#555">Casual</text><path d="M124.20834500000001 719.3C125.95834500000001 731.55 126.25 743.8 126.25 756.75C126.25 825.0 126.25 890.45 126.25 958.7C126.25 965.0 131.5 966.75 137.916655 966.75C138.791655 966.75 139.958345 966.75 140.833345 966.75C140.833345 889.75 140.833345 816.25 140.833345 739.25C140.833345 726.3 137.625 718.25 129.166655 718.25C127.41665499999999 718.25 125.95834500000001 718.6 124.20834500000001 719.3ZM114.583345 860.0V863.5C114.583345 871.2 116.91665499999999 877.5 121.29165499999999 877.5H244.375V859.65L235.916655 864.9C231.83334499999998 861.4 226.291655 860.0 219.291655 860.0ZM253.70834499999998 965.7C251.95834499999998 953.45 251.666655 941.2 251.666655 928.25C251.666655 860.0 251.666655 794.55 251.666655 726.3C251.666655 720.0 246.416655 718.25 240.0 718.25C239.125 718.25 237.95834499999998 718.25 237.08334499999998 718.25C237.08334499999998 795.25 237.08334499999998 868.75 237.08334499999998 945.75C237.08334499999998 960.8 241.166655 966.75 248.75 966.75C250.5 966.75 251.95834499999998 966.4 253.70834499999998 965.7Z" fill="#1a1a1a"/><path d="M369.791655 956.25C369.791655 889.05 369.791655 821.5 369.791655 758.85C369.791655 750.45 368.625 743.8 365.708345 738.9L370.083345 728.75H355.208345C355.208345 795.95 355.208345 863.5 355.208345 926.15C355.208345 934.55 356.375 941.2 359.291655 946.1L354.916655 956.25ZM429.583345 965.0C429.583345 963.95 429.583345 962.55 429.583345 961.5C429.583345 952.05 427.25 947.5 422.875 947.5H296.291655C295.708345 948.9 295.416655 951.0 295.416655 953.1C295.416655 959.75 298.041655 965.0 302.708345 965.0ZM296.291655 720.0C295.708345 721.4 295.416655 723.5 295.416655 725.6C295.416655 732.25 298.041655 737.5 302.708345 737.5H429.0C429.291655 736.1 429.583345 734.0 429.583345 732.6C429.583345 724.2 427.25 720.0 422.875 720.0Z" fill="#1a1a1a"/><path d="M526.416655 954.5C502.791655 954.5 492.291655 950.3 476.833345 934.9H475.083345C474.208345 937.7 473.916655 940.85 473.916655 944.0C473.916655 949.25 475.375 953.1 477.708345 955.9C487.041655 967.1 506.291655 972.0 524.083345 972.0C568.708345 972.0 588.541655 942.25 589.125 885.9C589.125 831.153 589.125 774.747 589.125 720.0C589.125 717.2 587.666655 715.8 584.020845 715.8C582.5625 715.8 581.104155 715.8 579.64581 715.8C576.0 715.8 574.541655 717.2 574.541655 720.0C574.541655 720.0 574.541655 720.0 574.541655 720.0C574.541655 720.0 574.541655 720.0 574.541655 720.0C574.541655 774.2850000000001 574.541655 830.215 574.541655 884.5C574.541655 912.85 571.916655 926.5 565.208345 939.8C554.416655 950.65 541.0 954.5 526.416655 954.5Z" fill="#1a1a1a"/><path d="M702.0 839.35 692.666655 856.5H697.041655C702.583345 871.2 727.083345 917.4 746.333345 947.5C757.416655 965.0 765.875 972.0 776.958345 972.0C782.791655 972.0 786.583345 970.25 788.916655 967.45C790.958345 965.0 791.833345 961.85 791.833345 958.0C791.833345 954.5 791.541655 950.65 790.958345 947.5H789.791655C786.583345 952.4 782.208345 954.5 776.666655 954.5C771.125 954.5 765.583345 950.3 759.166655 939.1C740.208345 905.85 720.958345 872.6 702.0 839.35ZM769.958345 716.5H767.041655C752.458345 765.15 734.375 797.35 712.5 821.15C698.55278 836.1061560768551 683.916655 849.85 667.583345 859.65H659.416655V878.9C709.0 853.7 746.041655 813.8 767.625 760.95C778.708345 735.05 780.166655 728.05 780.166655 723.85C780.166655 721.4 778.708345 716.5 769.958345 716.5ZM649.208345 717.55C650.958345 729.8 651.25 742.05 651.25 755.0C651.25 823.25 651.25 892.2 651.25 960.45C651.25 966.75 656.5 968.5 662.916655 968.5C663.791655 968.5 664.958345 968.5 665.833345 968.5C665.833345 891.5 665.833345 814.5 665.833345 737.5C665.833345 726.591666666655 664.666655 716.5 654.166655 716.5C652.416655 716.5 650.958345 716.85 649.208345 717.55Z" fill="#1a1a1a"/><path d="M839.666655 965.0H945.833345C945.833345 954.5 944.083345 947.5 939.125 947.5H843.75C843.75 877.5 843.75 808.9 843.75 738.9C843.75 730.15 843.166655 717.9 832.666655 717.9C830.333345 717.9 828.875 718.25 827.125 718.95C828.875 731.2 829.166655 738.2 829.166655 755.0C829.166655 820.1 829.166655 885.9 829.166655 946.45C829.166655 956.6 833.25 965.0 839.666655 965.0Z" fill="#1a1a1a"/><path d="M1012.916655 968.5C1012.916655 944.35 1012.916655 919.85 1012.916655 895.7C1012.916655 847.05 1012.916655 800.15 1012.916655 741.0L1009.416655 750.1H1017.875L1013.208345 740.3C1025.75 824.3 1040.625 874.7 1057.541655 895.0C1059.0 896.75 1060.458345 897.45 1062.791655 897.45C1063.666655 897.45 1064.541655 897.45 1065.416655 897.45C1085.25 867.0 1105.083345 807.85 1112.083345 733.65L1108.583345 750.1H1115.583345L1112.083345 737.5C1112.083345 799.1 1112.083345 848.45 1112.083345 899.55C1112.083345 917.4 1112.083345 935.6 1112.083345 953.45C1112.083345 965.0 1115.583345 968.5 1123.75 968.5C1125.5 968.5 1127.541655 968.15 1129.291655 967.45C1127.541655 955.2 1126.666655 942.95 1126.666655 930.0C1126.666655 861.75 1126.666655 789.65 1126.666655 741.0C1126.666655 723.5 1123.166655 718.25 1110.333345 718.25C1106.833345 718.25 1103.625 718.6 1101.0 720.0C1094.0 790.7 1078.541655 843.2 1058.125 885.9L1066.875 875.05H1057.541655L1066.875 885.9C1043.541655 844.25 1032.458345 783.35 1026.333345 738.9C1024.0 722.45 1017.291655 718.25 1009.125 718.25C1005.041655 718.25 1000.958345 718.95 996.291655 720.0C997.75 732.25 998.333345 744.15 998.333345 756.75C998.333345 825.0 998.333345 892.2 998.333345 960.45C998.333345 965.7 1003.583345 968.5 1010.0 968.5C1010.875 968.5 1012.041655 968.5 1012.916655 968.5Z" fill="#1a1a1a"/><path d="M1236.041655 878.9 1223.208345 887.3C1236.625 907.25 1250.041655 927.55 1263.458345 947.5C1275.125 965.0 1284.458345 972.0 1295.541655 972.0C1301.958345 972.0 1305.458345 970.25 1307.791655 967.45C1310.125 964.65 1311.291655 961.15 1311.291655 957.3C1311.291655 953.45 1310.708345 950.65 1309.833345 947.15H1308.083345C1305.75 952.05 1301.375 954.5 1296.708345 954.5C1290.0 954.5 1283.291655 949.95 1276.0 939.1C1262.0 918.1 1250.041655 899.9 1236.041655 878.9ZM1179.166655 720.0C1179.166655 721.05 1179.166655 722.45 1179.166655 723.5C1179.166655 732.25 1179.166655 737.5 1179.166655 737.5C1180.333345 737.5 1201.333345 730.5 1231.083345 730.5C1253.25 730.5 1266.083345 734.0 1279.5 745.9C1285.333345 755.35 1288.541655 767.95 1288.541655 787.2V792.1C1288.541655 843.2 1253.833345 877.85 1208.041655 877.85C1200.166655 877.85 1195.791655 877.15 1190.25 874.7V891.5L1195.5 889.05C1199.291655 892.9 1203.375 895.0 1211.833345 895.0C1258.5 895.0 1303.125 853.0 1303.125 793.85V785.45C1303.125 739.25 1277.75 713.0 1231.666655 713.0C1213.0 713.0 1192.875 714.4 1179.166655 720.0ZM1196.958345 966.05C1194.041655 957.3 1193.75 953.8 1193.75 937.0C1193.75 876.1 1193.75 812.4 1193.75 756.05C1193.75 746.6 1192.583345 741.0 1189.666655 736.1L1194.041655 725.95H1179.166655C1179.166655 800.85 1179.166655 876.1 1179.166655 951.0C1179.166655 961.85 1183.833345 967.45 1190.541655 967.45C1192.875 967.45 1194.625 967.1 1196.958345 966.05Z" fill="#1a1a1a"/><path d="M1435.25 713.0C1394.125 713.0 1351.25 767.95 1351.25 811.7V815.2C1351.25 839.0 1364.958345 853.35 1404.041655 870.85L1429.125 882.05C1452.166655 892.2 1462.375 902.7 1465.0 917.05V918.1C1460.041655 939.8 1441.666655 951.7 1412.5 951.7C1382.75 951.7 1363.791655 940.85 1350.958345 919.5H1349.208345C1348.041655 923.35 1347.458345 927.2 1347.458345 932.45C1347.458345 938.05 1348.625 941.9 1352.416655 946.45C1364.375 960.8 1385.666655 969.2 1412.5 969.2C1451.291655 969.2 1477.833345 948.55 1477.833345 916.35V914.6C1477.833345 893.25 1462.666655 877.85 1432.333345 864.55L1407.541655 853.7C1371.083345 837.95 1365.833345 826.75 1365.833345 814.5V812.05C1365.833345 775.65 1403.166655 730.5 1435.25 730.5C1442.541655 730.5 1451.291655 731.55 1456.833345 738.2C1456.95 737.15 1456.95 736.1 1457.088915 735.1347350000001C1455.98127 729.8589400000001 1454.089345 724.023145 1450.02707 719.867385C1446.493575 716.41159 1442.10622 713.795795 1435.25 713.0Z" fill="#1a1a1a"/>
</svg>