<?xml version="1.0" encoding="UTF-8"?>
<svg xmlns="http://www.w3.org/2000/svg" width="1890.0" height="1057.5"
     viewBox="0 0 1890.0 1057.5">
<rect width="100%" height="100%" fill="white"/>
<text x="945.0" y="30" text-anchor="middle" font-size="14" font-family="sans-serif" font-weight="bold" fill="#333">Mono A Slanted — Key glyphs + features</text><text x="187.5" y="48" text-anchor="middle" font-size="10" font-family="sans-serif" fill="#999">J</text><text x="362.5" y="48" text-anchor="middle" font-size="10" font-family="sans-serif" fill="#999">S</text><text x="537.5" y="48" text-anchor="middle" font-size="10" font-family="sans-serif" fill="#999">L</text><text x="712.5" y="48" text-anchor="middle" font-size="10" font-family="sans-serif" fill="#999">Z</text><text x="887.5" y="48" text-anchor="middle" font-size="10" font-family="sans-serif" fill="#999">f</text><text x="1062.5" y="48" text-anchor="middle" font-size="10" font-family="sans-serif" fill="#999">i</text><text x="1237.5" y="48" text-anchor="middle" font-size="10" font-family="sans-serif" fill="#999">l</text><text x="1412.5" y="48" text-anchor="middle" font-size="10" font-family="sans-serif" fill="#999">r</text><text x="1587.5" y="48" text-anchor="middle" font-size="10" font-family="sans-serif" fill="#999">@</text><text x="1762.5" y="48" text-anchor="middle" font-size="10" font-family="sans-serif" fill="#999">fi</text><text x="20" y="221.25" font-size="11" font-family="sans-serif" font-weight="bold" fill="#555">Linear</text><path d="M161.833345 290.55C144.041655 290.55 133.25 286.0 121.583345 274.8H118.083345C117.208345 278.65 116.625 282.15 115.75 286.0C115.16665499999999 288.8 115.16665499999999 289.85 116.04165499999999 291.25C121.0 298.95 137.041655 307.0 160.375 307.0C202.958345 307.0 226.583345 286.0 238.25 227.9C250.16147999999998 170.84300000000002 262.43391499999996 112.05700000000002 274.345395 55.00000000000003C274.345395 52.20000000000002 272.83658 50.80000000000001 269.06456000000003 50.80000000000001C267.555745 50.80000000000001 266.04693 50.80000000000001 264.538115 50.80000000000001C260.766095 50.80000000000001 259.25728 52.20000000000002 259.25728 55.00000000000003C259.25728 55.00000000000003 259.25728 55.00000000000003 259.25728 55.00000000000003C259.25728 55.00000000000003 259.25728 55.00000000000003 259.25728 55.00000000000003C247.223615 112.40350000000001 234.82531999999998 171.5465 222.791655 228.95C219.0 247.85 212.875 261.85 204.416655 272.0C194.208345 284.6 180.208345 290.55 161.833345 290.55Z" fill="#1a1a1a"/><path d="M395.75 49.400000000000006C357.541655 49.400000000000006 331.875 67.25000000000003 324.583345 102.95000000000002L321.958345 116.25C316.125 143.9 324.291655 165.60000000000002 357.541655 178.2L384.083345 188.35000000000002C408.583345 197.8 414.125 209.7 408.583345 236.65L406.25 248.2C400.125 278.65 377.666655 289.85 349.666655 289.85C320.791655 289.85 304.458345 282.85 290.166655 262.2H286.666655C285.791655 265.35 285.208345 268.15 283.75 273.75C283.458345 275.15 283.458345 276.9 284.333345 278.3C293.375 292.65 313.791655 306.3 347.625 305.6C388.75 304.9 412.375 288.1 419.375 254.15L422.875 237.35C429.0 207.95 422.291655 186.60000000000002 391.666655 174.35000000000002L364.541655 164.20000000000002C335.958345 153.70000000000002 330.416655 140.05 335.375 117.30000000000001L338.291655 103.65C343.833345 77.75 364.541655 65.15 394.583345 65.15C419.375 65.15 437.75 72.15 444.75 85.10000000000002L440.666655 67.60000000000002C437.458345 83.0 434.25 98.05000000000001 431.041655 113.45000000000002C430.458345 116.25 431.333345 117.30000000000001 433.375 117.30000000000001C436.875 117.30000000000001 440.958345 117.30000000000001 444.458345 117.30000000000001C447.375 102.95000000000002 450.291655 88.95000000000002 453.208345 74.60000000000002C453.5 73.20000000000002 453.208345 72.15 451.75 70.05000000000001C444.458345 58.85000000000002 424.041655 49.400000000000006 395.75 49.400000000000006Z" fill="#1a1a1a"/><path d="M463.708345 300.0H577.458345C577.75 296.85 578.041655 294.05 578.333345 290.2C578.625 286.35 577.458345 284.95 574.833345 284.95H478.291655C494.041655 210.05 509.5 133.75 525.25 58.85000000000002C525.833345 57.10000000000002 525.25 55.00000000000003 522.916655 55.00000000000003C519.125 55.00000000000003 515.333345 55.00000000000003 511.541655 55.00000000000003C509.208345 66.55000000000001 506.583345 78.10000000000002 504.25 89.65C489.666655 158.25 475.666655 227.55 461.375 296.15C460.791655 298.6 461.666655 300.0 463.708345 300.0Z" fill="#1a1a1a"/><path d="M763.25 300.0C764.125 295.8 764.708345 293.0 765.875 288.1C766.458345 286.0 765.583345 284.25 763.25 284.25H688.875C673.125 284.25 659.125 284.25 643.958345 284.25V280.05C661.166655 261.85 679.833345 240.15 695.583345 219.85000000000002C751.0 149.15 796.208345 92.10000000000002 809.916655 74.25000000000003L813.416655 58.85000000000002C814.0 56.400000000000006 812.833345 55.00000000000003 811.083345 55.00000000000003H680.125C679.541655 58.50000000000003 678.666655 62.35000000000002 677.791655 66.20000000000002C676.916655 69.70000000000002 677.5 70.75000000000003 679.833345 70.75000000000003H739.625C763.25 70.75000000000003 774.041655 70.75000000000003 793.875 70.75000000000003V73.9C778.708345 90.70000000000002 767.333345 104.70000000000002 743.416655 135.15C685.666655 208.65 655.333345 245.4 627.041655 281.45L624.125 296.15C623.833345 298.25 624.708345 300.0 626.458345 300.0Z" fill="#1a1a1a"/><path d="M952.25 34.0C917.25 34.0 901.966655 53.25000000000003 895.666655 102.95000000000002C887.616655 167.35 879.391655 232.10000000000002 871.341655 296.5H881.316655L880.791655 292.65C881.316655 288.1 881.841655 283.9 882.366655 279.35C876.416655 220.9 888.666655 161.75 900.916655 103.30000000000001C904.708345 85.45000000000002 909.666655 72.50000000000003 916.958345 63.75000000000003C924.833345 54.30000000000001 935.333345 49.75000000000003 949.625 49.75000000000003C965.958345 49.75000000000003 978.5 54.30000000000001 986.958345 61.650000000000006H990.458345C991.333345 57.45000000000002 991.916655 55.00000000000003 992.791655 50.80000000000001C993.083345 49.400000000000006 993.083345 48.35000000000002 992.208345 47.30000000000001C989.875 44.150000000000006 974.708345 34.0 952.25 34.0ZM862.475 115.9C861.775 120.10000000000002 861.425 123.25 860.9 127.45000000000002C860.55 130.25 861.425 131.3 862.475 131.3H962.166655C963.041655 127.10000000000002 963.625 123.95000000000002 964.5 119.75C965.083345 116.95000000000002 963.916655 115.9 962.166655 115.9ZM870.0 300.0C870.0 300.0 870.0 300.0 870.0 300.0C870.0 300.0 870.0 300.0 870.0 300.0C870.0 300.0 870.0 300.0 870.0 300.0C870.0 300.0 870.0 300.0 870.0 300.0Z" fill="#1a1a1a"/><path d="M1017.583345 115.9C1016.708345 119.75 1015.833345 123.95000000000002 1014.958345 127.80000000000001C1014.375 130.25 1015.541655 131.65 1017.291655 131.65C1034.208345 131.65 1051.416655 131.65 1068.625 131.65H1072.708345C1063.666655 173.65 1055.791655 212.5 1046.75 256.95C1042.083345 279.7 1047.041655 300.0 1077.375 300.0C1085.833345 300.0 1102.458345 300.0 1104.208345 300.0C1105.666655 300.0 1107.708345 299.65 1108.291655 296.15C1109.166655 291.6 1109.75 288.45 1110.625 284.25H1107.125C1097.791655 284.25 1088.75 284.25 1079.416655 284.25C1069.791655 284.25 1065.416655 282.85 1062.5 279.35C1058.708345 274.8 1058.416655 269.55 1061.041655 257.3C1070.958345 209.7 1080.0 165.60000000000002 1089.625 119.75C1090.208345 116.95000000000002 1089.041655 115.9 1087.291655 115.9C1063.958345 115.9 1040.916655 115.9 1017.583345 115.9ZM1077.84169 49.400000000000006C1077.84169 59.45186000000001 1085.98983 67.60000000000002 1096.04169 67.60000000000002C1106.09355 67.60000000000002 1114.24169 59.45186000000001 1114.24169 49.400000000000006C1114.24169 39.34814 1106.09355 31.200000000000045 1096.04169 31.200000000000045C1085.98983 31.200000000000045 1077.84169 39.34814 1077.84169 49.400000000000006Z" fill="#1a1a1a"/><path d="M1209.5 37.5C1208.625 41.35000000000002 1207.75 45.55000000000001 1206.875 49.400000000000006C1206.291655 51.85000000000002 1207.458345 53.25000000000003 1209.208345 53.25000000000003C1226.125 53.25000000000003 1243.625 53.25000000000003 1260.541655 53.25000000000003H1264.625C1250.041655 121.5 1236.333345 184.5 1221.75 256.95C1217.083345 279.7 1222.041655 300.0 1252.375 300.0C1260.833345 300.0 1277.458345 300.0 1279.208345 300.0C1280.666655 300.0 1282.708345 299.65 1283.291655 296.15C1284.166655 291.6 1284.75 288.45 1285.625 284.25H1282.125C1272.791655 284.25 1263.75 284.25 1254.416655 284.25C1244.791655 284.25 1240.416655 282.85 1237.5 279.35C1233.708345 274.8 1233.416655 269.55 1236.041655 257.3C1251.5 182.4 1266.375 113.45000000000002 1281.541655 41.35000000000002C1282.125 38.55000000000001 1280.958345 37.5 1279.208345 37.5C1255.875 37.5 1232.833345 37.5 1209.5 37.5Z" fill="#1a1a1a"/><path d="M1364.375 115.9C1363.5 120.10000000000002 1362.625 123.95000000000002 1361.75 128.15C1361.458345 130.60000000000002 1362.333345 132.0 1364.375 132.0C1374.0 132.0 1383.625 132.0 1393.25 132.0H1397.625C1386.25 186.60000000000002 1374.583345 241.55 1363.208345 296.15C1362.625 298.6 1363.5 300.0 1365.541655 300.0C1369.333345 300.0 1373.125 300.0 1376.916655 300.0C1379.541655 288.1 1381.875 276.2 1384.5 264.65C1392.375 226.5 1400.25 189.05 1408.125 150.55C1408.416655 150.20000000000002 1412.5 115.9 1412.208345 115.9C1396.458345 115.9 1380.125 115.9 1364.375 115.9ZM1470.833345 114.15C1451.291655 114.15 1432.041655 123.25 1412.208345 147.75H1404.916655L1399.375 173.65C1431.166655 137.95000000000002 1450.416655 130.25 1467.625 130.25C1472.875 130.25 1476.666655 130.95000000000002 1480.458345 132.35000000000002C1477.833345 146.0 1475.5 156.85000000000002 1472.875 169.1L1472.0 173.3C1475.791655 173.3 1479.583345 173.3 1483.375 173.3C1485.416655 173.3 1486.875 171.9 1487.458345 169.45000000000002L1496.5 125.70000000000002C1496.791655 124.30000000000001 1496.791655 122.9 1495.625 121.5C1493.291655 118.70000000000002 1484.541655 114.15 1470.833345 114.15Z" fill="#1a1a1a"/><path d="M1540.541655 125.70000000000002 1507.875 281.8C1497.666655 331.15 1517.791655 362.65 1557.458345 362.65C1584.291655 362.65 1601.208345 352.15 1604.125 349.35C1605.875 347.6 1606.458345 346.9 1606.75 344.45C1607.625 340.95 1608.208345 337.45 1609.083345 333.95H1605.583345C1590.416655 342.35 1576.708345 346.2 1560.083345 346.2C1543.166655 346.2 1531.5 342.0 1525.375 332.2C1518.083345 320.3 1518.083345 303.15 1522.458345 281.45L1554.833345 126.05000000000001C1563.291655 85.80000000000001 1582.541655 61.30000000000001 1614.333345 61.30000000000001C1632.416655 61.30000000000001 1643.791655 66.20000000000002 1650.5 76.70000000000002C1657.791655 88.25 1657.791655 103.65 1653.125 125.35000000000002C1644.083345 168.4 1629.5 239.1 1620.458345 282.15C1619.875 284.25 1621.041655 286.0 1622.791655 286.0H1634.166655C1634.75 283.55 1635.333345 280.75 1635.916655 278.3C1644.375 236.65 1658.958345 167.35 1667.708345 125.70000000000002C1677.916655 76.35000000000002 1659.833345 44.85000000000002 1617.25 44.85000000000002C1575.25 44.85000000000002 1550.75 76.35000000000002 1540.541655 125.70000000000002ZM1639.708345 224.4C1616.083345 266.05 1602.083345 272.7 1587.791655 272.7C1572.916655 272.7 1568.541655 261.15 1572.916655 239.8L1579.916655 206.9C1583.416655 190.45 1590.125 179.25 1595.958345 173.65C1602.375 167.35 1612.291655 162.45000000000002 1627.166655 162.45000000000002C1634.166655 162.45000000000002 1648.166655 162.45000000000002 1652.541655 162.45000000000002L1655.75 146.0H1651.083345C1646.416655 146.0 1635.625 146.0 1630.375 146.0C1595.083345 146.0 1573.5 168.05 1565.333345 206.55L1558.333345 240.15C1551.625 271.65 1560.958345 289.5 1584.875 289.5C1598.291655 289.5 1609.083345 283.2 1619.291655 270.95H1630.375Z" fill="#1a1a1a"/><path d="M1659.833345 349.7C1658.958345 353.9 1658.083345 358.1 1657.208345 362.3C1656.625 364.75 1657.5 366.15 1659.541655 366.15C1661.583345 366.15 1678.5 366.15 1690.166655 366.15C1717.583345 366.15 1729.541655 352.15 1735.375 323.45C1750.25 251.0 1768.333345 165.95000000000002 1781.458345 103.30000000000001C1784.958345 86.15 1789.916655 73.20000000000002 1797.5 64.10000000000002C1805.375 54.650000000000006 1816.75 49.400000000000006 1831.625 49.400000000000006C1842.125 49.400000000000006 1850.875 51.150000000000006 1859.041655 54.650000000000006C1857.0 64.45000000000002 1855.833345 70.75000000000003 1852.625 85.45000000000002L1852.041655 88.25C1855.833345 88.25 1859.333345 88.25 1863.125 88.25C1864.583345 88.25 1865.75 87.20000000000002 1866.041655 85.45000000000002L1873.916655 48.35000000000002C1874.208345 46.95000000000002 1874.208345 46.25000000000003 1873.625 45.55000000000001C1870.416655 41.69999999999999 1853.5 34.0 1834.25 34.0C1798.666655 34.0 1777.083345 53.95000000000002 1766.291655 105.4C1753.458345 167.0 1735.958345 249.95 1721.375 320.3C1719.041655 331.85 1716.125 338.85 1711.458345 343.4C1706.5 347.95 1699.791655 349.7 1690.458345 349.7C1681.125 349.7 1672.666655 349.7 1663.333345 349.7ZM1709.125 169.8C1708.25 174.0 1707.375 176.8 1706.791655 181.0C1706.208345 183.10000000000002 1707.375 184.85000000000002 1709.125 184.85000000000002H1825.5C1826.375 180.65 1826.958345 177.85000000000002 1827.833345 173.65C1828.416655 171.20000000000002 1827.25 169.8 1825.5 169.8ZM1892.583345 115.9C1891.708345 119.75 1890.833345 123.95000000000002 1889.958345 127.80000000000001C1889.375 130.25 1890.541655 131.65 1892.291655 131.65C1909.208345 131.65 1926.416655 131.65 1943.625 131.65H1947.708345C1938.666655 173.65 1930.791655 212.5 1921.75 256.95C1917.083345 279.7 1922.041655 300.0 1952.375 300.0C1960.833345 300.0 1977.458345 300.0 1979.208345 300.0C1980.666655 300.0 1982.708345 299.65 1983.291655 296.15C1984.166655 291.6 1984.75 288.45 1985.625 284.25H1982.125C1972.791655 284.25 1963.75 284.25 1954.416655 284.25C1944.791655 284.25 1940.416655 282.85 1937.5 279.35C1933.708345 274.8 1933.416655 269.55 1936.041655 257.3C1945.958345 209.7 1955.0 165.60000000000002 1964.625 119.75C1965.208345 116.95000000000002 1964.041655 115.9 1962.291655 115.9C1938.958345 115.9 1915.916655 115.9 1892.583345 115.9ZM1952.84169 49.400000000000006C1952.84169 59.45186000000001 1960.98983 67.60000000000002 1971.04169 67.60000000000002C1981.09355 67.60000000000002 1989.24169 59.45186000000001 1989.24169 49.400000000000006C1989.24169 39.34814 1981.09355 31.200000000000045 1971.04169 31.200000000000045C1960.98983 31.200000000000045 1952.84169 39.34814 1952.84169 49.400000000000006Z" fill="#1a1a1a"/><line x1="20" y1="382.5" x2="1870.0" y2="382.5" stroke="#eee" stroke-width="0.5"/><text x="20" y="553.75" font-size="11" font-family="sans-serif" font-weight="bold" fill="#555">SemiCasual</text><path d="M163.145845 622.875C143.020845 622.875 132.083345 618.5 119.97915499999999 605.9H117.645845C116.625 608.7 115.895845 611.325 115.16665499999999 614.475C114.29165499999999 618.5 115.020845 621.825 116.91665499999999 624.275C123.1875 632.675 139.375 639.5 162.125 639.5C203.833345 639.5 223.666655 620.95 238.39584499999998 563.9C250.573045 505.688 263.11924999999997 445.712 275.29645 387.5C275.29645 384.70000000000005 273.848115 383.3 270.22733 383.3C268.77903 383.3 267.330695 383.3 265.882395 383.3C262.26161 383.3 260.813275 384.70000000000005 260.813275 387.5C260.813275 387.5 260.813275 387.5 260.813275 387.5C260.813275 387.5 260.813275 387.5 260.813275 387.5C248.45865999999998 445.30775 235.72965 504.86725 223.375 562.675C217.541655 585.075 212.875 595.75 203.25 609.05C192.3125 618.5 179.1875 622.875 163.145845 622.875Z" fill="#1a1a1a"/><path d="M405.666655 381.20000000000005C365.416655 381.20000000000005 328.375 411.65 319.916655 452.6L318.020845 462.05C312.479155 488.82500000000005 321.8125 508.95 356.083345 523.825L380.729155 534.5C403.041655 544.3 410.1875 555.85 406.25 577.2L404.9375 583.675C398.375 609.225 376.354155 621.3 348.9375 621.3C318.3125 621.3 302.708345 613.25 290.166655 592.6H287.833345C286.229155 595.75 285.354155 598.55 284.1875 603.625C283.604155 606.95 284.041655 610.275 286.229155 613.25C295.270845 626.2 314.083345 637.75 347.625 637.4C384.958345 637.05 410.770845 620.775 417.479155 588.05L419.520845 578.425C424.916655 553.05 416.166655 533.275 387.145845 520.5L362.354155 510.0C332.020845 497.05 327.791655 482.35 331.583345 464.32500000000005L333.479155 455.225C340.041655 422.675 373.291655 397.475 404.208345 397.475C421.708345 397.475 433.520845 401.85 441.395845 411.82500000000005L436.729155 399.57500000000005C437.604155 417.425 431.041655 431.775 426.666655 451.725C425.0625 458.9 426.8125 463.8 431.479155 463.8C434.104155 463.8 436.729155 463.625 439.0625 463.275C441.541655 446.65 445.333345 435.1 449.416655 417.07500000000005C451.166655 409.55 450.291655 402.025 445.916655 396.6C439.645845 387.85 425.5 381.20000000000005 405.666655 381.20000000000005Z" fill="#1a1a1a"/><path d="M471.875 632.5C471.875 632.5 578.0416725 632.5 578.0416725 632.5C578.7708275 629.875 579.2083275 627.425 579.5 624.625C580.2291725 619.025 578.4791725 616.575 575.125 616.575C575.125 616.575 478.5833275 616.575 478.5833275 616.575C487.3333275 546.925 510.5208275 475.175 523.6458275 406.225C526.270845 391.35 525.3958275 385.75 520.1458275 385.75C517.0833275 385.75 514.458345 385.925 511.541655 386.275C510.375 398.875 509.0625 407.625 506.0 423.725C493.166655 487.425 474.6458275 546.225 464.0 609.925C462.104155 624.275 464.0 632.5 471.875 632.5Z" fill="#1a1a1a"/><path d="M764.125 632.5C764.8541725 629.525 765.4375 627.075 766.1666725 623.75C767.0416725 619.9 765.583345 616.225 760.4791725 616.225C760.4791725 616.225 692.2291725 616.225 692.2291725 616.225C676.625 616.225 662.4791725 616.575 646.4375 616.925C646.4375 616.925 646.4375 613.6 646.4375 613.6C664.8125 596.975 684.645845 577.025 701.270845 557.775C766.411865 483.1968888892275 802.770845 423.025 811.5208275 405.35C811.5208275 405.35 813.416655 396.95000000000005 813.416655 396.95000000000005C814.4375 392.05 810.0625 387.5 803.5 387.5C803.5 387.5 680.125 387.5 680.125 387.5C679.541655 389.775 678.8125 392.57500000000005 678.0833275 395.55C676.916655 400.625 677.2083275 403.775 681.0 403.775C681.0 403.775 740.0625 403.775 740.0625 403.775C760.9166725 403.775 774.479155 403.95000000000005 794.75 403.425C794.75 403.425 795.1875 405.875 795.1875 405.875C783.8125 423.725 772.875 441.225 754.9375 465.725C709.0 529.775 668.895845 573.875 627.041655 614.475C627.041655 614.475 625.1458275 623.575 625.1458275 623.575C624.125 628.125 625.7291725 632.5 631.4166725 632.5C631.4166725 632.5 764.125 632.5 764.125 632.5Z" fill="#1a1a1a"/><path d="M952.1041725 366.5C913.0208275 366.5 899.254155 385.225 892.254155 437.9C883.066655 507.9 880.004155 550.6 858.129155 624.45C858.129155 624.45 877.816655 624.45 877.816655 624.45C877.816655 624.45 876.941655 619.375 876.941655 619.375C878.166655 615.35 879.216655 610.8 880.004155 605.2C876.5625 546.75 883.2708275 502.65 896.25 443.15C901.3541725 419.875 906.166655 405.35 913.895845 395.55C923.375 386.8 934.458345 382.775 949.7708275 382.775C965.6666725 382.775 978.0625 387.675 987.833345 394.85C987.833345 394.85 990.458345 394.85 990.458345 394.85C991.333345 391.875 991.916655 389.6 992.5 386.625C993.2291725 382.425 993.083345 380.675 991.333345 378.57500000000005C988.4166725 374.90000000000003 973.1041725 366.5 952.1041725 366.5ZM861.075 448.4C860.6375 451.025 860.375 453.3 860.025 456.1C859.325 461.35 860.375 464.5 862.2125 464.5C862.2125 464.5 961.729155 464.5 961.729155 464.5C962.3125 461.70000000000005 962.75 459.425 963.3333275 456.625C964.3541725 451.55 963.041655 448.4 959.541655 448.4C959.541655 448.4 861.075 448.4 861.075 448.4ZM870.0 632.5C870.0 632.5 870.0 632.5 870.0 632.5C870.0 632.5 870.0 632.5 870.0 632.5C870.0 632.5 870.0 632.5 870.0 632.5C870.0 632.5 870.0 632.5 870.0 632.5C870.0 632.5 870.0 632.5 870.0 632.5C870.0 632.5 870.0 632.5 870.0 632.5Z" fill="#1a1a1a"/><path d="M1014.375 453.82500000000005C1013.3541725 456.8 1012.625 459.6 1011.895845 462.925C1011.0208275 467.3 1012.479155 470.45000000000005 1015.541655 470.45000000000005C1029.833345 470.45000000000005 1048.9375 463.45000000000005 1070.5208275 461.525C1070.5208275 461.525 1073.4375 462.4 1073.4375 462.4C1065.6004575 504.335324114285 1051.125 537.65 1042.6666725 584.025C1037.125 615.175 1048.791655 635.3 1075.9166725 635.3C1089.770845 635.3 1105.375 631.975 1110.770845 626.55C1113.8333275 623.75 1116.3125 620.6 1117.1875 615.175C1117.9273475 611.08592574997 1118.2214175 607.2270339328575 1118.3541725 602.75C1118.3541725 602.75 1115.7291725 602.75 1115.7291725 602.75C1103.916655 614.65 1091.8125 619.55 1077.5208275 619.55C1067.2424125 619.55 1061.8398124999999 616.6286620468825 1057.6875 610.625C1054.932265 603.0217053042024 1054.791425 595.9622959046775 1057.104155 583.15C1064.9962175 541.21971525645 1082.0294925 498.0365804127375 1088.8958275 456.275C1089.625 450.675 1085.979155 446.65 1081.75 446.65C1061.0416725 446.65 1038.291655 448.75 1014.375 453.82500000000005ZM1076.383345 382.95000000000005C1076.383345 382.95000000000005 1076.383345 382.95000000000005 1076.383345 382.95000000000005C1076.383345 393.00186 1084.531485 401.15 1094.583345 401.15C1104.635205 401.15 1112.783345 393.00186 1112.783345 382.95000000000005C1112.783345 382.95000000000005 1112.783345 382.95000000000005 1112.783345 382.95000000000005C1112.783345 372.89814 1104.635205 364.75 1094.583345 364.75C1084.531485 364.75 1076.383345 372.89814 1076.383345 382.95000000000005Z" fill="#1a1a1a"/><path d="M1201.7708275 375.425C1200.6041725 378.4 1199.875 381.20000000000005 1199.1458275 384.525C1198.2708275 388.9 1199.7291725 392.05 1202.7916725 392.05C1217.1653675 392.05 1233.4206625 385.15713965433497 1262.875 382.25C1262.875 382.25 1265.6458275 382.775 1265.6458275 382.775C1254.568415 450.6221917524275 1226.8541725 510.525 1213.875 580.35C1207.75 614.125 1220.0 635.3 1250.0416725 635.3C1264.0416725 635.3 1279.3541725 631.8 1284.895845 626.2C1287.9583275 623.4 1290.4375 620.25 1291.3125 614.825C1292.041655 610.8 1292.3333275 607.125 1292.4791725 602.75C1292.4791725 602.75 1289.8541725 602.75 1289.8541725 602.75C1278.041655 614.65 1265.9375 619.55 1251.6458275 619.55C1239.8333275 619.55 1232.979155 616.75 1228.6041725 610.275C1225.6875 601.35 1225.3958275 593.825 1228.3125 579.125C1241.0 514.9 1270.8980325 442.94946624787497 1280.8125 379.8C1281.5416725 372.27500000000003 1278.0416725 368.25 1272.645845 368.25C1247.8929525 368.25 1223.77762 371.1801140912575 1201.7708275 375.425Z" fill="#1a1a1a"/><path d="M1358.5416725 451.9C1357.5208275 454.875 1356.6458275 457.85 1355.9166725 461.175C1355.0416725 465.9 1356.5 468.35 1359.5625 468.35C1367.875 468.35 1376.1875 464.5 1392.5208275 461.35C1392.5208275 461.35 1395.4375 462.225 1395.4375 462.225C1386.25 516.825 1371.520845 566.875 1362.770845 618.5C1361.3125 629.875 1363.9375 633.55 1368.75 633.55C1371.6666725 633.55 1374.4375 633.375 1377.2083275 632.85C1377.9375 621.475 1378.9583275 611.325 1381.4375 596.625C1387.2708275 563.55 1396.0208275 530.825 1402.7291725 497.57500000000005C1408.5625 468.0 1410.8958275 446.65 1405.9375 446.65C1390.333345 446.65 1376.0416725 448.225 1358.5416725 451.9ZM1468.7916725 445.07500000000005C1449.25 445.07500000000005 1425.7708275 464.675 1405.9375 495.65C1405.9375 495.65 1398.6458275 493.9 1398.6458275 493.9C1398.6458275 493.9 1390.625 535.55 1390.625 535.55C1421.25 484.975 1448.5208275 462.225 1466.4583275 462.225C1472.4375 462.225 1476.9583275 463.975 1480.75 468.175C1478.4166725 483.05 1475.3541725 494.07500000000005 1469.9583275 507.025C1469.9583275 507.025 1469.5208275 510.175 1469.5208275 510.175C1472.4375 510.525 1475.208345 510.7 1477.9791725 510.7C1483.5208275 510.7 1487.3125 505.45 1489.5 496.0C1489.5 496.0 1494.6041725 471.675 1494.6041725 471.675C1495.916655 465.725 1494.604155 458.025 1490.375 452.95000000000005C1487.0208275 448.925 1479.875 445.07500000000005 1468.7916725 445.07500000000005Z" fill="#1a1a1a"/><path d="M1529.3125 497.225C1529.3125 497.225 1512.6875 576.85 1512.6875 576.85C1499.125 647.025 1516.625 695.325 1566.645845 695.325C1586.479155 695.325 1602.6666725 688.325 1607.3333275 684.65C1610.9791725 681.85 1612.145845 678.0 1612.2916725 673.8C1612.7291725 671.7 1613.020845 669.425 1613.458345 667.325C1613.458345 667.325 1610.833345 667.325 1610.833345 667.325C1595.9583275 675.025 1581.958345 678.35 1567.520845 678.35C1554.25 678.35 1545.0625 676.075 1536.8958275 669.425C1523.1875 655.25 1518.8125 620.775 1527.125 577.9C1527.125 577.9 1543.75 497.925 1543.75 497.925C1556.1458275 435.1 1587.5 394.15 1623.375 394.15C1636.354155 394.15 1645.25 396.95000000000005 1651.375 403.775C1658.5208275 415.675 1658.9583275 431.6 1654.1458275 460.475C1646.8541725 502.475 1631.3958275 568.275 1625.4166725 607.65C1624.5416725 615.7 1626.875 619.55 1633.4375 619.55C1633.4375 619.55 1640.0 619.55 1640.0 619.55C1639.5625 614.125 1639.8541725 610.1 1640.875 600.475C1646.5625 563.55 1661.7291725 497.75 1668.7291725 460.3C1678.5 405.70000000000005 1663.0416725 377.175 1624.3958275 377.175C1579.7708275 377.175 1542.5833275 428.275 1529.3125 497.225ZM1640.145845 564.075C1619.2916725 597.85 1605.7291725 605.375 1592.166655 605.375C1576.854155 605.375 1571.8958275 586.65 1577.875 557.6C1577.875 557.6 1581.5208275 540.45 1581.5208275 540.45C1585.75 520.325 1592.3125 507.025 1600.9166725 497.4C1606.6041725 493.20000000000005 1614.1875 490.4 1625.2708275 490.4C1634.166655 490.4 1646.416655 493.725 1651.666655 498.625C1651.666655 498.625 1655.6041725 480.25 1655.6041725 480.25C1655.6041725 480.25 1650.5 480.25 1650.5 480.25C1645.3958275 476.75 1635.3333275 473.95000000000005 1627.6041725 473.95000000000005C1597.8541725 473.95000000000005 1575.6875 497.05 1566.9375 538.7C1566.9375 538.7 1563.0 557.6 1563.0 557.6C1554.8333275 596.275 1564.458345 622.525 1588.5208275 622.525C1603.104155 622.525 1613.3125 616.575 1623.666655 602.925C1623.666655 602.925 1632.7083275 602.925 1632.7083275 602.925C1632.7083275 602.925 1640.145845 564.075 1640.145845 564.075Z" fill="#1a1a1a"/><path d="M1656.4791725 673.625C1654.875 677.3 1653.8541725 680.45 1652.9791725 684.65C1652.25 687.975 1653.4166725 691.825 1656.479155 694.275C1660.125 697.425 1672.6666725 699.35 1684.625 699.35C1713.9375 699.35 1730.125 681.675 1737.5625 647.55C1751.2708275 583.675 1760.895845 507.725 1774.75 443.32500000000005C1779.4166725 421.45000000000005 1785.979155 406.75 1794.0 397.125C1802.3125 387.15 1813.25 382.6 1827.3958275 382.6C1838.9166725 382.6 1848.25 385.925 1855.541655 392.05C1853.0625 408.85 1848.395845 419.175 1840.0833275 430.9C1840.0833275 430.9 1839.791655 433.35 1839.791655 433.35C1842.708345 434.225 1845.4791725 434.57500000000005 1848.3958275 434.57500000000005C1854.8125 434.57500000000005 1861.0833275 428.625 1863.5625 418.475C1863.5625 418.475 1868.0833275 397.65 1868.0833275 397.65C1869.833345 390.82500000000005 1869.25 384.175 1865.0208275 379.1C1859.916655 372.975 1845.0416725 366.5 1829.0 366.5C1793.7083275 366.5 1772.270845 388.20000000000005 1760.75 440.0C1745.875 506.85 1737.4166725 579.125 1723.7083275 641.075C1720.0625 657.35 1716.7083275 666.1 1711.3125 673.8C1704.1666725 680.8 1695.125 682.725 1685.208345 682.725C1672.9583275 682.725 1665.666655 680.1 1659.1041725 673.625C1659.1041725 673.625 1656.4791725 673.625 1656.4791725 673.625ZM1703.1458275 508.95C1702.5625 511.575 1701.9791725 513.675 1701.541655 516.475C1700.375 521.375 1703.0 524.875 1707.6666725 524.875C1707.6666725 524.875 1827.25 524.875 1827.25 524.875C1827.8333275 522.075 1828.270845 519.975 1828.8541725 517.175C1829.875 512.275 1827.25 508.95 1822.5833275 508.95C1822.5833275 508.95 1703.1458275 508.95 1703.1458275 508.95ZM1889.375 453.82500000000005C1888.3541725 456.8 1887.625 459.6 1886.895845 462.925C1886.0208275 467.3 1887.479155 470.45000000000005 1890.541655 470.45000000000005C1904.833345 470.45000000000005 1923.9375 463.45000000000005 1945.5208275 461.525C1945.5208275 461.525 1948.4375 462.4 1948.4375 462.4C1940.6004575 504.335324114285 1926.125 537.65 1917.6666725 584.025C1912.125 615.175 1923.791655 635.3 1950.9166725 635.3C1964.770845 635.3 1980.375 631.975 1985.770845 626.55C1988.8333275 623.75 1991.3125 620.6 1992.1875 615.175C1992.9273475 611.08592574997 1993.2214175 607.2270339328575 1993.3541725 602.75C1993.3541725 602.75 1990.7291725 602.75 1990.7291725 602.75C1978.916655 614.65 1966.8125 619.55 1952.5208275 619.55C1942.2424125 619.55 1936.8398124999999 616.6286620468825 1932.6875 610.625C1929.932265 603.0217053042024 1929.791425 595.9622959046775 1932.104155 583.15C1939.9962175 541.21971525645 1957.0294925 498.0365804127375 1963.8958275 456.275C1964.625 450.675 1960.979155 446.65 1956.75 446.65C1936.0416725 446.65 1913.291655 448.75 1889.375 453.82500000000005ZM1951.383345 382.95000000000005C1951.383345 382.95000000000005 1951.383345 382.95000000000005 1951.383345 382.95000000000005C1951.383345 393.00186 1959.531485 401.15 1969.583345 401.15C1979.635205 401.15 1987.783345 393.00186 1987.783345 382.95000000000005C1987.783345 382.95000000000005 1987.783345 382.95000000000005 1987.783345 382.95000000000005C1987.783345 372.89814 1979.635205 364.75 1969.583345 364.75C1959.531485 364.75 1951.383345 372.89814 1951.383345 382.95000000000005Z" fill="#1a1a1a"/><line x1="20" y1="715.0" x2="1870.0" y2="715.0" stroke="#eee" stroke-width="0.5"/><text x="20" y="886.25" font-size="11" font-family="sans-serif" font-weight="bold" fill="#555">Casual</text><path d="M164.458345 955.2C142.0 955.2 130.916655 951.0 118.375 937.0H117.208345C116.04165499999999 938.75 115.16665499999999 940.5 114.583345 942.95C113.416655 948.2 114.875 953.8 117.79165499999999 957.3C125.375 966.4 141.708345 972.0 163.875 972.0C204.708345 972.0 220.75 955.9 238.541655 899.9C250.985065 840.533 263.80553 779.367 276.24890500000004 720.0C276.24890500000004 717.2 274.861225 715.8 271.391955 715.8C270.004275 715.8 268.61656 715.8 267.22888 715.8C263.75960999999995 715.8 262.37193 717.2 262.37193 720.0C262.37193 720.0 262.37193 720.0 262.37193 720.0C262.37193 720.0 262.37193 720.0 262.37193 720.0C249.69541999999998 778.212 236.63482 838.188 223.958345 896.4C216.083345 922.3 212.875 929.65 202.083345 946.1C190.416655 952.4 178.166655 955.2 164.458345 955.2Z" fill="#1a1a1a"/><path d="M415.583345 713.0C373.291655 713.0 324.875 756.05 315.25 802.25L314.083345 807.85C308.833345 833.75 319.333345 852.3 354.625 869.45L377.375 880.65C397.5 890.8 406.25 902.0 403.916655 917.75L403.625 919.15C396.625 939.8 375.041655 952.75 348.208345 952.75C315.833345 952.75 300.958345 943.65 290.166655 923.0H289.0C286.666655 926.15 285.5 928.95 284.625 933.5C283.75 938.75 284.625 943.65 288.125 948.2C297.166655 959.75 314.375 969.2 347.625 969.2C381.166655 969.2 409.166655 953.45 415.583345 921.95L416.166655 919.5C420.833345 898.15 410.041655 879.95 382.625 866.65L360.166655 855.8C328.083345 840.4 325.166655 824.65 327.791655 811.35L328.666655 806.8C336.25 767.6 382.041655 729.8 413.833345 729.8C424.041655 729.8 429.291655 731.55 438.041655 738.55L432.791655 731.55C437.75 751.85 427.833345 765.5 422.291655 790.0C419.666655 801.55 422.291655 810.3 429.583345 810.3C431.333345 810.3 432.5 809.95 433.666655 809.25C435.708345 790.35 440.375 781.25 445.625 759.55C448.833345 745.9 447.375 731.9 440.083345 723.15C434.833345 716.85 426.958345 713.0 415.583345 713.0Z" fill="#1a1a1a"/><path d="M480.041655 965.0H578.625C579.791655 962.9 580.375 960.8 580.666655 959.05C581.833345 951.7 579.5 948.2 575.416655 948.2H478.875C480.625 883.8 511.541655 816.6 522.041655 753.6C526.708345 725.6 525.541655 716.5 517.375 716.5C515.041655 716.5 513.583345 716.85 511.541655 717.55C511.541655 731.2 511.541655 737.15 507.75 757.8C496.666655 816.6 473.625 864.9 466.625 923.7C463.416655 949.95 466.333345 965.0 480.041655 965.0Z" fill="#1a1a1a"/><path d="M765.0 965.0C765.583345 963.25 766.166655 961.15 766.458345 959.4C767.625 953.8 765.583345 948.2 757.708345 948.2H695.583345C680.125 948.2 665.833345 948.9 648.916655 949.6V947.15C668.458345 932.1 689.458345 913.9 706.958345 895.7C781.82373 817.2437777784551 809.333345 753.95 813.125 736.45L813.416655 735.05C814.875 727.7 807.291655 720.0 795.916655 720.0H680.125C679.541655 721.05 678.958345 722.8 678.375 724.9C676.916655 731.55 676.916655 736.8 682.166655 736.8H740.5C758.583345 736.8 774.916655 737.15 795.625 736.1L796.5 737.85C788.916655 756.75 778.416655 777.75 766.458345 796.3C732.333345 850.9 682.458345 902.35 627.041655 947.5L626.166655 951.0C624.416655 958.0 626.75 965.0 636.375 965.0Z" fill="#1a1a1a"/><path d="M951.958345 699.0C908.791655 699.0 896.541655 717.2 888.841655 772.85C878.516655 848.45 880.616655 869.1 844.916655 952.4H874.316655L873.091655 946.1C875.016655 942.6 876.591655 937.7 877.641655 931.05C876.708345 872.6 877.875 843.55 891.583345 783.0C898.0 754.3 902.666655 738.2 910.833345 727.35C921.916655 719.3 933.583345 715.8 949.916655 715.8C965.375 715.8 977.625 721.05 988.708345 728.05H990.458345C991.333345 726.3 991.916655 724.2 992.208345 722.45C993.375 715.45 993.083345 713.0 990.458345 709.85C986.958345 705.6500000000001 971.5 699.0 951.958345 699.0ZM859.675 780.9C859.5 781.95 859.325 783.35 859.15 784.75C858.1 792.45 859.325 797.7 861.95 797.7H961.291655C961.583345 796.3 961.875 794.9 962.166655 793.5C963.625 786.15 962.166655 780.9 956.916655 780.9ZM870.0 965.0C870.0 965.0 870.0 965.0 870.0 965.0C870.0 965.0 870.0 965.0 870.0 965.0C870.0 965.0 870.0 965.0 870.0 965.0C870.0 965.0 870.0 965.0 870.0 965.0Z" fill="#1a1a1a"/><path d="M1011.166655 791.75C1010.0 793.85 1009.416655 795.25 1008.833345 798.05C1007.666655 804.35 1009.416655 809.25 1013.791655 809.25C1025.458345 809.25 1046.458345 795.25 1072.416655 791.4L1074.166655 793.15C1067.53426 835.02064822857 1046.458345 862.8 1038.583345 911.1C1032.166655 950.65 1050.541655 970.6 1074.458345 970.6C1093.708345 970.6 1108.291655 963.95 1117.333345 953.1C1122.0 947.5 1124.916655 941.55 1126.083345 934.2C1126.68804 930.57185149994 1126.692835 926.004067865715 1126.083345 921.25H1124.333345C1110.041655 945.05 1094.875 954.85 1075.625 954.85C1064.69317 954.85 1058.26297 950.407324093765 1052.875 941.9C1051.156185 931.243410608405 1051.166195 922.374591809355 1053.166655 909.0C1059.03409 872.7394305129 1084.058985 830.473160825475 1088.166655 792.8C1089.041655 784.4 1082.916655 777.4 1076.208345 777.4C1058.125 777.4 1035.666655 781.6 1011.166655 791.75ZM1074.925 716.5C1074.925 726.55186 1083.07314 734.7 1093.125 734.7C1103.17686 734.7 1111.325 726.55186 1111.325 716.5C1111.325 706.44814 1103.17686 698.3 1093.125 698.3C1083.07314 698.3 1074.925 706.44814 1074.925 716.5Z" fill="#1a1a1a"/><path d="M1194.041655 713.35C1192.583345 715.45 1192.0 716.85 1191.416655 719.65C1190.25 725.95 1192.0 730.85 1196.375 730.85C1208.205735 730.85 1223.216325 717.06427930867 1265.208345 711.25L1266.666655 712.3C1259.095175 779.744383504855 1217.375 836.55 1206.0 903.75C1198.416655 948.55 1217.958345 970.6 1247.708345 970.6C1267.25 970.6 1281.25 963.6 1290.583345 952.4C1295.25 946.8 1298.166655 940.85 1299.333345 933.5C1299.916655 930.0 1299.916655 925.8 1299.333345 921.25H1297.583345C1283.291655 945.05 1268.125 954.85 1248.875 954.85C1234.875 954.85 1225.541655 950.65 1219.708345 941.2C1217.666655 927.9 1217.375 918.1 1220.583345 900.95C1230.5 847.4 1275.421065 772.44893249575 1280.083345 718.25C1280.958345 706.0 1275.125 699.0 1266.083345 699.0C1239.910905 699.0 1214.721895 704.860228182515 1194.041655 713.35Z" fill="#1a1a1a"/><path d="M1352.708345 787.9C1351.541655 789.65 1350.666655 791.75 1350.083345 794.2C1348.625 801.2 1350.666655 804.7 1354.75 804.7C1361.75 804.7 1368.75 797.0 1391.791655 790.7L1393.25 792.45C1386.25 847.05 1368.458345 892.2 1362.333345 940.85C1360.0 961.15 1364.375 967.1 1371.958345 967.1C1374.0 967.1 1375.75 966.75 1377.5 965.7C1376.333345 954.85 1376.041655 946.45 1378.375 928.6C1382.166655 900.6 1391.791655 872.6 1397.333345 844.6C1408.708345 785.8 1409.291655 777.4 1399.666655 777.4C1384.208345 777.4 1371.958345 780.55 1352.708345 787.9ZM1466.75 776.0C1447.208345 776.0 1419.5 806.1 1399.666655 843.55L1392.375 840.05L1381.875 897.45C1411.333345 832.0 1446.625 794.2 1465.291655 794.2C1472.0 794.2 1477.25 797.0 1481.041655 804.0C1479.0 820.1 1475.208345 831.3 1467.041655 844.95V847.05C1469.083345 847.75 1470.833345 848.1 1472.583345 848.1C1481.625 848.1 1487.75 839.0 1491.541655 822.55L1492.708345 817.65C1495.041655 807.15 1492.416655 793.15 1485.125 784.4C1480.75 779.15 1475.208345 776.0 1466.75 776.0Z" fill="#1a1a1a"/><path d="M1518.083345 868.75 1517.5 871.9C1500.583345 962.9 1515.458345 1028.0 1575.833345 1028.0C1588.666655 1028.0 1604.125 1024.5 1610.541655 1019.95C1616.083345 1016.1 1617.833345 1009.1 1617.833345 1003.15C1617.833345 1002.45 1617.833345 1001.4 1617.833345 1000.7H1616.083345C1601.5 1007.7 1587.208345 1010.5 1574.958345 1010.5C1565.333345 1010.5 1558.625 1010.15 1548.416655 1006.65C1528.291655 990.2 1519.541655 938.4 1531.791655 874.35L1532.666655 869.8C1549.0 784.4 1592.458345 727.0 1632.416655 727.0C1640.291655 727.0 1646.708345 727.7 1652.25 730.85C1659.25 743.1 1660.125 759.55 1655.166655 795.6C1649.625 836.55 1633.291655 897.45 1630.375 933.15C1629.208345 947.15 1632.708345 953.1 1644.083345 953.1H1645.833345C1644.375 944.7 1644.375 939.45 1645.833345 922.65C1648.75 890.45 1664.5 828.15 1669.75 794.9C1679.083345 735.05 1666.25 709.5 1631.541655 709.5C1584.291655 709.5 1534.416655 780.2 1518.083345 868.75ZM1640.583345 903.75C1622.5 929.65 1609.375 938.05 1596.541655 938.05C1580.791655 938.05 1575.25 912.15 1582.833345 875.4L1583.125 874.0C1588.083345 850.2 1594.5 834.8 1605.875 821.15C1610.833345 819.05 1616.083345 818.35 1623.375 818.35C1634.166655 818.35 1644.666655 825.0 1650.791655 834.8L1655.458345 814.5H1649.916655C1644.375 807.5 1635.041655 801.9 1624.833345 801.9C1600.625 801.9 1577.875 826.05 1568.541655 870.85L1567.666655 875.05C1558.041655 920.9 1567.958345 955.55 1592.166655 955.55C1607.916655 955.55 1617.541655 949.95 1628.041655 934.9H1635.041655Z" fill="#1a1a1a"/><path d="M1653.125 997.55C1650.791655 1000.7 1649.625 1002.8 1648.75 1007.0C1647.875 1011.2 1649.333345 1017.5 1653.416655 1022.4C1658.666655 1028.7 1666.833345 1032.55 1679.083345 1032.55C1710.291655 1032.55 1730.708345 1011.2 1739.75 971.65C1752.291655 916.35 1753.458345 849.5 1768.041655 783.35C1773.875 756.75 1782.041655 740.3 1790.5 730.15C1799.25 719.65 1809.75 715.8 1823.166655 715.8C1835.708345 715.8 1845.625 720.7 1852.041655 729.45C1849.125 753.25 1840.958345 767.6 1827.541655 776.35V778.45C1829.583345 780.2 1831.625 780.9 1833.666655 780.9C1845.041655 780.9 1856.416655 770.05 1861.083345 751.5L1862.25 746.95C1865.458345 734.7 1864.291655 722.1 1856.416655 712.65C1849.416655 704.25 1836.583345 699.0 1823.75 699.0C1788.75 699.0 1767.458345 722.45 1755.208345 774.6C1738.291655 846.7 1738.875 908.3 1726.041655 961.85C1721.083345 982.85 1717.291655 993.35 1711.166655 1004.2C1701.833345 1013.65 1690.458345 1015.75 1679.958345 1015.75C1664.791655 1015.75 1658.666655 1010.5 1654.875 997.55ZM1697.166655 848.1C1696.875 849.15 1696.583345 850.55 1696.291655 851.95C1694.541655 859.65 1698.625 864.9 1706.208345 864.9H1829.0C1829.291655 863.5 1829.583345 862.1 1829.875 860.7C1831.333345 853.35 1827.25 848.1 1819.666655 848.1ZM1886.166655 791.75C1885.0 793.85 1884.416655 795.25 1883.833345 798.05C1882.666655 804.35 1884.416655 809.25 1888.791655 809.25C1900.458345 809.25 1921.458345 795.25 1947.416655 791.4L1949.166655 793.15C1942.53426 835.02064822857 1921.458345 862.8 1913.583345 911.1C1907.166655 950.65 1925.541655 970.6 1949.458345 970.6C1968.708345 970.6 1983.291655 963.95 1992.333345 953.1C1997.0 947.5 1999.916655 941.55 2001.083345 934.2C2001.68804 930.57185149994 2001.692835 926.004067865715 2001.083345 921.25H1999.333345C1985.041655 945.05 1969.875 954.85 1950.625 954.85C1939.69317 954.85 1933.26297 950.407324093765 1927.875 941.9C1926.156185 931.243410608405 1926.166195 922.374591809355 1928.166655 909.0C1934.03409 872.7394305129 1959.058985 830.473160825475 1963.166655 792.8C1964.041655 784.4 1957.916655 777.4 1951.208345 777.4C1933.125 777.4 1910.666655 781.6 1886.166655 791.75ZM1949.925 716.5C1949.925 726.55186 1958.07314 734.7 1968.125 734.7C1978.17686 734.7 1986.325 726.55186 1986.325 716.5C1986.325 706.44814 1978.17686 698.3 1968.125 698.3C1958.07314 698.3 1949.925 706.44814 1949.925 716.5Z" fill="#1a1a1a"/>
</svg>