<?xml version="1.0" encoding="UTF-8"?>
<svg xmlns="http://www.w3.org/2000/svg" width="1890.0" height="1057.5"
     viewBox="0 0 1890.0 1057.5">
<rect width="100%" height="100%" fill="white"/>
<text x="945.0" y="30" text-anchor="middle" font-size="14" font-family="sans-serif" font-weight="bold" fill="#333">Mono B Upright — Key glyphs + features</text><text x="187.5" y="48" text-anchor="middle" font-size="10" font-family="sans-serif" fill="#999">J</text><text x="362.5" y="48" text-anchor="middle" font-size="10" font-family="sans-serif" fill="#999">S</text><text x="537.5" y="48" text-anchor="middle" font-size="10" font-family="sans-serif" fill="#999">L</text><text x="712.5" y="48" text-anchor="middle" font-size="10" font-family="sans-serif" fill="#999">Z</text><text x="887.5" y="48" text-anchor="middle" font-size="10" font-family="sans-serif" fill="#999">f</text><text x="1062.5" y="48" text-anchor="middle" font-size="10" font-family="sans-serif" fill="#999">i</text><text x="1237.5" y="48" text-anchor="middle" font-size="10" font-family="sans-serif" fill="#999">l</text><text x="1412.5" y="48" text-anchor="middle" font-size="10" font-family="sans-serif" fill="#999">r</text><text x="1587.5" y="48" text-anchor="middle" font-size="10" font-family="sans-serif" fill="#999">@</text><text x="1762.5" y="48" text-anchor="middle" font-size="10" font-family="sans-serif" fill="#999">fi</text><text x="20" y="221.25" font-size="11" font-family="sans-serif" font-weight="bold" fill="#555">Linear</text><path d="M171.75 257.65C156.875 257.65 143.458345 254.5 129.166655 247.15H123.33334500000001C123.33334500000001 262.9 123.33334500000001 276.2 123.33334500000001 290.55C123.33334500000001 293.0 123.625 294.4 124.79165499999999 295.8C129.166655 301.05 149.583345 307.0 174.666655 307.0C224.25 307.0 248.75 267.45 248.75 214.25C248.75 161.69750000000002 248.75 107.55250000000001 248.75 55.00000000000003C248.75 52.20000000000002 244.08334499999998 50.80000000000001 232.416655 50.80000000000001C227.75 50.80000000000001 223.083345 50.80000000000001 218.41669 50.80000000000001C206.75 50.80000000000001 202.083345 52.20000000000002 202.083345 55.00000000000003C202.083345 55.00000000000003 202.083345 55.00000000000003 202.083345 55.00000000000003C202.083345 55.00000000000003 202.083345 55.00000000000003 202.083345 55.00000000000003C202.083345 109.05400000000003 202.083345 164.746 202.083345 218.8C202.083345 233.5 199.75 243.3 194.791655 249.25C189.833345 255.2 182.25 257.65 171.75 257.65Z" fill="#1a1a1a"/><path d="M368.916655 48.00000000000003C323.125 48.00000000000003 294.541655 76.35000000000002 294.541655 114.5V132.35000000000002C294.541655 157.55 303.0 180.3 342.083345 194.65L369.5 204.8C389.625 212.15 391.375 217.4 391.375 226.85000000000002V239.8C391.375 249.6 382.625 259.4 359.583345 259.4C333.333345 259.4 315.833345 252.75 298.333345 239.1H292.5C292.5 255.55 292.5 268.85 292.5 281.8C292.5 286.35 293.083345 287.4 294.25 288.8C303.875 300.35 328.083345 307.0 356.375 307.0C405.375 307.0 434.25 282.15 434.25 240.5V223.7C434.25 191.15 424.041655 173.65 387.583345 160.35000000000002L359.875 150.20000000000002C340.625 143.20000000000002 337.416655 138.3 337.416655 125.70000000000002V118.35000000000002C337.416655 101.55000000000001 347.916655 95.25 366.291655 95.25C375.041655 95.25 384.666655 97.0 393.708345 100.15L385.541655 88.60000000000002C385.541655 103.30000000000001 385.541655 111.70000000000002 385.541655 119.4C385.541655 121.85000000000002 386.708345 123.25 388.75 123.25C401.291655 123.25 414.416655 123.25 426.958345 123.25C426.958345 107.5 426.958345 87.9 426.958345 74.25000000000003C426.958345 71.45000000000002 426.666655 69.70000000000002 425.208345 67.95000000000002C416.166655 57.10000000000002 396.333345 48.00000000000003 368.916655 48.00000000000003Z" fill="#1a1a1a"/><path d="M473.625 300.0H607.5C607.5 285.65 607.5 273.05 607.5 256.95C607.5 254.15 606.333345 252.75 604.0 252.75H517.083345C517.083345 189.05 517.083345 122.55000000000001 517.083345 58.85000000000002C517.083345 56.400000000000006 515.916655 55.00000000000003 513.875 55.00000000000003C499.291655 55.00000000000003 485.0 55.00000000000003 470.416655 55.00000000000003C470.416655 64.45000000000002 470.416655 73.55000000000001 470.416655 83.0C470.416655 154.05 470.416655 225.10000000000002 470.416655 296.15C470.416655 298.6 471.583345 300.0 473.625 300.0Z" fill="#1a1a1a"/><path d="M786.875 300.0C786.875 284.6 786.875 269.55 786.875 254.15C786.875 251.7 785.708345 250.3 783.666655 250.3H732.333345C709.875 250.3 698.208345 250.3 683.625 250.3V243.3C695.875 235.95 702.875 230.0 714.833345 212.85000000000002C738.166655 178.9 761.791655 145.3 785.416655 111.35000000000002V58.85000000000002C785.416655 56.400000000000006 784.25 55.00000000000003 782.208345 55.00000000000003H639.583345C639.583345 65.15 639.583345 85.45000000000002 639.583345 99.80000000000001C639.583345 103.30000000000001 640.75 104.70000000000002 643.666655 104.70000000000002H688.291655C702.0 104.70000000000002 710.458345 104.70000000000002 741.375 104.70000000000002V111.70000000000002C725.625 120.80000000000001 721.833345 125.35000000000002 710.166655 142.15C686.541655 176.10000000000002 663.208345 210.05 639.583345 243.65V296.15C639.583345 298.6 640.75 300.0 642.791655 300.0Z" fill="#1a1a1a"/><path d="M918.416655 30.5C883.708345 30.5 851.041655 57.80000000000001 851.041655 104.70000000000002C851.041655 163.85000000000002 851.041655 223.35000000000002 851.041655 282.5H896.833345L894.791655 273.75C894.791655 262.9 894.791655 258.35 894.791655 248.2C894.791655 200.60000000000002 894.791655 153.0 894.791655 105.4C894.791655 93.15 895.958345 85.45000000000002 899.458345 81.25C902.958345 77.4 908.208345 76.0 917.541655 76.0C932.416655 76.0 942.625 78.10000000000002 954.583345 81.25H960.416655C960.416655 67.60000000000002 960.416655 54.30000000000001 960.416655 41.35000000000002C960.416655 40.30000000000001 960.125 39.25 959.541655 38.55000000000001C956.625 35.05000000000001 941.458345 30.5 918.416655 30.5ZM845.5 121.5C845.5 136.351937984485 845.5 148.298062015515 845.5 163.15C845.5 165.60000000000002 846.2 167.0 847.425 167.0H951.666655C951.666655 152.3 951.666655 140.05 951.666655 125.35000000000002C951.666655 122.9 950.5 121.5 948.458345 121.5ZM870.0 300.0C870.0 300.0 870.0 300.0 870.0 300.0C870.0 300.0 870.0 300.0 870.0 300.0C870.0 300.0 870.0 300.0 870.0 300.0C870.0 300.0 870.0 300.0 870.0 300.0Z" fill="#1a1a1a"/><path d="M989.583345 111.0C989.583345 125.0 989.583345 138.65 989.583345 152.65C989.583345 155.10000000000002 990.75 156.5 992.791655 156.5C1006.791655 156.5 1021.375 156.5 1035.375 156.5H1042.083345C1042.083345 184.85000000000002 1042.083345 213.55 1042.083345 241.9C1042.083345 281.1 1056.375 300.0 1090.208345 300.0C1104.208345 300.0 1118.208345 300.0 1132.208345 300.0C1134.25 300.0 1135.416655 298.6 1135.416655 296.15C1135.416655 282.15 1135.416655 268.5 1135.416655 254.5H1129.583345C1118.791655 254.5 1106.25 254.5 1094.583345 254.5C1091.083345 254.5 1089.041655 253.8 1087.583345 252.05C1086.125 250.3 1085.833345 248.2 1085.833345 245.05C1085.833345 201.65 1085.833345 158.25 1085.833345 114.85000000000002C1085.833345 112.4 1084.666655 111.0 1082.625 111.0C1051.708345 111.0 1020.5 111.0 989.583345 111.0ZM1023.5975 46.25000000000003C1023.5975 67.73583500000001 1041.01413 85.1525 1062.5 85.1525C1083.98587 85.1525 1101.4025 67.73583500000001 1101.4025 46.25000000000003C1101.4025 24.76416499999999 1083.98587 7.347500000000025 1062.5 7.347500000000025C1041.01413 7.347500000000025 1023.5975 24.76416499999999 1023.5975 46.25000000000003Z" fill="#1a1a1a"/><path d="M1164.583345 37.5C1164.583345 51.50000000000003 1164.583345 65.15 1164.583345 79.15C1164.583345 81.60000000000002 1165.75 83.0 1167.791655 83.0C1182.375 83.0 1197.25 83.0 1211.833345 83.0H1217.083345C1217.083345 137.25 1217.083345 191.85000000000002 1217.083345 246.1C1217.083345 282.5 1231.375 300.0 1265.208345 300.0C1279.208345 300.0 1293.208345 300.0 1307.208345 300.0C1309.25 300.0 1310.416655 298.6 1310.416655 296.15C1310.416655 282.15 1310.416655 268.5 1310.416655 254.5H1304.583345C1293.791655 254.5 1281.25 254.5 1269.583345 254.5C1266.083345 254.5 1264.041655 253.8 1262.583345 252.05C1261.125 250.3 1260.833345 248.2 1260.833345 245.05C1260.833345 177.15 1260.833345 109.25 1260.833345 41.35000000000002C1260.833345 38.900000000000034 1259.666655 37.5 1257.625 37.5C1226.708345 37.5 1195.5 37.5 1164.583345 37.5Z" fill="#1a1a1a"/><path d="M1341.041655 111.0C1341.041655 125.0 1341.041655 138.65 1341.041655 152.65C1341.041655 155.10000000000002 1342.208345 156.5 1344.25 156.5C1351.25 156.5 1358.25 156.5 1365.25 156.5H1370.208345C1370.208345 194.65 1370.208345 258.0 1370.208345 296.15C1370.208345 298.6 1371.375 300.0 1373.416655 300.0C1386.833345 300.0 1400.541655 300.0 1413.958345 300.0C1413.958345 289.85 1413.958345 278.3 1413.958345 265.7C1413.958345 229.65 1413.958345 187.3 1413.958345 158.60000000000002C1413.958345 158.25 1400.833345 111.0 1400.541655 111.0C1378.375 111.0 1363.208345 111.0 1341.041655 111.0ZM1461.791655 107.5C1439.916655 107.5 1425.625 123.95000000000002 1415.708345 148.10000000000002H1406.083345L1408.708345 189.4C1418.916655 169.45000000000002 1434.958345 159.65 1445.458345 159.65C1446.041655 159.65 1446.333345 159.65 1446.625 159.65C1446.625 166.65 1446.625 174.35000000000002 1446.625 181.35000000000002V188.35000000000002C1458.583345 188.35000000000002 1470.833345 188.35000000000002 1482.791655 188.35000000000002C1484.833345 188.35000000000002 1486.0 186.95 1486.0 184.5V117.30000000000001C1486.0 116.25 1485.708345 114.85000000000002 1485.125 114.15C1482.208345 110.65 1474.625 107.5 1461.791655 107.5Z" fill="#1a1a1a"/><path d="M1516.041655 114.5V269.2C1516.041655 339.9 1540.541655 373.85 1593.041655 373.85C1611.708345 373.85 1634.458345 368.25 1638.25 363.7C1638.833345 363.0 1639.125 361.95 1639.125 360.9C1639.125 351.8 1639.125 335.35 1639.125 326.25H1633.291655C1623.083345 332.2 1609.666655 335.35 1596.25 335.35C1578.75 335.35 1566.791655 331.5 1558.625 323.1C1549.0 312.95 1545.208345 296.15 1545.208345 270.95V128.15C1545.208345 93.5 1558.041655 72.85000000000002 1587.208345 72.85000000000002C1599.458345 72.85000000000002 1608.5 76.0 1614.333345 82.65C1619.583345 89.30000000000001 1622.5 98.75 1622.5 112.4C1622.5 164.20000000000002 1622.5 209.35000000000002 1622.5 261.15C1622.5 262.55 1642.916655 293.0 1645.833345 293.0H1658.958345C1658.958345 275.85 1658.958345 258.7 1658.958345 241.55C1658.958345 198.15 1658.958345 154.4 1658.958345 111.0C1658.958345 65.85000000000002 1633.0 34.0 1587.791655 34.0C1542.583345 34.0 1516.041655 69.00000000000003 1516.041655 114.5ZM1636.208345 238.4C1629.5 249.6 1615.791655 254.5 1607.041655 254.5C1604.125 254.5 1602.958345 252.4 1602.958345 247.5V160.35000000000002C1602.958345 154.75 1603.833345 150.9 1605.583345 148.45000000000002C1607.333345 146.35000000000002 1609.958345 145.3 1613.166655 145.3C1622.791655 145.3 1627.75 147.05 1633.583345 152.65V116.60000000000002H1619.0C1613.75 110.30000000000001 1608.5 107.5 1599.166655 107.5C1577.583345 107.5 1566.5 125.0 1566.5 153.35000000000002V258.35C1566.5 282.15 1579.041655 296.5 1597.125 296.5C1611.125 296.5 1621.333345 291.25 1628.333345 275.5H1636.208345Z" fill="#1a1a1a"/><path d="M1692.791655 323.45C1692.791655 337.8 1692.791655 351.45 1692.791655 365.8C1692.791655 367.9 1693.958345 369.65 1695.708345 369.65C1697.75 369.65 1707.666655 369.65 1727.791655 369.65C1758.125 369.65 1773.875 350.4 1773.875 315.05C1773.875 244.7 1773.875 176.10000000000002 1773.875 107.15C1773.875 94.20000000000002 1775.916655 85.80000000000001 1780.291655 80.55000000000001C1783.791655 76.35000000000002 1788.458345 74.25000000000003 1794.875 74.25000000000003C1797.5 74.25000000000003 1800.416655 74.60000000000002 1803.041655 75.30000000000001C1803.041655 83.70000000000002 1803.041655 92.10000000000002 1803.041655 100.85000000000002V104.0C1815.0 104.0 1827.25 104.0 1839.208345 104.0C1841.25 104.0 1842.416655 102.60000000000002 1842.416655 100.15V44.50000000000003C1842.416655 43.44999999999999 1842.125 42.400000000000034 1841.541655 41.69999999999999C1838.041655 37.5 1822.875 30.5 1797.5 30.5C1755.5 30.5 1728.666655 55.70000000000002 1728.666655 104.70000000000002C1728.666655 175.4 1728.666655 244.7 1728.666655 315.4C1728.666655 318.2 1728.375 319.95 1727.208345 321.35C1726.041655 322.75 1724.291655 323.45 1721.666655 323.45C1711.75 323.45 1705.625 323.45 1698.625 323.45ZM1695.416655 160.0C1695.416655 174.0 1695.416655 187.65 1695.416655 201.65C1695.416655 204.10000000000002 1696.583345 205.5 1698.625 205.5H1829.583345C1829.583345 190.8 1829.583345 178.55 1829.583345 163.85000000000002C1829.583345 161.4 1828.416655 160.0 1826.375 160.0ZM1864.583345 111.0C1864.583345 125.0 1864.583345 138.65 1864.583345 152.65C1864.583345 155.10000000000002 1865.75 156.5 1867.791655 156.5C1881.791655 156.5 1896.375 156.5 1910.375 156.5H1917.083345C1917.083345 184.85000000000002 1917.083345 213.55 1917.083345 241.9C1917.083345 281.1 1931.375 300.0 1965.208345 300.0C1979.208345 300.0 1993.208345 300.0 2007.208345 300.0C2009.25 300.0 2010.416655 298.6 2010.416655 296.15C2010.416655 282.15 2010.416655 268.5 2010.416655 254.5H2004.583345C1993.791655 254.5 1981.25 254.5 1969.583345 254.5C1966.083345 254.5 1964.041655 253.8 1962.583345 252.05C1961.125 250.3 1960.833345 248.2 1960.833345 245.05C1960.833345 201.65 1960.833345 158.25 1960.833345 114.85000000000002C1960.833345 112.4 1959.666655 111.0 1957.625 111.0C1926.708345 111.0 1895.5 111.0 1864.583345 111.0ZM1898.5975 46.25000000000003C1898.5975 67.73583500000001 1916.01413 85.1525 1937.5 85.1525C1958.98587 85.1525 1976.4025 67.73583500000001 1976.4025 46.25000000000003C1976.4025 24.76416499999999 1958.98587 7.347500000000025 1937.5 7.347500000000025C1916.01413 7.347500000000025 1898.5975 24.76416499999999 1898.5975 46.25000000000003Z" fill="#1a1a1a"/><line x1="20" y1="382.5" x2="1870.0" y2="382.5" stroke="#eee" stroke-width="0.5"/><text x="20" y="553.75" font-size="11" font-family="sans-serif" font-weight="bold" fill="#555">SemiCasual</text><path d="M176.416655 588.575C159.645845 588.575 145.0625 584.025 129.604155 573.7H125.8125C125.22915499999999 584.375 124.79165499999999 594.7 124.79165499999999 607.475C124.79165499999999 616.75 126.54165499999999 622.175 130.333345 626.725C136.3125 633.9 154.25 639.5 175.979155 639.5C224.833345 639.5 249.479155 596.975 249.479155 552.875C249.479155 498.30125 249.479155 442.07375 249.479155 387.5C249.479155 384.70000000000005 244.82706 383.3 233.196875 383.3C228.54478 383.3 223.89272 383.3 219.240625 383.3C207.61043999999998 383.3 202.958345 384.70000000000005 202.958345 387.5C202.958345 387.5 202.958345 387.5 202.958345 387.5C202.958345 387.5 202.958345 387.5 202.958345 387.5C202.958345 441.66949999999997 202.958345 497.4805 202.958345 551.65C202.958345 564.95 201.645845 574.575 198.4375 581.925C192.895845 586.475 185.895845 588.575 176.416655 588.575Z" fill="#1a1a1a"/><path d="M375.625 380.5C330.270845 380.5 295.708345 419.0 295.708345 461.525V472.725C295.708345 495.475 304.020845 515.95 346.020845 533.1L373.145845 544.125C389.479155 550.6 394.4375 557.775 394.4375 568.275V575.625C390.208345 583.15 379.854155 589.45 361.770845 589.45C333.333345 589.45 313.645845 580.7 296.583345 563.9H292.791655C292.208345 574.75 291.770845 585.075 291.770845 596.1C291.770845 608.35 294.395845 616.225 298.041655 620.6C307.520845 631.975 332.166655 639.5 360.166655 639.5C409.895845 639.5 435.5625 614.65 435.5625 574.4V563.2C435.5625 538.35 426.666655 518.05 389.333345 503.175L361.770845 492.15C343.6875 484.975 339.3125 479.9 339.020845 468.175V463.8C339.020845 444.725 356.958345 430.375 375.333345 430.375C382.479155 430.375 388.75 431.775 395.75 435.1L388.604155 420.225C387.0 437.025 385.6875 446.475 385.6875 454.525C385.6875 465.20000000000005 391.375 469.05 401.291655 469.05C410.770845 469.05 420.104155 468.175 428.270845 467.3C428.270845 454.0 428.270845 437.9 428.270845 424.95000000000005C428.270845 414.975 427.104155 406.925 421.416655 400.1C411.9375 388.725 396.770845 380.5 375.625 380.5Z" fill="#1a1a1a"/><path d="M485.5833275 632.5C485.5833275 632.5 606.625 632.5 606.625 632.5C606.9166725 622.35 607.2083275 613.25 607.2083275 601.525C607.2083275 589.1 603.5625 582.625 595.5416725 582.625C595.5416725 582.625 516.3541725 582.625 516.3541725 582.625C516.3541725 522.775 516.3541725 459.775 516.3541725 403.425C516.3541725 389.425 512.2708275 385.75 500.8958275 385.75C489.229155 385.75 478.4375 386.45000000000005 467.791655 387.5C469.104155 398.175 469.6875 409.025 469.6875 420.75C469.6875 481.475 469.6875 542.025 469.6875 602.75C469.6875 616.4 474.645845 632.5 485.5833275 632.5Z" fill="#1a1a1a"/><path d="M785.7083275 632.5C786.0 623.4 786.1458275 614.125 786.1458275 604.15C786.1458275 590.85 782.9375 581.4 772.1458275 581.4C772.1458275 581.4 737.0 581.4 737.0 581.4C718.7708275 581.4 703.020845 581.925 688.1458275 582.8C688.1458275 582.8 688.1458275 578.25 688.1458275 578.25C700.5416725 568.45 707.9791725 561.975 720.083345 545.875C747.9375 509.65 773.604155 471.5 785.416655 441.05C785.416655 441.05 785.416655 413.225 785.416655 413.225C785.416655 395.55 779.1458275 387.5 770.395845 387.5C770.395845 387.5 643.958345 387.5 643.958345 387.5C643.6666725 395.025 643.2291725 408.85 643.2291725 419.525C643.2291725 431.775 647.8958275 437.725 659.416655 437.725C659.416655 437.725 689.8958275 437.725 689.8958275 437.725C710.3125 437.725 720.083345 437.20000000000005 740.0625 435.625C740.0625 435.625 740.0625 440.175 740.0625 440.175C728.9791725 452.425 724.3125 460.3 713.9583275 476.925C691.6458275 513.325 668.020845 545.875 639.583345 579.825C639.583345 579.825 639.583345 608.7 639.583345 608.7C639.583345 623.575 643.2291725 632.5 654.4583275 632.5C654.4583275 632.5 785.7083275 632.5 785.7083275 632.5Z" fill="#1a1a1a"/><path d="M920.3125 363.0C883.9416725 363.0 852.5 393.975 852.5 439.65C852.5 494.07500000000005 852.5 548.675 852.5 603.1C852.5 603.1 893.770845 603.1 893.770845 603.1C893.770845 603.1 891.6708275 592.425 891.6708275 592.425C894.2083275 582.45 896.25 572.825 896.25 557.425C896.25 520.325 896.25 483.05 896.25 445.95000000000005C894.9375 433.525 894.3541725 422.675 896.1041725 414.275C901.9375 411.475 908.645845 410.6 917.104155 410.6C935.3333275 410.6 949.7708275 413.75 959.833345 417.6C959.833345 417.6 963.625 417.6 963.625 417.6C964.354155 407.8 964.354155 397.65 964.354155 388.025C964.354155 381.9 963.3333275 376.3 960.416655 372.8C956.0416725 367.55 942.770845 363.0 920.3125 363.0ZM843.8375 454.0C843.8375 462.47596899224254 843.8375 469.4990310077575 843.8375 478.15C843.8375 496.875 848.475 503.0 862.65 503.0C862.65 503.0 955.3125 503.0 955.3125 503.0C955.8958275 492.675 956.3333275 482.525 956.3333275 471.15C956.3333275 458.375 952.25 454.0 939.708345 454.0C939.708345 454.0 843.8375 454.0 843.8375 454.0ZM870.0 632.5C870.0 632.5 870.0 632.5 870.0 632.5C870.0 632.5 870.0 632.5 870.0 632.5C870.0 632.5 870.0 632.5 870.0 632.5C870.0 632.5 870.0 632.5 870.0 632.5C870.0 632.5 870.0 632.5 870.0 632.5C870.0 632.5 870.0 632.5 870.0 632.5Z" fill="#1a1a1a"/><path d="M987.6875 448.75C987.1041725 458.55 986.520845 469.75 986.520845 480.775C986.520845 494.95000000000005 989.875 501.775 994.979155 501.775C1008.979155 501.775 1021.8125 497.925 1037.5625 487.6C1037.5625 487.6 1041.7916725 487.95000000000005 1041.7916725 487.95000000000005C1041.7916725 517.35 1041.7916725 546.925 1041.7916725 576.325C1041.7916725 608.875 1058.125 634.25 1092.1041725 634.25C1110.1875 634.25 1121.5625 631.1 1131.333345 627.775C1134.9791725 624.625 1138.041655 617.45 1138.041655 607.65C1138.041655 598.55 1137.8958275 589.45 1137.4583275 580.175C1137.4583275 580.175 1133.6666725 580.175 1133.6666725 580.175C1122.1458275 584.375 1108.4375 586.125 1095.895845 586.125C1092.395845 586.125 1089.625 585.775 1087.4375 584.725C1085.9791725 579.825 1085.5416725 574.225 1085.5416725 567.4C1085.5416725 531.875 1085.5416725 496.525 1085.5416725 461.0C1085.5416725 448.75 1077.5208275 441.75 1063.5208275 441.75C1039.1666725 441.75 1014.5208275 443.5 987.6875 448.75ZM1024.1808275 384.9625C1024.1808275 384.9625 1024.1808275 384.9625 1024.1808275 384.9625C1024.1808275 406.44833500000004 1041.5974575 423.865 1063.0833275 423.865C1084.5691975 423.865 1101.9858275 406.44833500000004 1101.9858275 384.9625C1101.9858275 384.9625 1101.9858275 384.9625 1101.9858275 384.9625C1101.9858275 363.476665 1084.5691975 346.06 1063.0833275 346.06C1041.5974575 346.06 1024.1808275 363.476665 1024.1808275 384.9625Z" fill="#1a1a1a"/><path d="M1160.0625 375.25C1159.4791725 385.05 1158.895845 396.25 1158.895845 407.275C1158.895845 421.45000000000005 1162.25 428.275 1167.354155 428.275C1181.5 428.275 1192.5833275 419.175 1210.8125 413.925C1210.8125 413.925 1214.1666725 414.625 1214.1666725 414.625C1214.1666725 469.225 1214.1666725 523.825 1214.1666725 578.425C1214.1666725 609.575 1230.9375 634.25 1265.9375 634.25C1284.020845 634.25 1295.395845 631.1 1305.1666725 627.775C1308.8125 624.625 1311.875 617.45 1311.875 607.65C1311.875 598.55 1311.729155 589.45 1311.291655 580.175C1311.291655 580.175 1307.5 580.175 1307.5 580.175C1295.979155 584.725 1284.3125 586.125 1269.7291725 586.125C1265.645845 586.125 1262.4375 585.6 1259.8125 584.025C1258.3541725 579.65 1257.9166725 574.225 1257.9166725 567.4C1257.9166725 507.375 1257.9166725 447.525 1257.9166725 387.5C1257.9166725 375.25 1249.8958275 368.25 1234.4375 368.25C1211.5416725 368.25 1186.8958275 370.0 1160.0625 375.25Z" fill="#1a1a1a"/><path d="M1337.979155 447.0C1337.25 459.07500000000005 1336.9583275 469.225 1336.9583275 480.6C1336.9583275 490.4 1339.7291725 496.0 1344.6875 496.0C1351.1041725 496.0 1358.1041725 493.55 1365.25 489.0C1365.25 489.0 1368.458345 489.70000000000005 1368.458345 489.70000000000005C1368.458345 527.325 1368.458345 585.425 1368.458345 615.525C1368.458345 627.6 1374.7291725 633.55 1385.375 633.55C1395.0 633.55 1404.7708275 633.2 1414.395845 632.5C1412.645845 620.25 1412.208345 608.525 1412.208345 594.175C1412.208345 558.475 1412.208345 519.8 1412.208345 494.25C1412.208345 471.15 1397.9166725 441.75 1386.979155 441.75C1369.4791725 441.75 1354.6041725 443.5 1337.979155 447.0ZM1459.3125 438.25C1441.666655 438.25 1424.6041725 457.15 1413.8125 488.3C1413.8125 488.3 1404.770845 488.3 1404.770845 488.3C1404.770845 488.3 1405.645845 537.3 1405.645845 537.3C1418.1875 506.15 1434.958345 493.9 1448.958345 493.9C1449.541655 493.9 1449.833345 493.9 1450.2708275 493.9C1450.2708275 500.55 1449.9791725 507.725 1449.3958275 515.425C1449.3958275 515.425 1449.3958275 519.975 1449.3958275 519.975C1456.1041725 520.325 1463.1041725 520.5 1470.104155 520.5C1486.4375 520.5 1487.0208275 500.725 1487.0208275 498.275C1487.0208275 498.275 1487.0208275 462.4 1487.0208275 462.4C1487.0208275 461.0 1487.020845 453.475 1481.3333275 446.82500000000005C1477.25 442.1 1469.9583275 438.25 1459.3125 438.25Z" fill="#1a1a1a"/><path d="M1515.4583275 493.55C1515.4583275 493.55 1515.4583275 576.675 1515.4583275 576.675C1515.4583275 651.575 1540.8333275 692.175 1593.625 692.175C1612.875 692.175 1631.25 687.8 1635.7708275 682.375C1638.5416725 679.05 1639.2708275 672.75 1639.2708275 664.7C1639.2708275 659.625 1639.2708275 651.05 1639.2708275 645.975C1639.2708275 645.975 1635.479155 645.975 1635.479155 645.975C1624.25 652.45 1611.854155 655.425 1595.9583275 655.425C1579.9166725 655.425 1568.979155 652.8 1559.5 645.975C1549.0 631.625 1544.625 609.575 1544.625 574.05C1544.625 574.05 1544.625 500.9 1544.625 500.9C1544.625 441.4 1563.729155 401.675 1594.9375 401.675C1603.395845 401.675 1609.9583275 403.6 1614.770845 407.8C1620.1666725 415.15 1622.0625 425.3 1622.0625 437.025C1622.0625 487.25 1622.0625 533.975 1622.0625 584.2C1622.0625 595.05 1639.5625 619.55 1651.6666725 619.55C1651.6666725 619.55 1660.4166725 619.55 1660.4166725 619.55C1659.5416725 604.5 1659.25 589.975 1659.25 575.975C1659.25 532.75 1659.25 489.175 1659.25 445.95000000000005C1659.25 399.4 1635.3333275 364.75 1595.666655 364.75C1544.4791725 364.75 1515.4583275 416.725 1515.4583275 493.55ZM1640.2916725 557.075C1631.8333275 571.425 1618.854155 580.0 1609.8125 580.0C1604.5625 580.0 1602.2291725 574.05 1602.2291725 560.75C1602.2291725 560.75 1602.2291725 515.95 1602.2291725 515.95C1602.2291725 502.3 1603.25 489.525 1606.6041725 477.45000000000005C1608.5 476.225 1611.5625 475.70000000000005 1614.3333275 475.70000000000005C1622.5 475.70000000000005 1628.1875 477.1 1634.3125 483.05C1634.3125 483.05 1634.3125 445.25 1634.3125 445.25C1634.3125 445.25 1619.4375 445.25 1619.4375 445.25C1615.5 439.65 1610.9791725 436.85 1603.8333275 436.85C1582.833345 436.85 1566.5 461.0 1566.5 515.425C1566.5 515.425 1566.5 569.5 1566.5 569.5C1566.5 603.625 1579.625 622.0 1599.8958275 622.0C1611.7083275 622.0 1621.1875 616.05 1626.875 602.225C1626.875 602.225 1639.270845 602.225 1639.270845 602.225C1639.270845 602.225 1640.2916725 557.075 1640.2916725 557.075Z" fill="#1a1a1a"/><path d="M1687.541655 648.425C1686.9583275 658.4 1686.666655 668.55 1686.8125 679.4C1686.9450625 688.72243672822 1689.9660525 694.93252370509 1694.833345 698.825C1698.7708275 701.625 1708.541655 704.075 1725.75 704.075C1752.9060275 704.075 1773.2916725 685.175 1773.2916725 646.15C1773.2916725 579.825 1773.2916725 516.65 1773.2916725 445.25C1773.2916725 427.75 1775.1875 419.70000000000005 1779.7083275 414.275C1783.2083275 410.07500000000005 1788.020845 408.5 1793.7083275 408.5C1797.3541725 408.5 1801.0 408.85 1804.354155 409.9C1804.791655 422.5 1804.354155 434.05 1802.75 446.82500000000005C1802.75 446.82500000000005 1802.75 449.45000000000005 1802.75 449.45000000000005C1809.8958275 449.8 1817.3333275 449.975 1824.4791725 449.975C1835.125 449.975 1842.125 438.425 1842.125 425.3C1842.125 425.3 1842.125 395.20000000000005 1842.125 395.20000000000005C1842.125 388.025 1840.375 381.20000000000005 1835.416655 375.77500000000003C1830.0208275 369.475 1816.8958275 363.0 1795.0208275 363.0C1753.75 363.0 1727.354155 390.3 1727.354155 438.25C1727.354155 505.45 1727.354155 571.075 1727.354155 637.575C1727.354155 643.803985507255 1726.7595575 648.8133088460825 1725.3125 652.45C1723.8298825 653.5097090838425 1720.791655 654.375 1716.416655 654.375C1706.9375 654.375 1699.3541725 653.325 1691.3333275 648.425C1691.3333275 648.425 1687.541655 648.425 1687.541655 648.425ZM1690.4583275 495.65C1690.4583275 503.70000000000005 1690.4583275 511.575 1690.4583275 519.8C1690.4583275 538.525 1698.1875 544.65 1725.0208275 544.65C1725.0208275 544.65 1831.770845 544.65 1831.770845 544.65C1832.3541725 534.325 1832.7916725 524.175 1832.7916725 512.8C1832.7916725 500.025 1828.7083275 495.65 1816.1666725 495.65C1816.1666725 495.65 1690.4583275 495.65 1690.4583275 495.65ZM1862.6875 448.75C1862.1041725 458.55 1861.520845 469.75 1861.520845 480.775C1861.520845 494.95000000000005 1864.875 501.775 1869.979155 501.775C1883.979155 501.775 1896.8125 497.925 1912.5625 487.6C1912.5625 487.6 1916.7916725 487.95000000000005 1916.7916725 487.95000000000005C1916.7916725 517.35 1916.7916725 546.925 1916.7916725 576.325C1916.7916725 608.875 1933.125 634.25 1967.1041725 634.25C1985.1875 634.25 1996.5625 631.1 2006.333345 627.775C2009.9791725 624.625 2013.041655 617.45 2013.041655 607.65C2013.041655 598.55 2012.8958275 589.45 2012.4583275 580.175C2012.4583275 580.175 2008.6666725 580.175 2008.6666725 580.175C1997.1458275 584.375 1983.4375 586.125 1970.895845 586.125C1967.395845 586.125 1964.625 585.775 1962.4375 584.725C1960.9791725 579.825 1960.5416725 574.225 1960.5416725 567.4C1960.5416725 531.875 1960.5416725 496.525 1960.5416725 461.0C1960.5416725 448.75 1952.5208275 441.75 1938.5208275 441.75C1914.1666725 441.75 1889.5208275 443.5 1862.6875 448.75ZM1899.1808275 384.9625C1899.1808275 384.9625 1899.1808275 384.9625 1899.1808275 384.9625C1899.1808275 406.44833500000004 1916.5974575 423.865 1938.0833275 423.865C1959.5691975 423.865 1976.9858275 406.44833500000004 1976.9858275 384.9625C1976.9858275 384.9625 1976.9858275 384.9625 1976.9858275 384.9625C1976.9858275 363.476665 1959.5691975 346.06 1938.0833275 346.06C1916.5974575 346.06 1899.1808275 363.476665 1899.1808275 384.9625Z" fill="#1a1a1a"/><line x1="20" y1="715.0" x2="1870.0" y2="715.0" stroke="#eee" stroke-width="0.5"/><text x="20" y="886.25" font-size="11" font-family="sans-serif" font-weight="bold" fill="#555">Casual</text><path d="M181.083345 919.5C162.416655 919.5 146.666655 913.55 130.041655 900.25H128.291655C127.125 905.85 126.25 913.2 126.25 924.4C126.25 940.5 129.458345 949.95 135.875 957.65C143.458345 966.75 158.916655 972.0 177.291655 972.0C225.416655 972.0 250.20834499999998 926.5 250.20834499999998 891.5C250.20834499999998 834.905 250.20834499999998 776.595 250.20834499999998 720.0C250.20834499999998 717.2 245.570845 715.8 233.977095 715.8C229.339595 715.8 224.70209499999999 715.8 220.064595 715.8C208.470845 715.8 203.833345 717.2 203.833345 720.0C203.833345 720.0 203.833345 720.0 203.833345 720.0C203.833345 720.0 203.833345 720.0 203.833345 720.0C203.833345 774.2850000000001 203.833345 830.215 203.833345 884.5C203.833345 896.4 203.541655 905.85 202.083345 914.6C195.958345 917.75 189.541655 919.5 181.083345 919.5Z" fill="#1a1a1a"/><path d="M382.333345 713.0C337.416655 713.0 296.875 761.65 296.875 808.55V813.1C296.875 833.4 305.041655 851.6 349.958345 871.55L376.791655 883.45C389.333345 889.05 397.5 898.15 397.5 909.7V911.45C389.041655 916.7 377.083345 919.5 363.958345 919.5C333.333345 919.5 311.458345 908.65 294.833345 888.7H293.083345C291.916655 893.95 291.041655 901.3 291.041655 910.4C291.041655 930.35 295.708345 945.05 301.833345 952.4C311.166655 963.6 336.25 972.0 363.958345 972.0C414.416655 972.0 436.875 947.15 436.875 908.3V902.7C436.875 885.55 429.291655 862.45 391.083345 846.0L363.666655 834.1C346.75 826.75 341.208345 821.5 340.625 810.65V809.25C340.625 787.9 366.0 765.5 384.375 765.5C389.916655 765.5 392.833345 766.55 397.791655 770.05L391.666655 751.85C388.458345 770.75 385.833345 781.25 385.833345 789.65C385.833345 808.55 396.041655 814.85 413.833345 814.85C420.25 814.85 425.791655 813.1 429.583345 811.35C429.583345 800.5 429.583345 787.9 429.583345 775.65C429.583345 758.5 427.541655 744.15 417.625 732.25C407.708345 720.35 397.208345 713.0 382.333345 713.0Z" fill="#1a1a1a"/><path d="M497.541655 965.0H605.75C606.333345 959.05 606.916655 953.45 606.916655 946.1C606.916655 924.05 600.791655 912.5 587.083345 912.5H515.625C515.625 856.5 515.625 797.0 515.625 748.0C515.625 722.45 508.625 716.5 487.916655 716.5C479.166655 716.5 471.875 717.9 465.166655 720.0C467.791655 731.9 468.958345 744.5 468.958345 758.5C468.958345 808.9 468.958345 858.95 468.958345 909.35C468.958345 934.2 477.708345 965.0 497.541655 965.0Z" fill="#1a1a1a"/><path d="M784.541655 965.0C785.125 962.2 785.416655 958.7 785.416655 954.15C785.416655 930.0 780.166655 912.5 760.625 912.5H741.666655C727.666655 912.5 707.833345 913.55 692.666655 915.3V913.2C705.208345 900.95 713.083345 893.95 725.333345 878.9C757.708345 840.4 785.416655 797.7 785.416655 770.75V767.6C785.416655 734.7 774.041655 720.0 758.583345 720.0H648.333345C647.75 724.9 646.875 732.25 646.875 739.25C646.875 760.25 655.041655 770.75 675.166655 770.75H691.5C718.625 770.75 729.708345 769.7 738.75 766.55V768.65C732.333345 784.05 726.791655 795.25 717.75 811.7C696.75 850.55 672.833345 881.7 639.583345 916.0V921.25C639.583345 948.55 645.708345 965.0 666.125 965.0Z" fill="#1a1a1a"/><path d="M922.208345 695.5C884.175 695.5 853.958345 730.15 853.958345 774.6C853.958345 824.3 853.958345 874.0 853.958345 923.7H890.708345L888.55 911.1C893.625 902.0 897.708345 887.3 897.708345 866.65C897.708345 840.05 897.708345 813.1 897.708345 786.5C895.083345 773.9 892.75 759.9 892.75 747.3C900.916655 745.55 909.083345 745.2 916.666655 745.2C938.25 745.2 956.916655 749.4 965.083345 753.95H966.833345C968.291655 748.0 968.291655 741.0 968.291655 734.7C968.291655 723.5 966.541655 713.35 961.291655 707.05C955.458345 700.05 944.083345 695.5 922.208345 695.5ZM842.175 786.5C842.175 788.6 842.175 790.7 842.175 793.15C842.175 828.15 850.75 839.0 877.875 839.0H958.958345C960.125 833.05 961.0 825.0 961.0 816.95C961.0 793.85 954.0 786.5 930.958345 786.5ZM870.0 965.0C870.0 965.0 870.0 965.0 870.0 965.0C870.0 965.0 870.0 965.0 870.0 965.0C870.0 965.0 870.0 965.0 870.0 965.0C870.0 965.0 870.0 965.0 870.0 965.0Z" fill="#1a1a1a"/><path d="M985.791655 786.5C984.625 792.1 983.458345 800.85 983.458345 808.9C983.458345 834.8 989.0 847.05 997.166655 847.05C1011.166655 847.05 1022.25 839.35 1039.75 818.7L1041.5 819.4C1041.5 849.85 1041.5 880.3 1041.5 910.75C1041.5 936.65 1059.875 968.5 1094.0 968.5C1116.166655 968.5 1124.916655 962.2 1130.458345 955.55C1135.708345 949.25 1140.666655 936.3 1140.666655 919.15C1140.666655 914.95 1140.375 910.4 1139.5 905.85H1137.75C1125.5 914.25 1110.625 917.75 1097.208345 917.75C1093.708345 917.75 1090.208345 917.75 1087.291655 917.4C1085.833345 909.35 1085.25 900.25 1085.25 889.75C1085.25 862.1 1085.25 834.8 1085.25 807.15C1085.25 785.1 1070.375 772.5 1044.416655 772.5C1026.625 772.5 1008.541655 776.0 985.791655 786.5ZM1024.764155 723.675C1024.764155 745.160835 1042.180785 762.5775 1063.666655 762.5775C1085.152525 762.5775 1102.569155 745.160835 1102.569155 723.675C1102.569155 702.189165 1085.152525 684.7725 1063.666655 684.7725C1042.180785 684.7725 1024.764155 702.189165 1024.764155 723.675Z" fill="#1a1a1a"/><path d="M1155.541655 713.0C1154.375 718.6 1153.208345 727.35 1153.208345 735.4C1153.208345 761.3 1158.75 773.55 1166.916655 773.55C1180.625 773.55 1187.916655 755.35 1209.791655 744.85L1211.25 746.25C1211.25 801.2 1211.25 855.8 1211.25 910.75C1211.25 936.65 1230.5 968.5 1266.666655 968.5C1288.833345 968.5 1297.583345 962.2 1303.125 955.55C1308.375 949.25 1313.333345 936.3 1313.333345 919.15C1313.333345 914.95 1313.041655 910.4 1312.166655 905.85H1310.416655C1298.166655 914.95 1287.375 917.75 1269.875 917.75C1265.208345 917.75 1260.833345 917.4 1257.041655 916.0C1255.583345 909.0 1255.0 900.25 1255.0 889.75C1255.0 837.6 1255.0 785.8 1255.0 733.65C1255.0 711.6 1240.125 699.0 1211.25 699.0C1196.375 699.0 1178.291655 702.5 1155.541655 713.0Z" fill="#1a1a1a"/><path d="M1334.916655 783.0C1333.458345 793.15 1332.875 799.8 1332.875 808.55C1332.875 825.7 1337.25 835.5 1345.125 835.5C1350.958345 835.5 1357.958345 830.6 1365.25 821.5L1366.708345 822.9C1366.708345 860.0 1366.708345 912.85 1366.708345 934.9C1366.708345 956.6 1378.083345 967.1 1397.333345 967.1C1403.166655 967.1 1409.0 966.4 1414.833345 965.0C1411.333345 950.65 1410.458345 938.75 1410.458345 922.65C1410.458345 887.3 1410.458345 852.3 1410.458345 829.9C1410.458345 784.05 1395.0 772.5 1373.416655 772.5C1360.583345 772.5 1346.0 776.0 1334.916655 783.0ZM1456.833345 769.0C1443.416655 769.0 1423.583345 790.35 1411.916655 828.5H1403.458345L1402.583345 885.2C1417.458345 842.85 1434.958345 828.15 1452.458345 828.15C1453.041655 828.15 1453.333345 828.15 1453.916655 828.15C1453.916655 834.45 1453.333345 841.1 1452.166655 849.5V851.6C1453.625 852.3 1455.375 852.65 1457.416655 852.65C1488.041655 852.65 1488.041655 814.5 1488.041655 812.05V807.5C1488.041655 805.75 1488.333345 792.1 1477.541655 779.5C1472.291655 773.55 1465.291655 769.0 1456.833345 769.0Z" fill="#1a1a1a"/><path d="M1514.875 872.6V884.15C1514.875 963.25 1541.125 1010.5 1594.208345 1010.5C1614.041655 1010.5 1628.041655 1007.35 1633.291655 1001.05C1638.25 995.1 1639.416655 983.55 1639.416655 968.5C1639.416655 967.45 1639.416655 966.75 1639.416655 965.7H1637.666655C1625.416655 972.7 1614.041655 975.5 1595.666655 975.5C1581.083345 975.5 1571.166655 974.1 1560.375 968.85C1549.0 950.3 1544.041655 923.0 1544.041655 877.15V873.65C1544.041655 789.3 1569.416655 730.5 1602.666655 730.5C1607.333345 730.5 1611.416655 731.2 1615.208345 732.95C1620.75 741.0 1621.625 751.85 1621.625 761.65C1621.625 810.3 1621.625 858.6 1621.625 907.25C1621.625 927.55 1636.208345 946.1 1657.5 946.1H1661.875C1660.125 933.15 1659.541655 921.25 1659.541655 910.4C1659.541655 867.35 1659.541655 823.95 1659.541655 780.9C1659.541655 732.95 1637.666655 695.5 1603.541655 695.5C1546.375 695.5 1514.875 764.45 1514.875 872.6ZM1644.375 875.75C1634.166655 893.25 1621.916655 905.5 1612.583345 905.5C1605.0 905.5 1601.5 895.7 1601.5 874.0V871.55C1601.5 849.85 1602.666655 828.15 1607.625 806.45C1609.666655 806.1 1613.166655 806.1 1615.5 806.1C1622.208345 806.1 1628.625 807.15 1635.041655 813.45V773.9H1619.875C1617.25 769.0 1613.458345 766.2 1608.5 766.2C1588.083345 766.2 1566.5 797.0 1566.5 877.5V880.65C1566.5 925.1 1580.208345 947.5 1602.666655 947.5C1612.291655 947.5 1621.041655 940.85 1625.416655 928.95H1642.333345Z" fill="#1a1a1a"/><path d="M1682.291655 973.4C1681.125 979.0 1680.541655 985.65 1680.833345 993.0C1681.09847 1009.54487345644 1685.97376 1020.21504741018 1693.958345 1028.0C1699.791655 1033.6 1709.416655 1038.5 1723.708345 1038.5C1747.687055 1038.5 1772.708345 1019.95 1772.708345 977.25C1772.708345 914.95 1772.708345 857.2 1772.708345 783.35C1772.708345 761.3 1774.458345 753.6 1779.125 748.0C1782.625 743.8 1787.583345 742.75 1792.541655 742.75C1797.208345 742.75 1801.583345 743.1 1805.666655 744.5C1806.541655 761.3 1805.666655 776.0 1802.458345 792.8V794.9C1804.791655 795.6 1807.416655 795.95 1809.75 795.95C1829.0 795.95 1841.833345 774.25 1841.833345 750.45V745.9C1841.833345 732.6 1838.625 720.0 1829.291655 709.85C1822.0 701.45 1810.916655 695.5 1792.541655 695.5C1752.0 695.5 1726.041655 724.9 1726.041655 771.8C1726.041655 835.5 1726.041655 897.45 1726.041655 959.75C1726.041655 969.40797101451 1725.144115 977.676617692165 1723.416655 983.55C1721.61811 984.269418167685 1717.291655 985.3 1711.166655 985.3C1702.125 985.3 1693.083345 983.2 1684.041655 973.4ZM1685.5 831.3C1685.5 833.4 1685.5 835.5 1685.5 837.95C1685.5 872.95 1699.791655 883.8 1751.416655 883.8H1833.958345C1835.125 877.85 1836.0 869.8 1836.0 861.75C1836.0 838.65 1829.0 831.3 1805.958345 831.3ZM1860.791655 786.5C1859.625 792.1 1858.458345 800.85 1858.458345 808.9C1858.458345 834.8 1864.0 847.05 1872.166655 847.05C1886.166655 847.05 1897.25 839.35 1914.75 818.7L1916.5 819.4C1916.5 849.85 1916.5 880.3 1916.5 910.75C1916.5 936.65 1934.875 968.5 1969.0 968.5C1991.166655 968.5 1999.916655 962.2 2005.458345 955.55C2010.708345 949.25 2015.666655 936.3 2015.666655 919.15C2015.666655 914.95 2015.375 910.4 2014.5 905.85H2012.75C2000.5 914.25 1985.625 917.75 1972.208345 917.75C1968.708345 917.75 1965.208345 917.75 1962.291655 917.4C1960.833345 909.35 1960.25 900.25 1960.25 889.75C1960.25 862.1 1960.25 834.8 1960.25 807.15C1960.25 785.1 1945.375 772.5 1919.416655 772.5C1901.625 772.5 1883.541655 776.0 1860.791655 786.5ZM1899.764155 723.675C1899.764155 745.160835 1917.180785 762.5775 1938.666655 762.5775C1960.152525 762.5775 1977.569155 745.160835 1977.569155 723.675C1977.569155 702.189165 1960.152525 684.7725 1938.666655 684.7725C1917.180785 684.7725 1899.764155 702.189165 1899.764155 723.675Z" fill="#1a1a1a"/>
</svg>