<?xml version="1.0" encoding="UTF-8"?>
<svg xmlns="http://www.w3.org/2000/svg" width="1890.0" height="725.0"
     viewBox="0 0 1890.0 725.0">
<rect width="100%" height="100%" fill="white"/>
<text x="945.0" y="30" text-anchor="middle" font-size="14" font-family="sans-serif" font-weight="bold" fill="#333">Mono C Slanted — Key glyphs + features</text><text x="187.5" y="48" text-anchor="middle" font-size="10" font-family="sans-serif" fill="#999">J</text><text x="362.5" y="48" text-anchor="middle" font-size="10" font-family="sans-serif" fill="#999">S</text><text x="537.5" y="48" text-anchor="middle" font-size="10" font-family="sans-serif" fill="#999">L</text><text x="712.5" y="48" text-anchor="middle" font-size="10" font-family="sans-serif" fill="#999">Z</text><text x="887.5" y="48" text-anchor="middle" font-size="10" font-family="sans-serif" fill="#999">f</text><text x="1062.5" y="48" text-anchor="middle" font-size="10" font-family="sans-serif" fill="#999">i</text><text x="1237.5" y="48" text-anchor="middle" font-size="10" font-family="sans-serif" fill="#999">l</text><text x="1412.5" y="48" text-anchor="middle" font-size="10" font-family="sans-serif" fill="#999">r</text><text x="1587.5" y="48" text-anchor="middle" font-size="10" font-family="sans-serif" fill="#999">@</text><text x="1762.5" y="48" text-anchor="middle" font-size="10" font-family="sans-serif" fill="#999">fi</text><text x="20" y="221.25" font-size="11" font-family="sans-serif" font-weight="bold" fill="#555">Linear</text><path d="M162.416655 231.75C143.75 231.75 128.875 224.75 113.125 216.35000000000002H107.291655C102.625 238.4 97.666655 260.45 93.0 282.5C92.708345 283.9 92.708345 285.3 93.875 286.7C100.0 294.05 128.0 307.0 164.166655 307.0C223.375 307.0 248.45834499999998 273.05 258.958345 220.9C270.625 164.55 281.416655 113.80000000000001 293.083345 58.85000000000002C293.666655 56.05000000000001 292.5 55.00000000000003 290.75 55.00000000000003C244.666655 55.00000000000003 198.291655 55.00000000000003 152.208345 55.00000000000003C147.25 77.75 142.0 100.85000000000002 137.041655 123.60000000000002C136.458345 126.05000000000001 137.916655 127.45000000000002 139.375 127.45000000000002C165.916655 127.45000000000002 192.75 127.45000000000002 219.291655 127.45000000000002L208.208345 123.60000000000002L215.5 132.0L212.583345 117.30000000000001C207.333345 142.5 202.083345 167.70000000000002 196.833345 192.9C193.625 207.95 189.833345 217.05 184.875 223.0C179.625 229.3 172.625 231.75 162.416655 231.75Z" fill="#1a1a1a"/><path d="M400.708345 48.00000000000003C349.375 48.00000000000003 314.375 66.9 305.333345 108.9L301.541655 126.4C296.583345 151.60000000000002 297.458345 184.5 345.291655 202.0L363.083345 208.65C371.541655 211.8 379.416655 214.95 377.083345 225.8L376.5 228.60000000000002C374.75 237.0 366.875 239.45 350.833345 239.45C321.375 239.45 301.833345 230.35000000000002 286.958345 216.7H281.125C277.041655 237.35 272.666655 258.0 268.875 278.65C268.583345 280.05 268.291655 281.45 269.458345 282.85C279.666655 295.1 307.083345 307.0 344.708345 307.0C392.833345 307.0 423.458345 287.75 433.375 240.85L434.25 236.3C442.708345 192.9 435.708345 169.8 395.166655 153.70000000000002L369.5 143.55C363.666655 141.10000000000002 361.041655 136.9 362.5 130.25L363.375 126.05000000000001C365.416655 116.25 370.666655 113.80000000000001 386.708345 113.80000000000001C394.875 113.80000000000001 403.333345 115.9 408.0 119.05000000000001L401.583345 104.0C399.541655 113.10000000000002 397.5 122.20000000000002 395.458345 131.65C394.875 134.45000000000002 395.458345 135.5 397.791655 135.5C414.125 135.5 433.666655 135.5 451.458345 135.5C455.833345 114.85000000000002 460.208345 93.85000000000002 464.583345 73.20000000000002C465.458345 68.65 465.75 68.30000000000001 464.291655 66.55000000000001C457.291655 58.150000000000006 433.083345 48.00000000000003 400.708345 48.00000000000003Z" fill="#1a1a1a"/><path d="M446.208345 300.0H596.125C602.541655 269.55 604.583345 260.45 610.416655 231.75C611.291655 227.9 610.416655 226.5 607.791655 226.5H524.083345C535.458345 171.9 547.708345 113.45000000000002 559.083345 58.85000000000002C559.666655 56.400000000000006 558.791655 55.00000000000003 556.75 55.00000000000003C534.875 55.00000000000003 516.208345 55.00000000000003 494.333345 55.00000000000003C491.708345 66.55000000000001 489.375 78.10000000000002 487.041655 89.65C472.75 158.25 458.166655 227.55 443.875 296.15C443.583345 298.25 444.458345 300.0 446.208345 300.0Z" fill="#1a1a1a"/><path d="M771.125 300.0C776.083345 276.9 781.041655 253.45 785.708345 230.35000000000002C786.291655 227.9 785.416655 226.5 783.375 226.5H757.708345C737.291655 226.5 722.416655 226.5 697.625 226.5L699.083345 219.5C713.083345 216.35000000000002 722.125 212.85000000000002 755.083345 181.0C770.541655 166.3 786.583345 150.55 804.958345 132.0L820.125 58.85000000000002C820.708345 56.400000000000006 819.833345 55.00000000000003 817.791655 55.00000000000003H664.958345C659.708345 79.5 655.916655 97.35000000000002 651.541655 119.4C650.666655 123.60000000000002 651.541655 125.0 654.75 125.0H711.916655C730.583345 125.0 721.833345 125.0 747.208345 125.0L745.75 132.0C726.5 140.4 716.583345 148.8 698.791655 164.20000000000002C676.916655 183.10000000000002 653.291655 204.45 629.083345 226.85000000000002L614.5 296.15C613.916655 298.6 614.791655 300.0 616.833345 300.0Z" fill="#1a1a1a"/><path d="M952.541655 30.5C899.166655 30.5 876.708345 49.400000000000006 863.0 115.55000000000001C853.375 161.75 840.541655 223.35000000000002 830.916655 269.55H903.541655L901.791655 251.0C903.833345 241.55 905.291655 234.55 907.625 222.65C915.208345 186.60000000000002 922.5 150.55 930.083345 114.5C931.25 109.95000000000002 932.708345 106.10000000000002 935.333345 104.0C937.666655 101.55000000000001 940.583345 100.5 948.166655 100.5C958.375 100.5 973.25 102.25 984.916655 107.5H990.75C995.125 87.20000000000002 999.208345 67.25000000000003 1003.583345 46.95000000000002C1003.875 45.900000000000006 1003.875 44.85000000000002 1003.291655 44.150000000000006C997.75 38.19999999999999 978.5 30.5 952.541655 30.5ZM822.458345 127.10000000000002C818.441605 146.380274667115 814.0 167.35 809.916655 186.60000000000002C809.333345 189.05 810.208345 190.45 812.25 190.45H969.458345C973.833345 170.5 978.208345 150.9 982.291655 130.95000000000002C982.875 128.5 982.0 127.10000000000002 979.958345 127.10000000000002ZM801.75 227.55C798.25 244.0 790.666655 279.7 787.166655 296.15C786.875 298.6 787.75 300.0 789.5 300.0H938.25C941.70037 283.43826110035 949.041655 247.85 952.541655 231.4C953.125 228.95 952.25 227.55 950.208345 227.55Z" fill="#1a1a1a"/><path d="M1002.416655 107.5C997.75 130.25 993.083345 153.35000000000002 988.416655 176.10000000000002C987.833345 178.55 988.708345 179.95 990.75 179.95C1002.416655 179.95 1014.375 179.95 1026.041655 179.95H1035.666655C1031.875 197.10000000000002 1028.375 214.25 1024.583345 231.4C1014.666655 277.6 1028.666655 300.0 1067.458345 300.0C1084.666655 300.0 1102.166655 300.0 1119.375 300.0C1121.416655 300.0 1122.875 298.6 1123.458345 296.15C1128.416655 273.4 1133.083345 250.3 1138.041655 227.55H1132.208345C1119.666655 227.55 1106.541655 227.55 1094.0 227.55C1093.125 227.55 1092.541655 227.2 1092.25 226.85000000000002C1091.666655 226.15 1091.666655 225.10000000000002 1091.958345 223.7C1099.833345 186.25 1107.416655 148.8 1115.291655 111.35000000000002C1115.875 108.9 1115.0 107.5 1112.958345 107.5C1076.208345 107.5 1039.166655 107.5 1002.416655 107.5ZM1048.365845 52.37500000000003C1048.365845 78.38416500000002 1069.44918 99.4675 1095.458345 99.4675C1121.46751 99.4675 1142.550845 78.38416500000002 1142.550845 52.37500000000003C1142.550845 26.365835000000004 1121.46751 5.282500000000027 1095.458345 5.282500000000027C1069.44918 5.282500000000027 1048.365845 26.365835000000004 1048.365845 52.37500000000003Z" fill="#1a1a1a"/><path d="M1188.208345 37.5C1183.541655 60.25000000000003 1178.583345 83.35000000000002 1173.916655 106.10000000000002C1173.333345 108.55000000000001 1174.208345 109.95000000000002 1176.25 109.95000000000002C1188.791655 109.95000000000002 1201.625 109.95000000000002 1214.458345 109.95000000000002H1221.75C1213.291655 150.55 1204.25 190.8 1195.791655 231.4C1187.333345 272.35 1204.25 300.0 1238.666655 300.0C1255.0 300.0 1271.333345 300.0 1287.666655 300.0C1289.416655 300.0 1291.166655 298.6 1291.75 296.15C1296.416655 273.4 1301.375 250.3 1306.041655 227.55H1300.5C1288.833345 227.55 1277.166655 227.55 1265.5 227.55C1264.625 227.55 1263.75 227.2 1263.458345 226.85000000000002C1263.166655 226.15 1262.875 225.10000000000002 1263.166655 223.7C1275.708345 163.15 1288.541655 101.9 1301.083345 41.35000000000002C1301.666655 38.900000000000034 1300.791655 37.5 1298.75 37.5C1262.0 37.5 1224.958345 37.5 1188.208345 37.5Z" fill="#1a1a1a"/><path d="M1348.333345 107.5C1343.666655 129.55 1339.0 151.60000000000002 1334.333345 173.65C1334.041655 176.10000000000002 1334.916655 177.5 1336.666655 177.5C1341.041655 177.5 1349.5 177.5 1354.166655 177.5H1360.0C1351.541655 217.05 1335.791655 293.7 1335.208345 296.15C1334.625 298.6 1335.5 300.0 1337.541655 300.0C1358.25 300.0 1379.25 300.0 1399.958345 300.0C1402.291655 288.8 1404.625 277.25 1406.958345 266.05C1414.541655 230.0 1422.125 193.95 1431.166655 150.9C1431.75 150.20000000000002 1425.916655 107.5 1425.916655 107.5C1407.833345 107.5 1373.125 107.5 1348.333345 107.5ZM1490.958345 104.0C1467.625 104.0 1454.208345 114.5 1436.708345 147.75H1419.791655L1409.875 192.9C1421.25 186.25 1430.466655 183.8 1439.041655 183.8C1439.625 183.8 1440.5 183.8 1440.791655 183.8C1439.625 189.05 1438.75 193.95 1437.583345 199.2L1437.0 202.0C1455.375 202.0 1473.166655 202.0 1491.541655 202.0C1493.583345 202.0 1495.041655 200.60000000000002 1495.625 198.15L1513.125 114.5C1513.416655 113.10000000000002 1513.416655 112.05000000000001 1512.541655 111.0C1509.333345 107.15 1499.416655 104.0 1490.958345 104.0Z" fill="#1a1a1a"/><path d="M1526.541655 129.20000000000002 1494.166655 284.6C1480.458345 350.75 1503.5 387.5 1559.208345 387.5C1581.375 387.5 1601.5 381.2 1605.583345 377.7C1606.166655 377.0 1606.75 375.95 1607.041655 374.9C1608.5 366.85 1616.666655 328.35 1618.416655 320.3H1611.708345C1600.625 325.55 1584.875 329.05 1572.333345 329.05C1552.791655 329.05 1545.5 325.9 1539.666655 319.25C1534.708345 312.95 1532.666655 304.55 1536.458345 286.35L1563.875 155.10000000000002C1572.041655 115.9 1580.208345 98.75 1607.916655 98.75C1622.791655 98.75 1630.375 102.60000000000002 1633.875 110.30000000000001C1636.5 116.60000000000002 1636.5 125.70000000000002 1634.166655 137.25C1623.083345 190.45 1616.375 221.25 1605.291655 274.45C1605.291655 275.5 1626.0 310.85 1628.625 310.85H1641.458345C1644.666655 295.45 1647.875 280.05 1651.083345 264.65C1660.708345 218.45 1673.25 158.60000000000002 1679.958345 126.4C1691.333345 72.15 1674.708345 34.0 1618.125 34.0C1564.166655 34.0 1539.083345 69.00000000000003 1526.541655 129.20000000000002ZM1628.625 242.6C1618.416655 255.55 1610.25 261.85 1600.916655 261.85C1596.541655 261.85 1595.375 259.05 1596.541655 253.8L1613.166655 174.35000000000002C1613.75 171.9 1614.625 169.8 1615.791655 168.4C1617.25 167.0 1619.0 166.3 1621.041655 166.3C1628.625 166.3 1636.791655 167.70000000000002 1643.208345 171.55L1652.541655 127.45000000000002H1632.708345C1625.416655 119.75 1618.125 115.20000000000002 1606.75 115.20000000000002C1591.291655 115.20000000000002 1582.541655 125.70000000000002 1577.291655 150.9L1550.166655 281.1C1545.5 303.15 1552.208345 314.35 1567.666655 314.35C1581.666655 314.35 1595.666655 307.7 1609.666655 287.75H1619.291655Z" fill="#1a1a1a"/><path d="M1660.125 296.5C1655.166655 319.6 1650.208345 343.05 1645.541655 366.15C1644.958345 368.6 1646.125 370.0 1647.875 370.0C1660.708345 370.0 1676.75 370.0 1689.583345 370.0C1728.083345 370.0 1751.416655 347.25 1761.041655 301.4C1773.875 240.15 1788.166655 172.25 1801.0 111.35000000000002C1801.84252 106.968873739965 1803.5120200000001 103.46237983258001 1805.666655 101.20000000000002C1808.184135 98.55664324091504 1811.24478 97.35000000000002 1815.583345 97.35000000000002C1817.72223 97.35000000000002 1819.861115 97.35000000000002 1822.0 97.35000000000002C1820.833345 102.60000000000002 1820.541655 104.35000000000002 1819.375 109.95000000000002L1818.5 114.5C1833.758775 114.5 1844.65788 114.5 1859.916655 114.5C1862.541655 114.5 1863.416655 113.10000000000002 1864.0 110.65L1877.125 47.650000000000006C1877.416655 45.900000000000006 1877.125 45.20000000000002 1876.25 44.150000000000006C1871.875 38.900000000000034 1852.916655 30.5 1822.291655 30.5C1767.458345 30.5 1746.458345 50.10000000000002 1733.041655 115.55000000000001C1720.791655 173.65 1708.25 234.2 1696.0 292.65C1695.708345 294.05 1695.416655 294.75 1694.833345 295.45C1694.25 296.15 1693.375 296.5 1691.625 296.5C1684.333345 296.5 1674.125 296.5 1665.958345 296.5ZM1690.166655 153.0C1686.083345 172.25 1680.541655 198.85000000000002 1676.458345 218.10000000000002C1675.875 220.55 1676.75 221.95 1678.791655 221.95H1836.0C1840.083345 202.7 1845.625 176.10000000000002 1849.708345 156.85000000000002C1850.291655 154.4 1849.416655 153.0 1847.375 153.0ZM1877.416655 107.5C1872.75 130.25 1868.083345 153.35000000000002 1863.416655 176.10000000000002C1862.833345 178.55 1863.708345 179.95 1865.75 179.95C1877.416655 179.95 1889.375 179.95 1901.041655 179.95H1910.666655C1906.875 197.10000000000002 1903.375 214.25 1899.583345 231.4C1889.666655 277.6 1903.666655 300.0 1942.458345 300.0C1959.666655 300.0 1977.166655 300.0 1994.375 300.0C1996.416655 300.0 1997.875 298.6 1998.458345 296.15C2003.416655 273.4 2008.083345 250.3 2013.041655 227.55H2007.208345C1994.666655 227.55 1981.541655 227.55 1969.0 227.55C1968.125 227.55 1967.541655 227.2 1967.25 226.85000000000002C1966.666655 226.15 1966.666655 225.10000000000002 1966.958345 223.7C1974.833345 186.25 1982.416655 148.8 1990.291655 111.35000000000002C1990.875 108.9 1990.0 107.5 1987.958345 107.5C1951.208345 107.5 1914.166655 107.5 1877.416655 107.5ZM1923.365845 52.37500000000003C1923.365845 78.38416500000002 1944.44918 99.4675 1970.458345 99.4675C1996.46751 99.4675 2017.550845 78.38416500000002 2017.550845 52.37500000000003C2017.550845 26.365835000000004 1996.46751 5.282500000000027 1970.458345 5.282500000000027C1944.44918 5.282500000000027 1923.365845 26.365835000000004 1923.365845 52.37500000000003Z" fill="#1a1a1a"/><line x1="20" y1="382.5" x2="1870.0" y2="382.5" stroke="#eee" stroke-width="0.5"/><text x="20" y="553.75" font-size="11" font-family="sans-serif" font-weight="bold" fill="#555">Casual</text><path d="M161.25 564.25C141.708345 564.25 128.875 559.35 112.833345 545.0H111.666655C109.041655 549.9 106.416655 556.9 103.791655 569.15C97.375 598.2 100.291655 609.75 108.166655 622.7C115.16665499999999 633.55 138.208345 639.5 160.375 639.5C207.625 639.5 240.0 616.4 254.875 569.85C269.75 523.3 269.166655 472.9 282.0 432.65C291.625 403.25 273.833345 384.0 233.875 384.0C207.625 384.0 168.833345 386.1 144.333345 389.95000000000005C142.0 395.20000000000005 139.4639 402.08857589850504 137.625 410.6C131.90579 437.70900084228003 144.041655 459.95000000000005 165.041655 459.95000000000005C185.75 459.95000000000005 205.199535 455.64116550458004 221.041655 447.0L210.833345 442.1L215.208345 453.65L214.333345 440.35C202.958345 475.70000000000005 202.083345 512.45 193.041655 547.1C192.166655 550.6 191.291655 554.1 190.125 557.6C183.125 562.15 173.5 564.25 161.25 564.25Z" fill="#1a1a1a"/><path d="M406.833345 380.5C356.375 380.5 309.416655 419.70000000000005 299.5 467.65L298.916655 470.45000000000005C292.208345 502.3 305.041655 522.6 347.916655 539.05L359.875 543.6C370.375 547.8 375.916655 553.4 375.916655 562.15V563.2C368.333345 564.95 357.833345 565.65 346.166655 565.65C321.958345 565.65 305.041655 555.15 290.75 536.95H289.0C283.166655 545.7 277.625 567.05 275.875 578.25C272.666655 597.85 275.0 613.25 284.041655 622.7C294.25 633.2 313.208345 639.5 344.708345 639.5C396.333345 639.5 424.333345 620.95 432.5 581.4L433.666655 575.8C439.791655 546.05 426.375 520.85 391.666655 507.2L370.958345 499.15C359.583345 494.6 355.5 488.65 357.25 480.95000000000005L357.541655 479.55C359.875 468.0 378.25 458.20000000000005 398.083345 458.20000000000005C400.416655 458.20000000000005 404.5 458.55 408.0 458.9L404.5 444.9C400.416655 452.95000000000005 397.208345 462.4 396.625 468.0C393.416655 488.65 403.041655 498.1 427.25 498.1C436.583345 498.1 444.75 496.70000000000005 451.458345 493.9C452.041655 480.6 454.375 463.8 457.875 447.70000000000005C461.666655 428.45000000000005 457.291655 412.70000000000005 448.25 400.1C438.333345 387.15 423.75 380.5 406.833345 380.5Z" fill="#1a1a1a"/><path d="M499.875 632.5H597.0C599.041655 626.9 600.791655 620.6 602.25 613.6C607.791655 587.0 607.5 555.5 573.083345 555.5H524.666655C527.0 516.3 548.875 479.9 555.0 432.65C558.5 404.65 555.0 384.0 519.708345 384.0C509.5 384.0 499.875 385.05 490.541655 387.5C492.291655 399.4 492.875 413.05 490.541655 427.4C483.25 473.25 461.375 513.5 454.666655 563.55C450.291655 596.45 474.5 632.5 499.875 632.5Z" fill="#1a1a1a"/><path d="M772.583345 632.5C775.5 624.45 779.291655 611.85 781.333345 601.35C786.875 574.75 782.208345 554.8 759.75 554.8H758.583345C749.833345 554.8 737.583345 555.85 712.791655 562.15L713.083345 560.05C732.625 548.15 752.166655 533.1 769.083345 517.35C790.375 497.05 807.0 476.05 809.916655 461.0L810.5 457.85C816.625 424.6 803.791655 387.5 787.166655 387.5H667.875C664.083345 396.6 660.875 405.35 659.125 413.4C653.875 439.3 662.333345 458.55 685.375 458.55H711.625C728.541655 458.55 735.541655 458.55 746.625 458.55L746.041655 460.65C735.833345 478.15 723.0 492.85 710.166655 506.15C688.583345 528.55 661.458345 546.75 623.833345 567.05L623.25 570.2C614.208345 613.25 621.208345 632.5 650.083345 632.5Z" fill="#1a1a1a"/><path d="M955.458345 363.0C903.541655 363.0 869.416655 403.25 862.125 433.35C849.583345 485.15 844.916655 533.45 828.291655 589.1H898.875L893.916655 557.95C900.333345 549.9 905.0 540.8 907.041655 531.0C911.416655 510.0 916.375 485.15 921.625 459.95000000000005C919.875 451.55 919.583345 442.8 920.75 434.4C926.291655 433.35 936.791655 433.0 944.666655 433.0C958.083345 433.0 975.583345 435.8 985.208345 440.35H986.958345C991.041655 430.20000000000005 993.375 422.5 995.708345 410.95000000000005C999.5 392.4 1000.666655 380.15 995.125 373.5C990.458345 367.55 980.833345 363.0 955.458345 363.0ZM821.0 459.25C819.833345 463.1 818.958345 466.95000000000005 816.916655 475.70000000000005C809.041655 509.65 825.958345 524.0 857.75 524.0H964.208345C967.708345 517.0 970.625 507.9 972.375 499.85C979.13812 468.09281119001 969.750035 458.899999253905 951.083345 459.25ZM800.875 560.05C797.375 569.5 794.75 578.25 792.708345 587.7C787.166655 613.25 800.291655 632.5 823.333345 632.5H933.291655C935.916655 625.85 939.416655 617.1 941.458345 606.6C948.31327 574.03898724818 935.916655 560.05 900.916655 560.05Z" fill="#1a1a1a"/><path d="M998.041655 450.15C994.541655 458.20000000000005 991.041655 468.0 989.0 478.5C982.78561 507.95626329744005 984.916655 531.0 1002.125 531.0C1014.083345 531.0 1026.916655 522.95 1040.041655 505.45L1041.791655 506.5C1034.208345 526.45 1028.98085 541.33568779915 1025.166655 569.15C1020.208345 604.85 1044.708345 636.35 1074.75 636.35C1098.375 636.35 1110.916655 630.05 1120.833345 618.15C1129.0 608.35 1133.958345 597.15 1137.75 580.0C1140.958345 566.0 1141.276775 553.62805700631 1140.666655 540.45H1138.916655C1125.42412 554.75837092426 1107.6969 562.15 1092.541655 562.15C1090.5 562.15 1087.291655 561.8 1084.666655 561.1C1084.958345 556.2 1085.833345 551.65 1087.291655 546.75C1093.416655 523.3 1105.666655 507.2 1109.458345 478.85C1112.666655 455.75 1096.041655 436.15 1070.666655 436.15C1050.369735 436.15 1024.100345 438.0939444717 998.041655 450.15ZM1048.949155 387.675C1048.949155 413.684165 1070.032455 434.7675 1096.041655 434.7675C1122.050855 434.7675 1143.134155 413.684165 1143.134155 387.675C1143.134155 361.665835 1122.050855 340.58250000000004 1096.041655 340.58250000000004C1070.032455 340.58250000000004 1048.949155 361.665835 1048.949155 387.675Z" fill="#1a1a1a"/><path d="M1192.291655 375.95C1183.541655 387.85 1178.0 401.15 1174.791655 416.20000000000005C1168.958345 443.5 1171.875 462.05 1190.541655 462.05C1204.541655 462.05 1216.791655 456.45000000000005 1234.875 437.55L1236.333345 438.6C1227.291655 465.9 1201.333345 498.45000000000005 1192.875 554.1C1186.75 594.7 1209.208345 636.35 1254.416655 636.35C1271.916655 636.35 1285.041655 631.8 1294.666655 620.25C1301.958345 611.5 1308.666655 599.6 1312.75 579.3C1315.958345 564.95 1315.666655 548.85 1314.791655 540.45H1313.041655C1298.166655 555.5 1282.416655 563.9 1267.541655 563.9C1263.458345 563.9 1259.375 563.2 1256.458345 561.1C1256.75 555.85 1257.625 550.95 1259.375 545.35C1269.583345 508.95 1299.916655 472.9 1307.5 427.75C1312.166655 399.4 1290.583345 366.5 1261.125 366.5C1240.416655 366.5 1215.041655 368.95 1192.291655 375.95Z" fill="#1a1a1a"/><path d="M1349.208345 445.95000000000005C1344.541655 454.70000000000005 1340.75 466.25 1338.125 480.6C1331.416655 513.85 1334.625 531.35 1343.958345 531.35C1350.083345 531.35 1356.5 528.55 1365.25 513.5L1367.291655 514.9C1363.5 538.35 1354.166655 560.4 1350.083345 580.0C1344.541655 608.0 1355.333345 636.0 1386.541655 636.0C1393.833345 636.0 1400.25 634.95 1406.958345 632.5C1404.041655 620.6 1404.333345 607.65 1406.958345 588.05C1411.041655 556.9 1425.916655 524.0 1431.75 499.5C1437.875 473.95000000000005 1427.666655 436.5 1390.625 436.5C1374.875 436.5 1360.583345 440.35 1349.208345 445.95000000000005ZM1480.166655 433.0C1466.458345 433.0 1448.958345 453.3 1434.666655 491.8L1430.291655 490.4L1414.833345 548.5C1422.708345 529.95 1430.583345 519.1 1441.375 519.1C1443.125 519.1 1445.75 519.45 1447.5 520.5C1447.5 526.1 1446.333345 534.5 1444.291655 540.8V542.9C1449.25 544.65 1453.625 545.0 1460.041655 545.0C1481.041655 545.0 1497.958345 528.9 1503.208345 502.3L1504.375 497.05C1509.333345 471.5 1505.541655 452.25 1496.791655 441.75C1491.541655 435.45000000000005 1486.291655 433.0 1480.166655 433.0Z" fill="#1a1a1a"/><path d="M1508.166655 553.4 1507.0 559.35C1488.041655 655.6 1510.791655 702.5 1558.625 702.5C1581.083345 702.5 1591.875 698.65 1598.875 692.0C1606.75 684.65 1610.833345 674.15 1613.166655 659.8C1614.041655 654.2 1613.75 648.25 1613.75 643.35H1612.0C1594.5 653.5 1580.791655 656.65 1565.916655 656.65C1557.458345 656.65 1549.291655 655.6 1542.291655 652.45C1534.416655 632.85 1537.333345 599.25 1545.791655 557.95L1546.666655 554.1C1560.666655 486.9 1589.833345 412.35 1632.125 412.35C1634.75 412.35 1636.5 412.35 1638.541655 412.35C1638.833345 417.95000000000005 1637.958345 424.95000000000005 1636.5 431.95000000000005C1626.583345 479.9 1608.791655 527.15 1602.375 575.45C1598.0 608.7 1613.458345 628.3 1642.333345 628.3H1648.458345C1648.458345 614.3 1649.625 600.65 1651.958345 589.1C1661.0 542.55 1676.458345 499.15 1684.916655 451.9C1694.833345 397.3 1674.416655 366.5 1629.5 366.5C1573.5 366.5 1528.875 447.70000000000005 1508.166655 553.4ZM1642.625 542.9C1630.375 558.65 1617.25 572.65 1609.083345 572.65C1606.166655 572.65 1607.625 562.85 1610.541655 548.15L1611.125 545.0C1616.083345 521.55 1619.875 505.1 1623.666655 492.5C1624.833345 492.5 1625.125 492.5 1626.291655 492.5C1629.208345 492.5 1633.291655 493.9 1637.958345 498.8L1651.375 447.0H1647.291655C1644.375 442.1 1642.041655 439.3 1630.666655 439.3C1611.416655 439.3 1581.083345 483.4 1567.375 555.15L1566.5 559.7C1557.166655 607.65 1566.5 630.05 1584.291655 630.05C1598.583345 630.05 1612.875 621.65 1627.166655 601.35H1631.25Z" fill="#1a1a1a"/><path d="M1668.0 618.85C1663.625 627.25 1660.708345 633.9 1658.666655 643.0C1654.875 659.45 1657.5 679.4 1665.375 688.85C1672.958345 697.95 1682.291655 702.5 1700.666655 702.5C1738.583345 702.5 1764.25 674.15 1772.416655 635.65C1783.5 583.85 1783.791655 524.0 1791.666655 468.0C1794.583345 447.70000000000005 1797.791655 441.75 1802.75 435.8C1806.833345 430.9 1812.958345 429.15 1816.458345 429.15C1819.375 429.15 1821.416655 429.85 1823.458345 431.95000000000005C1823.458345 439.65 1818.791655 450.15 1812.083345 457.5V459.6C1816.75 461.70000000000005 1821.125 462.75 1826.958345 462.75C1845.333345 462.75 1864.291655 454.70000000000005 1870.416655 425.65L1871.0 422.85C1875.083345 402.9 1869.25 388.9 1860.208345 378.05C1852.625 368.95 1838.692305 363.0 1821.125 363.0C1778.25 363.0 1749.083345 389.6 1737.416655 434.75C1722.03622 495.691372469915 1728.484935 551.070183392 1715.25 610.8C1714.083345 616.4 1712.041655 623.05 1709.708345 628.3C1706.1864 629.708775515245 1700.86374 630.05 1694.833345 630.05C1685.208345 630.05 1677.041655 625.15 1669.75 618.85ZM1691.916655 490.05C1690.75 493.20000000000005 1689.875 495.65 1688.708345 500.9C1680.833345 538.35 1701.626915 558.65 1728.083345 558.65H1835.416655C1838.333345 551.65 1840.958345 542.55 1842.708345 533.8C1847.958345 502.3 1836.875 490.05 1814.416655 490.05ZM1873.041655 450.15C1869.541655 458.20000000000005 1866.041655 468.0 1864.0 478.5C1857.78561 507.95626329744005 1859.916655 531.0 1877.125 531.0C1889.083345 531.0 1901.916655 522.95 1915.041655 505.45L1916.791655 506.5C1909.208345 526.45 1903.98085 541.33568779915 1900.166655 569.15C1895.208345 604.85 1919.708345 636.35 1949.75 636.35C1973.375 636.35 1985.916655 630.05 1995.833345 618.15C2004.0 608.35 2008.958345 597.15 2012.75 580.0C2015.958345 566.0 2016.276775 553.62805700631 2015.666655 540.45H2013.916655C2000.42412 554.75837092426 1982.6969 562.15 1967.541655 562.15C1965.5 562.15 1962.291655 561.8 1959.666655 561.1C1959.958345 556.2 1960.833345 551.65 1962.291655 546.75C1968.416655 523.3 1980.666655 507.2 1984.458345 478.85C1987.666655 455.75 1971.041655 436.15 1945.666655 436.15C1925.369735 436.15 1899.100345 438.0939444717 1873.041655 450.15ZM1923.949155 387.675C1923.949155 413.684165 1945.032455 434.7675 1971.041655 434.7675C1997.050855 434.7675 2018.134155 413.684165 2018.134155 387.675C2018.134155 361.665835 1997.050855 340.58250000000004 1971.041655 340.58250000000004C1945.032455 340.58250000000004 1923.949155 361.665835 1923.949155 387.675Z" fill="#1a1a1a"/>
</svg>