<?xml version="1.0" encoding="UTF-8"?>
<svg xmlns="http://www.w3.org/2000/svg" width="1540.0" height="1057.5"
     viewBox="0 0 1540.0 1057.5">
<rect width="100%" height="100%" fill="white"/>
<text x="770.0" y="30" text-anchor="middle" font-size="14" font-family="sans-serif" font-weight="bold" fill="#333">Sans C Upright — Key glyphs close-up</text><text x="187.5" y="48" text-anchor="middle" font-size="10" font-family="sans-serif" fill="#999">H</text><text x="362.5" y="48" text-anchor="middle" font-size="10" font-family="sans-serif" fill="#999">I</text><text x="537.5" y="48" text-anchor="middle" font-size="10" font-family="sans-serif" fill="#999">J</text><text x="712.5" y="48" text-anchor="middle" font-size="10" font-family="sans-serif" fill="#999">K</text><text x="887.5" y="48" text-anchor="middle" font-size="10" font-family="sans-serif" fill="#999">L</text><text x="1062.5" y="48" text-anchor="middle" font-size="10" font-family="sans-serif" fill="#999">M</text><text x="1237.5" y="48" text-anchor="middle" font-size="10" font-family="sans-serif" fill="#999">R</text><text x="1412.5" y="48" text-anchor="middle" font-size="10" font-family="sans-serif" fill="#999">S</text><text x="20" y="221.25" font-size="11" font-family="sans-serif" font-weight="bold" fill="#555">Linear</text><path d="M110.208345 55.00000000000003C110.208345 66.55000000000001 110.208345 78.45000000000002 110.208345 90.0C110.208345 158.60000000000002 110.208345 227.55 110.208345 296.15C110.208345 298.25 111.666655 300.0 113.416655 300.0C134.125 300.0 155.125 300.0 175.833345 300.0C175.833345 219.85000000000002 175.833345 139.0 175.833345 58.85000000000002C175.833345 56.400000000000006 174.666655 55.00000000000003 172.625 55.00000000000003C151.916655 55.00000000000003 130.916655 55.00000000000003 110.208345 55.00000000000003ZM139.375 142.5V208.65C139.375 211.10000000000002 140.541655 212.5 142.583345 212.5H248.75L242.625 139.0L228.33334499999998 142.5C221.041655 142.5 214.041655 142.5 206.75 142.5ZM279.375 300.0C279.375 288.45 279.375 276.55 279.375 265.0C279.375 196.4 279.375 127.45000000000002 279.375 58.85000000000002C279.375 56.75000000000003 277.916655 55.00000000000003 276.166655 55.00000000000003C255.45834499999998 55.00000000000003 234.45834499999998 55.00000000000003 213.75 55.00000000000003C213.75 135.15 213.75 216.0 213.75 296.15C213.75 298.6 214.916655 300.0 216.958345 300.0C237.666655 300.0 258.666655 300.0 279.375 300.0Z" fill="#1a1a1a"/><path d="M380.583345 282.5C380.583345 235.60000000000002 380.583345 188.35000000000002 380.583345 141.45000000000002C380.583345 119.75 380.583345 98.05000000000001 380.583345 76.35000000000002L382.916655 72.50000000000003H315.25C315.25 121.5 315.25 178.2 315.25 219.15C315.25 239.1 315.25 258.7 315.25 278.65L314.083345 282.5ZM412.083345 300.0C412.083345 283.9 412.083345 246.45 412.083345 230.35000000000002C412.083345 228.25 410.625 226.5 408.875 226.5H283.75C283.75 242.6 283.75 280.05 283.75 296.15C283.75 298.6 284.916655 300.0 286.958345 300.0ZM283.75 55.00000000000003C283.75 71.10000000000002 283.75 108.55000000000001 283.75 124.65C283.75 127.10000000000002 284.916655 128.5 286.958345 128.5H412.083345C412.083345 112.4 412.083345 74.95000000000002 412.083345 58.85000000000002C412.083345 56.75000000000003 410.625 55.00000000000003 408.875 55.00000000000003Z" fill="#1a1a1a"/><path d="M496.375 231.75C482.958345 231.75 474.791655 229.3 463.125 221.60000000000002H457.291655C457.291655 245.05 457.291655 268.85 457.291655 292.3C457.291655 293.35 457.583345 294.4 458.166655 295.1C461.375 298.95 479.458345 307.0 502.791655 307.0C560.25 307.0 588.25 276.55 588.25 214.25C588.25 161.69750000000002 588.25 107.55250000000001 588.25 55.00000000000003C588.25 52.20000000000002 581.454155 50.80000000000001 564.464595 50.80000000000001C557.66875 50.80000000000001 550.872905 50.80000000000001 544.07706 50.80000000000001C527.0875 50.80000000000001 520.291655 52.20000000000002 520.291655 55.00000000000003C520.291655 55.00000000000003 520.291655 55.00000000000003 520.291655 55.00000000000003C520.291655 55.00000000000003 520.291655 55.00000000000003 520.291655 55.00000000000003C520.291655 103.97200000000001 520.291655 154.428 520.291655 203.4C520.291655 213.2 518.541655 220.2 514.75 224.75C510.666655 229.65 504.833345 231.75 496.375 231.75Z" fill="#1a1a1a"/><path d="M739.625 158.95000000000002 694.125 231.4H712.208345C714.25 252.4 713.666655 251.35 721.25 269.9C732.625 297.55 742.25 303.5 768.791655 303.5C775.208345 303.5 785.708345 303.5 788.041655 303.5C790.083345 303.5 791.25 302.1 791.25 299.65C791.25 297.2 791.25 253.1 791.25 230.0H783.958345C782.791655 230.0 781.625 230.0 780.458345 230.0C776.375 230.0 774.333345 227.9 771.708345 222.65C760.916655 201.3 750.416655 180.3 739.625 158.95000000000002ZM794.166655 55.00000000000003H727.375C722.125 71.80000000000001 720.375 79.15 713.083345 104.0C705.5 129.9 705.791655 128.5 702.291655 158.25H684.208345V259.4C731.75 202.35000000000002 738.75 190.45 780.458345 96.30000000000001C796.208345 61.30000000000001 796.791655 59.55000000000001 796.791655 57.80000000000001C796.791655 56.400000000000006 795.625 55.00000000000003 794.166655 55.00000000000003ZM632.291655 55.00000000000003C632.291655 66.55000000000001 632.291655 78.45000000000002 632.291655 90.0C632.291655 158.60000000000002 632.291655 227.55 632.291655 296.15C632.291655 298.6 633.458345 300.0 635.5 300.0C656.208345 300.0 675.75 300.0 696.458345 300.0C696.458345 219.85000000000002 696.458345 139.0 696.458345 58.85000000000002C696.458345 56.75000000000003 695.291655 55.00000000000003 693.25 55.00000000000003C672.541655 55.00000000000003 653.0 55.00000000000003 632.291655 55.00000000000003Z" fill="#1a1a1a"/><path d="M813.416655 300.0H951.666655C951.666655 251.7 933.291655 226.5 898.875 226.5H875.833345C875.833345 171.9 875.833345 113.45000000000002 875.833345 58.85000000000002C875.833345 56.400000000000006 874.666655 55.00000000000003 872.625 55.00000000000003C850.75 55.00000000000003 832.083345 55.00000000000003 810.208345 55.00000000000003C810.208345 66.55000000000001 810.208345 78.10000000000002 810.208345 89.65C810.208345 158.25 810.208345 227.55 810.208345 296.15C810.208345 298.25 811.666655 300.0 813.416655 300.0Z" fill="#1a1a1a"/><path d="M1049.375 300.0C1049.375 282.15 1049.375 270.95 1049.375 254.85C1049.375 232.45 1046.458345 206.9 1032.166655 141.8L1031.0 148.45000000000002H1046.75L1038.291655 142.85000000000002C1051.708345 185.55 1064.833345 226.85000000000002 1078.25 269.2C1078.541655 270.6 1080.291655 271.65 1081.75 271.65C1089.333345 271.65 1096.625 271.65 1104.208345 271.65C1117.916655 227.9 1131.916655 184.5 1145.916655 141.10000000000002L1139.5 148.45000000000002H1152.333345L1151.75 139.70000000000002C1137.75 206.9 1133.958345 232.45 1133.958345 254.5C1133.958345 269.9 1133.958345 279.35 1133.958345 296.15C1133.958345 298.6 1135.125 300.0 1137.166655 300.0C1157.583345 300.0 1177.708345 300.0 1198.125 300.0C1198.125 288.45 1198.125 277.25 1198.125 265.7C1198.125 196.75 1198.125 127.80000000000001 1198.125 58.85000000000002C1198.125 56.400000000000006 1196.958345 55.00000000000003 1194.916655 55.00000000000003C1168.666655 55.00000000000003 1142.416655 55.00000000000003 1116.166655 55.00000000000003C1096.625 123.95000000000002 1095.75 127.10000000000002 1092.833345 167.0L1097.791655 147.05H1085.541655L1090.5 167.0C1087.291655 127.10000000000002 1086.125 123.95000000000002 1066.875 59.20000000000002C1066.0 56.05000000000001 1064.541655 55.00000000000003 1062.208345 55.00000000000003C1036.541655 55.00000000000003 1010.875 55.00000000000003 985.208345 55.00000000000003C985.208345 66.55000000000001 985.208345 77.75 985.208345 89.30000000000001C985.208345 158.25 985.208345 227.2 985.208345 296.15C985.208345 298.6 986.375 300.0 988.416655 300.0C1008.71578 300.0 1032.458345 300.0 1049.375 300.0Z" fill="#1a1a1a"/><path d="M1277.458345 184.5 1227.291655 217.05C1234.875 234.55 1242.166655 252.4 1249.75 269.9C1262.291655 297.9 1270.166655 303.5 1296.708345 303.5C1302.833345 303.5 1308.84897 303.5 1315.083345 303.5C1317.125 303.5 1318.291655 302.1 1318.291655 299.65C1318.291655 276.55 1318.291655 253.1 1318.291655 230.0H1308.958345C1307.791655 230.0 1306.625 230.0 1305.458345 230.0C1301.375 230.0 1299.333345 227.55 1296.708345 222.65C1290.291655 210.05 1283.875 197.10000000000002 1277.458345 184.5ZM1160.208345 55.00000000000003C1160.208345 77.05000000000001 1160.208345 99.10000000000002 1160.208345 121.15C1160.208345 123.60000000000002 1160.208345 125.0 1160.208345 125.0C1181.5 125.0 1208.625 125.0 1235.458345 125.0C1240.125 125.0 1244.5 125.35000000000002 1247.125 128.5C1249.458345 130.95000000000002 1250.625 135.15 1250.625 142.85000000000002V147.4C1250.625 163.5 1247.708345 167.0 1234.291655 167.0C1223.208345 167.0 1212.125 167.0 1201.041655 167.0V231.4L1204.25 228.25C1220.583345 228.25 1237.208345 228.25 1253.541655 228.25C1292.625 228.25 1319.75 198.44512711865002 1319.75 147.4V133.4C1319.75 79.5 1297.583345 55.00000000000003 1249.458345 55.00000000000003C1216.791655 55.00000000000003 1184.125 55.00000000000003 1160.208345 55.00000000000003ZM1226.125 300.0C1226.125 289.15 1226.125 277.25 1226.125 264.65C1226.125 225.8 1226.125 186.95 1226.125 148.10000000000002C1226.125 124.30000000000001 1226.125 100.15 1226.125 76.35000000000002L1230.791655 72.50000000000003H1160.208345C1160.208345 147.05 1160.208345 221.60000000000002 1160.208345 296.15C1160.208345 298.25 1161.375 300.0 1163.416655 300.0C1184.416655 300.0 1205.125 300.0 1226.125 300.0Z" fill="#1a1a1a"/><path d="M1420.083345 48.00000000000003C1367.583345 48.00000000000003 1335.208345 77.05000000000001 1335.208345 120.45000000000002V136.20000000000002C1335.208345 167.70000000000002 1340.75 190.10000000000002 1390.916655 202.7L1417.458345 209.7C1427.375 212.15 1430.0 217.05 1430.0 221.60000000000002V225.45C1430.0 231.75 1426.5 237.0 1407.25 237.0C1380.125 237.0 1359.416655 230.0 1339.583345 217.05H1333.75C1333.75 239.8 1333.75 262.55 1333.75 285.3C1333.75 286.35 1334.041655 287.4 1334.625 288.1C1341.333345 296.15 1371.666655 307.0 1405.5 307.0C1458.0 307.0 1491.25 283.55 1491.25 235.25V217.05C1491.25 177.85000000000002 1480.75 161.05 1438.75 150.9L1409.0 143.55C1398.208345 141.10000000000002 1396.458345 136.9 1396.458345 130.25V126.75C1396.458345 115.55000000000001 1408.416655 114.5 1421.833345 114.5C1428.25 114.5 1432.916655 115.20000000000002 1439.916655 118.35000000000002L1436.598305 110.80841000000001C1436.644435 111.43067500000001 1436.65336 112.80526500000002 1436.607755 112.68367500000002C1436.4918 111.30212 1436.524875 109.78053000000003 1437.16205 107.55894C1443.994295 105.33738500000001 1450.5987949999999 103.11579500000002 1457.20585 100.89420500000003C1456.465355 90.552615 1455.613805 80.63105999999999 1454.657325 70.28947000000002C1453.604945 66.80788000000001 1452.3516300000001 64.166325 1450.561275 61.24473499999999C1447.31639 56.64314500000003 1436.21761 50.22159000000002 1420.083345 48.00000000000003Z" fill="#1a1a1a"/><line x1="20" y1="382.5" x2="1520.0" y2="382.5" stroke="#eee" stroke-width="0.5"/><text x="20" y="553.75" font-size="11" font-family="sans-serif" font-weight="bold" fill="#555">SemiCasual</text><path d="M108.458345 387.5C109.625 399.925 110.208345 413.75 110.208345 429.5C110.208345 491.975 110.208345 554.8 110.208345 610.275C110.208345 628.3 116.04165499999999 633.725 135.875 633.725C149.4375 633.725 163.875 633.2 175.833345 632.5C175.833345 557.775 175.833345 482.70000000000005 175.833345 407.975C175.833345 391.875 169.416655 385.75 152.5 385.75C138.2083275 385.75 122.4583275 386.45000000000005 108.458345 387.5ZM120.4166725 478.5C120.4166725 478.5 120.4166725 516.475 120.4166725 516.475C120.4166725 546.225 123.1875 550.25 143.020845 550.25C143.020845 550.25 239.5625 550.25 239.5625 550.25C239.5625 550.25 236.5 476.75 236.5 476.75C236.5 476.75 220.1666725 483.4 220.1666725 483.4C212.5833275 479.9 204.854155 478.5 194.5 478.5C194.5 478.5 120.4166725 478.5 120.4166725 478.5ZM281.125 632.5C279.9583275 620.075 279.375 606.25 279.375 590.5C279.375 527.9035560344901 279.375 465.025 279.375 405.875C279.375 392.4 271.5 386.275 253.5625 386.275C240.4375 386.275 227.020845 386.625 213.75 387.32500000000005C213.75 462.05 213.75 537.125 213.75 611.85C213.75 627.075 220.75 634.25 235.77084499999998 634.25C251.0833275 634.25 266.25 633.725 281.125 632.5Z" fill="#1a1a1a"/><path d="M380.7291725 596.275C380.7291725 559.1425257731975 380.7291725 522.0817307692375 380.7291725 484.275C380.7291725 466.6 380.2916725 451.375 376.3541725 435.975C376.3541725 435.975 381.4583275 423.725 381.4583275 423.725C381.4583275 423.725 315.1041725 423.725 315.1041725 423.725C315.1041725 461.9536585365825 315.1041725 504.34366952790003 315.1041725 538.525C315.1041725 555.325 315.5416725 569.5 319.4791725 584.025C319.4791725 584.025 314.958345 596.275 314.958345 596.275C314.958345 596.275 380.7291725 596.275 380.7291725 596.275ZM411.9375 632.5C412.8125 621.125 413.395845 597.15 413.395845 584.025C413.395845 570.2 411.3118225 559.0 401.2916725 559.0C401.2916725 559.0 283.4583275 559.0 283.4583275 559.0C282.875 571.075 282.4375 594.7 282.4375 607.475C282.4375 625.85 287.104155 632.5 299.7916725 632.5C299.7916725 632.5 411.9375 632.5 411.9375 632.5ZM283.4583275 387.5C282.875 399.57500000000005 282.4375 423.20000000000005 282.4375 435.975C282.4375 452.775 288.5625 461.0 301.25 461.0C301.25 461.0 411.9375 461.0 411.9375 461.0C412.8125 449.625 413.395845 425.65 413.395845 412.525C413.395845 395.375 408.1458275 387.5 396.9166725 387.5C396.9166725 387.5 283.4583275 387.5 283.4583275 387.5Z" fill="#1a1a1a"/><path d="M503.8125 564.25C485.583345 564.25 476.6875 561.275 461.375 552.35H457.583345C456.854155 568.8 456.270845 585.6 456.270845 603.625C456.270845 613.6 458.020845 620.95 462.104155 625.85C467.9375 633.2 484.125 639.5 506.4375 639.5C558.645845 639.5 586.791655 608.0 586.791655 549.375C586.791655 495.95625 586.791655 440.91875000000005 586.791655 387.5C586.791655 384.70000000000005 579.99581 383.3 563.00625 383.3C556.210405 383.3 549.414595 383.3 542.61875 383.3C525.62919 383.3 518.833345 384.70000000000005 518.833345 387.5C518.833345 387.5 518.833345 387.5 518.833345 387.5C518.833345 387.5 518.833345 387.5 518.833345 387.5C518.833345 438.55100000000004 518.833345 491.149 518.833345 542.2C518.833345 549.9 517.958345 556.025 515.916655 560.575C513.0 563.2 509.0625 564.25 503.8125 564.25Z" fill="#1a1a1a"/><path d="M744.5833275 498.275C744.5833275 498.275 700.5416725 563.375 700.5416725 563.375C700.5416725 563.375 713.958345 563.375 713.958345 563.375C716.2916725 581.75 717.4583275 587.0 723.5833275 603.1C733.2083275 628.475 745.8958275 637.75 767.041655 637.75C774.770845 637.75 783.083345 636.175 786.5833275 633.375C789.7916725 630.75 793.0 624.275 793.0 614.125C793.0 604.15 792.7083275 578.075 791.8333275 560.75C791.8333275 560.75 787.3125 560.75 787.3125 560.75C785.7083275 561.975 783.6666725 562.5 781.4791725 562.5C776.5208275 562.5 774.1875 560.575 771.5625 554.975C762.5208275 536.075 753.625 517.175 744.5833275 498.275ZM764.5625 385.75C764.5625 385.75 727.6666725 385.75 727.6666725 385.75C724.3125 409.20000000000005 722.2708275 423.725 716.583345 445.07500000000005C710.8958275 467.125 708.416655 473.425 702.4375 495.3C702.4375 495.3 682.6041725 495.3 682.6041725 495.3C682.6041725 495.3 682.458345 584.9 682.458345 584.9C725.757475 552.1778696759525 751.7614599999999 522.7968430177875 781.9166725 449.45000000000005C793.0 422.85 795.1875 412.525 795.1875 402.55C795.1875 390.3 787.1666725 385.75 764.5625 385.75ZM632.0 387.5C633.166655 399.925 633.75 413.75 633.75 429.5C633.75 491.975 633.75 554.8 633.75 610.275C633.75 627.425 639.4375 633.725 655.7708275 633.725C670.9375 633.725 684.5 633.375 698.645845 632.5C698.645845 557.775 698.645845 482.70000000000005 698.645845 407.975C698.645845 392.225 692.229155 385.75 676.625 385.75C661.3125 385.75 646.875 386.275 632.0 387.5Z" fill="#1a1a1a"/><path d="M829.3125 632.5C829.3125 632.5 949.479155 632.5 949.479155 632.5C951.5208275 594.7 939.5625 557.25 912.4375 557.25C912.4375 557.25 875.833345 557.25 875.833345 557.25C875.833345 508.075 875.833345 457.15 875.833345 407.975C875.833345 389.775 871.8958275 385.75 853.8125 385.75C837.7708275 385.75 823.770845 386.275 808.458345 387.5C809.625 400.1 810.208345 413.75 810.208345 429.32500000000005C810.208345 487.18863636364506 810.208345 545.525 810.208345 603.45C810.208345 621.475 817.5 632.5 829.3125 632.5Z" fill="#1a1a1a"/><path d="M1047.9166725 633.025C1046.8958275 614.3 1046.4583275 599.075 1046.3125 581.4C1046.1666725 554.1 1045.0 531.0 1038.729155 481.475C1038.729155 481.475 1035.9583275 489.0 1035.9583275 489.0C1035.9583275 489.0 1049.8125 489.0 1049.8125 489.0C1049.8125 489.0 1041.6458275 482.0 1041.6458275 482.0C1055.0625 535.9 1066.0 567.575 1076.5 592.6C1079.7083275 596.275 1081.8958275 597.325 1086.5625 597.325C1092.5416725 597.325 1098.2291725 597.325 1104.208345 597.325C1116.604155 567.575 1129.0 533.1 1142.854155 480.775C1142.854155 480.775 1135.4166725 489.0 1135.4166725 489.0C1135.4166725 489.0 1150.583345 489.0 1150.583345 489.0C1150.583345 489.0 1145.625 479.9 1145.625 479.9C1139.2083275 534.15 1137.75 554.975 1137.3125 575.975C1137.020845 589.975 1136.2916725 602.225 1135.8541725 617.45C1135.125 629.875 1139.9375 634.25 1154.9583275 634.25C1171.0 634.25 1185.583345 633.9 1201.0416725 633.025C1199.7291725 620.95 1199.1458275 608.875 1199.1458275 596.1C1199.1458275 528.375 1196.8125 467.65 1192.7291725 403.95000000000005C1190.8333275 389.07500000000005 1186.75 385.75 1169.3958275 385.75C1150.1458275 385.75 1131.7708275 386.45000000000005 1114.2708275 387.32500000000005C1102.3125 441.57500000000005 1098.0833275 462.925 1090.645845 506.675C1090.645845 506.675 1100.5625 488.82500000000005 1100.5625 488.82500000000005C1100.5625 488.82500000000005 1083.0625 488.82500000000005 1083.0625 488.82500000000005C1083.0625 488.82500000000005 1092.9791725 506.675 1092.9791725 506.675C1085.8333275 464.5 1082.625 446.125 1071.25 399.57500000000005C1069.7916725 388.725 1063.9583275 385.75 1043.6875 385.75C1025.604155 385.75 1004.8958275 386.625 988.4166725 387.5C989.7291725 399.4 990.1666725 410.775 989.4375 423.375C986.6666725 487.95000000000005 983.6041725 552.875 983.6041725 617.1C983.6041725 629.35 989.1458275 634.25 1003.1458275 634.25C1018.3995625 634.25 1035.083345 633.725 1047.9166725 633.025Z" fill="#1a1a1a"/><path d="M1270.1666725 512.8C1270.1666725 512.8 1225.104155 546.05 1225.104155 546.05C1232.8333275 565.825 1240.2708275 584.9 1249.3125 604.325C1261.5625 630.575 1270.75 637.75 1292.770845 637.75C1300.0625 637.75 1306.2786575 636.35 1311.7291725 633.55C1315.6666725 630.05 1317.5625 623.75 1317.5625 613.25C1317.5625 593.825 1317.2708275 578.075 1316.3958275 560.75C1316.3958275 560.75 1310.8541725 560.75 1310.8541725 560.75C1309.104155 561.975 1306.1875 562.5 1303.5625 562.5C1298.4583275 562.5 1295.1041725 560.4 1291.458345 554.275C1284.166655 541.5 1277.1666725 527.5 1270.1666725 512.8ZM1157.583345 389.25C1156.5625 404.65 1155.833345 421.8 1155.833345 441.57500000000005C1155.833345 456.45000000000005 1157.4375 461.0 1161.6666725 461.0C1176.25 461.0 1201.9166725 457.5 1232.1041725 457.5C1238.8125 457.5 1244.3541725 458.025 1248.4375 460.125C1250.333345 464.32500000000005 1251.3541725 470.1 1251.3541725 478.15C1251.3541725 478.15 1251.3541725 482.0 1251.3541725 482.0C1251.3541725 500.20000000000005 1247.4166725 505.45 1235.75 505.45C1225.395845 505.45 1212.8541725 503.0 1201.625 499.32500000000005C1201.625 499.32500000000005 1205.2708275 560.225 1205.2708275 560.225C1205.2708275 560.225 1216.2083275 558.65 1216.2083275 558.65C1226.270845 560.4 1237.3541725 561.625 1247.125 561.625C1285.7708275 561.625 1319.4583275 533.072563559325 1319.4583275 472.20000000000005C1319.4583275 472.20000000000005 1319.4583275 463.625 1319.4583275 463.625C1319.4583275 418.3 1294.2291725 385.75 1246.6875 385.75C1214.4583275 385.75 1182.375 386.625 1157.583345 389.25ZM1227.875 630.75C1226.7083275 618.675 1226.125 604.85 1226.125 588.575C1226.125 553.75 1226.125 520.5 1226.125 485.85C1226.125 467.125 1225.6875 450.675 1221.75 434.225C1221.75 434.225 1228.0208275 420.225 1228.0208275 420.225C1228.0208275 420.225 1161.6666725 421.975 1161.6666725 421.975C1161.6666725 485.32500000000005 1161.6666725 548.675 1161.6666725 612.025C1161.6666725 627.25 1168.375 634.25 1183.6875 634.25C1199.1458275 634.25 1213.7291725 633.375 1227.875 630.75Z" fill="#1a1a1a"/><path d="M1422.854155 380.5C1370.645845 380.5 1335.5 414.8 1335.5 461.0V471.15C1335.5 502.125 1345.27081 522.6 1390.770845 536.25L1417.75 544.65C1426.791655 547.45 1431.020845 552.0 1432.770845 557.25V559.525C1430.4375 564.075 1424.604155 567.05 1409.4375 567.05C1381.583345 567.05 1359.5625 558.475 1338.125 544.475H1334.333345C1333.604155 559.35 1333.166655 575.8 1333.166655 592.95C1333.166655 605.025 1335.208345 613.25 1339.583345 618.85C1348.916655 630.75 1374.875 639.5 1409.0 639.5C1458.583345 639.5 1491.833345 616.925 1491.833345 569.5V558.825C1491.833345 529.775 1481.333345 506.675 1438.75 494.07500000000005L1409.875 485.5C1398.354155 482.175 1396.604155 478.32500000000005 1396.604155 471.675V469.4C1396.604155 458.375 1408.125 450.675 1423.4375 450.675C1429.125 450.675 1433.0625 451.20000000000005 1439.479155 453.3L1436.49544 446.031025C1436.351205 447.04403 1436.344835 448.57318000000004 1436.40052 448.934205C1436.38589 450.135265 1438.38691 450.14632500000005 1443.9671 447.84738500000003C1449.325635 445.548445 1454.04815 442.96947 1458.481495 440.18053C1457.842325 431.931555 1457.092065 422.422615 1456.23691 414.243675C1455.28589 406.69473500000004 1452.558865 400.3357950000001 1448.53649 394.53682000000003C1444.167895 388.38788 1435.44544 382.79894 1422.854155 380.5Z" fill="#1a1a1a"/><line x1="20" y1="715.0" x2="1520.0" y2="715.0" stroke="#eee" stroke-width="0.5"/><text x="20" y="886.25" font-size="11" font-family="sans-serif" font-weight="bold" fill="#555">Casual</text><path d="M106.708345 720.0C109.041655 733.3 110.208345 749.05 110.208345 769.0C110.208345 825.35 110.208345 882.05 110.208345 924.4C110.208345 958.35 120.41665499999999 967.45 158.333345 967.45C164.75 967.45 172.625 966.4 175.833345 965.0C175.833345 895.7 175.833345 826.4 175.833345 757.1C175.833345 727.35 164.166655 716.5 132.375 716.5C124.5 716.5 114.0 717.9 106.708345 720.0ZM101.458345 814.5V824.3C101.458345 881.35 105.833345 888.0 143.458345 888.0H230.375V814.5L212.0 824.3C204.125 817.3 195.666655 814.5 182.25 814.5ZM282.875 965.0C280.541655 951.7 279.375 935.95 279.375 916.0C279.375 859.40711206898 279.375 802.6 279.375 752.9C279.375 728.05 265.083345 717.55 230.95834499999998 717.55C225.416655 717.55 219.583345 718.25 213.75 719.65C213.75 788.95 213.75 858.25 213.75 927.55C213.75 955.55 226.583345 968.5 254.58334499999998 968.5C264.5 968.5 273.833345 967.45 282.875 965.0Z" fill="#1a1a1a"/><path d="M380.875 910.05C380.875 882.685051546395 380.875 855.8134615384749 380.875 827.1C380.875 813.45 380.0 804.7 372.125 795.6L380.0 774.95H314.958345C314.958345 802.407317073165 314.958345 830.4873390558 314.958345 857.9C314.958345 871.55 315.833345 880.3 323.708345 889.4L315.833345 910.05ZM411.791655 965.0C413.541655 958.35 414.708345 947.85 414.708345 937.7C414.708345 912.15 411.998645 891.5 393.708345 891.5H283.166655C282.0 899.55 281.125 909.35 281.125 918.8C281.125 953.1 289.291655 965.0 312.625 965.0ZM283.166655 720.0C282.0 728.05 281.125 737.85 281.125 747.3C281.125 778.45 292.208345 793.5 315.541655 793.5H411.791655C413.541655 786.85 414.708345 776.35 414.708345 766.2C414.708345 734.0 405.666655 720.0 384.958345 720.0Z" fill="#1a1a1a"/><path d="M511.25 896.75C488.208345 896.75 478.583345 893.25 459.625 883.1H457.875C456.416655 892.55 455.25 902.35 455.25 914.95C455.25 933.85 458.458345 947.5 466.041655 956.6C474.5 967.45 488.791655 972.0 510.083345 972.0C557.041655 972.0 585.333345 939.45 585.333345 884.5C585.333345 830.215 585.333345 774.2850000000001 585.333345 720.0C585.333345 717.2 578.5375 715.8 561.5479399999999 715.8C554.752095 715.8 547.95625 715.8 541.160405 715.8C524.170845 715.8 517.375 717.2 517.375 720.0C517.375 720.0 517.375 720.0 517.375 720.0C517.375 720.0 517.375 720.0 517.375 720.0C517.375 773.13 517.375 827.87 517.375 881.0C517.375 886.6 517.375 891.85 517.083345 896.4C515.333345 896.75 513.291655 896.75 511.25 896.75Z" fill="#1a1a1a"/><path d="M749.541655 837.6 706.958345 895.35H715.708345C718.333345 911.1 721.25 922.65 725.916655 936.3C733.791655 959.4 749.541655 972.0 765.291655 972.0C774.333345 972.0 780.458345 968.85 785.125 963.25C789.5 958.0 794.75 946.45 794.75 928.6C794.75 911.1 794.166655 903.05 792.416655 891.5H790.666655C788.625 893.95 785.708345 895.0 782.5 895.0C776.666655 895.0 774.041655 893.25 771.416655 887.3C764.125 870.85 756.833345 854.05 749.541655 837.6ZM734.958345 716.5H727.958345C726.5 746.6 724.166655 768.3 720.083345 786.15C716.291655 804.35 711.041655 818.35 702.583345 832.35H681.0L680.708345 910.4C719.76495 902.005739351905 764.77292 855.143686035575 783.375 802.6C789.791655 784.4 793.583345 765.5 793.583345 747.3C793.583345 724.2 778.708345 716.5 734.958345 716.5ZM631.708345 720.0C634.041655 733.3 635.208345 749.05 635.208345 769.0C635.208345 825.35 635.208345 882.05 635.208345 924.4C635.208345 956.25 645.416655 967.45 676.041655 967.45C685.666655 967.45 693.25 966.75 700.833345 965.0C700.833345 895.7 700.833345 826.4 700.833345 757.1C700.833345 727.7 689.166655 716.5 660.0 716.5C650.083345 716.5 640.75 717.55 631.708345 720.0Z" fill="#1a1a1a"/><path d="M845.208345 965.0H947.291655C951.375 937.7 945.833345 888.0 926.0 888.0H875.833345C875.833345 844.25 875.833345 800.85 875.833345 757.1C875.833345 723.15 869.125 716.5 835.0 716.5C824.791655 716.5 815.458345 717.55 806.708345 720.0C809.041655 733.65 810.208345 749.4 810.208345 769.0C810.208345 816.12727272729 810.208345 863.5 810.208345 910.75C810.208345 944.7 823.333345 965.0 845.208345 965.0Z" fill="#1a1a1a"/><path d="M1046.458345 966.05C1044.416655 946.45 1043.541655 927.2 1043.25 907.95C1042.958345 875.75 1043.541655 855.1 1045.291655 821.15L1040.916655 829.55H1052.875L1045.0 821.15C1058.416655 886.25 1067.166655 908.3 1074.75 916.0C1080.875 921.95 1083.5 923.0 1091.375 923.0C1095.75 923.0 1099.833345 923.0 1104.208345 923.0C1115.291655 907.25 1126.083345 881.7 1139.791655 820.45L1131.333345 829.55H1148.833345L1139.5 820.1C1140.666655 861.4 1141.541655 877.5 1140.666655 897.45C1140.083345 910.05 1138.625 925.1 1137.75 938.75C1136.291655 961.15 1144.75 968.5 1172.75 968.5C1184.416655 968.5 1193.458345 967.8 1203.958345 966.05C1201.333345 953.45 1200.166655 940.5 1200.166655 926.5C1200.166655 860.0 1195.5 807.5 1187.333345 749.05C1183.541655 721.75 1176.541655 716.5 1143.875 716.5C1131.625 716.5 1121.125 717.9 1112.375 719.65C1108.0 759.2 1100.416655 798.75 1088.458345 846.35L1103.333345 830.6H1080.583345L1095.458345 846.35C1084.375 801.9 1079.125 768.3 1075.625 739.95C1073.583345 721.4 1063.375 716.5 1025.166655 716.5C1014.666655 716.5 998.916655 718.25 991.625 720.0C994.25 732.25 995.125 743.8 993.666655 757.45C988.125 817.65 982.0 878.55 982.0 938.05C982.0 960.1 991.916655 968.5 1017.875 968.5C1028.083345 968.5 1037.708345 967.45 1046.458345 966.05Z" fill="#1a1a1a"/><path d="M1262.875 841.1 1222.916655 875.05C1230.791655 897.1 1238.375 917.4 1248.875 938.75C1260.833345 963.25 1271.333345 972.0 1288.833345 972.0C1297.291655 972.0 1303.708345 969.2 1308.375 963.6C1314.208345 956.6 1316.833345 945.4 1316.833345 926.85C1316.833345 911.1 1316.25 903.05 1314.5 891.5H1312.75C1310.416655 893.95 1305.75 895.0 1301.666655 895.0C1295.541655 895.0 1290.875 893.25 1286.208345 885.9C1278.041655 872.95 1270.458345 857.9 1262.875 841.1ZM1154.958345 723.5C1152.916655 732.25 1151.458345 744.5 1151.458345 762.0C1151.458345 789.3 1154.666655 797.0 1163.125 797.0C1171.0 797.0 1195.208345 790.0 1228.75 790.0C1237.5 790.0 1244.208345 790.7 1249.75 791.75C1251.208345 797.7 1252.083345 805.05 1252.083345 813.45V816.6C1252.083345 836.9 1247.125 843.9 1237.208345 843.9C1227.583345 843.9 1213.583345 839.0 1202.208345 831.65L1209.5 889.05H1228.166655C1231.958345 892.55 1237.5 895.0 1240.708345 895.0C1278.916655 895.0 1319.166655 867.7 1319.166655 797.0V793.85C1319.166655 757.1 1290.875 716.5 1243.916655 716.5C1212.125 716.5 1180.625 718.25 1154.958345 723.5ZM1229.625 961.5C1227.291655 948.2 1226.125 932.45 1226.125 912.5C1226.125 881.7 1226.125 854.05 1226.125 823.6C1226.125 809.95 1225.25 801.2 1217.375 792.1L1225.25 767.95L1163.125 771.45C1163.125 823.6 1163.125 875.75 1163.125 927.9C1163.125 956.25 1175.375 968.5 1203.958345 968.5C1213.875 968.5 1222.333345 966.75 1229.625 961.5Z" fill="#1a1a1a"/><path d="M1425.625 713.0C1373.708345 713.0 1335.791655 752.55 1335.791655 801.55V806.1C1335.791655 836.55 1349.791655 855.1 1390.625 869.8L1418.041655 879.6C1426.208345 882.75 1432.041655 886.95 1435.541655 892.9V893.6C1430.875 896.4 1422.708345 897.1 1411.625 897.1C1383.041655 897.1 1359.708345 886.95 1336.666655 871.9H1334.916655C1333.458345 878.9 1332.583345 889.05 1332.583345 900.6C1332.583345 923.7 1336.375 939.1 1344.541655 949.6C1356.5 965.35 1378.083345 972.0 1412.5 972.0C1459.166655 972.0 1492.416655 950.3 1492.416655 903.75V900.6C1492.416655 881.7 1481.916655 852.3 1438.75 837.25L1410.75 827.45C1398.5 823.25 1396.75 819.75 1396.75 813.1V812.05C1396.75 801.2 1407.833345 786.85 1425.041655 786.85C1430.0 786.85 1433.208345 787.2 1439.041655 788.25L1436.3926099999999 781.253675C1436.05801 782.657385 1436.036275 784.34106 1436.193285 785.184735C1436.279945 788.96841 1440.24898 790.51212 1450.772115 788.135795C1454.65701 785.75947 1457.497505 782.8231450000001 1459.75714 779.466855C1459.2192949999999 773.31053 1458.57036 764.214205 1457.81653 758.1978799999999C1456.9668 746.58159 1452.7661 736.505265 1446.511705 727.82894C1441.019435 720.132615 1434.673305 715.376325 1425.625 713.0Z" fill="#1a1a1a"/>
</svg>