<svg xmlns="http://www.w3.org/2000/svg" width="1140.0" height="3260.0"><rect width="100%" height="100%" fill="white"/><text x="570.0" y="34.0" text-anchor="middle" font-size="12" fill="#666">f spacing: "effjt"</text><text x="20" y="360.0" font-size="10" fill="#555">Linear A</text><path d="M203.33332000000001 225.6C166.66667999999999 225.6 128.33332000000001 248.0 128.33332000000001 318.4V356.0C128.33332000000001 416.8 162.0 444.0 207.66667999999999 444.0C238.33332000000001 444.0 259.66668000000004 434.4 268.33332 424.0C269.0 423.2 269.33332 422.0 269.33332 420.8C269.33332 416.27058823528 269.33332 411.32941176472 269.33332 406.8H265.33332C246.89612 419.6725303558 235.33332000000001 425.2 209.66667999999999 425.2C186.66667999999999 425.2 170.0 418.4 159.33332000000001 405.6C150.0 394.4 145.0 376.8 145.0 355.2V319.6C145.0 266.4 167.33332000000001 244.39999999999998 203.33332000000001 244.39999999999998C220.66667999999999 244.39999999999998 234.33332000000001 249.2 243.33332000000001 260.0C250.0 268.0 253.66668 279.2 253.66668 294.4C253.66668 316.4 246.0 327.6 224.0 327.6C199.33332000000001 327.6 167.55464 327.6 135.66668 327.6V348.4L141.33332000000001 346.4C178.98852 346.4 208.92708 346.4 225.33332000000001 346.4C252.47072 346.4 270.33332 329.2 270.33332 297.6V292.79999999999995C270.33332 252.39999999999998 245.33332000000001 225.6 203.33332000000001 225.6Z" fill="#1a1a1a"/><line x1="300.0" y1="160.0" x2="300.0" y2="550.0" stroke="#eee" stroke-width="0.5"/><path d="M316.66668 496.8C316.66668 501.6 316.66668 506.4 316.66668 511.2C316.66668 514.0 318.0 515.6 320.33332 515.6C322.66668 515.6 342.0 515.6 353.0 515.6C385.0 515.6 396.66668 498.8 396.66668 464.8C396.66668 398.4 396.66668 282.79999999999995 396.66668 215.2C396.66668 192.79999999999998 400.0 177.2 407.66668 167.59999999999997C414.66668 158.8 425.66668 154.8 440.66668000000004 154.8C452.0 154.8 464.0 156.8 474.0 160.0C474.0 170.8 474.0 180.8 474.0 191.6V196.39999999999998C478.33332 196.39999999999998 482.0 196.39999999999998 486.33332 196.39999999999998C488.66668000000004 196.39999999999998 490.0 194.79999999999998 490.0 192.0V150.8C490.0 149.2 489.66668000000004 148.39999999999998 489.0 147.59999999999997C485.33332 143.2 463.0 136.0 442.0 136.0C404.33332 136.0 380.0 158.39999999999998 380.0 217.6C380.0 298.0 380.0 382.8 380.0 463.2C380.0 476.4 378.66668 484.4 374.33332 489.6C370.0 494.8 362.66668 496.8 352.0 496.8C341.33332 496.8 331.33332 496.8 320.66668 496.8ZM330.0 291.2C330.0 296.4 330.0 300.0 330.0 305.2C330.0 308.0 331.33332 309.6 333.66668 309.6H466.66668000000004C466.66668000000004 304.4 466.66668000000004 300.79999999999995 466.66668000000004 295.6C466.66668000000004 292.79999999999995 465.33332 291.2 463.0 291.2Z" fill="#1a1a1a"/><line x1="500.0" y1="160.0" x2="500.0" y2="550.0" stroke="#eee" stroke-width="0.5"/><path d="M516.66668 496.8C516.66668 501.6 516.66668 506.4 516.66668 511.2C516.66668 514.0 518.0 515.6 520.33332 515.6C522.66668 515.6 542.0 515.6 553.0 515.6C585.0 515.6 596.66668 498.8 596.66668 464.8C596.66668 398.4 596.66668 282.79999999999995 596.66668 215.2C596.66668 192.79999999999998 600.0 177.2 607.66668 167.59999999999997C614.66668 158.8 625.66668 154.8 640.66668 154.8C652.0 154.8 664.0 156.8 674.0 160.0C674.0 170.8 674.0 180.8 674.0 191.6V196.39999999999998C678.33332 196.39999999999998 682.0 196.39999999999998 686.33332 196.39999999999998C688.66668 196.39999999999998 690.0 194.79999999999998 690.0 192.0V150.8C690.0 149.2 689.66668 148.39999999999998 689.0 147.59999999999997C685.33332 143.2 663.0 136.0 642.0 136.0C604.33332 136.0 580.0 158.39999999999998 580.0 217.6C580.0 298.0 580.0 382.8 580.0 463.2C580.0 476.4 578.66668 484.4 574.33332 489.6C570.0 494.8 562.66668 496.8 552.0 496.8C541.33332 496.8 531.33332 496.8 520.66668 496.8ZM530.0 291.2C530.0 296.4 530.0 300.0 530.0 305.2C530.0 308.0 531.33332 309.6 533.66668 309.6H666.66668C666.66668 304.4 666.66668 300.79999999999995 666.66668 295.6C666.66668 292.79999999999995 665.33332 291.2 663.0 291.2Z" fill="#1a1a1a"/><line x1="700.0" y1="160.0" x2="700.0" y2="550.0" stroke="#eee" stroke-width="0.5"/><path d="M739.33332 229.6C739.33332 234.39999999999998 739.33332 238.79999999999998 739.33332 243.6C739.33332 246.0 741.0 248.0 743.0 248.0C773.0 248.0 803.0 248.0 833.0 248.0H837.66668C837.66668 306.79999999999995 837.66668 361.2 837.66668 420.0C837.66668 475.2 819.0 501.2 782.33332 501.2C771.66668 501.2 763.33332 500.0 755.66668 497.2C755.66668 486.0 755.66668 462.8 755.66668 440.8V436.0C751.33332 436.0 747.33332 436.0 743.0 436.0C740.66668 436.0 739.33332 437.6 739.33332 440.4C739.33332 442.4 739.33332 484.4 739.33332 506.4C739.33332 508.0 739.66668 508.8 740.33332 509.6C744.66668 514.8 762.33332 520.0 782.33332 520.0C831.33332 520.0 854.33332 484.8 854.33332 420.0C854.33332 356.8 854.33332 297.2 854.33332 234.0C854.33332 231.6 852.66668 229.6 850.66668 229.6C813.66668 229.6 776.33332 229.6 739.33332 229.6ZM812.53332 153.59999999999997C812.53332 165.08783999999997 821.84548 174.39999999999998 833.33332 174.39999999999998C844.82116 174.39999999999998 854.1333199999999 165.08783999999997 854.1333199999999 153.59999999999997C854.1333199999999 142.11215999999996 844.82116 132.79999999999995 833.33332 132.79999999999995C821.84548 132.79999999999995 812.53332 142.11215999999996 812.53332 153.59999999999997Z" fill="#1a1a1a"/><line x1="900.0" y1="160.0" x2="900.0" y2="550.0" stroke="#eee" stroke-width="0.5"/><path d="M926.66668 229.6C926.66668 234.79999999999998 926.66668 238.39999999999998 926.66668 243.6C926.66668 246.39999999999998 928.0 248.0 930.33332 248.0H1066.66668C1066.66668 242.79999999999998 1066.66668 239.2 1066.66668 234.0C1066.66668 231.2 1065.33332 229.6 1063.0 229.6ZM1066.66668 421.2H1063.33332C1054.33332 421.2 1045.0 421.2 1035.66668 421.2C1019.33332 421.2 1008.0 417.6 1001.0 409.2C993.33332 400.0 990.0 384.8 990.0 361.2C990.0 295.6 990.0 230.0 990.0 164.39999999999998C990.0 161.59999999999997 988.66668 160.0 986.33332 160.0C982.0 160.0 977.66668 160.0 973.33332 160.0C973.33332 173.2 973.33332 186.79999999999998 973.33332 200.0C973.33332 255.2 973.33332 310.0 973.33332 365.2C973.33332 426.0 1002.33332 440.0 1033.33332 440.0C1043.33332 440.0 1060.33332 440.0 1063.0 440.0C1065.66668 440.0 1066.66668 438.4 1066.66668 435.2C1066.66668 430.4 1066.66668 426.0 1066.66668 421.2Z" fill="#1a1a1a"/><line x1="1100.0" y1="160.0" x2="1100.0" y2="550.0" stroke="#eee" stroke-width="0.5"/><text x="20" y="760.0" font-size="10" fill="#555">Casual A</text><path d="M213.0 625.6C170.0 625.6 128.33332000000001 656.0 128.33332000000001 748.4V755.6C128.33332000000001 815.6 164.33332000000001 844.0 207.66667999999999 844.0C234.0 844.0 255.66668 835.6 266.33332 822.8C270.0 818.4 271.33332 812.8 271.33332 804.4C271.33332 800.0 271.0 797.6 270.66668000000004 796.0H268.66668000000004C251.66668 816.4 235.33332000000001 824.0 209.0 824.0C185.66667999999999 824.0 171.66667999999999 818.8 157.33332000000001 807.6C149.0 793.2 144.33332000000001 777.2 144.33332000000001 758.0V751.2C144.33332000000001 681.2 171.33332000000001 644.8 212.66667999999999 644.8C224.0 644.8 232.0 646.0 239.0 648.8C249.66668 658.4 255.0 672.4 255.0 692.0C255.0 714.21016949152 242.0 728.4 201.0 728.4C166.66667999999999 728.4 155.0 724.4 140.0 716.4V740.8L146.0 736.8C155.33332000000001 743.2 175.66667999999999 748.0 200.33332000000001 748.0C259.33332 748.0 271.66668000000004 720.83832335328 271.66668000000004 692.0V690.4C271.66668000000004 656.0 251.33332000000001 625.6 213.0 625.6Z" fill="#1a1a1a"/><line x1="300.0" y1="560.0" x2="300.0" y2="950.0" stroke="#eee" stroke-width="0.5"/><path d="M301.33332 879.2C301.0 881.2 300.66668 884.4 300.66668 887.6C300.66668 894.4 302.33332 900.4 306.0 904.8C312.66668 912.8 325.66668 917.2 340.0 917.2C372.33332 917.2 390.0 896.8 390.0 853.2C390.0 782.0 390.0 703.6 390.0 632.0C390.0 598.0 394.33332 578.8 403.33332 568.0C411.91332 557.5999999999999 420.0 555.2 434.66668000000004 555.2C449.33332 555.2 458.70464000000004 560.48448168148 466.66668000000004 568.8C468.33332 584.4 467.0 602.0 463.66668000000004 616.8V619.2C465.33332 619.6 466.66668000000004 620.0 468.0 620.0C476.33332 620.0 482.33332 604.8 482.33332 585.6V580.4C482.33332 570.4 479.0 560.4 472.33332 552.4C464.48756000000003 543.52752214492 452.33332 537.2 434.66668000000004 537.2C394.33332 537.2 373.33332 564.0512820512799 373.33332 629.6C373.33332 702.0 373.33332 776.4 373.33332 848.4C373.33332 868.4 372.33332 878.4 369.0 887.6C362.0 895.2 351.33332 897.2 339.0 897.2C324.33332 897.2 312.33332 891.2 303.33332 879.2ZM321.66668 706.4C321.66668 707.6 321.66668 709.2 321.66668 710.4C321.66668 719.2 323.33332 726.4 329.33332 726.4H466.66668000000004C466.66668000000004 725.2 466.66668000000004 723.6 466.66668000000004 722.4C466.66668000000004 713.6 465.0 706.4 459.0 706.4Z" fill="#1a1a1a"/><line x1="500.0" y1="560.0" x2="500.0" y2="950.0" stroke="#eee" stroke-width="0.5"/><path d="M501.33332 879.2C501.0 881.2 500.66668 884.4 500.66668 887.6C500.66668 894.4 502.33332 900.4 506.0 904.8C512.66668 912.8 525.66668 917.2 540.0 917.2C572.33332 917.2 590.0 896.8 590.0 853.2C590.0 782.0 590.0 703.6 590.0 632.0C590.0 598.0 594.33332 578.8 603.33332 568.0C611.91332 557.5999999999999 620.0 555.2 634.66668 555.2C649.33332 555.2 658.70464 560.48448168148 666.66668 568.8C668.33332 584.4 667.0 602.0 663.66668 616.8V619.2C665.33332 619.6 666.66668 620.0 668.0 620.0C676.33332 620.0 682.33332 604.8 682.33332 585.6V580.4C682.33332 570.4 679.0 560.4 672.33332 552.4C664.48756 543.52752214492 652.33332 537.2 634.66668 537.2C594.33332 537.2 573.33332 564.0512820512799 573.33332 629.6C573.33332 702.0 573.33332 776.4 573.33332 848.4C573.33332 868.4 572.33332 878.4 569.0 887.6C562.0 895.2 551.33332 897.2 539.0 897.2C524.33332 897.2 512.33332 891.2 503.33332 879.2ZM521.66668 706.4C521.66668 707.6 521.66668 709.2 521.66668 710.4C521.66668 719.2 523.33332 726.4 529.33332 726.4H666.66668C666.66668 725.2 666.66668 723.6 666.66668 722.4C666.66668 713.6 665.0 706.4 659.0 706.4Z" fill="#1a1a1a"/><line x1="700.0" y1="560.0" x2="700.0" y2="950.0" stroke="#eee" stroke-width="0.5"/><path d="M742.33332 655.6C741.66668 657.6 741.66668 660.4 742.0 663.2C742.66668 669.6 745.66668 674.0 750.33332 674.0C763.0 674.0 778.33332 650.4 831.66668 642.0L832.66668 643.2C832.66668 705.2 832.66668 767.2 832.66668 829.2C832.66668 880.4 815.66668 900.8 785.33332 900.8C775.66668 900.8 767.0 898.8 759.66668 892.8C743.0 862.4 747.0 795.2 784.0 772.8V770.4C782.33332 770.0 780.33332 769.6 777.66668 769.6C768.33332 769.6 761.33332 772.8 754.0 781.6C743.33332 794.4 734.0 818.4 734.0 846.4C734.0 870.4 740.0 888.4 751.0 901.6C760.66668 913.2 773.33332 920.0 788.0 920.0C821.0 920.0 849.33332 897.6 849.33332 829.2C849.33332 766.8 849.33332 704.0 849.33332 641.6C849.33332 633.6 841.66668 625.6 834.33332 625.6C810.66668 625.6 770.66668 637.2 742.33332 655.6ZM806.29332 556.0C806.29332 570.9341999999999 818.3991199999999 583.04 833.33332 583.04C848.26752 583.04 860.3733199999999 570.9341999999999 860.3733199999999 556.0C860.3733199999999 541.0658 848.26752 528.96 833.33332 528.96C818.3991199999999 528.96 806.29332 541.0658 806.29332 556.0Z" fill="#1a1a1a"/><line x1="900.0" y1="560.0" x2="900.0" y2="950.0" stroke="#eee" stroke-width="0.5"/><path d="M920.66668 629.6C920.33332 630.8 920.0 632.4 920.0 634.8C920.0 643.6 927.66668 649.6 947.66668 649.6H1075.0C1075.0 648.4 1075.0 646.8 1075.0 645.6C1075.0 635.6 1071.33332 629.6 1065.33332 629.6ZM1073.66668 800.0H1071.66668C1054.0 821.2 1041.0 828.0 1018.33332 828.0C1005.66668 828.0 995.33332 824.0 987.33332 813.6C984.33332 803.6 983.33332 792.4 983.33332 775.2C983.33332 712.4 983.33332 650.0 983.33332 587.2C983.33332 566.4 977.33332 558.8 969.66668 558.8C968.0 558.8 966.0 559.2 963.33332 560.0C965.66668 568.0 966.66668 580.0 966.66668 596.0C966.66668 658.0 966.66668 720.4 966.66668 782.4C966.66668 824.0 985.0 846.4 1021.66668 846.4C1041.33332 846.4 1059.33332 838.4 1066.33332 830.0C1073.33332 821.6 1074.33332 814.8 1074.33332 806.4C1074.33332 804.4 1074.0 802.0 1073.66668 800.0Z" fill="#1a1a1a"/><line x1="1100.0" y1="560.0" x2="1100.0" y2="950.0" stroke="#eee" stroke-width="0.5"/><text x="20" y="1160.0" font-size="10" fill="#555">Linear B</text><path d="M204.0 1019.2C152.33332000000001 1019.2 121.66668 1057.2 121.66668 1108.0V1155.2C121.66668 1210.0 150.33332000000001 1244.8 213.33332000000001 1244.8C243.33332000000001 1244.8 267.0 1237.6 271.66668000000004 1232.0C272.66668000000004 1230.8 273.0 1230.0 273.0 1228.8C273.0 1213.6 273.0 1197.6 273.0 1182.8H266.33332C251.0 1189.2 235.0 1192.8 213.66667999999999 1192.8C196.33332000000001 1192.8 185.33332000000001 1190.0 178.66667999999999 1182.0C174.0 1176.4 171.66667999999999 1168.0 171.66667999999999 1156.0V1105.2C171.66667999999999 1079.6 181.66667999999999 1069.2 204.0 1069.2C214.33332000000001 1069.2 221.33332000000001 1072.0 225.66667999999999 1077.2C229.66668 1082.0 231.33332000000001 1088.0 231.33332000000001 1095.6C231.33332000000001 1107.80350877192 224.21392000000003 1114.4 213.66667999999999 1114.4C191.88832000000002 1114.4 172.60912000000002 1114.4 143.33332000000001 1114.4V1153.6L163.33332000000001 1150.4C182.04500000000002 1150.4 205.66667999999999 1150.4 231.0 1150.4C262.66668000000004 1150.4 280.33332 1133.2 280.33332 1092.4V1089.2C280.33332 1048.8 252.33332000000001 1019.2 204.0 1019.2Z" fill="#1a1a1a"/><line x1="300.0" y1="959.9999999999999" x2="300.0" y2="1350.0" stroke="#eee" stroke-width="0.5"/><path d="M320.33332 1266.8C320.33332 1283.2 320.33332 1298.8 320.33332 1315.2C320.33332 1317.6 321.66668 1319.6 323.66668 1319.6C326.0 1319.6 337.33332 1319.6 360.33332 1319.6C395.0 1319.6 413.0 1297.6 413.0 1257.2C413.0 1176.8 413.0 1098.4 413.0 1019.6C413.0 1004.8 415.33332 995.2 420.33332 989.2C424.33332 984.4 429.66668000000004 982.0 437.0 982.0C440.0 982.0 443.33332 982.4 446.33332 983.2C446.33332 992.8 446.33332 1002.4 446.33332 1012.4V1016.0C460.0 1016.0 474.0 1016.0 487.66668000000004 1016.0C490.0 1016.0 491.33332 1014.4 491.33332 1011.6V948.0C491.33332 946.8 491.0 945.5999999999999 490.33332 944.8C486.33332 940.0 469.0 932.0 440.0 932.0C392.0 932.0 361.33332 960.8 361.33332 1016.8C361.33332 1097.6 361.33332 1176.8 361.33332 1257.6C361.33332 1260.8 361.0 1262.8 359.66668 1264.4C358.33332 1266.0 356.33332 1266.8 353.33332 1266.8C342.0 1266.8 335.0 1266.8 327.0 1266.8ZM323.33332 1080.0C323.33332 1096.0 323.33332 1111.6 323.33332 1127.6C323.33332 1130.4 324.66668 1132.0 327.0 1132.0H476.66668000000004C476.66668000000004 1115.2 476.66668000000004 1101.2 476.66668000000004 1084.4C476.66668000000004 1081.6 475.33332 1080.0 473.0 1080.0Z" fill="#1a1a1a"/><line x1="500.0" y1="959.9999999999999" x2="500.0" y2="1350.0" stroke="#eee" stroke-width="0.5"/><path d="M520.33332 1266.8C520.33332 1283.2 520.33332 1298.8 520.33332 1315.2C520.33332 1317.6 521.66668 1319.6 523.66668 1319.6C526.0 1319.6 537.33332 1319.6 560.33332 1319.6C595.0 1319.6 613.0 1297.6 613.0 1257.2C613.0 1176.8 613.0 1098.4 613.0 1019.6C613.0 1004.8 615.33332 995.2 620.33332 989.2C624.33332 984.4 629.66668 982.0 637.0 982.0C640.0 982.0 643.33332 982.4 646.33332 983.2C646.33332 992.8 646.33332 1002.4 646.33332 1012.4V1016.0C660.0 1016.0 674.0 1016.0 687.66668 1016.0C690.0 1016.0 691.33332 1014.4 691.33332 1011.6V948.0C691.33332 946.8 691.0 945.5999999999999 690.33332 944.8C686.33332 940.0 669.0 932.0 640.0 932.0C592.0 932.0 561.33332 960.8 561.33332 1016.8C561.33332 1097.6 561.33332 1176.8 561.33332 1257.6C561.33332 1260.8 561.0 1262.8 559.66668 1264.4C558.33332 1266.0 556.33332 1266.8 553.33332 1266.8C542.0 1266.8 535.0 1266.8 527.0 1266.8ZM523.33332 1080.0C523.33332 1096.0 523.33332 1111.6 523.33332 1127.6C523.33332 1130.4 524.66668 1132.0 527.0 1132.0H676.66668C676.66668 1115.2 676.66668 1101.2 676.66668 1084.4C676.66668 1081.6 675.33332 1080.0 673.0 1080.0Z" fill="#1a1a1a"/><line x1="700.0" y1="959.9999999999999" x2="700.0" y2="1350.0" stroke="#eee" stroke-width="0.5"/><path d="M730.0 1024.0C730.0 1040.0 730.0 1055.6 730.0 1071.6C730.0 1074.4 731.33332 1076.0 733.66668 1076.0C758.66668 1076.0 783.0 1076.0 808.0 1076.0H816.33332C816.33332 1129.2 816.33332 1179.2 816.33332 1232.4C816.33332 1256.4 807.66668 1268.0 788.33332 1268.0C785.0 1268.0 781.0 1267.6 777.66668 1266.8C777.66668 1260.8 777.66668 1245.6 777.66668 1231.2V1223.2C763.33332 1223.2 748.0 1223.2 733.66668 1223.2C731.33332 1223.2 730.0 1224.8 730.0 1227.6C730.0 1229.6 730.0 1278.0 730.0 1303.6C730.0 1304.8 730.33332 1306.0 731.0 1306.8C736.0 1312.8 760.33332 1320.0 788.33332 1320.0C839.66668 1320.0 866.33332 1284.8 866.33332 1224.8C866.33332 1156.4 866.33332 1094.4 866.33332 1028.4C866.33332 1025.6 865.0 1024.0 862.66668 1024.0C818.33332 1024.0 774.33332 1024.0 730.0 1024.0ZM779.54 950.0C779.54 974.5552399999999 799.44472 994.46 824.0 994.46C848.55528 994.46 868.46 974.5552399999999 868.46 950.0C868.46 925.44476 848.55528 905.54 824.0 905.54C799.44472 905.54 779.54 925.44476 779.54 950.0Z" fill="#1a1a1a"/><line x1="900.0" y1="959.9999999999999" x2="900.0" y2="1350.0" stroke="#eee" stroke-width="0.5"/><path d="M920.0 1024.0C920.0 1040.8 920.0 1054.8 920.0 1071.6C920.0 1074.4 921.33332 1076.0 923.66668 1076.0H1066.66668C1066.66668 1059.2 1066.66668 1045.2 1066.66668 1028.4C1066.66668 1025.6 1065.33332 1024.0 1063.0 1024.0ZM1066.66668 1187.2H1060.0C1052.0 1187.2 1044.0 1187.2 1036.33332 1187.2C1026.33332 1187.2 1019.0 1185.2 1014.66668 1180.0C1010.0 1174.4 1008.33332 1165.6 1008.33332 1151.6C1008.33332 1089.6 1008.33332 1026.8 1008.33332 964.4C1008.33332 961.5999999999999 1007.0 960.0 1004.66668 960.0C989.33332 960.0 973.66668 960.0 958.33332 960.0C958.33332 973.2 958.33332 986.8 958.33332 1000.0C958.33332 1050.8 958.33332 1101.2 958.33332 1152.0C958.33332 1214.0 986.0 1240.0 1034.66668 1240.0C1044.0 1240.0 1060.66668 1240.0 1063.0 1240.0C1065.0 1240.0 1066.66668 1238.0 1066.66668 1235.6C1066.66668 1219.2 1066.66668 1203.6 1066.66668 1187.2Z" fill="#1a1a1a"/><line x1="1100.0" y1="959.9999999999999" x2="1100.0" y2="1350.0" stroke="#eee" stroke-width="0.5"/><text x="20" y="1560.0" font-size="10" fill="#555">Linear C</text><path d="M207.33332000000001 1412.0C148.66668 1412.0 111.66668 1452.0 111.66668 1509.2V1550.8C111.66668 1614.8 147.0 1648.0 213.66667999999999 1648.0C246.66668 1648.0 277.33332 1642.0 284.0 1634.0C284.66668000000004 1633.2 285.0 1632.0 285.0 1630.8C285.0 1609.6 285.0 1588.8 285.0 1567.6H278.33332C257.33332 1575.2 241.33332000000001 1577.6 213.33332000000001 1578.0C201.0 1578.0 193.66667999999999 1575.6 189.66667999999999 1570.8C186.0 1566.4 185.0 1559.6 185.0 1552.0V1504.4C185.0 1491.2 192.66667999999999 1482.0 204.33332000000001 1482.0C210.66667999999999 1482.0 215.33332000000001 1484.0 218.66667999999999 1488.0C221.66667999999999 1492.0 223.33332000000001 1497.6 223.33332000000001 1504.4C223.33332000000001 1510.4 222.0 1512.0 219.66667999999999 1512.0C205.0 1512.0 192.33332000000001 1512.0 168.33332000000001 1512.0V1556.0L181.66667999999999 1552.0C202.0 1552.0 222.33332000000001 1552.0 243.0 1552.0C276.33332 1552.0 290.0 1532.0 290.0 1498.0V1494.0C290.0 1444.8 255.33332000000001 1412.0 207.33332000000001 1412.0Z" fill="#1a1a1a"/><line x1="300.0" y1="1360.0" x2="300.0" y2="1750.0" stroke="#eee" stroke-width="0.5"/><path d="M308.0 1636.0C308.0 1662.4 308.0 1689.2 308.0 1715.6C308.0 1718.4 309.66668 1720.0 311.66668 1720.0C326.33332 1720.0 344.66668 1720.0 359.33332 1720.0C403.33332 1720.0 424.66668 1694.0 424.66668 1641.6C424.66668 1577.04719101124 424.66668 1488.9468164794 424.66668 1424.8C424.66668 1419.6 425.66668 1415.6 428.0 1412.8C430.0 1410.4 433.33332 1408.8 438.0 1408.8C439.33332 1408.8 440.66668000000004 1408.8 442.0 1408.8C442.0 1412.26666666668 442.0 1415.15555555556 442.0 1419.2V1424.0C459.54892 1424.0 476.78444 1424.0 494.33332 1424.0C496.66668000000004 1424.0 498.0 1422.4 498.0 1419.6V1345.6C498.0 1344.4 497.66668000000004 1343.2 497.0 1342.4C492.0 1336.8 465.66668000000004 1332.0 443.0 1332.0C376.98304 1332.0 348.0 1361.2 348.0 1429.2C348.0 1494.0 348.0 1566.4 348.0 1631.6C348.0 1633.2 347.66668 1634.4 347.0 1635.2C346.66668 1635.6 345.66668 1636.0 344.66668 1636.0C335.33332 1636.0 324.0 1636.0 314.66668 1636.0ZM308.0 1472.0C308.0 1494.4 308.0 1525.2 308.0 1547.6C308.0 1550.4 309.33332 1552.0 311.66668 1552.0H491.33332C491.33332 1529.6 491.33332 1498.8 491.33332 1476.4C491.33332 1473.6 490.0 1472.0 487.66668000000004 1472.0Z" fill="#1a1a1a"/><line x1="500.0" y1="1360.0" x2="500.0" y2="1750.0" stroke="#eee" stroke-width="0.5"/><path d="M508.0 1636.0C508.0 1662.4 508.0 1689.2 508.0 1715.6C508.0 1718.4 509.66668 1720.0 511.66668 1720.0C526.33332 1720.0 544.66668 1720.0 559.33332 1720.0C603.33332 1720.0 624.66668 1694.0 624.66668 1641.6C624.66668 1577.04719101124 624.66668 1488.9468164794 624.66668 1424.8C624.66668 1419.6 625.66668 1415.6 628.0 1412.8C630.0 1410.4 633.33332 1408.8 638.0 1408.8C639.33332 1408.8 640.66668 1408.8 642.0 1408.8C642.0 1412.26666666668 642.0 1415.15555555556 642.0 1419.2V1424.0C659.54892 1424.0 676.78444 1424.0 694.33332 1424.0C696.66668 1424.0 698.0 1422.4 698.0 1419.6V1345.6C698.0 1344.4 697.66668 1343.2 697.0 1342.4C692.0 1336.8 665.66668 1332.0 643.0 1332.0C576.9830400000001 1332.0 548.0 1361.2 548.0 1429.2C548.0 1494.0 548.0 1566.4 548.0 1631.6C548.0 1633.2 547.66668 1634.4 547.0 1635.2C546.66668 1635.6 545.66668 1636.0 544.66668 1636.0C535.33332 1636.0 524.0 1636.0 514.66668 1636.0ZM508.0 1472.0C508.0 1494.4 508.0 1525.2 508.0 1547.6C508.0 1550.4 509.33332 1552.0 511.66668 1552.0H691.33332C691.33332 1529.6 691.33332 1498.8 691.33332 1476.4C691.33332 1473.6 690.0 1472.0 687.66668 1472.0Z" fill="#1a1a1a"/><line x1="700.0" y1="1360.0" x2="700.0" y2="1750.0" stroke="#eee" stroke-width="0.5"/><path d="M721.66668 1420.0C721.66668 1446.0 721.66668 1471.6 721.66668 1497.6C721.66668 1500.4 723.0 1502.0 725.33332 1502.0C748.33332 1502.0 771.33332 1502.0 794.33332 1502.0H806.66668C806.66668 1537.2 806.66668 1574.8 806.66668 1610.0C806.66668 1632.8 798.33332 1639.6 789.0 1639.6C783.33332 1639.6 779.66668 1638.8 777.66668 1637.6C777.66668 1634.0 777.66668 1622.4 777.66668 1614.0V1606.0C757.66668 1606.0 735.33332 1606.0 715.33332 1606.0C713.0 1606.0 711.66668 1607.6 711.66668 1610.4C711.66668 1613.2 711.66668 1667.2 711.66668 1695.6C711.66668 1697.2 712.33332 1699.2 713.33332 1700.4C719.33332 1707.6 743.33332 1720.0 787.33332 1720.0C843.33332 1720.0 880.0 1685.2 880.0 1600.0C880.0 1546.0 880.0 1486.8 880.0 1424.4C880.0 1421.6 878.66668 1420.0 876.33332 1420.0C824.66668 1420.0 773.33332 1420.0 721.66668 1420.0ZM785.18 1357.0C785.18 1386.72476 809.27524 1410.82 839.0 1410.82C868.72476 1410.82 892.82 1386.72476 892.82 1357.0C892.82 1327.27524 868.72476 1303.18 839.0 1303.18C809.27524 1303.18 785.18 1327.27524 785.18 1357.0Z" fill="#1a1a1a"/><line x1="900.0" y1="1360.0" x2="900.0" y2="1750.0" stroke="#eee" stroke-width="0.5"/><path d="M908.33332 1420.0C908.33332 1438.4 908.33332 1481.2 908.33332 1499.6C908.33332 1502.4 909.66668 1504.0 912.0 1504.0H1091.66668C1091.66668 1485.6 1091.66668 1442.8 1091.66668 1424.4C1091.66668 1421.6 1090.33332 1420.0 1088.0 1420.0ZM1091.66668 1556.0H1085.0C1071.66668 1556.0 1058.0 1556.0 1044.66668 1556.0C1038.66668 1556.0 1034.33332 1554.4 1031.66668 1551.6C1029.33332 1548.8 1028.33332 1544.8 1028.33332 1539.2C1028.33332 1480.8 1028.33332 1422.8 1028.33332 1364.4C1028.33332 1361.6 1027.0 1360.0 1024.66668 1360.0C1001.0 1360.0 977.0 1360.0 953.33332 1360.0C953.33332 1372.0 953.33332 1384.4 953.33332 1396.4C953.33332 1446.4 953.33332 1496.0 953.33332 1546.0C953.33332 1608.4 980.33332 1640.0 1034.0 1640.0C1052.0 1640.0 1085.33332 1640.0 1088.0 1640.0C1090.33332 1640.0 1091.66668 1638.4 1091.66668 1635.6C1091.66668 1609.2 1091.66668 1582.4 1091.66668 1556.0Z" fill="#1a1a1a"/><line x1="1100.0" y1="1360.0" x2="1100.0" y2="1750.0" stroke="#eee" stroke-width="0.5"/><text x="570.0" y="1754.0" text-anchor="middle" font-size="12" fill="#666">j spacing: "jiffy"</text><text x="20" y="2080.0" font-size="10" fill="#555">Linear A</text><path d="M139.33332000000001 1949.6C139.33332000000001 1954.4 139.33332000000001 1958.8 139.33332000000001 1963.6C139.33332000000001 1966.0 141.0 1968.0 143.0 1968.0C173.0 1968.0 203.0 1968.0 233.0 1968.0H237.66668C237.66668 2026.8 237.66668 2081.2 237.66668 2140.0C237.66668 2195.2 219.0 2221.2 182.33332000000001 2221.2C171.66667999999999 2221.2 163.33332000000001 2220.0 155.66667999999999 2217.2C155.66667999999999 2206.0 155.66667999999999 2182.8 155.66667999999999 2160.8V2156.0C151.33332000000001 2156.0 147.33332000000001 2156.0 143.0 2156.0C140.66668 2156.0 139.33332000000001 2157.6 139.33332000000001 2160.4C139.33332000000001 2162.4 139.33332000000001 2204.4 139.33332000000001 2226.4C139.33332000000001 2228.0 139.66668 2228.8 140.33332000000001 2229.6C144.66668 2234.8 162.33332000000001 2240.0 182.33332000000001 2240.0C231.33332000000001 2240.0 254.33332000000001 2204.8 254.33332000000001 2140.0C254.33332000000001 2076.8 254.33332000000001 2017.2 254.33332000000001 1954.0C254.33332000000001 1951.6 252.66668 1949.6 250.66668 1949.6C213.66667999999999 1949.6 176.33332000000001 1949.6 139.33332000000001 1949.6ZM212.53332 1873.6C212.53332 1885.08784 221.84548 1894.4 233.33332000000001 1894.4C244.82116000000002 1894.4 254.13332000000003 1885.08784 254.13332000000003 1873.6C254.13332000000003 1862.11216 244.82116000000002 1852.8 233.33332000000001 1852.8C221.84548 1852.8 212.53332 1862.11216 212.53332 1873.6Z" fill="#1a1a1a"/><line x1="300.0" y1="1879.9999999999998" x2="300.0" y2="2270.0" stroke="#eee" stroke-width="0.5"/><path d="M326.66668 1949.6C326.66668 1954.4 326.66668 1959.2 326.66668 1964.0C326.66668 1966.8 328.0 1968.4 330.33332 1968.4C350.0 1968.4 369.66668 1968.4 389.33332 1968.4H393.33332C393.33332 2015.2 393.33332 2062.4 393.33332 2109.2C393.33332 2143.2 405.0 2160.0 437.0 2160.0C448.0 2160.0 467.33332 2160.0 469.66668000000004 2160.0C472.0 2160.0 473.33332 2158.4 473.33332 2155.6C473.33332 2150.8 473.33332 2146.0 473.33332 2141.2H469.33332C458.66668000000004 2141.2 448.66668000000004 2141.2 438.0 2141.2C427.33332 2141.2 420.0 2139.2 415.66668 2134.0C411.33332 2128.8 410.0 2120.8 410.0 2107.6C410.0 2056.4 410.0 2005.2 410.0 1954.0C410.0 1951.2 408.66668 1949.6 406.33332 1949.6C379.66668 1949.6 353.33332 1949.6 326.66668 1949.6ZM380.86668 1873.6C380.86668 1885.08784 390.17884 1894.4 401.66668 1894.4C413.15452 1894.4 422.46668 1885.08784 422.46668 1873.6C422.46668 1862.11216 413.15452 1852.8 401.66668 1852.8C390.17884 1852.8 380.86668 1862.11216 380.86668 1873.6Z" fill="#1a1a1a"/><line x1="500.0" y1="1879.9999999999998" x2="500.0" y2="2270.0" stroke="#eee" stroke-width="0.5"/><path d="M516.66668 2216.8C516.66668 2221.6 516.66668 2226.4 516.66668 2231.2C516.66668 2234.0 518.0 2235.6 520.33332 2235.6C522.66668 2235.6 542.0 2235.6 553.0 2235.6C585.0 2235.6 596.66668 2218.8 596.66668 2184.8C596.66668 2118.4 596.66668 2002.8 596.66668 1935.2C596.66668 1912.8 600.0 1897.2 607.66668 1887.6C614.66668 1878.8 625.66668 1874.8 640.66668 1874.8C652.0 1874.8 664.0 1876.8 674.0 1880.0C674.0 1890.8 674.0 1900.8 674.0 1911.6V1916.4C678.33332 1916.4 682.0 1916.4 686.33332 1916.4C688.66668 1916.4 690.0 1914.8 690.0 1912.0V1870.8C690.0 1869.2 689.66668 1868.4 689.0 1867.6C685.33332 1863.2 663.0 1856.0 642.0 1856.0C604.33332 1856.0 580.0 1878.4 580.0 1937.6C580.0 2018.0 580.0 2102.8 580.0 2183.2C580.0 2196.4 578.66668 2204.4 574.33332 2209.6C570.0 2214.8 562.66668 2216.8 552.0 2216.8C541.33332 2216.8 531.33332 2216.8 520.66668 2216.8ZM530.0 2011.2C530.0 2016.4 530.0 2020.0 530.0 2025.2C530.0 2028.0 531.33332 2029.6 533.66668 2029.6H666.66668C666.66668 2024.4 666.66668 2020.8 666.66668 2015.6C666.66668 2012.8 665.33332 2011.2 663.0 2011.2Z" fill="#1a1a1a"/><line x1="700.0" y1="1879.9999999999998" x2="700.0" y2="2270.0" stroke="#eee" stroke-width="0.5"/><path d="M716.66668 2216.8C716.66668 2221.6 716.66668 2226.4 716.66668 2231.2C716.66668 2234.0 718.0 2235.6 720.33332 2235.6C722.66668 2235.6 742.0 2235.6 753.0 2235.6C785.0 2235.6 796.66668 2218.8 796.66668 2184.8C796.66668 2118.4 796.66668 2002.8 796.66668 1935.2C796.66668 1912.8 800.0 1897.2 807.66668 1887.6C814.66668 1878.8 825.66668 1874.8 840.66668 1874.8C852.0 1874.8 864.0 1876.8 874.0 1880.0C874.0 1890.8 874.0 1900.8 874.0 1911.6V1916.4C878.33332 1916.4 882.0 1916.4 886.33332 1916.4C888.66668 1916.4 890.0 1914.8 890.0 1912.0V1870.8C890.0 1869.2 889.66668 1868.4 889.0 1867.6C885.33332 1863.2 863.0 1856.0 842.0 1856.0C804.33332 1856.0 780.0 1878.4 780.0 1937.6C780.0 2018.0 780.0 2102.8 780.0 2183.2C780.0 2196.4 778.66668 2204.4 774.33332 2209.6C770.0 2214.8 762.66668 2216.8 752.0 2216.8C741.33332 2216.8 731.33332 2216.8 720.66668 2216.8ZM730.0 2011.2C730.0 2016.4 730.0 2020.0 730.0 2025.2C730.0 2028.0 731.33332 2029.6 733.66668 2029.6H866.66668C866.66668 2024.4 866.66668 2020.8 866.66668 2015.6C866.66668 2012.8 865.33332 2011.2 863.0 2011.2Z" fill="#1a1a1a"/><line x1="900.0" y1="1879.9999999999998" x2="900.0" y2="2270.0" stroke="#eee" stroke-width="0.5"/><path d="M1078.0 1949.6C1073.66668 1949.6 1069.66668 1949.6 1066.0 1949.6C1040.0 2038.0 1002.66668 2165.2 993.66668 2195.2C988.33332 2213.2 978.66668 2220.8 963.66668 2220.8C955.33332 2220.8 947.0 2220.8 938.66668 2220.8H934.66668V2235.6C934.66668 2239.2 936.0 2240.0 938.33332 2240.0C940.66668 2240.0 954.66668 2240.0 963.0 2240.0C987.0 2240.0 1000.0 2228.8 1009.33332 2197.2C1028.0 2135.2 1056.0 2042.0 1082.0 1956.0C1083.33332 1952.0 1080.33332 1949.6 1078.0 1949.6ZM930.66668 1949.6C925.33332 1949.6 920.66668 1949.6 916.0 1949.6C940.0 2016.4 973.66668 2108.0 984.66668 2138.8C992.0 2159.2 992.33332 2160.0 999.0 2160.0H1008.0L1012.66668 2145.6H1003.66668C998.0 2129.6 958.66668 2017.6 936.66668 1954.0C935.33332 1950.4 934.0 1949.6 930.66668 1949.6Z" fill="#1a1a1a"/><line x1="1100.0" y1="1879.9999999999998" x2="1100.0" y2="2270.0" stroke="#eee" stroke-width="0.5"/><text x="20" y="2480.0" font-size="10" fill="#555">Casual A</text><path d="M142.33332000000001 2375.6C141.66668 2377.6 141.66668 2380.4 142.0 2383.2C142.66668 2389.6 145.66668 2394.0 150.33332000000001 2394.0C163.0 2394.0 178.33332000000001 2370.4 231.66668 2362.0L232.66668 2363.2C232.66668 2425.2 232.66668 2487.2 232.66668 2549.2C232.66668 2600.4 215.66667999999999 2620.8 185.33332000000001 2620.8C175.66667999999999 2620.8 167.0 2618.8 159.66667999999999 2612.8C143.0 2582.4 147.0 2515.2 184.0 2492.8V2490.4C182.33332000000001 2490.0 180.33332000000001 2489.6 177.66667999999999 2489.6C168.33332000000001 2489.6 161.33332000000001 2492.8 154.0 2501.6C143.33332000000001 2514.4 134.0 2538.4 134.0 2566.4C134.0 2590.4 140.0 2608.4 151.0 2621.6C160.66667999999999 2633.2 173.33332000000001 2640.0 188.0 2640.0C221.0 2640.0 249.33332000000001 2617.6 249.33332000000001 2549.2C249.33332000000001 2486.8 249.33332000000001 2424.0 249.33332000000001 2361.6C249.33332000000001 2353.6 241.66668 2345.6 234.33332000000001 2345.6C210.66667999999999 2345.6 170.66667999999999 2357.2 142.33332000000001 2375.6ZM206.29332000000002 2276.0C206.29332000000002 2290.9342 218.39912 2303.04 233.33332000000001 2303.04C248.26752000000002 2303.04 260.37332000000004 2290.9342 260.37332000000004 2276.0C260.37332000000004 2261.0658 248.26752000000002 2248.96 233.33332000000001 2248.96C218.39912 2248.96 206.29332000000002 2261.0658 206.29332000000002 2276.0Z" fill="#1a1a1a"/><line x1="300.0" y1="2280.0" x2="300.0" y2="2670.0" stroke="#eee" stroke-width="0.5"/><path d="M321.0 2357.6C320.33332 2359.6 320.0 2362.0 320.0 2364.8C320.0 2372.4 322.66668 2377.6 327.66668 2377.6C336.0 2377.6 354.66668 2368.4 389.66668 2362.4L391.0 2363.6C391.0 2410.4 391.0 2457.2 391.0 2504.0C391.0 2546.8 408.33332 2568.0 437.66668000000004 2568.0C452.0 2568.0 465.0 2563.6 471.66668000000004 2555.6C475.33332 2551.2 477.0 2545.2 477.0 2538.4C477.0 2535.2 476.66668000000004 2532.0 476.33332 2530.0H474.33332C465.33332 2542.0 453.33332 2548.0 438.66668000000004 2548.0C427.66668 2548.0 418.66668 2545.6 412.0 2538.4C408.66668 2529.2 407.66668 2519.2 407.66668 2499.2C407.66668 2451.2 407.66668 2402.8 407.66668 2354.8C407.66668 2347.6 401.0 2345.6 392.0 2345.6C375.0 2345.6 352.0 2348.8 321.0 2357.6ZM372.62667999999996 2276.0C372.62667999999996 2290.9342 384.73248 2303.04 399.66668 2303.04C414.60087999999996 2303.04 426.70668 2290.9342 426.70668 2276.0C426.70668 2261.0658 414.60087999999996 2248.96 399.66668 2248.96C384.73248 2248.96 372.62667999999996 2261.0658 372.62667999999996 2276.0Z" fill="#1a1a1a"/><line x1="500.0" y1="2280.0" x2="500.0" y2="2670.0" stroke="#eee" stroke-width="0.5"/><path d="M501.33332 2599.2C501.0 2601.2 500.66668 2604.4 500.66668 2607.6C500.66668 2614.4 502.33332 2620.4 506.0 2624.8C512.66668 2632.8 525.66668 2637.2 540.0 2637.2C572.33332 2637.2 590.0 2616.8 590.0 2573.2C590.0 2502.0 590.0 2423.6 590.0 2352.0C590.0 2318.0 594.33332 2298.8 603.33332 2288.0C611.91332 2277.6 620.0 2275.2 634.66668 2275.2C649.33332 2275.2 658.70464 2280.4844816814802 666.66668 2288.8C668.33332 2304.4 667.0 2322.0 663.66668 2336.8V2339.2C665.33332 2339.6 666.66668 2340.0 668.0 2340.0C676.33332 2340.0 682.33332 2324.8 682.33332 2305.6V2300.4C682.33332 2290.4 679.0 2280.4 672.33332 2272.4C664.48756 2263.52752214492 652.33332 2257.2 634.66668 2257.2C594.33332 2257.2 573.33332 2284.05128205128 573.33332 2349.6C573.33332 2422.0 573.33332 2496.4 573.33332 2568.4C573.33332 2588.4 572.33332 2598.4 569.0 2607.6C562.0 2615.2 551.33332 2617.2 539.0 2617.2C524.33332 2617.2 512.33332 2611.2 503.33332 2599.2ZM521.66668 2426.4C521.66668 2427.6 521.66668 2429.2 521.66668 2430.4C521.66668 2439.2 523.33332 2446.4 529.33332 2446.4H666.66668C666.66668 2445.2 666.66668 2443.6 666.66668 2442.4C666.66668 2433.6 665.0 2426.4 659.0 2426.4Z" fill="#1a1a1a"/><line x1="700.0" y1="2280.0" x2="700.0" y2="2670.0" stroke="#eee" stroke-width="0.5"/><path d="M701.33332 2599.2C701.0 2601.2 700.66668 2604.4 700.66668 2607.6C700.66668 2614.4 702.33332 2620.4 706.0 2624.8C712.66668 2632.8 725.66668 2637.2 740.0 2637.2C772.33332 2637.2 790.0 2616.8 790.0 2573.2C790.0 2502.0 790.0 2423.6 790.0 2352.0C790.0 2318.0 794.33332 2298.8 803.33332 2288.0C811.91332 2277.6 820.0 2275.2 834.66668 2275.2C849.33332 2275.2 858.70464 2280.4844816814802 866.66668 2288.8C868.33332 2304.4 867.0 2322.0 863.66668 2336.8V2339.2C865.33332 2339.6 866.66668 2340.0 868.0 2340.0C876.33332 2340.0 882.33332 2324.8 882.33332 2305.6V2300.4C882.33332 2290.4 879.0 2280.4 872.33332 2272.4C864.48756 2263.52752214492 852.33332 2257.2 834.66668 2257.2C794.33332 2257.2 773.33332 2284.05128205128 773.33332 2349.6C773.33332 2422.0 773.33332 2496.4 773.33332 2568.4C773.33332 2588.4 772.33332 2598.4 769.0 2607.6C762.0 2615.2 751.33332 2617.2 739.0 2617.2C724.33332 2617.2 712.33332 2611.2 703.33332 2599.2ZM721.66668 2426.4C721.66668 2427.6 721.66668 2429.2 721.66668 2430.4C721.66668 2439.2 723.33332 2446.4 729.33332 2446.4H866.66668C866.66668 2445.2 866.66668 2443.6 866.66668 2442.4C866.66668 2433.6 865.0 2426.4 859.0 2426.4Z" fill="#1a1a1a"/><line x1="900.0" y1="2280.0" x2="900.0" y2="2670.0" stroke="#eee" stroke-width="0.5"/><path d="M1065.33332 2348.4C1063.33332 2348.4 1061.66668 2348.8 1060.33332 2349.6C1048.33332 2503.6 1029.66668 2550.8 996.0 2591.2C979.66668 2610.8 961.33332 2622.0 941.66668 2622.0C940.66668 2622.0 939.66668 2622.0 938.66668 2622.0H936.66668V2623.2C936.66668 2629.6 937.66668 2634.4 940.0 2637.2C941.66668 2639.2 944.0 2640.0 947.0 2640.0C968.66668 2640.0 989.33332 2627.6 1007.66668 2605.6C1043.0 2563.2 1063.66668 2506.4 1076.0 2361.2C1076.66668 2352.0 1073.66668 2348.4 1065.33332 2348.4ZM928.33332 2348.4C926.33332 2348.4 924.66668 2348.8 923.0 2349.6C934.33332 2467.2 952.66668 2502.0 969.0 2525.6C985.66668 2549.6 1003.66668 2560.0 1024.66668 2560.0H1027.0L1032.33332 2547.2H1021.33332C978.33332 2535.6 950.66668 2469.6 942.33332 2366.4C941.0 2350.0 936.33332 2348.4 928.33332 2348.4Z" fill="#1a1a1a"/><line x1="1100.0" y1="2280.0" x2="1100.0" y2="2670.0" stroke="#eee" stroke-width="0.5"/><text x="20" y="2880.0" font-size="10" fill="#555">Linear B</text><path d="M130.0 2744.0C130.0 2760.0 130.0 2775.6 130.0 2791.6C130.0 2794.4 131.33332000000001 2796.0 133.66668 2796.0C158.66667999999999 2796.0 183.0 2796.0 208.0 2796.0H216.33332000000001C216.33332000000001 2849.2 216.33332000000001 2899.2 216.33332000000001 2952.4C216.33332000000001 2976.4 207.66667999999999 2988.0 188.33332000000001 2988.0C185.0 2988.0 181.0 2987.6 177.66667999999999 2986.8C177.66667999999999 2980.8 177.66667999999999 2965.6 177.66667999999999 2951.2V2943.2C163.33332000000001 2943.2 148.0 2943.2 133.66668 2943.2C131.33332000000001 2943.2 130.0 2944.8 130.0 2947.6C130.0 2949.6 130.0 2998.0 130.0 3023.6C130.0 3024.8 130.33332000000001 3026.0 131.0 3026.8C136.0 3032.8 160.33332000000001 3040.0 188.33332000000001 3040.0C239.66668 3040.0 266.33332 3004.8 266.33332 2944.8C266.33332 2876.4 266.33332 2814.4 266.33332 2748.4C266.33332 2745.6 265.0 2744.0 262.66668000000004 2744.0C218.33332000000001 2744.0 174.33332000000001 2744.0 130.0 2744.0ZM179.54 2670.0C179.54 2694.55524 199.44472 2714.46 224.0 2714.46C248.55528 2714.46 268.46000000000004 2694.55524 268.46000000000004 2670.0C268.46000000000004 2645.44476 248.55528 2625.54 224.0 2625.54C199.44472 2625.54 179.54 2645.44476 179.54 2670.0Z" fill="#1a1a1a"/><line x1="300.0" y1="2680.0" x2="300.0" y2="3070.0" stroke="#eee" stroke-width="0.5"/><path d="M316.66668 2744.0C316.66668 2760.0 316.66668 2775.6 316.66668 2791.6C316.66668 2794.4 318.0 2796.0 320.33332 2796.0C336.33332 2796.0 353.0 2796.0 369.0 2796.0H376.66668C376.66668 2828.4 376.66668 2861.2 376.66668 2893.6C376.66668 2938.4 393.0 2960.0 431.66668000000004 2960.0C447.66668000000004 2960.0 463.66668000000004 2960.0 479.66668000000004 2960.0C482.0 2960.0 483.33332 2958.4 483.33332 2955.6C483.33332 2939.6 483.33332 2924.0 483.33332 2908.0H476.66668000000004C464.33332 2908.0 450.0 2908.0 436.66668000000004 2908.0C432.66668000000004 2908.0 430.33332 2907.2 428.66668000000004 2905.2C427.0 2903.2 426.66668 2900.8 426.66668 2897.2C426.66668 2847.6 426.66668 2798.0 426.66668 2748.4C426.66668 2745.6 425.33332 2744.0 423.0 2744.0C387.66668 2744.0 352.0 2744.0 316.66668 2744.0ZM355.53999999999996 2670.0C355.53999999999996 2694.55524 375.44472 2714.46 400.0 2714.46C424.55528 2714.46 444.46000000000004 2694.55524 444.46000000000004 2670.0C444.46000000000004 2645.44476 424.55528 2625.54 400.0 2625.54C375.44472 2625.54 355.53999999999996 2645.44476 355.53999999999996 2670.0Z" fill="#1a1a1a"/><line x1="500.0" y1="2680.0" x2="500.0" y2="3070.0" stroke="#eee" stroke-width="0.5"/><path d="M520.33332 2986.8C520.33332 3003.2 520.33332 3018.8 520.33332 3035.2C520.33332 3037.6 521.66668 3039.6 523.66668 3039.6C526.0 3039.6 537.33332 3039.6 560.33332 3039.6C595.0 3039.6 613.0 3017.6 613.0 2977.2C613.0 2896.8 613.0 2818.4 613.0 2739.6C613.0 2724.8 615.33332 2715.2 620.33332 2709.2C624.33332 2704.4 629.66668 2702.0 637.0 2702.0C640.0 2702.0 643.33332 2702.4 646.33332 2703.2C646.33332 2712.8 646.33332 2722.4 646.33332 2732.4V2736.0C660.0 2736.0 674.0 2736.0 687.66668 2736.0C690.0 2736.0 691.33332 2734.4 691.33332 2731.6V2668.0C691.33332 2666.8 691.0 2665.6 690.33332 2664.8C686.33332 2660.0 669.0 2652.0 640.0 2652.0C592.0 2652.0 561.33332 2680.8 561.33332 2736.8C561.33332 2817.6 561.33332 2896.8 561.33332 2977.6C561.33332 2980.8 561.0 2982.8 559.66668 2984.4C558.33332 2986.0 556.33332 2986.8 553.33332 2986.8C542.0 2986.8 535.0 2986.8 527.0 2986.8ZM523.33332 2800.0C523.33332 2816.0 523.33332 2831.6 523.33332 2847.6C523.33332 2850.4 524.66668 2852.0 527.0 2852.0H676.66668C676.66668 2835.2 676.66668 2821.2 676.66668 2804.4C676.66668 2801.6 675.33332 2800.0 673.0 2800.0Z" fill="#1a1a1a"/><line x1="700.0" y1="2680.0" x2="700.0" y2="3070.0" stroke="#eee" stroke-width="0.5"/><path d="M720.33332 2986.8C720.33332 3003.2 720.33332 3018.8 720.33332 3035.2C720.33332 3037.6 721.66668 3039.6 723.66668 3039.6C726.0 3039.6 737.33332 3039.6 760.33332 3039.6C795.0 3039.6 813.0 3017.6 813.0 2977.2C813.0 2896.8 813.0 2818.4 813.0 2739.6C813.0 2724.8 815.33332 2715.2 820.33332 2709.2C824.33332 2704.4 829.66668 2702.0 837.0 2702.0C840.0 2702.0 843.33332 2702.4 846.33332 2703.2C846.33332 2712.8 846.33332 2722.4 846.33332 2732.4V2736.0C860.0 2736.0 874.0 2736.0 887.66668 2736.0C890.0 2736.0 891.33332 2734.4 891.33332 2731.6V2668.0C891.33332 2666.8 891.0 2665.6 890.33332 2664.8C886.33332 2660.0 869.0 2652.0 840.0 2652.0C792.0 2652.0 761.33332 2680.8 761.33332 2736.8C761.33332 2817.6 761.33332 2896.8 761.33332 2977.6C761.33332 2980.8 761.0 2982.8 759.66668 2984.4C758.33332 2986.0 756.33332 2986.8 753.33332 2986.8C742.0 2986.8 735.0 2986.8 727.0 2986.8ZM723.33332 2800.0C723.33332 2816.0 723.33332 2831.6 723.33332 2847.6C723.33332 2850.4 724.66668 2852.0 727.0 2852.0H876.66668C876.66668 2835.2 876.66668 2821.2 876.66668 2804.4C876.66668 2801.6 875.33332 2800.0 873.0 2800.0Z" fill="#1a1a1a"/><line x1="900.0" y1="2680.0" x2="900.0" y2="3070.0" stroke="#eee" stroke-width="0.5"/><path d="M1083.0 2744.0C1066.0 2744.0 1050.33332 2744.0 1036.0 2744.0C1022.0 2823.2 1004.0 2926.4 997.66668 2960.0C994.0 2979.6 985.0 2988.0 970.0 2988.0C960.33332 2988.0 951.0 2988.0 941.33332 2988.0H934.66668V3035.6C934.66668 3038.4 936.0 3040.0 938.33332 3040.0C941.0 3040.0 963.66668 3040.0 976.33332 3040.0C1014.0 3040.0 1033.66668 3019.2 1042.66668 2972.4C1060.66668 2880.8 1071.66668 2826.0 1087.0 2750.4C1087.66668 2746.4 1085.33332 2744.0 1083.0 2744.0ZM962.33332 2744.0C944.88044 2744.0 929.10576 2744.0 913.66668 2744.0C930.33332 2814.4 958.33332 2918.4 962.33332 2934.0C964.66668 2942.4 967.33332 2944.0 973.66668 2944.0H1014.33332L1022.33332 2907.2H1000.66668C990.33332 2852.4 989.6538800000001 2847.93908029316 969.0 2749.6C968.0 2745.2 966.66668 2744.0 962.33332 2744.0Z" fill="#1a1a1a"/><line x1="1100.0" y1="2680.0" x2="1100.0" y2="3070.0" stroke="#eee" stroke-width="0.5"/><text x="20" y="3280.0" font-size="10" fill="#555">Linear C</text><path d="M121.66668 3140.0C121.66668 3166.0 121.66668 3191.6 121.66668 3217.6C121.66668 3220.4 123.0 3222.0 125.33332 3222.0C148.33332000000001 3222.0 171.33332000000001 3222.0 194.33332000000001 3222.0H206.66667999999999C206.66667999999999 3257.2 206.66667999999999 3294.8 206.66667999999999 3330.0C206.66667999999999 3352.8 198.33332000000001 3359.6 189.0 3359.6C183.33332000000001 3359.6 179.66667999999999 3358.8 177.66667999999999 3357.6C177.66667999999999 3354.0 177.66667999999999 3342.4 177.66667999999999 3334.0V3326.0C157.66667999999999 3326.0 135.33332000000001 3326.0 115.33332 3326.0C113.0 3326.0 111.66668 3327.6 111.66668 3330.4C111.66668 3333.2 111.66668 3387.2 111.66668 3415.6C111.66668 3417.2 112.33332 3419.2 113.33332 3420.4C119.33332 3427.6 143.33332000000001 3440.0 187.33332000000001 3440.0C243.33332000000001 3440.0 280.0 3405.2 280.0 3320.0C280.0 3266.0 280.0 3206.8 280.0 3144.4C280.0 3141.6 278.66668000000004 3140.0 276.33332 3140.0C224.66667999999999 3140.0 173.33332000000001 3140.0 121.66668 3140.0ZM185.18 3077.0C185.18 3106.72476 209.27524 3130.82 239.0 3130.82C268.72476 3130.82 292.82 3106.72476 292.82 3077.0C292.82 3047.27524 268.72476 3023.18 239.0 3023.18C209.27524 3023.18 185.18 3047.27524 185.18 3077.0Z" fill="#1a1a1a"/><line x1="300.0" y1="3080.0" x2="300.0" y2="3470.0" stroke="#eee" stroke-width="0.5"/><path d="M308.33332 3140.0C308.33332 3166.4 308.33332 3193.2 308.33332 3219.6C308.33332 3222.4 309.66668 3224.0 312.0 3224.0C326.0 3224.0 340.0 3224.0 354.0 3224.0H363.33332C363.33332 3243.2 363.33332 3262.4 363.33332 3281.6C363.33332 3334.4 384.66668 3360.0 428.66668000000004 3360.0C448.33332 3360.0 468.33332 3360.0 488.0 3360.0C490.33332 3360.0 491.66668000000004 3358.4 491.66668000000004 3355.6C491.66668000000004 3329.2 491.66668000000004 3302.4 491.66668000000004 3276.0H485.33332C471.0 3276.0 456.0 3276.0 441.66668000000004 3276.0C440.66668000000004 3276.0 439.66668000000004 3275.6 439.33332 3275.2C438.66668000000004 3274.4 438.33332 3273.2 438.33332 3271.6C438.33332 3229.2 438.33332 3186.8 438.33332 3144.4C438.33332 3141.6 437.0 3140.0 434.66668000000004 3140.0C392.66668 3140.0 350.33332 3140.0 308.33332 3140.0ZM346.18 3077.0C346.18 3106.72476 370.27524 3130.82 400.0 3130.82C429.72476 3130.82 453.82 3106.72476 453.82 3077.0C453.82 3047.27524 429.72476 3023.18 400.0 3023.18C370.27524 3023.18 346.18 3047.27524 346.18 3077.0Z" fill="#1a1a1a"/><line x1="500.0" y1="3080.0" x2="500.0" y2="3470.0" stroke="#eee" stroke-width="0.5"/><path d="M508.0 3356.0C508.0 3382.4 508.0 3409.2 508.0 3435.6C508.0 3438.4 509.66668 3440.0 511.66668 3440.0C526.33332 3440.0 544.66668 3440.0 559.33332 3440.0C603.33332 3440.0 624.66668 3414.0 624.66668 3361.6C624.66668 3297.04719101124 624.66668 3208.9468164794 624.66668 3144.8C624.66668 3139.6 625.66668 3135.6 628.0 3132.8C630.0 3130.4 633.33332 3128.8 638.0 3128.8C639.33332 3128.8 640.66668 3128.8 642.0 3128.8C642.0 3132.26666666668 642.0 3135.15555555556 642.0 3139.2V3144.0C659.54892 3144.0 676.78444 3144.0 694.33332 3144.0C696.66668 3144.0 698.0 3142.4 698.0 3139.6V3065.6C698.0 3064.4 697.66668 3063.2 697.0 3062.4C692.0 3056.8 665.66668 3052.0 643.0 3052.0C576.9830400000001 3052.0 548.0 3081.2 548.0 3149.2C548.0 3214.0 548.0 3286.4 548.0 3351.6C548.0 3353.2 547.66668 3354.4 547.0 3355.2C546.66668 3355.6 545.66668 3356.0 544.66668 3356.0C535.33332 3356.0 524.0 3356.0 514.66668 3356.0ZM508.0 3192.0C508.0 3214.4 508.0 3245.2 508.0 3267.6C508.0 3270.4 509.33332 3272.0 511.66668 3272.0H691.33332C691.33332 3249.6 691.33332 3218.8 691.33332 3196.4C691.33332 3193.6 690.0 3192.0 687.66668 3192.0Z" fill="#1a1a1a"/><line x1="700.0" y1="3080.0" x2="700.0" y2="3470.0" stroke="#eee" stroke-width="0.5"/><path d="M708.0 3356.0C708.0 3382.4 708.0 3409.2 708.0 3435.6C708.0 3438.4 709.66668 3440.0 711.66668 3440.0C726.33332 3440.0 744.66668 3440.0 759.33332 3440.0C803.33332 3440.0 824.66668 3414.0 824.66668 3361.6C824.66668 3297.04719101124 824.66668 3208.9468164794 824.66668 3144.8C824.66668 3139.6 825.66668 3135.6 828.0 3132.8C830.0 3130.4 833.33332 3128.8 838.0 3128.8C839.33332 3128.8 840.66668 3128.8 842.0 3128.8C842.0 3132.26666666668 842.0 3135.15555555556 842.0 3139.2V3144.0C859.54892 3144.0 876.78444 3144.0 894.33332 3144.0C896.66668 3144.0 898.0 3142.4 898.0 3139.6V3065.6C898.0 3064.4 897.66668 3063.2 897.0 3062.4C892.0 3056.8 865.66668 3052.0 843.0 3052.0C776.9830400000001 3052.0 748.0 3081.2 748.0 3149.2C748.0 3214.0 748.0 3286.4 748.0 3351.6C748.0 3353.2 747.66668 3354.4 747.0 3355.2C746.66668 3355.6 745.66668 3356.0 744.66668 3356.0C735.33332 3356.0 724.0 3356.0 714.66668 3356.0ZM708.0 3192.0C708.0 3214.4 708.0 3245.2 708.0 3267.6C708.0 3270.4 709.33332 3272.0 711.66668 3272.0H891.33332C891.33332 3249.6 891.33332 3218.8 891.33332 3196.4C891.33332 3193.6 890.0 3192.0 887.66668 3192.0Z" fill="#1a1a1a"/><line x1="900.0" y1="3080.0" x2="900.0" y2="3470.0" stroke="#eee" stroke-width="0.5"/><path d="M1090.66668 3140.0C1073.66668 3140.0 1037.66668 3140.0 1023.0 3140.0C1013.66668 3210.8 1004.0 3281.6 994.66668 3352.4C993.33332 3361.6 991.0 3364.0 982.66668 3364.0C965.33332 3364.0 948.0 3364.0 930.66668 3364.0H924.0V3435.6C924.0 3438.4 925.33332 3440.0 927.66668 3440.0C930.33332 3440.0 970.0 3440.0 991.33332 3440.0C1029.0 3440.0 1052.0 3412.8 1059.0 3366.4C1070.66668 3293.2 1082.33332 3219.6 1094.0 3146.4C1094.66668 3142.4 1093.0 3140.0 1090.66668 3140.0ZM976.33332 3140.0C957.66668 3140.0 919.0 3140.0 903.66668 3140.0C915.32912 3208.84003294904 934.0 3307.2 939.0 3333.6C940.66668 3342.4 942.33332 3344.0 949.0 3344.0H1012.0L1022.33332 3273.6H998.33332C994.66668 3244.0 986.66668 3184.4 982.0 3146.0C981.66668 3142.8 979.33332 3140.0 976.33332 3140.0Z" fill="#1a1a1a"/><line x1="1100.0" y1="3080.0" x2="1100.0" y2="3470.0" stroke="#eee" stroke-width="0.5"/></svg>